<?xml version="1.0" encoding="utf-8"?>
<!DOCTYPE svg PUBLIC "-//W3C//DTD SVG 20010904//EN" "http://www.w3.org/TR/2001/REC-SVG-20010904/DTD/svg10.dtd">
<svg version="1.0" xmlns="http://www.w3.org/2000/svg" width="338px" height="338px" viewBox="0 0 338 338" preserveAspectRatio="xMidYMid meet">
 <g fill="#3b3232">
  <path d="M47 335.9 c-1.9 -0.5 -7 -1.3 -11.4 -1.8 -10.4 -1.2 -11.9 -2.6 -12.6 -12.4 l-0.5 -7.2 -9 -1.7 c-11.9 -2.2 -12.5 -3 -12.5 -15.4 0 -12.6 0.7 -13.4 12.8 -13.4 5.7 0 9.4 0.5 10.7 1.4 1.1 0.7 6.9 3.2 13 5.5 6 2.3 11.3 4.8 11.7 5.4 0.4 0.7 0.8 3.1 0.8 5.5 l0 4.2 19.5 0 19.5 0 0 -16.5 0 -16.5 -21.2 0 c-15 0 -23.4 -0.5 -28.3 -1.5 -3.8 -0.8 -8 -1.5 -9.1 -1.5 -1.2 0 -3.2 -0.9 -4.5 -1.9 -2.1 -1.7 -2.5 -3 -2.9 -10.7 l-0.5 -8.8 -5 -1.3 c-2.7 -0.7 -6.6 -1.3 -8.6 -1.3 -2.4 0 -4.2 -0.7 -5.7 -2.3 -2.1 -2.2 -2.2 -3.2 -2.2 -21.3 0 -18.6 0.1 -19.1 2.3 -21.2 2 -1.9 3.5 -2.2 11 -2.2 l8.7 0 0 -8.6 c0 -8.1 0.1 -8.7 2.9 -11.5 l2.9 -2.9 28.8 0 28.7 0 10.6 4.1 c5.8 2.2 11.4 4.5 12.5 5.1 1.9 1 3.6 -0.3 3.6 -2.9 0 -0.6 1.4 -2.3 3.1 -3.7 l3.1 -2.6 39.8 0 c28.4 0 40.6 0.3 42.5 1.2 1.9 0.9 2.8 0.9 3.7 0 0.8 -0.8 6.9 -1.2 19.6 -1.2 15.7 0 18.8 0.3 21.3 1.7 1.6 1 8 3.8 14.2 6.3 l11.2 4.5 0.5 17.4 0.5 17.4 6.5 2.3 c3.6 1.3 7.3 2.8 8.2 3.4 1 0.5 2 1 2.3 1 0.3 0 0.5 -10.1 0.5 -22.5 0 -18.1 0.3 -23.2 1.5 -25.5 2.5 -4.7 5.2 -6 13 -6 6 0 7.6 0.4 10.5 2.5 1.9 1.4 3.9 2.5 4.5 2.5 1.7 0 15.9 7 16.7 8.3 0.4 0.7 0.8 33.4 0.8 72.8 0 82.3 1 74.9 -9.8 74.9 -7.6 0 -31.2 -3.8 -33 -5.3 -2.6 -2.1 -4.2 -6.7 -4.2 -12 l0 -5.3 -9.7 -1.9 c-5.4 -1 -10.4 -2.3 -11 -2.8 -1 -0.7 -1.3 -5.7 -1.3 -18.8 0 -11.7 -0.4 -18 -1.1 -18.4 -0.6 -0.4 -3.6 -1.3 -6.7 -2.1 -10.2 -2.4 -9.1 -5.9 -9.4 32.4 l-0.3 33.7 -53.5 0.3 c-43.7 0.2 -54.8 0 -60.5 -1.2 -3.8 -0.8 -9.9 -1.7 -13.5 -2 -5.8 -0.5 -6.7 -0.4 -7.8 1.4 -1.2 1.9 -2.2 2 -33 1.9 -17.4 -0.1 -33.3 -0.5 -35.2 -1z m38.4 -11.8 c1.2 -1.3 1.6 -3.2 1.4 -5.8 l-0.3 -3.8 -28 0 -28 0 -0.3 3.8 c-0.2 2.6 0.2 4.5 1.4 5.8 1.6 1.8 3.4 1.9 26.9 1.9 23.5 0 25.3 -0.1 26.9 -1.9z m112 0.3 c1.9 -1.8 2.1 -5.5 0.4 -7.2 -0.9 -0.9 -9.4 -1.2 -32 -1.2 -29.4 0 -30.8 -0.1 -31.8 -1.9 -1.5 -2.9 -1.4 -51.3 0.2 -52.9 0.8 -0.8 6.6 -1.2 19.7 -1.2 15.8 0 18.7 -0.2 20.3 -1.7 2.2 -2 2.3 -4.6 0.2 -6.7 -1.3 -1.3 -4.6 -1.6 -20.3 -1.6 -13.2 0 -19.1 -0.4 -19.9 -1.2 -1.7 -1.7 -1.7 -51.9 0 -53.6 0.9 -0.9 9.3 -1.2 31.8 -1.2 22.5 0 30.9 -0.3 31.8 -1.2 1.9 -1.9 1.5 -6.6 -0.7 -7.8 -1.3 -0.6 -15 -1 -37.7 -1 -35.4 0 -35.8 0 -38.1 2.2 l-2.3 2.1 0 66.2 c0 65.5 0 66.3 2.1 68.9 l2 2.6 36.4 0 c31.7 0 36.6 -0.2 37.9 -1.6z m23.4 0.4 c0.9 -0.9 1.2 -14.3 1.2 -54 l0 -52.8 10.5 0 10.5 0 0 -15.2 c0 -19.9 1 -18.8 -17.5 -18.8 -9.6 0 -14.5 0.4 -15.3 1.2 -1.7 1.7 -1.7 137.9 0 139.6 0.7 0.7 3 1.2 5.3 1.2 2.3 0 4.6 -0.5 5.3 -1.2z m88 -0.4 l2.2 -1.5 0 -67.6 c0 -61.5 -0.1 -67.8 -1.7 -69.5 -2 -2.2 -7 -2.3 -9.5 -0.1 -1.7 1.5 -1.8 4.2 -1.8 43.5 l0 41.8 -11.5 0 -11.5 0 0 16 0 15.9 11.3 0.3 11.2 0.3 0.3 9.5 c0.2 8.2 0.5 9.7 2.3 11.3 2.6 2.1 5.8 2.2 8.7 0.1z m-106.8 -34.9 l0 -18.5 -19.5 0 -19.5 0 0 18.5 0 18.5 19.5 0 19.5 0 0 -18.5z m-182.2 8.8 l-0.3 -5.8 -4.3 -0.3 c-5.4 -0.4 -7.2 1 -7.2 5.7 0 4.9 1.4 6.1 7.2 6.1 l4.9 0 -0.3 -5.7z m88.4 4 c1.6 -1.4 1.8 -3.3 1.8 -14.1 0 -15 -0.6 -16.2 -8.2 -16.2 l-4.8 0 0 16 0 16 4.7 0 c2.9 0 5.3 -0.6 6.5 -1.7z m-21.4 -44.7 c0.2 -2.2 0.1 -5 -0.2 -6.3 l-0.6 -2.3 -28 0 -28 0 0 5.3 c0 2.9 0.5 5.8 1.2 6.5 0.9 0.9 8.1 1.2 28.3 1 l27 -0.3 0.3 -3.9z m178 -12.8 l-0.3 -16.3 -6 0 -6 0 -0.3 15 c-0.1 8.2 0 15.5 0.2 16.2 0.4 0.9 2.6 1.3 6.6 1.3 l6 0 -0.2 -16.2z m-152.8 -4.7 c0 -6.1 -0.4 -11.2 -0.9 -11.5 -0.4 -0.3 -4.8 -1.2 -9.7 -2.1 -4.9 -0.8 -9.5 -2.2 -10.3 -3 -1 -1 -1.7 -4.1 -1.9 -8.5 l-0.4 -7 -19.4 0 -19.4 0 0 16.5 0 16.5 19.8 0 c18.6 0 20 0.1 22 2 1.3 1.2 2.2 3.3 2.2 5 l0 3 9 0 9 0 0 -10.9z m90 -11.6 l0 -22.5 -19.5 0 -19.5 0 0 18 0 18 6.6 0 c4.2 0 7.6 0.6 9.2 1.6 2.2 1.2 19.7 6.9 22.5 7.3 0.4 0.1 0.7 -10 0.7 -22.4z m-182 -6 l0 -15.5 -4.8 0 c-2.6 0 -5.3 0.5 -6 1.2 -1.7 1.7 -1.7 26.9 0 28.6 0.7 0.7 3.4 1.2 6 1.2 l4.8 0 0 -15.5z m88.9 -5.9 c0.7 -0.8 1.1 -3.2 0.9 -5.3 l-0.3 -3.8 -6.2 -0.3 -6.3 -0.3 0 4.9 c0 2.7 0.3 5.2 0.7 5.5 1.3 1.3 10 0.7 11.2 -0.7z m-23.5 -20.2 c1.1 -0.4 1.6 -1.9 1.6 -4.9 0 -7.6 0.2 -7.5 -28.2 -7.5 -28.7 0 -28.8 0 -28.8 7.6 0 2.4 0.5 4.4 1.3 4.7 1.8 0.8 52.2 0.8 54.1 0.1z"/>
  <path d="M43.7 161.9 c-3.2 -0.5 -7.5 -1.3 -9.5 -1.9 -2 -0.5 -4.9 -1 -6.4 -1 -4.6 0 -6.8 -4.1 -6.8 -12.5 l0 -7.1 -8.7 -1.7 c-5.5 -1.1 -9.3 -2.4 -10 -3.4 -0.8 -1.1 -1.3 -5.1 -1.3 -10.9 0 -8.8 0.1 -9.4 2.6 -11.3 2.2 -1.7 4.1 -2.1 10 -2.1 6.8 0 7.7 0.2 10.5 2.9 2.1 2.1 5.4 3.5 11.2 5 12.7 3.4 12.7 3.3 12.7 8.6 l0 4.5 21.3 -0.2 21.2 -0.3 0.3 -16.2 0.2 -16.3 -23.3 0 c-18.1 0 -24.5 -0.3 -28.7 -1.6 -3 -0.8 -7.5 -1.9 -9.9 -2.3 -6.8 -1.3 -8.1 -3.5 -8.1 -14.3 0 -8.1 0.2 -9.1 2.5 -11.3 2.2 -2.3 3.2 -2.5 10.9 -2.5 l8.4 0 0.4 -9.1 c0.4 -12.3 1.2 -12.9 15.5 -12.9 l10.4 0 -0.3 -5.5 -0.3 -5.5 -22.5 -0.3 c-18.6 -0.2 -23.2 -0.6 -26.4 -2 -2.1 -0.9 -5.2 -1.7 -6.8 -1.7 -4.4 0 -8.8 -2.7 -10.4 -6.5 -2.8 -6.9 -1.1 -16.5 3.7 -19.9 2.1 -1.4 7.7 -1.6 52.4 -1.6 55.5 0 53.2 -0.3 56.1 6.6 1.6 3.8 3 4.3 3.9 1.4 0.3 -1 2 -3.1 3.6 -4.5 l3.1 -2.5 25.1 0 c24.9 0 25.3 0 28.7 2.4 1.9 1.3 7.5 3.6 12.4 5.2 11.2 3.7 14 6.1 15 13.2 0.4 2.9 1.2 5.5 1.9 5.7 0.7 0.2 5.4 1.7 10.6 3.2 10.6 3.3 12.9 5.2 13.8 12.1 0.5 4 0.7 4.2 7.2 6.7 12.9 5.2 13.1 5.7 13.1 36.8 0 15.3 -0.4 25.6 -1.1 27.6 -1.5 4.2 -5.5 6.1 -12.7 6.1 l-5.9 0 -0.5 7.6 c-0.4 6.5 -0.9 7.9 -3.2 10.2 -2.5 2.5 -3.3 2.7 -13.1 3 l-10.5 0.4 0 7.9 c0 7.1 -0.3 8.3 -2.5 10.4 l-2.4 2.5 -35.1 0 -35 0 -4.3 -2.7 c-2.3 -1.5 -5.2 -3.6 -6.4 -4.7 l-2.3 -1.9 0 3.4 c0 1.9 -0.5 4 -1.2 4.7 -1.4 1.4 -63.5 1.5 -73.1 0.1z m130.9 -13.3 c1.4 -1.6 2.4 -3.8 2.2 -5 -0.3 -2 -0.9 -2.1 -17.8 -2.6 -19.5 -0.6 -21.4 -1.2 -24.4 -7.5 -1.4 -2.9 -1.6 -9.6 -1.6 -52.4 0 -53.3 0 -53.6 5.5 -57.9 2.6 -2.1 3.9 -2.2 19.4 -2.2 9.1 0 17.2 -0.4 18 -0.9 1.8 -1.1 0.8 -5.4 -1.9 -8.1 -1.9 -1.9 -3.4 -2 -23.2 -2 -20.4 0 -21.3 0.1 -23.5 2.2 l-2.3 2.1 0 66.7 c0 62.3 0.1 66.8 1.8 68.2 2.9 2.6 4.1 2.7 25 2.5 l20.4 -0.2 2.4 -2.9z m-86.8 -3.8 l0.3 -5.8 -29.6 0 -29.5 0 0 5.3 c0 3 0.3 5.7 0.7 6 0.4 0.4 13.5 0.6 29.2 0.5 l28.6 -0.3 0.3 -5.7z m91.2 -19.2 c0 -6.5 0.3 -7.9 2.4 -10.3 2.3 -2.7 2.9 -2.8 13.3 -3.3 l10.8 -0.5 0.3 -29.2 0.2 -29.2 -3.7 -1 c-2.1 -0.5 -6.7 -1.5 -10.3 -2.1 -11.1 -2 -13 -3.9 -13 -13 l0 -5 -3.5 0 c-2 0 -4.9 0.7 -6.5 1.5 -6 3.1 -6 2.9 -6 53.5 l0 46 8 0 8 0 0 -7.4z m21.5 1.8 c1.4 -1.5 2.5 -3.8 2.5 -5 0 -2.3 -0.3 -2.4 -6.7 -2.4 -7.9 0 -10.3 1.6 -10.3 6.7 l0 3.3 6 0 c5.3 0 6.4 -0.3 8.5 -2.6z m-181.7 -2.7 c0.4 -4.8 -1.1 -6.7 -5.2 -6.7 -4.2 0 -5.6 1.6 -5.6 6.1 0 4.2 0.9 4.9 6.5 4.6 3.9 -0.2 4 -0.3 4.3 -4z m88.7 -12.2 l0 -16 -4.5 0 -4.5 0 -0.3 16.3 -0.3 16.3 4.8 -0.3 4.8 -0.3 0 -16z m113 -6 l2.5 -2.4 0 -23.4 c0 -22.2 -0.1 -23.6 -2.1 -26.1 -1.4 -1.7 -3 -2.6 -5 -2.6 l-2.9 0 0 28.5 0 28.5 2.5 0 c1.4 0 3.7 -1.1 5 -2.5z m-132.7 -26.2 l-0.3 -5.8 -9.5 -0.3 c-7.5 -0.2 -9.8 -0.6 -10.7 -1.9 -0.8 -1.1 -1.3 -5.1 -1.3 -11 l0 -9.4 -7.2 0.3 -7.3 0.3 -0.5 8.7 c-0.7 11.8 -1.5 12.6 -12.9 13 l-8.6 0.3 -0.3 4.4 c-0.6 7.6 -2.5 7.1 29.8 7.1 l29.1 0 -0.3 -5.7z m29.8 -4.9 c-0.3 -0.9 -0.6 -6.3 -0.6 -12 l0 -10.4 -10.5 0 -10.5 0 0 7 0 7 10.3 4.9 c11.5 5.5 12.2 5.7 11.3 3.5z m-28.6 -43 c0.6 -10.2 1.5 -11.4 8.9 -11.4 6.9 0 10.1 -1.9 10.1 -6 0 -6 0.2 -6 -49.5 -6 -49.7 0 -49.5 0 -49.5 6 0 5.8 1.3 6 33.5 6 35.4 0 33.5 -0.7 33.5 11.6 l0 8.5 6.3 -0.3 6.2 -0.3 0.5 -8.1z m114 6.5 c0 -1.1 -1.3 -3.4 -3 -5 -2.6 -2.7 -3.5 -3 -8.2 -2.7 -5 0.3 -5.3 0.5 -5.6 3.1 -0.6 4.9 2.1 6.7 10 6.7 6.2 0 6.8 -0.2 6.8 -2.1z"/>
 </g>
 <g fill="#f88888">
  <path d="M28.6 327.1 c-1.3 -1.5 -1.6 -3.4 -1.4 -8.7 l0.3 -6.9 31 0 31 0 0.3 6.9 c0.5 11.1 2 10.6 -31.3 10.6 -26.3 0 -28.3 -0.1 -29.9 -1.9z m56.2 -7.3 l0.3 -3.8 -26.5 0 -26.6 0 0 3.3 c0 1.9 0.3 3.7 0.7 4 0.4 0.4 12.2 0.6 26.2 0.5 l25.6 -0.3 0.3 -3.7z"/>
  <path d="M118.1 326.4 c-1.2 -1.5 -2.1 -3.1 -2.1 -3.5 0 -1.2 5.7 -1.1 6.5 0.1 0.4 0.6 13.8 1 37 1 23.2 0 36.6 -0.4 37 -1 0.3 -0.5 1.7 -1 3.1 -1 2.8 0 3.3 2.9 0.8 5.4 -1.3 1.4 -6.5 1.6 -40.9 1.6 l-39.4 0 -2 -2.6z"/>
  <path d="M207.2 327.8 c-1.7 -1.7 -1.7 -143.9 0 -145.6 0.8 -0.8 6.3 -1.2 18.3 -1.2 15.4 0 17.4 0.2 18.8 1.8 1.5 1.6 1.7 4.5 1.7 20 l0 18.2 -10.5 0 -10.5 0 0 52.8 c0 39.7 -0.3 53.1 -1.2 54 -1.6 1.6 -15 1.6 -16.6 0z"/>
  <path d="M297.1 327.3 c-1.8 -1.6 -2.1 -3.1 -2.3 -11.3 l-0.3 -9.5 -10 -0.2 c-5.5 -0.1 -10.6 -0.2 -11.2 -0.3 -1 0 -1.3 -4.5 -1.3 -19 l0 -19 11.5 0 11.5 0 0 -41.8 c0 -48.4 -0.7 -45.2 9.7 -45.2 10.1 0 9.3 -6.7 9.3 74.3 l0 70.6 -2.2 1.5 c-3.1 2.2 -12 2.1 -14.7 -0.1z"/>
  <path d="M133.2 315.8 c-0.7 -0.7 -1.2 -2.7 -1.2 -4.5 0 -2.5 0.4 -3.3 1.8 -3.3 1.1 0 2.4 1.1 3 2.5 0.6 1.4 1.8 2.5 2.7 2.5 0.8 0 1.5 0.9 1.5 2 0 1.6 -0.7 2 -3.3 2 -1.8 0 -3.8 -0.5 -4.5 -1.2z"/>
  <path d="M6.2 305.8 c-1.7 -1.7 -1.6 -14.2 0.2 -15.7 0.9 -0.7 4.2 -1.1 8.8 -0.9 l7.3 0.3 0.3 8.8 0.3 8.7 -7.9 0 c-4.7 0 -8.3 -0.5 -9 -1.2z"/>
  <path d="M94 288 l0 -19 7.8 0 c11.3 0 11.2 -0.1 11.2 19.2 0 18.9 0.1 18.8 -11.3 18.8 l-7.7 0 0 -19z"/>
  <path d="M132 264.5 c0 -2.4 0.5 -3.5 1.5 -3.5 0.8 0 1.5 -0.7 1.5 -1.5 0 -1.2 3.1 -1.5 19.3 -1.7 l19.2 -0.3 0.3 -2.7 0.3 -2.8 -19.4 0 c-21.6 0 -22.7 -0.3 -22.7 -6.8 0 -3.9 3 -4.5 4.5 -0.9 1 2.1 1.5 2.2 20.8 2.7 22.2 0.6 21.7 0.4 21.7 8.1 0 7.6 -0.6 7.8 -22.6 8.1 -18.5 0.3 -18.9 0.3 -19.9 2.6 -0.5 1.2 -1.8 2.2 -2.7 2.2 -1.4 0 -1.8 -0.8 -1.8 -3.5z"/>
  <path d="M28.2 263.8 c-0.7 -0.7 -1.2 -4.3 -1.2 -9.5 0 -8.2 0 -8.3 2.5 -8.3 2.4 0 2.5 0.2 2.5 7 l0 7 26.6 0 26.7 0 -0.7 -7 c-0.6 -7 -0.6 -7 1.9 -7 3.1 0 3.7 2.1 3.3 11.5 l-0.3 7 -30 0.3 c-22.6 0.2 -30.4 -0.1 -31.3 -1z"/>
  <path d="M249.4 262.7 c-0.2 -0.7 -0.3 -9.4 -0.2 -19.2 0.3 -17.8 0.3 -18 2.6 -18.3 l2.2 -0.3 0 17 0 17.1 7 0 c6.8 0 7 0.1 7 2.5 0 2.5 -0.1 2.5 -9 2.5 -6.5 0 -9.2 -0.4 -9.6 -1.3z"/>
  <path d="M6.2 239.8 c-1.7 -1.7 -1.7 -32.9 0 -34.6 0.7 -0.7 4.3 -1.2 9 -1.2 l7.8 0 0 18.5 0 18.5 -7.8 0 c-4.7 0 -8.3 -0.5 -9 -1.2z"/>
  <path d="M94.7 220.3 c-0.4 -0.3 -0.7 -4.2 -0.7 -8.5 l0 -7.9 9.3 0.3 9.2 0.3 0.3 6.8 c0.2 4.2 -0.2 7.4 -0.9 8.3 -1.2 1.5 -15.9 2.1 -17.2 0.7z"/>
  <path d="M132 198.7 c0 -6.7 -0.1 -6.7 36.8 -6.7 27.5 0 33.2 0.2 33.2 1.4 0 3.3 -2.6 3.6 -33.6 3.8 l-30.9 0.3 -1 2.3 c-0.5 1.2 -1.8 2.2 -2.7 2.2 -1.4 0 -1.8 -0.8 -1.8 -3.3z"/>
  <path d="M28.3 199.3 c-0.9 -0.3 -1.3 -2.9 -1.3 -7.7 0 -11.1 -1.6 -10.6 31.8 -10.6 24.2 0 28.3 0.2 29.6 1.6 2.3 2.2 2.3 15.9 0 16.8 -3.1 1.2 -3.4 0.5 -3.4 -6.4 l0 -7 -26.2 0.2 -26.3 0.3 -0.3 6.8 c-0.3 6.6 -0.8 7.3 -3.9 6z"/>
  <path d="M116 186.7 c0 -0.8 1 -2.3 2.3 -3.5 2.3 -2.2 2.7 -2.2 41.1 -2.2 38.8 0 42.6 0.3 42.6 3.5 0 1.3 -5.5 1.5 -39.4 1.5 -25.3 0 -39.7 0.4 -40.1 1 -0.9 1.5 -6.5 1.2 -6.5 -0.3z"/>
  <path d="M176 144.9 c0 -6.2 0.2 -7 1.8 -6.7 3.3 0.6 2.5 13.8 -0.8 13.8 -0.6 0 -1 -3.2 -1 -7.1z"/>
  <path d="M6.2 117.3 c0.3 -1.5 1.5 -1.8 7.3 -1.8 5.8 0 7 0.3 7.3 1.8 0.3 1.5 -0.6 1.7 -7.3 1.7 -6.7 0 -7.6 -0.2 -7.3 -1.7z"/>
  <path d="M95.2 95.3 c0.3 -1.5 1.6 -1.9 7.5 -2.1 6.4 -0.3 7.3 -0.1 8.3 1.8 1 1.9 0.8 2 -7.5 2 -7.7 0 -8.6 -0.2 -8.3 -1.7z"/>
  <path d="M72.8 35 c-0.3 -8.8 -0.2 -9 2 -9 2.1 0 2.2 0.3 2.2 9 0 8.2 -0.2 9 -1.9 9 -1.8 0 -2 -0.9 -2.3 -9z"/>
  <path d="M145 22 c0 -1.9 0.7 -2 15.5 -2 l15.5 0 0 -3.9 c0 -3.3 -0.4 -4 -2.5 -4.5 -1.6 -0.4 -2.5 -1.3 -2.5 -2.6 0 -3.7 5.3 -2.2 7.5 2.1 2.1 3.9 2 11.5 -0.1 12.3 -0.9 0.3 -8.7 0.6 -17.5 0.6 -15.2 0 -15.9 -0.1 -15.9 -2z"/>
 </g>
 <g fill="#f4343d">
  <path d="M29.9 328.3 c-0.1 -0.5 -0.1 -1.1 0 -1.5 0 -0.5 -0.5 -0.7 -1.1 -0.5 -1 0.1 -1.3 -1.8 -1.3 -7.3 l0 -7.5 31 0 31 0 0.3 6.9 c0.5 11.1 2.1 10.6 -31.5 10.6 -15.5 0 -28.4 -0.3 -28.4 -0.7z m42.9 -1 c-7.5 -0.2 -20.1 -0.2 -28 0 -7.9 0.1 -1.7 0.3 13.7 0.3 15.4 0 21.8 -0.2 14.3 -0.3z m16 -8.4 l-0.3 -6.4 -30 0 -30 0 -0.1 6.5 -0.1 6.5 0.4 -6.2 0.4 -6.3 29.5 0 29.6 0 -0.4 7 c-0.2 3.8 0.1 6.5 0.5 6.1 0.4 -0.4 0.7 -3.7 0.5 -7.2z"/>
  <path d="M118.1 326.4 c-2.1 -2.6 -2.1 -3.4 -2.1 -71.9 l0 -69.2 2.3 -2.1 c2.3 -2.2 2.7 -2.2 41.1 -2.2 24.8 0 39.4 0.4 40.7 1 1.5 0.9 1.9 2.2 1.9 6.8 0 3.2 -0.5 6.3 -1.2 7 -0.9 0.9 -9.3 1.2 -31.8 1.2 -23.1 0 -30.9 0.3 -32 1.3 -1.2 1 -1.2 0.9 -0.1 -0.5 1.2 -1.6 4.2 -1.8 32 -2.1 l30.6 -0.2 -30.6 -0.3 c-25.2 -0.2 -30.9 0 -31.8 1.2 -0.8 1 -1.2 8.7 -1.2 25.6 0 16.9 0.4 24.6 1.2 25.6 0.9 1.1 4.9 1.4 20.3 1.2 l19.1 -0.3 -19.1 -0.2 c-16.8 -0.3 -19.4 -0.6 -20.5 -2.1 -1.1 -1.4 -1.1 -1.5 0.1 -0.4 1 0.9 6.6 1.2 20.1 1.2 22 0 22.2 0.1 21.7 8.4 -0.2 3.4 -0.7 5 -1.5 4.9 -0.7 -0.2 -1.2 0.3 -1 1 0.1 0.9 -4.1 1.3 -18.3 1.5 -10.2 0.1 -19.2 0.5 -20 0.9 -0.8 0.3 -1.7 0.6 -2 0.5 -0.3 0 -0.4 4.1 -0.3 9.1 0.8 28.7 0.7 38.5 -0.2 38 -0.5 -0.3 -0.5 -0.1 0.1 0.6 0.8 0.9 9.2 1.2 32.4 1.1 22.2 0 31.6 0.3 32.6 1.1 2 1.6 1.9 11.3 -0.2 13.3 -1.3 1.4 -6.5 1.6 -40.9 1.6 l-39.4 0 -2 -2.6z m60.6 0.9 c-10.9 -0.2 -28.5 -0.2 -39 0 -10.6 0.1 -1.6 0.2 19.8 0.2 21.5 0 30.1 -0.1 19.2 -0.2z m1.1 -145 c-10.9 -0.2 -28.7 -0.2 -39.6 0 -10.8 0.1 -1.9 0.2 19.8 0.2 21.7 0 30.6 -0.1 19.8 -0.2z"/>
  <path d="M28.2 263.8 c-0.7 -0.7 -1.2 -4.3 -1.2 -9.5 l0 -8.3 31 0 31 0 0.5 2.3 c0.3 1.2 0.5 5.4 0.3 9.2 l-0.3 7 -30 0.3 c-22.6 0.2 -30.4 -0.1 -31.3 -1z m60.6 -7.7 c0.2 -4.1 -0.1 -7.8 -0.5 -8.2 -0.4 -0.4 -0.7 2.8 -0.5 7.1 l0.4 8 -29.1 0.3 -29.1 0.2 29.2 0 29.3 0 0.3 -7.4z"/>
  <path d="M249.4 262.7 c-0.2 -0.7 -0.3 -9.4 -0.2 -19.2 l0.3 -18 9 0 9 0 0.3 19.3 0.2 19.2 -9 0 c-6.5 0 -9.2 -0.4 -9.6 -1.3z"/>
  <path d="M28.3 199.3 c-0.9 -0.3 -1.3 -2.9 -1.3 -7.7 0 -11.1 -1.6 -10.6 31.8 -10.6 24.2 0 28.3 0.2 29.6 1.6 2.3 2.2 2.3 15.9 0 16.8 -1.9 0.7 -58.3 0.7 -60.1 -0.1z m30.2 -16.3 l29 -0.5 -28.5 -0.3 c-21.2 -0.1 -28.9 0.1 -29.8 1 -0.7 0.7 -1.1 3.9 -1 8.3 l0.2 7 0.5 -7.5 0.6 -7.5 29 -0.5z"/>
 </g>
 <g fill="#d4c7c5">
  <path d="M35.5 334 c-3.3 -0.4 7.1 -0.7 23.2 -0.8 l29.2 -0.2 2.8 -2.4 c2.6 -2.3 2.8 -3.1 3.2 -11 l0.3 -8.6 8.4 0 c4.6 0 8.7 0 9.2 0 0.4 0 0.9 3.8 1.2 8.6 0.5 8 0.7 8.8 3.4 11.1 2.3 1.9 2.5 2.4 1.1 2.2 -1.1 -0.2 -3 -1.9 -4.2 -3.8 -1.8 -2.7 -2.3 -4.8 -2.3 -10 l0 -6.6 -8 0.3 -8 0.4 0 7.4 c0 6.7 -0.3 7.6 -2.9 10.6 l-2.9 3.3 -23.9 0 c-13.1 0 -26.5 -0.2 -29.8 -0.5z"/>
  <path d="M126.5 334 c-3.3 -0.4 11.6 -0.7 33.2 -0.8 27.5 -0.1 40 -0.5 41.8 -1.4 1.9 -0.9 2.8 -0.9 3.7 0 0.8 0.8 4.7 1.2 10.4 1.2 14.6 0 13.4 5.1 13.4 -56.6 l0 -51.4 8 0 8 0 0 19.5 c0 24.3 -0.5 23.5 13.5 23.5 l9.5 0 -0.1 2.8 c-0.1 1.6 -0.3 2 -0.6 1 -0.3 -1.3 -1.6 -1.8 -4.1 -2 -5.8 -0.2 -13.6 -0.6 -14.4 -0.7 -0.5 -0.1 -1.7 -1 -2.8 -2.1 -1.9 -1.9 -2 -3.3 -2 -21 l0 -19 -7 0 -7 0 0 51.3 0 51.4 -2.6 2.4 c-2.2 2 -3.8 2.4 -10.4 2.7 -5.4 0.3 -8.8 0 -10.7 -1 -2.3 -1.1 -3.2 -1.2 -5.3 -0.1 -1.9 1 -10.1 1.3 -35.5 1.1 -18.1 -0.1 -35.7 -0.5 -39 -0.8z"/>
  <path d="M302.5 333.9 c-3.4 -0.5 -2.9 -0.6 2.8 -0.8 6.1 -0.1 7.2 -0.4 9.8 -3 l2.9 -2.9 0 -71.7 c0 -47.5 -0.3 -72.3 -1 -73.6 -0.6 -1.1 -0.7 -1.9 -0.1 -1.9 2.8 0 3.1 7.8 3.1 75.2 0 72.3 0 73.1 -4.4 76.7 -2.2 1.9 -8.2 2.8 -13.1 2z"/>
  <path d="M118.1 326.4 c-2.1 -2.6 -2.1 -3.4 -2.1 -71.9 l0 -69.2 2.3 -2.1 c2.3 -2.2 2.7 -2.2 41.1 -2.2 24.8 0 39.4 0.4 40.7 1 1.5 0.9 1.9 2.2 1.9 6.8 0 6.2 -1.1 8.2 -4.4 8.2 -1.9 0 -1.8 -0.2 0.4 -1.3 2.1 -1 2.6 -2.1 2.8 -6.1 0.2 -2.6 -0.2 -5.4 -0.9 -6.2 -0.9 -1.2 -7.6 -1.4 -39.6 -1.4 -24.6 0 -39.1 0.4 -40.4 1 -1.9 1 -1.9 2.9 -1.9 72.1 l0 71 3.3 1.4 c2.6 1.2 2.8 1.4 1 1.5 -1.2 0 -3.1 -1.2 -4.2 -2.6z"/>
  <path d="M197.8 327.5 c3 -1.3 3.2 -1.7 3.2 -6.8 0 -4.1 -0.4 -5.6 -1.6 -6.1 -0.9 -0.3 -15 -0.6 -31.3 -0.6 -27.6 0 -29.9 -0.1 -31.4 -1.8 -1.5 -1.6 -1.7 -4.8 -1.7 -24.1 0 -13.4 0.4 -23 1 -24.2 0.6 -1 2.1 -1.9 3.3 -1.9 2.1 0 2.1 0.1 -0.3 1.3 l-2.5 1.3 -0.3 22.2 c-0.1 14.2 0.1 23 0.8 24.2 1 1.9 2.2 2 31.8 2 22.6 0 31.1 0.3 32 1.2 0.7 0.7 1.2 3.6 1.2 6.4 0 5.8 -1.7 8.4 -5.3 8.4 -1.8 -0.1 -1.6 -0.3 1.1 -1.5z"/>
  <path d="M207.2 327.8 c-1.7 -1.7 -1.7 -143.9 0 -145.6 0.8 -0.8 6.3 -1.2 18.3 -1.2 15.4 0 17.4 0.2 18.8 1.8 1.5 1.6 1.7 4.5 1.7 20 l0 18.2 -10.5 0 -10.5 0 0 52.8 c0 39.7 -0.3 53.1 -1.2 54 -1.6 1.6 -15 1.6 -16.6 0z m15.8 -54 c0 -36.4 0.3 -52.9 1 -53.3 0.6 -0.4 5.4 -0.7 10.6 -0.7 l9.4 0.1 -0.2 -18.2 -0.3 -18.2 -17.3 -0.5 c-9.6 -0.3 -17.6 -0.3 -17.8 -0.1 -0.2 0.2 -0.4 32.8 -0.4 72.3 l0 71.9 7.5 -0.3 7.6 -0.3 -0.1 -52.7z"/>
  <path d="M297.1 327.3 c-1.8 -1.6 -2.1 -3.1 -2.3 -11.3 l-0.3 -9.5 -10 -0.2 c-5.5 -0.1 -10.6 -0.2 -11.2 -0.3 -1 0 -1.3 -4.5 -1.3 -19 l0 -19 11.5 0 11.5 0 0 -41.8 c0 -48.4 -0.7 -45.2 9.7 -45.2 10.1 0 9.3 -6.7 9.3 74.3 l0 70.6 -2.2 1.5 c-3.1 2.2 -12 2.1 -14.7 -0.1z m14.7 -1.5 c0.9 -0.9 1.2 -18 1.2 -70.8 0 -38.2 -0.4 -70 -0.8 -70.7 -0.9 -1.5 -13.9 -2 -15.2 -0.7 -0.6 0.6 -1.1 18.8 -1.2 43.4 l-0.3 42.5 -11.2 0.3 -11.3 0.3 0 17.4 0 17.4 11.3 0.3 11.2 0.3 0.3 9.4 c0.1 5.2 0.8 10.1 1.4 10.8 1.4 1.7 12.9 1.8 14.6 0.1z"/>
  <path d="M140.2 287.8 l0.3 -20.3 18.7 -0.5 c17.6 -0.5 18.9 -0.6 20.9 -2.7 2.9 -2.9 3.8 -11.8 1.6 -16.2 -0.9 -1.7 -1.1 -3.1 -0.7 -3.1 1.8 0 3 4.1 3 10.4 0 5.8 -0.3 6.9 -2.9 9.8 l-2.9 3.3 -18.4 0.3 -18.3 0.3 0.2 18.7 0.2 18.7 10.8 0.6 10.8 0.5 -11.8 0.2 -11.7 0.2 0.2 -20.2z"/>
  <path d="M6.2 305.8 c-1.7 -1.7 -1.6 -14.2 0.2 -15.7 0.9 -0.7 4.2 -1.1 8.8 -0.9 l7.3 0.3 0.3 8.8 0.3 8.7 -7.9 0 c-4.7 0 -8.3 -0.5 -9 -1.2z m15.6 -8 l-0.3 -7.3 -7 0 -7 0 -0.3 7.3 -0.3 7.2 7.6 0 7.6 0 -0.3 -7.2z"/>
  <path d="M27.7 306.3 c-0.4 -0.3 -0.7 -4.5 -0.7 -9.1 0 -5.3 -0.5 -9.2 -1.2 -10.2 -0.7 -0.9 -0.3 -0.5 1 0.8 1.9 2 2.2 3.4 2.2 9.6 l0 7.3 15.8 0.6 c8.6 0.4 22.1 0.7 30 0.7 l14.2 0 -0.2 -17.2 -0.3 -17.3 -29.7 -0.5 c-16.3 -0.3 -30 -0.8 -30.4 -1.3 -0.4 -0.4 13.2 -0.6 30.2 -0.5 l30.9 0.3 0 18.5 0 18.5 -30.6 0.3 c-16.8 0.1 -30.8 -0.1 -31.2 -0.5z"/>
  <path d="M94 288 l0 -19 7.8 0 c11.3 0 11.2 -0.1 11.2 19.2 0 18.9 0.1 18.8 -11.3 18.8 l-7.7 0 0 -19z m16.5 0 l0 -16.5 -7.7 -0.3 -7.8 -0.3 0 17.1 0 17.1 7.8 -0.3 7.7 -0.3 0 -16.5z"/>
  <path d="M102.8 265.3 l-8.8 -0.4 0.2 -7.2 0.2 -7.2 0.3 6.2 0.4 6.2 7.8 0.3 7.8 0.3 0.7 -9.5 c0.8 -12 0.7 -24 -0.2 -26 -0.5 -1 -2 -1.6 -4.7 -1.5 -2.2 0 -5.8 -0.3 -8 -0.6 -2.8 -0.5 -1.2 -0.7 5.3 -0.8 l9.2 -0.1 0 20.5 c0 11.3 -0.3 20.4 -0.7 20.3 -0.5 -0.1 -4.7 -0.4 -9.5 -0.5z"/>
  <path d="M28.2 263.8 c-0.7 -0.7 -1.2 -2.1 -1.2 -3.2 0 -1.9 0.2 -1.8 1.3 0.4 l1.3 2.5 29.2 0.3 29.3 0.2 0.9 -2.2 c1 -2.3 1 -2.3 0.7 0.2 l-0.2 2.5 -30 0.3 c-22.6 0.2 -30.4 -0.1 -31.3 -1z"/>
  <path d="M264.8 263 c2.2 -0.9 2.2 -1.2 2.2 -18.5 l0 -17.5 -8.4 0 c-7.2 0 -8.5 0.3 -9 1.8 -0.3 1 -0.4 0.6 -0.3 -0.8 0.2 -2.5 0.3 -2.5 9.2 -2.5 l9 0 0.3 19.3 0.2 19.2 -2.7 -0.1 c-2.7 0 -2.7 -0.1 -0.5 -0.9z"/>
  <path d="M272.7 263.4 c-0.4 -0.4 -0.7 -9.2 -0.7 -19.6 0 -23.4 0.4 -22.8 -13 -22.8 l-9 0 0 -18.4 c0 -17.8 -0.1 -18.4 -2.5 -21.9 -2 -3.1 -2.1 -3.5 -0.5 -2.5 1.1 0.7 2.3 1.9 2.7 2.8 0.4 0.8 1 9.7 1.3 19.8 l0.5 18.3 8.8 0.2 c12.9 0.3 12.7 -0.1 12.7 23.8 l0 18.9 8 0 8 0 0.1 -12.7 c0.1 -7.1 0.5 -24.7 0.9 -39.3 0.6 -25.6 0.6 -25.2 0.6 13.5 l-0.1 40 -8.5 0.3 c-4.7 0.1 -8.9 0 -9.3 -0.4z"/>
  <path d="M177.5 250.8 c-1 -2.3 -1.4 -2.3 -19.9 -2.6 -15.9 -0.2 -19.3 -0.5 -20.8 -1.9 -1.6 -1.5 -1.8 -3.7 -1.8 -24.3 0 -22.3 0 -22.7 2.3 -24.6 2.2 -1.9 2.2 -1.9 0.5 0.2 -1.6 1.8 -1.8 4.6 -1.8 24.5 0 16.2 0.3 22.8 1.2 23.7 0.8 0.8 6.7 1.2 19.9 1.2 15.7 0 19 0.3 20.3 1.6 0.9 0.8 1.6 2.2 1.6 3 0 2 -0.4 1.8 -1.5 -0.8z"/>
  <path d="M88.7 249 c-0.5 -2 -1.2 -2 -30.5 -2 -27.8 0 -30.1 0.1 -30.5 1.8 -0.4 1.3 -0.5 1.1 -0.6 -0.5 l-0.1 -2.3 30.9 0 c30.5 0 31 0 31.6 2.1 0.4 1.1 0.5 2.3 0.2 2.5 -0.2 0.3 -0.7 -0.4 -1 -1.6z"/>
  <path d="M140.4 241.7 c-0.2 -0.7 -0.3 -10 -0.2 -20.7 l0.3 -19.5 30.7 -0.5 c32.1 -0.5 31.8 -0.6 31.8 3.6 0 0.8 -0.4 1.4 -1 1.4 -0.5 0 -1 -0.8 -1 -1.7 0 -1.7 -2 -1.8 -29.7 -1.5 l-29.8 0.3 0.3 18.9 0.3 19 10.4 0 c5.8 0 10.7 0.4 11 1 0.4 0.6 -3.5 1 -11 1 -8.5 0 -11.7 -0.3 -12.1 -1.3z"/>
  <path d="M6.2 239.8 c-1.7 -1.7 -1.7 -32.9 0 -34.6 0.7 -0.7 4.3 -1.2 9 -1.2 l7.8 0 0 18.5 0 18.5 -7.8 0 c-4.7 0 -8.3 -0.5 -9 -1.2z m15.8 -17.3 l0 -17.6 -7.2 0.3 -7.3 0.3 -0.3 16 c-0.1 8.7 0 16.5 0.2 17.2 0.4 0.9 2.7 1.3 7.6 1.3 l7 0 0 -17.5z"/>
  <path d="M27 222.5 l0 -18.5 31.5 0 31.5 0 -0.2 8.3 -0.2 8.2 -0.5 -7.5 -0.6 -7.5 -29.7 -0.3 -29.8 -0.2 0 17.5 0 17.4 10.8 0.4 10.7 0.3 -11.7 0.2 -11.8 0.2 0 -18.5z"/>
  <path d="M94.7 220.3 c-0.4 -0.3 -0.7 -4.2 -0.7 -8.5 l0 -7.9 9.3 0.3 9.2 0.3 0.3 6.8 c0.2 4.2 -0.2 7.4 -0.9 8.3 -1.2 1.5 -15.9 2.1 -17.2 0.7z m16.3 -8.3 l0 -7 -8 0 -8 0 0 7 0 7 8 0 8 0 0 -7z"/>
  <path d="M28.3 199.3 c-0.7 -0.2 -1.2 -1.4 -1.2 -2.6 0.1 -1.7 0.2 -1.8 0.6 -0.4 0.4 1.6 2.7 1.7 30.8 1.7 28.1 0 30.4 -0.1 30.8 -1.7 0.4 -1.4 0.5 -1.3 0.6 0.3 0 1.2 -0.6 2.5 -1.5 2.8 -1.9 0.7 -58.3 0.7 -60.1 -0.1z"/>
  <path d="M94.4 199.1 c-0.2 -0.2 -0.4 -3.5 -0.4 -7.3 0 -3.8 -0.7 -8.5 -1.5 -10.6 l-1.5 -3.7 2 2.4 c1.6 1.9 2 3.8 2 10.2 l0 7.9 8 0 8 0 0 -5.7 c0 -3.2 0.5 -6.5 1 -7.3 0.7 -1 0.9 0.9 0.8 6.3 l-0.3 7.9 -8.8 0.1 c-4.9 0.1 -9.1 0 -9.3 -0.2z"/>
  <path d="M27 185.9 c0 -0.9 0.8 -2.3 1.8 -3.2 1.6 -1.5 5.2 -1.7 30 -1.7 24.2 0 28.3 0.2 29.6 1.6 0.9 0.8 1.6 2.3 1.6 3.2 0 1.2 -0.4 0.9 -1.3 -0.8 l-1.3 -2.5 -28.9 0 -28.9 0 -1.3 2.5 c-0.8 1.6 -1.3 1.9 -1.3 0.9z"/>
  <path d="M45.2 176.3 c7 -0.2 18.7 -0.2 26 0 7.3 0.1 1.6 0.3 -12.7 0.3 -14.3 0 -20.3 -0.2 -13.3 -0.3z"/>
  <path d="M141.7 176.3 c10.5 -0.2 28.1 -0.2 39 0 10.9 0.1 2.3 0.2 -19.2 0.2 -21.4 0 -30.4 -0.1 -19.8 -0.2z"/>
  <path d="M127.5 160.1 c-1.2 -0.6 8 -1 23.7 -1.3 l25.8 -0.3 2.7 -2.8 c2.4 -2.3 2.9 -3.8 3.3 -10 l0.5 -7.2 9 -0.5 c13.1 -0.8 17.5 -4.7 17.5 -15.8 l0 -4.9 6.2 -0.6 c7.2 -0.6 10.8 -2.9 12.5 -7.8 1.6 -4.7 1.6 -52.1 0 -56.8 -1.8 -5 -5.6 -7.4 -12.7 -7.9 l-6 -0.4 0 -4.5 c0 -5.2 -1.9 -10 -5 -12.8 -1.8 -1.6 -4.1 -2.1 -11.8 -2.5 l-9.7 -0.5 -0.5 -7 c-0.3 -3.8 -1.1 -8.1 -1.9 -9.5 l-1.3 -2.5 2.3 2.2 c1.8 1.8 2.4 3.6 2.7 8.8 l0.4 6.5 6.8 0 c8.9 0 12.4 1.4 16 6.3 2.4 3.3 3 5.1 3 9.4 l0 5.3 5.3 0 c6.1 0 10.9 2.5 13.2 6.9 2.2 4.4 2.2 56.8 0 61.2 -2.3 4.4 -7.1 6.9 -13.2 6.9 l-5.3 0 0 5.6 c0 6.4 -1.7 10 -6.4 13.2 -2.7 1.8 -4.6 2.2 -11.4 2.2 l-8.2 0 0 5.3 c0 6.1 -2.3 11.2 -6.3 14.1 -2.7 2 -4.3 2.1 -26 2.3 -12.8 0.1 -24.1 -0.2 -25.2 -0.6z"/>
  <path d="M61.1 159 c35.9 -0.6 33.7 0.3 34.1 -13.4 l0.3 -9.1 8 -0.3 c5.6 -0.2 8.5 -0.8 9.7 -1.9 1 -0.9 1.8 -1.1 1.8 -0.5 0 2.5 -4.5 4.2 -11.2 4.2 l-6.8 0 0 8.1 c0 7.6 -0.2 8.2 -2.9 11 l-2.9 2.9 -29.9 -0.2 -29.8 -0.2 29.6 -0.6z"/>
  <path d="M119.4 154.9 c-2.8 -2.9 -2.9 -3.4 -2.9 -12.5 0 -5.2 -0.3 -9.4 -0.7 -9.4 -0.5 0 -0.8 -8.9 -0.8 -19.8 0 -15.5 -0.3 -20.2 -1.4 -21.8 -1.2 -1.5 -3 -2 -9.8 -2.4 l-8.3 -0.5 -0.3 -9.1 c-0.4 -11.8 -0.8 -12.2 -12.7 -12.6 l-9 -0.3 0 -8.5 0 -8.5 9.2 -0.5 c12.2 -0.7 13.1 -1.5 13.5 -12.4 l0.3 -8.1 5 -0.3 c2.8 -0.1 6 -0.5 7.3 -0.7 3.5 -0.8 6.2 -6.2 6.2 -12.2 0 -4.2 0.3 -5.1 1.5 -4.7 1.3 0.5 1.5 5 1.4 32.8 -0.2 30.7 -0.2 31.4 -1.1 16.1 -0.4 -8.8 -0.7 -20.8 -0.6 -26.8 0.2 -5.9 0 -10.7 -0.3 -10.7 -0.3 0 -1.1 1.1 -1.7 2.6 -1.5 3.1 -6.7 5.4 -12.4 5.4 l-4.3 0 0.3 6.8 c0.3 6.2 0.1 7.2 -2.3 10 -2.6 3.2 -2.8 3.2 -11.6 3.2 l-8.9 0 0 7.5 0 7.5 7.9 0 c7 0 8.3 0.3 10.8 2.4 2.6 2.3 2.8 3 3.1 11.5 l0.4 9.1 7.4 0 c6.1 0 7.8 0.4 9.4 2 1.1 1.1 2.1 2 2.3 2 0.1 0 0.1 -3.4 -0.1 -7.5 -0.2 -4.9 0 -7.5 0.7 -7.5 0.8 0 1.1 11.2 1.1 36.9 l0 36.8 2.5 3.7 c3 4.4 2.8 4.5 -1.1 0.5z"/>
  <path d="M126.5 153.9 c-2.7 -1.6 -4.5 -3.9 -4.5 -6.1 0 -2.6 2.5 -2.2 5.4 0.7 l2.5 2.5 20.6 0 20.6 0 2.5 -2.5 c1.4 -1.4 3.1 -2.5 3.9 -2.5 2.2 0 1.8 4.4 -0.6 6.6 -1.9 1.7 -4.1 1.9 -25.3 2.1 -15.6 0.2 -23.7 -0.1 -25.1 -0.8z"/>
  <path d="M26.7 153.3 c-0.4 -0.3 -0.7 -4.4 -0.7 -9 l0 -8.3 32.5 0 32.5 0 0 2.3 0 2.2 -30.5 -0.3 -30.5 -0.3 0 5 0 5.1 28.5 0 c18.3 0 28.5 -0.4 28.5 -1 0 -0.5 0.9 -1 2.1 -1 1.6 0 2 0.5 1.7 2.8 l-0.3 2.7 -31.6 0.3 c-17.3 0.1 -31.8 -0.1 -32.2 -0.5z"/>
  <path d="M159.5 142 c-9.5 -0.3 -18.2 -1 -19.6 -1.7 -4.3 -1.9 -6.9 -6 -6.9 -10.9 0 -5.7 2.1 -5.8 4 -0.2 1 2.7 2.7 5 4.9 6.5 3.2 2.2 4.4 2.3 20.1 2.3 9.2 0 16.9 0.3 17.2 0.6 1 0.9 -0.4 4.4 -1.6 4.2 -0.6 -0.1 -8.7 -0.5 -18.1 -0.8z"/>
  <path d="M145.3 132.5 c-1.7 -0.7 -3.6 -2.2 -4.2 -3.4 -0.7 -1.3 -1.1 -17.2 -1.1 -48.6 l0 -46.7 2.9 -2.9 3 -2.9 16.8 0.2 16.8 0.3 0.2 3 0.2 3 -1.2 -2.8 -1.1 -2.8 -15.8 0.3 c-14.3 0.3 -15.9 0.5 -17.8 2.4 -2 2 -2.1 2.9 -2 49.5 0 55.8 -1.2 50.9 12.6 50.9 4.5 0 8.6 0.5 8.9 1 1 1.5 -14.5 1.2 -18.2 -0.5z"/>
  <path d="M183.4 133.1 c-0.2 -0.2 -0.4 -3.2 -0.4 -6.6 0 -8.7 1.1 -9.5 13.3 -9.5 l9.7 0 0 5.3 c0 3.6 -0.6 6 -2 7.7 -1.7 2.3 -2.7 2.5 -11 3 -5.1 0.3 -9.4 0.3 -9.6 0.1z m16.5 -6.7 c3.7 -4.7 2.9 -5.5 -4.6 -5.2 l-6.8 0.3 -0.3 3.8 -0.3 3.7 5 0 c4.2 0 5.3 -0.4 7 -2.6z"/>
  <path d="M6.3 131.4 c-1.8 -0.8 -1.8 -13.8 0 -15.2 1.6 -1.4 5.7 -0.4 5.7 1.3 0 0.7 -0.7 1.6 -1.6 1.9 -1.1 0.4 -1.4 1.7 -1.2 4.3 0.3 3.7 0.4 3.8 4.6 4.1 l4.2 0.3 0 -4.1 c0 -2.7 -0.5 -4.3 -1.5 -4.6 -2.2 -0.9 -1.8 -3.1 0.7 -3.7 3.9 -1.1 4.9 0.9 4.6 8.7 l-0.3 7.1 -7 0.2 c-3.8 0.1 -7.6 -0.1 -8.2 -0.3z"/>
  <path d="M25.6 130.4 c-1 -2.6 -0.7 -15.4 0.4 -15.4 0.6 0 1 3.1 1 7.4 l0 7.4 21.3 0.7 c11.6 0.4 26 0.5 32 0.3 5.9 -0.1 10.7 0 10.7 0.5 0 0.4 -14.6 0.7 -32.4 0.7 -28.6 0 -32.5 -0.2 -33 -1.6z"/>
  <path d="M95 113 c0 -18.3 0.1 -19 2 -19 1.9 0 2 0.7 2 17 l0 17 4 0 c2.2 0 4 -0.4 4 -1 0 -0.5 0.9 -1 2.1 -1 1.6 0 2 0.5 1.7 2.8 -0.3 2.7 -0.4 2.7 -8 3 l-7.8 0.3 0 -19.1z"/>
  <path d="M210 110 c0 -1.7 0.7 -2 4.3 -2 7.7 0 7.7 -0.1 7.7 -27.8 0 -23.8 0 -24.1 -2.2 -25.6 -1.2 -0.9 -3.9 -1.6 -6 -1.6 -3.1 0 -3.8 -0.4 -3.8 -2 0 -1.8 0.7 -2 5.5 -2 4.6 0 6 0.4 8 2.5 l2.5 2.4 0 26.6 0 26.6 -2.5 2.4 c-2 2.1 -3.4 2.5 -8 2.5 -4.8 0 -5.5 -0.2 -5.5 -2z"/>
  <path d="M90.1 96.8 c-0.1 -1.7 -2.2 -1.8 -28.5 -1.8 -17.9 0 -28.7 -0.4 -29.1 -1 -0.4 -0.7 9.3 -1 28.5 -1 24.6 0 29.1 0.2 29.6 1.5 0.3 0.8 0.4 2 0.1 2.7 -0.4 0.8 -0.6 0.6 -0.6 -0.4z"/>
  <path d="M26.4 87.7 c-0.3 -0.8 -0.4 -4.7 -0.2 -8.8 l0.3 -7.4 8.6 -0.3 c11.4 -0.4 12.2 -1.2 12.9 -13 l0.5 -8.7 10.3 -0.3 c10.2 -0.3 10.2 -0.3 10.2 2.1 0 2.4 -0.2 2.4 -8.2 2.3 l-8.3 -0.1 -0.5 8 c-0.8 12.5 -1.6 13.3 -14.5 13.7 l-7 0.3 -0.3 4.8 -0.3 4.8 30.5 -0.3 30.6 -0.3 0 2.3 0 2.2 -32 0 c-25.9 0 -32.2 -0.3 -32.6 -1.3z"/>
  <path d="M86.5 76 c-0.3 -0.5 -4.6 -1 -9.4 -1 -9.7 0 -11.1 -0.7 -11.1 -5.7 0 -3.8 2 -4.4 3.5 -1 0.9 2 1.8 2.2 11 2.7 l10 0.5 0.3 2.8 c0.3 2.1 -0.1 2.7 -1.7 2.7 -1.1 0 -2.3 -0.4 -2.6 -1z"/>
  <path d="M87.6 37.3 c1.2 -16.4 1.8 -17.3 10.9 -17.3 3.4 0 6.6 -0.5 7.3 -1.2 1.9 -1.9 1.5 -6.6 -0.7 -7.8 -1.3 -0.6 -17.9 -1 -47 -1 -43.8 0 -45.2 0.1 -47.1 2 -2.8 2.8 -5 2.6 -5 -0.4 0 -5.6 0.2 -5.6 52.5 -5.6 55.5 0 52.5 -0.5 52.5 8.6 0 7.5 -2 9.4 -9.8 9.4 -8 0 -9 1.3 -9.4 11.5 -0.3 7.4 -0.5 8 -2.5 8.3 -2.2 0.3 -2.2 0.1 -1.7 -6.5z"/>
  <path d="M184.6 42.1 c-1.4 -1.5 -1.7 -3.3 -1.4 -7.8 l0.3 -5.8 8.3 -0.3 c8 -0.3 8.4 -0.2 11.2 2.7 2.5 2.5 3 3.7 3 8 l0 5.1 -9.8 0 c-8.5 0 -10.1 -0.3 -11.6 -1.9z m17.4 -3.6 c0 -0.9 -1.1 -2.7 -2.5 -4 -1.8 -1.9 -3.5 -2.5 -7 -2.5 -4.4 0 -4.5 0 -4.5 3.3 0 1.9 0.3 3.7 0.7 4 0.3 0.4 3.5 0.7 7 0.7 5 0 6.3 -0.3 6.3 -1.5z"/>
  <path d="M133 31.9 c0 -3.5 0.6 -4.8 3.9 -8 3.5 -3.5 4.4 -3.9 9 -3.9 6.2 0 7.3 2.5 1.5 3.6 -4.6 0.8 -10.1 5.6 -10.9 9.4 -1 4.6 -3.5 3.8 -3.5 -1.1z"/>
  <path d="M68 31.5 c0 -1.3 -3.5 -1.5 -24.7 -1.6 -13.7 0 -27 -0.4 -29.8 -0.9 -3.1 -0.4 6.3 -0.8 24.6 -0.9 29.9 -0.1 31.9 0.1 31.9 3.6 0 0.7 -0.4 1.3 -1 1.3 -0.5 0 -1 -0.7 -1 -1.5z"/>
  <path d="M74 30.5 c0 -0.9 -1.1 -2.7 -2.5 -4 l-2.4 -2.5 -29.6 0 c-28.2 0 -29.6 -0.1 -31.5 -2 -2.5 -2.5 -2.6 -6 -0.2 -6 0.9 0 2.3 0.9 3 2 1.2 1.9 2.3 2 31.1 2 28.7 0 29.9 0.1 32.5 2.1 2 1.6 2.6 2.9 2.6 6 0 2.8 -0.4 3.9 -1.5 3.9 -0.8 0 -1.5 -0.7 -1.5 -1.5z"/>
  <path d="M122 13.6 c0 -1.5 1.1 -3.3 2.6 -4.5 2.5 -2 3.9 -2.1 25.6 -2.1 25.7 0 28.7 0.7 28.8 6.3 0 2.3 -3.2 2.2 -5.5 -0.3 -1.7 -1.9 -3.1 -2 -23.1 -2 l-21.3 0 -1.9 2.5 c-2.6 3.2 -5.2 3.3 -5.2 0.1z"/>
 </g>
 <g fill="#069ce2">
  <path d="M206.5 255 c0 -39.9 0.1 -56.2 0.2 -36.2 0.2 19.9 0.2 52.5 0 72.5 -0.1 19.9 -0.2 3.6 -0.2 -36.3z"/>
  <path d="M116.5 254.5 c0 -38.5 0.1 -54.1 0.2 -34.7 0.2 19.5 0.2 51 0 70 -0.1 19.1 -0.2 3.2 -0.2 -35.3z"/>
  <path d="M43.8 199.3 c8.4 -0.2 21.9 -0.2 30 0 8.1 0.1 1.2 0.3 -15.3 0.3 -16.5 0 -23.1 -0.2 -14.7 -0.3z"/>
  <path d="M124.5 151.5 l-2.5 -2.4 0 -67.9 c0 -67.2 0 -68 2.1 -70.6 l2 -2.6 24.3 0 c24.2 0 24.3 0 26.5 2.4 1.8 1.9 2.2 3.3 1.9 7.2 l-0.3 4.9 -17.8 0.5 -17.9 0.5 -3.4 3.7 -3.4 3.8 0 49.9 c0 49.1 0 49.9 2.1 52.5 3.7 4.7 7.6 5.6 25 5.6 l15.9 0 0 5 c0 4.1 -0.5 5.6 -2.5 7.5 l-2.4 2.5 -23.6 0 -23.6 0 -2.4 -2.5z"/>
  <path d="M6.4 129.6 c-0.3 -0.7 -0.4 -4 -0.2 -7.2 l0.3 -5.9 7 0 7 0 0.3 7.3 0.3 7.2 -7.1 0 c-5 0 -7.2 -0.4 -7.6 -1.4z"/>
  <path d="M96 112.5 l0 -18.5 6.9 0 c5.4 0 7 0.4 7.5 1.6 0.8 2 0.8 31.8 0 33.8 -0.5 1.2 -2.1 1.6 -7.5 1.6 l-6.9 0 0 -18.5z"/>
  <path d="M210 80.5 l0 -30.5 5.3 0 c3.1 0 6.1 0.6 7.5 1.6 2.2 1.5 2.2 1.7 2.2 28.8 0 31.7 0.3 30.6 -9.3 30.6 l-5.7 0 0 -30.5z"/>
  <path d="M75.3 43.3 c-0.9 -0.3 -1.3 -3 -1.3 -8.3 0 -7.3 -0.2 -8 -2.6 -9.9 -2.6 -2 -3.8 -2.1 -32.5 -2.1 -29.6 0 -29.8 0 -31.3 -2.2 -2.3 -3.2 -2 -9.4 0.4 -11.8 1.9 -1.9 3.3 -2 50.3 -2 55 0 52.2 -0.4 52.2 7.8 0 6.9 -1.4 8.2 -9 8.2 -8.5 0 -9.9 1.6 -10.2 11.6 -0.1 4 -0.4 7.8 -0.8 8.4 -0.6 1 -12.9 1.3 -15.2 0.3z"/>
 </g>
 <g fill="#88d5f9">
  <path d="M40.5 328.3 c25 -0.7 47.3 -0.7 46.8 0 -0.2 0.4 -13.1 0.6 -28.6 0.5 -15.5 -0.1 -23.7 -0.3 -18.2 -0.5z"/>
  <path d="M140.3 328.3 c10.8 -0.2 28.6 -0.2 39.5 0 10.8 0.1 1.9 0.2 -19.8 0.2 -21.7 0 -30.6 -0.1 -19.7 -0.2z"/>
  <path d="M224.2 272.8 c-0.1 -28.4 0.1 -51.9 0.6 -52.1 0.6 -0.5 0.6 37.7 -0.1 85.3 -0.1 10.2 -0.3 -4.8 -0.5 -33.2z"/>
  <path d="M43.3 311.3 c8.7 -0.2 22.7 -0.2 31 0 8.4 0.1 1.3 0.3 -15.8 0.3 -17.1 0 -23.9 -0.2 -15.2 -0.3z"/>
  <path d="M136.9 197.8 c1.2 -1.7 3.8 -1.8 32 -1.6 l30.6 0.3 -30.4 0.2 c-22.3 0.3 -30.9 0.7 -32 1.6 -1.4 1.1 -1.4 1 -0.2 -0.5z"/>
  <path d="M124.5 151.5 l-2.5 -2.4 0.2 -68.3 0.3 -68.3 0.5 68.7 c0.4 54.4 0.8 69 1.8 70 1 1 7.6 1.4 25.5 1.8 l24.2 0.6 -23.8 0.2 -23.8 0.2 -2.4 -2.5z"/>
  <path d="M27 145 l0 -8 31.8 0.2 31.7 0.3 0.3 5.4 c0.2 3 0.1 6.5 -0.3 7.8 l-0.5 2.3 -31.5 0 -31.5 0 0 -8z"/>
  <path d="M184.9 131.8 c0 -0.2 -0.1 -2.5 -0.2 -5.3 -0.4 -8.2 -0.1 -8.5 10.8 -8.5 l9.5 0 0 4.4 c0 2.9 -0.7 5.2 -2.1 7 -1.9 2.4 -2.6 2.6 -10 2.6 -4.3 0 -7.9 -0.1 -8 -0.2z"/>
  <path d="M6.4 129.6 c-0.3 -0.7 -0.4 -4 -0.2 -7.2 l0.3 -5.9 7 0 7 0 0.3 7.3 0.3 7.2 -7.1 0 c-5 0 -7.2 -0.4 -7.6 -1.4z m13.6 -6.1 l0 -6.5 -6.5 0 -6.5 0 0 6.5 0 6.5 6.5 0 6.5 0 0 -6.5z"/>
  <path d="M135.2 80.7 l-0.2 -49.7 3.3 -3.3 c2 -2 2.3 -2.2 0.7 -0.4 l-2.5 2.8 -0.5 50.2 -0.5 50.2 -0.3 -49.8z"/>
  <path d="M210 80.5 c0 -16.8 0.3 -30.5 0.8 -30.5 0.4 0 0.7 13.7 0.7 30.5 0 16.8 -0.3 30.5 -0.7 30.5 -0.5 0 -0.8 -13.7 -0.8 -30.5z"/>
  <path d="M221.8 109.4 c2.2 -1.5 2.2 -1.7 2.2 -28.8 0 -20.3 -0.3 -27.6 -1.2 -28.6 -1.1 -1.2 -1 -1.2 0.5 -0.1 1.5 1.2 1.7 3.8 1.7 28.6 0 25.1 -0.1 27.3 -1.8 28.8 -1 1 -2.3 1.7 -2.8 1.7 -0.4 0 0.2 -0.7 1.4 -1.6z"/>
  <path d="M27.2 80.3 l0.3 -7.8 7 -0.3 c12.9 -0.4 13.7 -1.2 14.5 -13.7 l0.5 -8 9.5 0 9.5 0 0.3 9.4 c0.1 5.2 0.8 10.1 1.4 10.8 0.7 0.9 3.8 1.3 9.8 1.3 10.6 0 11.2 0.5 10.8 9.2 l-0.3 6.3 -31.8 0.3 -31.8 0.2 0.3 -7.7z"/>
  <path d="M185.3 41.3 c-0.4 -0.9 -0.6 -3.9 -0.7 -6.7 l0 -5.1 7.7 -0.3 c7.1 -0.3 7.9 -0.1 10.2 2.2 1.9 1.9 2.5 3.5 2.5 7.1 l0 4.5 -9.5 0 c-8 0 -9.7 -0.3 -10.2 -1.7z"/>
  <path d="M7.6 20.8 c-2 -2.9 -2 -8.9 0 -11.4 1.5 -1.8 1.5 -1.8 0.5 0.3 -1.5 3 -1.4 8.5 0.2 10.6 1.1 1.5 4.4 1.7 30.7 2 l29.5 0.2 -29.7 0.3 c-29.7 0.2 -29.7 0.2 -31.2 -2z"/>
  <path d="M33.7 7.3 c13.3 -0.2 35.3 -0.2 49 0 13.6 0.1 2.8 0.2 -24.2 0.2 -26.9 0 -38.1 -0.1 -24.8 -0.2z"/>
 </g>
</svg>