<?xml version="1.0" encoding="utf-8"?>
<!DOCTYPE svg PUBLIC "-//W3C//DTD SVG 20010904//EN" "http://www.w3.org/TR/2001/REC-SVG-20010904/DTD/svg10.dtd">
<svg version="1.0" xmlns="http://www.w3.org/2000/svg" width="3524px" height="1080px" viewBox="0 0 3524 1080" preserveAspectRatio="xMidYMid meet">
 <g fill="#ffffff">
 </g>
 <g fill="#f4f4f4">
  <path d="M168 923.5 l0 -17.5 1.5 0 1.5 0 0 1.5 0 1.5 170.5 0 170.5 0 0 -1.5 0 -1.5 1.5 0 1.5 0 0 17.5 0 17.5 -173.5 0 -173.5 0 0 -17.5z"/>
  <path d="M878 923.5 l0 -17.5 1.5 0 1.5 0 0 1.5 0 1.5 170.5 0 170.5 0 0 -1.5 0 -1.5 1.5 0 1.5 0 0 17.5 0 17.5 -173.5 0 -173.5 0 0 -17.5z"/>
  <path d="M1588 923.5 l0 -17.5 1.5 0 1.5 0 0 1.5 0 1.5 171 0 171 0 0 -1.5 0 -1.5 1.5 0 1.5 0 0 17.5 0 17.5 -174 0 -174 0 0 -17.5z"/>
  <path d="M2356 926.5 l0 -14.5 -14.5 0 -14.5 0 0 -17 0 -17 1.5 0 1.5 0 0 1.5 0 1.5 14.5 0 14.5 0 0 14 0 14 113.5 0 113.5 0 0 -14 0 -14 14.5 0 14.5 0 0 -1.5 0 -1.5 1.5 0 1.5 0 0 17 0 17 -14.5 0 -14.5 0 0 14.5 0 14.5 -116.5 0 -116.5 0 0 -14.5z"/>
  <path d="M2842 868.5 l0 -15.5 14 0 14 0 0 -14.5 0 -14.5 14.5 0 14.5 0 0 -14 0 -14 14 0 14 0 0 -14.5 0 -14.5 14.5 0 14.5 0 0 -15.5 0 -15.5 15.5 0 15.5 0 0 17 0 17 -14 0 -14 0 0 14.5 0 14.5 -14.5 0 -14.5 0 0 14 0 14 -14 0 -14 0 0 14.5 0 14.5 -14.5 0 -14.5 0 0 14 0 14 -15.5 0 -15.5 0 0 -15.5z"/>
  <path d="M3493 870 l0 -14 -14.5 0 -14.5 0 0 -14.5 0 -14.5 -14 0 -14 0 0 -14 0 -14 -14.5 0 -14.5 0 0 -14.5 0 -14.5 -14 0 -14 0 0 -17 0 -17 15.5 0 15.5 0 0 15.5 0 15.5 14.5 0 14.5 0 0 14.5 0 14.5 14 0 14 0 0 14 0 14 14.5 0 14.5 0 0 14.5 0 14.5 14 0 14 0 0 15.5 0 15.5 -15.5 0 -15.5 0 0 -14z"/>
  <path d="M0 783 l0 -16 14 0 14 0 0 -15.5 0 -15.5 16 0 16 0 0 17 0 17 -14.5 0 -14.5 0 0 14.5 0 14.5 -15.5 0 -15.5 0 0 -16z"/>
  <path d="M651 784.5 l0 -14.5 -14.5 0 -14.5 0 0 -17 0 -17 16 0 16 0 0 15.5 0 15.5 14 0 14 0 0 16 0 16 -15.5 0 -15.5 0 0 -14.5z"/>
  <path d="M2072 784.5 l0 -14.5 -14.5 0 -14.5 0 0 -17 0 -17 16 0 16 0 0 15.5 0 15.5 14 0 14 0 0 16 0 16 -15.5 0 -15.5 0 0 -14.5z"/>
  <path d="M1361 728 l0 -14 -14 0 -14 0 0 -14.5 0 -14.5 -227.5 0 -227.5 0 0 -17 0 -17 1.5 0 1.5 0 0 1.5 0 1.5 241.5 0 241.5 0 0 14 0 14 14.5 0 14.5 0 0 30 0 30 -16 0 -16 0 0 -14z"/>
  <path d="M168 668 l0 -17 1.5 0 1.5 0 0 1.5 0 1.5 170.5 0 170.5 0 0 -1.5 0 -1.5 1.5 0 1.5 0 0 17 0 17 -173.5 0 -173.5 0 0 -17z"/>
  <path d="M1588 668 l0 -17 1.5 0 1.5 0 0 1.5 0 1.5 171 0 171 0 0 -1.5 0 -1.5 1.5 0 1.5 0 0 17 0 17 -174 0 -174 0 0 -17z"/>
  <path d="M3123 642.5 l0 -14.5 -14 0 -14 0 0 -14 0 -14 -14.5 0 -14.5 0 0 -14.5 0 -14.5 -14 0 -14 0 0 -56.5 0 -56.5 -82.5 0 -82.5 0 0 14 0 14 -15.5 0 -15.5 0 0 -30 0 -30 14 0 14 0 0 -14 0 -14 85.5 0 85.5 0 0 14 0 14 14 0 14 0 0 71 0 71 14.5 0 14.5 0 0 14.5 0 14.5 14 0 14 0 0 14 0 14 57 0 57 0 0 -14 0 -14 14 0 14 0 0 -14.5 0 -14.5 14.5 0 14.5 0 0 -71 0 -71 14 0 14 0 0 -14 0 -14 85.5 0 85.5 0 0 14 0 14 14 0 14 0 0 30 0 30 -15.5 0 -15.5 0 0 -14 0 -14 -82.5 0 -82.5 0 0 56.5 0 56.5 -14 0 -14 0 0 14.5 0 14.5 -14.5 0 -14.5 0 0 14 0 14 -14 0 -14 0 0 14.5 0 14.5 -60 0 -60 0 0 -14.5z"/>
  <path d="M0 456 l0 -30 14 0 14 0 0 -14 0 -14 313 0 313 0 0 14 0 14 14 0 14 0 0 30 0 30 -15.5 0 -15.5 0 0 -14 0 -14 -310 0 -310 0 0 14 0 14 -15.5 0 -15.5 0 0 -30z"/>
  <path d="M710 456 l0 -30 14.5 0 14.5 0 0 -14 0 -14 284 0 284 0 0 14 0 14 14.5 0 14.5 0 0 30 0 30 -16 0 -16 0 0 -14 0 -14 -281 0 -281 0 0 14 0 14 -16 0 -16 0 0 -30z"/>
  <path d="M2072 472 l0 -14 -325.5 0 -325.5 0 0 -30 0 -30 327 0 327 0 0 14 0 14 14 0 14 0 0 30 0 30 -15.5 0 -15.5 0 0 -14z"/>
  <path d="M2131 456 l0 -30 14.5 0 14.5 0 0 -14 0 -14 312.5 0 312.5 0 0 14 0 14 14.5 0 14.5 0 0 30 0 30 -16 0 -16 0 0 -14 0 -14 -309.5 0 -309.5 0 0 14 0 14 -16 0 -16 0 0 -30z"/>
 </g>
 <g fill="#e9e9e9">
  <path d="M57 740.5 l0 -1.5 -1.5 0 -1.5 0 0 -12.5 0 -12.5 -13 0 -13 0 0 -1.5 0 -1.5 -1.5 0 -1.5 0 0 -13 0 -13 -12.5 0 -12.5 0 0 -101 0 -101 14 0 14 0 0 -14 0 -14 313 0 313 0 0 14 0 14 14 0 14 0 0 101 0 101 -12.5 0 -12.5 0 0 13 0 13 -1.5 0 -1.5 0 0 1.5 0 1.5 -13 0 -13 0 0 12.5 0 12.5 -1.5 0 -1.5 0 0 1.5 0 1.5 -284 0 -284 0 0 -1.5z m455 -115.5 l0 -57 -1.5 0 -1.5 0 0 -12.5 0 -12.5 -167.5 0 -167.5 0 0 12.5 0 12.5 -1.5 0 -1.5 0 0 57 0 57 170.5 0 170.5 0 0 -57z"/>
  <path d="M710 612.5 l0 -129.5 14.5 0 14.5 0 0 -14 0 -14 284 0 284 0 0 14 0 14 14.5 0 14.5 0 0 30 0 30 -226 0 -226 0 0 12.5 0 12.5 -1.5 0 -1.5 0 0 57 0 57 227.5 0 227.5 0 0 14.5 0 14.5 14 0 14 0 0 14 0 14 1.5 0 1.5 0 0 1.5 0 1.5 -328.5 0 -328.5 0 0 -129.5z"/>
  <path d="M1421 598.5 l0 -143.5 327 0 327 0 0 14 0 14 14 0 14 0 0 101 0 101 -12.5 0 -12.5 0 0 13 0 13 -1.5 0 -1.5 0 0 1.5 0 1.5 -13 0 -13 0 0 12.5 0 12.5 -1.5 0 -1.5 0 0 1.5 0 1.5 -312.5 0 -312.5 0 0 -143.5z m512 41 l0 -42.5 -1.5 0 -1.5 0 0 -13 0 -13 -13 0 -13 0 0 -1.5 0 -1.5 -1.5 0 -1.5 0 0 -12.5 0 -12.5 -153.5 0 -153.5 0 0 12.5 0 12.5 -1.5 0 -1.5 0 0 57 0 57 171 0 171 0 0 -42.5z"/>
  <path d="M2131 612.5 l0 -129.5 14.5 0 14.5 0 0 -14 0 -14 312.5 0 312.5 0 0 14 0 14 14.5 0 14.5 0 0 129.5 0 129.5 -99.5 0 -99.5 0 0 -72.5 0 -72.5 -1.5 0 -1.5 0 0 -13 0 -13 -13 0 -13 0 0 -1.5 0 -1.5 -1.5 0 -1.5 0 0 -12.5 0 -12.5 -110.5 0 -110.5 0 0 12.5 0 12.5 -1.5 0 -1.5 0 0 1.5 0 1.5 -13 0 -13 0 0 13 0 13 -1.5 0 -1.5 0 0 72.5 0 72.5 -99.5 0 -99.5 0 0 -129.5z"/>
  <path d="M2984 740.5 l0 -1.5 -1.5 0 -1.5 0 0 -12.5 0 -12.5 -12.5 0 -12.5 0 0 -1.5 0 -1.5 -1.5 0 -1.5 0 0 -13 0 -13 -13 0 -13 0 0 -1.5 0 -1.5 -1.5 0 -1.5 0 0 -12.5 0 -12.5 -12.5 0 -12.5 0 0 -1.5 0 -1.5 -1.5 0 -1.5 0 0 -13 0 -13 -13 0 -13 0 0 -1.5 0 -1.5 -1.5 0 -1.5 0 0 -12.5 0 -12.5 -12.5 0 -12.5 0 0 -58.5 0 -58.5 14 0 14 0 0 -14 0 -14 85.5 0 85.5 0 0 56.5 0 56.5 14 0 14 0 0 14.5 0 14.5 14.5 0 14.5 0 0 14 0 14 14 0 14 0 0 14.5 0 14.5 57 0 57 0 0 -14.5 0 -14.5 14 0 14 0 0 -14 0 -14 14.5 0 14.5 0 0 -14.5 0 -14.5 14 0 14 0 0 -56.5 0 -56.5 85.5 0 85.5 0 0 14 0 14 14 0 14 0 0 58.5 0 58.5 -12.5 0 -12.5 0 0 12.5 0 12.5 -1.5 0 -1.5 0 0 1.5 0 1.5 -13 0 -13 0 0 13 0 13 -1.5 0 -1.5 0 0 1.5 0 1.5 -12.5 0 -12.5 0 0 12.5 0 12.5 -1.5 0 -1.5 0 0 1.5 0 1.5 -13 0 -13 0 0 13 0 13 -1.5 0 -1.5 0 0 1.5 0 1.5 -12.5 0 -12.5 0 0 12.5 0 12.5 -1.5 0 -1.5 0 0 1.5 0 1.5 -199 0 -199 0 0 -1.5z"/>
 </g>
 <g fill="#dedede">
 </g>
 <g fill="#d3d3d3">
  <path d="M57 1053.5 l0 -1.5 -1.5 0 -1.5 0 0 -13 0 -13 -13 0 -13 0 0 -1.5 0 -1.5 -1.5 0 -1.5 0 0 -12.5 0 -12.5 -12.5 0 -12.5 0 0 -101 0 -101 14 0 14 0 0 -14.5 0 -14.5 14.5 0 14.5 0 0 -14 0 -14 -1.5 0 -1.5 0 0 -1.5 0 -1.5 1.5 0 1.5 0 0 1.5 0 1.5 284 0 284 0 0 -1.5 0 -1.5 1.5 0 1.5 0 0 1.5 0 1.5 -1.5 0 -1.5 0 0 14 0 14 14.5 0 14.5 0 0 14.5 0 14.5 14 0 14 0 0 101 0 101 -12.5 0 -12.5 0 0 12.5 0 12.5 -1.5 0 -1.5 0 0 1.5 0 1.5 -13 0 -13 0 0 13 0 13 -1.5 0 -1.5 0 0 1.5 0 1.5 -284 0 -284 0 0 -1.5z m455 -172.5 l0 -57 -1.5 0 -1.5 0 0 -12.5 0 -12.5 -167.5 0 -167.5 0 0 12.5 0 12.5 -1.5 0 -1.5 0 0 57 0 57 170.5 0 170.5 0 0 -57z"/>
  <path d="M767 1053.5 l0 -1.5 -1.5 0 -1.5 0 0 -13 0 -13 -12.5 0 -12.5 0 0 -1.5 0 -1.5 -1.5 0 -1.5 0 0 -12.5 0 -12.5 -13 0 -13 0 0 -129.5 0 -129.5 341.5 0 341.5 0 0 129.5 0 129.5 -13 0 -13 0 0 12.5 0 12.5 -1.5 0 -1.5 0 0 1.5 0 1.5 -12.5 0 -12.5 0 0 13 0 13 -1.5 0 -1.5 0 0 1.5 0 1.5 -284.5 0 -284.5 0 0 -1.5z m455 -172.5 l0 -57 -1.5 0 -1.5 0 0 -12.5 0 -12.5 -167.5 0 -167.5 0 0 12.5 0 12.5 -1.5 0 -1.5 0 0 57 0 57 170.5 0 170.5 0 0 -57z"/>
  <path d="M1449 1053.5 l0 -1.5 -1.5 0 -1.5 0 0 -13 0 -13 -12.5 0 -12.5 0 0 -143.5 0 -143.5 312.5 0 312.5 0 0 -1.5 0 -1.5 1.5 0 1.5 0 0 1.5 0 1.5 -1.5 0 -1.5 0 0 14 0 14 14.5 0 14.5 0 0 14.5 0 14.5 14 0 14 0 0 101 0 101 -12.5 0 -12.5 0 0 12.5 0 12.5 -1.5 0 -1.5 0 0 1.5 0 1.5 -13 0 -13 0 0 13 0 13 -1.5 0 -1.5 0 0 1.5 0 1.5 -298.5 0 -298.5 0 0 -1.5z m484 -158 l0 -42.5 -1.5 0 -1.5 0 0 -13 0 -13 -13 0 -13 0 0 -1.5 0 -1.5 -1.5 0 -1.5 0 0 -12.5 0 -12.5 -153.5 0 -153.5 0 0 12.5 0 12.5 -1.5 0 -1.5 0 0 57 0 57 171 0 171 0 0 -42.5z"/>
  <path d="M2188 1053.5 l0 -1.5 -1.5 0 -1.5 0 0 -13 0 -13 -12.5 0 -12.5 0 0 -1.5 0 -1.5 -1.5 0 -1.5 0 0 -12.5 0 -12.5 -13 0 -13 0 0 -129.5 0 -129.5 99.5 0 99.5 0 0 85 0 85 14.5 0 14.5 0 0 14.5 0 14.5 113.5 0 113.5 0 0 -14.5 0 -14.5 14.5 0 14.5 0 0 -85 0 -85 99.5 0 99.5 0 0 129.5 0 129.5 -13 0 -13 0 0 12.5 0 12.5 -1.5 0 -1.5 0 0 1.5 0 1.5 -12.5 0 -12.5 0 0 13 0 13 -1.5 0 -1.5 0 0 1.5 0 1.5 -284.5 0 -284.5 0 0 -1.5z"/>
  <path d="M2899 1053.5 l0 -1.5 -1.5 0 -1.5 0 0 -13 0 -13 -13 0 -13 0 0 -1.5 0 -1.5 -1.5 0 -1.5 0 0 -12.5 0 -12.5 -12.5 0 -12.5 0 0 -58.5 0 -58.5 14 0 14 0 0 -14 0 -14 14.5 0 14.5 0 0 -14.5 0 -14.5 14 0 14 0 0 -14 0 -14 14.5 0 14.5 0 0 -14.5 0 -14.5 14 0 14 0 0 -14 0 -14 -1.5 0 -1.5 0 0 -1.5 0 -1.5 1.5 0 1.5 0 0 1.5 0 1.5 199 0 199 0 0 -1.5 0 -1.5 1.5 0 1.5 0 0 1.5 0 1.5 -1.5 0 -1.5 0 0 14 0 14 14 0 14 0 0 14.5 0 14.5 14.5 0 14.5 0 0 14 0 14 14 0 14 0 0 14.5 0 14.5 14.5 0 14.5 0 0 14 0 14 14 0 14 0 0 58.5 0 58.5 -12.5 0 -12.5 0 0 12.5 0 12.5 -1.5 0 -1.5 0 0 1.5 0 1.5 -13 0 -13 0 0 13 0 13 -1.5 0 -1.5 0 0 1.5 0 1.5 -71 0 -71 0 0 -1.5 0 -1.5 -1.5 0 -1.5 0 0 -70 0 -70 -12.5 0 -12.5 0 0 -1.5 0 -1.5 -1.5 0 -1.5 0 0 -12.5 0 -12.5 -13 0 -13 0 0 -1.5 0 -1.5 -1.5 0 -1.5 0 0 -12.5 0 -12.5 -12.5 0 -12.5 0 0 -1.5 0 -1.5 -1.5 0 -1.5 0 0 -13 0 -13 -54 0 -54 0 0 13 0 13 -1.5 0 -1.5 0 0 1.5 0 1.5 -12.5 0 -12.5 0 0 12.5 0 12.5 -1.5 0 -1.5 0 0 1.5 0 1.5 -13 0 -13 0 0 12.5 0 12.5 -1.5 0 -1.5 0 0 1.5 0 1.5 -12.5 0 -12.5 0 0 70 0 70 -1.5 0 -1.5 0 0 1.5 0 1.5 -71 0 -71 0 0 -1.5z"/>
  <path d="M1108 327 l0 -14 28.5 0 28.5 0 0 -43 0 -43 -14 0 -14 0 0 -14 0 -14 -14.5 0 -14.5 0 0 -57 0 -57 14.5 0 14.5 0 0 57 0 57 28.5 0 28.5 0 0 -57 0 -57 14 0 14 0 0 57 0 57 -14 0 -14 0 0 57 0 57 -14.5 0 -14.5 0 0 14 0 14 -28.5 0 -28.5 0 0 -14z"/>
  <path d="M28 142 l0 -142 14.5 0 14.5 0 0 142 0 142 -14.5 0 -14.5 0 0 -142z"/>
  <path d="M114 142 l0 -142 56.5 0 56.5 0 0 57 0 57 -14 0 -14 0 0 14 0 14 14 0 14 0 0 14.5 0 14.5 14.5 0 14.5 0 0 28 0 28 -14.5 0 -14.5 0 0 28.5 0 28.5 -56.5 0 -56.5 0 0 -142z m85 99.5 l0 -14.5 14 0 14 0 0 -28 0 -28 -14 0 -14 0 0 -14.5 0 -14.5 -28.5 0 -28.5 0 0 57 0 57 28.5 0 28.5 0 0 -14.5z m0 -170.5 l0 -43 -28.5 0 -28.5 0 0 43 0 43 28.5 0 28.5 0 0 -43z"/>
  <path d="M284 142 l0 -142 14.5 0 14.5 0 0 14 0 14 14 0 14 0 0 28.5 0 28.5 14 0 14 0 0 28.5 0 28.5 14.5 0 14.5 0 0 -28.5 0 -28.5 14 0 14 0 0 -28.5 0 -28.5 14.5 0 14.5 0 0 -14 0 -14 14 0 14 0 0 142 0 142 -14 0 -14 0 0 -99.5 0 -99.5 -14.5 0 -14.5 0 0 28.5 0 28.5 -14 0 -14 0 0 28.5 0 28.5 -14.5 0 -14.5 0 0 -28.5 0 -28.5 -14 0 -14 0 0 -28.5 0 -28.5 -14 0 -14 0 0 99.5 0 99.5 -14.5 0 -14.5 0 0 -142z"/>
  <path d="M568 142 l0 -142 57 0 57 0 0 71 0 71 -14 0 -14 0 0 14.5 0 14.5 -28.5 0 -28.5 0 0 56.5 0 56.5 -14.5 0 -14.5 0 0 -142z m86 -57 l0 -57 -28.5 0 -28.5 0 0 57 0 57 28.5 0 28.5 0 0 -57z"/>
  <path d="M739 142 l0 -142 57 0 57 0 0 42.5 0 42.5 -14.5 0 -14.5 0 0 -28.5 0 -28.5 -28.5 0 -28.5 0 0 114 0 114 28.5 0 28.5 0 0 -42.5 0 -42.5 14.5 0 14.5 0 0 56.5 0 56.5 -57 0 -57 0 0 -142z"/>
  <path d="M966 270 l0 -14 -14 0 -14 0 0 -28.5 0 -28.5 14 0 14 0 0 28.5 0 28.5 43 0 43 0 0 -42.5 0 -42.5 -14.5 0 -14.5 0 0 -14.5 0 -14.5 -14 0 -14 0 0 -14 0 -14 -14.5 0 -14.5 0 0 -14.5 0 -14.5 -14 0 -14 0 0 -28.5 0 -28.5 14 0 14 0 0 -14 0 -14 43 0 43 0 0 14 0 14 14 0 14 0 0 28.5 0 28.5 -14 0 -14 0 0 -28.5 0 -28.5 -43 0 -43 0 0 28.5 0 28.5 14.5 0 14.5 0 0 14.5 0 14.5 14 0 14 0 0 14 0 14 14.5 0 14.5 0 0 14.5 0 14.5 14 0 14 0 0 42.5 0 42.5 -14 0 -14 0 0 14 0 14 -43 0 -43 0 0 -14z"/>
  <path d="M1279 270 l0 -14 -14.5 0 -14.5 0 0 -14.5 0 -14.5 14.5 0 14.5 0 0 14.5 0 14.5 28.5 0 28.5 0 0 -28.5 0 -28.5 -14.5 0 -14.5 0 0 -14 0 -14 -14 0 -14 0 0 -14.5 0 -14.5 -14.5 0 -14.5 0 0 -14 0 -14 14.5 0 14.5 0 0 -14.5 0 -14.5 28.5 0 28.5 0 0 14.5 0 14.5 14 0 14 0 0 -14.5 0 -14.5 14.5 0 14.5 0 0 -28.5 0 -28.5 14 0 14 0 0 28.5 0 28.5 14 0 14 0 0 14.5 0 14.5 -14 0 -14 0 0 71 0 71 14 0 14 0 0 14 0 14 -28 0 -28 0 0 -85 0 -85 -14.5 0 -14.5 0 0 14 0 14 -14 0 -14 0 0 -14 0 -14 -28.5 0 -28.5 0 0 14 0 14 14 0 14 0 0 14.5 0 14.5 14.5 0 14.5 0 0 14 0 14 14 0 14 0 0 28.5 0 28.5 -14 0 -14 0 0 14 0 14 -28.5 0 -28.5 0 0 -14z"/>
  <path d="M1478 184.5 l0 -99.5 42.5 0 42.5 0 0 57 0 57 -28.5 0 -28.5 0 0 28.5 0 28.5 14.5 0 14.5 0 0 -14.5 0 -14.5 14 0 14 0 0 28.5 0 28.5 -42.5 0 -42.5 0 0 -99.5z m57 -42 l0 -28.5 -14.5 0 -14.5 0 0 28.5 0 28.5 14.5 0 14.5 0 0 -28.5z"/>
  <path d="M1591 184.5 l0 -99.5 99.5 0 99.5 0 0 99.5 0 99.5 -14 0 -14 0 0 -85 0 -85 -28.5 0 -28.5 0 0 85 0 85 -14 0 -14 0 0 -85 0 -85 -28.5 0 -28.5 0 0 85 0 85 -14.5 0 -14.5 0 0 -99.5z"/>
  <path d="M1904 142 l0 -142 42.5 0 42.5 0 0 14 0 14 -28 0 -28 0 0 43 0 43 28 0 28 0 0 14 0 14 -28 0 -28 0 0 57 0 57 28 0 28 0 0 14 0 14 -42.5 0 -42.5 0 0 -142z"/>
  <path d="M2018 184.5 l0 -99.5 99.5 0 99.5 0 0 99.5 0 99.5 -14.5 0 -14.5 0 0 -85 0 -85 -28.5 0 -28.5 0 0 85 0 85 -14 0 -14 0 0 -85 0 -85 -28.5 0 -28.5 0 0 85 0 85 -14 0 -14 0 0 -99.5z"/>
  <path d="M2245 184.5 l0 -99.5 14.5 0 14.5 0 0 85.5 0 85.5 28 0 28 0 0 -85.5 0 -85.5 14.5 0 14.5 0 0 99.5 0 99.5 -57 0 -57 0 0 -99.5z"/>
  <path d="M2387 142 l0 -142 14.5 0 14.5 0 0 142 0 142 -14.5 0 -14.5 0 0 -142z"/>
  <path d="M2444 241.5 l0 -42.5 14 0 14 0 0 -14 0 -14 14.5 0 14.5 0 0 -28.5 0 -28.5 -14.5 0 -14.5 0 0 14 0 14 -14 0 -14 0 0 -28.5 0 -28.5 42.5 0 42.5 0 0 99.5 0 99.5 -42.5 0 -42.5 0 0 -42.5z m57 -14 l0 -28.5 -14.5 0 -14.5 0 0 28.5 0 28.5 14.5 0 14.5 0 0 -28.5z"/>
  <path d="M2586 199 l0 -85 -14 0 -14 0 0 -14.5 0 -14.5 14 0 14 0 0 -28.5 0 -28.5 14.5 0 14.5 0 0 28.5 0 28.5 14 0 14 0 0 14.5 0 14.5 -14 0 -14 0 0 71 0 71 14 0 14 0 0 14 0 14 -28.5 0 -28.5 0 0 -85z"/>
  <path d="M2671 184.5 l0 -99.5 43 0 43 0 0 99.5 0 99.5 -43 0 -43 0 0 -99.5z m57 0.5 l0 -71 -14 0 -14 0 0 71 0 71 14 0 14 0 0 -71z"/>
  <path d="M2785 184.5 l0 -99.5 42.5 0 42.5 0 0 14.5 0 14.5 -28 0 -28 0 0 85 0 85 -14.5 0 -14.5 0 0 -99.5z"/>
 </g>
 <g fill="#c8c8c8">
  <path d="M28 725 l0 -14 -14 0 -14 0 0 -14.5 0 -14.5 14 0 14 0 0 14.5 0 14.5 14.5 0 14.5 0 0 14 0 14 -14.5 0 -14.5 0 0 -14z"/>
  <path d="M625 725 l0 -14 14.5 0 14.5 0 0 -14.5 0 -14.5 14 0 14 0 0 14.5 0 14.5 -14 0 -14 0 0 14 0 14 -14.5 0 -14.5 0 0 -14z"/>
  <path d="M2046 725 l0 -14 14.5 0 14.5 0 0 -14.5 0 -14.5 14 0 14 0 0 14.5 0 14.5 -14 0 -14 0 0 14 0 14 -14.5 0 -14.5 0 0 -14z"/>
  <path d="M2956 725 l0 -14 -14.5 0 -14.5 0 0 -14.5 0 -14.5 -14 0 -14 0 0 -14 0 -14 -14.5 0 -14.5 0 0 -14.5 0 -14.5 -14 0 -14 0 0 -14 0 -14 14 0 14 0 0 14 0 14 14.5 0 14.5 0 0 14.5 0 14.5 14 0 14 0 0 14 0 14 14.5 0 14.5 0 0 14.5 0 14.5 14 0 14 0 0 14 0 14 -14 0 -14 0 0 -14z"/>
  <path d="M3382 725 l0 -14 14 0 14 0 0 -14.5 0 -14.5 14.5 0 14.5 0 0 -14 0 -14 14 0 14 0 0 -14.5 0 -14.5 14.5 0 14.5 0 0 -14 0 -14 14 0 14 0 0 14 0 14 -14 0 -14 0 0 14.5 0 14.5 -14.5 0 -14.5 0 0 14 0 14 -14 0 -14 0 0 14.5 0 14.5 -14.5 0 -14.5 0 0 14 0 14 -14 0 -14 0 0 -14z"/>
  <path d="M1904 582.5 l0 -14.5 -156.5 0 -156.5 0 0 -14 0 -14 156.5 0 156.5 0 0 14 0 14 14.5 0 14.5 0 0 14.5 0 14.5 -14.5 0 -14.5 0 0 -14.5z"/>
  <path d="M2330 582.5 l0 -14.5 14.5 0 14.5 0 0 -14 0 -14 113.5 0 113.5 0 0 14 0 14 14.5 0 14.5 0 0 14.5 0 14.5 -14.5 0 -14.5 0 0 -14.5 0 -14.5 -113.5 0 -113.5 0 0 14.5 0 14.5 -14.5 0 -14.5 0 0 -14.5z"/>
  <path d="M171 554 l0 -14 170.5 0 170.5 0 0 14 0 14 -170.5 0 -170.5 0 0 -14z"/>
  <path d="M881 554 l0 -14 227.5 0 227.5 0 0 14 0 14 -227.5 0 -227.5 0 0 -14z"/>
 </g>
 <g fill="#bcbcbc">
  <path d="M57 1066 l0 -14 -14.5 0 -14.5 0 0 -14.5 0 -14.5 -14 0 -14 0 0 -14 0 -14 14 0 14 0 0 14 0 14 14.5 0 14.5 0 0 14.5 0 14.5 284 0 284 0 0 -14.5 0 -14.5 14.5 0 14.5 0 0 -14 0 -14 14 0 14 0 0 14 0 14 -14 0 -14 0 0 14.5 0 14.5 -14.5 0 -14.5 0 0 14 0 14 -284 0 -284 0 0 -14z"/>
  <path d="M767 1066 l0 -14 -14 0 -14 0 0 -14.5 0 -14.5 -14.5 0 -14.5 0 0 -14 0 -14 14.5 0 14.5 0 0 14 0 14 14 0 14 0 0 14.5 0 14.5 284.5 0 284.5 0 0 -14.5 0 -14.5 14 0 14 0 0 -14 0 -14 14.5 0 14.5 0 0 14 0 14 -14.5 0 -14.5 0 0 14.5 0 14.5 -14 0 -14 0 0 14 0 14 -284.5 0 -284.5 0 0 -14z"/>
  <path d="M1449 1066 l0 -14 -14 0 -14 0 0 -14.5 0 -14.5 14 0 14 0 0 14.5 0 14.5 298.5 0 298.5 0 0 -14.5 0 -14.5 14.5 0 14.5 0 0 -14 0 -14 14 0 14 0 0 14 0 14 -14 0 -14 0 0 14.5 0 14.5 -14.5 0 -14.5 0 0 14 0 14 -298.5 0 -298.5 0 0 -14z"/>
  <path d="M2188 1066 l0 -14 -14 0 -14 0 0 -14.5 0 -14.5 -14.5 0 -14.5 0 0 -14 0 -14 14.5 0 14.5 0 0 14 0 14 14 0 14 0 0 14.5 0 14.5 284.5 0 284.5 0 0 -14.5 0 -14.5 14 0 14 0 0 -14 0 -14 14.5 0 14.5 0 0 14 0 14 -14.5 0 -14.5 0 0 14.5 0 14.5 -14 0 -14 0 0 14 0 14 -284.5 0 -284.5 0 0 -14z"/>
  <path d="M2899 1066 l0 -14 -14.5 0 -14.5 0 0 -14.5 0 -14.5 -14 0 -14 0 0 -14 0 -14 14 0 14 0 0 14 0 14 14.5 0 14.5 0 0 14.5 0 14.5 71 0 71 0 0 -71.5 0 -71.5 14 0 14 0 0 -14 0 -14 14.5 0 14.5 0 0 -14 0 -14 14 0 14 0 0 -14.5 0 -14.5 57 0 57 0 0 14.5 0 14.5 14 0 14 0 0 14 0 14 14.5 0 14.5 0 0 14 0 14 14 0 14 0 0 71.5 0 71.5 71 0 71 0 0 -14.5 0 -14.5 14.5 0 14.5 0 0 -14 0 -14 14 0 14 0 0 14 0 14 -14 0 -14 0 0 14.5 0 14.5 -14.5 0 -14.5 0 0 14 0 14 -71 0 -71 0 0 -14 0 -14 -14 0 -14 0 0 -71.5 0 -71.5 -14.5 0 -14.5 0 0 -14 0 -14 -14 0 -14 0 0 -14 0 -14 -57 0 -57 0 0 14 0 14 -14 0 -14 0 0 14 0 14 -14.5 0 -14.5 0 0 71.5 0 71.5 -14 0 -14 0 0 14 0 14 -71 0 -71 0 0 -14z"/>
  <path d="M1904 838.5 l0 -14.5 -156.5 0 -156.5 0 0 -14 0 -14 156.5 0 156.5 0 0 14 0 14 14.5 0 14.5 0 0 14.5 0 14.5 -14.5 0 -14.5 0 0 -14.5z"/>
  <path d="M171 810 l0 -14 170.5 0 170.5 0 0 14 0 14 -170.5 0 -170.5 0 0 -14z"/>
  <path d="M881 810 l0 -14 170.5 0 170.5 0 0 14 0 14 -170.5 0 -170.5 0 0 -14z"/>
 </g>
 <g fill="#b1b1b1">
 </g>
 <g fill="#a6a6a6">
 </g>
 <g fill="#9b9b9b">
 </g>
 <g fill="#909090">
 </g>
 <g fill="#858585">
 </g>
 <g fill="#7a7a7a">
 </g>
 <g fill="#6f6f6f">
 </g>
 <g fill="#646464">
 </g>
 <g fill="#595959">
 </g>
 <g fill="#4e4e4e">
 </g>
 <g fill="#434343">
 </g>
 <g fill="#373737">
 </g>
 <g fill="#2c2c2c">
 </g>
 <g fill="#212121">
 </g>
 <g fill="#161616">
 </g>
 <g fill="#0b0b0b">
 </g>
 <g fill="#000000">
 </g>
</svg>