<?xml version="1.0" encoding="utf-8"?>
<!DOCTYPE svg PUBLIC "-//W3C//DTD SVG 20010904//EN" "http://www.w3.org/TR/2001/REC-SVG-20010904/DTD/svg10.dtd">
<svg version="1.0" xmlns="http://www.w3.org/2000/svg" width="1920px" height="1080px" viewBox="0 0 1920 1080" preserveAspectRatio="xMidYMid meet">
 <g fill="#1c1c1c">
  <path d="M 1009.5 964.6 c -11.6 -4.4 -14.6 -6.7 -18.4 -14.3 -3 -6 -3 -19.6 0 -25.6 1.2 -2.5 9.6 -11.8 20.5 -22.7 l 18.4 -18.5 0 -129.1 c 0 -70.9 -0.3 -130.5 -0.6 -132.4 -1.2 -6.3 -8.3 -14.7 -24.7 -29.5 -13.7 -12.4 -15.7 -15.9 -15.7 -28 0 -12.5 3.3 -18.6 12.4 -23.2 l 5 -2.5 52 0.6 c 60.4 0.8 52.5 0.8 88.1 0 30.8 -0.7 45.4 0.3 64.1 4.1 19.1 4 38.2 11.7 53.2 21.4 3.4 2.3 6.5 4.1 6.7 4.1 0.3 0 0.5 -2.9 0.5 -6.5 0 -4.9 0.6 -7.7 2.4 -11.3 2.8 -5.5 4.5 -7.2 10.5 -10.2 l 4.5 -2.2 51 0.7 c 58.9 0.7 52.6 0.7 90.2 -0.1 38.9 -0.8 60 1.6 83.5 9.7 7.7 2.6 28.6 13 34.9 17.2 6.6 4.5 20.5 18.3 25.6 25.3 8.1 11.3 15.1 28 18.9 44.8 0.5 2.6 1.4 1.3 8.4 -13 9.8 -19.8 18.1 -32.3 29.1 -43.8 11.5 -12 19.3 -17.7 33.5 -24.6 13.2 -6.5 21.2 -8.9 31.9 -9.6 3.9 -0.3 14 -2.1 22.4 -4.1 14.5 -3.3 16.1 -3.5 29 -3.1 l 13.7 0.4 23 7.8 23 7.8 5.5 -2.7 c 10.8 -5.4 15.6 -6.5 27.2 -6.5 9.5 0 11.5 0.3 15.6 2.4 5.5 2.8 7.2 4.5 10.1 10.3 2.1 4.2 2.1 4.9 2.1 78 l 0 73.8 6.5 3.4 c 7.4 3.8 10.4 6.9 14.6 15.2 2.7 5.4 2.9 6.7 2.9 16.9 0 9.8 -0.3 11.6 -2.5 16 -2.6 5.2 -5.2 7.4 -15.2 13.4 l -6.3 3.7 0 85 c 0 84.5 0 85 -2.1 89.2 -2.9 5.8 -4.6 7.5 -10.1 10.3 -4.2 2.1 -6 2.4 -17.1 2.4 -12.2 0 -12.4 0 -20.2 -3.8 l -7.8 -3.8 -8.6 3.6 -8.6 3.5 -26 -0.1 c -31.9 -0.1 -28.2 -0.1 -56 0 -21 0.1 -23.7 -0.1 -30.7 -2.1 -10 -2.9 -22.5 -8.7 -32.5 -15.1 -9.9 -6.4 -26.9 -23.7 -34.1 -34.7 -13.6 -20.7 -25.4 -49 -32.6 -78 -5.9 -23.8 -11.3 -59.2 -12.3 -80.6 l -0.6 -12.7 -4.1 6.2 c -5.6 8.5 -22.6 25.3 -31.6 31.3 -8.6 5.7 -26.3 14.9 -37.8 19.4 -10.1 4.1 -35.2 10.4 -47.4 12 l -9.8 1.3 0 38.2 0 38.2 10.3 10.5 c 5.6 5.8 12 11.4 14.2 12.5 4.8 2.4 7.6 5.3 10.4 10.9 1.7 3.5 2.1 6 2.1 14.3 0 8.6 -0.3 10.7 -2.4 14.8 -2.8 5.5 -4.5 7.2 -10.3 10.1 -4 2 -5.7 2.1 -30.8 2.1 -22.2 0 -27.1 -0.3 -29.6 -1.6 -2.8 -1.4 -4.2 -1.4 -15.2 0 -28.3 3.7 -85.1 6.7 -89.3 4.7 -1.9 -0.8 -4.9 -0.8 -12.1 0.1 -7.4 0.9 -12.7 0.9 -24.2 -0.1 -8 -0.7 -22.5 -1.6 -32.1 -2 -16.2 -0.7 -17.9 -0.9 -22.6 -3.4 -5.3 -2.7 -10.7 -8 -11.9 -11.6 -0.9 -2.9 -2 -2.6 -3.5 0.9 -2.1 5 -4.9 7.9 -10.1 10.5 l -4.8 2.5 -39.6 0 c -31.6 0 -40.1 -0.3 -42.3 -1.4 -2.3 -1.1 -3.9 -1.1 -10.6 0 -12 2.1 -35.3 4.2 -52.1 4.8 -13.9 0.5 -15.4 0.3 -21 -1.8 z  m 302.5 -116.1 c 0 -19.2 0 -64 0 -99.5 l -0.1 -64.5 -2.3 7 c -4.8 14.8 -19.8 39.7 -35.4 58.8 -7.6 9.4 -19.9 20.6 -27 24.8 l -5.9 3.4 7.9 15.8 c 9.5 19 13.3 28.4 15.8 39.1 1.5 6.1 3.1 9.8 6.7 15.1 7.2 10.5 19.3 25.3 27.4 33.4 l 7.2 7.2 2.8 -2.8 2.8 -2.8 0.1 -35 z  m 432 15.5 c 1.4 -5.3 2.6 -71 1.5 -79.8 -0.6 -5 -1.2 -6.2 -5 -9.9 -2.4 -2.2 -7.6 -6 -11.7 -8.4 -9.5 -5.5 -10.6 -6.5 -13.4 -12.1 -2.1 -4.2 -2.4 -6.1 -2.4 -16.3 0 -9.8 0.3 -12.2 2.1 -15.8 2.8 -5.6 4.6 -7.5 9.4 -10.1 3.9 -2 5.5 -2.1 46.8 -2.6 l 42.9 -0.5 -10.4 -14 c -27 -36.3 -51.6 -58.2 -66.1 -58.7 -5.7 -0.2 -13.6 10.2 -18.5 24.2 -8.9 25.4 -13.8 57.9 -16.3 107.5 -1.3 27.3 -1.1 30.7 3.4 45 9.7 31 21.4 51.5 32.1 56 3.7 1.6 4.2 1.3 5.6 -4.5 z  m -295.1 -158.3 c 7.6 -2.8 14.4 -9.8 16.6 -16.8 4 -13.4 2.5 -29.3 -3.8 -38.6 -3.7 -5.5 -11 -9.7 -19.4 -11.1 l -5.3 -0.9 0 35.4 0 35.5 3.3 -0.7 c 1.7 -0.4 5.6 -1.7 8.6 -2.8 z  m -281.6 -13.4 c 7.8 -2.1 14 -7.6 16.3 -14.6 2.2 -6.2 2.4 -17.4 0.6 -23.5 -2.6 -8.5 -13 -15.9 -25.2 -17.8 l -4 -0.7 0 29.6 0 29.7 3.3 -0.6 c 1.7 -0.3 5.8 -1.3 9 -2.1 z  m 144.5 -62.9 c -0.4 -9.8 -0.6 -10.4 -4 -15.1 -2 -2.6 -4.6 -5.7 -5.8 -6.8 -2.2 -1.9 -2.2 -1.9 0.3 3 3.3 6.7 7.5 20.3 8.4 27.3 1 8.2 1.6 3.5 1.1 -8.4 z "/>
  <path d="M 1553.5 495.8 c -2.2 -1.1 -5.1 -3 -6.3 -4.2 -1.3 -1.1 -8.7 -12.7 -16.5 -25.6 -22.9 -38.3 -84.5 -136.9 -87.3 -139.9 -0.2 -0.2 -0.4 17.8 -0.4 40.1 l 0 40.6 7.3 4.3 c 10.2 6 19.2 14.9 23.3 23.1 3.2 6.3 3.4 7.4 3.4 16.3 0 8.1 -0.4 10.3 -2.4 14.3 -2.8 5.5 -4.5 7.2 -10.3 10.1 -4.2 2.1 -4.8 2.1 -81.3 2.1 -76.5 0 -77.1 0 -81.3 -2.1 -5.8 -2.9 -7.5 -4.6 -10.3 -10.1 -2 -4 -2.4 -6.2 -2.4 -14.3 0 -8.9 0.2 -10 3.4 -16.3 4.1 -8.2 13.1 -17.1 23.4 -23.1 l 7.2 -4.3 -0.1 -37.2 0 -37.1 -2.5 8.5 c -5.2 17.6 -13.4 34.8 -22.4 47 -4.9 6.6 -15.6 17.4 -22.1 22.3 -2.4 1.8 -5 5.6 -8.2 12 -4 8.1 -5.9 10.6 -13.6 18 -8.1 7.6 -10.6 9.3 -23.8 15.9 -15.8 7.9 -27.2 12.1 -46.1 16.8 -10.7 2.7 -13.2 3 -28.7 3 -26.1 0 -43 -3.5 -63.1 -12.9 -35.9 -17 -61 -45 -79.4 -88.6 -2.4 -5.5 -4.5 -10.2 -4.7 -10.5 -0.2 -0.2 -0.1 8.3 0.3 19 0.7 18.3 0.8 19.6 2.8 20.9 1.2 0.8 5.4 4.7 9.4 8.7 5.6 5.7 8.2 9.3 11.5 16.1 4 8.4 4.2 9.3 4.5 19.4 0.3 9.7 0.2 11.1 -2.1 15.5 -3.1 6.1 -5.6 8.4 -13.4 12.3 l -6.2 3.1 -76.6 0 -76.6 0 -4.7 -2.4 c -5.5 -2.8 -7.2 -4.5 -10.1 -10.3 -1.7 -3.4 -2.1 -6 -2.1 -13.3 0 -12.9 1.2 -14.9 22.9 -36.5 l 18.1 -18 0 -41.5 c -0.1 -34.1 -0.3 -41.9 -1.5 -44 -2 -3.5 -2 -19.1 0 -23.1 1.4 -2.6 1.5 -11.9 1.3 -78.2 -0.4 -79.8 -0.4 -79 -5.3 -85.7 l -2.5 -3.4 0 55.2 0 55.3 -2.4 4.7 c -2.8 5.5 -4.5 7.2 -10.3 10.1 -3.5 1.7 -6 2.1 -14.8 2.1 -9.2 0 -11.2 -0.3 -15.3 -2.4 -2.6 -1.3 -5.7 -3.5 -6.8 -4.8 -6.7 -7.2 -21.4 -46 -21.4 -56.2 0 -3.5 -0.8 -4.7 -7.7 -12 -4.3 -4.5 -9.3 -10.8 -11 -14.1 l -3.2 -6 -0.2 77 c -0.2 108.8 -0.4 128 -1.3 145.1 -0.9 14.5 -0.8 15.3 1.3 19.7 3.7 7.6 13.8 15.9 35.3 29.2 1.8 1.1 4.5 4.3 6 7 2.5 4.6 2.8 6 2.8 15.8 0 9 -0.3 11.5 -2.1 15 -2.9 5.8 -4.6 7.5 -10.1 10.3 l -4.7 2.4 -90.6 0 -90.6 0 -4.7 -2.4 c -5.5 -2.8 -7.2 -4.5 -10.1 -10.3 -1.7 -3.4 -2.1 -6 -2.1 -13.5 0.1 -13.1 2.2 -16.8 15.5 -26.7 5.5 -4.1 13 -10.4 16.7 -14.1 5.9 -5.9 6.7 -7.1 7.3 -11.6 0.3 -2.7 1 -6 1.4 -7.4 0.5 -1.4 0.5 -7 0 -12.5 -0.4 -5.5 -0.8 -26.4 -0.9 -46.5 0 -38.6 1.2 -61.8 5.2 -95.5 2.9 -24.6 2.8 -29.4 -0.4 -51.5 -1.5 -10.2 -3.1 -21.4 -3.6 -25 l -0.8 -6.5 -7.1 14 c -3.8 7.7 -11.2 23.2 -16.3 34.5 -19.4 43.1 -19 42.4 -27.2 46.6 -4 2 -6.2 2.4 -13.8 2.4 -7.7 0 -9.8 -0.4 -14 -2.5 -2.7 -1.4 -5.9 -3.9 -7.2 -5.5 -1.9 -2.7 -2.7 -3 -7.5 -3 -6.5 0 -14.1 -3.5 -17.7 -8.2 -1.4 -1.8 -6.7 -9.1 -11.7 -16.2 -22.6 -32.1 -42.7 -53.4 -60.5 -64.1 -3.2 -1.9 -6.6 -3.5 -7.5 -3.5 -2.7 0 -14.9 9.7 -19.2 15.1 -4.6 5.9 -6.3 9.7 -8.5 19.7 -1.5 6.8 -1.7 14.8 -1.7 71.7 0 67 0.3 72.7 4.6 89 4.4 16.9 12 25.3 25.6 28.3 3.8 0.9 4.6 0.7 9 -2.3 16.8 -11.4 41 -38.5 60.3 -67.5 9.3 -14 15.4 -18 27.5 -18 6 0 8.5 0.5 12.3 2.4 5.5 2.8 7.2 4.5 10.1 10.3 2.1 4.2 2.1 4.8 2.1 79.3 0 74.5 0 75.1 -2.1 79.3 -2.9 5.8 -4.6 7.5 -10.3 10.4 -4.6 2.3 -5.7 2.5 -17.5 2.1 -12.4 -0.3 -12.7 -0.4 -21.5 -4.6 -4.9 -2.3 -9.4 -4.2 -10 -4.2 -0.6 0 -11 3.9 -23.1 8.8 l -22 8.7 -21.5 0 c -29.3 0 -40.2 -2.3 -63.7 -13.5 -12.2 -5.8 -12.3 -5.8 -12.3 -3.4 0 3.2 -3.5 10.1 -6.9 13.7 -1.4 1.6 -4.7 4 -7.3 5.3 -4.3 2.2 -6 2.4 -17.5 2.4 -7.2 0 -17 -0.7 -22.3 -1.6 -7.6 -1.3 -15.6 -1.6 -39.4 -1.4 -16.5 0.1 -32.2 0.6 -35 1.2 -8.1 1.7 -25.1 2.1 -27.7 0.7 -1.2 -0.6 -8 -1.4 -15 -1.7 -11.3 -0.4 -13.3 -0.8 -17.5 -3.1 -4.2 -2.2 -7.8 -6.1 -9.8 -10.4 -0.5 -0.9 -0.7 -0.9 -1.2 0 -2 4.3 -5.6 8.2 -9.9 10.5 -4.8 2.6 -5.6 2.8 -20 2.8 -8.2 0.1 -18.6 0.6 -23 1.1 -15.3 1.7 -33.8 2.2 -40 0.9 -3.3 -0.6 -15.4 -1.4 -27 -1.7 -18.2 -0.5 -21.5 -0.8 -25 -2.6 -5.5 -2.7 -7.3 -4.5 -10.1 -9.9 -2.1 -4.1 -2.4 -6.1 -2.4 -15.3 0 -13.8 1.9 -18 12 -26 3.9 -3.1 8.6 -7.1 10.4 -9 8.3 -8.3 17.1 -21.9 21.6 -33.5 1.2 -3 9.8 -35.6 19.1 -72.5 9.2 -36.8 23.6 -93.5 31.8 -125.9 l 14.9 -59 -7 -7.5 c -4 -4.3 -8.4 -10.3 -10.4 -14.3 -3.1 -6.1 -3.4 -7.6 -3.4 -15.3 0 -7.1 0.4 -9.4 2.4 -13.3 1.3 -2.6 3.5 -5.7 4.8 -6.8 3.2 -3 12.6 -7.6 23.1 -11.3 l 8.9 -3.1 45.9 0 46 0 4.7 2.4 c 9.6 4.9 10.5 7.2 21.7 56 5.2 22.8 12.4 53.7 16 68.7 3.6 15.1 6.5 27.8 6.5 28.3 0 2.6 1.2 -1.1 3.9 -11.6 11.6 -45.9 40.9 -87.4 82.6 -117.3 6 -4.3 8.6 -6.9 10.8 -10.8 3.9 -7.2 7.2 -10.4 14.8 -14.2 8.6 -4.4 18.6 -5.5 49.1 -5.5 32.2 0 48.1 2.7 67.2 11.4 l 7.8 3.6 4.1 -2.1 c 9.6 -5 14.6 -6 27.2 -5.8 11.3 0.2 12.3 0 17.4 -2.6 l 5.5 -2.7 19.5 0.7 c 24.6 0.9 23.6 0.9 137.1 0 l 94.6 -0.8 4.4 2.3 c 2.5 1.2 5.7 3.4 7.2 4.8 2.5 2.3 2.9 2.4 4.5 1 1 -0.9 3.7 -2.5 6 -3.7 4.2 -2.1 4.7 -2.1 89.3 -2.1 l 85.1 0 4.7 2.4 c 8.6 4.4 12.2 10.8 12.2 22.1 0 11.2 -1.8 14 -22.4 34.5 l -17.6 17.5 0 13.5 0 13.4 6.2 -10.7 c 3.5 -5.9 9 -14.4 12.3 -18.9 9.1 -12.4 30 -32.9 45.2 -44.2 9.2 -6.9 13.5 -10.7 14.4 -12.9 2.1 -5 9.8 -12.6 16.1 -15.8 l 5.7 -2.9 41.4 0 c 33.1 0 43.2 0.3 50.8 1.6 31.1 5.2 61 23.1 81 48.4 15.9 20.2 28.8 47.8 37.4 80 l 3.4 12.5 -0.2 -33 -0.2 -32.9 -14.5 -8.2 c -18.4 -10.5 -18.5 -10.6 -21.5 -16.4 -2.3 -4.6 -2.5 -5.9 -2.5 -20 0 -13.9 0.2 -15.4 2.4 -19.8 2.8 -5.5 4.5 -7.2 10.4 -10.1 4.2 -2.1 4.9 -2.2 49.1 -1.9 l 44.8 0.3 11.9 5.9 c 10.8 5.3 12.8 6.8 21.5 15.5 5.3 5.3 11.7 12.7 14.2 16.6 l 4.7 7 0 -14.3 c 0 -12.5 0.3 -14.8 2.1 -18.5 2.9 -5.8 4.6 -7.5 10.1 -10.3 l 4.7 -2.4 78.1 0 78.1 0 4.7 2.4 c 5.5 2.8 7.2 4.5 10.1 10.3 1.8 3.7 2.1 5.9 2.1 18.8 0 15.6 -1 19.4 -6.4 25.3 -3.3 3.7 -10.5 6.9 -17 7.5 -7.1 0.7 -10 3 -12.3 10.1 -1.4 4.3 -1.8 10.8 -2.1 42.3 -0.3 35.9 -0.3 37.3 1.7 41.2 2.8 5.3 2.8 20.6 0.1 38.6 -1.8 12 -2 18.8 -2 89.5 0 74.5 0.1 77.2 2.5 101 3.2 31.2 3.2 34.7 0.1 40.9 -3.1 5.9 -11.1 13.3 -18.8 17.2 -4.9 2.5 -6.9 2.9 -13.5 2.9 -5.9 -0.1 -8.8 -0.6 -11.8 -2.2 z  m -1363.5 -68 c 7 -5.3 10.2 -8.2 14 -12.8 l 4 -4.8 -2 -6.3 c -1.1 -3.5 -2 -8.8 -2 -11.8 0 -3 -1.1 -8.8 -2.5 -13 -1.4 -4.2 -2.9 -9.5 -3.5 -11.8 l -1.1 -4.3 -11.4 0 -11.3 0 -4.1 16.8 c -2.2 9.2 -4.7 20 -5.6 24 l -1.7 7.2 7.2 7.8 c 3.9 4.2 8.5 10.1 10.2 13.1 l 3.1 5.3 1.8 -3.5 c 1 -1.9 3.2 -4.6 4.9 -5.9 z  m 980.6 -59 c 3.5 -4.2 7.6 -13.2 10.2 -22.5 l 2 -7.3 -2.8 1.5 c -2.1 1.1 -6.4 1.5 -16 1.5 -12.1 0 -13.5 -0.2 -18.3 -2.6 -2.9 -1.4 -7.1 -4.5 -9.5 -6.8 -4.9 -4.6 -4.7 -5.3 -1.6 7.9 2.2 9.3 4.8 15.1 9 20.1 4.2 5.2 8.5 7.9 15.5 9.8 7.7 2.1 8.4 2 11.5 -1.6 z  m -29.9 -174.7 c 3.7 -1.8 6 -2.1 17.8 -2.1 13.2 0 13.7 0.1 19.8 3.1 3.4 1.7 7 3.8 8 4.7 0.9 0.8 2 1.3 2.3 0.9 1 -0.9 -3.5 -20.3 -6.6 -28.9 -4.5 -12.4 -11.9 -21.3 -19.7 -23.9 -2.9 -0.9 -3.9 -0.7 -7.9 1.6 -6.5 3.8 -14.7 12.5 -17.8 18.7 -3 6 -5.1 15.8 -6 26.7 l -0.5 7.4 3.2 -3 c 1.8 -1.7 5.1 -4 7.4 -5.2 z  m 335.3 -52.9 l 0 -13.8 -8.7 -6.1 c -4.9 -3.4 -10.8 -7.6 -13.1 -9.4 l -4.4 -3.2 4.4 8.9 c 2.5 4.9 5.1 10.5 5.8 12.4 1.4 3.4 14.9 25 15.6 25 0.2 0 0.4 -6.2 0.4 -13.8 z "/>
 </g>
 <g fill="#8b8039">
  <path d="M 1018.3 940.2 c -2.4 -0.9 -4.3 -2.1 -4.3 -2.7 0 -0.6 9 -10 20 -21 l 20 -20 0 -86.4 c 0 -74.5 0.2 -87.6 1.6 -95.7 1.3 -7.9 1.4 -9.9 0.3 -12.6 -1 -2.5 -1.5 -14.2 -1.9 -47.8 l -0.5 -44.6 -3.5 -5.9 c -3.8 -6.3 -21.4 -25.2 -30.4 -32.5 -3 -2.5 -5.5 -5.3 -5.6 -6.4 0 -1.8 1.2 -1.9 37.8 -1.3 20.7 0.3 44.2 1.1 52.1 1.8 11.1 0.9 16 0.9 21.5 0 26.3 -4.4 68.8 -0.9 95.7 8 43.8 14.5 66.1 45.3 66.3 91.4 0 12.3 -0.1 13.5 -3.2 21.6 -5.9 15.6 -23.5 41.2 -38.8 56.5 -8.3 8.4 -11.5 10.9 -18.5 14.3 -5 2.5 -11.2 4.7 -15.2 5.4 -4.7 0.8 -6.7 1.5 -6.7 2.6 0 0.8 3.6 7.8 7.9 15.5 16.6 29.6 24.3 46.7 27.6 61.2 2.4 10.7 4.4 14.6 14.8 28.9 11.4 15.6 29.9 35.5 42.9 45.9 2.5 2 5.1 5 5.7 6.7 0.5 1.6 1.4 2.9 1.8 2.9 0.4 0 7.4 -6.6 15.5 -14.7 l 14.8 -14.8 0 -33.8 c 0 -26.9 0.3 -35.7 1.6 -42.8 1.4 -7.5 1.4 -9.3 0.3 -12.1 -1.1 -2.7 -1.5 -21.5 -1.9 -100.8 l -0.5 -97.6 -3.5 -5.9 c -3.8 -6.3 -21.4 -25.2 -30.4 -32.5 -3 -2.5 -5.5 -5.3 -5.6 -6.4 0 -1.8 1.2 -1.9 36.3 -1.3 19.9 0.3 43.5 1.1 52.5 1.7 12.1 0.9 17.8 0.9 22.5 0.1 17.8 -3.3 50 -2.2 73.7 2.4 33.5 6.6 55.8 18.6 70.2 37.9 10.5 14.1 15.5 27.4 17.9 47.8 2.7 23.2 -1.4 37.1 -19.9 68.1 -16.7 28 -38 44.3 -72.7 55.6 -22.8 7.4 -61 13.4 -64.9 10.2 -1.9 -1.6 -2 -1.2 -0.1 6.4 1.1 4.8 1.4 15.9 1.5 56 l 0 50 10.9 12.1 c 10.4 11.6 21.8 21.4 24.7 21.4 0.9 0 1.4 1.1 1.4 3 l 0 3 -18.9 0 c -20.7 0 -21.6 -0.2 -22.8 -6 l -0.5 -2.8 -4.2 1.4 c -12.6 4.5 -39.9 7.8 -84.2 10 -11.3 0.5 -13.9 0.4 -17.8 -1.1 -4.5 -1.7 -5.2 -1.7 -16.4 -0.1 -9.9 1.5 -13.5 1.6 -23.2 0.7 -6.3 -0.6 -19 -1.4 -28.2 -1.7 l -16.6 -0.7 -2.8 -5.1 c -14.6 -27 -54.9 -98.7 -66.7 -118.6 -6.7 -11.3 -18.9 -30.1 -19.3 -29.8 -0.1 0.2 0.4 3.7 1.2 7.8 1.1 5.9 1.4 18.3 1.4 56.9 l 0 49.3 9.8 11.1 c 10.2 11.6 21.2 21.4 24.9 22.4 1.7 0.4 2.3 1.2 2.3 3.4 l 0 2.9 -31.9 0 c -35.1 0 -34.5 0.1 -35.8 -6.1 l -0.5 -2.8 -5.2 2.1 c -10 3.9 -37.3 8 -61.6 9.2 -8.3 0.4 -11.4 0.1 -14.7 -1.2 z  m 430.8 -207.5 c 12.9 -3.4 21 -7.6 28.5 -15.1 13.3 -13.3 18.2 -34.7 13.9 -60.2 -2.9 -17.2 -12.3 -30.7 -25.7 -37.3 -8.7 -4.3 -22.7 -7.1 -36.3 -7.1 -8.1 -0.1 -11.5 -0.5 -12.9 -1.5 -1.1 -0.8 -2.3 -1.5 -2.8 -1.5 -0.4 0 -0.8 26.2 -0.8 58.3 -0.1 48.6 -0.3 58.6 -1.5 60.7 -2 3.4 -1.9 3.7 1.3 5.5 4.1 2.4 23.8 1.4 36.3 -1.8 z  m -314.6 -11.1 c 1.4 -0.9 6.8 -1.5 17 -1.9 22.7 -0.9 33.8 -4.4 44.4 -14.3 10.8 -10 14.5 -20.3 14.6 -40.4 0 -11.6 -0.3 -14.4 -2.4 -20.3 -4.8 -14.2 -16.2 -24.8 -31.9 -30 -15.6 -5.2 -39.1 -7.3 -45.3 -4.2 -2.8 1.5 -2.9 1.6 -1.4 4.5 1.3 2.5 1.5 10.5 1.5 55.5 0 28.9 0.3 52.5 0.8 52.5 0.4 0 1.6 -0.6 2.7 -1.4 z "/>
  <path d="M 1698.4 940 c -24 -3.2 -46.2 -17.5 -62.6 -40.5 -20.5 -28.6 -36 -80.4 -42 -140 -1.1 -11.3 -1 -13.2 1.1 -25.9 14.4 -87.3 44.4 -142.4 86.3 -158.6 7.7 -3 22.1 -6 28.5 -6 1.9 0 10.1 -1.6 18.1 -3.5 l 14.7 -3.6 7.8 1.6 c 6.8 1.4 35.4 10.8 53.2 17.5 l 6 2.3 4.6 -3.1 c 7.1 -4.8 15.8 -8.8 22.2 -10.2 3.1 -0.7 5.9 -1.1 6.2 -0.8 0.3 0.3 0.4 30.7 0.3 67.7 l -0.3 67.2 -9.8 -14.1 c -13.8 -19.7 -24.2 -32.6 -37.6 -46.4 -13.4 -13.6 -24.6 -22.5 -34.6 -27.2 -20.9 -9.9 -36.1 -8.1 -49.2 5.9 -20.2 21.6 -30.6 68.8 -33.3 151.4 l -1 30.2 3.5 11.8 c 6.9 23.6 15.8 44.3 23.9 55.7 6.2 8.7 15.6 17.2 22.3 20.4 5 2.3 7.1 2.7 14.8 2.7 7.7 0 9.6 -0.3 13.5 -2.5 5.6 -3.2 10.5 -9.6 12.7 -16.8 1.6 -5.1 1.8 -10.8 1.8 -55.9 l 0 -50.1 -4 -5.8 c -4.5 -6.6 -13 -13.9 -22.2 -19.1 -5.8 -3.2 -6.3 -3.7 -6.3 -6.9 l 0 -3.4 61.1 0 c 37 0 61.7 0.4 62.8 1 2.6 1.3 4.8 5.1 5.6 9.2 l 0.7 3.6 -12.1 7.3 -12.1 7.4 0 89.3 0 89.2 -4.2 0 c -4.8 0 -12.8 -3.4 -23.1 -9.9 l -6.6 -4.2 -3.3 2.5 c -5.2 3.9 -15.8 8.5 -23.4 10.1 -8.9 1.9 -28.6 1.9 -34.7 0.1 -2.5 -0.7 -5.9 -2.3 -7.6 -3.6 l -3.1 -2.1 -2.6 2 c -6 4.7 -19.5 6.2 -36 4.1 z "/>
  <path d="M 1555.4 456.8 c -28.4 -47.3 -75.3 -122.1 -107.2 -170.9 -9 -13.7 -14.5 -23.1 -15.1 -25.8 -1 -4.5 -5.6 -11.2 -10.9 -15.6 l -3.2 -2.7 0 91.1 0 91.1 8.3 4.1 c 15.4 7.8 23.5 14.8 25.2 22.2 l 0.7 2.7 -70.2 0 -70.2 0 0.7 -2.7 c 1.7 -7.4 9.8 -14.4 25.3 -22.2 l 8.2 -4.1 -0.2 -156.7 -0.3 -156.8 -18.7 -10.5 -18.7 -10.5 -0.1 -7.7 0 -7.8 32.4 0 c 17.8 0 34.8 0.5 37.7 1 21.1 3.9 41.7 27.3 57 64.5 2.2 5.4 13.2 23.3 33.7 54.8 16.7 25.7 30.6 46.7 30.8 46.7 0.2 0 0.4 -29.1 0.4 -64.7 l 0 -64.8 -5.3 -2.8 c -2.8 -1.5 -10.4 -6.4 -16.7 -11 l -11.5 -8.2 -0.3 -7.8 -0.3 -7.7 71.1 0 71 0 0 7.4 0 7.3 -5.3 0.6 c -16.1 1.9 -26.4 11.2 -31.3 28.3 -1.5 5 -1.8 12 -2.2 47 -0.4 41.8 0.2 51 3.3 54.4 1.3 1.5 1.2 3.6 -1 19.5 -2.5 17.8 -2.5 18.1 -2.5 97.3 0 78.3 0 80 2.6 105 1.4 13.9 2.4 25.5 2.2 25.6 -0.2 0.1 -2.2 1.7 -4.4 3.4 -2.3 1.8 -4.4 3.2 -4.7 3.2 -0.3 0 -5 -7.3 -10.3 -16.2 z "/>
  <path d="M 96 454.5 c -3.9 -0.8 -14.7 -1.3 -26.7 -1.4 l -20.3 -0.1 0 -2.9 c 0 -2.3 1.1 -3.7 5.4 -7.1 22 -16.9 39.5 -45.9 45.6 -75.5 0.7 -3.3 15.1 -60.9 32.1 -128 17 -67.1 30.9 -122.9 30.9 -124.1 0 -1.4 -2.8 -4.7 -8.1 -9.5 -9.9 -8.9 -16.1 -16.5 -15.7 -19.2 0.2 -1.5 2.8 -3 10.3 -6.1 l 10 -4.1 38.9 0 39 0 6.3 27.5 c 11.4 49.9 20.4 88.1 28.5 120.5 5.6 22.4 7.8 32.9 7.3 35 -1.5 7 -1.7 12.8 -0.4 13.5 1 0.7 1 1.4 0 3.9 -0.8 1.9 -1.2 6.3 -0.9 12.4 0.3 8.6 0.6 10 4.5 17.8 2.3 4.7 7 12.3 10.5 17 l 6.3 8.4 2.3 13 c 6.4 35.4 15 67.1 19.5 71.4 1.2 1.2 6.5 5.6 11.7 9.9 13.2 10.7 25 22.1 25 24.2 0 0.9 -0.9 2.5 -2 3.5 -1.9 1.7 -2.6 1.7 -15.1 0.1 -12.2 -1.5 -20.8 -4 -22.3 -6.4 -0.3 -0.6 -3.2 0 -7.3 1.6 -6.6 2.5 -7.6 2.6 -37.8 3.2 -19.8 0.4 -31.9 1 -33.6 1.7 -2.1 0.9 -3.5 0.8 -6.5 -0.2 -2.4 -0.9 -8.2 -1.4 -15.1 -1.5 l -11.3 0 0 -3 c 0 -1.6 0.4 -3 0.9 -3 1.7 0 10.7 -8.8 18.4 -18 l 7.9 -9.5 -0.6 -7.5 c -0.3 -4.1 -1.5 -10.8 -2.6 -14.7 -2.5 -9 -2.5 -8.6 0.2 -9.8 3.4 -1.5 3.4 -4.2 0 -7 -4.2 -3.5 -8.1 -16.2 -11.7 -37.8 l -0.6 -3.7 -32.6 0.2 -32.7 0.3 -3.8 15 c -5.7 22.9 -11.6 48.4 -13.2 57.7 l -1.5 8.4 12.5 12.8 c 11 11.3 12.4 13.1 12.4 16.2 l 0 3.4 -19.2 0 c -10.6 0 -22 0.5 -25.3 1 -11.4 1.7 -13 1.8 -19.5 0.5 z  m 98.8 -161 c 8.2 -5.1 11.2 -7.5 11.2 -9 0 -4.4 -14.9 -80.8 -15.9 -81.8 -0.9 -0.9 -1.4 -0.8 -2 0.2 -2.3 3.6 -16.9 67.1 -18.6 80.7 l -0.7 5.1 3.7 0.7 c 4.3 0.8 8.5 4.9 8.5 8.1 0 2.2 0.9 3.8 2 3.3 0.3 -0.2 5.6 -3.4 11.8 -7.3 z "/>
  <path d="M 870 453.2 c 0 -0.9 9 -10.7 20 -21.7 l 20 -20 0 -53.7 c 0 -48.4 -0.2 -53.8 -1.6 -54.6 -1.5 -0.8 -1.5 -1.1 0 -3.4 1.5 -2.3 1.6 -10.1 1.4 -88.4 l -0.3 -85.9 -2.2 -4.8 c -5.2 -11 -14.5 -22.1 -27.7 -33 -3.9 -3.1 -7.5 -7 -8.2 -8.7 l -1.3 -3 77.1 0 77 0 -16 16.7 c -8.8 9.3 -17.6 18.4 -19.6 20.2 l -3.6 3.5 0 67.9 0 67.8 -3.1 12.2 c -2.8 11.3 -3.1 13.2 -2.7 25.2 0.4 11.4 0.8 13.9 3.2 19.8 l 2.8 6.8 -1.7 17 c -1.5 14.6 -1.6 19.6 -0.6 34.7 0.6 9.7 1.4 25 1.7 33.9 l 0.7 16.3 6.3 4 c 11.7 7.7 20.3 19 20.4 26.7 0 6.5 1.9 6.3 -74 6.3 -64.2 0 -68 -0.1 -68 -1.8 z "/>
  <path d="M 446.5 450.9 c -73.1 -8.6 -116 -69.5 -129.1 -182.9 -1.5 -13.5 -1.6 -17.3 -0.6 -29.9 5.1 -61 33.3 -107.8 86.9 -143.9 5.2 -3.5 6.4 -4.9 7.7 -9 1.8 -5.2 4.6 -8.5 8.6 -10 4.6 -1.7 31.9 -3.5 43.7 -2.8 24.5 1.4 47.1 8.1 64.4 19.2 2.5 1.6 2.8 1.6 7.3 -1.5 6.9 -4.8 15.4 -8.7 21.9 -10.1 3.1 -0.7 5.9 -1.1 6.2 -0.8 0.3 0.3 0.4 30.7 0.3 67.7 l -0.3 67.1 -11.3 -15.9 c -22.1 -31.2 -43.7 -54.4 -61.5 -66.2 -11.2 -7.3 -18.3 -10.1 -26.7 -10.4 -5.5 -0.3 -7.3 0.1 -12.5 2.7 -20.5 10.4 -34.1 26.5 -39.2 46.4 -1.6 6.3 -1.8 13.6 -1.8 83.9 0 81 0.1 82.2 4.6 98 7.9 27.2 24.7 41.8 50.9 44.3 8.1 0.8 8.8 0.7 14 -1.9 19.2 -9.4 46.3 -37.3 71.6 -73.6 4.7 -6.8 8.8 -12.3 9 -12.3 0.2 0 0.4 30.2 0.4 67 0 65.3 0 67 -1.9 67 -5.5 0 -16.3 -4.7 -29.1 -12.7 -2.4 -1.5 -3.7 -1.1 -31 9.7 -26.7 10.6 -28.9 11.3 -36.5 11.6 -4.4 0.1 -11.6 -0.2 -16 -0.7 z "/>
  <path d="M 638 450.6 c 0 -0.7 4.2 -4.4 9.3 -8.2 18.9 -14 30.7 -28.2 30.7 -36.8 0 -2 0.7 -5.7 1.6 -8.3 1.5 -4.2 1.5 -6.5 0.5 -19.3 -3.7 -45 -2.1 -90 5.4 -150.8 2.4 -19.6 2.5 -20.7 1 -29.4 -3.4 -19.4 -6.5 -44.1 -7.7 -60.5 l -1.2 -17.3 -16.7 0 -16.7 0 -5.1 8 c -6.4 9.9 -24.5 46.4 -37.6 75.8 -7.6 16.8 -10.4 22.2 -11.7 22.2 -1.7 0 -1.8 -3.4 -1.8 -64 0 -52.2 0.3 -65.8 1.5 -73.8 2.4 -15.2 1.9 -14.2 7.1 -14.2 2.5 0 9.4 0.7 15.4 1.6 9.4 1.4 14.5 1.4 40.2 0.4 16.1 -0.6 62.1 -1.4 102.2 -1.7 l 73 -0.6 8.2 8.9 8.2 8.9 2.2 -2.7 c 2.8 -3.6 4.1 -3.5 6.3 0.3 1.6 2.8 1.7 8.1 1.7 70 l 0 66.9 -3.4 0 c -3.3 0 -3.4 -0.1 -7.6 -10.2 -8.3 -20.1 -11.2 -30.4 -11.8 -41.6 -0.5 -10 -0.5 -10.2 -3.1 -10.9 -9.3 -2.3 -19.5 -15.9 -28 -37.6 l -2.3 -5.7 -18.4 0 -18.4 0 0 84.3 c 0 66.3 -0.3 87.8 -1.5 101.1 -0.8 9.2 -1.2 17.3 -0.9 17.8 2.1 3.4 2.2 10.4 0.8 34.8 -2.1 34.4 -1.8 41.5 2.3 50 5.2 11.1 20.6 25.6 36.3 34.2 5.4 3 6 3.6 6 6.6 l 0 3.2 -83 0 c -70 0 -83 -0.2 -83 -1.4 z "/>
  <path d="M 1142.5 450.8 c -23.5 -2.6 -44.6 -11.4 -63.3 -26.4 -34.7 -27.8 -57.1 -81.2 -65.8 -156.9 -1.5 -13 -1.6 -16.8 -0.5 -29.5 5.1 -61 33.6 -108.2 86.9 -143.5 3.9 -2.6 7.2 -5.5 7.2 -6.3 0 -3.9 4.3 -10.3 8.3 -12.3 3.9 -2 5.1 -2.1 38.1 -1.6 30.3 0.4 35.2 0.7 44.1 2.6 52.5 11.5 85.5 52.7 101.2 126.6 l 3.8 18 0 40 c 0 36.9 -0.2 40.9 -2.2 52.2 -4 21.9 -12.8 44.8 -21.8 56.9 -7.5 9.9 -19.3 20.7 -27.2 24.8 -2.6 1.3 -3.3 2.3 -3.3 4.5 0 3.9 -2.3 10.1 -5.6 15.1 -8.5 12.9 -32.3 24.9 -66.4 33.6 -14.2 3.6 -18.8 3.9 -33.5 2.2 z  m 37 -56.2 c 18.9 -8.8 30.2 -41.1 36.1 -102.6 1.3 -13.9 1.5 -23.7 1.1 -48 -1 -53.7 -5.9 -78.3 -19.6 -99.3 -8 -12.2 -16.4 -18.3 -29.6 -21.7 -10.8 -2.8 -13.6 -2.6 -21.4 1.5 -21.7 11.4 -34.6 28.5 -38.6 51 -2.2 12.5 -2.2 142.6 0 158.5 4.8 35.6 19.9 55.9 45.5 61.4 10.5 2.3 20.6 2 26.5 -0.8 z "/>
  <path d="M 1155.3 315.1 c -7.1 -5.2 -19.5 -22.1 -33.2 -45.6 l -8.1 -13.9 19.7 -19.8 c 19.8 -19.8 19.8 -19.8 24.2 -19.8 2.5 0 6.4 0.9 8.7 2.1 5.1 2.4 17.2 14.9 27.2 28.1 9.5 12.4 9.5 13.7 0.9 25 -13.7 17.9 -23.2 34.1 -24.5 42.2 l -0.7 4.1 -5.1 0.3 c -4.2 0.2 -5.6 -0.2 -9.1 -2.7 z "/>
 </g>
 <g fill="#eaeaea">
  <path d="M 1011 958.4 c -8 -2.9 -10.9 -5 -13.7 -10 -2.8 -4.9 -3.2 -15.8 -0.7 -20.7 0.9 -1.8 10.1 -11.8 20.5 -22.2 l 18.9 -19 0 -132 c 0 -73.9 -0.4 -133.7 -0.9 -135.8 -1.5 -6.4 -10.2 -16.7 -26.4 -31.3 -11.8 -10.5 -13.7 -13.8 -13.7 -23.1 0 -8.4 2.7 -13.7 8.5 -17.1 l 4 -2.3 50.5 0.7 c 27.8 0.3 54.6 0.5 59.5 0.3 5 -0.2 22.5 -0.3 39 -0.3 23.1 0 32.4 0.4 40.4 1.7 33.4 5.4 60.3 17.4 78.1 34.8 8.6 8.5 13.9 15.7 19.5 26.9 8.8 17.4 11.5 30.6 11.5 55.5 0 19.8 -1 24.6 -8.6 39.8 -4.4 8.7 -15.6 25.8 -24.3 37.2 -10.8 14 -23.8 25.8 -34.6 31.2 -2.7 1.4 -5.1 2.7 -5.3 2.8 -0.1 0.1 3.6 7.8 8.3 17.1 9.9 19.6 15.8 34.2 17.6 43.4 1 5.1 2.5 8.5 7.2 15.5 8.3 12.6 18.9 25.3 30.4 36.8 l 9.8 9.7 5.8 -5.8 5.8 -5.8 -0.1 -132 c 0 -72.5 -0.4 -133.6 -0.9 -135.6 -1.5 -6.4 -8.9 -15.3 -25.4 -30.3 -12.8 -11.6 -14.7 -14.8 -14.7 -24.2 0 -8.4 2.7 -13.7 8.5 -17.1 l 4 -2.3 49.5 0.6 c 58.1 0.8 55.8 0.8 90.6 0 21.6 -0.6 29.8 -0.4 41 0.9 28.3 3.3 52.1 11.1 71.4 23.7 8 5.2 22 18.5 27 25.9 12.8 18.8 19 39.7 19 64.9 l 0.1 12.6 3.8 -11.5 c 7.5 -22.5 17.4 -43.6 28.1 -60 8.4 -12.8 26.6 -30.8 37.2 -36.9 16 -8.9 31.7 -14.1 43.1 -14.1 2.5 0 11.2 -1.6 19.3 -3.6 14 -3.4 15.6 -3.6 26.9 -3.1 13.1 0.5 20.2 2.4 47 12.2 l 12.9 4.7 6.6 -3.2 c 11.3 -5.6 16.5 -7 26.4 -7 10.9 0 15.7 2.2 19.3 8.5 l 2.3 4 -0.3 74 c -0.1 40.7 -0.6 74.8 -1.1 75.8 -0.7 1.4 -0.4 1.7 1.6 1.7 3.9 0 14.6 5.8 17.2 9.3 5.4 7.2 6.6 11.1 6.6 20.9 0 13 -1.6 15.5 -14.3 23.2 l -9.7 5.9 0 86.1 0 86.1 -2.3 4 c -3.7 6.6 -8.3 8.5 -20.8 8.5 -10.4 0 -10.7 -0.1 -19.5 -4.3 l -8.9 -4.3 -7.5 3.3 c -11.6 5 -15.5 5.5 -40.2 4.9 -27.5 -0.7 -23.6 -0.7 -46.6 0 -27.1 0.8 -37.4 -1.5 -58.2 -12.9 -7.9 -4.3 -11.6 -7.2 -21.6 -17.2 -13.9 -13.8 -19.6 -21.9 -29.4 -42 -14.7 -30.2 -23.3 -62.3 -29.5 -110 -3.1 -23.9 -3.1 -32.1 0.4 -51.9 1.7 -9.8 3.1 -18 3.1 -18.2 0 -0.2 -2.2 3.7 -4.9 8.8 -11.9 22.8 -20.8 35.4 -32.4 46.5 -9.9 9.4 -20.1 16.2 -36.1 23.9 -21.6 10.4 -40.8 15.8 -70.8 19.9 l -4.8 0.6 0 42 0 41.9 7.9 8.8 c 10.2 11.3 11.5 12.4 18.6 16.4 8.5 4.8 10.5 8.6 10.5 20.3 0 10.8 -2.2 15.6 -8.5 19.2 -3.9 2.2 -4.9 2.3 -28.8 2.3 -22.3 0 -25.2 -0.2 -28.5 -1.9 -3.4 -1.7 -4.3 -1.8 -12.2 -0.5 -22.9 3.7 -87.1 7.4 -92.1 5.4 -2.3 -1 -5.2 -1 -13.8 0 -8.5 1 -13.4 1 -23.2 0 -6.8 -0.6 -20.7 -1.5 -30.9 -1.9 -16.3 -0.6 -19 -1 -22.7 -2.9 -2.4 -1.2 -4.9 -3.2 -5.6 -4.5 -0.8 -1.2 -11.4 -20.2 -23.5 -42.2 -12.2 -22 -23.7 -42.7 -25.6 -46 l -3.5 -6 -0.1 16.6 0 16.7 7.4 8.3 c 9.7 11.1 12 13.2 19.1 17.1 8.5 4.8 10.5 8.6 10.5 20.3 0 10.8 -2.2 15.6 -8.5 19.2 -4 2.2 -4.4 2.3 -41.8 2.3 -32.8 0 -38.2 -0.2 -40.9 -1.6 -2.8 -1.5 -3.9 -1.5 -12.7 0 -13.1 2.1 -24.9 3.4 -42.1 4.6 -19.1 1.3 -21.4 1.2 -29 -1.6 z  m 34.5 -11.4 c 17.3 -1.5 33.2 -3.8 42.2 -6 6.8 -1.8 7.8 -1.8 8.6 -0.5 2.3 4.2 5.1 4.5 40.2 4.5 32.2 0 33.6 -0.1 35.5 -2 1.4 -1.4 2 -3.3 2 -6.8 0 -5.6 -0.9 -7 -7.1 -10.5 -5.1 -2.9 -13.1 -10.4 -23.2 -21.8 l -6.7 -7.6 0 -43.4 0 -43.4 5.6 9.5 c 11.7 19.9 30.8 53.8 49.4 87.5 10.6 19.3 20.1 35.7 21 36.6 1.4 1.2 5.2 1.7 16.2 2.2 7.8 0.4 21.5 1.2 30.3 1.9 13.6 1 17.5 0.9 26 -0.4 8.5 -1.3 10.6 -1.3 13.9 -0.2 4.6 1.7 14.5 1.8 36.1 0.4 24.5 -1.5 47 -3.9 57.9 -6.1 8.9 -1.8 10 -1.9 10.8 -0.5 2.2 4 5.9 4.6 27.3 4.6 19.2 0 20.6 -0.1 22.5 -2 1.4 -1.4 2 -3.3 2 -6.8 0 -5.7 -0.9 -7 -7.2 -10.6 -5.1 -2.8 -14.6 -11.9 -24 -22.7 l -5.7 -6.6 -0.3 -51.1 -0.3 -51.2 3.5 0 c 12.8 0 48.2 -7.5 63.9 -13.5 38.1 -14.5 58.1 -33.2 78.8 -73.4 8 -15.5 10.5 -24.3 11.1 -38.3 0.7 -18.9 -2.5 -35.9 -9.8 -51.6 -15.4 -32.7 -46.3 -51.3 -97.5 -58.4 -11.8 -1.6 -53.9 -1.7 -62.5 -0.1 -4.8 0.9 -9.5 1 -18 0.2 -6.3 -0.5 -30 -1.2 -52.6 -1.6 -41 -0.6 -41.1 -0.6 -43.3 1.6 -1.5 1.5 -2.1 3.3 -2.1 6.2 0 3.8 0.5 4.6 5.7 9.3 17.5 15.6 27.6 26.5 31.9 34.6 1.8 3.3 1.9 8.1 2.6 101.5 0.4 53.9 0.7 100.3 0.8 103 0 2.8 -0.3 21.9 -0.6 42.7 l -0.5 37.6 -11.5 10.7 -11.4 10.7 -8.3 -7.1 c -16 -13.5 -31.5 -31.2 -43.5 -49.4 -5.4 -8.2 -6.7 -11.2 -8.2 -18 -3 -13.5 -10.9 -31.6 -24.8 -57 -4.5 -8.2 -8.2 -15 -8.2 -15.3 0 -0.2 0.9 -0.4 2 -0.4 3.4 0 13.7 -4.6 20.8 -9.4 9.5 -6.3 22 -19.7 33.5 -35.8 18.1 -25.4 23.7 -39.1 23.7 -58.2 0 -32.4 -11.9 -60.1 -33.4 -77.9 -16.8 -13.8 -40.3 -22.9 -70.3 -27.4 -14.6 -2.1 -56.2 -2.5 -66.3 -0.6 -4.9 1 -9.1 1 -17 0.2 -5.8 -0.5 -29.5 -1.3 -52.6 -1.6 -42.1 -0.6 -42.1 -0.6 -44.3 1.6 -1.5 1.5 -2.1 3.3 -2.1 6.2 0 3.8 0.5 4.6 5.3 8.7 11.4 10 28.3 27.9 31.2 33.2 l 3 5.5 0.7 45 c 0.4 24.8 0.8 47.3 0.7 50 0 2.8 -0.2 45.5 -0.5 95 l -0.5 90 -19.9 20.1 c -19.3 19.3 -20 20.1 -20 24 0 5.2 1.4 7 7.5 9.4 5.8 2.2 12.6 2.4 30 1 z  m 685.7 -2.4 l 5.8 -2.4 6.1 2.5 c 5.9 2.4 6.9 2.5 23.8 2.1 19.7 -0.5 26 -1.9 36.9 -8.6 5.5 -3.2 5.8 -3.3 8.2 -1.7 1.4 0.9 6.5 3.6 11.4 6.1 7.8 3.8 9.8 4.4 15.3 4.4 11.4 0 10.3 9.7 10.3 -92.4 l 0 -88.4 10.5 -6.2 c 5.8 -3.4 11.2 -7.2 12 -8.3 3.7 -5.2 0.1 -17.1 -6.4 -21.4 l -3.4 -2.3 -63.3 0 c -62.1 0 -63.4 0 -65.4 2 -1.5 1.5 -2 3.3 -2 7.4 0 6.6 0.9 7.7 11.3 14 8.6 5.3 16.5 12.5 19.3 17.7 1.8 3.1 1.9 6.6 2.2 46.4 0.3 46.3 -0.2 53.6 -4.4 62.2 -3 6.2 -6.4 8.9 -13.3 10.5 -9.7 2.2 -20.9 -2.7 -30.7 -13.5 -10.2 -11.2 -20.1 -31.8 -27.9 -57.8 l -3.8 -12.4 0.6 -28 c 1.8 -83.8 14.5 -137.4 36.5 -154.2 12 -9.1 26.7 -7.5 45.6 5 17.1 11.3 39.7 36 61.1 66.7 4.8 6.9 9.6 13.3 10.7 14.3 2.7 2.3 6.3 2.2 8.8 -0.3 2 -2 2 -3.3 2 -71.5 0 -68.2 0 -69.5 -2 -71.5 -4.2 -4.2 -17.5 -1.5 -31.3 6.4 l -7.7 4.4 -7.8 -3 c -13.7 -5.3 -36.5 -12.9 -44.7 -14.9 -10.8 -2.6 -14.6 -2.4 -28.8 1.2 -6.7 1.7 -16.4 3.5 -21.6 4 -23.8 2.3 -42.2 10.9 -59 27.8 -27 27.3 -46.7 75.8 -57.5 141.9 -2.1 12.6 -2.3 16 -1.5 23.7 10.7 104.7 40.3 165.3 90.1 184.5 10.6 4.1 21 5.8 35.8 5.9 10.9 0 13.2 -0.2 18.2 -2.3 z  m 14.8 -70.4 c 4.5 -3.6 5.2 -10 5.7 -48.9 0.3 -20 0.2 -39.3 -0.2 -43 -0.7 -6.3 -1 -6.9 -5.8 -11.8 -2.9 -2.8 -9 -7.4 -13.7 -10.1 -11.5 -6.8 -13 -9.4 -13 -22.9 0 -11.8 2 -16.5 8.5 -20.2 4 -2.3 4.1 -2.3 51.3 -2.3 l 47.3 0 -4.2 -6.2 c -7.2 -10.6 -20.8 -28.8 -28.8 -38.3 -22.3 -26.6 -45.8 -43.2 -57.9 -41 -4.1 0.8 -10.9 6.9 -15.2 13.5 -8.7 13.6 -16.7 46.7 -20.4 84.5 -2 20.1 -4 61.4 -3.3 69.5 0.5 7.2 7.7 30.4 13.6 44.1 6.7 15.6 17.3 29.3 25.6 33 5.1 2.3 7.7 2.4 10.5 0.1 z "/>
  <path d="M 1418.8 674.6 l 0.2 -55.6 8.3 0 c 30.7 0.1 48.8 10 55.6 30.6 7.2 21.7 3.9 47.4 -7.8 61.5 -8.5 10.2 -25.5 16.8 -47.7 18.5 l -8.9 0.6 0.3 -55.6 z  m 28.3 38.4 c 18.9 -5.6 28.1 -20.4 26.6 -42.9 -1.7 -24.4 -12.3 -35.6 -36.2 -37.8 l -6.5 -0.6 0 42.3 0 42.3 4.3 -0.5 c 2.3 -0.3 7.7 -1.5 11.8 -2.8 z "/>
  <path d="M 1137 664.6 l 0 -49.6 3.3 0 c 6.7 0 21.5 2.1 28.7 4.1 15.1 4.1 25.9 12.2 31.1 23.4 5.3 11.4 6.1 27.3 1.9 40.6 -6.4 20.6 -21 29.2 -51.7 30.6 l -13.3 0.6 0 -49.7 z  m 27.4 34.9 c 17.6 -3.7 25.8 -13 27.3 -30.7 1.9 -22.6 -10.3 -35.6 -36.9 -39.6 l -5.8 -0.9 0 36.4 0 36.3 4.3 0 c 2.3 0 7.3 -0.7 11.1 -1.5 z "/>
  <path d="M 1556 490.1 c -1.9 -1.1 -4.2 -2.7 -5.1 -3.7 -0.9 -1.1 -10.4 -16.3 -21 -33.9 -21.9 -36.4 -49.4 -80.5 -74.9 -120.2 l -17.5 -27.2 -0.3 52.7 c -0.2 45.7 0 52.8 1.3 53.7 0.8 0.6 4.3 2.6 7.7 4.5 8.8 5 18.4 14.2 21.9 21.2 2.5 4.9 2.9 6.9 2.9 13.5 0 9.5 -2.5 14.6 -8.5 18 l -4 2.3 -75.5 0 -75.5 0 -4 -2.3 c -6 -3.4 -8.5 -8.5 -8.5 -18 0 -6.6 0.4 -8.6 2.9 -13.5 4.4 -8.5 15 -18.1 26.9 -24.1 l 4.2 -2.1 -0.2 -144.2 -0.3 -144.1 -17 -9.6 c -21.7 -12.3 -21.5 -12 -21.5 -31.1 0 -12.2 0.3 -13.9 2.3 -17.5 1.2 -2.2 4 -5 6.2 -6.2 l 4 -2.3 43.1 0.2 43.1 0.3 10.9 5.4 c 9.5 4.7 12.1 6.5 20 14.5 5 5 11.6 12.9 14.7 17.6 5.5 8.6 16.2 29.1 19.7 38 1.4 3.6 25.2 41.6 27.6 43.9 0.2 0.2 0.4 -11.5 0.4 -26 l 0 -26.4 -4.8 -3 c -2.6 -1.6 -9.1 -6.2 -14.4 -10.2 -13.1 -9.8 -13.8 -11.2 -13.8 -28.5 0 -11.9 0.3 -13.7 2.3 -17.3 1.3 -2.2 4 -4.9 6.2 -6.2 l 4 -2.3 76.5 0 76.5 0 4 2.3 c 2.2 1.3 4.9 4 6.2 6.2 2 3.6 2.3 5.4 2.3 16.8 0 10.6 -0.3 13.4 -1.9 16.5 -3.1 6.1 -9.3 10.2 -15.3 10.2 -9.2 0 -15.3 4.7 -18.5 14.2 -1.5 4.6 -1.7 10.5 -2.1 44.5 -0.3 37.9 -0.3 39.3 1.7 43.2 2.7 5.3 2.8 15.9 0.1 34.6 -1.8 13 -2 19.6 -2 92 0 76 0.1 78.6 2.5 102.5 3 29.5 3 31 0.5 35.9 -2.3 4.7 -9.8 11.5 -16.2 14.7 -5.9 3 -14.6 3.2 -19.8 0.5 z  m 18.3 -15.2 c 3.6 -2.5 5.9 -5 6.4 -6.7 0.3 -1.5 -0.6 -15.3 -2.1 -30.7 -2.6 -27.6 -2.7 -29.1 -2.6 -102.5 l 0 -74.5 2.7 -20.2 2.7 -20.2 -2.5 -4.8 c -2.4 -4.8 -2.4 -4.9 -2.7 -40.3 -0.2 -21 0.1 -39.2 0.7 -44.5 2.7 -22.7 11 -32.9 28.5 -35 8.7 -1.1 9.6 -2.4 9.6 -14 0 -15.1 8.9 -13.5 -77 -13.5 -85.8 0 -77 -1.5 -77 13.3 0 6.7 0.4 9.9 1.5 11.5 1.9 2.7 21.2 16.7 27.8 20.2 l 4.7 2.5 0 52.4 c 0 29 -0.4 52.1 -0.9 51.5 -3.7 -4.1 -49.8 -76.9 -51.8 -81.6 -1.3 -3.4 -4.9 -11.1 -8 -17.2 -13.2 -26.6 -27.5 -42.2 -45.5 -49.8 -5.1 -2.2 -6.4 -2.3 -44 -2.6 -46.4 -0.4 -42.8 -1.5 -42.8 13.1 0 6 0.5 9.9 1.3 11.1 0.7 1 9.4 6.3 19.2 11.9 l 18 10.2 0.2 152.5 0.3 152.5 -8.4 4.4 c -4.6 2.4 -10.9 6.3 -14 8.7 -9.9 7.8 -14.5 19.5 -9.6 24.4 2 2 3.3 2 74 2 70.7 0 72 0 74 -2 4.9 -4.9 0.3 -16.6 -9.6 -24.4 -3.1 -2.4 -9.4 -6.3 -14 -8.7 l -8.4 -4.4 0.1 -81 c 0 -46.2 0.4 -80.1 0.9 -79 0.5 1.1 1.1 3.2 1.4 4.6 0.3 1.4 6.6 11.7 13.9 23 38.6 59.1 98.2 154.4 114.6 183.1 5.7 10.1 9.6 11.1 18.4 4.7 z "/>
  <path d="M 90.5 473 c -2.2 -0.5 -13.8 -1.3 -25.7 -1.6 -19.5 -0.6 -22.1 -0.9 -25.5 -2.8 -6.1 -3.4 -8.3 -8.5 -8.3 -18.9 0 -11.2 1.7 -14.7 10.6 -21.7 3.7 -2.9 8.9 -7.6 11.6 -10.4 6.8 -7 16.9 -22.6 20.7 -31.8 1.7 -4.2 10.9 -38.7 20.6 -77 9.6 -38.1 24.2 -95.8 32.4 -128.2 l 14.9 -59 -7.9 -8.4 c -10.3 -10.9 -13.9 -17.8 -13.9 -26.7 0 -6.9 2 -12.4 5.6 -15.6 2.9 -2.5 10.9 -6.3 20.7 -9.8 l 8.9 -3.1 44.1 0 c 44.1 0 44.2 0 48.2 2.3 2.3 1.3 4.9 4 6.2 6.3 1.4 2.5 5.8 19.7 11.8 45.9 10.4 45.5 22.3 95.2 28.4 119 l 3.9 15 0.1 -7.2 c 0.1 -10.7 2.7 -28.6 6 -41.6 11.6 -45.8 42.9 -89.2 83.9 -116.6 4 -2.6 6.1 -4.9 8.2 -9 7.6 -15 17.8 -18.1 59.2 -18.1 30.9 0 46.6 2.9 66.5 12.1 l 8.5 3.8 5.1 -2.6 c 9.6 -4.8 15.5 -6.3 24.9 -6.3 6.2 0 9.8 0.5 12 1.6 2.8 1.5 3.1 1.4 4.5 -0.5 0.8 -1.2 3.3 -3.1 5.6 -4.2 3.9 -2 5 -2.1 21.6 -1.4 21.8 0.9 23.7 0.9 137.1 0 92.2 -0.8 92.6 -0.8 96.6 1.3 2.2 1.1 5.7 3.9 7.7 6.1 4.4 4.9 6.6 5.1 8.9 1.2 0.9 -1.7 3.5 -3.9 5.7 -5 4 -2.1 5.1 -2.1 87.3 -2.1 l 83.3 0 4 2.3 c 7.9 4.5 11.1 16.8 6.6 25.5 -1.1 2 -10.1 11.8 -20 21.7 l -18.1 18 0.1 30 0 30 3 -7.5 c 14.8 -38 37.5 -66.9 73.5 -93.6 7.8 -5.8 11.5 -9.3 12.5 -11.6 2 -4.8 8.6 -11.6 14.1 -14.4 l 4.7 -2.4 39.3 0 c 43.4 0 51.2 0.7 67 6 31 10.4 56.4 31.8 73.3 61.9 14.2 25.2 24 55 29.5 89.5 2.1 12.9 2.2 16.1 1.7 52.4 -0.5 41.5 -1.3 50.1 -6.4 69.7 -4.7 18 -12.7 35.4 -22.4 48.6 -5.4 7.3 -16.6 18.4 -22.9 22.5 -2.2 1.5 -4 3.2 -4 3.9 0 0.7 -1.8 4.9 -4.1 9.4 -4.6 9.3 -13.6 19 -22.9 24.6 -15.3 9.3 -34.3 16.9 -56.7 22.5 -10.5 2.7 -13.4 3 -26.8 3 -8.4 0 -19 -0.7 -24 -1.5 -42.9 -6.9 -78.6 -32.6 -100.9 -72.4 -10.5 -18.7 -19.7 -41.9 -25.1 -63.1 l -2.1 -8.4 -1.3 13.9 c -1 10.8 -1 18 -0.2 31.9 0.6 9.8 1.1 21.8 1.1 26.6 l 0 8.8 4.8 3.5 c 8.1 6 15 14.2 19 22.4 3.2 6.8 3.7 8.9 4 16.4 0.5 12.6 -2 17 -12.5 22.3 l -5.2 2.6 -74.8 0 -74.8 0 -4 -2.3 c -5.9 -3.4 -8.5 -8.6 -8.5 -17.5 0 -5.3 0.5 -8.3 1.9 -11 1.1 -2 10.3 -12 20.5 -22.2 l 18.6 -18.5 0 -44 c -0.1 -36.3 -0.3 -44.4 -1.5 -46.5 -1.9 -3.3 -1.9 -15.7 0 -19 1.2 -2.1 1.4 -14.2 1.5 -76 0 -46.2 -0.4 -75.9 -1.1 -80 -0.6 -4 -2.2 -8.4 -4.1 -11.6 -3.4 -5.7 -12.5 -16.4 -13.9 -16.4 -0.5 0 -0.9 25 -0.9 61.8 l 0 61.7 -2.3 4 c -3.5 6.3 -8.5 8.5 -19 8.5 -9.7 0 -14.8 -1.8 -18.5 -6.5 -5.7 -7.2 -18.2 -41.4 -19 -51.8 l -0.5 -6.7 -8.2 -8.3 c -7 -7 -9 -9.9 -14.1 -19.9 -5.4 -10.8 -6.1 -11.8 -8.6 -11.8 l -2.8 0 -0.2 83.8 c -0.1 46 -0.2 95.2 -0.2 109.2 -0.1 14 -0.5 33.7 -1 43.7 l -0.9 18.2 2.7 5.4 c 4.2 8.6 19.5 21.5 36.4 30.9 5.1 2.7 7.2 8.3 7.2 18.5 0 10.5 -2.2 15.5 -8.5 19 l -4 2.3 -89 0 -89 0 -4 -2.3 c -5.9 -3.4 -8.5 -8.6 -8.5 -17.5 0 -10.6 1.9 -13.6 13.8 -22.4 5.3 -3.9 13.1 -10.6 17.4 -14.8 7.4 -7.5 7.6 -7.9 8.3 -13.6 0.3 -3.3 1 -6.9 1.6 -8.2 0.6 -1.5 0.5 -7.6 -0.2 -16.8 -0.7 -9.1 -0.9 -29.6 -0.6 -54.7 0.5 -40.8 1.8 -60 6.5 -97.4 l 1.8 -14.3 -2.2 -13.7 c -1.3 -7.6 -3.3 -23.1 -4.6 -34.5 -2.2 -20.2 -2.3 -20.8 -4.5 -20.8 -1.7 0 -3.2 1.7 -6.4 7.3 -5.4 9.1 -20.9 41.2 -32.5 67.1 -4.9 11 -9.8 21.4 -10.9 23 -3.5 5.2 -8.9 7.6 -17.5 7.6 -8.9 0 -14.3 -2.5 -17.5 -8 -2 -3.5 -2 -3.5 -8.5 -3.2 -9.9 0.3 -12.4 -1.5 -24.2 -18.3 -26.8 -38.2 -50.9 -63 -69.7 -71.8 l -6.4 -3 -4.5 2.4 c -11 5.8 -21.2 16.1 -25.2 25.5 -1 2.2 -2.6 7.6 -3.6 12 -1.8 7.3 -1.9 13.1 -1.9 74.4 0 68.1 0.2 73.1 4.1 89 5 20.4 16.2 31.9 33.6 34.5 4.2 0.6 5.1 0.4 9.5 -2.6 19.1 -12.9 43.7 -40.3 64.9 -72.2 4.7 -7.2 6.7 -9.3 10.6 -11.3 9.9 -5 21.8 -2.3 26.5 6.1 l 2.3 4 0 73.5 0 73.5 -2.3 4 c -1.2 2.2 -4 5 -6.2 6.3 -3.6 2.1 -5 2.3 -15 2 -10.9 -0.3 -11.1 -0.4 -21.2 -5.2 l -10.3 -4.9 -23.7 9.4 -23.8 9.4 -20 0 c -15.6 0 -21.8 -0.4 -28.5 -1.9 -15.6 -3.4 -33.4 -10.7 -46.8 -19.2 -2.9 -1.9 -5.5 -3.4 -5.7 -3.4 -0.3 0 -0.5 3.2 -0.5 7 0 10.1 -3.4 16.1 -11.5 20.2 -3.6 1.9 -5.2 2 -18.5 1.5 -8.2 -0.3 -17.5 -1.3 -21.5 -2.3 -3.8 -0.9 -7.9 -1.6 -9 -1.5 -1.1 0.1 -16.4 0.5 -34 0.9 -22.1 0.5 -32.7 1.1 -34.2 2 -2.7 1.5 -16.7 1.6 -19.5 0.1 -1.2 -0.6 -7.9 -1.4 -14.9 -1.7 -14.8 -0.6 -18.9 -2.1 -22.6 -8.7 -1.8 -3.3 -2.3 -5.6 -2.3 -12.3 0 -9.4 2 -14.8 6.7 -17.9 1.6 -1 6.5 -5.6 11.1 -10.2 9.3 -9.5 9.4 -10 6.2 -20.3 -1.1 -3.4 -2 -8.9 -2 -12.1 0 -3.2 -0.7 -7.4 -1.6 -9.5 -0.8 -2 -2.6 -8 -3.8 -13.2 l -2.3 -9.5 -16.6 -0.3 -16.5 -0.2 -4.2 17.2 c -2.3 9.5 -5.2 22.2 -6.6 28.1 l -2.4 10.8 8.7 9.5 c 11.9 12.8 13.2 15.5 13.2 26.9 0.1 10.8 -2.1 15.6 -8.4 19.2 -3.6 2.1 -5.4 2.3 -18.5 2.4 -8 0 -18.5 0.5 -23.5 1 -13.6 1.5 -32.5 1.9 -37 0.9 z  m 27.5 -12.9 c 3.6 -0.6 14.9 -1.1 25.3 -1.1 22.2 0 22.7 -0.2 22.7 -9.5 0 -5.2 -0.2 -5.7 -6.2 -12.7 -3.5 -4 -8.9 -9.9 -12.1 -13.1 l -5.8 -5.8 1.6 -8.2 c 1.5 -7.3 12 -51.4 14.6 -60.9 l 1 -3.8 27.4 0 27.5 0 0 2.8 c 0 4.7 4.7 23.4 7.3 29.4 2.1 4.8 2.4 6.2 1.5 8.6 -0.9 2.3 -0.6 4.6 1.5 12.3 1.4 5.2 2.9 11.4 3.2 13.9 0.6 4.5 0.6 4.6 -7.6 14.4 -4.5 5.4 -10.1 11.1 -12.3 12.6 -7.2 5 -7.6 5.6 -7.6 11 0 8.1 1.5 9 15.8 9 7.6 0.1 13.1 0.6 15.7 1.5 2.2 0.8 4.9 1.5 6 1.5 1.1 0 3.8 -0.7 6 -1.5 3.1 -1.1 10.3 -1.4 31.5 -1.5 23 -0.1 28.6 -0.4 34.4 -1.9 6.6 -1.7 7.1 -1.7 11.6 0 5.3 2 23.3 4.9 30.4 4.9 2.6 0 5.9 -0.6 7.5 -1.4 5.1 -2.7 6.7 -10.3 3.2 -16 -1.8 -2.8 -22.4 -21.4 -32.7 -29.5 -3.2 -2.4 -4.9 -4.8 -6.5 -9 -3.3 -8.7 -9.6 -34.6 -13.8 -56.6 l -3.7 -20 -5.5 -7.5 c -15 -20.4 -18.3 -30.1 -14.7 -43.5 1 -3.6 0.9 -5.2 -0.1 -8.1 -1.1 -3.1 -1.1 -4.1 0.5 -7.6 l 1.7 -3.9 -8.1 -32.7 c -9.6 -38.2 -14 -57 -26.7 -112.7 -6.9 -30.4 -9.8 -41.3 -11.1 -42.2 -1.4 -1 -10.6 -1.3 -41.2 -1.3 l -39.4 0 -8.9 3 c -12.8 4.3 -18.7 7.5 -19.5 10.6 -1.3 5.3 2.3 11.3 13.5 22.4 5.8 5.8 10.5 10.7 10.4 11 -0.1 0.3 -14.1 56.1 -31.2 124 -17.1 67.9 -32.5 128.5 -34.1 134.5 -6.2 22.2 -18.3 42.5 -33.5 56 -15.2 13.5 -14.5 12.7 -14.5 18.4 0 8.8 -0.1 8.8 27.1 9.4 12.9 0.3 25 1 26.9 1.6 3.7 1.1 10.4 0.8 21 -0.8 z  m 895.7 -1.6 c 2.5 -1.5 4.5 -3.6 4.9 -5 0.8 -3.2 -1.1 -11.5 -3.7 -16.7 -2.7 -5.4 -11.6 -14.7 -18.5 -19.4 l -5.4 -3.7 0 -8.1 c 0 -4.5 -0.7 -18.9 -1.5 -32.1 -1.3 -21.3 -1.2 -25.6 0.1 -38 1.8 -16.1 1.5 -21.7 -1.6 -30 -1.6 -4.2 -2.4 -9 -2.8 -16.1 -0.4 -9 -0.1 -11.4 2.7 -22.2 l 3.1 -12.1 0 -67.8 0 -67.7 19.5 -19.6 c 17.2 -17.3 19.5 -20 19.5 -22.8 0 -1.9 -0.8 -4 -2 -5.2 -2 -2 -3.3 -2 -81 -2 -77.7 0 -79 0 -81 2 -4.4 4.4 -1.1 12.3 8.4 19.9 10.8 8.6 21.1 20.4 25.3 28.8 l 3.8 7.7 0.3 82.8 c 0.2 72.7 0.1 83.2 -1.3 85.7 -1.9 3.8 -1.9 7.2 0 9.7 1.2 1.6 1.4 9.5 1.5 51.9 l 0 49.9 -20 20.1 c -19.6 19.7 -20 20.2 -20 24.3 0 2.9 0.6 4.8 2 6.2 2 2 3.3 2 72.7 2 l 70.6 0 4.4 -2.5 z  m -540.2 -1.9 c 2.8 -0.8 15.9 -5.8 29.3 -11.1 l 24.3 -9.6 2.7 1.9 c 12.9 9.1 31.5 13.9 36.2 9.2 2 -2 2 -3.3 2 -71.5 0 -68.2 0 -69.5 -2 -71.5 -2.5 -2.5 -7.4 -2.6 -9.7 -0.2 -1 1 -5.7 7.5 -10.5 14.4 -21.4 30.5 -44.4 55.3 -62.1 66.9 l -9.2 6.1 -6.8 -0.7 c -30.8 -3 -46.5 -22.7 -50.7 -63.5 -0.8 -8 -1 -32.3 -0.8 -79.5 0.5 -75.4 0.3 -73.6 7.3 -88 7.6 -15.8 27 -31.2 39.8 -31.6 20 -0.7 54.3 30.9 89.7 82.4 2.9 4.3 6.1 8.2 7.1 8.8 2.8 1.5 5.7 1.1 7.9 -1.1 2 -2 2 -3.3 2 -71.5 l 0 -69.5 -2.1 -2.1 c -4.1 -4.1 -18.6 -1.1 -31.4 6.6 l -5.9 3.6 -11 -5.5 c -18.8 -9.2 -32.5 -12.4 -57.1 -13.3 -18.2 -0.7 -41.3 1.1 -46 3.4 -1.6 0.9 -4.1 2.5 -5.3 3.7 -2.5 2.2 -6.2 8.6 -6.2 10.8 -0.1 0.7 -3.5 3.6 -7.8 6.5 -19.2 12.9 -40.9 33.8 -53.4 51.4 -8.6 11.9 -19.8 34.2 -24.3 48.2 -8.2 25.4 -11.1 55.1 -8.1 81.7 11.5 98.8 47.5 159.3 106.4 179 18.6 6.2 44.4 8.8 55.7 5.6 z  m 335.5 -0.6 c 1.5 -1.5 2 -3.3 2 -7 0 -6.1 -0.4 -6.5 -15 -16 -18.4 -12 -27 -21.4 -30.5 -33.5 -1.6 -5.4 -1.7 -7.8 -0.6 -27.5 2.4 -42.2 2.4 -43.3 1 -47.5 -1 -2.9 -1.2 -5.7 -0.6 -10 0.5 -3.3 1.1 -47.1 1.3 -97.3 l 0.5 -91.3 13 0.3 13 0.3 3.6 8 c 7.9 17.3 16 28.4 23.6 32.5 l 4.4 2.4 0.6 9 c 0.3 6.9 1.4 11.8 4.1 19.9 5.1 15.1 12.5 31.6 14.7 32.7 3.3 1.8 11.7 1.2 13.9 -1 2 -2 2 -3.3 2 -71 0 -67.1 -0.1 -69.2 -2 -73 -1.1 -2.2 -2.9 -4.4 -3.9 -5 -2.4 -1.2 -7.1 -1.3 -8.9 -0.1 -1 0.6 -3.4 -1.3 -8.2 -6.2 l -6.8 -7 -79.9 0.6 c -43.9 0.3 -90.5 1.1 -103.7 1.6 -15.8 0.7 -25.2 0.7 -28 0.1 -2.2 -0.6 -9.5 -1.3 -16.1 -1.6 -16.1 -0.9 -16.1 -0.8 -18.6 14.7 -1.7 10.2 -1.9 18.2 -1.9 78.2 0 65.4 0 66.7 2 68.7 2.9 2.9 9.4 2.7 12.5 -0.5 1.4 -1.3 2.5 -2.9 2.5 -3.4 0 -1.9 24.8 -55.9 33.1 -72.1 4.3 -8.5 9.7 -18.3 11.9 -21.7 l 3.9 -6.3 11.9 0 11.9 0 0.7 10.8 c 0.8 12.9 3.9 38.8 6.9 57.2 l 2.2 13.5 -2.1 17 c -2.8 21.7 -5.1 46.9 -6.5 71 -1.3 20.6 -0.7 67.8 1.1 85.6 0.8 8.9 0.7 11.3 -0.5 14.3 -0.8 1.9 -1.5 5.2 -1.5 7.3 0 8.6 -9.5 20.1 -28.3 34.1 -5.3 4.1 -10.2 8.2 -10.7 9.2 -1.6 3.1 -1.2 7.8 1 10 2 2 3.3 2 87.5 2 84.2 0 85.5 0 87.5 -2 z  m 371.3 -1.9 c 30.1 -7.7 52.9 -18.8 64.1 -31.1 4.4 -4.9 9.6 -15.3 9.6 -19.2 0 -2.1 1 -3.2 4.7 -5.3 11.1 -6.6 27.1 -25 34.6 -40.1 6.3 -12.6 12 -33.6 14.7 -53.9 0.6 -4.4 1.3 -22.4 1.6 -40 0.6 -31.6 0.6 -32.2 -2.1 -48 -8.8 -52.4 -24.7 -88.6 -50 -114.1 -14.9 -15.1 -31.3 -24.8 -50.6 -29.9 -14.5 -3.8 -23.8 -4.5 -58.2 -4.5 -39.2 0 -40 0.2 -45.7 12.3 -2.4 4.9 -3.9 6.6 -10.2 10.9 -47.7 32.8 -75.1 74.8 -84.5 129.3 -2.6 15.2 -2.3 44.8 0.6 63.5 10 65 27.7 107.6 56.6 136.6 24.2 24.2 54.5 36.8 90.2 37.3 7.7 0.1 11.7 -0.5 24.6 -3.8 z "/>
  <path d="M 184.2 289 c -0.7 -1.1 -2.8 -2.8 -4.8 -3.7 -3.4 -1.6 -3.5 -1.9 -2.9 -5.8 1.5 -9.3 12.1 -55.3 12.4 -53.4 0.1 0.3 2.4 12.6 5.1 27.3 2.8 14.7 5 27.4 5 28.2 0 1.1 -9 7.7 -12.4 9 -0.6 0.2 -1.7 -0.5 -2.4 -1.6 z "/>
  <path d="M 1158.8 390 c -17.8 -3 -30.2 -12.7 -37.8 -29.3 -6.9 -15.2 -9.3 -34.6 -8.8 -71 l 0.3 -23.8 5.5 9.3 c 8.1 13.7 20.2 31.5 25.6 37.7 2.7 3 6.9 6.7 9.3 8.3 3.9 2.4 5.5 2.8 11.8 2.8 8.1 0 11.3 -1.8 11.3 -6.5 0 -6.9 8.1 -21.5 22.8 -40.9 l 8.2 -10.9 0 -6.2 c 0 -7.1 -0.7 -8.4 -12.5 -23 -9.2 -11.4 -19.8 -21.6 -25.2 -24.4 -3.2 -1.6 -6 -2.1 -11.5 -2.1 l -7.2 0 -19.4 19.2 -19.4 19.3 0.5 -35 c 0.4 -32.3 0.6 -35.6 2.6 -42.3 5 -16.9 13.5 -28.1 28.4 -37.7 10 -6.3 11.7 -6.7 19.6 -5.1 18.1 3.8 30.1 15.9 37.7 38.4 4 11.7 6.9 25.9 8.3 40.6 1.7 16.9 1.4 74.9 -0.4 92.2 -5.7 54 -17.6 85.2 -34.4 90.3 -4.3 1.2 -8.3 1.3 -15.3 0.1 z  m 15.7 -16.3 c 4.6 -4.9 7.2 -9.8 10.9 -21.3 2.6 -7.8 7.8 -32.1 9 -41.9 l 0.6 -5 -2.5 4 c -1.3 2.2 -3 6.3 -3.6 9.2 -1.7 7.4 -4.8 12.4 -9.4 15 -3.5 2 -5.4 2.3 -15.3 2.3 -10 0 -11.8 -0.3 -16.1 -2.5 -5.4 -2.7 -12.5 -9.2 -18.9 -17.3 l -4.2 -5.4 0 5.9 c 0 3.2 0.5 9 1 12.8 4.1 28 13.4 42.2 31 46.9 9.9 2.6 12.8 2.2 17.5 -2.7 z  m 21.5 -167.5 c -4.7 -38.2 -15.6 -59.4 -33.3 -64.7 l -5 -1.5 -6 3.7 c -8.5 5.2 -16.9 13.9 -20.6 21.4 -4.3 8.9 -6 17.8 -6.7 36.4 l -0.6 16 8.3 -8.1 c 11.3 -11 12.2 -11.4 26.4 -11.4 10.9 0 11.9 0.2 17.6 3 3.3 1.7 9.2 6.2 13.2 10 4 3.7 7.4 6.4 7.6 5.8 0.2 -0.5 -0.2 -5.3 -0.9 -10.6 z "/>
 </g>
</svg>