<?xml version="1.0" encoding="UTF-8" standalone="no"?>
<svg
   version="1.0"
   width="1920px"
   height="495px"
   viewBox="0 0 1920 495"
   preserveAspectRatio="xMidYMid meet"
   id="svg22"
   sodipodi:docname="Logo-Activision.svg"
   inkscape:version="1.2 (dc2aedaf03, 2022-05-15)"
   xmlns:inkscape="http://www.inkscape.org/namespaces/inkscape"
   xmlns:sodipodi="http://sodipodi.sourceforge.net/DTD/sodipodi-0.dtd"
   xmlns="http://www.w3.org/2000/svg"
   xmlns:svg="http://www.w3.org/2000/svg">
  <defs
     id="defs26" />
  <sodipodi:namedview
     id="namedview24"
     pagecolor="#ffffff"
     bordercolor="#000000"
     borderopacity="0.25"
     inkscape:showpageshadow="2"
     inkscape:pageopacity="0.0"
     inkscape:pagecheckerboard="0"
     inkscape:deskcolor="#d1d1d1"
     showgrid="false"
     inkscape:zoom="0.66614583"
     inkscape:cx="959.24941"
     inkscape:cy="247.69351"
     inkscape:window-width="1920"
     inkscape:window-height="1017"
     inkscape:window-x="-8"
     inkscape:window-y="-8"
     inkscape:window-maximized="1"
     inkscape:current-layer="svg22" />
  <g
     fill="#000000"
     id="g20"
     style="fill:#ffffff">
    <path
       d="M811.5 302.3 c-39.5 -105 -72 -191.4 -72.3 -192 -0.3 -1 -13.5 -1.3 -61.3 -1.3 l-60.9 0 0 159.5 0 159.5 -39.5 0 -39.5 0 0 -159.5 0 -159.5 -87 0 c-47.8 0 -87 -0.2 -87 -0.5 0 -0.3 8.8 -17.2 19.6 -37.5 l19.7 -37 195.7 0 c185.5 0 195.8 0.1 196.5 1.8 0.4 0.9 19.8 51.6 43.2 112.7 23.4 61.1 42.9 112.1 43.4 113.4 0.5 1.3 1.2 2.1 1.5 1.8 0.3 -0.3 20.3 -52 44.4 -114.9 l43.8 -114.3 189.8 0 189.9 0 20.1 37 20.2 37 -181.8 0.3 c-172 0.2 -181.8 0.3 -182.5 2 -0.3 0.9 -32 84.7 -70.2 186.2 -38.3 101.5 -70.5 187.1 -71.7 190.3 l-2.2 5.7 -71.9 -190.7z"
       id="path2"
       style="fill:#ffffff" />
    <path
       d="M1851.1 370.3 c-37.5 -36.8 -68.7 -66.9 -69.2 -67.1 -0.5 -0.2 -0.9 23.7 -0.9 61.2 l0 61.6 -38 0 -38 0 0 -149.1 0 -149.1 4.8 4 c2.6 2.2 33.5 28.8 68.7 59.1 35.2 30.3 64.3 55.1 64.8 55.1 0.4 0 0.7 -24.7 0.7 -55 l0 -55 38 0 38 0 0 150.5 c0 82.8 -0.2 150.5 -0.4 150.5 -0.2 0 -31 -30 -68.5 -66.7z"
       id="path4"
       style="fill:#ffffff" />
    <path
       d="M414.3 429.9 c-67.3 -5 -123.5 -55.9 -136 -123.2 -2.6 -13.8 -2.3 -40.9 0.5 -54.3 6.1 -28.6 18.7 -53 37.9 -73.3 40 -42.6 99.8 -58.2 155 -40.5 11.7 3.7 32.7 14.5 42.7 22 l8.8 6.6 -2.9 3.1 c-1.7 1.8 -11.7 13.1 -22.3 25.2 -10.6 12.1 -20.3 23.1 -21.6 24.4 l-2.3 2.5 -5.3 -3.6 c-8.1 -5.3 -12.8 -7.5 -22.5 -10.4 -11.5 -3.4 -27.8 -3.7 -39.4 -0.6 -29.9 8 -51.7 32.7 -55.9 63.3 -4.4 32 13.2 64.3 42.5 78 10.6 4.9 20.1 6.9 32.8 6.9 16 0 28.6 -3.8 41.8 -12.6 l6.8 -4.5 3.4 3.8 c15.1 16.8 44.7 50.9 44.7 51.5 0 0.5 -3.9 3.7 -8.7 7.3 -21 15.5 -49.9 26.4 -74.1 28 -4.2 0.3 -9.5 0.7 -11.7 0.9 -2.2 0.1 -8.6 -0.1 -14.2 -0.5z"
       id="path6"
       style="fill:#ffffff" />
    <path
       d="M1525.7 429.9 c-18.4 -2.1 -32.9 -6.4 -50.2 -14.8 -44.7 -21.9 -75.4 -64.3 -82.6 -113.9 -1.5 -11 -0.6 -40.1 1.6 -50.2 11.7 -53 49.1 -95.2 99.6 -112.1 70.5 -23.6 147.9 8.4 181.4 75.1 12 23.9 17.2 50 15.4 77.5 -1.8 27.2 -11.6 54.3 -27.6 76.7 -7.7 10.9 -23.8 26.9 -34.6 34.5 -30.4 21.4 -68 31.3 -103 27.2z m30.8 -75.4 c15.4 -3.3 26.8 -9.6 38.5 -21.4 7.1 -7.1 9.4 -10.3 13.3 -18.1 6.1 -12.4 8 -20.7 8 -34.5 0.1 -8.4 -0.5 -12.9 -2.2 -18.9 -7.1 -25.3 -25.1 -44.1 -50.1 -52.3 -7.7 -2.6 -9.8 -2.8 -23 -2.8 -13.6 0 -15 0.2 -23.3 3.2 -12.5 4.4 -19 8.6 -29.2 18.8 -15.1 15 -21.7 30.8 -21.7 52 -0.1 12.5 1.6 21.1 6.2 31.1 10.1 22.3 32 39.4 55.8 43.4 7.7 1.3 20.2 1.1 27.7 -0.5z"
       id="path8"
       style="fill:#ffffff" />
    <path
       d="M1.2 425.8 c0.3 -0.7 33.7 -96.2 74.3 -212.3 40.5 -116 73.8 -211.1 73.9 -211.2 0.2 -0.2 33.5 94.8 74.1 211 40.6 116.1 74 211.8 74.3 212.5 0.3 0.9 -8.1 1.2 -39.9 1.2 l-40.4 0 -10 -27 -10 -27 -48 0 -48 0 -10 26.8 -10.1 26.7 -40.3 0.3 c-32.1 0.2 -40.2 0 -39.9 -1z m169.6 -131 c-0.3 -0.7 -5.3 -17.5 -11.3 -37.3 -6 -19.8 -11.1 -36.3 -11.5 -36.8 -0.5 -0.6 -23.1 72.4 -23 74.6 0 0.4 10.4 0.7 23.1 0.7 18.1 0 23 -0.3 22.7 -1.2z"
       id="path10"
       style="fill:#ffffff" />
    <path
       d="M661 281.5 l0 -145.5 38 0 38 0 0 145.5 0 145.5 -38 0 -38 0 0 -145.5z"
       id="path12"
       style="fill:#ffffff" />
    <path
       d="M1030 280.5 l0 -145.5 38 0 38 0 0 145.5 0 145.5 -38 0 -38 0 0 -145.5z"
       id="path14"
       style="fill:#ffffff" />
    <path
       d="M1129 394.6 l0 -31.4 31.8 -0.5 c20 -0.2 33 -0.8 35.3 -1.6 5.9 -1.8 10.3 -5.3 12.7 -10.1 5.5 -11 1.3 -19.1 -28 -52.6 -29.3 -33.5 -39.7 -50.3 -46.1 -73.9 -3.1 -11.5 -3 -31.8 0.1 -42.8 5.4 -18.9 15.4 -31.5 31.7 -39.5 12.9 -6.4 13.6 -6.5 63.8 -6.9 l45.7 -0.4 0 31.5 0 31.5 -30.2 0.3 c-34.9 0.3 -35.4 0.5 -39 8.5 -2.5 5.6 -1.9 10.1 2.2 18.2 3.5 7 8.2 13 26.2 33.3 17.4 19.6 21.3 24.5 29.3 36.2 15.6 23 22.5 43.4 22.5 66 0 5.5 -0.7 13 -1.5 16.5 -4.6 19.5 -21.2 36.8 -42.1 44.2 -13.1 4.5 -17.9 4.9 -67.5 4.9 l-46.9 0 0 -31.4z"
       id="path16"
       style="fill:#ffffff" />
    <path
       d="M1301 280.5 l0 -145.5 38 0 38 0 0 145.5 0 145.5 -38 0 -38 0 0 -145.5z"
       id="path18"
       style="fill:#ffffff" />
  </g>
</svg>
