<svg id="Layer_1" data-name="Layer 1" xmlns="http://www.w3.org/2000/svg" viewBox="0 0 3839.00024 844.10004"><polygon points="2181 773 2207.1 773 2207.2 773 2207.2 842.4 2235.9 842.4 2235.9 773 2262 773 2262 749.1 2181 749.1 2181 773" style="fill:#fff"/><path d="M2319.6001,772.9c-11,0-16.80005,3.8-21.2,9h-.3V749.1h-25.8999v93.4h25.8999v-35.8c0-10.9,5.8999-13.1,10.3-13.1,7.60009,0,8.5,5.5,8.5,13.3v35.5h25.8999v-46.5C2342.80005,780.3,2331.7,772.9,2319.6001,772.9Z" transform="translate(0 0)" style="fill:#fff"/><path d="M2389.7,772.9c-21.3999,0-35.80005,16.1-35.80005,35.8,0,22.6,16.30005,35.4,38,35.4,15.3999,0,29.7-6.8,34.8999-21.4h-24.19995c-2.10009,3.2-6.60009,4.8-10.80005,4.8-8.10009,0-12.5-5.5-13.19995-13.2H2428.2C2428.2,787.9,2416.6001,772.9,2389.7,772.9Zm-10.8999,27.9c1.2-7.4,5.6001-11.4,13.30005-11.4A11.14758,11.14758,0,0,1,2403.5,800.8Z" transform="translate(0 0)" style="fill:#fff"/><path d="M2531.2,749.1h-48.1001v93.3h28.69995v-28.2h17c21.39991,0,36.6001-10.6,36.6001-33.2C2565.3999,767.6,2556.5,749.1,2531.2,749.1Zm-8.2,42.8h-11.1001V773H2524.7c7.1001,0,13.6001.5,13.6001,9C2538.30005,791.4,2530.3999,791.9,2523,791.9Z" transform="translate(0 0)" style="fill:#fff"/><path d="M2599.80005,785.4h-.3V774.6h-24.8v67.8h25.8999V815.6c0-14.5,5.5-20.5,15.69995-20.5a26.52946,26.52946,0,0,1,10.2,1.7V773.9a32.33482,32.33482,0,0,0-7.6001-1C2609.5,772.9,2604,777.3,2599.80005,785.4Z" transform="translate(0 0)" style="fill:#fff"/><path d="M2664.3999,772.9c-25.5,0-37,16.7-37,35.5,0,18.9,11.5,35.7,37,35.7s37-16.9,37-35.7S2689.80005,772.9,2664.3999,772.9Zm0,52.3c-9.8,0-11.1001-9.6-11.1001-16.8s1.30005-16.7,11.1001-16.7,11.1001,9.5,11.1001,16.7C2675.5,815.5,2674.2,825.2,2664.3999,825.2Z" transform="translate(0 0)" style="fill:#fff"/><path d="M2722.2,755.5c-5,5-5.7,12.4-5.3999,19.1H2706.2v15.9h10.5v51.9h25.8999V790.5H2755.7V774.6h-13.6001c-.3999-6.3,1.69995-8.1,8-8.1a45.50612,45.50612,0,0,1,6.3.9V749.6c-3.8999-.1-7.69995-.5-11.6001-.5C2734.30005,749.1,2727.80005,749.9,2722.2,755.5Z" transform="translate(0 0)" style="fill:#fff"/><path d="M2796.30005,772.9c-21.3999,0-35.8,16.1-35.8,35.8,0,22.6,16.3,35.4,38,35.4,15.3999,0,29.7-6.8,34.8999-21.4H2809.2c-2.1001,3.2-6.6001,4.8-10.80005,4.8-8.1001,0-12.5-5.5-13.19995-13.2h49.6001C2834.80005,787.9,2823.2,772.9,2796.30005,772.9Zm-11,27.9c1.2-7.4,5.6001-11.4,13.30005-11.4A11.14758,11.14758,0,0,1,2810,800.8Z" transform="translate(0 0)" style="fill:#fff"/><path d="M2894,801.1c-8.6001-2.8-18.3999-3.4-22.7-5.2-1.3999-.6-3-1.5-3-3.5,0-4.4,4.1001-5.2,7.80005-5.2a9.20352,9.20352,0,0,1,5.69995,2,6.5412,6.5412,0,0,1,3,5.1v-.2h23.6001c-.6001-17.4-18.3-21.4-32.89991-21.4-13.60009,0-32,4.5-32,21.6,0,11.6,8,17.9,27.7,21.3,12,2.1,14.19995,3.3,14.19995,7.2s-5.39991,5.2-8.8,5.2c-3.1001,0-5.6001-.8-6.8999-2a8.27356,8.27356,0,0,1-3.1001-6h-24.7c.3999,17.5,17.8999,23.9,33.80005,23.9,16.5,0,34.5-5.1,34.5-23.9C2910.2,808.9,2902.6001,803.8,2894,801.1Z" transform="translate(0 0)" style="fill:#fff"/><path d="M2969,801.1c-8.6001-2.8-18.3999-3.4-22.7-5.2-1.3999-.6-3-1.5-3-3.5,0-4.4,4.1001-5.2,7.80005-5.2a9.20352,9.20352,0,0,1,5.69995,2,6.5412,6.5412,0,0,1,3,5.1v-.2h23.6001c-.6001-17.4-18.3-21.4-32.89991-21.4-13.60009,0-32,4.5-32,21.6,0,11.6,8,17.9,27.7,21.3,12,2.1,14.19995,3.3,14.19995,7.2s-5.39991,5.2-8.8,5.2c-3.1001,0-5.6001-.8-6.8999-2a8.27356,8.27356,0,0,1-3.1001-6h-24.7c.3999,17.5,17.8999,23.9,33.80005,23.9,16.5,0,34.5-5.1,34.5-23.9C2985.2,808.9,2977.6001,803.8,2969,801.1Z" transform="translate(0 0)" style="fill:#fff"/><rect x="2996.1001" y="774.59998" width="25.8999" height="67.79999" style="fill:#fff"/><rect x="2996.1001" y="749.09998" width="25.8999" height="18.20001" style="fill:#fff"/><path d="M3070.80005,772.9c-25.5,0-37,16.7-37,35.5,0,18.9,11.5,35.7,37,35.7s37-16.9,37-35.7S3096.30005,772.9,3070.80005,772.9Zm0,52.3c-9.8,0-11.1001-9.6-11.1001-16.8s1.3-16.7,11.1001-16.7,11.1001,9.5,11.1001,16.7C3081.8999,815.5,3080.6001,825.2,3070.80005,825.2Z" transform="translate(0 0)" style="fill:#fff"/><path d="M3166.30005,772.9c-10.3,0-17.3,3.5-22.1001,10.3h-.30005v-8.6h-25v67.9h25.8999v-35.8c0-10.9,5.89991-13.1,10.30005-13.1,7.6001,0,8.5,5.5,8.5,13.3v35.5h25.89991v-46.5C3189.5,780.3,3178.3999,772.9,3166.30005,772.9Z" transform="translate(0 0)" style="fill:#fff"/><path d="M3269.7,827.2V799.4c0-13,.3-26.5-32.1001-26.5-7.8999,0-16.60009.8-23.10009,3.9-6.7,3.1-11.39991,8.8-11.80005,18.3h24c.2-2.9,1.7-6.9,9.7-6.9,4.2,0,8.5,1.7,8.5,6.3,0,4.3-3.6001,5.3-7.1001,6-13.19995,2.5-38.3,1.7-38.3,23.1,0,14.2,10.8,20.5,23.8999,20.5,8.3,0,16.3-1.8,21.8-8.1h.30005a17.72012,17.72012,0,0,0,.8999,6.4h26.39991C3270,838,3269.7,832.3,3269.7,827.2Zm-24.8999-9c-.3999,7.1-4.8999,10.6-10.8,10.6-4.7,0-8.1001-3.2-8.1001-6.3,0-4.6,3.1001-6,8.80005-7.3a42.70438,42.70438,0,0,0,10.1001-3.3Z" transform="translate(0 0)" style="fill:#fff"/><rect x="3284" y="749.09998" width="25.8999" height="93.29999" style="fill:#fff"/><path d="M3399.7,749.1l-34.30005,93.3h28.8999l4.2-13.3h29.60009l3.89991,13.3h29.8l-34-93.3Zm4.90015,60,9-28.7h.3l8.3999,28.7Z" transform="translate(0 0)" style="fill:#fff"/><path d="M3492.80005,785.4h-.3V774.6h-24.8v67.8h25.8999V815.6c0-14.5,5.5-20.5,15.69995-20.5a26.52946,26.52946,0,0,1,10.2,1.7V773.9a32.33482,32.33482,0,0,0-7.6001-1C3502.5,772.9,3497,777.3,3492.80005,785.4Z" transform="translate(0 0)" style="fill:#fff"/><path d="M3557.7,825.2c-10,0-11.3999-8.5-11.3999-16.7s1.5-16.8,11.3999-16.8a9.62839,9.62839,0,0,1,6.5,2.2c1.69995,1.4,2.6001,3.7,2.8999,6.4v-.1H3591.7c-1.6001-18.6-16.7-27.4-34.5-27.4-20.3999,0-36.7,14.3-36.7,35.7s16.3,35.5,36.7,35.5c9.1001,0,17.3999-2.6,23.5-7.4a31.82714,31.82714,0,0,0,11.8-21.3h-24.7C3567.2,820.6,3563.30005,825.2,3557.7,825.2Z" transform="translate(0 0)" style="fill:#fff"/><path d="M3669.2,827.2V799.4c0-13,.3-26.5-32.1001-26.5-7.8999,0-16.60009.8-23.10009,3.9-6.7,3.1-11.39991,8.8-11.80005,18.3h24c.2-2.9,1.7-6.9,9.7-6.9,4.2,0,8.5,1.7,8.5,6.3,0,4.3-3.6001,5.3-7.1001,6-13.19995,2.5-38.3,1.7-38.3,23.1,0,14.2,10.8,20.5,23.8999,20.5,8.3,0,16.3-1.8,21.8-8.1h.30005a17.72012,17.72012,0,0,0,.8999,6.4h26.39991C3669.5,838,3669.2,832.3,3669.2,827.2Zm-24.8999-9c-.3999,7.1-4.8999,10.6-10.8,10.6-4.7,0-8.1001-3.2-8.1001-6.3,0-4.6,3.1001-6,8.80005-7.3a42.70438,42.70438,0,0,0,10.1001-3.3Z" transform="translate(0 0)" style="fill:#fff"/><path d="M3727.5,781.9h-.3c-3.8999-5.7-10.80005-9.1-18.5-9.1-22.80005,0-28.8999,19.4-28.8999,35.3,0,17,9.30005,35.9,28.5,35.9,12.7,0,16.6001-4.8,19.8999-9.1h.3v7.5h24.8999V749H3727.5Zm-10.3999,43.3c-9.30005,0-11.3999-8.7-11.3999-16.8,0-7.9,2.10009-16.7,11.3999-16.7,9.3,0,11.3999,8.7,11.3999,16.7S3726.3999,825.2,3717.1001,825.2Z" transform="translate(0 0)" style="fill:#fff"/><path d="M3802.6001,827.5c-8.1001,0-12.5-5.5-13.2-13.2h49.60009c0-26.4-11.60009-41.4-38.5-41.4-21.3999,0-35.8,16.1-35.8,35.8,0,22.6,16.3,35.4,38,35.4,15.3999,0,29.69995-6.8,34.8999-21.4h-24.2C3811.30005,825.9,3806.80005,827.5,3802.6001,827.5Zm.19995-38.1a11.14758,11.14758,0,0,1,11.3999,11.4h-24.7C3790.7,793.4,3795.1001,789.4,3802.80005,789.4Z" transform="translate(0 0)" style="fill:#fff"/><path d="M3720.8999,118v15h-29.5v19.9h-29.5v24.9h-29.6001v29.7h-29.5v34.6h-29.5v39.6h-29.5V538.9h29.5v39.6h29.5V613l29.5.1v29.7h29.6001v24.8h29.5v19.9h29.5v15H3839V538.8h-88.6001V519h-29.5V499.2h-29.5V479.5H3839V341.1H3691.3999V321.3h29.5V301.5h29.5V281.7H3839V118Z" transform="translate(0 0)" style="fill:#fff"/><polygon points="3374.2 0 3374.2 499.2 3374.2 519 3344.7 519 3344.7 538.8 3270.9 538.8 3270.9 519 3241.4 519 3241.4 479.4 3211.9 479.4 3211.9 341.1 3241.4 341.1 3241.4 301.5 3270.9 301.5 3270.9 281.7 3344.7 281.7 3344.7 118 3241.4 118 3241.4 133 3211.9 133 3211.9 152.9 3182.3 152.9 3182.3 177.7 3152.8 177.8 3152.8 207.5 3123.3 207.5 3123.3 242.1 3093.8 242.1 3093.8 281.7 3064.2 281.7 3064.2 538.8 3093.8 538.8 3093.8 578.4 3123.3 578.4 3123.3 612.9 3152.8 613 3152.8 642.7 3182.3 642.7 3182.3 667.5 3211.9 667.5 3211.9 687.4 3241.4 687.4 3241.4 702.4 3374.2 702.4 3374.2 687.4 3403.7 687.4 3403.8 667.5 3433.3 667.5 3433.3 642.7 3462.7 642.7 3462.7 613 3492.2 612.9 3492.2 578.4 3521.7 578.4 3521.7 0 3374.2 0" style="fill:#fff"/><path d="M3012.6001,242.1l-.1001-34.6H2983V177.8l-29.5-.1V152.9H2924V133h-29.5V118H2761.6001v15h-29.5v19.9h-29.5v24.9h-29.5v29.7H2643.5v34.6H2614v39.6h-29.5V538.9H2614v39.6h29.5V613l29.6001.1v29.7h29.5v24.8h29.5v19.9h29.5v15H2865V538.8h-73.8999V519h-29.5V479.4h-29.5V341.1h29.5V301.5h29.5V281.7H2865v19.8h29.5v401h147.6001V242.1Z" transform="translate(0 0)" style="fill:#fff"/><polygon points="2444.3 118 2444.3 133 2414.8 133 2414.8 152.9 2385.3 152.9 2385.3 177.8 2355.8 177.8 2355.8 207.5 2326.3 207.5 2326.3 242.1 2296.7 242.1 2296.7 281.7 2267.2 281.7 2267.2 538.8 2296.7 538.8 2296.7 578.4 2326.3 578.3 2326.3 578.4 2326.3 612.9 2355.8 613 2355.8 642.7 2385.3 642.7 2385.3 667.5 2414.8 667.5 2414.8 687.4 2444.3 687.4 2444.3 702.4 2562.4 702.4 2562.4 538.8 2473.8 538.8 2473.8 538.8 2473.8 519 2444.3 519 2444.3 479.4 2414.8 479.4 2414.8 341.1 2444.3 341.1 2444.3 301.5 2473.8 301.5 2473.8 281.7 2562.4 281.7 2562.4 118 2444.3 118" style="fill:#fff"/><path d="M1802.30005,207.5v34.6l-29.5.1v39.5h-29.5V538.9h29.5v39.6h29.5V613h29.6v29.8h29.5v24.8h29.5v19.9h29.5v15H2068v-15h29.5l.1001-19.9h29.5V642.8h29.5V613l29.5-.1V578.4h29.5v-39.6h29.5V281.7h-29.5V242.2l-29.5-.1V207.5h-29.5V177.8H2127V153h-29.5l-.1001-20h-29.5V118h-147.6v15h-29.5v19.9l-29.5.1v24.8h-29.5v29.7m265.6,271.9h-29.5V519h-29.5v19.8h-88.6V519h-29.5V479.4h-29.5V341.1h29.5V301.5h29.5V281.8h88.6v19.7h29.5v39.6h29.5Z" transform="translate(0 0)" style="fill:#eec21a"/><polygon points="1637.1 444.6 1676.8 444.6 1676.8 413.9 1676.9 413.9 1706.4 413.9 1706.4 375.4 1721.2 375.4 1721.2 242.2 1706.4 242.1 1706.4 207.5 1676.8 207.5 1676.8 177.8 1647.3 177.8 1647.3 153 1617.8 152.9 1617.8 133 1588.3 133 1588.3 118 1485 118 1484.9 133 1455.4 133 1455.4 152.9 1425.9 153 1425.9 177.8 1396.4 177.8 1396.4 207.5 1366.9 207.5 1366.9 242.1 1337.4 242.2 1337.4 702.4 1484.9 702.4 1484.9 281.7 1573.5 281.8 1573.5 360.8 1544 360.8 1544 380.6 1514.5 380.6 1514.5 502.1 1601.6 702.4 1749.2 702.4 1637.1 444.6" style="fill:#eec21a"/><polygon points="1241.4 538.8 1241.4 519 1211.9 519 1211.9 479.4 1182.4 479.4 1182.3 261.9 1269.2 261.9 1269.2 207.5 1239.7 207.4 1239.7 177.7 1210.2 177.7 1210.2 152.9 1180.7 152.9 1180.7 63.7 1033.2 63.7 1033.2 152.9 1003.7 152.9 1003.6 177.8 974.1 177.8 974.1 207.5 944.6 207.5 944.6 261.9 1034.9 261.9 1034.9 538.8 1064.4 538.8 1064.4 578.4 1093.9 578.4 1093.9 612.9 1123.4 613 1123.4 642.7 1152.8 642.7 1152.8 667.5 1182.3 667.5 1182.4 687.4 1211.9 687.4 1211.9 702.4 1315.3 702.4 1315.3 538.8 1241.4 538.8" style="fill:#eec21a"/><polygon points="892.9 242.1 892.9 207.5 863.4 207.5 863.4 177.8 833.9 177.7 833.9 152.9 804.4 152.9 804.4 133 774.9 133 774.8 118 745.3 118 627.2 118 627.2 133 597.7 133 597.7 152.9 568.2 153 568.2 177.8 538.7 177.8 538.7 207.5 509.2 207.5 509.2 242.1 479.6 242.2 479.6 380.7 509.1 380.7 509.2 380.6 509.2 420.1 538.7 420.1 538.7 459.7 745.3 459.7 745.3 479.4 774.8 479.4 774.9 519 745.3 519 745.3 538.7 656.8 538.7 656.7 519 627.2 519 627.2 499.2 479.6 499.2 479.6 578.4 509.1 578.4 509.2 612.9 538.7 613 538.7 642.7 568.2 642.7 568.2 667.5 597.7 667.5 597.7 687.4 627.2 687.4 627.2 702.4 774.8 702.4 774.9 687.4 804.4 687.4 804.4 667.5 833.9 667.5 833.9 642.7 863.4 642.7 863.4 612.9 892.9 612.9 893 578.3 922.5 578.3 922.5 439.8 893 439.8 892.9 400.3 863.4 400.3 863.4 360.8 656.8 360.8 656.7 341.1 627.2 341.1 627.2 301.5 656.7 301.5 656.8 281.8 745.3 281.7 745.3 301.5 774.8 301.5 774.9 321.3 922.5 321.3 922.5 242.1 892.9 242.1" style="fill:#eec21a"/><polygon points="428 242.1 428 207.5 398.5 207.5 398.4 177.8 369 177.8 369 152.9 339.5 152.9 339.5 133 310 133 310 118 177.1 118 177.1 133 147.6 133 147.6 152.9 118.1 153 118.1 177.8 88.6 177.8 88.6 207.5 59 207.5 59 242.1 29.5 242.2 29.5 281.7 0 281.7 0 538.8 29.5 538.8 29.5 538.8 29.5 578.4 59 578.4 59 612.9 88.6 612.9 88.6 613 88.6 642.7 118.1 642.7 118.1 667.5 147.6 667.5 147.6 687.4 177.1 687.4 177.1 702.4 280.5 702.4 280.5 538.8 206.6 538.8 206.6 538.8 206.6 519 177.1 519 177.1 479.4 147.6 479.4 147.6 341.1 177.1 341.1 177.1 301.5 206.6 301.5 206.7 281.8 280.5 281.7 280.5 301.5 310 301.5 310 702.5 457.5 702.5 457.5 242.1 428 242.1" style="fill:#eec21a"/></svg>