<?xml version="1.0" encoding="UTF-8" standalone="no"?>
<svg
   version="1.0"
   width="512px"
   height="215px"
   viewBox="0 0 512 215"
   preserveAspectRatio="xMidYMid meet"
   id="svg30"
   sodipodi:docname="atari8bit.svg"
   inkscape:version="1.1.2 (0a00cf5339, 2022-02-04, custom)"
   xmlns:inkscape="http://www.inkscape.org/namespaces/inkscape"
   xmlns:sodipodi="http://sodipodi.sourceforge.net/DTD/sodipodi-0.dtd"
   xmlns="http://www.w3.org/2000/svg"
   xmlns:svg="http://www.w3.org/2000/svg">
  <defs
     id="defs34" />
  <sodipodi:namedview
     id="namedview32"
     pagecolor="#ffffff"
     bordercolor="#666666"
     borderopacity="1.0"
     inkscape:pageshadow="2"
     inkscape:pageopacity="0.0"
     inkscape:pagecheckerboard="0"
     showgrid="false"
     inkscape:zoom="2.0878906"
     inkscape:cx="256"
     inkscape:cy="107.28531"
     inkscape:window-width="1920"
     inkscape:window-height="1017"
     inkscape:window-x="-8"
     inkscape:window-y="-8"
     inkscape:window-maximized="1"
     inkscape:current-layer="svg30" />
  <g
     fill="#000000"
     id="g28"
     style="fill:#f2f2f2">
    <path
       d="M176.4 212.4 c-8.3 -2.9 -13.4 -10.6 -13.5 -20 -0.1 -7.6 1.6 -11.8 6.7 -16.3 l4.5 -3.9 -2.9 -2.1 c-9.8 -6.9 -7.4 -24.4 4 -30 8.4 -4 20.9 -2.1 26.5 4 6.5 7.1 5.9 20.1 -1.2 25.7 -3.1 2.5 -3.2 3.6 0 5 1.3 0.6 3.7 3 5.2 5.3 2.4 3.7 2.8 5.3 2.8 11.4 0 6.2 -0.4 7.8 -3 12 -5.7 9.2 -17.8 12.9 -29.1 8.9z m15.8 -9.4 c3.7 -2.8 5.1 -7.2 4.6 -13.6 -0.5 -6.2 -3.2 -9.8 -8.4 -11.3 -3.9 -1.1 -9.2 0.7 -11.6 3.9 -2.7 3.7 -3.4 11.9 -1.4 16.1 3.1 6.5 11.6 9 16.8 4.9z m0 -37.5 c4.4 -4.4 4.5 -11.4 0.2 -16 -1.8 -1.9 -3.3 -2.5 -6.6 -2.5 -6.8 0.1 -9.8 3.6 -9.8 11.3 0 3.5 0.6 5 2.6 7.1 3.7 3.6 10.1 3.7 13.6 0.1z"
       id="path2"
       style="fill:#f2f2f2" />
    <path
       d="M245 212.1 c-0.6 -1.3 -1 -14.8 -1 -37 0 -30.4 0.2 -35.2 1.6 -36.5 2.1 -2.1 4.7 -2 6.7 0.2 1.4 1.5 1.7 4.1 1.7 14.5 0 7 0.4 12.7 0.8 12.7 0.5 0 1.7 -0.9 2.8 -2.1 10.1 -11.2 28.3 -5.2 32.3 10.8 3.8 14.8 -1.3 32.4 -10.9 37.3 -7.2 3.7 -17.6 1.5 -21.6 -4.5 -2.2 -3.3 -3.4 -3.2 -3.4 0.4 0 1.6 -0.7 3.7 -1.6 4.5 -2.1 2.2 -6.1 2 -7.4 -0.3z m27.3 -9.2 c1.4 -0.6 3.5 -3 4.8 -5.3 1.9 -3.3 2.3 -5.5 2.3 -11.6 -0.1 -12.2 -4 -18.2 -12 -18.2 -7.2 0 -12.2 7.3 -12.3 17.7 -0.2 13.9 7.6 21.8 17.2 17.4z"
       id="path4"
       style="fill:#f2f2f2" />
    <path
       d="M303.4 210.5 c-1.7 -4.3 -2 -43.4 -0.3 -48.3 1.8 -5.1 7.5 -5.5 9.7 -0.6 1.6 3.3 1.6 44.1 0.1 48.1 -1.2 3.3 -2.6 4.3 -5.7 4.3 -1.7 0 -2.7 -0.9 -3.8 -3.5z"
       id="path6"
       style="fill:#f2f2f2" />
    <path
       d="M336.3 213 c-1.3 -0.5 -3.2 -2.4 -4.3 -4.2 -1.8 -3 -2 -5.1 -2 -22 l0 -18.8 -2.3 0 c-2.9 0 -4.7 -1.8 -4.7 -4.5 0 -2.7 1.8 -4.5 4.7 -4.5 2.2 0 2.3 -0.3 2.3 -8.3 0 -9 1.3 -11.7 5.8 -11.7 3.6 0 5.2 3.7 5.2 12.2 l0 7.8 3.1 0 c4.2 0 6.9 1.7 6.9 4.3 0 3.3 -1.9 4.7 -6.2 4.7 l-3.8 0 0 15.4 c0 8.5 0.4 16.6 1 18.1 0.9 2.4 1.4 2.6 5.8 2.4 2.7 -0.1 5.4 0.1 6 0.5 1.9 1.1 1.4 5.1 -0.9 7.2 -2.3 2.1 -12.9 3 -16.6 1.4z"
       id="path8"
       style="fill:#f2f2f2" />
    <path
       d="M304.3 148.8 c-3.9 -4.8 -1.5 -11.1 4 -10.6 4.4 0.4 6.6 4.2 4.6 8.4 -1 2.1 -2.2 3 -4.5 3.2 -1.7 0.2 -3.5 -0.3 -4.1 -1z"
       id="path10"
       style="fill:#f2f2f2" />
    <path
       d="M0 112.4 c0 -8.4 0.3 -10.4 1.5 -10.4 0.8 0 5.9 -2.3 11.4 -5.1 20 -10.2 31.8 -27 35.1 -49.9 0.5 -3.6 1 -15.4 1 -26.2 l0 -19.8 6.1 0 6.1 0 -0.4 31.8 c-0.4 29.2 -0.6 32.3 -2.7 39.2 -6.7 22.5 -21.8 39.4 -41.4 46.6 -3.5 1.2 -8.7 2.7 -11.5 3.2 l-5.2 0.9 0 -10.3z"
       id="path12"
       style="fill:#f2f2f2" />
    <path
       d="M65 62 l0 -61 9 0 9 0 0 61 0 61 -9 0 -9 0 0 -61z"
       id="path14"
       style="fill:#f2f2f2" />
    <path
       d="M172 122.1 c0 -1.2 26.6 -95.4 29.1 -102.7 3.1 -9.6 10.1 -15.4 18.4 -15.4 7.5 0 14.9 5.6 17.8 13.3 1.4 3.5 27.2 94.5 29.2 103 l0.7 2.7 -13.8 0 -13.9 0 -2.9 -11 -2.8 -11 -14.3 0 -14.3 0 -2.8 11 -2.9 11 -13.7 0 c-7.6 0 -13.8 -0.4 -13.8 -0.9z m54.3 -46.9 c0.6 -0.8 -5.6 -24.9 -6.6 -25.8 -0.3 -0.3 -1.3 1.8 -2.1 4.7 -4.6 16.8 -5.5 20.3 -5 21.1 0.6 1 13.1 1.1 13.7 0z"
       id="path16"
       style="fill:#f2f2f2" />
    <path
       d="M273 77 l0 -46 -11 0 -11 0 0 -13 0 -13 34.5 0 34.5 0 0 13 0 13 -10.5 0 -10.5 0 0 46 0 46 -13 0 -13 0 0 -46z"
       id="path18"
       style="fill:#f2f2f2" />
    <path
       d="M305.5 118.3 c0.8 -2.7 7.3 -25.9 14.6 -51.8 7.2 -25.9 14.1 -48.9 15.1 -51.3 4.5 -9.6 14.9 -13.6 24.4 -9.3 4.4 2 7.8 5.7 10.1 11.1 0.8 1.9 7.7 25.8 15.4 52.9 7.6 27.2 14.1 50.3 14.5 51.3 0.5 1.7 -0.4 1.8 -13.4 1.8 l-14 0 -2.1 -8.2 c-1.2 -4.6 -2.6 -9.4 -3 -10.8 l-0.8 -2.5 -14.3 0 -14.3 0 -1.8 6.5 c-0.9 3.6 -2.2 8.4 -2.8 10.8 l-1.2 4.2 -13.9 0 -13.9 0 1.4 -4.7z m53.5 -43.8 c0 -2.4 -6.3 -25.5 -6.9 -25.5 -1 0 -7.3 24.9 -6.6 26 0.3 0.6 3.5 1 7.1 1 5 0 6.4 -0.3 6.4 -1.5z"
       id="path20"
       style="fill:#f2f2f2" />
    <path
       d="M402.2 71.3 l0.3 -51.8 2.5 -4.5 c1.7 -2.9 4.1 -5.3 7 -7 4.3 -2.4 5.2 -2.5 21 -2.5 19.3 0 23.5 1.1 31.1 8.2 7.1 6.6 10.2 14.5 10.3 25.8 0 7.3 -0.4 9.9 -2.2 14 -2.7 5.9 -8.2 11.9 -13.4 14.6 -2.1 1.1 -3.8 2.3 -3.8 2.8 0 0.4 6.3 12.2 14 26.1 7.7 13.9 14 25.5 14 25.7 0 0.1 -6.3 0.3 -14 0.3 l-13.9 0 -12.1 -21.3 c-6.6 -11.8 -12.7 -22.2 -13.5 -23.3 -1.3 -1.7 -1.4 0.8 -1.5 21.4 l0 23.2 -13 0 -13.1 0 0.3 -51.7z m39.7 -16.7 c4.6 -2.4 6.5 -6 6.5 -12.3 0.1 -4.9 -0.2 -5.7 -3.2 -8.4 -2.9 -2.6 -3.9 -2.9 -10.2 -2.9 l-7 0 0 13.1 0 13.2 5.4 -0.6 c3 -0.3 6.8 -1.3 8.5 -2.1z"
       id="path22"
       style="fill:#f2f2f2" />
    <path
       d="M485 64 l0 -59 13.5 0 13.5 0 0 59 0 59 -13.5 0 -13.5 0 0 -59z"
       id="path24"
       style="fill:#f2f2f2" />
    <path
       d="M137 120.4 c-20.9 -5.6 -36.7 -20.1 -44.6 -41 -4.6 -12.2 -5.4 -19.1 -6.1 -49.7 l-0.6 -28.7 6.6 0 6.5 0 0.4 24.8 c0.4 23.4 0.6 25.1 3.1 32.7 6.6 19.9 21 35 40 42 l4.7 1.8 0 9.8 c0 11.4 0.3 11.1 -10 8.3z"
       id="path26"
       style="fill:#f2f2f2" />
  </g>
</svg>
