<?xml version="1.0" encoding="utf-8"?>
<!DOCTYPE svg PUBLIC "-//W3C//DTD SVG 20010904//EN" "http://www.w3.org/TR/2001/REC-SVG-20010904/DTD/svg10.dtd">
<svg version="1.0" xmlns="http://www.w3.org/2000/svg" width="4822px" height="720px" viewBox="0 0 4822 720" preserveAspectRatio="xMidYMid meet">
 <g fill="#ffffff">
  <path d="M807.3 703.8 c0.2 -0.7 7.7 -26.5 16.7 -57.3 31.7 -109.5 92.6 -319.6 123.7 -426.5 17.3 -59.7 33.8 -116.4 36.5 -126 3.2 -11.5 6.6 -21.1 10 -28 4.5 -9.3 6.1 -11.5 14.7 -20 10.9 -10.9 19.8 -16.2 34.3 -20.4 21.4 -6.2 45.3 -3.4 63.3 7.5 13.6 8.1 26.9 24 33.4 39.9 1.7 4.1 26.7 88.7 55.5 188 49.3 169.8 87.5 301 116.2 399.1 6.8 23.5 12.4 43.2 12.4 43.8 0 0.8 -14.7 1.1 -52.5 1.1 l-52.4 0 -1.9 -6.2 c-1.1 -3.5 -10.2 -34.6 -20.2 -69.3 -10 -34.6 -20.3 -70.4 -23 -79.5 l-4.8 -16.5 -103.5 -0.3 c-98 -0.2 -103.6 -0.1 -104.1 1.5 -3.1 10.5 -24.5 84 -35.5 121.8 l-13.9 48 -52.7 0.3 c-42 0.2 -52.6 0 -52.2 -1z m333.7 -267.3 c0 -0.5 -69 -238.3 -72.7 -250.5 -2 -6.8 -2.7 -8.1 -3.4 -6.5 -1 2.3 -8.2 27 -46.9 160.6 -14.9 51.4 -27.3 94.2 -27.6 95.2 -0.5 1.6 3.5 1.7 75 1.7 41.6 0 75.6 -0.2 75.6 -0.5z"/>
  <path d="M1388 416 l0 -289 -71 0 -71 0 0 -52 0 -52 192.5 0 192.5 0 0 52 0 52 -71 0 -71 0 0 289 0 289 -50.5 0 -50.5 0 0 -289z"/>
  <path d="M1560.4 703.3 c0.3 -1 13.8 -47.7 30 -103.8 40.7 -141.1 70 -242.1 109.8 -379 18.7 -64.3 35.8 -123 37.9 -130.4 7.1 -24.2 12.4 -33.8 25.6 -46.1 27 -25.2 67.3 -29 97.6 -9 7.6 5 17.3 14.5 22.4 22 8.4 12.4 8.5 12.8 82.2 266.3 98.9 340 110.3 379 110.8 380.5 0.4 0.9 -10.5 1.2 -52.5 1.2 -49.7 0 -53.1 -0.1 -53.6 -1.7 -3.1 -10.3 -48 -166.4 -48.4 -168.1 l-0.4 -2.2 -103.6 0.2 -103.6 0.3 -7.7 26.5 c-4.2 14.6 -14.7 50.8 -23.4 80.5 -8.6 29.7 -16.3 56.4 -17.1 59.3 l-1.5 5.2 -52.5 0 c-49.6 0 -52.5 -0.1 -52 -1.7z m332.6 -267.4 c0 -0.7 -16 -56.6 -35.6 -124.3 -19.5 -67.7 -36.2 -125.5 -37.1 -128.4 -0.8 -3 -1.9 -5 -2.3 -4.5 -0.4 0.4 -17.3 58 -37.4 127.8 -20.2 69.9 -36.9 127.8 -37.2 128.8 -0.5 1.6 3.5 1.7 74.5 1.7 55.3 0 75.1 -0.3 75.1 -1.1z"/>
  <path d="M2133 401.3 c0 -300 0 -303.9 2 -312.1 4 -16.6 12.1 -30.3 25.3 -42.8 12.9 -12.3 29.4 -20.1 47.7 -22.3 11 -1.4 129.5 -1.4 145 -0.1 31.9 2.9 61.3 13.3 88.5 31.5 42.3 28.2 70.5 71 80.1 121.3 2.2 11.4 2.7 17.5 3.1 36.2 1.6 72.5 -14.6 122.1 -52.1 159.5 -12.9 12.8 -20.1 18.2 -45.7 33.7 -20.7 12.6 -26.3 16.8 -29.6 22.6 -2.5 4.2 -2.8 5.6 -2.8 13.7 0 7.8 0.4 9.7 2.8 14.7 2.6 5.3 74.5 113.9 136.5 206.1 l28.1 41.7 -59.8 0 -59.9 0 -15 -22.7 c-8.2 -12.6 -44 -66.8 -79.5 -120.5 -35.5 -53.7 -65.7 -99.6 -67.1 -102 -1.4 -2.4 -3.8 -8.3 -5.5 -13.3 -11.1 -33.5 -3 -66.2 21.1 -85 7.5 -5.9 16.4 -10.5 34.4 -18 36.3 -15 66.5 -39.8 82.2 -67.5 4.2 -7.5 8.8 -21.8 10.3 -31.9 2.5 -17.8 -0.8 -47.6 -7.2 -64.3 -10.1 -26.1 -34.2 -46.5 -61.8 -52.4 -8.8 -1.8 -97.2 -2 -103.3 -0.2 -4.9 1.5 -12 7.6 -14.4 12.5 -1.8 3.7 -1.9 12.3 -2.2 284.6 l-0.2 280.7 -50.5 0 -50.5 0 0 -303.7z"/>
  <path d="M2617 364 l0 -341 53.5 0 53.5 0 0 341 0 341 -53.5 0 -53.5 0 0 -341z"/>
  <path d="M59.5 702.5 c-25.3 -5.5 -47.3 -25.4 -55.1 -50 -1.4 -4.4 -3 -11.8 -3.5 -16.5 -1.3 -12.2 -1.2 -534 0.1 -545.4 2.2 -18.7 9.2 -33.1 22.7 -46.3 7 -7 10 -9.1 18.6 -13.2 18.1 -8.8 -9.1 -8.1 299.1 -8.1 297.7 0 279.4 -0.3 293.8 5.5 15.8 6.4 30.7 20.3 38.3 35.8 8.8 18 8 -13.1 8 299.2 0 312.2 0.8 281.2 -7.9 299 -9.8 19.9 -27.4 34 -49 39.5 -7.8 2 -11.1 2 -283.5 1.9 -223.1 0 -276.7 -0.3 -281.6 -1.4z m309.5 -329 l0 -219.5 -28 0 -28 0 0 219.5 0 219.5 28 0 28 0 0 -219.5z m-285 215 c25.4 -5.6 59.5 -19.2 81.5 -32.5 31.9 -19.3 67.4 -54.1 86.7 -85.2 11.4 -18.4 23.8 -48.3 28.6 -69.3 8.8 -38 13.8 -119.5 13 -211 l-0.3 -36 -13.7 -0.3 -13.8 -0.3 0 23.3 c0 67.3 -7.3 136.9 -18.7 178.8 -17.7 65.1 -55.1 117.2 -107.3 149.3 -17.7 10.9 -44.1 21.5 -63.2 25.4 l-8.8 1.8 0 29.7 0 29.8 2.3 -0.5 c1.2 -0.2 7.4 -1.6 13.7 -3z m530 -26.4 l0 -29.8 -8.7 -1.8 c-42.4 -8.3 -87.8 -36.5 -118.9 -73.6 -14.5 -17.4 -29.5 -42.6 -39.3 -66.3 -19.3 -46.5 -28.8 -111.2 -30.5 -209.1 l-0.5 -27 -13.5 -0.3 -13.6 -0.3 0 54.8 c0 106.7 5.2 171.1 16.6 206.6 16.3 50.5 39.8 84.5 83.9 121.2 30.3 25.3 74 45.4 117.2 54 3.7 0.7 6.9 1.4 7.1 1.4 0.1 0.1 0.2 -13.3 0.2 -29.8z"/>
 </g>
 <g fill="#ffc20b">
  <path d="M3710.9 718.9 c-30.8 -1.5 -62.1 -7.2 -91.4 -16.6 -80.6 -25.9 -149.6 -79.8 -195.8 -153.1 -14.6 -23.1 -29.6 -55.9 -38 -83.2 -11 -35.4 -15.7 -67.3 -15.7 -106 0 -11.3 0.5 -25.7 1 -32 6.4 -70.1 33.1 -136.4 77.6 -192.5 11.6 -14.7 44.1 -46.8 58.4 -57.9 56.7 -43.8 119.1 -68.8 189 -75.6 16.9 -1.7 53.8 -1.4 71 0.5 137 15.3 251.6 104.7 299.6 233.8 14.6 39.2 21.7 79.7 21.7 123.7 0 26.6 -1.7 44.8 -6.4 68.7 -16.4 83.7 -62 158.9 -129.1 212.4 -68.5 54.7 -153.7 82.1 -241.9 77.8z m33.2 -42.9 c86.6 -4.6 164.5 -41.8 221.7 -105.9 80.8 -90.8 102.3 -221.1 55 -333.1 -47.2 -111.6 -153.9 -186.5 -274.8 -192.9 -68.8 -3.7 -135 14.4 -192 52.4 -75.3 50.2 -123.9 126.9 -138.3 218.5 -2.9 18.6 -3.2 69 -0.4 87.5 10.8 71.6 40.6 131.4 90.2 181 21.8 21.8 45.3 39.5 72 54.3 41.3 22.9 92.3 36.9 140 38.5 4.4 0.2 8.2 0.4 8.5 0.5 0.3 0.1 8.4 -0.3 18.1 -0.8z"/>
  <path d="M3712 591.4 c-102.6 -9 -185.5 -80.3 -209 -179.9 -4 -17.1 -5.4 -30.3 -5.4 -51.5 0 -20.6 0.9 -29.5 4.5 -47 11.2 -54.5 43.2 -104.7 87.9 -138.1 15.1 -11.2 23.7 -16.4 40 -24.3 60 -28.7 129.1 -30 190.7 -3.5 32.5 13.9 63.6 37.2 86.8 65 49.2 58.8 66 140.7 43.9 213.8 -11.3 37.2 -29.1 67.4 -56.2 95.3 -36.1 37.1 -81.6 60.6 -132.7 68.3 -10.5 1.6 -41 2.7 -50.5 1.9z m36.1 -43.4 c78.6 -8 144.3 -64.3 163.9 -140.6 8.3 -32.2 7.8 -68.7 -1.5 -100.6 -19.2 -65.9 -75.5 -117.9 -142.6 -131.7 -43.5 -8.9 -86.1 -3 -125.7 17.4 -35.7 18.4 -63.4 46.5 -81.5 82.6 -27.4 54.4 -27.4 115.4 0 169.8 18.5 36.8 46.6 65 83.3 83.4 33.3 16.8 67.9 23.3 104.1 19.7z"/>
  <path d="M4451 719.3 c-150.8 -5.6 -280.7 -101.7 -329.2 -243.3 -19.5 -57.2 -24.3 -120 -13.7 -179.3 26.4 -147.4 143.1 -264.1 290.8 -290.6 39.2 -7.1 86.3 -7.1 126.1 -0.1 127.3 22.6 234.6 114.5 276.8 237 13.3 38.7 19.4 75.4 19.4 117 0 31.7 -3.5 59.6 -10.9 88.5 -32.7 127.6 -132.2 227.1 -260 259.9 -30.1 7.7 -69.4 12 -99.3 10.9z m42 -44.4 c60.2 -5.5 118.5 -29.3 168 -68.8 12.2 -9.7 37.4 -34.9 47.1 -47.1 29.2 -36.7 49.3 -76.7 60.4 -120.5 22.5 -88.3 6.3 -181.3 -44.6 -256 -62.7 -92.1 -167 -144 -278.2 -138.4 -67.2 3.4 -129 27 -182.7 69.8 -12.2 9.7 -37.4 34.9 -47.1 47.1 -37.9 47.5 -60 99.6 -68 159.8 -4.2 32 -2.4 73.2 4.6 105.8 10.4 48.3 31.6 92.6 63.4 132.4 9.7 12.2 34.9 37.4 47.1 47.1 43.2 34.5 92.3 56.7 145 65.8 27.9 4.7 54.9 5.7 85 3z"/>
  <path d="M4440.5 591 c-30.5 -3.2 -56.4 -10.9 -83.7 -24.7 -58.9 -29.8 -103.2 -85 -119.4 -148.9 -5.5 -21.8 -6.8 -33.2 -6.8 -57.4 0 -24.2 1.3 -35.6 6.8 -57.4 20.6 -81.3 85.4 -146.2 167.1 -167.1 21.4 -5.5 33.2 -6.9 57.5 -6.9 24.3 0 36.1 1.4 57.6 6.9 81.6 20.9 146.1 85.4 166.9 167 5.5 21.4 6.9 33.2 6.9 57.5 0 24.3 -1.4 36.2 -6.9 57.5 -9.9 38.4 -29.2 73.2 -56.7 102.1 -20.1 21 -40 35.5 -66.3 48.4 -22.9 11.2 -43.1 17.6 -68 21.5 -11.9 1.8 -43.7 2.7 -55 1.5z m40.6 -43 c72.6 -7.4 135.4 -56.9 159.2 -125.6 16.7 -48.1 13.5 -100.8 -8.9 -145.9 -25.7 -51.6 -72.6 -88.5 -128.5 -100.9 -84.9 -18.8 -171.6 22.7 -210.3 100.7 -42.1 84.8 -14.3 188.2 64.7 240.7 37 24.6 80 35.4 123.8 31z"/>
  <path d="M3119 624 l0 -81 -86.7 0 c-102.5 0 -106.6 -0.2 -127.9 -7.1 -47.2 -15.3 -81 -60.1 -84 -111.4 -1.6 -26.2 6.9 -55.3 22.3 -76.7 2.6 -3.8 67.8 -78.5 144.8 -166.2 l140 -159.5 80.8 0 80.7 -0.1 0 175 0 175 34.5 0 34.5 0 0 85.5 0 85.5 -34.5 0 -34.5 0 0 81 0 81 -85 0 -85 0 0 -81z m127 -43 l0 -81 34.5 0 34.5 0 0 -42.5 0 -42.5 -34.5 0 -34.5 0 0 -175 0 -175 -49.7 0.1 -49.8 0 -133 151.5 c-73.1 83.3 -135.1 154.7 -137.7 158.5 -9 13.6 -13.6 31.4 -12.5 48.2 2.3 35.2 26 64.3 60.2 73.9 l8 2.3 115.3 0.3 115.2 0.3 0 80.9 0 81 42 0 42 0 0 -81z"/>
  <path d="M2966.3 413.5 c-3 -2.1 -4.3 -6.5 -2.9 -9.7 0.6 -1.5 44.3 -51.8 97.2 -112 52.8 -60.1 97.3 -110.6 98.7 -112.3 l2.6 -3 0.1 119.3 0 119.2 -96.8 0 c-83.9 0 -97 -0.2 -98.9 -1.5z m152.7 -81.5 c0 -22 -0.4 -40 -0.9 -40 -0.8 0 -69.3 77.4 -69.9 79.1 -0.2 0.5 15 0.9 35.2 0.9 l35.6 0 0 -40z"/>
 </g>
 <g fill="#000000">
  <path d="M65 562.6 l0 -33.1 8.8 -1.8 c12.6 -2.6 31 -8.9 44.2 -15.3 61.5 -29.5 106.4 -86.1 126.3 -159.4 11.4 -41.9 18.7 -111.5 18.7 -178.8 l0 -23.2 16.8 0.2 16.7 0.3 0.3 39 c0.7 95.1 -4.1 175.5 -13 214 -4.8 21 -17.2 50.9 -28.6 69.3 -19.3 31.1 -54.8 65.9 -86.7 85.2 -26.9 16.3 -67.3 31 -97.7 35.8 l-5.8 0.9 0 -33.1z"/>
  <path d="M310 373.5 l0 -222.5 31 0 31 0 0 222.5 0 222.5 -31 0 -31 0 0 -222.5z"/>
  <path d="M607 594 c-44.8 -8.3 -89.2 -28.4 -120.5 -54.5 -37.7 -31.4 -61.4 -62.4 -76.4 -100.2 -12.1 -30.6 -16.6 -53.6 -20.6 -105.3 -2.6 -34.7 -3.5 -66.3 -3.5 -125.3 l0 -57.7 16.7 0.2 16.7 0.3 0.3 27 c1 93.3 11 162.5 30.4 209.1 9.8 23.7 24.8 48.9 39.3 66.3 31.1 37.1 76.5 65.3 118.9 73.6 l8.7 1.8 0 33.3 c0 18.4 -0.1 33.4 -0.2 33.3 -0.2 0 -4.6 -0.9 -9.8 -1.9z"/>
 </g>
</svg>