<?xml version="1.0" encoding="utf-8"?>
<!DOCTYPE svg PUBLIC "-//W3C//DTD SVG 20010904//EN" "http://www.w3.org/TR/2001/REC-SVG-20010904/DTD/svg10.dtd">
<svg version="1.0" xmlns="http://www.w3.org/2000/svg" width="1944px" height="1174px" viewBox="0 0 1944 1174" preserveAspectRatio="xMidYMid meet">
 <g fill="#820202">
  <path d="M154.5 1161 c-3.3 -1.1 -8.1 -2 -10.7 -2 -4.7 0 -6.6 -0.8 -35.3 -14.5 -3.8 -1.9 -8.8 -5.2 -11 -7.5 -2.2 -2.3 -8 -6.2 -12.9 -8.8 -9.9 -5.2 -11.6 -6.7 -50.4 -44.1 -23.3 -22.5 -24.4 -23.7 -28.5 -31.9 l-4.2 -8.5 -0.3 -150.1 c-0.2 -147 -0.2 -150.2 1.7 -156.6 1.1 -3.6 3.7 -9 5.8 -12 4.9 -6.9 67.1 -63.5 74 -67.2 11 -6 5.1 -5.8 142 -5.8 88.2 0 126.8 0.3 130.5 1.1 14 3 23.4 10.6 36.3 30 l8.8 13 6.6 -6.3 c3.6 -3.5 12 -11.6 18.6 -17.9 12.6 -12.2 18 -15.8 28.2 -18.4 8.7 -2.3 201 -2.2 209.8 0 11 2.9 14.7 5.8 45 35.2 20.5 20 29.1 27.8 29.3 26.5 2 -11.2 9.4 -23.2 18 -29.6 5.8 -4.2 72.8 -35.8 81.1 -38.3 3.9 -1.1 8.2 -1.4 15.5 -1.1 8.7 0.4 11.1 0.9 16.8 3.5 7.2 3.4 16.3 11.2 20.1 17.2 1.2 2 20.7 43.7 43.3 92.6 22.6 49 41.5 88.9 42 88.7 0.5 -0.2 20.7 -41.1 44.9 -90.8 46.9 -96.5 47 -96.6 57.8 -104 11 -7.4 28.7 -9.8 40.7 -5.6 9.3 3.3 71.9 33.9 77.1 37.8 4.4 3.2 5 3.4 5.5 1.7 0.3 -1 2.1 -5 4 -8.9 5.9 -12.4 18.7 -22.4 32.2 -25.3 7.4 -1.5 281.9 -1.6 289.4 0 16.5 3.4 31.5 17.6 35.8 33.7 l1.1 4.3 15.7 -15.3 c16.8 -16.4 22.9 -20.4 34 -22.7 3.7 -0.8 47.4 -1.1 146 -1.1 152.8 0 145.9 -0.2 157.1 5.4 10.9 5.6 20.4 17.5 23.7 30 2.9 10.8 1.1 24.7 -4.4 35 -1.5 2.9 -8.3 10.9 -15.7 18.6 -10.5 10.8 -13.8 14.9 -16.5 20.5 -2.9 6.1 -5.5 9.2 -21.4 24.6 -10 9.7 -23.6 22.3 -30.3 28 -6.8 5.6 -12.3 10.6 -12.3 11 0 0.4 12.9 14.2 28.7 30.6 15.7 16.4 29.9 31.8 31.5 34.3 1.6 2.5 3.8 7.4 4.9 11 1.9 6.3 1.9 9.1 1.7 73 l-0.3 66.5 -3.7 7.7 c-4 8.4 -4.2 8.6 -43.2 49.1 -13.8 14.3 -25.9 26 -28.5 27.5 -2.5 1.5 -7.5 5.8 -11 9.5 -6.1 6.4 -7.7 7.5 -24.8 15.8 -17.5 8.5 -18.5 8.9 -25 8.9 -4 0 -9.5 0.9 -13.1 2 -6.2 2 -9.5 2 -136.7 2 -127.3 0 -130.4 0 -136.7 -2 -3.6 -1.1 -8.2 -3.1 -10.2 -4.5 l-3.8 -2.6 -6.6 2 c-3.7 1.1 -11.5 3.1 -17.4 4.5 l-10.8 2.6 -107.3 0 c-95 0 -108 -0.2 -112.8 -1.6 -6.6 -1.9 -12.8 -5.4 -18.1 -10.2 -3.9 -3.5 -4 -3.6 -6.6 -1.9 -6.8 4.2 -20.4 10.7 -25.5 12.2 -4.8 1.4 -10.3 1.6 -38.4 1.3 l-32.8 -0.3 -6.7 -3.2 c-11.9 -5.6 -20 -14.9 -23.9 -27.4 -1.7 -5.5 -1.9 -9.7 -1.9 -45.2 0 -21.6 -0.4 -39.7 -0.8 -40.4 -0.4 -0.7 -3.9 5.7 -8.7 16 -9.9 21.5 -15 30 -21.8 36.4 -6 5.7 -10.7 8.4 -18.9 10.8 -4.9 1.4 -10.4 1.6 -39 1.3 l-33.3 -0.3 -6.7 -3.2 c-14.4 -6.8 -18 -11.5 -30.5 -39.6 l-8.8 -19.9 -0.5 40.9 c-0.5 39.7 -0.6 40.9 -2.8 46.4 -4.7 11.2 -14.1 20.6 -25.2 25.2 -5.3 2.1 -6.5 2.2 -40.6 2.2 l-35 0 -7.5 -3.7 c-4.1 -2 -9.9 -5.9 -12.9 -8.7 l-5.4 -5 -5.6 5.3 c-3.1 3 -7.8 6.5 -10.6 7.9 -8.9 4.5 -13.4 4.9 -49.4 4.5 l-33.6 -0.3 -10.9 -5.3 c-6.1 -3 -11.8 -6.1 -12.9 -7 -5.2 -4.7 -16.1 -19 -17.8 -23.4 -1 -2.8 -3.4 -6.9 -5.2 -9.2 -5 -6.1 -8.6 -12.2 -10.9 -18.5 -1.9 -5.1 -2.1 -8.2 -2.5 -36.3 l-0.4 -30.8 -25.8 0 -25.9 0 -0.3 47.8 c-0.4 53.6 -0.3 52.8 -7.9 64.2 -4.7 6.9 -12.3 13.1 -20.1 16.3 -5 2.1 -7.1 2.2 -39.6 2.5 -30 0.3 -35 0.1 -40 -1.4 -3.1 -0.9 -8.9 -2.4 -12.7 -3.4 -6 -1.4 -8.8 -2.9 -18.5 -10 -6.3 -4.6 -13.3 -9.8 -15.6 -11.7 -2.3 -1.8 -4.7 -3.3 -5.5 -3.3 -0.7 0 -6.3 4.9 -12.3 10.8 -6.1 6 -13.1 12.1 -15.6 13.5 -10.1 5.8 -8 5.7 -109 5.6 -88.6 0 -92.8 -0.1 -98.5 -1.9z m1365.5 -187.6 c-7.4 -7.4 -17 -16.7 -21.3 -20.6 l-7.8 -7.1 -19 18.9 -18.9 18.9 37.2 0.5 c24.9 0.4 38.1 1 39.8 1.7 1.4 0.7 2.7 1.2 3 1.2 0.3 0.1 -5.6 -6 -13 -13.5z"/>
  <path d="M108.8 560.1 c-7.4 -2.4 -14 -6.7 -20.5 -13.3 -9.4 -9.7 -72.5 -82.2 -76 -87.4 -1.8 -2.8 -4.4 -7.5 -5.6 -10.5 l-2.2 -5.4 -0.3 -200 c-0.2 -150.6 0 -201.4 0.9 -205.5 2.6 -12.5 12.7 -25.8 23.7 -31.4 11.5 -5.8 5.2 -5.6 144.9 -5.6 91.5 0 129.7 0.3 133.5 1.1 6.9 1.5 14.4 4.9 18.8 8.5 2.7 2.2 44.6 45.4 55.6 57.3 1.2 1.3 5.7 -2.8 31.6 -28.5 21 -20.7 31.9 -30.8 35.4 -32.6 11 -5.9 8.7 -5.8 119.6 -5.8 71 0 103.3 0.3 107 1.1 12.3 2.6 14.2 4.1 48.1 37.8 l31.7 31.6 30.2 -29.5 c16.5 -16.2 32.1 -31 34.6 -32.7 2.5 -1.8 7 -4.3 10.1 -5.5 l5.6 -2.3 101.4 -0.3 c112 -0.3 107.5 -0.5 119.3 6.1 4 2.2 14.2 11.4 33.2 29.9 l27.4 26.8 0.7 -8.8 c0.9 -12.1 3 -21.7 6.1 -28 3.6 -7.3 12.2 -16.3 19.2 -20 12.2 -6.5 4.8 -6.2 144.8 -6.2 80.9 0 129.1 0.4 132.5 1 11.9 2.2 16.6 5.7 41.1 29.7 12.5 12.3 23.1 22.3 23.6 22.3 0.4 0 2.3 -4.6 4.1 -10.2 1.8 -5.7 4.7 -13.1 6.4 -16.6 3.6 -7.4 11.6 -16 19 -20.2 11 -6.3 6.2 -6.1 146.7 -5.8 l127.5 0.3 5.7 2.3 c3.1 1.2 7.4 3.5 9.6 5 7.5 5 64.3 60.4 68.3 66.4 7.5 11.6 7 0.7 6.7 167.8 l-0.3 149.5 -2.4 5.7 c-1.3 3.1 -7.9 13 -15 22.5 -9.5 12.5 -12.9 17.8 -13.4 20.6 -0.4 2.8 -2.7 6.5 -8 13 -4 5.1 -12.5 15.7 -18.9 23.7 -11.3 14.2 -38.8 41.9 -48.9 49.2 -2.4 1.7 -10.2 8.5 -17.4 15.1 -10.1 9.4 -14.5 12.8 -20.5 15.6 l-7.5 3.6 -121.5 0 -121.5 0 -7.5 -3.6 c-4.5 -2.1 -9.6 -5.6 -12.7 -8.6 l-5.1 -5 -2.5 3.2 c-3.6 4.5 -12.2 10 -19.5 12.4 -5.7 2 -8.4 2.1 -38.7 2.1 -30.3 0 -33 -0.1 -38.7 -2.1 -15.8 -5.3 -26.7 -17.7 -29.8 -33.9 -0.6 -3.1 -1 -28.1 -1 -62.1 l0 -56.9 -29.4 0 -29.4 0 -0.4 17.3 c-0.5 19.1 -0.2 17.3 -15.3 74.2 -7.5 27.9 -9.9 35.7 -12.8 40.5 -6.5 11 -15.9 18.5 -26.9 21.5 -5.5 1.4 -10.8 1.6 -39.8 1.3 l-33.5 -0.3 -7.6 -3.6 c-5.2 -2.5 -9.3 -5.4 -13.2 -9.4 l-5.6 -5.8 -4.7 5.2 c-5.4 6 -11.1 9.6 -19.5 12.2 -5.4 1.7 -9.5 1.9 -37.7 1.9 -23.7 0 -33 -0.4 -36.8 -1.4 -17.7 -4.7 -30.2 -19.7 -32.4 -38.7 -0.6 -4.6 -1 -27 -1 -49.6 l0 -41.3 -40 0 -40 0 0 44.9 c0 25.9 -0.4 47.1 -1 50.1 -3.1 16.3 -14.5 29.2 -29.9 34 -5.7 1.8 -9.3 2 -38.6 2 -37.3 0 -40.6 -0.5 -51.3 -8.4 -9.8 -7.3 -14.9 -16.1 -18.3 -31.8 -1.1 -5.1 -2.2 -9.9 -2.5 -10.7 -0.3 -0.9 -8.3 6.4 -22.8 20.7 -20.5 20.4 -23 22.5 -30.2 25.9 l-7.9 3.8 -98.2 0.3 c-96.9 0.2 -98.3 0.2 -104.3 -1.8 -3.4 -1.1 -8 -3.2 -10.3 -4.7 -2.3 -1.4 -16.4 -14.7 -31.3 -29.5 l-27.1 -26.9 -25.3 26.6 c-14 14.6 -27.6 27.9 -30.2 29.6 -2.6 1.7 -7.5 4 -10.9 5 -5.8 1.8 -11 1.9 -126.7 1.8 -114.2 0 -121 -0.1 -126.4 -1.8z m506.2 -265.6 l0 -38.5 -29 0 -29 0 0 38.5 0 38.5 29 0 29 0 0 -38.5z m1056 0 l0 -38.5 -15.5 0 -15.5 0 0 38.5 0 38.5 15.5 0 15.5 0 0 -38.5z"/>
 </g>
 <g fill="#b10301">
  <path d="M338.5 1161.2 c-1.6 -1 -5.5 -3.3 -8.5 -5.3 -3 -2 -7.9 -4.9 -10.7 -6.5 -2.9 -1.6 -5.3 -3.3 -5.3 -3.7 0 -0.5 -0.4 -0.5 -1 -0.2 -0.5 0.3 -1 0.1 -1 -0.4 0 -0.6 -0.5 -1.1 -1.1 -1.1 -0.6 0 -2.5 -1.1 -4.3 -2.5 l-3.3 -2.5 -96.2 0 c-109.8 0 -98 1 -119.8 -9.7 -12.8 -6.2 -11.5 -5.1 -53.1 -45.2 -23.3 -22.5 -24.4 -23.7 -28.5 -31.9 l-4.2 -8.5 -0.3 -150.1 c-0.2 -147 -0.2 -150.2 1.7 -156.6 1.1 -3.6 3.7 -9 5.8 -12 4.9 -6.9 67.1 -63.5 74 -67.2 11 -6 5.1 -5.8 142 -5.8 88.2 0 126.8 0.3 130.5 1.1 14 3 23.4 10.6 36.3 30 l8.8 13 6.6 -6.3 c3.6 -3.5 12 -11.6 18.6 -17.9 12.6 -12.2 18 -15.8 28.2 -18.4 8.7 -2.3 201 -2.2 209.8 0 11 2.9 14.7 5.8 45 35.2 20.5 20 29.1 27.8 29.3 26.5 2 -11.2 9.4 -23.2 18 -29.6 5.8 -4.2 72.8 -35.8 81.1 -38.3 3.9 -1.1 8.2 -1.4 15.5 -1.1 8.7 0.4 11.1 0.9 16.8 3.5 7.2 3.4 16.3 11.2 20.1 17.2 1.2 2 20.6 43.6 43.2 92.4 22.5 48.8 41.4 88.8 41.9 88.8 0.5 0 20.8 -40.7 45 -90.6 47 -96.6 47.1 -96.7 57.9 -104.1 11 -7.4 28.7 -9.8 40.7 -5.6 9.3 3.3 71.9 33.9 77.1 37.8 4.4 3.2 5 3.4 5.5 1.7 0.3 -1 2.1 -5 4 -8.9 5.9 -12.4 18.7 -22.4 32.2 -25.3 7.4 -1.5 281.9 -1.6 289.4 0 16.5 3.4 31.5 17.6 35.8 33.7 l1.1 4.3 15.7 -15.3 c16.8 -16.4 22.9 -20.4 34 -22.7 3.7 -0.8 47.4 -1.1 146 -1.1 152.8 0 145.9 -0.2 157.1 5.4 10.9 5.6 20.4 17.5 23.7 30 2.9 10.7 1.2 24.5 -4.3 35 -2.7 5.3 -26.1 29.2 -54.8 56 -19.6 18.3 -29.1 25.7 -36.9 28.6 -3.6 1.4 -8.4 4.2 -10.8 6.3 l-4.2 3.7 2.5 1.7 c3.7 2.7 6.6 5.6 37 37.3 15.5 16.2 29.5 31.5 31.1 34 1.6 2.5 3.8 7.4 4.9 11 1.9 6.3 1.9 9.1 1.7 73 l-0.3 66.5 -3.7 7.7 c-4 8.4 -4.2 8.7 -43.7 49.6 l-24.5 25.4 -13 6.4 c-7.2 3.6 -15.3 7.1 -18 7.9 -4.3 1.3 -24.1 1.5 -139.4 1.5 l-134.5 0 -3.6 2.7 c-2 1.5 -3.8 3 -4.1 3.3 -0.3 0.4 -2.7 2.2 -5.5 4 -2.7 1.9 -5.6 4 -6.5 4.7 -0.8 0.7 -3.3 2.6 -5.5 4.2 -2.2 1.7 -4.5 3.5 -5.2 4.1 -1.9 1.6 -8.5 1.2 -15.4 -1 -6.8 -2.1 -12.9 -5.4 -12.9 -6.9 0 -0.5 6.3 -5.9 14 -12.1 7.7 -6.2 14 -11.8 14 -12.3 0 -0.6 -1.2 -2.3 -2.6 -3.8 l-2.6 -2.8 -7 5.4 c-3.9 2.9 -9.6 6.4 -12.7 7.7 l-5.6 2.3 -117 0.3 -117 0.3 -2.3 3.5 c-1.2 2 -1.9 4 -1.6 4.6 0.4 0.7 0.2 0.8 -0.4 0.4 -0.7 -0.4 -1.2 -0.1 -1.2 0.7 0 1.2 -0.8 2.5 -4.9 7.3 -0.5 0.7 -0.8 1.4 -0.5 1.7 0.2 0.2 -0.2 1 -1.1 1.7 -0.8 0.7 -1.5 1.8 -1.5 2.5 0 3.4 -16 -3.1 -23.1 -9.3 l-4.2 -3.8 6.7 -12.2 c6.5 -11.9 6.6 -12.3 5 -14.7 -0.9 -1.4 -1.8 -2.5 -1.9 -2.5 -0.2 0 -3 2.7 -6.4 6 -4.1 4.2 -8.4 7.2 -13.8 9.8 l-7.8 3.7 -35.2 0.3 c-20.6 0.2 -36.7 -0.1 -38.8 -0.7 -2.4 -0.6 -3.7 -0.6 -4.1 0.1 -0.5 0.7 -0.2 0.8 0.6 0.3 1 -0.6 1.1 -0.4 0.5 1.1 -2.2 5.3 -3.4 9.1 -3.5 10.9 0 1.1 -0.8 3.1 -1.7 4.4 -0.9 1.4 -1.1 2.1 -0.4 1.6 1 -0.6 1.1 -0.3 0.2 1.2 -0.6 1.1 -0.8 2.3 -0.4 2.6 1.2 1.3 -5.1 -0.5 -9 -2.4 -5.3 -2.8 -13.3 -10.3 -16.4 -15.7 -6 -10.3 -6.3 -12.6 -6.3 -56.9 0 -38.9 0.1 -41.1 2.6 -55.5 4.1 -24 3.4 -23.6 -10.1 5.5 -13.3 28.6 -17.2 34.6 -26.6 40.7 -11.5 7.4 -12 7.5 -51.9 7.5 -36.1 -0.1 -44.2 -0.4 -43.3 -1.7 0.2 -0.5 -0.8 -0.8 -2.4 -0.8 -2.6 0.1 -2.7 0.2 -0.9 1.5 1.1 0.8 1.5 1.9 1 2.7 -1.2 2 -1.2 5.2 0 6.1 0.8 0.5 0.7 1 -0.3 1.6 -1.1 0.7 -1 1.1 0.5 2 1.6 0.9 1.7 1.2 0.4 2.1 -1.4 0.9 -0.7 1.4 1.3 1.1 0.5 -0.1 0.6 0.8 0.2 1.9 -0.4 1.2 -0.2 2 0.5 2 0.6 0 0.8 0.5 0.5 1 -0.4 0.6 -1.1 0.8 -1.6 0.5 -0.5 -0.4 -0.9 -0.1 -0.9 0.4 0 1 1.4 1.5 3.3 1.2 0.5 -0.1 0.6 0.3 0.3 0.8 -2 3.2 -13.6 -4.2 -19.5 -12.4 -1.7 -2.4 -7.3 -13.7 -12.4 -25.2 -9.2 -20.4 -9.4 -21.1 -11.8 -35.8 l-2.4 -15 -0.5 43 c-0.5 42 -0.6 43.1 -2.8 48.7 -4.8 11.8 -15.2 22.2 -26.9 27 -5.6 2.2 -6.9 2.3 -40.3 2.6 -29.9 0.3 -35.3 0.1 -40.8 -1.4 -7.7 -2 -16.3 -7.5 -21.8 -13.7 -7.6 -8.6 -7.3 -5.8 0.8 10 l6.3 12.2 -4.5 4.5 c-2.5 2.5 -5.8 4.8 -7.3 5.2 -2.7 0.6 -2.8 0.5 -2.5 -2.2 0.2 -2.1 -0.4 -3.6 -2.2 -5.4 -3.3 -3.3 -5.8 -6.6 -4.3 -5.7 0.6 0.4 1.4 0.3 1.8 -0.3 0.3 -0.5 -0.1 -1 -1 -1 -0.9 0 -1.3 -0.4 -1 -1 0.3 -0.5 0.1 -1 -0.4 -1 -0.6 0 -1.1 -0.9 -1.1 -2 0 -1.1 -0.5 -2 -1.1 -2 -0.6 0 -0.8 -0.9 -0.4 -2.2 0.3 -1.3 0.3 -1.8 -0.2 -1.2 -0.4 0.6 -3.9 2.4 -7.8 4 l-7 2.9 -35.5 0.3 c-39 0.4 -42.7 0 -52.3 -5.1 -10.8 -5.7 -24.2 -21.6 -28.9 -34.4 -2 -5.4 -2.2 -8 -2.6 -36.5 l-0.4 -30.8 -25.9 0 -25.9 0 0 44.8 c0 48.9 -0.5 53.8 -5.7 63.4 -3.5 6.4 -10.3 13.6 -16.3 17.1 -5.4 3.1 -15 5.8 -16.5 4.5 -0.5 -0.4 -2.3 -1.9 -3.8 -3.3 -1.5 -1.4 -3.2 -2.5 -3.8 -2.5 -0.5 0 -0.9 -0.7 -0.9 -1.7 0 -0.9 -0.3 -1.3 -0.7 -1 -0.3 0.4 -1.6 -0.5 -2.9 -1.8 -1.3 -1.4 -2.7 -2.5 -3.2 -2.5 -0.4 0 -1.8 -1 -2.9 -2.2 -1.2 -1.3 -3.5 -3.5 -5.1 -5 l-2.9 -2.8 -35.6 0 c-35.2 0 -35.7 0 -42.3 -2.4 -7.2 -2.6 -20.6 -11.3 -28.7 -18.5 l-4.9 -4.5 2.7 5.3 c1.5 3 4.6 7.5 7.1 10.1 l4.4 4.7 -10.8 10.5 c-11.8 11.6 -16.8 14.9 -25.7 17.2 -7.2 1.9 -9.1 1.9 -13 -0.2z m1174.2 -194.8 l-20.9 -20.5 7 -8.2 c3.8 -4.5 10.8 -12.7 15.5 -18.2 4.8 -5.5 8.7 -10.3 8.7 -10.6 0 -0.4 -1 -1.8 -2.1 -3.3 l-2.2 -2.7 -31.1 30.8 c-29.6 29.4 -31.5 31.1 -38.6 34.3 -4.2 1.8 -8.6 4.6 -10 6.3 -1.4 1.6 -3.7 4.2 -5.1 5.7 l-2.7 2.7 9.2 0.6 c5 0.4 25.2 0.7 44.8 0.7 31.3 0 44.9 0.8 46.6 2.5 0.3 0.3 0.8 0.5 1.1 0.5 0.3 -0.1 -8.8 -9.3 -20.2 -20.6z m-160.8 11.1 c-0.1 -3 -0.5 -5.5 -1 -5.5 -0.5 0 -0.9 2.5 -0.9 5.5 0 3 0.4 5.5 1 5.5 0.5 0 0.9 -2.5 0.9 -5.5z m151.5 -179.5 c9.5 -13.4 10.6 -15.4 11.2 -20.5 l0.7 -5.5 -15.9 15.9 c-11.7 11.7 -17.5 16.7 -22 19 -9.2 4.9 -8.3 6.1 4.7 6.1 l10.7 0 10.6 -15z"/>
  <path d="M107.6 559.6 c-3.8 -1.3 -7.5 -3.2 -8.2 -4.2 -1.3 -1.8 -3.5 -4.5 -11.4 -13.4 -1.9 -2.2 -5.1 -5.8 -7 -8 -1.9 -2.2 -4.5 -5.2 -5.8 -6.5 -1.3 -1.4 -2.1 -2.5 -1.8 -2.5 0.2 0 -1 -1.5 -2.7 -3.3 -4.7 -4.9 -12.7 -13.9 -16.7 -18.7 -6.6 -7.9 -13.5 -14.7 -18.4 -18.1 -5.8 -4.1 -22 -22.6 -25.8 -29.6 -6.2 -11.2 -5.8 2.1 -5.8 -215.3 0 -214.9 -0.3 -202.6 5.5 -213.9 3.5 -6.9 12.6 -16.1 19.3 -19.5 11.5 -5.8 5.2 -5.6 144.9 -5.6 91.5 0 129.7 0.3 133.5 1.1 6.9 1.5 14.4 4.9 18.8 8.5 2.7 2.2 44.6 45.4 55.6 57.3 1.2 1.3 5.7 -2.8 31.6 -28.5 21 -20.7 31.9 -30.8 35.4 -32.6 11 -5.9 8.7 -5.8 119.6 -5.8 71 0 103.3 0.3 107 1.1 12.3 2.6 14.2 4.1 48.1 37.8 l31.7 31.6 30.2 -29.5 c16.5 -16.2 32.1 -31 34.6 -32.7 2.5 -1.8 7 -4.3 10.1 -5.5 l5.6 -2.3 101.4 -0.3 c112 -0.3 107.5 -0.5 119.3 6.1 4 2.2 14.2 11.4 33.2 29.9 l27.4 26.8 0.7 -8.8 c0.9 -12.1 3 -21.7 6.1 -28 3.6 -7.3 12.2 -16.3 19.2 -20 12.2 -6.5 4.8 -6.2 144.8 -6.2 80.9 0 129.1 0.4 132.5 1 11.9 2.2 16.6 5.7 41.1 29.7 12.5 12.3 23.1 22.3 23.6 22.3 0.4 0 2.3 -4.6 4.1 -10.2 1.8 -5.7 4.7 -13.1 6.4 -16.6 3.6 -7.4 11.6 -16 19 -20.2 11 -6.3 6.2 -6.1 146.7 -5.8 l127.5 0.3 5.7 2.3 c3.1 1.2 7.4 3.5 9.6 5 7.5 5 64.3 60.4 68.3 66.4 7.5 11.6 7 0.7 6.7 167.8 l-0.3 149.5 -2.4 5.7 c-4.7 11.5 -17 25.6 -48.5 56 -16.4 15.8 -32.1 30.2 -34.9 32 -2.9 1.8 -5.9 4.1 -6.7 5.1 -0.8 1.1 -2.7 3.2 -4.2 4.7 -1.5 1.6 -2.4 3.1 -2.1 3.4 0.4 0.3 -0.1 0.6 -1.1 0.6 -0.9 0 -1.4 0.4 -1.1 1 0.3 0.6 0.1 1 -0.6 1 -0.7 0 -0.9 0.3 -0.6 0.6 0.4 0.4 -0.3 1.5 -1.5 2.5 -1.1 1.1 -1.8 1.9 -1.4 1.9 0.4 0 -0.5 1.1 -1.9 2.5 -1.4 1.4 -2.5 3 -2.5 3.5 0 0.5 -0.6 1.5 -1.3 2.2 -1.5 1.6 -8.7 10.8 -10.7 13.8 -0.8 1.2 -2.2 3 -3 4 -0.8 1.1 -2.5 3.2 -3.7 4.7 -1.2 1.5 -3 3.8 -4 5 -2.4 2.9 -4.5 5.7 -6.3 8.4 -2.8 4.1 -7.2 7.8 -10.9 9.1 -2.9 1 -28.2 1.3 -124.6 1.3 l-121 0 -6.8 -3.2 c-3.7 -1.8 -8.8 -4.9 -11.2 -6.8 l-4.4 -3.6 6.4 -13.2 c3.4 -7.3 11.1 -23.2 17 -35.5 9 -18.6 10.5 -22.4 9.5 -23.7 -1.1 -1.4 -1.7 -1.1 -4.3 2.1 -1.7 2 -5.7 5.4 -8.9 7.4 -3.1 2.1 -5.4 4 -5.1 4.4 0.4 0.3 0 0.6 -0.8 0.6 -1.1 0 -1.1 0.2 0.1 1 1.1 0.7 1.1 1 0.2 1 -0.7 0 -1 0.5 -0.7 1 0.3 0.6 0.1 1 -0.5 1 -0.6 0 -0.8 0.5 -0.5 1 0.3 0.6 0.1 1 -0.5 1 -0.6 0 -0.8 0.5 -0.4 1.2 0.5 0.8 0.1 0.9 -1.2 0.4 -1.5 -0.6 -1.6 -0.5 -0.7 0.5 0.9 0.9 0.9 1.8 -0.3 4 -0.8 1.6 -1.9 2.9 -2.5 2.9 -0.6 0 -0.7 0.5 -0.4 1 0.3 0.6 0.1 1 -0.5 1 -0.6 0 -0.8 0.5 -0.5 1 0.3 0.6 0.1 1 -0.6 1 -0.8 0 -0.8 0.4 0.1 1.5 1 1.2 0.9 1.6 -0.4 2.1 -0.9 0.3 -1.3 1 -1 1.5 0.3 0.5 0 0.9 -0.6 0.9 -0.6 0 -0.8 0.5 -0.5 1 0.3 0.6 0.1 1 -0.5 1 -0.6 0 -0.8 0.5 -0.5 1 0.3 0.6 0.1 1 -0.5 1 -0.6 0 -0.8 0.5 -0.5 1 0.3 0.6 0.1 1 -0.5 1 -0.6 0 -0.8 0.5 -0.5 1 0.3 0.6 0.1 1 -0.4 1 -0.6 0 -1 0.3 -0.9 0.8 0.4 1.3 -1.3 5.2 -2.1 4.8 -0.4 -0.3 -0.8 0.4 -0.9 1.5 -0.4 4.2 -0.6 4.7 -1.7 4.2 -0.8 -0.2 -1.1 0.5 -1 2.1 0.2 1.9 -0.1 2.3 -1.3 1.9 -1 -0.4 -1.3 -0.2 -0.8 0.5 0.4 0.7 0.2 1.2 -0.6 1.2 -1 0 -1 0.2 0 0.9 1.1 0.7 1 1.6 -0.7 5 -1.2 2.2 -2.6 4.1 -3.2 4.1 -0.6 0 -0.7 0.5 -0.4 1 0.3 0.6 0.1 1 -0.5 1 -0.6 0 -0.9 0.4 -0.6 0.9 1.1 1.7 -3.2 5 -9.2 7 -5.7 2 -8.4 2.1 -38.7 2.1 -30.3 0 -33 -0.1 -38.7 -2.1 -15.8 -5.3 -26.7 -17.7 -29.8 -33.9 -0.6 -3.1 -1 -28.1 -1 -62.1 l0 -56.9 -29 0 -29 0 -0.2 -40.2 c-0.2 -40 -0.2 -39.8 -0.8 17.7 l-0.6 58 -2.7 9.5 c-3.7 13 -7.9 21.1 -14 27.2 -2.9 2.9 -5.1 5.6 -4.9 6.1 0.2 0.5 -0.3 0.7 -1.1 0.4 -0.7 -0.3 -1.4 0.1 -1.4 0.9 0 0.7 0.4 1.1 0.8 0.9 0.4 -0.3 0.6 0.3 0.4 1.2 -0.2 1 -0.4 2.2 -0.4 2.6 -0.1 0.5 -0.7 0.5 -1.3 0.1 -1 -0.5 -1 -0.4 0 0.7 1 1.1 0.9 1.6 -0.9 3 -1.7 1.2 -1.9 1.8 -0.9 2.4 0.9 0.6 1.1 0.4 0.5 -0.5 -0.5 -0.9 -0.4 -1.1 0.4 -0.6 0.8 0.6 0.9 1.2 0.2 2 -0.6 0.7 -0.7 1.7 -0.3 2.1 0.4 0.5 0 0.6 -0.9 0.3 -0.9 -0.4 -1.6 -0.1 -1.6 0.8 0 0.7 0.3 1.1 0.7 0.9 0.4 -0.2 0.7 0.3 0.7 1.1 0 0.8 -0.6 1.3 -1.3 1 -1.2 -0.5 -1.4 1.8 -0.2 3 1.1 1 -0.3 3.4 -1.6 2.7 -0.6 -0.4 -0.5 0.1 0.3 1 1.1 1.4 1.1 1.8 -0.3 2.3 -1.2 0.5 -1.4 1 -0.6 1.9 0.7 0.9 0.8 1.5 0.1 1.9 -0.6 0.4 -0.8 1.3 -0.5 2 0.3 0.8 0 1.7 -0.5 2.1 -0.6 0.3 -0.9 1.1 -0.6 1.6 0.4 0.5 0.2 0.9 -0.4 0.9 -0.5 0 -0.8 0.9 -0.6 2.1 0.3 1.4 0 1.9 -0.9 1.6 -0.7 -0.3 -1.3 0.1 -1.3 0.9 0 0.7 0.3 1.1 0.7 0.9 0.4 -0.2 0.7 0.3 0.7 1.1 0 0.8 -0.6 1.3 -1.2 1 -0.6 -0.2 -1.2 0.2 -1.2 1 0 0.7 0.3 1.1 0.7 0.9 0.4 -0.2 0.7 0.2 0.7 0.9 0 0.8 -0.6 1.2 -1.2 1 -0.6 -0.3 -1.2 0.2 -1.2 1 0 0.8 0.4 1.3 0.8 1.1 0.4 -0.3 0.6 0.3 0.4 1.2 -0.2 1 -0.4 2.2 -0.4 2.6 -0.1 0.5 -0.7 0.5 -1.3 0.1 -1 -0.5 -1 -0.4 -0.1 0.6 1.4 1.5 0.6 4.2 -1.1 3.3 -0.8 -0.4 -0.8 -0.2 0.1 0.7 1.2 1.3 0.7 4.3 -0.6 3.5 -0.4 -0.2 -0.8 0.2 -0.8 0.9 0 0.8 0.7 1.2 1.5 0.8 1 -0.3 1.3 -0.1 0.8 0.6 -0.4 0.7 -1.2 1.2 -1.7 1.2 -0.5 0 -1.9 0.9 -3.1 2 -1.2 1.1 -4.7 3 -7.7 4.2 -5.5 2.2 -6.6 2.3 -41.6 2.3 l-36 0 -6.3 -2.9 c-7 -3.2 -12.6 -7.4 -16.7 -12.3 l-2.6 -3.3 4.6 -32.7 c2.5 -18.1 4.8 -33.8 5 -35 0.5 -3.1 0.1 -2.9 -3.9 1.4 -2.4 2.6 -3.1 4.2 -2.5 5 0.7 0.7 0.6 1.4 -0.1 1.8 -0.7 0.4 -0.8 1.1 -0.1 1.8 1 1.3 -1 5.1 -2.2 4.2 -0.4 -0.3 -0.5 -0.2 -0.2 0.2 0.3 0.3 0 1.2 -0.6 1.9 -0.7 0.8 -0.6 1.4 0.2 2 0.8 0.5 0.9 0.3 0.4 -0.6 -0.6 -0.9 -0.4 -1.1 0.5 -0.5 0.9 0.6 1.1 0.4 0.5 -0.5 -0.5 -0.9 -0.4 -1.1 0.4 -0.6 0.9 0.6 0.9 1.1 0 2.2 -0.6 0.8 -0.8 1.4 -0.4 1.4 0.4 0 0.2 0.6 -0.4 1.4 -0.8 1 -0.9 1.6 -0.1 2.1 0.7 0.4 0.7 1.2 0 2.6 -0.6 1 -0.8 1.9 -0.4 1.9 0.4 0 -0.1 0.9 -1 1.9 -1.1 1.2 -1.3 2.1 -0.7 2.5 1.3 0.8 0.5 4.4 -1.4 6.6 -1.2 1.4 -1.3 2 -0.4 2.6 0.7 0.4 1 0.3 0.5 -0.4 -0.3 -0.6 -0.2 -1.3 0.2 -1.6 1.1 -0.7 0.9 3.4 -0.2 5.3 -0.7 1 -0.6 1.2 0.4 0.6 1.5 -0.9 0.6 0.9 -1.7 3.7 -1.1 1.2 -1.2 1.8 -0.2 2.4 0.7 0.4 1 0.3 0.5 -0.4 -0.3 -0.6 -0.2 -1.3 0.3 -1.6 0.5 -0.4 0.8 0.2 0.6 1.1 -0.2 1 -0.4 1.8 -0.6 1.8 -0.1 0 -0.2 1.2 -0.3 2.6 -0.1 1.5 -0.7 3.4 -1.4 4.2 -0.9 1 -1 1.7 -0.2 2.2 0.7 0.4 0.7 1.2 0 2.6 -0.6 1 -0.8 1.9 -0.4 1.9 0.3 0 0.2 0.6 -0.5 1.3 -0.6 0.9 -0.7 1.7 -0.1 2.3 1.6 1.6 -2.6 7.2 -7.7 10.5 -10.1 6.3 -14.1 6.9 -49.2 6.9 -23.6 0 -32.9 -0.4 -36.7 -1.4 -17.7 -4.7 -30.2 -19.7 -32.4 -38.7 -0.6 -4.6 -1 -27 -1 -49.6 l0 -41.3 -39.5 0 -39.5 0 0 -2.2 c0.1 -8 -4.3 -72.7 -5 -74.3 -0.7 -1.6 -1.3 43.6 -1.5 107.5 0 6.4 1 24.4 2 35 2.3 25.4 2.5 30.9 1.1 34.8 -5.1 14.3 -14.8 24 -28.5 28.2 -5.7 1.8 -9.3 2 -38.6 2 -37.3 0 -40.6 -0.5 -51.3 -8.4 -9.8 -7.3 -14.9 -16.1 -18.3 -31.8 -1.1 -5.1 -2.2 -9.9 -2.5 -10.7 -0.3 -0.9 -8.3 6.4 -22.8 20.7 -20.5 20.4 -23 22.5 -30.2 25.9 l-7.9 3.8 -98.2 0.3 c-97.5 0.2 -98.3 0.2 -104.5 -1.9 -3.4 -1.1 -8.5 -3.6 -11.4 -5.5 -5.1 -3.4 -5.4 -3.9 -17.5 -28.2 -6.7 -13.6 -13.8 -27.8 -15.8 -31.7 -1.9 -3.8 -4.3 -8.6 -5.3 -10.5 -1 -1.9 -14.2 -15.9 -29.4 -31 l-27.7 -27.5 4.1 7.5 c2.2 4.1 7.7 14.7 12.2 23.5 4.5 8.8 11.4 22 15.2 29.3 l7 13.3 -8.3 8.7 c-4.6 4.8 -16 16.7 -25.4 26.5 -18.1 19 -23 22.8 -32.6 25.8 -5.8 1.8 -11.1 1.9 -126.7 1.9 l-120.7 -0.1 -6.9 -2.3z m507.4 -265.1 l0 -38.5 -29 0 -29 0 0 38.5 0 38.5 29 0 29 0 0 -38.5z m1056 0 l0 -38.5 -15.5 0 -15.5 0 0 38.5 0 38.5 15.5 0 15.5 0 0 -38.5z m-771.7 -115.2 c-0.9 -15.8 -2.2 -17 -2.2 -2 -0.1 10.4 0.2 12.7 1.3 12.7 1.2 0 1.4 -1.8 0.9 -10.7z"/>
 </g>
 <g fill="#e70605">
  <path d="M1062.8 1135.3 c-2.3 -5.7 -2.3 -6.6 -2.6 -46 l-0.3 -40.2 3.1 -17.6 c1.7 -9.8 3 -20.1 2.8 -23.1 l-0.3 -5.4 -4.9 10.7 c-12.6 27.4 -21.6 45.1 -24.9 48.9 -4.9 5.5 -12.9 10.8 -20.5 13.3 -5.8 2 -8.3 2.1 -41.6 2.1 -39.4 0 -42.3 -0.4 -52.5 -6.9 -11.2 -7.2 -14.8 -12.9 -30.2 -48 l-5.4 -12.4 -0.5 43.4 c-0.5 42.8 -0.5 43.5 -2.9 49.4 -6.1 15.2 -18.5 26.3 -33.1 29.5 -3.9 0.8 -16 1.1 -40.6 0.8 l-35 -0.3 -7.8 -3.9 c-5.3 -2.6 -9.6 -5.7 -13.4 -9.6 l-5.6 -5.8 -5.7 5.8 c-3.8 3.9 -8.3 7.1 -13.5 9.6 l-7.8 3.9 -40 0 -40.1 0 -7.7 -3.8 c-12.2 -5.9 -22 -17 -27.1 -30.5 -2 -5.4 -2.1 -7.9 -2.7 -55.7 -0.3 -27.5 -0.7 -50.1 -0.8 -50.2 -0.1 -0.2 -18.6 -0.3 -41.2 -0.3 l-41 0 0 3.3 c0 2.5 1.5 5.1 6.9 11.7 3.9 4.7 10.8 13.2 15.5 18.9 l8.6 10.5 0 41.5 c0 38.8 -0.8 54.1 -2.9 54.1 -1.3 0 -12 -10.8 -11.4 -11.4 0.4 -0.3 0.1 -0.6 -0.6 -0.6 -0.7 0 -5 -3.8 -9.6 -8.5 -4.6 -4.7 -8.7 -8.5 -9.2 -8.5 -0.4 0.1 -1.8 2.2 -3 4.8 -4.9 10.2 -15.3 19.2 -27.1 23.1 -5.8 2 -8.3 2.1 -42.1 2.1 -32.5 0 -36.5 -0.2 -42 -1.9 -12.8 -4 -28.1 -17.1 -33.6 -28.8 -1.6 -3.2 -3.3 -8.8 -3.9 -12.5 l-1 -6.8 -21.1 20.9 c-19 18.8 -21.8 21.2 -28.9 24.7 l-8 3.9 -102 0.3 c-113.8 0.3 -105.6 0.7 -120.8 -6.9 -8.6 -4.3 -9.2 -4.8 -48.6 -42.8 -23.3 -22.5 -24.4 -23.7 -28.5 -31.9 l-4.2 -8.5 -0.3 -150.1 c-0.2 -147 -0.2 -150.2 1.7 -156.6 1.1 -3.6 3.7 -9 5.8 -12 4.9 -6.9 67.1 -63.5 74 -67.2 11 -6 5.1 -5.8 142 -5.8 88.2 0 126.8 0.3 130.5 1.1 14 3 23.4 10.6 36.3 30 l8.8 13 6.6 -6.3 c3.6 -3.5 12 -11.6 18.6 -17.9 12.6 -12.2 18 -15.8 28.2 -18.4 8.7 -2.3 201 -2.2 209.8 0 11 2.9 14.7 5.8 45 35.2 20.5 20 29.1 27.8 29.3 26.5 2 -11.2 9.4 -23.2 18 -29.6 5.8 -4.2 72.8 -35.8 81.1 -38.3 3.9 -1.1 8.2 -1.4 15.5 -1.1 8.7 0.4 11.1 0.9 16.8 3.5 7.2 3.4 16.3 11.2 20.1 17.2 1.2 2 20.7 43.7 43.3 92.6 22.6 49 41.4 89 41.8 89 0.4 0 20.7 -40.9 44.9 -90.8 47.1 -96.8 47.2 -96.9 58 -104.3 11 -7.4 28.7 -9.8 40.7 -5.6 9.3 3.3 71.9 33.9 77.1 37.8 4.4 3.2 5 3.4 5.5 1.7 0.3 -1 2.1 -5 4 -8.9 5.9 -12.4 18.7 -22.4 32.2 -25.3 7.4 -1.5 281.9 -1.6 289.4 0 16.5 3.4 31.5 17.6 35.8 33.7 l1.1 4.3 15.7 -15.3 c16.8 -16.4 22.9 -20.4 34 -22.7 3.7 -0.8 47.4 -1.1 146 -1.1 152.8 0 145.9 -0.2 157.1 5.4 7.5 3.9 15.4 11.7 19.3 19.3 4.8 9.1 6.2 15.8 5.5 25.7 -0.5 9 -2.9 16.1 -7.7 23.6 -1.8 2.8 -17.3 18.4 -35.7 36 -28.9 27.7 -33.2 31.4 -39.6 34.4 -4 1.9 -9.6 3.9 -12.5 4.5 -3.6 0.7 -32.1 1.1 -88.7 1.1 l-83.5 0 0 5 0 4.9 71.3 0.3 c79.6 0.4 76 0.1 87 7.6 6.4 4.3 63.7 63.5 67.9 70.2 1.6 2.5 3.8 7.4 4.9 11 1.9 6.3 1.9 9.1 1.7 73 l-0.3 66.5 -3.6 7.6 c-4 8.4 -14.2 19.8 -51 57 -17.3 17.6 -18.9 18.9 -26.9 22.7 -4.7 2.2 -10.3 4.5 -12.5 5.1 -2.8 0.8 -46.2 1.1 -144.6 1.1 -137.2 0 -140.8 0 -147 -2 -3.5 -1.1 -8 -3 -9.9 -4.4 l-3.5 -2.4 -3.5 3.1 -3.5 3.2 2.9 -3.3 3 -3.2 -3.3 -3.4 -3.3 -3.4 -7 5.3 c-3.9 2.9 -9.6 6.4 -12.7 7.7 l-5.6 2.3 -118 0.3 c-107.5 0.3 -118.6 0.1 -124.3 -1.4 -7.7 -2 -16.3 -7.5 -22 -13.9 l-4.2 -4.8 -6.9 6.7 c-4.5 4.3 -9.3 7.7 -13.8 9.9 l-6.8 3.2 -35.8 0.3 c-30.8 0.3 -36.7 0.1 -41.5 -1.3 -8.8 -2.6 -14.8 -6.3 -21.3 -13.3 -3.3 -3.5 -6.2 -6.2 -6.4 -6.1 -0.2 0.2 -0.5 1.8 -0.8 3.4 -0.3 1.7 -1.2 5.9 -2.1 9.5 -1.9 8.1 -2.7 12.1 -2.8 13.8 -0.2 2.7 -1.8 0.9 -4 -4.5z m502.3 -145.1 c2.1 -1.2 6.3 -3.1 9.5 -4.3 5.7 -1.9 8.3 -2 78.1 -1.9 39.7 0 74 -0.2 76.1 -0.6 2.2 -0.3 5.1 -1.6 6.5 -2.8 1.4 -1.1 5.3 -4.1 8.6 -6.5 5 -3.6 6.1 -4.9 6.1 -7.2 l0 -2.9 -72.2 0 -72.3 -0.1 -6.7 -2.2 c-3.7 -1.3 -6.6 -1.9 -6.5 -1.4 0.1 0.5 -0.4 1.2 -1.2 1.5 -0.8 0.2 -1.1 0 -0.7 -0.6 0.3 -0.6 0.2 -1.3 -0.3 -1.6 -0.5 -0.4 -0.8 0.2 -0.6 1.1 0.1 1 -0.7 2.6 -1.9 3.6 -1.1 1 -1.5 1.5 -0.7 1.1 0.9 -0.5 1.2 -0.3 0.7 0.4 -0.5 0.8 -1.3 0.9 -2.5 0.3 -1.3 -0.7 -1.8 -0.6 -1.8 0.4 0 0.8 0.5 1.2 1.1 0.9 0.6 -0.3 -0.2 0.6 -1.9 2 -1.6 1.4 -3.7 2.4 -4.5 2 -0.8 -0.3 -1.1 -0.2 -0.7 0.2 0.4 0.4 0.1 1.4 -0.6 2.3 -1.1 1.4 -1 1.5 0.8 0.1 1.9 -1.4 1.9 -1.4 0.6 0.3 -0.8 1 -2 1.6 -2.7 1.3 -1.7 -0.6 -2.6 0.5 -1.4 1.8 0.6 0.8 0.3 1.2 -1.1 1.3 -1.2 0.1 -1.7 -0.2 -1.3 -1 0.4 -0.7 0.3 -0.8 -0.2 -0.4 -0.5 0.5 -0.9 1.2 -0.9 1.7 0 0.4 -1.1 1.8 -2.5 3 l-2.5 2.2 3.5 -2.2 3.5 -2.2 -3.5 3.1 c-3.6 3.2 -5.6 4 -4.4 1.9 0.4 -0.7 0.4 -1 0 -0.6 -0.4 0.3 -0.8 1 -0.8 1.5 0 0.4 -0.5 1.4 -1.1 2.2 -0.9 1.2 -0.9 1.3 0.1 0.7 2.4 -1.5 1.1 0.2 -1.5 2 -2.2 1.4 -2.5 1.4 -1.5 0.2 1 -1.3 1 -1.8 0.1 -2.4 -0.7 -0.4 -0.9 -0.3 -0.5 0.4 0.3 0.6 0.2 1.3 -0.4 1.7 -0.6 0.4 -0.8 1.1 -0.4 1.6 0.3 0.6 -0.2 0.9 -1.2 0.7 -1 -0.2 -1.9 0.2 -1.9 0.7 -0.1 1.6 -1.5 3.5 -2.6 3.5 -0.6 0 -0.7 -0.5 -0.3 -1.2 0.4 -0.7 0.3 -0.8 -0.4 -0.4 -0.9 0.5 -0.9 1.2 0 2.6 1.1 1.8 1.4 1.7 5.3 -1.8 2.2 -2.1 5.6 -4.8 7.6 -6z m-52.2 -23.6 l-20.6 -20.2 17.9 -21 c9.9 -11.5 18.4 -21.7 18.9 -22.7 0.8 -1.3 0.4 -2.5 -1.3 -4.6 l-2.3 -2.9 -31 30.8 c-29 28.7 -31.5 31 -38.9 34.6 l-8 3.9 -48.8 0.3 -48.8 0.3 0 9.4 0 9.4 88.8 0.3 c65.8 0.2 89.3 0.6 91.2 1.5 1.4 0.6 2.7 1.2 3 1.2 0.3 0 -8.8 -9.1 -20.1 -20.3z m-1276.1 12.5 c0.2 -2.5 0.1 -5.5 -0.3 -6.8 l-0.5 -2.3 -39 0 -39 0 0 2.9 c0 2.3 0.8 3.4 3.5 5.1 2 1.2 4.1 2.8 4.9 3.5 2 2.1 4.9 2.2 38.6 2.1 l31.5 -0.1 0.3 -4.4z m365.2 -153 c0 -8.2 -0.3 -16.3 -0.6 -18 l-0.6 -3.1 -40.9 0 -40.9 0 0 2.3 c0 1.3 1.6 5 3.6 8.3 2 3.2 4.2 6.8 4.8 7.9 0.6 1.1 2.8 4.6 4.9 7.8 2 3.1 3.7 6.1 3.7 6.5 0 2.9 3 3.2 34.2 3.2 l31.8 0 0 -14.9z m-415.6 -3.6 l8 -4 73.9 -0.7 73.9 -0.6 2.4 -2.3 c2 -1.9 2.2 -2.4 0.8 -3.3 -1.3 -1 -1 -1.6 1.8 -4.1 l3.3 -3 -2.8 3.1 c-2.5 2.8 -2.6 3.2 -1.1 3.8 1.5 0.6 1.5 0.9 -0.5 3 -2.5 2.7 -2.1 3.3 2.9 3.7 2.5 0.2 3.4 0 3.2 -1 -0.1 -0.7 0.2 -1 0.8 -0.6 0.6 0.3 0.8 1.1 0.5 1.6 -0.4 0.5 -0.5 0.9 -0.3 0.9 0.2 0 2.7 0.9 5.5 1.9 l5.2 1.9 0.1 -34.2 0 -34.1 -20.2 20.5 c-13.2 13.3 -22.2 21.7 -25.8 23.7 -10.9 6.4 -10.1 6.3 -88.7 6.3 l-71.3 0 0 2.3 c0 1.4 2.1 4.1 6.1 7.7 3.3 3 7.7 7 9.7 8.8 1.9 1.8 3.8 3.1 4.1 3 0.3 -0.2 4.2 -2.1 8.5 -4.3z m1321.1 -27.7 l12.9 -18.3 0.4 -6.5 0.3 -6.5 -14.8 15 c-11.1 11.3 -16.4 15.8 -21.2 18.4 -11.6 6.1 -10.9 6.1 -75.8 6.1 l-59.3 0.1 0 4.9 0 5 72.3 0 72.2 0 13 -18.2z"/>
  <path d="M349 813.5 c1.9 -1.9 3.6 -3.5 3.9 -3.5 0.3 0 -1 1.6 -2.9 3.5 -1.9 1.9 -3.6 3.5 -3.9 3.5 -0.3 0 1 -1.6 2.9 -3.5z"/>
  <path d="M343 808.5 c1.9 -1.9 3.6 -3.5 3.9 -3.5 0.3 0 -1 1.6 -2.9 3.5 -1.9 1.9 -3.6 3.5 -3.9 3.5 -0.3 0 1 -1.6 2.9 -3.5z"/>
  <path d="M339.7 809 c1.9 -2 2 -2.5 0.7 -3.4 -1.3 -1 -1 -1.6 1.8 -4.1 l3.3 -3 -2.7 3 c-2.4 2.6 -2.5 3.2 -1.2 4 1.3 0.9 1.1 1.4 -1.3 3.5 -2.8 2.4 -2.8 2.4 -0.6 0z"/>
  <path d="M335.6 806.2 c-0.3 -0.5 1 -2.4 2.9 -4.2 2.5 -2.5 3.1 -3.6 2.2 -4.2 -0.9 -0.6 -0.9 -0.8 0 -0.8 2.5 0 2.1 1.8 -1.2 5 -1.9 1.8 -3.2 3.7 -2.9 4.2 0.3 0.4 0.3 0.8 0 0.8 -0.3 0 -0.7 -0.4 -1 -0.8z"/>
  <path d="M329 797.7 c0 -0.2 1.5 -1.6 3.3 -3.3 l3.2 -2.9 -2.9 3.3 c-2.8 3 -3.6 3.7 -3.6 2.9z"/>
  <path d="M335 794.5 c1.9 -1.9 3.6 -3.5 3.9 -3.5 0.3 0 -1 1.6 -2.9 3.5 -1.9 1.9 -3.6 3.5 -3.9 3.5 -0.3 0 1 -1.6 2.9 -3.5z"/>
  <path d="M1331 533.5 c-2.6 -6.9 -3 -15.3 -3 -65.9 0 -59.2 -0.8 -51.4 7.5 -77.1 1.8 -5.5 4.3 -13.4 5.5 -17.5 1.3 -4.1 4.5 -14.2 7.1 -22.5 8 -25.3 9 -29.1 8.7 -33.6 l-0.3 -4.4 -43.5 0 -43.5 0 -0.6 65 c-0.4 49.3 -0.8 66 -1.8 69 -4.7 14.6 -15.9 26.6 -29.5 31.6 -4.3 1.6 -8.8 1.8 -42.5 1.9 -39.9 0 -42.9 -0.3 -52 -4.9 -2.4 -1.3 -7.3 -5.1 -10.9 -8.6 l-6.4 -6.3 -2.4 2.6 c-1.3 1.5 -2.4 3 -2.4 3.5 0 1.7 -12.5 9.7 -18.2 11.6 -5.8 2 -8.2 2.1 -43.2 2.1 -39.3 0 -42.5 -0.3 -51.5 -5 -6.1 -3.1 -14.8 -11.5 -18.3 -17.7 -1.7 -2.9 -3.2 -5.3 -3.3 -5.3 -0.2 0 -0.5 15.6 -0.6 34.8 -0.2 43.4 -0.2 45.3 -1.2 44.3 -2.4 -2.4 -2.9 -22.7 -2.5 -105.6 l0.3 -87 -42.7 -0.3 -42.7 -0.2 -0.3 51.7 c-0.4 49.5 -0.5 52.1 -2.5 58 -4.3 12.7 -13.3 23 -25.1 28.6 l-6.7 3.2 -38.8 0.3 c-35.7 0.2 -39.3 0.1 -45.1 -1.6 -11.2 -3.4 -21.9 -12 -26.8 -21.7 -1.1 -2.2 -2.4 -4.2 -2.7 -4.5 -1.3 -0.9 -3.1 -10.9 -3.7 -20.5 l-0.7 -9.6 -25.6 25.5 c-22.9 22.8 -26.4 25.8 -32.6 28.8 l-7 3.3 -107 0.3 c-79.5 0.2 -108.4 0 -112.5 -0.9 -11.2 -2.4 -13.8 -4.4 -45.6 -36.1 l-30.1 -30 -14.5 14.9 c-8 8.1 -16.2 16.6 -18.2 18.8 -22.3 23.9 -30.2 30 -41.9 32.5 -3.6 0.7 -45.8 1 -138.2 0.8 l-133 -0.3 -7.3 -3.4 c-12 -5.7 -22.1 -18.1 -25.7 -31.6 -1.3 -5.2 -1.5 -29.3 -1.5 -204.5 0 -214.9 -0.3 -202.6 5.5 -213.9 3.5 -6.9 12.6 -16.1 19.3 -19.5 11.5 -5.8 5.2 -5.6 144.9 -5.6 91.5 0 129.7 0.3 133.5 1.1 6.9 1.5 14.4 4.9 18.8 8.5 2.7 2.2 44.6 45.4 55.6 57.3 1.2 1.3 5.7 -2.8 31.6 -28.5 21 -20.7 31.9 -30.8 35.4 -32.6 11 -5.9 8.7 -5.8 119.6 -5.8 71 0 103.3 0.3 107 1.1 12.3 2.6 14.2 4.1 48.1 37.8 l31.7 31.6 30.2 -29.5 c16.5 -16.2 32.1 -31 34.6 -32.7 2.5 -1.8 7 -4.3 10.1 -5.5 l5.6 -2.3 101.4 -0.3 c112 -0.3 107.5 -0.5 119.3 6.1 4 2.2 14.2 11.4 33.2 29.9 l27.4 26.8 0.7 -8.8 c0.9 -12.1 3 -21.7 6.1 -28 3.6 -7.3 12.2 -16.3 19.2 -20 12.2 -6.5 4.8 -6.2 144.8 -6.2 80.9 0 129.1 0.4 132.5 1 11.9 2.2 16.6 5.7 41.1 29.7 12.5 12.3 23.1 22.3 23.6 22.3 0.4 0 2.3 -4.6 4.1 -10.2 1.8 -5.7 4.7 -13.1 6.4 -16.6 3.6 -7.4 11.6 -16 19 -20.2 11 -6.3 6.2 -6.1 146.7 -5.8 l127.5 0.3 5.7 2.3 c3.1 1.2 7.4 3.5 9.6 5 6.9 4.6 64.8 60.8 68.2 66.2 1.8 2.7 4.1 7.7 5.1 11.1 1.8 5.9 1.9 11.6 1.9 154.7 l0 148.7 -2.4 6.7 c-1.3 3.7 -4.2 9.2 -6.4 12.3 -5.1 7.3 -62.3 62.2 -68.5 65.8 -10.3 6.1 -1.3 5.7 -142.6 5.7 -71.3 0 -130.3 -0.2 -131.1 -0.4 -9.2 -1.8 -19.5 -7.5 -25.3 -13.8 l-3.8 -4.1 -4.2 4.2 c-5.5 5.7 -11.8 10 -18 12.3 -4.5 1.7 -8 1.9 -42.2 1.8 -40.8 0 -44.3 -0.4 -53.9 -6 -5.5 -3.1 -11.9 -9.3 -15.9 -15.4 l-2.5 -3.8 -1.6 3.1 c-0.9 1.7 -1.3 3.1 -0.9 3.1 0.5 0 0 0.5 -0.9 1.1 -0.9 0.5 -1.5 1.6 -1.2 2.3 0.3 0.7 -0.4 3 -1.6 5 -1.1 2.1 -1.6 3.4 -1 3.1 0.7 -0.4 0.3 1 -0.8 3.1 -1.1 2.2 -1.7 4.5 -1.4 5.3 0.2 0.8 0 1.1 -0.5 0.8 -0.5 -0.3 -0.9 0.2 -1 1.1 -0.1 1.6 -1.6 6 -4.4 12.7 -0.7 1.7 -1.4 3.9 -1.6 4.9 -0.2 1.1 -0.8 2.6 -1.5 3.3 -0.6 0.7 -0.8 1.6 -0.5 1.9 0.3 0.4 -0.3 2.4 -1.4 4.5 -1.1 2.2 -1.7 3.9 -1.4 3.9 0.3 0 -0.3 1.7 -1.4 3.8 -1 2 -2 4.2 -2 4.7 -0.4 2.4 -3.2 11.1 -4.1 12.5 -0.7 1.1 -1.1 0.8 -2 -1.5z m-1087 -212 l0 -11.5 -45 0 -45 0 0 11 0 10.9 6.8 0.4 c3.7 0.2 23.9 0.4 45 0.5 l38.2 0.2 0 -11.5z m370.7 -46.2 c-0.4 -31.8 -0.7 -73.4 -0.7 -92.5 l0 -34.7 -45.5 -0.1 -45.5 0 0 92 0 92 17.3 0.3 c9.4 0.1 30.2 0.4 46.1 0.5 l28.9 0.2 -0.6 -57.7z m1056.3 22.9 l0 -34.8 2.6 -5 c1.4 -2.7 3.3 -6.2 4.3 -7.9 1 -1.6 4.1 -7.5 7.1 -13 2.9 -5.5 5.6 -10.4 6 -11 0.4 -0.5 3.2 -5.7 6.2 -11.5 3.1 -5.8 8.9 -16.6 13 -24 4.1 -7.4 9.5 -17.3 11.8 -22 2.4 -4.7 5 -9.2 5.8 -10.1 0.8 -1 1.2 -3.4 1 -6 l-0.3 -4.4 -43.3 -0.3 c-34.7 -0.2 -43.3 0 -43.6 1 -0.3 0.7 -0.7 42.4 -1.1 92.6 l-0.7 91.2 15.6 0 15.6 0 0 -34.8z m-688 -129.1 l0 -21 -43 0 -43 -0.1 0 21 0 21 43 0 43 0 0 -20.9z m373.4 -8.8 c0.3 -2.1 0.6 -5.6 0.6 -7.8 l0 -4 -43.8 0 -43.7 0 -0.3 7.8 -0.3 7.7 43.4 0 43.4 0 0.7 -3.7z m-1112.4 -5.3 l0 -7 -44.7 0.3 -44.8 0.3 -0.3 6.7 -0.3 6.7 45.1 0 45 0 0 -7z"/>
 </g>
 <g fill="#ffffff">
  <path d="M77.8 1084.8 c-15.6 -14.9 -28.9 -28.1 -29.5 -29.2 -0.7 -1.2 -3.1 -6.7 -5.3 -12.3 l-4 -10.1 0 -141.9 c0.1 -109.3 0.3 -142.3 1.3 -143.9 0.7 -1.2 14.7 -14.4 31.2 -29.3 l30 -27.1 123.5 0 c107.4 0 123.8 0.2 125.7 1.5 1.2 0.8 4 6.3 6.7 13 4.4 11.1 5.2 14.7 4 17.8 -0.3 0.9 -8.3 8.7 -17.7 17.4 -9.5 8.7 -22.8 21 -29.6 27.3 l-12.4 11.5 -90.6 0.5 -90.6 0.5 0 121 0 121 77.5 0 77.5 0 0 -38 0 -38 -58.6 -0.3 -58.6 -0.2 -2.1 -2.3 c-3.2 -3.4 -11 -24 -10.4 -27.7 0.3 -2.4 6.4 -8.9 28.9 -31 l28.4 -28 70.3 0 70.3 0 2.1 2.3 c1.2 1.3 4.1 6.8 6.4 12.2 l4.3 10 0.3 84.5 c0.2 55.4 0 85.7 -0.7 88 -0.8 2.6 -7.8 10.2 -28.4 30.8 l-27.3 27.2 -97.2 0 -97.1 0 -28.3 -27.2z"/>
  <path d="M413.7 1109.6 c-1.1 -1.3 -4 -7.2 -6.3 -13.2 l-4.3 -10.9 0 -168 c0 -129.9 0.2 -168.5 1.2 -170.2 0.7 -1.1 13.7 -14.3 28.9 -29.2 l27.7 -27.1 97.5 0 97.5 0 28.4 28 28.5 28 4.3 10.3 4.4 10.2 0.3 168 c0.1 92.4 0 169 -0.3 170.3 -0.3 1.2 -1.4 3.1 -2.5 4.2 -1.9 1.9 -3.5 2 -33.9 2 l-32 0 -1.9 -2.5 c-1.1 -1.4 -3.7 -6.7 -5.8 -11.8 l-3.9 -9.2 -0.5 -59 -0.5 -59 -78 0 -78 0 -0.5 68.6 c-0.5 65.8 -0.6 68.8 -2.4 70.8 -1.9 2.1 -2.7 2.1 -33.8 2.1 l-32 0 -2.1 -2.4z m227.1 -279.3 l-0.3 -49.8 -78 0 -78 0 -0.3 49.8 -0.2 49.7 78.5 0 78.5 0 -0.2 -49.7z"/>
  <path d="M787.3 1110.5 c-1.2 -0.8 -4 -6.3 -6.7 -13 l-4.6 -11.5 0 -182.9 0 -183 2.3 -2.4 c2.2 -2.5 68.1 -33.7 71.1 -33.7 3.3 0 6.9 2.6 8.8 6.4 1.2 2.3 27.6 59.3 58.8 126.8 l56.7 122.8 52.3 -107.8 c28.8 -59.2 56.5 -116.3 61.7 -126.8 9.4 -19.3 11 -21.4 16.1 -21.4 2.6 0 66.4 30.9 68.8 33.4 1.2 1.1 4 6.8 6.3 12.6 l4.1 10.5 0 183.6 0 183.6 -2.3 2.1 c-2.3 2.2 -2.9 2.2 -32.4 2.2 l-30.2 0 -1.9 -2.5 c-1.1 -1.4 -3.7 -6.7 -5.8 -11.8 l-3.9 -9.2 -0.5 -114.4 -0.5 -114.5 -44.9 96.8 c-27.4 59 -45.7 97.3 -47 98.2 -1.7 1.1 -7.6 1.4 -32.4 1.4 l-30.4 0 -2.6 -2.9 c-1.6 -1.8 -21.3 -44.7 -48.2 -105.1 l-45.5 -102.2 -0.5 130.3 c-0.5 135.5 -0.5 133.7 -4.6 135.3 -0.8 0.3 -14.7 0.6 -30.8 0.6 -24.1 0 -29.5 -0.3 -31.3 -1.5z"/>
  <path d="M1248.8 1109.8 c-1.1 -1.3 -3.9 -7.2 -6.4 -13.1 l-4.4 -10.8 0 -195 0 -195 2.5 -2.4 2.4 -2.5 138.6 0 138.6 0 2.3 2.3 c2.8 2.8 10.6 22.4 10.6 26.7 0 3.7 -1.9 5.9 -33.9 38.3 l-21.6 21.7 -79.2 0 -79.3 0 0 36 0 36 86.5 0 c95.6 0 90.7 -0.3 93.9 6.4 4.6 9.8 8.7 22 8.1 24.5 -0.4 1.6 -11.4 13.4 -28.8 30.9 l-28.2 28.2 -65.7 0 -65.8 0 0 40.5 0 40.5 100.4 0 c94.1 0 100.5 0.1 102.5 1.8 2.8 2.2 11.1 22.4 11.1 26.9 0 4.1 -1.4 5.6 -33.9 38.6 l-21.6 21.7 -113.3 0 -113.4 0 -2 -2.2z"/>
  <path d="M1541.3 1109.8 c-3 -3.3 -10.5 -21.7 -10.5 -25.9 -0.1 -2 0.6 -4.7 1.5 -5.9 0.8 -1.2 13.3 -14.1 27.7 -28.6 l26.2 -26.4 104.4 0 104.4 0 0 -41 0 -41 -85.5 0 -85.5 0 -27 -26.2 -26.9 -26.2 -4.6 -11.3 -4.5 -11.3 0 -59 0 -59 3.7 -4.1 c2 -2.2 15 -15 28.9 -28.5 l25.2 -24.4 139.5 0 139.5 0 2.4 2.8 c3.7 4.5 11.2 24.5 10.4 27.9 -0.4 1.5 -3.3 5.3 -6.4 8.3 -3.2 3 -16.2 15.5 -28.9 27.8 l-23.1 22.2 -105.1 0 -105.1 0 0 35.5 0 35.5 83.8 0 83.7 0 13.4 13.7 c7.3 7.6 20.3 21.1 28.8 30 l15.4 16.2 4.5 11 4.4 11.1 0 59.6 0 59.5 -17.9 18.7 c-9.8 10.3 -22.8 23.8 -28.7 30 l-10.9 11.2 -137.6 0 -137.6 0 -2 -2.2z"/>
  <path d="M57.4 461.3 c-3.6 -0.7 -6 -4.3 -10.6 -15.3 l-4.3 -10.5 0 -195.2 0 -195.1 2.4 -2.6 2.4 -2.6 127.1 0 127.1 0 11.4 11.7 c6.2 6.5 18.3 19.1 26.8 28 l15.4 16.2 4.5 11 4.4 11.1 0 54.8 0 54.8 -4.2 4 c-2.4 2.2 -7.7 6.9 -11.8 10.4 -4.1 3.4 -7.6 6.6 -7.8 7 -0.2 0.4 3.1 3.9 7.3 7.7 7.2 6.7 7.7 7.5 12 18.1 l4.5 11.2 0 59 0 59 -6.9 7.7 c-3.8 4.3 -16.2 17.3 -27.4 28.8 l-20.4 21 -124.9 0.1 c-68.7 0.1 -125.9 0 -127 -0.3z m225.6 -129.8 l0 -40.5 -79.7 0.2 -79.8 0.3 -0.3 39 c-0.1 21.4 0 39.6 0.3 40.2 0.3 1 17.2 1.3 80 1.3 l79.5 0 0 -40.5z m0 -166 l0 -35.5 -80 0 -80 0 0 35.5 0 35.5 80 0 80 0 0 -35.5z"/>
  <path d="M476.5 460.6 c-1.6 -0.8 -15 -13.5 -29.8 -28.3 l-26.7 -26.9 -4.5 -10.8 -4.5 -10.8 0 -143.6 0 -143.7 28.3 -28.2 28.2 -28.3 101 0 100.9 0 27.8 27.7 27.8 27.7 4.5 11.3 4.5 11.3 0 143.2 0 143.2 -28.5 28.6 -28.5 28.5 -98.7 0.2 c-82 0.2 -99.3 0 -101.8 -1.1z m176.5 -209.6 l0 -121 -80.5 0 -80.5 0 0 121 0 121 80.5 0 80.5 0 0 -121z"/>
  <path d="M799.4 461.3 c-3.6 -0.7 -6 -4.3 -10.3 -15.1 l-4.1 -10.2 0 -169.9 0 -169.9 28.6 -28.1 28.7 -28.1 97.4 0 97.4 0 27.7 27.1 c15.2 14.9 28.2 27.8 28.8 28.8 0.7 1 3.1 6.4 5.3 12 l4.1 10.1 0 169 0 168.9 -2.4 2.8 -2.4 2.8 -28.9 0.3 c-30.6 0.4 -35 -0.1 -37.5 -4.1 -0.8 -1.2 -3.4 -7 -5.6 -12.9 l-4.2 -10.6 0 -57.6 0 -57.6 -78.2 0.2 -78.3 0.3 -0.2 68 c-0.2 49.1 -0.6 68.6 -1.4 70.2 -0.7 1.2 -2.5 2.7 -4.2 3.3 -2.9 1 -55.5 1.3 -60.3 0.3z m222.6 -281.3 l0 -50 -78.5 0 -78.5 0 0 49.3 c0 27.2 0.3 49.7 0.7 50 0.3 0.4 35.7 0.7 78.5 0.7 l77.8 0 0 -50z"/>
  <path d="M1170.4 460.6 c-3.3 -1.5 -4.1 -2.9 -9.8 -17.2 l-3.6 -9.1 0 -193.7 c0 -206.8 -0.2 -198.2 4.5 -200 0.9 -0.3 58.3 -0.6 127.4 -0.6 l125.8 0 26.9 26.4 27 26.4 4.2 10.6 4.2 10.7 0 57.8 c0 44.7 -0.3 58.1 -1.2 59.3 -0.7 0.8 -6.2 5 -12.3 9.2 -6 4.3 -11.1 8.1 -11.3 8.5 -0.1 0.4 3.3 3.6 7.7 7 4.4 3.5 8.2 6.8 8.4 7.4 0.3 0.7 2.4 5.7 4.6 11.1 l4.1 9.9 0 86.2 0 86.2 -2.6 2.4 -2.6 2.4 -30.8 0 -30.8 0 -2.5 -2.3 c-1.4 -1.3 -4.5 -7.4 -7.1 -14.2 l-4.6 -11.9 0 -70.1 0 -70 -78.7 0.2 -78.8 0.3 -0.5 81.7 -0.5 81.7 -2.3 2.3 c-2.2 2.3 -2.5 2.3 -32 2.5 -23.4 0.2 -30.4 0 -32.8 -1.1z m225.6 -294.1 l0 -36.5 -79 0 -79 0 0 36.5 0 36.5 79 0 79 0 0 -36.5z"/>
  <path d="M1543.3 461.3 c-3.4 -0.6 -5.8 -4.4 -10.3 -15.8 l-4 -10.3 0 -195.2 0 -195.1 2.5 -2.4 2.4 -2.5 124.1 0 124 0 28.3 27.2 c15.5 14.9 28.7 27.9 29.3 28.7 0.6 0.9 2.9 6.3 5.2 12.1 l4.2 10.5 0 142.2 c0 78.2 -0.3 142.8 -0.6 143.6 -0.9 2.4 -56.2 55.1 -59.2 56.4 -2.1 0.9 -31.2 1.2 -123.2 1.1 -66.3 0 -121.5 -0.3 -122.7 -0.5z m224.7 -210.3 l0 -121 -79 0 -79 0 0 121 0 121 79 0 79 0 0 -121z"/>
 </g>
</svg>