<?xml version="1.0" encoding="UTF-8" standalone="no"?>
<svg
   height="485.87411"
   width="923.07715"
   viewBox="-51.1389 -44.86275 340.92608 163.48237"
   version="1.1"
   id="svg8"
   sodipodi:docname="blizzard.svg"
   inkscape:version="1.2 (dc2aedaf03, 2022-05-15)"
   xmlns:inkscape="http://www.inkscape.org/namespaces/inkscape"
   xmlns:sodipodi="http://sodipodi.sourceforge.net/DTD/sodipodi-0.dtd"
   xmlns="http://www.w3.org/2000/svg"
   xmlns:svg="http://www.w3.org/2000/svg">
  <defs
     id="defs12" />
  <sodipodi:namedview
     id="namedview10"
     pagecolor="#ffffff"
     bordercolor="#000000"
     borderopacity="0.25"
     inkscape:showpageshadow="2"
     inkscape:pageopacity="0.0"
     inkscape:pagecheckerboard="0"
     inkscape:deskcolor="#d1d1d1"
     showgrid="false"
     inkscape:zoom="1.04625"
     inkscape:cx="462.60454"
     inkscape:cy="259.02031"
     inkscape:window-width="1920"
     inkscape:window-height="1017"
     inkscape:window-x="-8"
     inkscape:window-y="-8"
     inkscape:window-maximized="1"
     inkscape:current-layer="svg8" />
  <path
     d="m -50.702988,113.49595 h 8.957 v 2.412 h -5.519 v 2.604 h 5.21 v 2.45 h -5.21 v 2.94 h 5.726 v 2.486 h -9.164 z m 316.589998,0 h 9.822 v 2.576 h -3.192 v 10.316 h -3.438 v -10.316 h -3.192 z m -29.186,0 h 4.292 l 3.736,7.73 c 0.126,0.26 0.276,0.622 0.446,1.084 0.17,0.464 0.356,1.03 0.564,1.7 a 22.98,22.98 0 0 1 -0.242,-1.75 15.135,15.135 0 0 1 -0.078,-1.462 v -7.302 h 3.104 v 12.892 h -4.274 l -3.88,-8.012 c -0.184,-0.368 -0.35,-0.768 -0.502,-1.202 a 17.75,17.75 0 0 1 -0.416,-1.412 c 0.122,0.768 0.212,1.474 0.268,2.118 0.058,0.644 0.086,1.214 0.086,1.704 v 6.804 h -3.104 z m -24.982,0 h 8.958 v 2.412 h -5.52 v 2.604 h 5.21 v 2.45 h -5.21 v 2.94 h 5.726 v 2.486 h -9.164 z m -31.11,0 h 4.994 l 2.242,7.748 c 0.09,0.31 0.158,0.654 0.214,1.038 0.056,0.384 0.096,0.798 0.122,1.238 0.042,-0.476 0.096,-0.916 0.156,-1.32 a 9.68,9.68 0 0 1 0.216,-1.03 l 2.246,-7.674 h 4.914 v 12.892 h -3.074 v -8.656 c 0,-0.412 0.012,-0.836 0.036,-1.28 0.024,-0.442 0.056,-0.912 0.102,-1.414 -0.078,0.386 -0.164,0.758 -0.25,1.112 -0.086,0.352 -0.18,0.688 -0.278,1.004 l -2.762,9.234 h -2.936 l -2.702,-9.084 a 16.378,16.378 0 0 1 -0.268,-1.046 c -0.086,-0.384 -0.168,-0.79 -0.242,-1.22 0.042,0.61 0.074,1.162 0.1,1.648 0.026,0.486 0.038,0.854 0.038,1.102 v 8.6 h -2.868 z m -27.896,0 h 4.292 l 3.736,7.73 c 0.126,0.26 0.276,0.622 0.446,1.084 0.17,0.464 0.356,1.03 0.564,1.7 a 22.98,22.98 0 0 1 -0.242,-1.75 15.102,15.102 0 0 1 -0.078,-1.462 v -7.302 h 3.104 v 12.892 h -4.274 l -3.88,-8.012 c -0.18,-0.37 -0.352,-0.768 -0.502,-1.202 a 16.95,16.95 0 0 1 -0.416,-1.412 c 0.122,0.768 0.21,1.476 0.266,2.118 0.058,0.644 0.088,1.216 0.088,1.704 v 6.804 h -3.104 z m -20.16,0 h 3.438 v 12.892 h -3.438 z m -21.67,2.876 -1.669,4.836 h 3.283 z m -2.006,-2.876 h 4.147 l 4.88,12.892 h -3.673 l -0.916,-2.732 h -4.965 l -0.96,2.732 h -3.403 z m -28.192998,0 h 9.823 v 2.576 h -3.193 v 10.316 h -3.437 v -10.316 h -3.193 z m -21.72,2.266 v 3.304 h 1.208 c 0.744,0 1.301,-0.132 1.673,-0.402 0.371,-0.27 0.557,-0.674 0.557,-1.214 0,-0.578 -0.207,-1.006 -0.622,-1.278 -0.412,-0.274 -1.069,-0.41 -1.964,-0.41 z m -3.366,-2.266 h 5.126 c 1.706,0 2.973,0.276 3.796,0.83 0.827,0.554 1.24,1.396 1.24,2.526 0,0.836 -0.217,1.522 -0.654,2.06 -0.437,0.54 -1.065,0.898 -1.886,1.082 0.675,0.246 1.22,0.95 1.632,2.11 v 0.01 l 1.542,4.274 h -3.583 l -1.133,-3.53 c -0.183,-0.566 -0.431,-0.96 -0.744,-1.18 -0.315,-0.218 -0.805,-0.326 -1.47,-0.326 h -0.5 v 5.036 h -3.366 z m -25.585,0 h 8.956 v 2.412 h -5.519 v 2.604 h 5.21 v 2.45 h -5.21 v 2.94 h 5.727 v 2.486 h -9.164 z m -25.8759998,0 h 9.8239998 v 2.576 h -3.193 v 10.316 H 7.3310122 v -10.316 h -3.193 z m -29.2540002,0 h 4.292 l 3.735,7.73 c 0.127,0.26 0.276,0.622 0.446,1.084 0.17,0.464 0.357,1.03 0.564,1.7 a 23.465,23.465 0 0 1 -0.241,-1.75 14.874,14.874 0 0 1 -0.078,-1.462 v -7.302 h 3.103 v 12.892 h -4.273 l -3.88,-8.012 c -0.183,-0.368 -0.35,-0.768 -0.502,-1.202 a 17.115,17.115 0 0 1 -0.415,-1.412 c 0.121,0.768 0.21,1.474 0.266,2.118 0.06,0.644 0.087,1.214 0.087,1.704 v 6.804 h -3.103 z"
     stroke="#000000"
     stroke-width="0.432"
     id="path2"
     style="fill:#f9f9f9" />
  <path
     d="m 35.608012,74.109954 c 0,0 0.7,3.078 2.424,1.918 1.726,-1.158 2.425,-2.896 4.15,-2.896 1.725,0 8.917,-1.352 10.642,0 1.725,1.352 1.898,0.192 2.76,0.192 0.863,0 3.397,0.45 3.397,0.45 2.206,-0.23 1.756,-3.736 0.162,-4.762 -2.3,-1.802 -5.398,-2.96 -7.699,-4.764 l -0.69,-5.214 1.898,-2.704 v -8.69 l -1.035,-2.317 -0.346,-6.566 -0.862,-1.159 v -2.51 c 0.575,-0.837 1.74,-1.673 2.316,-2.51 0.172,-1.61 -0.6,-2.746 -0.427,-4.355 -0.402,-2.06 -0.451,-4.593 -0.854,-6.653 v -7.531 c 1.67,-0.498 2.073,-1.237 2.193,-1.986 0.153,-0.963 -0.319,-2.097 -0.813,-4.387 -0.23,-12.037 -0.342,-24.548 -0.572,-36.586 0.918,-1.439 2.018,-2.183 2.042,-3.249 0.018,-0.83 -0.873,-1.521 -1.987,-2.457 v -2.51 c 0,0 1.898,-3.863 3.45,-3.863 1.553,0 2.588,-1.158 2.588,-2.317 1.417,-2.815 -1.552,-3.09 -1.552,-3.09 -3.287,-0.068 -7.01,0.1 -10.215,0.032 -2.828,-0.06 -5.15,-0.358 -7.9,-0.418 l -3.624,0.193 c -2.969,0.901 -2.345,2.513 -1.208,3.413 1.38,0.87 2.558,1.864 4.14,1.898 1.932,0.04 3.47,0.673 4.141,2.606 l 0.518,23.174 c 0.058,5.6969997 0.233,11.395 0.29,17.09 0.058,5.697 -0.002,11.394 0.055,17.091 l 0.345,20.084 c 0,0 -0.345,2.51 -0.863,3.09 -0.517,0.58 -0.345,5.6 -0.345,5.6 1.911,1.665 1.505,1.432 0.173,3.67 l -0.345,14.869 -1.38,2.704 c 0,0 -4.967,2.91 -4.967,5.42 z m -83.554,24.006 c -2.558,-0.526 -3.038,-1.764 -2.13,-2.494 0.546,-0.438 2.004,-0.422 2.659,-0.728 0.96,-0.452 1.939,-1.044 2.516,-1.758 0.987,-1.222 0.388,-4.05 1.566,-6.354 1.131,-9.72 1.47,-22.598 0.34,-26.93 -0.68,-6.677 0.017,-28.854 0.017,-31.665 0.752,-1.35 1.034,-1.46 1.04,-3.826 0.002,-0.925 0.624,-2.364 -0.039,-3.508 -0.961,-1.098 -0.67,-5.39 -0.746,-7.808 -0.111,-3.601 0.153,-3.571 1.155,-6.834 0.377,-1.227 0.505,-2.687 0,-3.864 -0.816,-1.90200005 -1.997,0.295 -1.918,-3.524 0.192,-9.27 0.538,-18.594 0.294,-27.86 0.053,-0.825 1.428,-0.976 1.697,-1.756 0.342,-0.993 0.456,-2.22 0,-3.162 -0.258,-0.534 -1.702,0.16 -2.125,-0.244 -2.59,-2.474 -5.842,-4.028 -7.342,-7.328 -0.582,-1.28 0.356,-4.113 1.589,-4.725 2.042,-1.015 5.84,0.034 8.075,-0.351 1.201,-0.207 1.962,-0.922 3.179,-0.976 9.494,-0.418 19.263,-1.367 28.7230002,-0.43 1.514,0.15 2.013,2.822 3.393,3.485 1.892,0.909 4.66,0.714 6.10999996,2.266 2.32400004,2.486 3.99200004,4.534 4.28700004,7.98 0.362,4.23 1.088,9.02 1.053,12.268 -0.03,2.72 -0.848,5.176 -2.06,7.516 -1.662,3.206 -3.64000004,6.1989997 -5.78,9.3669997 -1.235,1.8250003 -3.432,3.5200003 -3.949,5.60200025 -0.534,2.15300005 5.026,0.57300005 6.16399996,2.45700005 1.093,1.812 -0.93299996,3.934 -0.322,5.976 0.546,1.82 3.69900004,1.998 4.07300004,3.864 0.965,4.817 -1.165,9.911 -0.34,14.756 0.265,1.551 2.726,1.606 2.965,3.162 0.29,3.362 0.187,6.92 0.213,10.491 0.027,3.802 0.175,7.62 0.126,11.234 -0.093,1.362 -1.877,2.159 -2.036,3.513 -0.425,3.606 0.814,7.678 0.018,11.214 -0.839,3.724 -3.83300004,6.354 -5.00000004,9.982 -1.01299996,3.142 -0.72599996,7.73 -2.35799996,9.7 -2.7,0.848 -6.06,2.748 -8.1880002,4.332 -3.108,2.312 -5.094,4.962 -6.05,5.046 -1.214,1.08 -3.782,0.358 -5.287,0.92 -1.388,0.516 -1.519,1.68 -2.983,1.49 -1.155,-0.148 -0.795,-1.108 -1.697,-1.87 -0.524,-0.446 -1.534,-0.474 -2.036,0 -3.046,2.452 -0.774,1.81 -4.233,1.49 -3.514,-0.324 -10.354,0.76 -14.632,-0.116 z m 19.686,-14.102 2.376,-4.568 -0.68,-15.106 c 0.68,-0.938 1.359,-1.874 2.037,-2.812 v -15.217 c 0,-2.306 -0.321,-4.612 -0.321,-6.917 -2.383,-1.97 -1.243,-1.942 0.678,-4.216 0,-2.224 0.537,-4.02 0.537,-6.245 l -0.68,-5.621 1.02,-2.81 c 0,-2.818 0.32,-5.099 0.32,-7.917 0,-2.646 0.077,-3.532 0.561,-3.366 0.484,0.165 1.375,1.384 3.003,2.95 l 3.712,3.568 c 2.285,2.196 4.51,2.396 3.584,5.994 -0.865,3.367 1.623,4.3 0.85,7.642 -0.591,2.551 -1.368,4.112 -1.196,5.694 0.103,0.949 0.548,1.906 1.577,3.09 0.9510002,1.093 1.2680002,1.025 0.7,2.37 -0.882,2.086 -1.634,3.303 -1.722,4.555 -0.113,1.609 0.763,2.349 1.532,5.191 0.6300002,2.325 0.5700002,3.867 -0.012,6.199 l -2.068,8.298 c -0.078,2.092 -0.269,4.186 -0.417,6.28 -0.225,3.19 -0.65,3.272 -2.868,5.552 -2.016,2.072 -4.61,3.844 -6.553,5.696 -2.15,0.82 -3.822,0.896 -5.97,1.716 z m 5.192,-88.77 c 1.722,0.05 2.492,0.221 3.026,0.001 0.534,-0.2200003 0.832,-0.8310003 1.61,-2.3420003 1.007,-1.953 2.496,-4.3939997 3.732,-4.5779997 2.082,-0.309 3.168,-0.618 3.168,-0.618 0,0 1.09,-0.207 0.716,-2.891 -0.373,-2.685 -1.14,-5.267 -0.464,-5.99 0.677,-0.722 0.82,-2.787 0.1,-3.613 -0.72,-0.826 -1.404,-1.652 -0.242,-2.788 1.163,-1.135 1.9650002,-3.037 -0.814,-2.727 -2.778,0.31 -2.743,-0.892 -3.064,-1.719 -0.322,-0.826 -3.352,-0.637 -4.936,-0.728 -1.583,0.31 -2.914,0.206 -2.868,1.858 0.046,1.652 -0.22,9.615 -0.198,10.44 0.023,0.827 0.234,15.695 0.234,15.695 z m 87.876,72.482 c -0.124,0.702 -1.735,0.706 -1.612,1.41 0.174,0.982 0.238,2.516 1.228,2.644 2.87,0.372 6.804,-0.77 9.65,-0.244 1.123,0.208 1.185,2.124 2.215,2.618 0.847,-0.014 2.15,0.016 3.223,0 0.827,-0.43 0.604,-1.946 1.41,-2.416 0.992,-0.58 2.346,-0.8 3.424,-0.404 0.581,0.214 -0.211,1.74 0.403,1.814 5.02,-0.19 9.506,0.36 14.256,0 0.948,-0.156 -0.018,-1.514 0.759,-2.078 0.882998,-0.642 3.073998,0.478 3.222998,-0.604 0.771,-5.594 -0.433,-11.84 0.092,-17.461 0.168,-1.8 1.895,-2.867 2.281,-4.633 0.129,-0.588 0.834,-0.599 0.89,-1.178 0.195,-2.017 0.16,-4.464 -0.35,-6.45 -0.678,-0.694 -2.746,-0.947 -3.425,-0.63 -0.765,0.562 -0.07,2.561 -0.583,3.36 -0.254,0.395 -1.158,-0.397 -1.41,0 -0.247,0.389 0.073,1.028 0.186,1.534 0.068,0.302 0.062,0.558 -0.186,0.681 -1.319998,0.66 -3.265998,-0.906 -4.430998,0 -1.144,0.89 0.14,2.611 -0.827,3.69 -1.569,1.748 -4.93,2.772 -6.493,4.526 -1.857,2.085 -1.692,4.213 -3.826,6.013 -1.672,1.408 -4.511,1.556 -6.536,2.378 -2.348,0.954 -3.469,2.712 -5.907,3.398 -0.737,0.208 -1.635,-1.08 -1.41,-1.812 1.827,-5.922 4.201,-11.876 6.173,-17.752 1.265,-3.77 1.86,-6.147 3.226,-9.882 1.415,-3.864 3.262,-8.641 5.572,-12.048 0.455,-0.67 1.972,-0.233 2.216,-1.007 0.604,-1.921 -0.526,-4.099 0,-6.043 0.389,-1.438 1.904,-2.82 3.157,-3.625 0.847,-0.545 2.2,0.214 2.573,-0.721 0.873,-2.182 0.057,-4.494 0.607,-6.78 0.37,-1.54 1.428,-2.483 2.101,-3.917 0.893,-1.90300005 0.828,-3.555 1.813,-5.413 0.802,-1.511 2.489998,-3.6260003 2.974998,-5.2670003 0.668,-2.2539997 0.12,-3.3599997 0.338,-5.6999997 0.058,-0.63 0.981,-0.979 1.007,-1.611 0.313,-7.58 0.714,-15.187 0.27,-22.761 -0.037,-0.618 -1.423,-0.591 -1.41,-1.209 0.047,-2.315 0.328,-4.36 0.2,-6.446 -0.024,-0.407 0.117,-0.741 -0.29,-0.758 -6.307998,-0.265 -12.532998,-0.121 -18.844998,-0.047 -5.17,0.06 -10.353,-0.355 -15.51,0 -0.78,0.053 -1.48,0.187 -2.014,0.758 -0.513,0.547 -0.768,1.716 -0.738,2.464 0.136,3.367 -0.068,7.031 0,11.079 0.012,0.75 1.49,0.301 1.745,1.007 0.71,1.967 0.764,4.16 0.604,6.244 -0.05,0.67 -0.865,1.572 -0.85,2.242 0.324,2.33 0.626,3.977 1.052,6.218 0.244,0.867 0.99,1.544 1.208,2.418 0.26,1.044 -0.691,3.153 0.381,3.222 0.357,0.023 1.6,0.231 2.238,0 0.82,-0.297 -0.302,-1.8 0,-2.618 0.213,-0.58 1.312,-0.598 1.41,-1.209 0.532,-3.316 -0.393,-7.203 0.133,-10.521 0.16,-1.012 0.74,-2.08 1.611,-2.619 0.742,-0.459 2.083,0.689 2.62,0 0.742,-0.955 0.011,-2.056 0.47,-3.175 a 11.678,11.678 0 0 1 3.021,-4.23 c 1.19,-1.057 2.38,-2.322 3.96,-2.487 3.538,-0.367 7.768,-0.038 12.558,-0.244 0.449,-0.02 0.57,0.67 0.604,1.12 0.17,2.208 0.571,5.21 0,6.646 -0.83,2.086 -2.706,4.414 -4.61,6.58 -1.304,1.48 -2.622,2.792 -3.627,4.276 -1.205,1.78 0.595,4.207 -0.022,6.266 -0.631,2.106 -2.357,4.3439997 -3.694,6.0899997 -1.096,1.432 -2.709,2.165 -3.737,3.6470003 -1.283,1.85 -2.03,3.67199995 -2.842,5.773 -0.674,1.747 -1.108,3.59 -1.41,5.438 -0.238,1.46 0.46,3.11 -0.2,4.432 -0.485,0.968 -1.578,0.79 -2.282,1.611 -0.977,1.14 -1.549,2.602 -2.014,4.029 -0.551,1.69 -0.597,2.691 -1.457,4.247 -0.965,1.745 -2.902,3.43 -3.78,5.22 -0.958,1.952 -1.068,4.325 -1.547,6.446 -0.463,2.05 -0.85,3.983 -1.273,6.042 -0.52,2.521 -1.06,5.082 -1.008,7.655 0.016,0.783 0.844,1.322 1.21,2.014 0.307,0.585 1.014,1.186 0.805,1.813 -0.286,0.857 -1.887,0.919 -2.015,1.813 -0.131,0.923 0.104,1.776 0.782,2.418 0.59,0.556 1.792,0.314 2.215,1.006 0.456,0.746 0.374,1.83 0,2.618 -0.31,0.658 -1.4,0.498 -1.543,1.21 -0.58,2.898 0.132,4.962 -0.381,7.872 z m 174.644998,28.546 c -0.378,-1.2 0.566,-1.434 1.194,-2.06 0.918,-0.916 1.806,-1.81 2.17,-3.614 0.138,-0.684 0.838,-1.79 1,-2.886 0.238,-1.6 -0.126,-3.268 -0.562,-4.302 -0.572,-1.354 -1.51,-2.06 -1.17,-3.352 0.12,-0.826 1.988,-0.928 3.46,-1.582 0.772,-0.342 1.434,-1.012 1.68,-1.642 0.322,-0.83 -0.75,-0.688 -1.296,-1.742 -0.582,-1.122 -0.668,-2.802 -1.116,-3.638 -0.782,-1.456 -2.212,-3.41 -2.264,-5.064 -0.14,-4.412 1.138,-8.866 1.302,-13.111 0.138,-3.56 0.98,-4.408 0.708,-8.056 -0.134,-1.816 -1.11,-3.138 -2.118,-4.992 -0.834,-1.537 -1.93,-3.057 -2.35,-4.507 -0.746,-2.58 0.004,-5.637 -0.448,-8.284 -0.088,-0.519 -1.388,-1.153 -1.436,-1.678 -0.336,-3.633 0.074,-7.354 -0.16,-10.948 -0.12,-0.676 -0.668,-0.805 -0.732,-1.489 -0.19,-2.014 -0.002,-3.976 -0.008,-5.718 -0.006,-1.537 -0.218,-2.85 -0.218,-4.636 0,-0.665 -0.552,-1.121 -0.574,-1.787 -0.134,-3.93 0.03,-8.2690003 -0.022,-12.205 -0.056,-4.19 -0.312,-7.978 0.022,-12.15 0.058,-0.704 1.48,-0.687 1.452,-1.391 -0.132,-3.198 -0.408,-4.47 -0.334,-7.685 0.008,-0.371 0.768,-1.233 0.798,-1.603 0.222,-2.676 0.554,-5.354 -0.128,-7.643 -0.492,-1.659 -1.736,-2.175 -3.164,-3.245 -1.26,-0.945 -2.666,-2.481 -3.832,-3.342 -1.492,-1.103 -2.486,-1.99 -3.616,-3.64 -0.68,-0.995 0.442,-1.081 1.694,-1.118 1.608,-0.047 3.364,0.093 4.894,0.333 0.518,0.081 1.492,0.974 1.982,1.163 1.18,0.458 1.952,-0.136 3.16,0.24 0.922,0.289 4.772,2.296 5.808,2.893 1.416,0.816 1.874,2.001 3.352,2.694 0.266,0.124 4.832,1.431 5.362,1.564 1.236,0.309 2.004,-0.595 3.24,-0.287 1.436,0.358 3.99,1.082 5.602,1.564 0.908,0.272 1.482,1.345 2.412,1.53 4.51,0.9 3.704,-0.603 7.276,2.968 1.052,1.053 2.79,1.898 3.574,3.163 1.108,1.784 1.224,3.972 1.928,5.917 0.548,1.512 1.772,2.754 2.062,4.36 0.782,4.325 -0.034,8.822 0.496,13.184 0.162,1.332 1.532,2.7379997 1.676,4.0719997 0.546,5.1100003 0.638,10.1560003 0.016,15.2570003 -0.21,1.72 -1.658,2.42 -1.916,4.132 -0.43,2.873 0.428,5.816 0.224,8.714 -0.096,1.388 -0.868,2.837 -1.596,4.022 -0.532,0.863 -1.748,1.174 -2.138,2.108 -1.026,2.452 -0.768,5.804 -1.244,8.461 -0.148,5.071 -0.044,9.005 0.174,14.073 0.154,3.572 0.52,6.779 0.064,10.325 -0.16,1.228 -1.188,1.902 -1.372,3.128 -0.508,3.388 -0.072,6.868 -0.4,10.278 -0.056,0.58 -0.916,1.252 -1.038,1.822 -0.228,3.116 -0.446,7.664 -1.804,11.172 -0.894,2.314 -3.068,4.646 -5.156,5.986 -2.022,1.298 -4.196,1.578 -6.526,2.172 -1.472,0.374 -3.12,0.194 -4.468,0.892 -0.808,0.42 -0.266,0.426 -1.004,0.954 -0.426,0.302 -1.162,0.328 -1.564,0 -0.568,-0.466 -0.392,-0.656 -1.054,-0.97 -1.01,-0.478 -2.326,-0.44 -3.352,0 -0.74,0.318 -0.47,0.896 -1.262,1.05 -1.598,0.312 -3.47,0.716 -5.198,0.67 -1.034,-0.026 -1.85,0.44 -2.142,-0.494 z m 14.998,-114.745 c 2.244,-0.118 2.684,-0.24 4.682,0.833 2.066,1.108 2.498,1.839 3.76,3.84 l 1.952,1.884 c 2.654,2.5619997 3.906,6.1769997 4.99,9.565 0.178,3.678 0.968,10.122 -0.868,13.46 -0.916,1.665 -1.278,2.951 -1.434,4.365 -0.434,3.955 -1.556,3.337 -2.698,6.332 -0.31,0.813 -0.242,1.824 -0.27,3.752 l -0.302,20.657 c -0.064,4.4 -0.892,6.498 -2.67,10.56 -1.044,1.943 -1.592,3.195 -1.592,5.399 0,2.612 -0.534,3.816 -1.572,6.196 l -1.898,4.348 c -0.75,1.718 -1.438,2.334 -1.936,2.104 -0.498,-0.228 -0.806,-1.306 -0.798,-2.974 l 0.132,-25.216 0.288,-26.81 c -0.112,-1.92 -0.04,-2.345 -1.3,-3.768 -0.118,-2.893 -0.676,-4.202 -1.592,-6.956 -1.156,-2.172 -1.024,-3.756 -1.052,-6.24 l -0.218,-18.633 c -0.044,-3.812 0.818,-2.509 4.396,-2.698 z m -146.473,106.859 c -0.69,-3.38 -0.207,-6.066 -0.026,-8.608 0.086,-0.606 1.309,-0.04 1.641,-0.552 0.496,-0.766 0.943,-1.816 0.616,-2.668 -0.197,-0.51 -0.544,0.194 -0.838,-0.268 -0.405,-0.636 -0.263,-1.664 0.205,-2.256 0.683,-0.866 2.049,-0.642 2.515,-1.642 0.636,-1.364 -0.455,-3.08 0,-4.514 0.145,-0.456 1.324,0.466 1.436,0 0.532,-2.194 -0.13,-4.538 0.206,-6.77 0.087,-0.582 0.6,-0.852 0.668,-1.436 0.285,-2.446 0.433,-4.962 0,-7.387 -0.268,-1.505 -1.485,-2.588 -1.694,-4.103 -0.762,-5.493 -0.992,-11.475 -0.285,-16.976 0.549,-4.27 3.272,-10.874 4.87,-14.873 1,-2.5 1.491,-1.72 2.39,-4.26 0.275,-0.777 0.466,-1.681 0.206,-2.462 -0.324,-0.973 -1.473,-1.717 -1.311,-2.73 0.198,-1.241 1.724,-1.21 2.131,-2.4 0.553,-1.617 -0.56,-3.51400005 0,-5.12900005 0.66,-1.89999995 2.93,-2.99099995 3.488,-4.92400025 0.532,-1.844 -0.038,-4.7899997 0.483,-6.6369997 1.03,-3.65 2.266,-6.008 4.03,-9.366 1.043,-1.982 2.854,-3.657 3.667,-5.744 0.785,-2.012 0.705,-4.674 1.053,-6.36 -1.283,-1.603 -4.225,0.634 -6.155,-0.063 -0.98,-0.354 -0.976,-1.955 -1.946,-2.337 -2.076,-0.141 -4.061,-0.189 -5.54,0.92 -1.982,1.487 -1.998,3.23 -2.773,5.583 -1.158,3.516 -0.275,7.466 -1.72,10.874 -0.572,1.347 -2.904,1.726 -4.024,2.667 -0.593,0.497 -0.868,1.016 -1.642,1.016 -0.774,0 -1.448,-0.267 -1.641,-1.016 -0.393,-1.523 0.076,-3.148 0,-4.719 -0.06,-1.237 -0.723,-2.495 -0.41,-3.693 0.162,-0.624 1.591,-0.382 1.641,-1.026 0.613,-7.049 -0.23,-14.053 -0.122,-20.789 0.038,-2.365 0.665,-2.014 2.993,-2.038 3.922,-0.04 10.137,-0.01 14.644,-0.033 7.909,-0.04 15.837,-0.334 23.723,-0.118 1.174,0.085 2.702,0.52 2.784,1.694 0.166,2.373 -1.424,4.662 -2.524,6.77 -0.582,1.115 -1.882,1.844 -2.31,3.025 -0.728,2.002 0.062,4.374 -0.706,6.36 -0.47,1.219 -2.86,1.444 -3.318,2.667 -0.65,1.73 0.472,3.82 -0.206,5.54 -0.336,0.853 -2.156,0.366 -2.462,1.23 -1.032,2.928 -0.426,6.235 -1.23,9.233 -0.446,1.655 -1.7,2.8159997 -1.926,4.5139997 -0.616,4.6100003 0.4,9.3180003 0,13.9510003 -0.088,1.006 -1.15,1.7 -1.438,2.667 -0.676,2.275 -1.102,4.734 -1.882,6.976 -0.336,0.968 -1.584,1.47 -1.846,2.462 -0.386,1.454 0.58,3.126 0,4.514 -0.73,1.744 -3.301,2.458 -3.694,4.308 -1.107,5.222 0.647,10.728 -0.169,16.003 -0.364,2.36 -2.445,4.216 -2.872,6.565 -0.55,3.028 0.398,6.608 -0.357,9.59 -0.728,2.88 -2.816,5.376 -3.862,8.154 -0.245,2.726 -3.512,5.228 -1.73,7.288 2.148,0.284 5.713,0.722 8.206,-0.412 1.147,-0.52 -0.182,-2.928 0.82,-3.692 3.064,-2.34 6.58,-3.184 10.018,-4.924 1.966,-0.996 4.438,-1.946 6.192,-3.282 0.89,-0.68 0.992,-2.294 2.05,-2.668 0.638,-0.226 0.77,1.322 1.436,1.436 2.292,0.39 4.28,-0.59 6.53,0 0.9,0.236 0.872,1.446 1.106,2.346 0.21,0.806 0.574,1.674 0.126,2.372 -0.27,0.42 -1.248,-0.048 -1.438,0.412 -0.39,0.948 -0.238,2.08 0,3.076 0.188,0.776 0.898,1.258 0.964,2.052 0.352,4.158 0.468,8.37 0,12.516 -0.098,0.87 -0.592,1.782 -1.462,1.872 -5.918,-0.272 -11.388,0.162 -17.314,0.18 -0.61,-0.054 -0.26,-1.134 -0.822,-1.374 -1.528,-0.656 -4.284,-0.746 -5.906,-0.374 -1.886,0.432 -2.044,1.984 -3.941,2.362 -3.42,0.684 -7.373,0.014 -10.821,0.536 -1.219,0.184 -2.15,1.218 -3.345,1.516 -1.66,0.414 -4.275,0.856 -5.13,-0.624 z m -91.387998,9.636 c -2.558,0.898 -5.543,0.002 -8.2549998,0.06 -0.836,0.018 -2.196,0.674 -2.999,0.438 -0.876,-0.256 -2.257,-1.994 -1.71,-2.726 2.14,-2.854 6.36,-3.21 8.3139998,-6.192 1.15,-1.754 0.073,-4.116 0.567,-6.154 0.151,-0.626 1.248,-0.568 1.572,-1.124 0.264,-0.452 0.341,-1.174 0,-1.572 -0.779,-0.91 -1.272,0.998 -1.58,-1.726 -0.275,-2.436 -0.333,-4.91 -0.107,-7.344 0.142,-1.55 1.27,-1.222 1.482,-2.04 0.397,-1.522 -0.428,-2.65 -0.02,-4.17 0.183,-0.682 1.448,-0.51 1.798,-1.124 0.334,-0.584 0.373,-1.46 0,-2.022 -0.766,-1.148 -2.846,-1.13 -3.078,-2.49 -0.426,-2.502 -0.198,-5.188 -0.154,-7.67 0.047,-2.645 -0.134,-5.296 0.086,-7.99 0.04,-0.5 1.172,-0.478 1.348,-0.948 0.342,-0.911 0.126,-1.956 0,-2.921 -0.1,-0.774 0.138,-2.359 0.078,-3.138 -0.09,-1.196 -0.605,-1.64 -0.049,-2.704 0.388,-0.74 1.652,-0.295 1.769,-1.123 0.614,-4.376 -0.698,-8.863 -0.225,-13.257 0.08,-0.744 1.252,-0.626 1.45,-1.348 0.316,-1.165 0.414,-2.504 -0.102,-3.595 -0.243,-0.515 -1.392,-0.517 -1.436,-1.085 -0.505,-6.42 0.373,-12.491 -0.137,-18.9120003 -0.047,-0.601 -1.524,0.2420003 -1.552,-2.367 -0.03,-2.735 -0.282,-5.2839997 -0.245,-7.2939997 0.029,-1.543 3.356,-1.584 3.321,-3.127 -0.053,-2.35 0.317,-5.003 -0.225,-7.414 -0.174,-0.776 -1.185,-0.648 -1.523,-1.368 -0.318,-0.676 -0.018,-1.35 0.273,-2.041 0.35,-0.83 1.3,-1.355 1.524,-2.228 0.411,-1.595 0.37,-3.337 0,-4.943 -0.12,-0.525 -1.028,-1.039 -1.28,-1.515 -0.467,-0.883 -0.256,-1.662 -0.879,-2.442 -0.43,-0.538 -1.703,-0.207 -2.227,-0.655 -1.349,-1.152 -2.127,-2.432 -3.2579998,-3.482 -1.064,-0.985 -2.497,-1.728 -3.317,-3.178 -0.526,-0.932 0.087,-2.545 0.938,-3.195 0.654,-0.5 1.677,-0.387 2.403,0 0.59,0.314 0.58,1.568 1.2409998,1.66 2.896,0.403 5.77,-0.871 8.626,-0.244 1.245,0.274 1.311,1.846 2.472,2.373 0.776,0.353 2.175,-0.329 2.881,0.148 1.037,0.7 1.917,2.191 2.734,3.024 1.05,1.07 1.957,1.546 2.493,3.062 0.677,1.913 0.38,3.876 0.35,5.867 -0.025,1.756 0.26,3.534 0.1,5.318 -0.055,0.6 -1.207,0.317 -1.368,0.898 -0.283,1.02 -0.08,2.162 0.45,3.078 0.384,0.666 1.428,0.327 1.68,1.054 0.585,1.7 0.66,3.785 0.224,5.53 -0.162,0.65 -1.416,0.231 -1.456,0.899 -0.504,8.4479997 -0.63,16.96999995 0.225,25.39 0.145,1.43 2.408,1.94 2.56,3.37 0.848,7.969 0.076,16.035 -0.254,24.041 -0.047,1.139 -0.61,2.57 -1.075,3.42 -0.52,0.95 -0.196,1.899 -0.177,2.947 0.025,1.348 -0.136,2.817 0.07,4.193 0.117,0.786 1.715,1.534 1.66,2.327 -0.151,2.184 0.16,3.216 0.293,5.37 0.064,1.037 -1.824,1.685 -2.422,2.533 -0.431,0.61 -0.693,1.792 -0.342,2.452 0.33,0.622 0.925,0.306 1.114,0.986 0.266,0.962 0.288,1.774 -0.196,2.648 -0.312,0.562 -1.464,0.488 -1.573,1.122 -0.306,1.778 0.704,3.608 0.45,5.394 -0.076,0.534 -1.269,0.364 -1.349,0.898 -0.399,2.666 0.452,5.43 0,8.088 -0.17,1.004 -1.725,1.456 -1.797,2.472 -0.04,0.568 1.304,0.172 1.573,0.674 0.424,0.796 -0.64,2.444 0.224,2.696 2.875,0.842 6.433,0.624 9.33,-0.136 1.64,-0.432 2.335,-2.732 4.025,-2.892 2.035,-0.192 3.537,1.152 5.549,1.512 2.652,0.478 5.554,0.564 8.156,-0.136 1.536,-0.414 2.428,-2.044 4.006,-2.254 6.828,-0.918 13.165,-0.354 20.055,-0.39 6.514,-0.036 14.848,-0.364 19.685,0.164 2.757998,0.092 -0.233,9.85 0.761998,15.004 0.216,1.122 1.175,1.75 1.75,2.788 0.92,1.656 1.276,2.498 -1.11,2.488 -4.486998,-0.022 -9.027998,0.323996 -13.896998,0.118 -0.956,-0.04 -0.91,-1.884 -1.797,-2.248 -0.972,-0.398 -2.125,0.472 -3.146,0.226 -1.53,-0.37 -3.254,-1.836 -4.816,-2.022 -4.164,-0.5 -8.36,0.544 -12.514,-0.03 -0.942,-0.13 -1.072,-1.954 -2.022,-2.024 -9.71,-0.71 -19.013,0.31 -28.733,-0.22 -2.082,-0.114 -2.272,-0.84 -3.593,-1.224 -1.87,-0.54 -5.214,-0.756 -6.975,0.07 -3.282,1.536 -3.272,4.442 -6.691,5.644 z m 116.884998,-37.964 c -2.029,-0.06 -2.164,-3.318 -2.003,-5.316 0.165,-2.044 2.835,-1.937 3.787,-3.753 0.694,-1.321 -0.346,-3.645 0.446,-4.911 0.852,-1.364 3.162,-1.313 4.014,-2.677 0.488,-0.779 -0.24,-2.274 -0.218,-3.192 0.054,-2.176 0.542,-3.778 0.442,-5.952 -0.052,-1.13 -0.522,-3.172 -0.308,-4.284 0.294,-1.518 1.198,-1.15 1.646,-2.63 0.558,-1.851 -0.37,-3.958 0.222,-5.798 0.236,-0.728 2.144,-0.363 2.008,-1.115 -0.166,-0.916 -1.836,-0.423 -2.002,-1.339 -0.506,-2.787 -0.534,-6.066 0.218,-8.797 0.47,-1.708 2.408,-3.015 2.9,-4.719 0.514,-1.784 -0.574,-3.808 0,-5.575000049786 C 145.01501,-1.200046 146.99701,-1.453046 147.30301,-2.676046 c 0.72,-2.8860003 0.078,-6.4250003 0.828,-9.302 0.394,-1.51 1.182,-3.222 2.148,-4.168 0.58,-0.569 1.102,-0.981 1.374,-1.877 0.372,-1.226 -0.542,-2.258 -0.332,-3.522 0.186,-1.119 1.04,-1.837 1.582,-2.832 0.686,-1.257 0.972,-2.848 1.63,-4.118 0.96,-1.856 2.252,-3.409 2.94,-5.384 0.514,-1.472 -0.59,-3.874 0.068,-5.289 0.932,-2.003 3.34,-1.954 4.258,-3.964 0.742,-1.624 -0.556,-3.747 0.224,-5.353 0.566,-1.17 1.844,-1.687 3.142,-1.738 0.952,-0.038 2.108,0.62 2.432,1.515 0.638,1.752 0.062,3.857 0.784,5.576 1.266,3.023 3.462,4.804 4.68,7.848 0.634,1.587 -0.052,3.868 0.336,5.533 0.528,2.263 0.898,4.545 1.646,6.749 0.928,2.744 2.258,5.406 3.038,8.194 0.69,2.468 0.856,5.1459997 1.388,7.6589997 0.39,1.833 1.102,3.5160003 1.734,5.2760003 0.27,0.756 1.184,0.564 1.402,1.33799995 0.382,1.368 -0.766,2.85400005 -0.446,4.23800005 0.38,1.653 2.16,3.328 2.452,4.999 0.476,2.709 -0.02,5.3 0.046,8.05 0.06,2.513 0.326,4.846 0.656,7.256 0.204,1.482 1.024,3.596 1.062,4.674 0.138,4.014 0.316,7.965 0.36,11.984 0.068,5.873 0.068,12.152 -0.226,18.014 -0.034,0.684 -0.85,1.034 -1.09,1.676 -0.91,2.43 -1.672,3.774 -2.256,6.304 -0.308,1.334 -0.318,2.77 -0.892,4.014 -0.352,0.764 -1.922,1.39 -2.188,2.188 -0.59,1.776 0.134,3.562 0.004,5.778 -0.11,1.908 -0.9,3.004 -1.694,4.778 -0.544,1.212 -1.428,3.102 -1.764,4.366 -0.366,1.372 0.292,2.876 -0.11,4.238 -0.212,0.712 -1.184,1.056 -1.338,1.784 -0.386,1.818 0.334,3.802 -0.224,5.574 -0.314,1.003996 -0.532,0.857996 -1.49,1.289996 -0.68,0.304 -2.464,0.65 -2.566,-0.09 -0.432,-3.103996 0.442,-5.259996 -0.05,-8.357996 -0.576,-3.624 -2.092,-5.828 -3.006,-9.384 -0.444,-1.726 0.35,-4.846 -0.47,-6.428 -1.476,-2.85 -6.202,-4.002 -5.996,-7.204 0.198,-3.098 2.05,-5.114 3.936,-7.634 1.288,-1.726 2.126,-4.544 2.928,-6.51 0.59,-1.45 0.934,-3.148 0.96,-4.578 0.04,-2.135 -0.538,-3.064 -2.154,-4.391 -3.376,-2.774 -8.832,-5.311 -13.034,-7.354 -0.616,-0.3 -1.338,0.876 -1.338,1.561 0,0.685 0.802,1.218 0.882,1.898 0.234,1.998 -0.976,4.072 -0.11,5.887 0.914,1.918 4.52,2.476 3.986,4.531 -0.36,1.377 -0.698,1.862 -1.866,2.534 -0.708,0.408 -1.494,0.38 -2.322,0.418 -2.484,0.114 -5.038,-0.766 -7.438,-0.258 -2.606,0.552 -4.938,1.756 -7.346,2.956 -1.594,0.796 -3.224,1.846 -4.988,1.792 z m 21.968,-31.18 c -0.022,-1.968 -0.07,-3.904 -0.066,-5.84 0.004,-1.708 0.046,-3.416 0.18,-5.145 0.088,-1.124 1.116,-1.98 1.248,-3.1 0.222,-1.849 -0.914,-4.068 -0.396,-5.846 0.208,-0.722 2.038,0.002 2.452,-0.605 0.136,-0.199 0.414,-1.357 0.876,-2.344 0.278,-0.592 0.856,-1.124 0.856,-1.35 0,-0.331 -0.022,-2.679 0.226,-4.71300005 0.144,-1.17999995 0.326,-2.17799995 0.506,-2.18599995 0.178,-0.008 0.358,0.971 0.984,1.78599995 0.72,0.937 0.964,1.86600005 1.594,2.85700005 0.372,0.585 0.772,1.273 1.386,1.512 0.782,0.304 1.718,-0.124 2.496,0.19 0.582,0.235 0.724,1.148 1.248,1.512 0.354,0.246 1.166,-0.223 1.248,0.227 0.37,2.025 0.05,4.735 0.372,6.769 0.078,0.487 1.156,0.26 1.18,0.756 0.164,3.542 0.246,7.09 0.234,10.639 -0.01,3.13 -0.092,6.263 -0.254,9.391 -0.044,0.892 -2.4,0.954 -3.058,0.454 -1.272,-0.97 -2.078,-2.094 -3.742,-2.495 -0.694,-0.166 -0.66,-1.265 -1.318,-1.484 -1.46,-0.487 -3.302,-0.608 -4.828,-0.608 -0.996,0 -2.434,0.352 -3.424,0.227 -0.182,-0.023 0.002,-0.405 0,-0.605 z m 47.364,-61.061 c 0.004,2.038 0.222,4.246 0.228,6.38 0.01,2.747 -0.19,5.208 -0.18,7.976 0.01,2.948 0.23,6.205 0.23,9.0879997 0,2.344 -0.428,6.8490003 -0.246,8.79500025 0.232,2.50300005 0.37,2.93700005 3.792,2.93700005 1.656,0 3.9,-1.699 5.554,-3.41600005 1.132,-1.17499995 0.962,-3.20299995 1.396,-4.07999995 0.64,-1.2900003 1.734,-2.4700003 1.962,-3.9670003 0.292,-1.9259997 -0.412,-3.5149997 0.872,-4.7469997 0.506,-0.487 0.984,-6.017 0.984,-7.234 0,-1.734 -1.822,-4.306 -3.916,-6.607 -1.432,-1.575 -3.15,-2.988 -3.882,-4.067 -1.342,-1.975 -2.346,-2.841 -3.936,-3.196 -2.904,-0.649 -2.86,-0.382 -2.858,2.138 z m -15.332,108.533 c -0.542,2.14 1.106,3.014 3.056,4.274 1.946,1.26 4.198,2.908 6.318,4.646 3.588,2.94 6.03,8.306 8.364,13.59 1.202,-1.278 0.354,-7.234 1.028,-10.802 0.144,-0.764 0.968,-1.316 1.046,-2.09 0.276,-2.774 0.344,-5.596 0,-8.362 -0.13,-1.032 -1.128,-1.786 -1.394,-2.788 -0.21,-0.786 -0.16,-1.644 0,-2.44 0.194,-0.972 0.956,-1.8 1.044,-2.788 0.264,-2.892 0.436,-5.84 0,-8.71 -0.164,-1.084 -1.824,-1.696 -1.742,-2.788 0.07,-0.904 2.024,-0.838 2.092,-1.742 0.19,-2.59 -0.708,-5.09 -1.028,-7.667 -0.724,-5.791 -1.146,-11.617 -1.744,-17.422 -0.214,-2.093 -1.05,-4.2 -0.696,-6.272 1.09,-2.828 2.086,-5.733 3.136,-8.015 0.512,-0.672 1.188,0.641 1.708,1.307 1.698,2.169 3.954,4.852 4.442,7.562 0.598,3.322 -1.202,6.262 -0.818,9.617 0.112,0.978 1.62,0.803 1.968,1.724 1.664,4.403 3.016,8.955 3.834,13.59 0.932,5.282 1.232,10.668 1.394,16.03 0.07,2.332 -0.03,4.732 -0.698,6.968 -0.952,3.194 -2.936,5.74 -3.92,8.826 -1.03,3.228 -1.362,4.192 2.054,4.19 1.352,-0.002 2.93,0.052 3.974,0.574 2.796,1.398 3.95,4.622 6.604,6.272 0.574,0.356 1.324,0.85 2.114,1.292 3.764,2.108 4.178,0.652 4.962,-2.644 1.034,-4.358 1.296,-8.288 1.966,-12.586 0.342,-2.18 0.27,-4.416 0.366,-6.62 0.136,-3.142 0.372,-6.268 0.21,-9.41 -0.074,-1.466 -0.066,-3.07 -1.028,-4.18 -0.722,-0.834 -2.852,0.018 -3.136,-1.046 -0.39,-1.458 1.714,-2.672 1.742,-4.182 -0.576,-4.074 -1.104,-7.72 -1.172,-11.735 -0.078,-4.734 -1.092,-2.351 -2.662,-4.207 -0.948,-1.12 -1.244,-2.11 -1.392,-3.57 -0.438,-4.278 0.182,-9.01 -0.472,-13.26 -0.292,-1.9 -1.18,-3.773 -2.438,-5.226 -0.456,-0.527 -1.292,0.257 -1.604,-0.366 -0.522,-1.044 1.082,-1.759 0.47,-2.753 -1.422,-2.309 -4.398,-4.072 -6.654,-5.575 -0.676,-0.45 -1.866,0.575 -2.44,0 -0.574,-0.575 -0.56,-2.34 0,-2.927 4.018,-0.582 6.086,-2.474 8.048,-4.73900005 2.662,-3.06999995 3.964,-6.49300025 5.298,-10.33099995 0.616,-1.77 -0.172,-3.837 0.034,-5.698 0.382,-3.443 2.188,-6.57 1.586,-9.983 -0.874,-4.962 -3.32,-9.409 -6.132,-13.59 -1.562,-2.32 -3.988,-4.377 -6.516,-5.575 -2.11,-0.999 -3.876,-0.163 -6.116,-0.818 -2.594,-0.76 -4.672,-2.21 -7.318,-2.753 -2.06,-0.422 -4.222,0.438 -6.272,-0.035 -1.28,-0.295 -1.488,-1.734 -2.788,-1.934 -0.896,-0.138 -1.812,1.16 -2.716,1.237 -6.25,0.53 -11.38,-0.681 -17.6,0.14 -0.928,0.122 -0.664,1.157 0.106,1.69 1.15,0.795 2.898,0.402 4.182,0.958 2.304,0.998 4.076,2.34 5.784,4.181 1.414,1.523 1.99,3.216 3.274,5.575 0.528,0.968 2.046,-0.89 3.138,-1.045 1.378,-0.197 2.336,-0.234 3.206,0.854 0.782,0.976 -0.836,2.276 -1.758,3.118 -1.866,1.7 -3.136,2.602 -4.786,3.73 -1.128,0.774 -3.126,1.468 -3.964,2.978 -1.86,3.35 0.346,7.16 1.062,10.924 0.262,1.373 0.562,2.715 0.874,4.077 1.012,4.4279997 0.672,8.113 1.288,12.61299995 0.2,1.45500005 1.232,2.72200005 1.394,4.18200005 0.192,1.734 -0.12,3.012 0.14,4.738 0.108,0.735 0.71,1.514 0.906,2.23 0.868,3.187 1.632,7.189 1.742,10.49 0.356,10.796 -0.284,21.373 0.26,32.163 0.05,0.982 1.524,1.37 1.726,2.334 0.314,1.494 -0.682,3.21 -1.184,4.652 -2.062,5.904 -4.48,10.322 -5.752,15.348 z"
     fill="#0566b0"
     fill-rule="evenodd"
     id="path4" />
  <path
     d="m 283.50901,-48.639046 h -0.31 v 1.547 h 0.432 c 0.306,0 0.542,-0.065 0.7,-0.2 0.158,-0.134 0.238,-0.328 0.238,-0.586 0,-0.262 -0.084,-0.454 -0.254,-0.577 -0.17,-0.124 -0.438,-0.184 -0.806,-0.184 z m 0.312,-1.276 c 0.93,0 1.638,0.164 2.126,0.49 0.49,0.326 0.734,0.802 0.734,1.427 0,0.419 -0.116,0.778 -0.346,1.084 -0.23,0.304 -0.552,0.529 -0.972,0.674 l 1.43,2.845 h -2.24 l -1.154,-2.5 h -0.2 v 2.5 h -2.052 v -6.52 z m 4.73,3.396 c 0,-0.641 -0.12,-1.252 -0.362,-1.835 a 4.672,4.672 0 0 0 -1.032,-1.547 4.794,4.794 0 0 0 -1.56,-1.055 4.744,4.744 0 0 0 -1.838,-0.356 4.84,4.84 0 0 0 -1.846,0.348 4.47,4.47 0 0 0 -1.522,1.03 c -0.46,0.465 -0.814,0.991 -1.058,1.58 -0.246,0.589 -0.37,1.2 -0.37,1.835 0,0.638 0.12,1.246 0.364,1.823 a 4.813,4.813 0 0 0 1.046,1.553 c 0.46,0.46 0.978,0.811 1.556,1.055 a 4.653,4.653 0 0 0 1.83,0.364 4.65,4.65 0 0 0 1.83,-0.37 4.928,4.928 0 0 0 1.584,-1.065 c 0.452,-0.444 0.798,-0.95 1.03,-1.52 0.234,-0.57 0.348,-1.18 0.348,-1.84 z m -4.808,-6.028 c 0.826,0 1.61,0.15 2.344,0.45 a 5.885,5.885 0 0 1 1.96,1.308 5.98,5.98 0 0 1 1.288,1.947 c 0.3,0.74 0.452,1.515 0.452,2.328 a 6.02,6.02 0 0 1 -0.444,2.314 5.615,5.615 0 0 1 -1.296,1.906 6.49,6.49 0 0 1 -2.004,1.337 5.887,5.887 0 0 1 -4.58,0.01 6.1,6.1 0 0 1 -1.954,-1.33 5.977,5.977 0 0 1 -1.324,-1.95 5.876,5.876 0 0 1 -0.456,-2.287 c 0,-0.808 0.152,-1.58 0.46,-2.32 a 6.205,6.205 0 0 1 1.336,-1.988 5.633,5.633 0 0 1 1.908,-1.284 6.07,6.07 0 0 1 2.31,-0.44 z"
     fill="#0566b0"
     id="path6" />
</svg>
