<?xml version="1.0" encoding="utf-8"?>
<!DOCTYPE svg PUBLIC "-//W3C//DTD SVG 20010904//EN" "http://www.w3.org/TR/2001/REC-SVG-20010904/DTD/svg10.dtd">
<svg version="1.0" xmlns="http://www.w3.org/2000/svg" width="743px" height="1284px" viewBox="0 0 743 1284" preserveAspectRatio="xMidYMid meet">
 <g fill="#000000">
  <path d="M1 387 l0 -386 365 0 365 0 0 386 0 386 -365 0 -365 0 0 -386z m712 0.5 l0 -367.5 -347.7 0 -347.6 0 0.6 43.7 c0.4 24 0.7 189.4 0.7 367.5 l0 323.8 347 0 347 0 0 -367.5z"/>
  <path d="M264 648.3 l-0.1 -11.8 -4.2 4.8 -4.2 4.7 -16.7 0 -16.8 0 0 -17.7 0.1 -17.8 4.9 -6 5 -6 -10.7 -0.3 -10.8 -0.3 -6.7 -6.7 -6.8 -6.6 0 -11.6 0 -11.6 6.8 -6.7 6.7 -6.6 16.9 -0.3 16.8 -0.3 -70.6 -73.9 c-62.9 -65.9 -70.6 -74.3 -70.6 -77.1 0 -2.8 2.6 -5.9 19.1 -23.3 15.8 -16.7 19.6 -20.2 21.9 -20.2 1.5 0 12.3 3.6 24.1 8 11.7 4.4 21.6 7.9 22.1 7.8 0.4 -0.2 -10.3 -23.9 -23.8 -52.8 -13.5 -28.9 -25.3 -54.2 -26.2 -56.2 l-1.7 -3.8 -17.5 15.5 -17.5 15.4 -15.6 0.1 -15.6 0 -0.6 -10.7 c-0.4 -5.8 -0.7 -13.9 -0.7 -17.9 l0 -7.2 10.5 -9.6 10.5 -9.6 -12.9 0 -12.9 0 -8.6 -10.4 c-6.4 -7.8 -8.6 -11.2 -8.6 -13.4 0 -2.2 1.9 -4.9 8.3 -11.9 l8.2 -9.1 12.4 -0.3 12.4 -0.4 -11.6 -13.5 -11.7 -13.5 0 -15.7 0 -15.8 14.4 0 14.4 0 14.6 14.1 14.6 14.1 0 -16.2 0 -16.3 10.6 -11.3 c14 -15 13.3 -15 27.7 -0.6 l10.7 10.7 0.1 18.5 c0.1 10.2 0.4 19.8 0.8 21.3 l0.6 2.8 6 -6.1 5.9 -6 17.8 0 17.8 0 0 14.8 0 14.7 -17 18.3 c-9.4 10.1 -17 18.8 -17 19.3 0 0.6 10.8 12.2 24 25.8 l24 24.8 14.3 -7.3 14.2 -7.3 0.3 -28.9 0.2 -28.9 49.4 -29.2 c34.3 -20.3 50.2 -29.1 52.2 -29.1 2 0 16.9 8.7 50.4 29.3 l47.5 29.2 0.3 29 0.2 29 8.3 4.7 c4.5 2.6 10.5 6.1 13.3 7.8 l5 3 23.5 -25.2 c12.9 -13.8 23.5 -25.4 23.6 -25.7 0.1 -0.3 -7.6 -9.1 -17.2 -19.6 l-17.5 -19 0 -14.7 0 -14.8 15.8 0 15.7 0 8.5 7 8.5 7 0.5 -19.9 0.5 -20 4 -4.3 c2.2 -2.4 7.3 -7.8 11.5 -12 10.5 -11 10.8 -10.9 23 3.7 5.2 6.2 9.8 12.6 10.1 14.2 0.4 1.5 0.7 8.4 0.8 15.3 l0.1 12.5 13.3 -13.3 13.2 -13.2 15.8 0 15.7 0 0 15.8 0 15.7 -12.6 13.3 -12.6 13.2 13.9 0 13.9 0 7.2 8.4 c9.7 11.4 9.7 12.4 -0.4 24.5 l-7.6 9.1 -14.6 0 -14.7 0.1 11.3 10.7 11.3 10.7 -0.1 18.8 0 18.7 -16.3 0 -16.3 0 -16.7 -14.5 c-9.2 -8 -17.1 -14.4 -17.5 -14.1 -1.1 0.7 -50.6 106.6 -50 107.1 0.2 0.2 9.1 -2.9 19.8 -7.1 11.6 -4.5 20.4 -7.4 22.1 -7.2 2 0.2 7.8 5.3 22.8 20.1 18.5 18.2 20.1 20.1 20.1 23.3 0 3.2 -5 8.8 -69.5 77.4 l-69.5 74 17.3 0 17.4 0 7.6 8.4 7.7 8.4 0 9.4 0 9.3 -8.3 8.3 -8.2 8.2 -9.8 0 c-5.3 0 -9.7 0.3 -9.7 0.8 0 0.4 2.3 4.1 5 8.2 l5 7.5 0 14.8 0 14.7 -18.4 0 -18.4 0 -4.1 -4.7 -4.1 -4.8 0 11.8 0 11.7 -20.2 -0.2 -20.1 -0.3 -8.9 -16.5 -8.8 -16.5 0 11.8 0 11.8 -4.2 5 -4.1 4.9 -11.6 0 -11.6 0 -4 -5 -4 -5 -0.5 -43.3 -0.5 -43.2 -2.7 -0.3 -2.8 -0.3 0 44 0 43.9 -5.4 4.6 -5.3 4.6 -10.4 0 -10.4 -0.1 -4.5 -6.1 c-4.3 -5.9 -4.5 -6.6 -5 -14.4 l-0.5 -8.3 -6.5 14.2 -6.6 14.2 -21.2 0.3 -21.2 0.2 0 -11.7z m41.5 -40.2 l15 -30.1 10.7 0 10.8 0 0.3 29.8 c0.2 27.3 0.2 26.4 0.5 -11 l0.2 -40.6 -32 -34.2 c-36.7 -39.2 -35.2 -36.5 -27.4 -46.3 7.7 -9.7 5.7 -11 45 29.8 18.5 19.3 34 35 34.4 35 0.4 0 17 -15.9 36.8 -35.2 30.5 -29.9 36.4 -35.3 38.8 -35.3 3.9 0.1 13.4 10.5 13.4 14.7 0 2.3 -5.7 8.6 -33.5 37.1 l-33.5 34.4 0 10.9 0 10.9 11.4 0 11.5 0 15 29.9 c13.6 26.9 16.5 32.1 17.5 31 0.2 -0.2 -5.7 -12.7 -13 -27.8 -7.6 -15.6 -13.4 -28.6 -13.4 -30.3 l0 -2.8 16.3 0 16.3 0 21.3 24 c11.7 13.2 21.6 24 21.9 24 0.3 0 -0.4 -1 -1.5 -2.2 -1.1 -1.3 -7.4 -8.7 -14.1 -16.5 l-12.2 -14.2 0 -7.5 0 -7.6 21.2 0 c20.4 0 21.3 -0.1 23.5 -2.2 2.1 -2 2.2 -2.3 0.6 -4 -1.5 -1.7 -4 -1.8 -37 -1.8 l-35.3 0 0 -3.3 c0 -3.1 6.3 -9.9 75.6 -82.3 41.6 -43.4 77.4 -80.8 79.6 -83.1 l4 -4.1 -8.5 -8.8 -8.5 -8.8 -57.4 22.7 c-32.3 12.8 -58.8 22.7 -60.6 22.7 l-3.2 0 0 -39 0 -39 33.3 0 33.3 0 2.2 -4.6 c1.3 -2.6 2.1 -4.8 1.9 -5.1 -0.2 -0.2 -1 1 -1.7 2.7 l-1.2 3 -35.7 0.2 -35.6 0.3 -0.3 45.2 -0.2 45.1 61 -24.4 c33.5 -13.4 62.2 -24.4 63.7 -24.4 2.1 0.1 3.6 1.2 6.1 4.5 6.1 8.4 12.3 0.9 -78.5 95.5 l-81.8 85.1 -7.8 -0.3 -7.9 -0.3 -3.9 -10.5 c-2.1 -5.8 -3.9 -11.7 -3.9 -13.1 0 -2.1 6.1 -8.9 29.4 -32.9 l29.4 -30.3 -9 -10.3 -9.1 -10.3 -36.4 35.7 c-31.4 30.8 -36.8 35.7 -39.7 36 -3.1 0.3 -5 -1.4 -38.3 -35.2 -19.3 -19.6 -35.2 -35.6 -35.5 -35.6 -0.5 0 -9.3 10.4 -15 17.6 -1.7 2.1 -1.4 2.5 25.7 32 32.2 35 30.5 31.4 22.5 47.5 l-5.1 10 -7.3 -0.3 -7.3 -0.3 -78.9 -84.3 c-87.8 -93.9 -82.3 -87 -76.7 -95.7 2.2 -3.6 3.4 -4.5 5.6 -4.5 1.5 0 29.8 10.6 62.8 23.5 33 12.9 60.5 23.5 61 23.5 0.6 0 0.8 -17.7 0.7 -44.2 l-0.3 -44.3 -36.2 -0.3 -36.1 -0.2 -22.6 -51 c-13 -29.3 -22.6 -52.3 -22.6 -54 0 -2.6 0.4 -3 2.8 -3 l2.7 0 -0.3 -11.2 -0.2 -11.3 18.4 -19.5 c10.1 -10.7 18.2 -19.7 17.9 -20 -0.3 -0.3 -6.7 5.9 -14.2 13.8 l-13.6 14.2 -10.2 0 -10.3 0 0 11.5 0 11.5 -12.5 0 -12.5 0 0 -13 0 -13 12.5 0 12.5 0 0 -30.2 c0 -26.7 -0.2 -30.4 -1.7 -32 -1.5 -1.7 -1.7 -1.7 -3.5 -0.2 -1.7 1.6 -1.8 3.8 -1.8 28.6 l0 26.8 -10.2 0 -10.3 0 -6.8 -7.3 c-3.8 -3.9 -4.8 -4.8 -2.3 -1.8 l4.6 5.3 0 9.4 0 9.4 -22.4 0 c-18.6 0 -22.6 0.2 -23.6 1.5 -1 1.2 -1 1.8 0 3 1 1.3 5 1.5 23.6 1.5 l22.4 0 0 12.3 0 12.3 -15.5 13.8 c-13.7 12.1 -17.4 16.4 -13 15.4 0.7 -0.2 10.3 -8.7 21.3 -19.1 l20.1 -18.7 8.8 0 8.9 0 22.4 51.3 c12.3 28.1 24.1 54.9 26.1 59.5 l3.8 8.2 35.1 0 35 0 0 39 0 39 -2.7 0 c-1.4 0 -28.9 -10.2 -61 -22.6 -32.2 -12.4 -58.9 -22.4 -59.4 -22.2 -0.5 0.2 -4.2 4.1 -8.3 8.7 l-7.3 8.4 78.8 83 c72.3 76 78.9 83.3 78.9 86.4 l0 3.3 -34.1 0 c-31.1 0 -34.3 0.2 -35.4 1.7 -1 1.4 -1 2.1 0.2 4 1.5 2.3 1.7 2.3 23.4 2.3 l21.9 0 0 6.6 0 6.6 -13.6 17 c-7.4 9.4 -13.3 17.3 -13 17.6 0.4 0.3 0.7 0.3 0.9 0.1 0.2 -0.2 9 -11.1 19.6 -24.1 l19.3 -23.8 15.4 0 15.4 0 0 3.4 c0 2.1 -4.3 12.8 -12 29.9 -6.6 14.5 -12 26.8 -12 27.1 0 2.3 3 -3.3 16.5 -30.3z m-53.5 -227.1 l0 -11 -29.7 0 -29.8 0.1 29 10.9 c16 6 29.3 10.9 29.8 10.9 0.4 0.1 0.7 -4.8 0.7 -10.9z m254.3 0.3 l27.8 -10.8 -27.3 -0.3 c-15 -0.1 -27.8 0 -28.5 0.3 -1.4 0.5 -1.9 21.5 -0.5 21.5 0.4 0 13.2 -4.8 28.5 -10.7z m44.6 -96.9 c12 -26.9 22.5 -50.1 23.2 -51.6 1.2 -2.8 1.3 -2.8 11.5 -2.8 l10.4 0 19 16.5 c10.4 9.1 19.2 16.5 19.5 16.5 0.3 0 -5.8 -5.6 -13.5 -12.6 l-14 -12.5 0 -12.9 0 -13 22.8 -0.2 c21.9 -0.3 22.7 -0.4 22.7 -2.3 0 -1.9 -0.8 -2 -22.7 -2.3 l-22.8 -0.2 0 -9.5 0 -9.5 9.6 -10.8 9.6 -10.7 -10.8 11.3 -10.9 11.3 -11.7 -0.1 -11.8 0 0 -26.5 c0 -23.2 -0.2 -26.6 -1.6 -27.2 -0.8 -0.3 -1.9 -0.2 -2.4 0.3 -0.5 0.5 -1.2 15.2 -1.6 32.7 l-0.7 31.7 13.1 0 13.2 0 0 13 0 13 -13 0 -13 0 0 -11.5 0 -11.5 -9.2 0 -9.3 0 -14.1 -14.7 c-7.8 -8.2 -14.4 -14.6 -14.7 -14.3 -0.2 0.3 8.5 10.6 19.4 23 18 20.5 19.8 22.8 19.8 26.2 0.1 3.6 -1.4 5.3 -27.5 33 l-27.6 29.3 24.9 -25.3 c22.4 -22.9 25.1 -25.3 28.1 -25.2 2.8 0 3.2 0.3 3.2 2.8 0 1.5 -9.2 24 -20.5 50.1 -11.3 26.1 -20.5 47.7 -20.5 48 0.1 1.3 2.8 -4.5 23.9 -51.5z m-49.9 12.9 c5.4 -5.6 5.8 -6.2 1.5 -2 -4.9 4.6 -6.7 5.7 -9.4 5.7 -2.4 0 -10.1 -3.6 -26.2 -12.2 l-22.9 -12.2 0 -31.7 0 -31.6 -37.7 -23.7 c-20.8 -13.1 -38.1 -23.8 -38.4 -23.9 -0.4 -0.1 -18.8 10.6 -40.8 23.8 l-40.1 24 -0.2 30.3 -0.3 30.4 -24.5 12.9 c-15.1 7.9 -25.6 12.8 -27.5 12.9 -2.6 0 -6.6 -3.6 -30.5 -27.2 l-27.5 -27.3 29.1 29.4 29.2 29.4 27.3 -14.1 27.4 -14 0.5 -30.8 0.5 -30.8 36.5 -22.2 c29.8 -18.2 37.2 -22.3 40.2 -22.3 3.2 -0.1 8.9 3.1 39.3 22.1 l35.5 22.2 0 31.7 0 31.7 25.8 13.5 c14.1 7.4 25.7 13.5 25.7 13.6 0 0 3.4 -3.4 7.5 -7.6z m-391 -123.6 c0 -0.2 -1.5 -1.6 -3.2 -3.3 l-3.3 -2.9 2.9 3.3 c2.8 3 3.6 3.7 3.6 2.9z m521 -12.2 c1.9 -1.9 3.2 -3.5 2.9 -3.5 -0.3 0 -2 1.6 -3.9 3.5 -1.9 1.9 -3.2 3.5 -2.9 3.5 0.3 0 2 -1.6 3.9 -3.5z"/>
 </g>
 <g fill="#ffffff">
  <path d="M127.7 1281.6 c-4.6 -1.7 -9.9 -5.7 -13 -9.9 -7 -9.3 -7.2 -27.6 -0.4 -38.8 6.4 -10.4 20.4 -14.7 33 -9.9 10.7 4 15.6 10.2 17.8 22.4 1.4 7.6 0.2 17.2 -3.1 23.6 -5.6 10.9 -22 16.9 -34.3 12.6z m14.4 -9.7 c7.9 -2.7 10.9 -8.1 10.9 -19.9 0 -9 -1.9 -14.2 -6.6 -17.9 -3.7 -2.9 -13.4 -3 -17.5 0 -10.3 7.3 -9.7 29.5 1 36.6 3.8 2.6 7.1 2.9 12.2 1.2z"/>
  <path d="M248.5 1282.5 c-0.5 -0.2 -2.2 -0.6 -3.7 -0.9 -3.4 -0.8 -9.3 -5.9 -11.6 -10 -1.4 -2.6 -1.7 -6.8 -2 -25.8 l-0.4 -22.8 6.1 0 6 0 0.3 22.1 0.3 22.1 3.4 3 c3.1 2.7 3.9 3 8.7 2.6 10.3 -0.9 11.4 -3.9 11.4 -30.5 l0 -19.3 5.5 0 5.5 0 0 23.3 c0 25.9 -0.2 26.7 -7.3 32.1 -4.4 3.4 -17.3 5.8 -22.2 4.1z"/>
  <path d="M305.8 1281.6 c-7.9 -2.1 -12.2 -5.7 -15.8 -13 -3.2 -6.4 -3.2 -6.8 -2.8 -17.3 0.5 -12.7 2.4 -18 8.5 -23.4 5.5 -5 12.9 -7.3 20.4 -6.5 12.3 1.2 19 6.4 22.3 17.4 0.7 2.1 0.5 2.2 -5.1 2.1 -5.6 0 -5.9 -0.1 -8.8 -4.2 -2.5 -3.4 -3.8 -4.3 -7 -4.7 -6.7 -0.8 -10.3 0 -13.4 3.2 -4 4.1 -5.5 10.1 -4.9 19.8 0.5 8.9 1.9 11.8 7.9 15.8 5.8 4 14.9 1.5 18.4 -5.1 1.9 -3.5 2.2 -3.7 7.3 -3.7 6.2 0 6.4 0.7 2.7 8 -3.1 6.1 -8.8 10.5 -15.6 11.9 -6.2 1.3 -8.1 1.3 -14.1 -0.3z"/>
  <path d="M433.5 1282 c-6.7 -1 -10.5 -3 -15.2 -8.4 -5.5 -6.3 -7.7 -13.5 -7.1 -23.9 0.7 -12.9 5.3 -21.2 14.3 -26 3.3 -1.8 5.7 -2.2 13.5 -2.2 8.1 0 10.2 0.4 14.3 2.4 8.4 4.3 13.7 15.6 13.7 29.3 0 19.3 -14.1 31.4 -33.5 28.8z m13.5 -12.3 c5.8 -3.9 7.5 -7.9 7.5 -18.2 0 -7.2 -0.4 -9.7 -2 -12.4 -3.4 -5.7 -6.7 -7.6 -14 -7.6 -5.7 0 -6.7 0.3 -9.4 2.9 -4.1 3.9 -5.5 8.6 -5.5 18.1 0 9.8 2 14.7 7.3 17.5 5 2.7 12 2.6 16.1 -0.3z"/>
  <path d="M183.3 1281.3 l-8.3 -0.4 0 -28.9 0 -28.8 7.7 -0.7 c20.6 -2 32.2 1.6 37.3 11.5 7.1 13.8 3.5 36.7 -6.9 43.5 -3.9 2.7 -12.2 4.6 -18 4.3 -2 -0.1 -7.3 -0.4 -11.8 -0.5z m23.5 -13.7 c3.3 -3.8 4.6 -9 4.4 -17.7 -0.3 -13 -5.6 -18.2 -18 -17.7 l-6.7 0.3 -0.3 19.3 -0.2 19.2 8.9 0 c8.9 0 8.9 0 11.9 -3.4z"/>
  <path d="M543.6 1280.5 c-7.3 -2.6 -12.1 -7.4 -13.2 -13.2 l-0.6 -3.3 5.5 0 c4.7 0 5.7 0.3 6.2 2 1.5 4.8 10.5 7.9 17.5 6 10.6 -2.9 10.3 -11.2 -0.5 -14.1 -14.4 -3.9 -20.9 -6.2 -23.7 -8.8 -2.7 -2.4 -3.2 -3.6 -3.5 -8.7 -0.6 -8.2 2.4 -13.9 8.9 -17.3 6.4 -3.2 19.5 -3.3 25.6 -0.2 5.1 2.6 9.1 7.8 9.9 12.6 l0.6 3.7 -5.9 -0.7 c-7 -0.9 -7.4 -1.1 -7.4 -3.4 0 -1.1 -1.4 -2.5 -3.4 -3.5 -7.5 -3.6 -17.6 -0.5 -17.6 5.3 0 4.4 3.5 6.5 16.2 9.6 12.6 3.1 15.8 4.9 18.2 9.9 4.6 9.8 -1.2 21.4 -12.5 24.6 -4.9 1.4 -15.7 1.1 -20.3 -0.5z"/>
  <path d="M1 1251.6 l0 -29.5 15.8 0.3 c16.7 0.3 19.9 1 24.5 5.4 7.8 7.5 5.6 24.5 -3.9 29.9 -3.3 1.9 -5.4 2.3 -13.6 2.3 l-9.8 0 0 10.5 0 10.5 -6.5 0 -6.5 0 0 -29.4z m30.4 -3.7 c2.3 -1.8 2.7 -2.7 2.4 -6.7 -0.4 -6.3 -3.5 -8.5 -12.8 -9 l-7 -0.4 0 9.1 0 9.1 7.4 0 c5.9 0 7.8 -0.4 10 -2.1z"/>
  <path d="M55 1251.9 l0 -29.1 18.3 0.4 c21.3 0.4 23.6 1.1 27.6 9.1 3.2 6.4 2.3 12.3 -2.5 17.6 -3.3 3.8 -3.4 3.8 -1.4 5.6 2.5 2.3 4 7.5 4 14 0 2.8 0.4 6.5 0.9 8.3 l1 3.2 -6.4 0 c-7.3 0 -7.5 -0.2 -7.5 -9 0 -6.1 -1.3 -10.9 -3.3 -12.2 -0.7 -0.4 -5.4 -0.8 -10.4 -0.8 l-9.3 0 0 11 0 11 -5.5 0 -5.5 0 0 -29.1z m32.8 -5.5 c1.7 -1.1 2.2 -2.5 2.2 -5.7 0 -2.3 -0.4 -4.8 -0.8 -5.5 -1.3 -2 -7.1 -3.2 -15.4 -3.2 l-7.8 0 0 8 0 8 9.8 0 c7.2 0 10.3 -0.4 12 -1.6z"/>
  <path d="M357 1256.5 l0 -24.5 -9 0 -9 0 0 -5 0 -5 24 0 24 0 0 5 0 5 -9 0 -9 0 0 24.5 0 24.5 -6 0 -6 0 0 -24.5z"/>
  <path d="M392 1251.5 l0 -29.5 5.5 0 5.5 0 0 29.5 0 29.5 -5.5 0 -5.5 0 0 -29.5z"/>
  <path d="M475 1251.5 l0 -29.5 6.3 0 6.2 0 10.8 19.4 c6 10.7 11.5 20.3 12.3 21.3 1.1 1.5 1.3 -1.2 1.4 -19.4 l0 -21.3 5.5 0 5.5 0 0 29.5 0 29.5 -5.9 0 -6 0 -11.2 -18.7 c-6.1 -10.4 -11.8 -19.5 -12.5 -20.3 -1.2 -1.2 -1.4 1.7 -1.4 18.8 l0 20.2 -5.5 0 -5.5 0 0 -29.5z"/>
  <path d="M607 1250.5 l0 -29.5 5.5 0 5.5 0 0 24.5 0 24.5 15 0 15 0 0 5 0 5 -20.5 0 -20.5 0 0 -29.5z"/>
  <path d="M693 1251.1 l0 -28.9 6.7 -0.8 c10.2 -1.1 25 0.3 30.2 2.8 11.2 5.4 15.7 27 8.8 42.1 -5.1 11.2 -10.9 13.7 -31.9 13.7 l-13.8 0 0 -28.9z m31.5 15.9 c7.3 -6.8 6.8 -30 -0.7 -34.1 -1.3 -0.7 -5.9 -1.3 -10.8 -1.3 l-8.5 0 -0.3 19.3 -0.2 19.3 8.9 -0.3 c7.9 -0.4 9.3 -0.7 11.6 -2.9z"/>
  <path d="M657 1255 l0 -24 -9 0 -9 0 0 -5 0 -5 24 0 24 0 0 5 0 5 -9 0 -9 0 0 24 0 24 -6 0 -6 0 0 -24z"/>
  <path d="M7.3 1168.4 c-1 -0.4 -1.3 -36.2 -1.3 -173.6 l0 -173.1 14.9 0.7 c8.1 0.3 17.4 1.3 20.5 2.1 12.7 3.3 25.6 12.6 30.8 22.2 5.7 10.4 5.9 13 5.6 64.6 l-0.3 47.2 -2.5 5 c-1.3 2.7 -4.5 7.1 -7.1 9.8 l-4.7 4.9 4.3 4.3 c2.4 2.4 5.6 6.7 7.2 9.7 l2.8 5.3 0 69 0 69 -2.4 5.8 c-7.1 17.8 -23.5 26.2 -53.1 27.2 -7.4 0.3 -14.1 0.2 -14.7 -0.1z m33.8 -26.4 c2.1 -0.6 5 -2.5 6.8 -4.5 6 -6.9 6.1 -7.8 6.1 -72.8 l0 -59 -2.4 -4.2 c-2.9 -4.9 -11.1 -9.5 -16.9 -9.5 l-3.7 0 0 76.1 0 76.2 3.2 -0.7 c1.8 -0.3 4.9 -1.1 6.9 -1.6z m2.4 -181.6 c2.8 -1.3 6.4 -3.7 8 -5.4 l3 -3.1 0 -43.2 c0 -23.8 -0.3 -44.4 -0.7 -45.9 -1.9 -6.4 -9.8 -12.3 -18.3 -13.5 l-4.5 -0.6 0 57.8 0 57.7 3.8 -0.7 c2 -0.4 6 -1.8 8.7 -3.1z"/>
  <path d="M128.9 1167.5 c-10.1 -3.2 -19 -11.9 -22 -21.3 -0.7 -2.3 -1.5 -17.1 -1.9 -39.7 -1 -46.4 -1.2 -191.4 -0.3 -243.8 l0.6 -40.7 11.4 0 11.3 0 0 155.7 0 155.7 2.1 4.4 c2.9 6 7.3 8.1 12.6 6.1 3.2 -1.2 4.1 -2.2 5.5 -6.4 1.6 -4.6 1.7 -16.6 1.8 -160.2 l0 -155.3 12 0 12 0 -0.2 159.3 -0.3 159.2 -2.3 5.5 c-4.5 10.4 -12.9 18.8 -21.1 20.9 -7.1 1.9 -16.4 2.1 -21.2 0.6z"/>
  <path d="M207 995 l0 -173 12 0 12 0 0 159 0 159 14.5 0 14.5 0 0 14 0 14 -26.5 0 -26.5 0 0 -173z"/>
  <path d="M287 995 l0 -173 12 0 12 0 0 159 0 159 14.5 0 14.5 0 0 14 0 14 -26.5 0 -26.5 0 0 -173z"/>
  <path d="M365 995 l0 -173 26 0 26 0 0 11.5 0 11.5 -13.5 0 -13.5 0 0 60 0 60 7.5 0 7.5 0 0 13 0 13 -7.5 0 -7.5 0 0 88.5 0 88.5 -12.5 0 -12.5 0 0 -173z"/>
  <path d="M445 994.5 l0 -173.5 13.9 0 c16 0 27 1.3 35.7 4.1 12 3.9 21.9 16.1 24.4 30.1 0.7 3.5 1 23.6 0.8 54 l-0.3 48.3 -2.4 5 c-1.4 2.8 -4.8 7.3 -7.6 10.1 l-5.2 5 3.9 3.8 c5.7 5.3 9.6 14.5 10.8 24.7 0.6 4.7 1 42.4 1 85.2 l0 76.7 -12 0 -12 0 0 -81.5 c0 -87.9 0.2 -84.3 -5.2 -89.1 -3.9 -3.6 -8.1 -5.2 -14.4 -5.6 l-5.9 -0.3 -0.3 88.3 -0.2 88.2 -12.5 0 -12.5 0 0 -173.5z m41.6 -32.4 c2.2 -1 5 -3.1 6.2 -4.6 2.2 -2.8 2.2 -3 2.2 -50.3 l0 -47.5 -4.5 -4.3 c-2.9 -2.9 -6.2 -4.8 -9.6 -5.9 -9.9 -2.9 -8.9 -9.3 -8.9 56.5 l0 58 5.3 0 c2.9 0 7 -0.9 9.3 -1.9z"/>
  <path d="M578.9 1166.7 c-11.6 -3.3 -20.7 -11.9 -23.9 -22.6 -2 -6.5 -2 -9.2 -1.8 -153.6 l0.3 -147 2.7 -5 c3.2 -6.1 10.4 -13 16.3 -15.6 2.4 -1.1 7.9 -2.4 12.3 -3 7.5 -1.1 8.3 -1 15.9 1.5 10.5 3.5 16.7 7.5 20.3 13.2 5.8 9.2 5.5 -0.2 5.5 160.4 l0 148.5 -3 5.3 c-3.8 7.1 -11.2 13.6 -18.3 16.3 -7 2.6 -19.8 3.4 -26.3 1.6z m19.4 -24.9 c1.6 -1.1 3.3 -3.1 3.8 -4.5 0.5 -1.5 0.9 -59.1 0.9 -143.9 l0 -141.6 -2.8 -2.8 c-5.1 -5 -14.4 -5.2 -20.2 -0.4 l-3 2.6 0 139.9 c0 99.1 0.3 141.3 1.1 144.4 2.2 8.5 12.5 11.7 20.2 6.3z"/>
  <path d="M686.5 1166.6 c-7.1 -1.8 -11.2 -4.1 -17 -10 -3.4 -3.4 -6 -7.2 -7.6 -11.1 l-2.4 -6 -0.3 -148 -0.2 -147.9 2.5 -5.2 c3.7 -7.6 11.9 -14.7 20 -17.4 10.1 -3.3 21.7 -2.6 30.9 1.9 9.2 4.5 12.8 7.9 16.2 15.3 l2.9 6.3 0.3 41.8 0.3 41.7 -12 0 -12.1 0 0 -39.2 c0 -35.7 -0.2 -39.5 -1.8 -41.4 -2.6 -3.3 -5.5 -4.4 -11.6 -4.4 -4.4 0 -6 0.5 -8.5 2.6 l-3.1 2.6 0 143 0 143 3.4 3.4 c3.1 3.1 3.9 3.4 9.4 3.4 5 0 6.6 -0.4 8.9 -2.4 l2.8 -2.4 0.3 -60.1 0.3 -60.1 -6.1 0 -6 0 0 -12.5 0 -12.5 18.5 0 18.5 0 0 73.5 c0 69.8 -0.1 73.8 -1.9 79 -6.4 18.3 -25 27.9 -44.6 23.1z"/>
  <path d="M16 435.7 c0 -177.3 -0.3 -344 -0.7 -370.5 l-0.6 -48.2 350.6 0 350.7 0 0 370.5 0 370.5 -350 0 -350 0 0 -322.3z m296.3 201.6 c5 -10.6 9.4 -19.3 9.8 -19.3 0.5 0 0.9 5.8 0.9 12.8 l0 12.9 4.8 6.6 4.7 6.7 7.4 0 c7.3 0 7.4 0 12.7 -4.6 l5.4 -4.6 0 -43.9 0 -44 5.8 0.3 5.7 0.3 0.5 43.2 0.5 43.3 4 5 4 5 8.6 0 8.6 0 4.1 -4.9 4.2 -5 0 -16.7 c0 -9.2 0.3 -16.4 0.7 -16 0.4 0.4 5.8 10 11.9 21.4 l11.1 20.7 17.2 0.3 17.1 0.2 0 -9.3 c0 -9.1 -0.2 -9.8 -4.6 -19.2 -2.5 -5.3 -4.4 -9.9 -4.2 -10 0.2 -0.2 5.5 5.2 11.8 12.1 l11.4 12.4 15.3 0 15.3 0 0 -11.7 0 -11.8 -7 -10.5 c-8.2 -12.3 -8.5 -11.7 7 -11.9 l9.5 -0.1 8.2 -8.2 8.3 -8.3 0 -6.3 0 -6.4 -7.6 -8.4 -7.7 -8.4 -19.9 -0.2 -20 -0.3 72.2 -76.8 c39.7 -42.2 72 -77.1 71.8 -77.5 -0.2 -0.4 -9.3 -9.5 -20.3 -20.4 l-20 -19.6 -52.5 20.4 c-28.9 11.2 -53.1 20.4 -53.8 20.4 -1 0 -1.2 -3.3 -1 -14.7 l0.3 -14.8 30.5 -0.3 30.5 -0.3 26.5 -56.9 c14.6 -31.3 26.7 -56.9 27 -56.9 0.3 0 9 7.4 19.5 16.4 l19 16.5 13.2 0 13.3 0 0 -15.8 0 -15.9 -13.5 -12.7 c-7.4 -7 -13.5 -13.2 -13.5 -13.7 0 -0.5 7.3 -0.9 16.9 -0.9 l16.9 0 6.9 -8.2 c3.8 -4.6 7.3 -8.9 7.7 -9.6 0.4 -0.7 -1.9 -4.3 -6.5 -9.7 l-7.2 -8.5 -16.4 -0.2 -16.4 -0.3 15 -16 15 -16 0.1 -12.7 0 -12.8 -12.7 0 -12.8 0 -16.2 16.2 -16.3 16.3 0 -14.5 c0 -8 -0.3 -16.2 -0.6 -18.2 -0.5 -2.8 -3.1 -6.6 -10.4 -15.3 l-9.8 -11.5 -10.9 11.5 c-5.9 6.3 -11.1 12.5 -11.5 13.7 -0.3 1.3 -0.6 11.4 -0.7 22.6 -0.1 12.7 -0.5 20.2 -1.1 20.2 -0.6 0 -5.8 -4.1 -11.7 -9 l-10.6 -9 -12.9 0 -12.8 0 0 11.8 0 11.8 19 20.7 19.1 20.7 -26.3 28 c-14.4 15.4 -26.5 27.9 -26.9 27.8 -0.4 -0.2 -7.3 -4.1 -15.3 -8.8 l-14.5 -8.5 -0.3 -29 -0.3 -29 -47.4 -29.2 c-34.9 -21.4 -47.9 -28.9 -49 -28.3 -0.9 0.5 -23 13.5 -49.1 28.9 l-47.5 28.1 -0.5 29.1 -0.5 29 -16.2 8.4 -16.2 8.4 -26.6 -27.5 c-14.6 -15.1 -26.5 -27.8 -26.5 -28.2 0 -0.4 8.3 -9.7 18.5 -20.7 l18.5 -20 0 -11.7 0 -11.8 -14.7 0 -14.8 0 -9.1 9.1 -9.1 9.1 -0.6 -8.4 c-0.4 -4.6 -0.7 -15.5 -0.7 -24.3 l0 -16 -10.8 -10.8 -10.9 -10.8 -10.6 11.4 -10.7 11.4 -0.2 18.8 -0.3 18.8 -17.4 -16.7 -17.4 -16.6 -11.4 0 -11.3 0 0 12.8 0 12.7 14 16.2 c7.7 8.9 14 16.4 14 16.7 0 0.3 -6.6 0.6 -14.7 0.7 l-14.8 0.1 -8.2 9 -8.2 9.1 8.3 10.1 8.4 10.1 15.6 0.3 c8.6 0.1 15.6 0.6 15.6 1 0 0.5 -5.8 6.1 -13 12.5 -14.8 13.5 -13.6 10.4 -12.3 31 l0.6 10.7 12.6 0 12.6 0 19.3 -17.1 c10.6 -9.3 19.6 -16.8 20 -16.5 0.4 0.2 12.9 26.6 27.7 58.5 l27 58.1 30.3 0 30.2 0 0 15.1 0 15.1 -2.2 -0.6 c-1.3 -0.3 -26.1 -9.6 -55.3 -20.5 l-53 -20 -14.3 14.7 c-7.8 8.1 -16.4 17.2 -19.2 20.3 l-4.9 5.6 73.4 76.9 73.4 76.9 -19.7 0.3 -19.7 0.2 -6.7 6.7 -6.8 6.7 0 8.6 0 8.6 6.8 6.6 6.7 6.7 13.3 0.3 13.3 0.3 -7.6 9 -7.5 9 0 14.8 0 14.7 13.8 0 13.8 0 12.4 -14.4 c6.9 -7.9 12.6 -14.3 12.8 -14.2 0.1 0.2 -2.3 5.5 -5.3 12 -5.5 11.6 -5.5 11.7 -5.5 21.1 l0 9.5 18.2 -0.2 18.2 -0.3 8.9 -19.2z"/>
  <path d="M283 641.7 c0 -0.2 6.1 -13.8 13.5 -30.1 7.4 -16.4 13.5 -30 13.5 -30.2 0 -0.2 -5.6 -0.4 -12.4 -0.4 l-12.4 0 -19.3 23.9 c-19 23.5 -19.5 24 -23.1 24 -3.7 0.1 -3.8 0 -3.8 -3.4 0 -2.9 2 -6 13.5 -20.4 11.7 -14.6 13.5 -17.4 13.5 -20.5 l0 -3.6 -21.7 0 -21.7 0 -2.7 -3.2 -2.7 -3.3 2.1 -3.7 2.1 -3.8 34.4 -0.2 34.4 -0.3 -80.1 -84.3 c-44.1 -46.4 -80.1 -84.5 -80.1 -84.8 0 -0.7 19.1 -22.4 19.6 -22.4 0.6 0 119.6 46 120.5 46.6 0.5 0.3 0.9 -15.6 0.9 -35.5 l0 -36.1 -35 0 -35.1 0 -3.8 -8.2 c-2 -4.6 -13.8 -31.4 -26.1 -59.5 l-22.4 -51.3 -5.9 0 -5.8 0 -20.1 18.7 c-20 18.8 -20 18.8 -24.7 18.8 -4.6 0 -4.6 0 -4.9 -3.7 -0.3 -3.6 0 -4 15.2 -17.4 l15.6 -13.8 0 -9.3 0 -9.3 -22.3 0 -22.3 0 -2.9 -3 -2.9 -3 2.9 -3 2.9 -3 22.3 0 22.3 0 0 -6.4 0 -6.3 -17 -19.4 c-13.3 -15.1 -17 -19.9 -17 -22.1 0 -2.4 0.4 -2.8 3 -2.8 2.5 0 5.4 2.7 22.2 21 l19.3 21 7.3 0 7.2 0 0 -26.8 0 -26.8 3.5 -3.4 3.5 -3.4 3 3.4 2.9 3.5 0.1 31.8 0 31.7 7.3 0 7.3 0 13.3 -14 c12.6 -13.4 13.4 -14 17.2 -14 3.7 0 3.9 0.1 3.9 3.3 -0.1 2.8 -2.5 5.8 -18.5 22.7 l-18.4 19.5 -0.1 7.5 0 7.5 33.3 33.2 33.2 33.2 24.5 -12.8 24.5 -12.9 0.3 -30.4 0.2 -30.3 41.5 -24.9 c27.8 -16.7 42 -24.6 43.1 -24.2 0.9 0.3 18.9 11.5 40 24.8 l38.4 24.1 0 31.6 0 31.7 22.9 12.2 c12.6 6.7 23.1 12.2 23.4 12.2 0.5 0 67 -70 69.5 -73.2 1.2 -1.6 -0.8 -4.3 -18.7 -24.7 -16.8 -19.2 -20.1 -23.4 -20.1 -26 0 -2.9 0.2 -3.1 3.9 -3.1 3.8 0 4.6 0.6 17.8 14.5 l13.8 14.5 6.1 0 6.1 0 0.7 -33.2 0.6 -33.2 3.3 -2.7 3.2 -2.7 2.2 2.6 c2.2 2.6 2.2 3.3 2.3 29 l0 26.2 8.9 0 8.9 0 17.3 -18.7 c20.3 -22.2 20.4 -22.3 23.5 -22.3 2.1 0 2.4 0.5 2.4 3.6 0 3.2 -1.7 5.5 -17.5 23 l-17.5 19.5 0 6.4 0 6.5 22.3 0 c22.3 0 22.4 0 24.6 2.4 l2.3 2.4 -2.3 3.1 -2.3 3.1 -22.3 0 -22.3 0 0 9.9 0 10 13.8 12.2 c7.5 6.8 13.8 12.3 13.8 12.3 0.1 0.1 0.4 1.8 0.8 3.9 0.7 3.7 0.7 3.7 -2.8 3.7 -3 0 -5.8 -2.1 -23 -17 l-19.7 -17 -7.3 0 -7.4 0 -14.2 31.8 c-7.8 17.4 -19.6 43.7 -26.2 58.5 l-12.1 26.7 -33.3 0 -33.4 0 0 36.1 c0 28.5 0.3 36 1.3 35.6 0.6 -0.3 27.5 -10.9 59.7 -23.7 l58.5 -23.2 10.8 11.3 10.8 11.2 -5.4 5.6 c-3 3.1 -39.5 41.2 -81.2 84.6 l-75.7 79 35.3 0.3 35.3 0.2 3.3 3.2 3.3 3.2 -3.7 3.8 -3.7 3.8 -21.3 0 -21.3 0 0 4.5 c0 4.4 0.4 5.1 14 20.8 11.7 13.6 14 16.7 14 19.5 0 3 -0.2 3.2 -3.4 3.2 -3.2 0 -4.8 -1.5 -24.7 -24 l-21.3 -24 -13.2 0 -13.3 0 14.5 29.6 c7.9 16.3 14.4 30 14.4 30.5 0 0.6 -2.3 0.9 -5.2 0.7 l-5.3 -0.3 -15.3 -30.2 -15.3 -30.3 -8.5 0 -8.4 0 0 29.4 c0 24.9 -0.2 29.5 -1.5 30.6 -1.2 1 -1.8 1 -3 0 -1.3 -1.1 -1.5 -7.3 -1.5 -44.5 l0 -43.3 33.4 -34.3 33.4 -34.3 -5.1 -5.7 -5.1 -5.7 -37.9 37.1 -37.9 37.2 -9.7 -10.2 c-5.3 -5.7 -21.3 -22.4 -35.6 -37.3 l-26 -27.1 -2.8 3.3 c-1.6 1.8 -3.7 4.5 -4.8 6 l-1.9 2.6 32 34.2 32 34.2 0 43.3 c0 38.2 -0.2 43.4 -1.6 44.6 -1.1 0.9 -2 1 -3.2 0.2 -1.5 -0.9 -1.7 -4.3 -2 -30.7 l-0.2 -29.6 -7.8 0 -7.7 0 -15.3 30.5 -15.2 30.5 -5 0 c-2.7 0 -5 -0.1 -5 -0.3z m37 -84.7 c2.7 -5.5 5 -10.3 5 -10.8 0 -0.4 -12.8 -14.7 -28.5 -31.7 -15.8 -17.2 -28.3 -31.6 -28 -32.3 0.2 -0.7 5.1 -6.9 10.7 -13.7 l10.2 -12.4 37.1 37.5 37 37.5 38.2 -37.6 38.2 -37.5 11.5 13.1 c6.4 7.2 11.6 13.4 11.6 13.8 0 0.3 -13.7 14.7 -30.4 31.9 l-30.4 31.2 3.8 10.3 3.8 10.2 4.8 0.3 4.9 0.3 81.8 -85.1 81.7 -85.1 -3.3 -4.3 -3.2 -4.4 -4.5 1.8 c-2.5 1 -30.5 12.2 -62.3 24.9 -31.7 12.7 -58.4 23.1 -59.2 23.1 -1.3 0 -1.5 -5.9 -1.3 -48.7 l0.3 -48.8 35.6 -0.3 35.7 -0.2 9.5 -22.3 c5.3 -12.2 15.2 -35.2 22.1 -51.2 l12.6 -29 -12.8 13 c-7 7.2 -22.9 23.4 -35.2 36.1 l-22.5 23.2 -27.7 -14.6 -27.8 -14.5 0 -31.7 0 -31.6 -35.6 -22.3 c-31.6 -19.7 -35.9 -22.1 -37.8 -21.1 -1.2 0.6 -17.8 10.7 -37.1 22.4 l-35 21.2 -0.5 30.8 -0.5 30.8 -29.4 15.1 -29.5 15.1 -35.3 -35.7 c-32.5 -32.9 -35.1 -35.3 -33 -30.5 1.3 2.9 11.5 25.9 22.6 51 l20.3 45.8 36.1 0.2 36.2 0.3 0 48.5 c0 31.8 -0.3 48.4 -1 48.3 -0.5 -0.1 -29.1 -11.2 -63.5 -24.6 l-62.5 -24.5 -2.9 4.4 -2.8 4.4 7.3 7.9 c4.1 4.4 39.8 42.6 79.4 85 l72 77 4.2 0.1 4.3 0 5 -10z m278 -344 l0 -10 -10 0 -10 0 0 10 0 10 10 0 10 0 0 -10z m-448 -2 l0 -10 -9.5 0 -9.5 0 0 10 0 10 9.5 0 9.5 0 0 -10z"/>
 </g>
</svg>