<svg id="Layer_1" data-name="Layer 1" xmlns="http://www.w3.org/2000/svg" viewBox="0 0 3839.00076 347.39999"><polygon points="2431.2 52.2 2431.2 52.2 2431.2 295.3 2403.4 295.3 2403.4 52.2 2431.2 52.2" style="fill:#002684;fill-rule:evenodd"/><polygon points="2492.8 52.2 2492.8 52.2 2492.8 295.3 2465 295.3 2465 52.2 2492.8 52.2" style="fill:#12506f;fill-rule:evenodd"/><polygon points="2554.5 52.2 2554.5 52.2 2554.5 295.3 2526.7 295.3 2526.7 52.2 2554.5 52.2" style="fill:#24795b;fill-rule:evenodd"/><polygon points="2616.1 52.2 2616.1 52.2 2616.1 295.3 2588.4 295.3 2588.4 52.2 2616.1 52.2" style="fill:#36a346;fill-rule:evenodd"/><polygon points="2677.8 52.2 2677.8 52.2 2677.8 295.3 2650 295.3 2650 52.2 2677.8 52.2" style="fill:#48cc31;fill-rule:evenodd"/><polygon points="2739.5 52.2 2739.5 52.2 2739.5 295.3 2711.6 295.3 2711.6 52.2 2739.5 52.2" style="fill:#6ad434;fill-rule:evenodd"/><polygon points="2801.1 52.2 2801.1 52.2 2801.1 295.3 2773.3 295.3 2773.3 52.2 2801.1 52.2" style="fill:#8bdc37;fill-rule:evenodd"/><polygon points="2862.8 52.2 2862.8 52.2 2862.8 295.3 2835 295.3 2835 52.2 2862.8 52.2" style="fill:#aee53a;fill-rule:evenodd"/><polygon points="2924.4 52.2 2924.4 52.2 2924.4 295.3 2896.6 295.3 2896.6 52.2 2924.4 52.2" style="fill:#d0ed3d;fill-rule:evenodd"/><polygon points="2986 52.2 2986 52.2 2986 295.3 2958.2 295.3 2958.2 52.2 2986 52.2" style="fill:#f2f540;fill-rule:evenodd"/><polygon points="3047.7 52.2 3047.7 52.2 3047.7 295.3 3019.9 295.3 3019.9 52.2 3047.7 52.2" style="fill:#f5d630;fill-rule:evenodd"/><polygon points="3109.4 52.2 3109.4 52.2 3109.4 295.3 3081.6 295.3 3081.6 52.2 3109.4 52.2" style="fill:#f8b621;fill-rule:evenodd"/><polygon points="3171 52.2 3171 52.2 3171 295.3 3143.2 295.3 3143.2 52.2 3171 52.2" style="fill:#fa9711;fill-rule:evenodd"/><polygon points="3232.7 52.2 3232.7 52.2 3232.7 295.3 3204.9 295.3 3204.9 52.2 3232.7 52.2" style="fill:#fd7801;fill-rule:evenodd"/><polygon points="3294.3 52.2 3294.3 52.2 3294.3 295.3 3266.5 295.3 3266.5 52.2 3294.3 52.2" style="fill:#f9500e;fill-rule:evenodd"/><polygon points="3356 52.2 3356 52.2 3356 295.3 3328.2 295.3 3328.2 52.2 3356 52.2" style="fill:#f6281c;fill-rule:evenodd"/><polygon points="3417.6 52.2 3417.6 52.2 3417.6 295.3 3389.8 295.3 3389.8 52.2 3417.6 52.2" style="fill:#f20029;fill-rule:evenodd"/><path d="M538.2,161.9c-2.2-20.5-24.3-20-39.8-20-8.5,0-26.2.3-33,6.2-6.5,5.6-6.5,20.3-6.5,28.1,0,7.6.3,17.7,6,23.4,6.8,6.8,25.7,7.3,34.4,7.3a131.08673,131.08673,0,0,0,17.7-.8c12-1.7,19.1-5.3,21-18.6h49c-.5,14.9-1.4,29.3-12,40.5-11.2,12.1-28.4,14.6-43.9,15.5-11.7.6-23.2.8-34.9.8-21,0-51,.6-69-12.4-17.5-12.7-16.6-39.1-16.6-58.5,0-19.1-.3-41.9,15.3-55.4,16.9-14.6,52.1-13.5,72.9-13.5s56.8-.8,74,13.5a34.42811,34.42811,0,0,1,10.1,13.8c4.1,9.9,4.4,19.4,4.6,30.1Z" transform="translate(0 0)" style="fill:#fff"/><path d="M784.3,197.8c-1.1,12.9-4.4,24.5-14.2,33.2-16.6,14.9-55.9,13.2-76.4,13.2-21.3,0-58.9,2-76.4-13.2a36.96867,36.96867,0,0,1-10.4-14.6c-5.5-13.8-4.6-31.2-4.6-45.9a205.90505,205.90505,0,0,1,.8-22.2c1.1-12.7,5.7-23.9,15.8-31.8,16.4-12.9,55.4-12.1,74.8-12.1,19.6,0,58.1-.8,74.8,12.1a36.82916,36.82916,0,0,1,10.4,12.7c7.1,12.9,6.3,29.5,6.3,43.9C785.1,181.3,784.9,189.8,784.3,197.8Zm-53.5-48.5c-7.1-7-27.8-7.3-36.8-7.3-8.7,0-17.7.3-26.2,2-16.9,3.4-17.2,16.9-17.2,32.1,0,7.3-.3,17.2,4.9,22.8,7.4,8.2,28.7,8.2,38.5,8.2,9.3,0,19.1,0,28.1-2.5,15-4.2,14.7-18.3,14.7-32.1C736.8,164.7,736.6,154.9,730.8,149.3Z" transform="translate(0 0)" style="fill:#fff"/><path d="M1037.80005,240.9V178.7c0-28.7-3-36.9-32.7-36.9-33.3,0-35.8,13.5-35.8,44.2v54.9h-48.3V169.4c0-24.2-10.1-27.6-31.9-27.6-34.4,0-36.6,12.7-36.6,44.2v54.9h-48.3v-133h45.5v20h2.2c9-20.5,33-23.4,52.4-23.4,24.6,0,46.1,4.2,58.7,27.9,9.8-24.8,32.7-27.9,55.9-27.9,18.8,0,39.8,2.3,53.5,17.2,4.6,5.1,8.2,10.4,10.1,17.2,3.80005,12.9,3.5,26.7,3.5,40V241h-48.20007Z" transform="translate(0 0)" style="fill:#fff"/><path d="M1340.5,240.9V178.7c0-28.7-3-36.9-32.69995-36.9C1274.5,141.8,1272,155.3,1272,186v54.9H1223.7V169.4c0-24.2-10.1-27.6-31.9-27.6-34.4,0-36.6,12.7-36.6,44.2v54.9H1106.8999v-133h45.6v20h2.19995c9-20.5,33-23.4,52.4-23.4,24.6,0,46.1,4.2,58.69995,27.9,9.80005-24.8,32.7-27.9,55.9-27.9,18.80005,0,39.80005,2.3,53.5,17.2,4.6,5.1,8.19995,10.4,10.1,17.2,3.80005,12.9,3.5,26.7,3.5,40V241H1340.5Z" transform="translate(0 0)" style="fill:#fff"/><path d="M1588.80005,197.8c-1.1,12.9-4.4,24.5-14.19995,33.2-16.6,14.9-55.9,13.2-76.4,13.2-21.30005,0-58.9,2-76.4-13.2a36.96867,36.96867,0,0,1-10.4-14.6c-5.5-13.8-4.6-31.2-4.6-45.9a205.88713,205.88713,0,0,1,.80005-22.2c1.1-12.7,5.69995-23.9,15.8-31.8,16.4-12.9,55.4-12.1,74.80005-12.1,19.6,0,58.1-.8,74.8,12.1a36.82908,36.82908,0,0,1,10.4,12.7c7.1,12.9,6.3,29.5,6.3,43.9C1589.6,181.3,1589.30005,189.8,1588.80005,197.8Zm-53.5-48.5c-7.1-7-27.80005-7.3-36.80005-7.3-8.69995,0-17.69995.3-26.19995,2-16.9,3.4-17.19995,16.9-17.19995,32.1,0,7.3-.30005,17.2,4.9,22.8,7.4,8.2,28.7,8.2,38.5,8.2,9.30005,0,19.1,0,28.1-2.5,15-4.2,14.69995-18.3,14.69995-32.1C1541.30005,164.7,1541,154.9,1535.30005,149.3Z" transform="translate(0 0)" style="fill:#fff"/><path d="M1742.1,240.9V223.5h-2.5c-3.30005,5.6-5.7,9.3-11.2,12.7-12,7.6-32.19995,8.2-45.8,8.2-19.9,0-46.9.3-62.80005-14.1-14.19995-12.9-13.9-38.6-13.9-56.6,0-20.8.5-46.2,19.1-59.1,16.4-11.3,39.3-10.1,58.1-10.1,14.19995,0,29.69995-.3,42.3,7.3,6.30005,3.7,8.5,7.3,12,13.8h1.9V53.3H1787.6V241h-45.5Zm-4.9-86.6C1731.5,140.8,1710.7,141.9,1699,141.9c-12,0-36.30005-1.4-42.30005,12.7-2.19995,5.6-2.5,12.9-2.5,18.9,0,7.9-.30005,20,5.5,26.2,6.5,7.3,27.6,7.3,36.30005,7.3,9.80005,0,21.80005-.6,31.1-3.7,13.1-4.2,12.8-17.2,12.8-29.3C1739.9,167.8,1739.6,160.2,1737.2,154.3Z" transform="translate(0 0)" style="fill:#fff"/><path d="M1988.80005,197.8c-1.1,12.9-4.4,24.5-14.19995,33.2-16.6,14.9-55.9,13.2-76.4,13.2-21.30005,0-58.9,2-76.4-13.2a36.96867,36.96867,0,0,1-10.4-14.6c-5.5-13.8-4.6-31.2-4.6-45.9a205.88713,205.88713,0,0,1,.80005-22.2c1.1-12.7,5.69995-23.9,15.8-31.8,16.4-12.9,55.4-12.1,74.80005-12.1,19.6,0,58.1-.8,74.8,12.1a36.82908,36.82908,0,0,1,10.4,12.7c7.1,12.9,6.3,29.5,6.3,43.9C1989.6,181.3,1989.30005,189.8,1988.80005,197.8Zm-53.5-48.5c-7.1-7-27.80005-7.3-36.80005-7.3-8.69995,0-17.69995.3-26.19995,2-16.9,3.4-17.19995,16.9-17.19995,32.1,0,7.3-.30005,17.2,4.9,22.8,7.4,8.2,28.7,8.2,38.5,8.2,9.30005,0,19.1,0,28.1-2.5,15-4.2,14.69995-18.3,14.69995-32.1C1941.30005,164.7,1941,154.9,1935.30005,149.3Z" transform="translate(0 0)" style="fill:#fff"/><path d="M2158.2,167H2112.8999c0-19.7-6.3-25-25.3999-25-29.7,0-30.6001,19.4-30.6001,43.9V241h-48.3V107.9H2054.2v20h2.19995c11.2-20.5,29.2-23.4,50.2-23.4,15,0,33,2,43.1001,14.9,9,11.5,8.69995,28.1,8.69995,42.2C2158.5,163.3,2158.2,165.3,2158.2,167Z" transform="translate(0 0)" style="fill:#fff"/><path d="M2343.80005,185.3H2217.7c0,7.6-.30005,16.3,6,21.7,6.5,5.3,24.8,5.6,32.69995,5.6s30,.3,35.2-5.6c2.19995-2.3,2.69995-5.3,3.3-8.4h48c-1.1001,12.7-3.5,22.5-12.8,31.2-16.60009,15.5-56.5,14.6-77.5,14.6-19.10009,0-51,.3-66.8999-12.4a37.79293,37.79293,0,0,1-10.8999-14.1c-6-12.9-5.5-29-5.5-42.8,0-8.4,0-16.9.80005-25,1.3999-13.5,5.69995-25.6,16.6001-33.8,16.8999-12.7,50.8-11.8,70.69995-11.8,18.30005,0,38.2-.6,55.8999,4.8,28.7,8.7,30.6001,35.7,30.6001,62.5A121.60376,121.60376,0,0,1,2343.80005,185.3Zm-48.3-30.4c0-5.1-.3-9-3.8-12.9-5.7-6.5-25.3999-6.5-33.30005-6.5-7.3999,0-14.69995,0-21.8,1.1-13.60009,2-18.60009,7.3-18.80005,21.4h77.80005l-.09985-3.1Z" transform="translate(0 0)" style="fill:#fff"/><path d="M79.1,173.7c0-50.8,40.1-92.1,89.3-92.1a86.80932,86.80932,0,0,1,43.5,11.7V5.9A164.29609,164.29609,0,0,0,168.4,0C75.4,0,0,77.7,0,173.7S75.4,347.4,168.4,347.4a163.73437,163.73437,0,0,0,43.5-5.9V254a86.07431,86.07431,0,0,1-43.5,11.7C119.2,265.6,79.1,224.3,79.1,173.7Z" transform="translate(0 0)" style="fill:#fff"/><polygon points="211.9 167.3 291.3 167.3 358.6 97.9 211.9 97.9 211.9 167.3" style="fill:#fff"/><polygon points="211.9 180 211.9 249.3 358.6 249.3 291.3 180 211.9 180" style="fill:#fff"/><path d="M3461.30005,295.3V52.4h75.30005V295.3Z" transform="translate(0 0)" style="fill:#fff"/><path d="M3771.8999,120.5c0-3.6-.3999-8.7-3.5-11.3-3.19995-2.5-8.1001-2.9-11.69995-3.3-18.3999-1.8-37.5-1.8-56.2-1.8-17.3,0-36,0-53,3.3-3.8999.7-7.3999,1.8-10.6001,4.4-8.1001,6.6-7.3999,24.8-7.3999,34.3v13.5a55.7999,55.7999,0,0,1,13.8-10.9c19.80005-11.7,59.3999-10.6,81.6001-10.6,24,0,53.3999.4,76.30005,8a52.68575,52.68575,0,0,1,21.8999,13.5c14.1001,14.2,14.5,41.5,14.5,60.5,0,34.6-5.7,65.6-43.1001,73.2-14.5,2.9-29.3,4-43.8,4.4-21.2.4-42.1001.7-63.30005.7-29.69995,0-85.19995,1.8-107.8-19.3-16.30005-14.9-17.30005-44.1-18-64.9-.3999-16-.7-32.4-.7-48.5,0-29.2-3.19995-76.5,20.1001-97.3,22.3-20,98.2-18.9,126.2-18.9,15.5,0,31.1001,0,46.6001.7,21.6001.7,58,1.8,74.2,18.9,11.3,12,11,35.7,11,51.4Zm-20.5,74.3c-19.1001-2.9-39.6001-2.2-59-2.2-14.1001,0-28.6001-.7-42.8,1.5-13.80005,2.2-19.10009,10.9-19.10009,24.8,0,6.2,1.3999,14.2,5.69995,19,7.10009,7.7,47,5.8,56.2,5.8,12.3999,0,24.3999-.4,36.8-.7,8.80005-.4,26.8999.7,33.8999-6.2,4.19995-4.4,4.8999-12.4,4.8999-18.2C3768,205,3765.1001,196.9,3751.3999,194.8Z" transform="translate(0 0)" style="fill:#fff"/></svg>