<?xml version="1.0" encoding="utf-8"?>
<!DOCTYPE svg PUBLIC "-//W3C//DTD SVG 20010904//EN" "http://www.w3.org/TR/2001/REC-SVG-20010904/DTD/svg10.dtd">
<svg version="1.0" xmlns="http://www.w3.org/2000/svg" width="1200px" height="734px" viewBox="0 0 1200 734" preserveAspectRatio="xMidYMid meet">
 <g fill="#ffffff">
  <path d="M1135.5 732.9 c-19.1 -1 -26.5 -6.5 -26.5 -19.9 l0 -5 9 0 9 0 0 3.5 c0 4.8 1.3 5 27 5 19 0 21.9 -0.2 24.3 -1.8 2.1 -1.4 2.7 -2.5 2.7 -5.5 0 -6.9 0.9 -6.6 -28.7 -7.3 -28.2 -0.6 -29.9 -0.8 -36.2 -5.6 -4.8 -3.7 -7.1 -9.4 -7.1 -17.8 0 -9.3 2.7 -14.9 9 -18.7 6.9 -4.2 14.1 -5.2 38 -5.2 19.8 0 21.9 0.1 27 2.2 9.4 3.7 14 9.7 14 18.2 l0 4 -9 0 c-8.8 0 -9 -0.1 -9 -2.4 0 -4.6 -2 -5.1 -21.3 -5.4 -10 -0.2 -20.1 -0.1 -22.5 0.3 -5.2 0.8 -8.2 3.5 -8.2 7.4 0 5.3 1.1 5.5 29.4 6.3 26.6 0.6 30.4 1.2 35.7 5 8.1 6 10 23.4 3.6 33 -4.8 7 -13.6 9.5 -36.7 10 -6.9 0.2 -17.4 0 -23.5 -0.3z"/>
  <path d="M21 732 c-16.6 -2.9 -20.2 -9.8 -20.1 -38.5 0.1 -30.4 3.9 -36.3 25.3 -38.6 12.1 -1.3 48.5 -0.6 53.9 1 10.3 3.2 14.9 10 14.9 22.3 l0 7.8 -9 0 -9 0 0 -6 c0 -8.6 0.2 -8.5 -27.5 -8.5 -12.6 0 -24.2 0.3 -25.7 0.8 -3.7 1 -4.3 4.6 -4.1 24.1 0.1 13.2 0.4 16.1 1.7 17.5 1.5 1.4 4.9 1.6 27.5 1.6 20.4 0 26.1 -0.3 27.4 -1.4 1.3 -1 1.7 -3 1.7 -7.7 l0 -6.4 9.1 0 9.2 0 -0.6 9.4 c-0.6 11.1 -2.5 15.8 -7.6 19.1 -2 1.3 -6.3 2.8 -9.5 3.4 -6.8 1.2 -50.7 1.3 -57.6 0.1z"/>
  <path d="M130.4 732 c-10.9 -1.6 -17.2 -7.3 -19.4 -17.3 -1.6 -7 -0.8 -40.8 1.1 -46.1 2 -5.8 6.9 -10.2 13.7 -12.3 4.9 -1.6 9.7 -1.8 34.7 -1.8 32.9 0 37.7 0.7 43.8 6.9 5.3 5.2 6.2 10.2 6.2 32.6 0 21.6 -0.8 26 -5.6 31.4 -5.5 6.3 -8.9 6.9 -40.9 7.2 -15.7 0.1 -30.8 -0.1 -33.6 -0.6z m58.8 -17.4 c2.5 -1.1 3.2 -6.2 3.2 -22.1 0 -16.9 -0.5 -19.2 -4.2 -20.2 -3.5 -1 -51.9 -1 -55.4 0 -3.7 1 -4.3 4.6 -4.2 23.2 0 16.9 0.7 19.1 5.7 19.8 5.4 0.8 53.1 0.1 54.9 -0.7z"/>
  <path d="M227 693.5 l0 -39.7 39.3 0.4 c43.9 0.5 46.3 0.8 53 7.3 7.3 7.1 9.2 14.9 8.5 35.2 -0.4 10.9 -1 15 -2.7 19.5 -2.5 6.6 -8.9 13 -14.7 14.9 -2.8 0.9 -15.3 1.4 -43.6 1.6 l-39.8 0.4 0 -39.6z m78 19.7 c3.6 -3.6 4.3 -8.4 3.9 -23.6 -0.4 -12.5 -1.9 -16.3 -7 -17.7 -1.3 -0.4 -14.4 -0.7 -29.1 -0.8 l-26.8 -0.1 0 22.5 0 22.5 28.1 0 28.1 0 2.8 -2.8z"/>
  <path d="M344 693.5 l0 -39.5 40.5 0 40.5 0 0 8.5 0 8.5 -31.5 0 -31.5 0 0 6.5 0 6.5 30.5 0 30.5 0 0 8.5 0 8.5 -30.5 0 -30.5 0 0 7.5 0 7.5 31.5 0 31.5 0 0 8.5 0 8.5 -40.5 0 -40.5 0 0 -39.5z"/>
  <path d="M439 693.5 l0 -39.5 13.3 0 13.2 0 18.9 28 c10.5 15.4 19.2 28 19.5 28 0.3 0 8.9 -12.6 19.1 -28 l18.4 -28 13.3 0 13.3 0 0 39.5 0 39.5 -9.5 0 -9.5 0 -0.2 -28.4 -0.3 -28.4 -19 28.1 -19 28.2 -6.5 0.3 -6.5 0.2 -19.5 -28.7 -19.5 -28.6 -0.3 28.6 -0.2 28.7 -9.5 0 -9.5 0 0 -39.5z"/>
  <path d="M600.9 693.5 l23.6 -39.5 10.5 0.3 10.4 0.2 21.8 36.5 c12 20.1 22.5 37.7 23.4 39.3 l1.5 2.7 -10.4 0 -10.3 0 -4.4 -7.5 -4.4 -7.5 -27.7 0 -27.7 0 -4.4 7.5 -4.3 7.5 -10.6 0 -10.7 0 23.7 -39.5z m51.1 6.9 c0 -0.9 -16.4 -28.3 -17 -28.3 -0.6 0 -17 27.4 -17 28.3 0 0.3 7.7 0.6 17 0.6 9.4 0 17 -0.3 17 -0.6z"/>
  <path d="M713.6 731.9 c-9.7 -2.4 -14.5 -8.2 -15.4 -18.5 l-0.5 -6.4 9.2 0 9.1 0 0 2.8 c0 5.9 1.1 6.3 18.6 6.9 17.6 0.6 33.2 -0.7 34.5 -2.8 1.3 -2.1 1.1 -9.7 -0.3 -10.6 -0.7 -0.4 -13 -1 -27.3 -1.3 -25.4 -0.5 -26.1 -0.6 -31.6 -3.1 -8.3 -3.9 -11.9 -10.2 -11.9 -20.8 0.1 -9.5 4.4 -16.5 12.5 -20.1 9.3 -4.2 49.4 -5.3 60.8 -1.7 9.3 3 13.8 8.2 15.1 18 l0.7 4.7 -9.5 0 -9.6 0 0 -3 c0 -2.6 -0.5 -3 -4.2 -4.1 -5.8 -1.5 -41.5 -0.8 -44.5 0.9 -1.8 1 -2.3 2.2 -2.3 5.7 0 2.4 0.6 4.7 1.3 5.2 0.6 0.4 12.7 1 26.7 1.4 16.7 0.4 27 1.1 30 2 11.5 3.5 16.7 16.3 12.5 30.7 -1.8 6 -7.3 11.3 -13.8 13.2 -5.3 1.6 -54.5 2.3 -60.1 0.9z"/>
  <path d="M836 702 l0 -31 -18.5 0 -18.5 0 0 -8.5 0 -8.5 46.5 0 46.5 0 0 8.5 0 8.5 -18.5 0 -18.5 0 0 31 0 31 -9.5 0 -9.5 0 0 -31z"/>
  <path d="M905 693.5 l0 -39.5 41 0 41 0 0 8.5 0 8.5 -31.5 0 -31.5 0 0 6.5 0 6.5 30 0 30 0 0 8.5 0 8.5 -30 0 -30 0 0 7.5 0 7.5 31.5 0 31.5 0 0 8.5 0 8.5 -41 0 -41 0 0 -39.5z"/>
  <path d="M1000 693.5 l0 -39.5 33.8 0 c44.9 0 49.7 0.8 56.4 9.1 5.8 7.2 6.2 25.8 0.8 33.1 -2.1 2.8 -2.1 3 -0.4 4.9 1.7 1.9 3.2 13.8 3.4 26.7 l0 5.2 -9.4 0 -9.4 0 -0.4 -12 c-0.2 -8 -0.7 -12.3 -1.6 -13.2 -1 -1 -7.7 -1.4 -27.7 -1.6 l-26.5 -0.3 0 13.5 0 13.6 -9.5 0 -9.5 0 0 -39.5z m74.6 -6.9 c1.8 -2.5 1.8 -10.7 0 -13.2 -1.4 -1.8 -3.1 -1.9 -28.5 -2.2 l-27.1 -0.3 0 9.1 0 9.1 27.1 -0.3 c25.4 -0.3 27.1 -0.4 28.5 -2.2z"/>
  <path d="M444.2 596.9 c-11.7 -2 -24.3 -7.6 -33.1 -14.7 -9.7 -7.9 -80 -73.8 -85.3 -80 -7 -8.1 -15 -23.7 -18 -34.7 -3 -11.4 -3 -32.7 0 -43.9 2.7 -9.6 7.8 -20.6 12.9 -27.3 2.1 -2.8 19.3 -22.5 38.2 -43.7 18.8 -21.3 34.1 -38.9 33.8 -39.2 -0.2 -0.3 -13.2 5.2 -28.8 12.2 -30.2 13.5 -35.5 15 -42.1 12.3 -4.6 -1.9 -33.7 -30 -37 -35.7 -3.3 -5.6 -3.7 -13 -1 -18 1.7 -3.3 122.8 -131.9 133.7 -142.1 3.4 -3.1 45.7 -32.8 94 -66 48.4 -33.3 89.6 -61.6 91.5 -63 2.6 -1.8 1.9 -0.8 -2.6 4 -24.8 26.1 -149.3 164.2 -151.3 167.8 -3.6 6.5 -3.5 16.7 0.2 24.3 2.9 5.8 36.8 42.1 43.9 47 8.1 5.5 20.3 5.4 26.5 -0.3 1.4 -1.3 27.7 -31.9 58.3 -68 30.7 -36 57.5 -66.7 59.7 -68.2 12.7 -8.8 30.5 -7.9 45.4 2.3 5.3 3.6 11.2 9.9 30.6 32.4 10.6 12.4 16.5 23 18.8 34.1 3 14.1 1.1 28.9 -4.9 38.7 -1.8 2.9 -25.7 34.6 -53.1 70.3 -27.4 35.8 -50.7 67 -51.8 69.5 -1.4 3.1 -2.1 6.6 -2 11.1 0 11 2.4 14.7 23.7 36.9 10.5 11 20.4 20.5 22.8 21.8 5.5 3 12.9 3 18.3 -0.1 3.3 -1.8 12.4 -14 51.6 -68.7 26.3 -36.6 49.9 -68.8 52.6 -71.5 11.3 -11.8 27.1 -13.5 41.5 -4.4 9.6 6.2 35.1 35.7 40.9 47.3 8.1 16.6 9.1 35.2 2.5 50 -1.3 2.8 -22 35.3 -46 72.1 -24.1 36.9 -44.7 68.8 -45.8 71 -2.9 5.5 -3.4 14.8 -1.4 21.9 1.5 5.2 3.1 7.2 17.5 22.4 8.6 9.2 17.2 17.7 19.1 19 l3.3 2.2 -71.4 -0.1 -71.4 0 8.5 -2.5 c15 -4.4 29.3 -13.8 39.3 -25.8 6.2 -7.5 128.4 -190.6 130.5 -195.5 0.8 -2.1 1.4 -6.5 1.4 -10.4 0 -9.6 -2.8 -14.4 -18.2 -31.9 -13.7 -15.5 -18 -18.8 -24.6 -18.8 -8.3 0 -7.2 -1.3 -58.2 70.9 -26.2 37.2 -49.6 69.7 -51.9 72.2 -2.4 2.6 -7.1 6.2 -10.6 8 -6 3.3 -6.6 3.4 -17.2 3.4 -10.5 0 -11.4 -0.2 -18 -3.4 -6.2 -2.9 -9.4 -5.8 -28.3 -25 -26.4 -26.8 -30.7 -32.7 -34.8 -48.4 -1.8 -7.1 -2 -22.3 -0.3 -29.2 2.7 -11.2 6.4 -16.5 58.9 -83.5 28.7 -36.6 53 -68.3 54.1 -70.5 2.8 -6 2.5 -15.6 -0.6 -22.3 -2.3 -4.9 -22.7 -29.4 -31.7 -37.9 -3.4 -3.3 -10.3 -6.3 -14.4 -6.3 -7.9 0 -6.4 -1.7 -85.1 92.8 -41 49.3 -76.4 91.9 -78.5 94.7 -8.9 11.6 -17.4 32.9 -19.7 49.9 -4.3 31.1 4.6 66.2 23.2 91.2 4.6 6.1 33.6 35.2 91.2 91.5 24.2 23.6 34.1 30.2 52 34.9 6.9 1.9 5.9 1.9 -94.5 1.8 -55.8 0 -103.9 -0.4 -106.8 -0.9z"/>
 </g>
 <g fill="#ffffff">
 </g>
</svg>