<?xml version="1.0" encoding="UTF-8" standalone="no"?>
<svg
   version="1.0"
   width="1769px"
   height="569px"
   viewBox="0 0 1769 569"
   preserveAspectRatio="xMidYMid meet"
   id="svg64"
   sodipodi:docname="crash.svg"
   inkscape:version="1.2 (dc2aedaf03, 2022-05-15)"
   xmlns:inkscape="http://www.inkscape.org/namespaces/inkscape"
   xmlns:sodipodi="http://sodipodi.sourceforge.net/DTD/sodipodi-0.dtd"
   xmlns="http://www.w3.org/2000/svg"
   xmlns:svg="http://www.w3.org/2000/svg">
  <defs
     id="defs68" />
  <sodipodi:namedview
     id="namedview66"
     pagecolor="#ffffff"
     bordercolor="#000000"
     borderopacity="0.25"
     inkscape:showpageshadow="2"
     inkscape:pageopacity="0.0"
     inkscape:pagecheckerboard="0"
     inkscape:deskcolor="#d1d1d1"
     showgrid="false"
     inkscape:zoom="1.0224868"
     inkscape:cx="929.10735"
     inkscape:cy="58.680464"
     inkscape:window-width="1920"
     inkscape:window-height="1017"
     inkscape:window-x="-8"
     inkscape:window-y="-8"
     inkscape:window-maximized="1"
     inkscape:current-layer="g6" />
  <g
     fill="#311b04"
     id="g6">
    <path
       d="M395.3 556.3 l-28.3 -11.6 6.5 -7.7 6.5 -7.8 0 -6.9 c0 -10.9 -1.7 -11.5 -14.8 -4.9 -10.5 5.3 -14 6.5 -31.8 11 -17.5 4.5 -27.3 5.5 -55.4 5.7 -23.7 0.1 -26.9 -0.3 -49.7 -5.5 -23.8 -5.5 -52.2 -17.4 -79.6 -33.3 -15.4 -8.9 -19.5 -11.8 -33.6 -23.2 -5.8 -4.6 -14.3 -10.9 -19 -13.9 -21.2 -13.6 -42.5 -36.9 -59.5 -65 -12.3 -20.3 -15.1 -26.1 -20.6 -43.3 -17.2 -52.8 -20.2 -111.3 -8.3 -161.4 13.8 -58.5 56.7 -117.8 111.3 -153.8 22.4 -14.8 48.9 -24.4 86.5 -31.3 14.3 -2.7 50.3 -2.7 62.5 -0.1 24.8 5.4 48 15.9 71.3 32.6 7.6 5.4 8 5.8 14 17.4 l6.2 11.8 5 -0.6 c2.8 -0.3 29.8 -4.4 60 -9 81 -12.4 98.8 -14.1 137.5 -13.2 43.9 1 73.4 7.7 98.3 22.5 21.5 12.7 38.6 33.8 43.2 53.3 2.8 11.7 14.7 100.1 14 104.3 -0.8 5.3 -6.8 16.5 -11.6 21.7 -3.2 3.5 -3.7 4.6 -2.6 5.4 15 11.2 30.7 22.5 31.4 22.5 0.5 0 19.1 -56.6 41.3 -125.7 22.2 -69.2 40.5 -125.9 40.6 -126.1 0.1 -0.2 39.3 4.5 87.1 10.5 l87 10.8 33.6 79 c18.5 43.4 34 79.1 34.4 79.2 0.5 0.2 0.7 -3.1 0.5 -7.2 -0.7 -12.6 3 -30.7 15.4 -74.9 6 -21.4 9.1 -28.8 16 -37.7 8.4 -10.9 24.7 -23.6 38.5 -29.8 26.8 -12.1 70.8 -19.4 125.4 -20.8 42.8 -1.1 78.2 3.2 129.8 15.8 l17.3 4.2 -8.1 41.1 -8 41.2 -7.2 11.7 c-6.5 10.4 -8.2 13.7 -6.9 13.7 0.4 0 24.4 4.8 27.1 5.5 1.7 0.4 2.1 -0.1 2.3 -2.8 0.1 -1.8 0.7 -9.5 1.3 -17.2 l1.1 -14 15.1 -39 c8.2 -21.4 15.1 -39.1 15.2 -39.3 0.5 -0.7 162.7 -23.3 163.2 -22.8 0.5 0.5 -4.1 64.3 -7.3 100.1 -0.7 7.8 -0.8 7.9 14.6 -19 11.4 -19.7 12.6 -21.5 15.4 -21.9 1.7 -0.3 30.1 -0.8 63.1 -1.2 l60 -0.6 8.8 121.9 c4.8 67 10.8 149 13.3 182.2 2.6 34.3 4.2 60.7 3.7 61.2 -0.5 0.5 -23.5 11.4 -51.2 24.3 l-50.3 23.5 -36.1 -4.5 c-19.9 -2.4 -37.6 -4.6 -39.3 -4.9 l-3 -0.5 1.8 16.1 c1 8.9 1.7 16.3 1.6 16.4 -0.2 0.2 -17.9 7.8 -39.4 16.9 l-39.1 16.7 -27.6 -15.1 c-15.2 -8.2 -28.1 -15 -28.6 -15 -1 0 -3.5 7.5 -2.9 8.9 0.2 0.5 3.6 3.6 7.6 7.1 4 3.4 7.1 6.4 6.9 6.7 -0.2 0.2 -13.9 4.9 -30.3 10.4 l-29.9 10.1 -22.2 0.5 c-18.4 0.5 -22.3 0.3 -22.3 -0.8 0 -0.7 2.5 -3.9 5.6 -7 l5.6 -5.6 0.9 -24.8 c0.5 -13.6 0.7 -25 0.4 -25.4 -0.4 -0.3 -1.1 0.2 -1.6 1.1 -3.7 6.7 -31.2 26.9 -47.8 35.2 -24.4 12.3 -38.5 16.2 -52 14.5 -6.5 -0.8 -8.3 -1.5 -15.5 -6.3 -9 -6.1 -12.7 -10.9 -21.8 -28.1 -2.6 -5.1 -5.5 -9.5 -6.2 -9.8 -0.7 -0.3 -6.9 -0.8 -13.7 -1.2 l-12.4 -0.6 -18.5 11.6 c-28.7 17.9 -31.1 18.8 -47.2 17.4 -15.2 -1.3 -22 -5.8 -33.9 -22.5 -6.4 -8.9 -11.9 -22.8 -11.9 -30 0 -2.9 -0.4 -4.4 -1.2 -4.4 -0.7 0 -7.8 6.8 -15.6 15 -11.7 12.2 -16.5 16.4 -25.5 22.4 -12.7 8.5 -17.5 10.1 -28 9.4 -15.5 -1.1 -23.1 -5 -34.3 -17.9 -3.9 -4.5 -6.1 -8.5 -9.7 -17.7 -5.2 -13.2 -6.9 -23.3 -6.8 -40.7 l0.1 -10 -8.2 -23.2 c-4.5 -12.8 -8.4 -23.3 -8.8 -23.3 -0.6 0 -20.1 74.6 -20 76.7 0 0.6 6.1 5.4 13.5 10.7 7.4 5.3 13.5 10.2 13.5 10.9 0 0.7 -0.7 6.4 -1.7 12.7 l-1.7 11.6 -30 2.7 c-16.6 1.5 -30.9 2.8 -31.8 2.7 -1.6 0 -1.8 -1.2 -1.8 -11.9 l0 -12 10.1 -8.8 10.1 -8.7 -0.7 -41.6 c-0.7 -38.5 -1.2 -45 -3.4 -45 -1 0 -1.5 2.6 -6.2 33 l-3.3 21.6 -12.9 2.9 -12.9 3 -3.3 9.7 c-5.5 16.4 -10.7 24.2 -22.3 33.3 -12.6 10 -18.7 12.8 -38.3 17.4 -19 4.4 -47.3 9.5 -49.2 8.8 -0.7 -0.2 -4.7 -5.9 -9 -12.6 l-7.9 -12.1 7.6 -9.5 c4.2 -5.2 7.6 -10.1 7.6 -11 0 -2 -1.8 -1.9 -18 1.3 l-13.4 2.7 -6.2 31 c-3.5 17.1 -6.4 31.6 -6.6 32.2 -0.2 0.8 -9.4 -4.4 -22.9 -13 l-22.6 -14.2 -3.3 -6.2 c-1.8 -3.5 -3.6 -6.3 -4.1 -6.3 -0.5 0 -0.9 3.5 -0.9 7.7 0 5.6 0.7 9.9 2.7 16 1.5 4.5 2.5 8.4 2.2 8.7 -0.2 0.2 -8.5 0.7 -18.4 1.1 l-18 0.7 -16.3 -6.7 c-8.9 -3.7 -16.5 -6.5 -16.9 -6.1 -1.2 1.2 4.9 14.6 8.8 19.3 2.9 3.6 3.6 4.9 2.5 5.5 -1.5 0.9 -50.5 14.8 -52 14.8 -0.5 0 -7.6 -3.8 -15.7 -8.5 -8.1 -4.7 -15.7 -8.5 -16.9 -8.5 -1.2 0 -8.7 1.2 -16.8 2.7 l-14.6 2.6 -9.9 -3.4 c-9.2 -3.2 -9.9 -3.3 -11.1 -1.7 -0.7 1 -3.8 2.9 -6.8 4.2 -6 2.7 -39.2 12.6 -41.7 12.5 -0.9 0 -14.3 -5.2 -29.8 -11.6z m136.8 -26 c6.3 -6 6.5 -6.5 4.7 -12.5 -1.1 -3.7 -1.3 -3.9 -4.7 -3.6 -3.5 0.3 -3.5 0.3 -6.4 9.5 -4.4 13.9 -2.9 15.5 6.4 6.6z m58.2 -36 c1.4 -3.5 6.7 -40.9 6.7 -47.8 0 -3.2 -34.7 -76.5 -36.2 -76.5 -0.4 0 -6.7 3.9 -13.8 8.7 l-13 8.6 0 4.6 0 4.7 11.8 5.8 11.8 5.8 14.9 44.9 c8.3 24.7 15.2 44.9 15.6 44.9 0.3 0 1.3 -1.7 2.2 -3.7z m465.2 -10.1 c4.3 -2.1 7.5 -4.6 11.1 -8.8 5.3 -6.2 10.4 -13.3 10.4 -14.6 0 -0.5 -11.7 -0.8 -26.1 -0.8 l-26.1 0 0.6 2.8 c1.1 4.9 8.9 19.4 11.3 20.9 2.4 1.6 7.2 3 10.8 3.2 1.1 0.1 4.7 -1.2 8 -2.7z m-704.1 -150.6 c0.5 -17.9 0.6 -32.9 0.4 -33.2 -0.3 -0.2 -5 -1.6 -10.4 -3 -13.3 -3.4 -31.9 -4.3 -45.7 -2 -17.8 2.9 -28 7.6 -35.5 16.1 -7.1 8.1 -13.8 24.5 -10 24.5 4.2 0 23 -13.9 27.9 -20.7 l3 -4.3 9.7 8 c5.3 4.3 20.5 16.9 33.7 27.9 13.2 11 24.5 19.8 25 19.7 0.6 -0.2 1.3 -12.7 1.9 -33z"
       id="path2" />
  </g>
  <g
     fill="#6c5a14"
     id="g12">
    <path
       d="M1428.5 544.4 l10.6 -11.6 -0.5 -5.2 c-0.3 -2.8 -0.8 -27.5 -1.2 -54.8 -0.3 -27.4 -0.8 -49.8 -1 -49.8 -0.2 0 -6.5 6.3 -14 14 -7.5 7.7 -14 14 -14.4 14 -0.3 0 -0.5 -1.2 -0.3 -2.7 0.5 -3.5 4 -40.7 3.9 -41 -0.1 0 -5.1 1.9 -11.2 4.4 l-11.2 4.6 3 4.8 c12 19.5 10 42.7 -6.1 69.2 -8.7 14.4 -18.9 24.8 -34.4 35 -13.2 8.7 -17.6 10.2 -28 9.5 -10.3 -0.7 -17.3 -4.3 -26.8 -13.7 -16.4 -16.4 -26.6 -41.3 -27.6 -67.7 -0.6 -14.6 0.4 -19.9 5.9 -30.8 2.8 -5.6 13 -16.9 18.8 -21 1.4 -0.9 -1.5 0.4 -6.5 3 -10.4 5.4 -20.9 12.5 -27.8 18.6 -4.8 4.2 -4.9 4.5 -5.8 12.1 -2.3 18.6 -14 41 -31.1 59.5 -6.6 7 -6.9 7.5 -1.8 2.5 l6.4 -6.2 1.7 8.2 c0.9 4.5 2 8.9 2.3 9.7 0.6 1.4 -0.4 1.5 -7.1 0.8 -4.3 -0.3 -9.5 -0.7 -11.7 -0.7 -3.4 -0.1 -3.7 -0.3 -2.5 -1.7 0.7 -0.9 -2.6 0.7 -7.3 3.5 -10.5 6.2 -18.7 8.5 -27.9 7.9 -24.3 -1.8 -47.1 -30.4 -55.5 -69.5 -2.5 -11.8 -2.4 -28.2 0.3 -36.8 2.5 -7.8 7.7 -17.2 12.6 -22.4 2.7 -2.9 2.2 -2.7 -3 1.4 -7.7 5.9 -22.5 21.1 -24.7 25.4 -0.9 1.7 -3 6.8 -4.7 11.3 -2.7 7.3 -13.9 26.7 -17.6 30.3 -1.1 1.2 0.1 2.5 7.1 8.2 4.7 3.7 8.5 7.2 8.5 7.7 0.2 1.7 -17.2 17.6 -24.3 22.3 -18.7 12.4 -36.9 12.6 -52.9 0.5 -20 -15.3 -34.8 -51.9 -33.4 -82.7 0.3 -7.7 1.1 -12.6 2.5 -16.3 1.5 -3.8 1.7 -5 0.6 -4.1 -1.1 0.9 -1.4 0.8 -1.4 -0.4 0 -0.8 -2 -6.5 -4.5 -12.6 -2.5 -6.1 -4.5 -11.8 -4.5 -12.7 0 -0.8 1.6 -5.4 3.5 -10.1 2 -4.7 3.4 -8.8 3.1 -9 -0.3 -0.3 -5.6 3 -11.7 7.3 l-11.2 7.9 -3.9 14.5 c-11.8 44.4 -23.8 90.9 -23.8 92.2 0 0.9 6.2 6 13.8 11.4 l13.7 9.9 -16 1.7 c-37.5 4 -51.5 5.4 -51.5 5.2 0 -0.2 6.3 -5.8 14.1 -12.5 l14.1 -12.2 -0.6 -5.6 c-0.3 -3.1 -0.8 -22.9 -1.2 -44.1 -0.3 -21.2 -0.9 -41.3 -1.3 -44.6 l-0.6 -6.2 -13.4 -11.1 c-7.3 -6.1 -13.5 -11 -13.6 -10.9 -0.1 0.2 0.3 5.9 0.8 12.8 l0.9 12.5 4.2 4.5 c9.7 10.4 9.1 9.1 7.2 16.4 -1 4.1 -1.6 11.2 -1.7 19.8 -0.1 11.4 -2 30.3 -3.1 31.3 -0.7 0.6 -23.9 5.7 -24.3 5.3 -0.3 -0.2 -0.1 -2.9 0.4 -5.9 0.5 -3 1.2 -12.9 1.5 -21.9 0.5 -16.2 0.5 -16.4 -0.8 -8.5 -6.8 40.4 -28.1 61.5 -71.1 70.3 -18.1 3.8 -59.7 11.4 -60 11 -0.2 -0.2 3 -4.4 7.1 -9.5 7.3 -9.1 8.8 -12.3 5.9 -12.3 -0.8 0 -7.4 1.2 -14.6 2.6 -7.2 1.4 -13.3 2.3 -13.5 2.1 -0.2 -0.2 1.7 -11 4.4 -23.9 l4.8 -23.6 7.8 -9.7 7.9 -9.7 -0.7 -6 -0.6 -6 -15.2 -15.8 c-8.4 -8.7 -15.6 -16 -16 -16.2 -0.3 -0.1 -5.4 6.1 -11.2 14 l-10.6 14.3 -14.1 56.2 c-7.7 30.9 -14.5 57.9 -15 60.1 l-1 3.8 -5.8 -10.3 c-3.1 -5.7 -15.1 -28.4 -26.6 -50.3 -11.5 -22 -21 -39.5 -21.2 -39 -0.2 0.6 -2.5 16.7 -5.2 36 l-4.9 34.9 5.9 9 c3.2 4.9 5.7 9.1 5.5 9.3 -0.5 0.4 -36.8 10.1 -38.1 10.2 -0.9 0 3.7 -15.1 8.4 -27.5 1.1 -3 6.1 -40.5 6.1 -46 0 -2.8 -33.9 -75.1 -35.9 -76.5 -0.4 -0.3 -7.9 -15.5 -16.6 -33.7 -8.8 -18.3 -16.4 -33.3 -17 -33.3 -0.5 0.1 -8.2 4.7 -17 10.4 l-16 10.3 -0.3 49.7 -0.2 49.6 -5.3 -3 c-5.1 -2.9 -43.5 -21 -44.5 -21 -0.3 0 0.4 1 1.6 2.3 1.1 1.2 3.1 4.5 4.4 7.2 2 4.3 2.3 6.5 2.2 16 -0.2 16.4 -4.4 26.7 -14.9 36.4 -5.4 4.9 -18.4 12.1 -21.9 12.1 -2.6 0 -1.8 1.7 1.2 2.3 5 1.1 13.1 6.6 15.9 10.9 2.6 3.9 2.8 4.9 2.8 14.7 0 9.5 -0.3 11.2 -2.9 16.8 -4.3 9.4 -12.4 16.4 -22.1 19.2 -8.3 2.5 -40.8 8.9 -42.1 8.4 -1 -0.4 0.6 -2.9 5.1 -8.3 l6.5 -7.8 0 -6.3 c0 -7.3 -0.8 -10.9 -2.2 -10.9 -0.6 0 -7.3 -5 -15 -11.2 l-14 -11.1 0.7 -24 0.8 -24 -4.9 4 c-7.9 6.6 -19.6 14.7 -30.4 20.9 -7.6 4.4 -9.6 6 -8.2 6.5 2 0.8 4.9 3.9 3.6 3.9 -1.3 0 8.1 9.3 17.1 17 7.5 6.4 23.4 17.5 30.2 21.1 5.1 2.7 3.8 4.5 -5.6 7.8 -12.7 4.5 -31.3 8.9 -42.1 10.1 -15.9 1.6 -53.3 1.4 -62.5 -0.3 -36.5 -6.9 -64.7 -17.6 -98.8 -37.4 -15.4 -8.9 -19.5 -11.8 -33.6 -23.2 -5.8 -4.6 -14.3 -10.9 -19 -13.9 -25 -16.1 -46.4 -41.1 -68.8 -80.8 -4.9 -8.6 -8.8 -18.6 -13.8 -35.3 l-3.8 -12.4 2.1 -1.8 c1.3 -1 3.5 -1.6 5.8 -1.4 3.5 0.2 3.6 0.1 3 -2.8 -1 -5.1 0.2 -2.6 3.3 6.8 3.5 10.8 8.2 22.7 8.7 22.2 0.2 -0.2 -0.7 -3.2 -2.1 -6.6 -5.9 -14.4 -11.2 -34.8 -14.2 -54.1 -2.2 -14.4 -2.5 -58.5 -0.5 -72.5 5.7 -39.9 17.2 -71.5 38.4 -105.8 2.6 -4.3 4.5 -8.3 4.2 -8.8 -0.3 -0.5 -0.1 -0.8 0.4 -0.7 0.5 0.2 4.4 -4.3 8.6 -9.9 4.2 -5.6 12.7 -15.5 18.8 -22 l11.1 -11.8 -10.5 10.5 c-5.7 5.8 -13.3 14.1 -16.8 18.5 -3.5 4.4 -6.7 7.9 -7.2 7.8 -0.4 -0.2 -0.7 0 -0.7 0.5 0.3 2 -0.2 3.3 -1.1 2.7 -0.6 -0.4 -0.9 -0.1 -0.8 0.7 0.2 0.9 -0.9 1.3 -3.6 1.3 -3.3 0 -4 -0.3 -4.1 -2.2 -0.1 -1.2 0.2 -2 0.7 -1.7 0.8 0.5 1.2 -1 0.9 -3.5 -0.2 -0.7 0.2 -1 0.8 -0.6 0.6 0.3 1.1 0 1.1 -0.8 0 -3.7 26.1 -30.7 42.5 -44 27.5 -22.2 49.3 -32.8 85.4 -41.6 23.5 -5.8 30 -6.6 53.6 -6.6 24.4 0 30.2 0.8 49.7 7.1 17 5.5 44.1 20.3 58.3 31.7 l2.9 2.5 -4 16.8 c-2.3 9.3 -13 54.3 -23.9 99.9 -10.9 45.7 -19.9 83.1 -20 83.3 -0.1 0.1 -4.2 -2 -9.1 -4.9 -31.6 -18.2 -51.3 -24.3 -68.6 -21 -3.5 0.7 -11 3.5 -16.7 6.3 -8.9 4.3 -11.7 6.2 -18.7 13.2 -6.5 6.5 -9 9.9 -12.2 16.7 -5.6 11.6 -6 13.5 -2.9 14.3 1.3 0.3 5.7 3 9.8 6 4.1 3 7.8 5.2 8.3 4.8 0.5 -0.3 0.6 0 0.3 0.5 -0.7 1.1 2 2.8 3.6 2.4 0.5 -0.1 0.6 0.3 0.3 0.8 -0.5 0.7 2.2 2.5 3.2 2.1 0.2 0 1.2 0.9 2.3 2.2 1.1 1.3 1.8 1.6 1.4 0.8 -0.4 -0.8 0.1 -0.6 1 0.5 0.9 1.1 2 2 2.5 2 0.5 0 1.6 0.9 2.5 2 0.9 1.1 1.4 1.3 1 0.5 -0.5 -1.2 -0.4 -1.2 0.7 0.1 0.7 0.9 1.5 1.6 1.8 1.7 2.1 0.3 3.9 1.6 3.4 2.3 -0.3 0.5 -0.2 0.8 0.3 0.7 0.5 -0.2 8.1 4.5 16.9 10.5 8.8 5.9 16.8 10.7 17.7 10.7 2.8 0 3.1 2.6 1.1 10 -1 3.8 -1.4 7.3 -1 7.7 2.1 2.2 23 -12.7 28.7 -20.5 l3.1 -4.2 5.8 4.7 c3.3 2.7 5.9 5.3 5.9 5.8 0.1 0.6 2.7 3.5 5.8 6.5 3.2 3 4.1 3.7 2 1.5 -2 -2.3 -3.7 -4.4 -3.7 -4.8 0 -0.4 11.7 9 26 20.8 14.3 11.8 26.4 21.5 26.9 21.5 0.5 0 1.1 -15 1.5 -33.7 0.3 -18.6 1 -53.8 1.6 -78.3 0.5 -24.5 1.5 -69 2.1 -99 0.6 -30 1.3 -62.7 1.7 -72.8 l0.7 -18.3 5.5 -0.4 c3 -0.2 30.5 -4.2 61 -8.9 81.3 -12.5 99.1 -14.2 138 -13.3 35.5 0.8 57.4 4.5 80.2 13.7 23 9.2 39.3 22 51.5 40.4 6.4 9.5 9.9 19.2 11.8 32.6 1.5 9.6 1.5 12.6 0.5 18.9 -4.2 26.3 -21.5 56.1 -39.2 67.9 l-3.8 2.5 18.8 14.1 c10.3 7.7 19.7 15 20.7 16.1 2.9 2.8 31.1 23.5 32.2 23.5 0.5 0 19.1 -56.6 41.3 -125.8 22.2 -69.1 40.5 -125.8 40.6 -126 0.1 -0.2 39.3 4.5 87.1 10.5 l87 10.8 33.3 78.5 c18.4 43.2 34.2 79.6 35.1 81 0.9 1.4 6.6 14.1 12.5 28.3 6 14.1 11.2 25.7 11.5 25.7 0.4 0 9.3 -6.3 19.9 -14 l19.2 -14 11.1 6.3 c14.8 8.5 44 24.7 60.2 33.5 27.2 14.7 45 20.5 63 20.6 10.1 0.1 11.5 -0.1 16.8 -2.7 10.7 -5.3 14.3 -15.6 8.7 -25.5 -4.5 -8 -10.2 -10.3 -72 -29.7 -49.8 -15.6 -75.5 -27.7 -100.5 -47 -17.1 -13.2 -26.9 -27.5 -31.5 -45.7 -6.1 -24.3 2.1 -49 22.5 -67.6 7.1 -6.5 20.4 -15.4 28.6 -19.1 26.8 -12.1 70.8 -19.4 125.4 -20.8 42.8 -1.1 78.2 3.2 129.8 15.8 l17.3 4.2 -8 41.4 c-7.6 39.4 -8.1 41.4 -10.1 40.8 -26 -7.4 -47.6 -11.5 -60.8 -11.5 -9.3 0 -12.1 1 -14.7 5.2 -4.6 7.2 0.5 15 12.4 19.4 6.3 2.2 44.2 10.4 48.5 10.4 1 0 2.1 0.4 2.3 1 0.4 1.1 22.7 5.9 30.8 6.5 3 0.3 9.5 1.6 14.5 2.9 4.9 1.4 9.1 2.4 9.2 2.2 0.4 -0.4 3.7 -50.1 5.8 -87.6 1 -16.2 1.8 -29.6 1.9 -29.8 0.7 -0.7 162.8 -23.3 163.3 -22.8 0.4 0.3 -1 21.7 -3.1 47.4 -2.1 25.7 -4 51.4 -4.2 57.2 -0.2 5.8 -1.5 24.2 -2.9 40.9 -1.3 16.8 -2.4 30.6 -2.2 30.7 0.1 0.2 4.7 0.4 10.2 0.6 l10 0.3 2.2 -22 c1.2 -12.1 3.6 -36.6 5.3 -54.5 4.2 -44.1 3.6 -40.9 7.4 -41.4 1.7 -0.3 30.1 -0.8 63.1 -1.2 l60 -0.6 8.8 121.9 c4.8 67 10.8 149 13.3 182.2 3.1 40.5 4.3 60.6 3.6 61.3 -0.7 0.7 -8.8 0.5 -24.9 -0.6 -35.6 -2.3 -48.9 -2.9 -48.1 -2.2 0.6 0.8 -5 6.2 -11.2 10.8 -4.4 3.3 -9.7 12 -10.8 17.8 -0.8 4.3 0.3 12 2.1 14.8 0.8 1.1 -0.4 1.7 -2.6 1.3 -0.5 -0.1 -0.6 0.2 -0.4 0.6 0.3 0.5 -0.1 1.4 -0.9 2.1 -0.8 0.7 -1.4 1 -1.4 0.6 0 -0.3 -0.6 -0.1 -1.4 0.5 -1 0.8 -4 0.8 -11 0.1 -22.1 -2.3 -64.3 -7.1 -66.7 -7.6 l-2.5 -0.5 1.8 16.2 c1 8.9 1.7 16.3 1.6 16.5 -1 0.8 -76.4 32.4 -77.6 32.4 -1.9 0 -19.2 -9.2 -19.2 -10.2 0 -0.4 0.6 -0.6 1.3 -0.4 0.6 0.1 0.9 0.1 0.4 -0.1 -0.4 -0.3 -0.5 -0.9 -0.1 -1.4 0.8 -1.4 -0.3 -1.1 -2 0.7 -1.4 1.3 -1.6 1.3 -1.6 0 0 -0.8 -0.8 -1.7 -1.7 -1.9 -1.6 -0.4 -1.5 -0.6 0.4 -1.2 1.3 -0.4 1.9 -1.2 1.6 -2.1 -0.3 -0.8 0.1 -1.4 1 -1.4 0.8 0 1.8 -0.7 2.1 -1.6 0.3 -0.8 1 -1.3 1.4 -1 0.5 0.3 2 -0.6 3.5 -2 1.5 -1.3 3 -2.5 3.4 -2.7 0.5 -0.1 0.7 -0.5 0.6 -0.9 -0.2 -0.5 0.1 -0.8 0.7 -0.8 1.3 0 0.6 -9.8 -0.8 -11.2 -0.7 -0.7 -1.2 -2.3 -1.2 -3.6 0 -3.2 -3.6 -7.9 -15 -19.4 -5.9 -5.9 -9.6 -10.5 -9.6 -11.7 0 -1.2 0.4 -2.1 0.8 -2.1 0.4 0 0.8 0.8 0.8 1.8 0 1.4 0.2 1.5 0.9 0.2 0.6 -0.8 0.8 -1.7 0.6 -2 -0.2 -0.3 3.4 -1.7 8.1 -3 4.7 -1.3 8.1 -2.6 7.6 -2.9 -0.4 -0.3 -5.3 -9 -10.8 -19.3 -7.3 -13.9 -10.1 -18.3 -10.6 -17 -0.9 2.2 -10.5 44.4 -11.2 49.4 -0.3 2.1 -2.1 10.6 -4 18.9 -1.9 8.2 -3.2 16.1 -3 17.5 0.3 1.6 0 2.4 -1 2.4 -1.4 0 -4.1 7.1 -3.4 8.9 0.2 0.5 3.6 3.7 7.6 7.1 5.9 5 7.1 6.5 5.8 7.2 -1.5 0.8 -45.2 8.8 -48.2 8.8 -0.8 0 3.3 -5.2 9.1 -11.6z m-1025.9 -25.5 c11.9 -4.5 17.1 -16.4 10.1 -23.4 -4.4 -4.4 -18.1 -7.4 -19.2 -4.2 -0.5 1.2 -4.5 28 -4.5 29.8 0 1.4 6.9 0.2 13.6 -2.2z m933.1 -5 c15.3 -7.4 32.3 -41.3 32.3 -64.3 0 -13.9 -3.6 -24.1 -11.6 -32.6 -8.5 -9 -21.1 -11.9 -31.7 -7.2 -6.2 2.8 -14.6 11.3 -18 18.3 l-2.8 5.5 2 4.5 c4.2 9.4 5.5 34.8 2.6 47.7 l-1.7 7.2 3 6.3 c6.9 14.9 15.4 19.7 25.9 14.6z m-149.2 -16.9 c16.8 -8 34.5 -42.7 34.5 -67.5 0 -24.1 -13.2 -41.9 -32 -43.3 -5.8 -0.4 -7.6 -0.1 -12.6 2.2 -6.4 2.9 -13.2 8.8 -17 14.8 -2.8 4.4 -2.9 4.8 -0.8 4.8 0.8 0 4.2 2.5 7.5 5.7 6.2 5.9 8.7 11.3 10.3 22.5 l0.7 4.8 -9.8 -3.6 c-5.4 -2 -11.1 -4.1 -12.6 -4.6 -1.5 -0.6 -3.1 -0.7 -3.4 -0.4 -1.1 1.1 1.6 24.4 3.7 32.8 6.7 26.9 18 38.3 31.5 31.8z m-131 -12.8 c4.3 -2.1 7.5 -4.6 11.1 -8.8 5.3 -6.2 10.4 -13.3 10.4 -14.6 0 -0.5 -8.4 -0.8 -18.7 -0.9 -10.4 -0.1 -17.8 -0.4 -16.5 -0.7 1.3 -0.4 2.3 -1 2.2 -1.5 0 -0.4 0.7 -2.4 1.6 -4.5 2.6 -6.2 4.6 -17.2 4.8 -26.3 0 -4.8 0.3 -8.6 0.6 -8.4 0.3 0.1 1.9 -0.4 3.5 -1.1 2.7 -1.2 1.6 -1.3 -10 -1.3 -7.1 -0.1 -15.4 0.2 -18.2 0.5 l-5.3 0.7 0 10.1 c0 5.6 0.4 12.6 1 15.6 0.5 3 1.6 9.3 2.5 14 1.7 9.7 8.3 24.2 12.2 26.7 2.4 1.6 7.2 3 10.8 3.2 1.1 0.1 4.7 -1.2 8 -2.7z m-375.6 -89.1 c-3.9 -3.2 -36.3 -24.1 -36.6 -23.7 -0.2 0.2 4 16 9.3 35.2 5.2 19.2 12.3 45 15.7 57.3 l6.1 22.5 4.4 -44.4 4.3 -44.4 -3.2 -2.5z m112.2 78.4 c11.9 -2.7 17.5 -4.8 10 -3.8 l-4.3 0.6 0.6 -3.9 c0.8 -5.5 4.3 -33.3 6.1 -49.9 0.9 -7.7 1.8 -15.5 2.2 -17.4 l0.6 -3.4 8.6 0.5 c4.7 0.3 10.4 1.3 12.5 2.2 4.8 2 14.2 9.9 15.1 12.6 1.2 3.9 2.5 1.9 2.5 -3.8 0 -19.8 -10.6 -32.5 -30.6 -36.7 -7.4 -1.6 -15.4 -2 -15.4 -0.7 0 0.6 -20.2 98.5 -21.5 104 -0.7 2.8 -0.1 2.8 13.6 -0.3z m-390.7 -6.7 c10.7 -5.4 17.6 -14.8 21.2 -28.7 1.8 -7.2 1.5 -12.5 -1.1 -16.4 -2.4 -3.7 -10.9 -7.6 -18.8 -8.5 l-6.7 -0.8 -0.5 3 c-0.6 4.2 -4.5 49.4 -4.5 52.9 0 3.3 1 3.2 10.4 -1.5z m1187.1 -29.1 c0.3 -1.2 3.4 -23.1 7 -48.7 3.6 -25.6 6.8 -47.3 7.1 -48.2 0.5 -1.7 -0.6 -1.8 -14.5 -1.8 -13.7 0 -15.1 0.2 -15.1 1.8 0 2.1 9.8 93.4 10.6 98 0.4 2.8 0.7 3.1 2.4 2.2 1.1 -0.6 2.2 -2.1 2.5 -3.3z m-505.3 -19.8 l9.5 -11 -5.3 -10.1 c-3 -5.6 -7.1 -11.9 -9.1 -14 -14.4 -14.7 -36.2 -11.3 -48.7 7.7 -5.3 8 -5.6 9.1 -1.2 6.1 6.5 -4.4 17.7 -4.7 24.3 -0.6 4.4 2.6 9.6 10 13.2 18.5 1.6 3.9 3.7 8.7 4.5 10.8 0.9 2 2 3.7 2.5 3.7 0.5 0 5.1 -5 10.3 -11.1z m-121.5 -69.5 c8.9 -0.6 9.1 -0.7 8.3 -2.8 -0.4 -1.1 -1.7 -4.4 -2.8 -7.2 l-2.1 -5.1 5.9 0.1 c3.2 0.1 5.6 0.4 5.3 0.8 -0.2 0.5 0.8 0.7 2.2 0.6 1.6 -0.2 2.4 -0.7 2.1 -1.5 -0.3 -0.7 -0.3 -1.3 0 -1.3 0.3 0 1.8 2.8 3.5 6.3 3.7 7.8 3.4 7 -6.3 -20 -4.5 -12.3 -8.4 -22.3 -8.7 -22.3 -0.4 0 -2.6 5.1 -5 11.3 -2.5 6.1 -4.7 11.5 -5 11.9 -0.3 0.3 -8.4 1.3 -18 2.2 -9.6 0.9 -17.6 1.8 -17.7 1.9 -0.1 0.1 -1.5 6.2 -3.2 13.6 l-3 13.3 17.7 -0.6 c9.7 -0.4 21.7 -0.9 26.8 -1.2z m-38.8 -124 c0.3 -0.2 -2 -8.1 -4.9 -17.4 -2.9 -9.3 -5.5 -16.8 -5.7 -16.6 -0.5 0.5 -9.3 33.5 -9.3 34.8 0 1 18.9 0.2 19.9 -0.8z m-398.6 -62.2 c6.9 -4.2 8.7 -6.5 8.7 -11.3 0 -4.5 -2.5 -6.9 -7.7 -7.5 -3.5 -0.5 -5.3 0.5 -21.8 11 -9.9 6.4 -18.4 11.7 -18.9 11.9 -0.5 0.1 1.1 3.7 3.5 7.8 l4.3 7.6 13 -8 c7.2 -4.4 15.7 -9.6 18.9 -11.5z m31.3 -32.6 c-1.9 -6.6 -4.6 -10 -9.9 -12.8 -5.6 -2.9 -17 -3 -24.3 -0.1 -5.1 2 -25.1 13.7 -28.9 16.8 -1.6 1.4 -1.4 1.4 1 -0.1 13.6 -8.1 23.6 -13.4 24.5 -12.9 0.5 0.3 1 0.1 1 -0.5 0 -0.6 0.5 -0.8 1 -0.5 0.6 0.3 1 0.2 1 -0.4 0 -0.5 1.7 -0.1 3.8 0.8 3.9 1.9 24.1 5.6 25 4.6 0.4 -0.3 -0.7 -1.7 -2.3 -3 -2.9 -2.4 -2.9 -2.5 -0.5 -1.6 4.8 1.6 8.8 9.9 9.2 19.1 l0.1 4.5 0.4 -4.3 c0.2 -2.3 -0.3 -6.7 -1.1 -9.6z"
       id="path8" />
    <path
       d="M519 540.9 c1.9 -1.7 5.1 -4.1 7 -5.4 1.9 -1.3 5.5 -4.3 7.9 -6.8 4.9 -5.1 5 -6.5 1.3 -14.9 -1.1 -2.4 -3.8 -9.9 -6.2 -16.8 -2.4 -6.9 -4.6 -12.9 -5.1 -13.3 -0.6 -0.7 -21.3 3.5 -36 7.4 -3.8 1 -3.6 0.5 -13.5 24.5 -0.3 0.7 4.4 2.9 11.6 5.4 6.7 2.4 11.8 4.6 11.3 5 -0.7 0.7 -46 13 -47.7 13 -0.3 0 3.2 -4.5 7.9 -10.1 4.7 -5.5 9.2 -11 9.9 -12.2 0.8 -1.2 8.5 -22.2 17.1 -46.7 23.4 -66.7 28.7 -81.4 29.4 -82.2 0.4 -0.4 11.2 27.5 24.1 62 12.8 34.5 23.9 63.9 24.6 65.3 0.7 1.5 5 5.7 9.4 9.4 4.5 3.7 7.8 7.1 7.3 7.5 -0.7 0.7 -60.5 12.1 -62.8 12 -0.5 -0.1 0.6 -1.5 2.5 -3.1z m-11.2 -77.1 l8.4 -2.3 -0.6 -5.5 c-0.4 -3 -1.7 -11.8 -2.9 -19.5 l-2.3 -14 -4.8 17 c-2.6 9.4 -5.4 19.1 -6.1 21.8 -0.8 2.6 -1.1 4.7 -0.7 4.7 0.4 0 4.5 -1 9 -2.2z"
       id="path10" />
  </g>
  <g
     fill="#da5201"
     id="g18">
    <path
       d="M1428.5 544.4 l10.6 -11.6 -0.5 -5.2 c-0.3 -2.8 -0.8 -27.5 -1.2 -54.8 -0.3 -27.4 -0.8 -49.8 -1 -49.8 -0.2 0 -6.5 6.3 -14 14 -7.5 7.7 -14 14 -14.4 14 -0.3 0 -0.5 -1.2 -0.3 -2.7 0.5 -3.5 4 -40.7 3.9 -41 -0.1 0 -5.1 1.9 -11.2 4.4 l-11.2 4.6 3 4.8 c12 19.5 10 42.7 -6.1 69.2 -8.7 14.4 -18.9 24.8 -34.4 35 -13.2 8.7 -17.6 10.2 -28 9.5 -10.3 -0.7 -17.3 -4.3 -26.8 -13.7 -16.4 -16.4 -26.6 -41.3 -27.6 -67.7 -0.6 -14.6 0.4 -19.9 5.9 -30.8 2.8 -5.6 13 -16.9 18.8 -21 1.4 -0.9 -1.5 0.4 -6.5 3 -10.4 5.4 -20.9 12.5 -27.8 18.6 -4.8 4.2 -4.9 4.5 -5.8 12.1 -4.1 33.2 -37.7 75 -66.2 82.3 -22 5.7 -43.1 -8 -57.6 -37.3 -11.4 -22.9 -15.6 -50.9 -10.4 -67.8 2.6 -8.1 7.8 -17.3 13.1 -22.9 l3.7 -3.9 -6.5 4.8 c-3.6 2.7 -10.6 9 -15.6 14.2 l-9.1 9.3 -9.4 0 -9.3 0 3.2 -3.3 3.2 -3.3 -5.5 -10.4 c-3 -5.7 -7.2 -12.1 -9.2 -14.2 -18.7 -19.2 -47.8 -6.8 -55.8 23.7 -3.6 13.7 -2.9 32 2 51.9 2.9 11.4 8.7 23.1 12.9 25.6 9.1 5.7 20 2.1 30.2 -9.8 3.5 -4.1 7.3 -9.4 8.5 -11.9 1.2 -2.4 2.4 -4.3 2.8 -4.1 1.9 0.8 19 15.4 19 16.2 0.2 1.7 -17.2 17.6 -24.3 22.3 -13.8 9.2 -28.9 11.8 -41.1 7.2 -16.3 -6.1 -30.6 -24.2 -38.9 -49 -6 -18 -8.1 -36.7 -5.6 -50 1.1 -6 5.7 -16.3 9.7 -22.2 l2.6 -3.7 -15.3 -41.9 -15.4 -41.8 -18.5 -1.2 c-10.2 -0.6 -21.3 -1.4 -24.6 -1.7 -4.5 -0.4 -5.6 -0.2 -4.3 0.5 0.9 0.6 2 2.5 2.3 4.2 1 4.4 4.8 12.7 8.4 18.5 l3.2 4.9 -2.3 0.7 c-1.3 0.3 -4.2 0.6 -6.5 0.7 -2.4 0.1 -4.3 0.4 -4.3 0.9 0 0.4 -1.4 6.5 -3 13.7 -1.6 7.1 -2.7 13.1 -2.5 13.4 0.6 0.5 67.8 -2 68.8 -2.6 0.4 -0.2 0.7 -0.1 0.7 0.4 -0.1 0.4 -5.3 4.4 -11.7 8.8 l-11.7 8 -3.8 14.5 c-12.4 46.7 -23.8 90.9 -23.8 92.2 0 0.9 6.2 6 13.8 11.4 l13.7 9.9 -16 1.7 c-37.5 4 -51.5 5.4 -51.5 5.2 0 -0.2 6.3 -5.8 14.1 -12.5 l14.1 -12.2 -0.6 -5.6 c-0.3 -3.1 -0.8 -22.9 -1.2 -44.1 -0.3 -21.2 -0.9 -41.3 -1.3 -44.6 l-0.6 -6.2 -13.3 -11.1 c-7.4 -6.1 -13.5 -11.1 -13.6 -11.1 -0.3 0 0.1 7 1 18.5 0.5 7 0.6 7.1 6.8 14 5.6 6.2 6.3 7.4 5.8 10.3 -0.2 1.8 -1.2 3.6 -2.1 4.1 -0.9 0.4 -6.8 1.8 -13.2 3.1 l-11.6 2.2 -1.2 9.7 c-5.2 42.9 -27.1 65.8 -71.6 74.9 -18.1 3.8 -59.7 11.4 -60 11 -0.2 -0.2 3 -4.4 7.1 -9.5 8.7 -10.8 8.2 -7.5 5.4 -39.3 -1 -12.4 -2.4 -28.6 -3 -36 -0.6 -7.4 -1.3 -15.2 -1.7 -17.2 -0.5 -3.7 -0.7 -3.8 -4.7 -3.8 -3.9 0 -4.5 -0.4 -15.1 -11.5 l-11 -11.6 -10.8 14.6 -10.7 14.6 -14.1 56.2 c-7.7 30.9 -14.5 57.9 -15 60.1 l-1 3.8 -5.8 -10.3 c-3.1 -5.7 -15.1 -28.4 -26.6 -50.3 -11.5 -22 -21 -39.5 -21.2 -39 -0.2 0.6 -2.5 16.7 -5.2 36 l-4.9 34.9 5.9 9 c3.2 4.9 5.7 9.1 5.5 9.3 -0.5 0.4 -36.8 10.1 -38.1 10.2 -0.9 0 3.7 -15.1 8.4 -27.5 1.1 -3 6.1 -40.5 6.1 -46 0 -1.8 -6.6 -16.7 -16.9 -38 -9.2 -19.2 -16.7 -35.2 -16.5 -35.4 0.2 -0.3 1.4 0.5 2.7 1.7 2.6 2.4 12.5 4.7 16.7 3.8 1.5 -0.3 3.3 0 4 0.7 1.3 1.2 -9.4 -20.1 -41.1 -81.5 -10.1 -19.7 -18.6 -35.8 -18.9 -35.8 -0.7 0 -29.7 26.4 -35 31.7 -3 3.1 -3 3.3 -0.6 1.5 3.7 -2.8 4 -2.8 5.5 0.6 0.7 1.5 3.3 6.2 5.8 10.4 3.9 6.9 4.7 7.7 6.4 6.8 1 -0.6 1.9 -0.9 1.9 -0.6 0 0.2 -4.1 3 -9 6.1 l-9.1 5.7 0.7 48.9 c0.4 26.9 0.4 48.9 0 48.9 -0.3 0 -3.5 -1.4 -6.9 -3.1 -7.1 -3.6 -43.9 -20.9 -44.5 -20.9 -0.2 0 1 1.1 2.6 2.5 1.6 1.3 4 4.8 5.3 7.7 2.1 4.6 2.4 6.7 2.3 16.3 -0.2 16.4 -4.4 26.7 -14.9 36.4 -5.4 4.9 -18.4 12.1 -21.9 12.1 -2.6 0 -1.8 1.7 1.2 2.3 5 1.1 13.1 6.6 15.9 10.9 2.6 3.9 2.8 4.9 2.8 14.7 0 9.5 -0.3 11.2 -2.9 16.8 -4.3 9.4 -12.4 16.4 -22.1 19.2 -8.3 2.5 -40.8 8.9 -42.1 8.4 -1 -0.4 0.6 -3 5.3 -8.5 l6.6 -8 -1.3 -20.6 c-0.7 -11.4 -1.5 -22.8 -1.9 -25.4 l-0.6 -4.6 -12.3 5 c-6.8 2.7 -12.6 4.7 -12.9 4.4 -0.3 -0.3 0.1 -1.6 0.9 -2.8 0.8 -1.3 2.1 -4.1 2.8 -6.3 0.7 -2.2 2.8 -7.5 4.7 -11.8 1.9 -4.4 3.3 -8.1 3.1 -8.3 -0.3 -0.2 -2 2.8 -3.9 6.8 -1.9 3.9 -4.7 8.7 -6.3 10.7 l-2.8 3.6 0.7 -19.4 0.8 -19.4 -8.4 6.5 c-19.6 15.3 -42.2 27.7 -64.3 35.4 l-10.9 3.8 3 2.5 c14.2 12.2 49.9 37.9 55.8 40.1 2 0.7 2 0.7 0 1.3 -5.8 1.7 -15.6 2.8 -29.5 3.4 l-15.5 0.6 -12 -5.8 c-27 -12.8 -33.4 -16.1 -41 -21 -4.4 -2.8 -10.9 -7 -14.5 -9.3 -8.4 -5.3 -9.9 -5.8 -25.4 -7.8 -7.1 -0.8 -15.9 -2.2 -19.5 -3 -3.6 -0.7 -6.9 -1.4 -7.3 -1.4 -0.4 0 -0.3 -1.1 0.2 -2.5 0.5 -1.4 0.7 -3.2 0.4 -4 -0.4 -0.8 -0.1 -2.2 0.6 -3 0.7 -0.8 1 -1.5 0.6 -1.5 -1.2 0 3.6 -8.5 5.8 -10.2 1.1 -1 3 -1.8 4.1 -1.9 1.1 0 -2.7 -1.1 -8.5 -2.4 -83 -18.1 -136.7 -80.9 -149.2 -174.5 -0.7 -5.6 -1.2 -19.4 -1.2 -33.5 0.1 -27.3 1.9 -42.7 7.9 -65.9 4.7 -18.5 8.6 -28.5 18.7 -48.8 23 -46.1 54.6 -81.1 92.3 -102.4 9.8 -5.5 12.7 -7.9 8.9 -7.2 -2 0.4 -3.9 -2.4 -3.2 -4.4 1.2 -2.9 28.7 -12.2 51.1 -17.2 21.1 -4.8 32.3 -5.9 52.7 -5.3 20.1 0.6 26.8 1.7 44.2 7.3 17 5.5 44.1 20.3 58.2 31.7 l2.9 2.3 -9.1 37.5 c-5 20.6 -15.7 65.1 -23.8 98.9 -8 33.8 -15 61.9 -15.4 62.3 -0.3 0.4 -4.7 -9.7 -9.6 -22.5 l-8.9 -23.3 -4.5 -2.2 c-9.6 -4.7 -21.8 -7.5 -35 -8 -6.9 -0.2 -14.3 0 -16.5 0.5 -3.3 0.8 -3.5 1 -1.2 1.1 3.2 0.1 3.2 0 1.1 10.9 -0.9 4.7 -1.4 10.6 -1.2 13.2 l0.3 4.7 -7 2.1 c-15.5 4.7 -32.1 17.1 -40 30.2 -4.7 7.8 -9 19.5 -10.5 29.2 -2.6 16.3 2.8 37.6 12.3 48.4 14.5 16.7 34.6 20.8 62 12.9 5.1 -1.4 11.5 -3.7 14.3 -5.1 6.7 -3.2 18.6 -12.9 22.5 -18.2 l3.1 -4.2 3.1 2.6 c1.8 1.5 8.6 8.6 15.1 15.8 28.8 31.6 51.9 56.6 52.4 56.6 0.2 0 -0.1 -0.6 -0.7 -1.4 -0.7 -0.8 -0.9 -3.9 -0.6 -8.7 0.5 -5.9 2.9 -101 3.7 -138.4 l0.1 -8 1 11 c0.5 6.1 1.3 11.2 1.8 11.5 1.6 1.1 2.9 9.8 3.6 23.5 0.4 8.7 0.9 13.1 1.4 11.5 0.4 -1.4 1.2 -24.8 1.8 -52 0.6 -27.2 1.3 -56.2 1.6 -64.5 0.4 -13.9 0.3 -14.9 -1.1 -8.8 -0.3 1.4 -1.2 2.3 -2.4 2.3 -1 0 -2.2 0.5 -2.5 1 -0.3 0.6 -1.3 1 -2.2 1 -1.4 0 -1.5 -4.6 -0.9 -46.7 0.4 -25.8 0.9 -48.4 1.2 -50.4 0.5 -3.6 0.6 -3.6 6.2 -4.3 3.1 -0.4 30.5 -4.4 60.7 -9.1 80.9 -12.4 98.7 -14.1 137.5 -13.2 35.5 0.8 57.4 4.5 80.2 13.7 23 9.2 39.3 22 51.5 40.4 18.4 27.6 16.2 63.1 -6.2 96.6 -5.8 8.7 -14.9 18.6 -21.8 23.5 l-2.8 2 18.7 14 c10.3 7.7 19.5 14.7 20.3 15.6 2.4 2.4 28.8 21.8 32.9 24.1 2 1.1 12.3 8.4 22.9 16.2 10.7 7.7 19.9 14.1 20.5 14.1 0.6 0 1.5 -1.4 2 -3.1 0.5 -2.1 1.8 -3.7 4 -4.7 3.7 -1.8 4.5 -1.5 10.8 4.2 2.7 2.5 7.3 5.1 11.5 6.7 3.9 1.5 8 3.3 9.3 4.1 2.9 1.8 9.3 1.4 10.9 -0.7 0.8 -1.1 0.9 -2.9 0.4 -5.2 l-0.9 -3.6 6.7 3.5 c14.3 7.7 2.9 0.5 -33.1 -20.6 -20.8 -12.2 -38.4 -22.4 -39.2 -22.7 -0.7 -0.3 -6.4 2 -12.6 5.1 -6.2 3.1 -11.4 5.5 -11.6 5.3 -0.6 -0.6 36.1 -113.8 36.9 -113.8 0.4 0 1.1 1 1.6 2.3 0.5 1.3 2.4 5.4 4.2 9.2 1.8 3.9 3.6 8.5 3.9 10.4 0.4 3 1.4 0.8 6.7 -15.5 11.3 -34.7 42.3 -132.4 42.3 -133.4 0 -0.6 -2.9 -2.9 -6.5 -5.2 -3.6 -2.2 -6.4 -4.2 -6.3 -4.3 0.2 -0.2 38.8 4.5 85.9 10.3 l85.6 10.7 33.3 78.5 c18.4 43.2 33.8 79.1 34.3 79.8 0.6 0.7 6.5 14 13.1 29.5 6.7 15.5 24.5 56.7 39.5 91.5 26.9 62.1 27.5 63.2 29.5 61.7 2.6 -1.8 11.8 -7.4 13 -7.8 0.5 -0.2 -10.3 -25.5 -24 -56.2 l-24.9 -56 -9.7 -3 c-5.3 -1.6 -9.9 -3.3 -10.3 -3.6 -0.6 -0.6 34.2 -26.4 37 -27.5 0.7 -0.3 14.7 7 31.2 16.2 42.3 23.8 61.8 33.6 76.3 38.6 12.3 4.2 12.7 4.2 26.5 4.3 15.2 0 17.7 -0.7 23.8 -6.4 4.5 -4.1 5.9 -7.6 5.6 -14.3 l-0.3 -6 7.5 -4.2 c4.1 -2.3 9.6 -5.6 12.4 -7.4 3.9 -2.4 5.2 -2.8 6.4 -1.9 1.2 1 1.2 0.9 0.1 -1.3 -2.7 -5.2 -6.5 -9.3 -12.6 -13.6 -11.7 -8.4 -26.9 -14.2 -67.4 -25.9 -40.4 -11.7 -69.4 -22.2 -90.2 -32.6 -7.1 -3.6 -11.8 -5.4 -11.8 -4.7 0 0.7 -3.5 3.5 -7.8 6.2 -4.2 2.7 -8.2 5.6 -8.9 6.4 -1 1.3 -2.3 0.6 -8.2 -4.1 -12.1 -9.8 -19.3 -20.4 -24.2 -35.7 -4.3 -13.4 -5 -25.6 -1.9 -36.5 5.5 -19.5 16.5 -33.7 36.4 -47 9.8 -6.5 17.7 -10.2 30.6 -14.3 27.6 -8.8 63.9 -13.7 109.5 -14.9 42.8 -1.1 78.2 3.2 129.8 15.8 l17.3 4.2 -7.4 38.1 c-4 21 -7.6 38.8 -7.9 39.6 -0.3 0.8 -1.6 -4.2 -2.7 -11.2 -1.2 -7 -2.6 -13.1 -3.1 -13.6 -1.4 -1.3 -18.1 -5.8 -29 -7.8 -11.2 -2.1 -31.8 -2.4 -40 -0.5 -3.7 0.8 -5.4 1.6 -4.4 2 1.6 0.6 26.9 23.1 26.9 23.9 0 0.2 -2.5 0.1 -5.6 -0.3 -9 -1.1 -15.3 0.2 -19.1 4 -8 8 -1.1 18.1 15.7 22.9 3 0.8 14.4 3.4 25.4 5.6 10.9 2.2 20.2 4.2 20.6 4.5 1.2 0.8 24.8 5.5 29.5 5.9 7.6 0.8 39.4 9.5 48 13.2 11 4.7 25.2 13.1 33.6 19.9 7.6 6.1 14.6 15.1 19.4 24.5 14.2 28.3 13.9 71.4 -0.8 111.8 -2.4 6.8 -4 11.9 -3.4 11.3 1 -1 6.5 4.8 8.9 9.3 0.6 1.2 1.5 2.4 2 2.7 0.6 0.4 0.1 2.4 -1.1 4.8 -1.2 2.2 -1.9 4.1 -1.6 4.1 1.2 0 9.9 -19 13.1 -28.5 7 -21 9.9 -42.7 9.1 -68.2 -0.4 -13.8 -0.9 -18.6 -3.2 -27.1 -10.6 -40.8 -35.1 -68.7 -73.2 -83.3 -5.4 -2.1 -6.3 -2.7 -6.3 -4.9 0 -1.4 1.4 -20 3 -41.4 1.7 -21.4 3 -40.6 3 -42.7 0 -3.5 -0.5 -4.1 -8.6 -10.6 -8.6 -6.7 -8.6 -6.8 -5.8 -7.5 5.8 -1.5 159.5 -23 160.1 -22.4 0.4 0.3 -1.2 24.6 -3.6 53.9 -2.3 29.2 -4.4 56.7 -4.8 60.9 l-0.6 7.7 -6.8 -9.2 c-8.9 -12.1 -9.3 -12.6 -9.6 -10.7 -0.7 4.3 -6.4 82.4 -6.1 83.9 0.3 1.6 1.5 1.1 8.7 -3.5 l8.5 -5.4 11.4 0 c12.6 0 10.5 -0.7 28.8 10.2 4.5 2.6 8.6 4.8 9.1 4.8 0.5 0 1.5 -9.1 2.1 -20.2 4.2 -68.8 6.1 -105.3 5.4 -105.9 -0.4 -0.4 -5.1 -2.1 -10.5 -3.9 -5.4 -1.8 -9.7 -3.3 -9.5 -3.5 0.2 -0.1 28 -0.6 61.8 -1 l61.5 -0.7 8.8 121.9 c4.8 67 9.2 126.8 9.7 132.8 0.8 8.9 3.9 52.3 7.5 103 l0.5 7 -1.5 -4.5 c-0.9 -2.5 -3.3 -10.6 -5.3 -18 l-3.7 -13.5 -6 -0.6 c-3.3 -0.4 -11.2 -1 -17.5 -1.4 -9.2 -0.5 -11.3 -0.4 -10.3 0.6 0.9 0.9 0.1 2.8 -3.8 8.5 -5.1 7.3 -10.3 12.3 -21.3 20.3 l-5.8 4.3 -51.4 -2.8 c-28.3 -1.5 -51.9 -3.1 -52.5 -3.5 -0.9 -0.5 7.3 -62.4 11.2 -84.8 l1.1 -6.3 2 4.3 c1.8 4 8.3 13.5 11.6 16.9 0.8 0.8 2 2.7 2.7 4.2 1.2 2.9 1.9 -7.9 4.2 -60.9 l0.6 -15.2 -8.9 2.3 c-4.9 1.3 -21.3 5.7 -36.4 9.6 -15.1 4 -27.8 7.6 -28.3 8 -0.4 0.3 4.4 5.2 10.7 10.8 9.9 8.8 11.5 10.7 12 13.9 0.3 2.1 3.1 26.5 6.2 54.3 3 27.8 6.4 58.2 7.4 67.5 1 9.4 2.2 20.2 2.5 24 0.3 3.9 1.3 12.8 2.1 19.9 0.8 7.1 1.3 13 1.1 13.2 -0.2 0.2 -16.8 -8.5 -36.9 -19.3 l-36.5 -19.7 -0.2 -5.8 c-0.3 -8.9 3.9 -21.7 8.1 -24.6 1 -0.7 1.6 -1.8 1.3 -2.3 -1.1 -1.7 1.7 -0.9 10.2 3.1 14.5 6.8 10.7 4.4 -10.2 -6.3 -12.3 -6.4 -20.2 -9.9 -20.6 -9.3 -0.4 0.6 -2.4 8.9 -4.4 18.4 -2.1 9.4 -4.1 17.2 -4.4 17.2 -0.3 0 -5.1 -8.6 -10.6 -19 -7.4 -14.1 -10.2 -18.6 -10.7 -17.3 -0.4 1 -3 11.9 -5.8 24.3 -11.7 51.5 -14.3 62.7 -15.7 67.2 -0.8 2.6 -1.3 5.1 -1.1 5.6 0.1 0.5 3.6 3.8 7.6 7.2 5.9 5 7.1 6.5 5.8 7.2 -1.5 0.8 -45.2 8.8 -48.2 8.8 -0.8 0 3.3 -5.2 9.1 -11.6z m-1025.9 -25.5 c11.9 -4.5 17.1 -16.4 10.1 -23.4 -4.4 -4.4 -18.1 -7.4 -19.2 -4.2 -0.5 1.2 -4.5 28 -4.5 29.8 0 1.4 6.9 0.2 13.6 -2.2z m933.1 -5 c15.3 -7.4 32.3 -41.3 32.3 -64.3 0 -24.2 -13.8 -42.1 -32.5 -42 -7.9 0.1 -14.2 2.9 -20.8 9.6 -5.6 5.6 -11.3 15.7 -10.3 18.3 0.3 0.9 0.2 1.4 -0.3 1.1 -1.3 -0.9 -2.8 8.7 -3 19.2 -0.3 19.9 6 43 14.6 53.2 6 7.1 12.2 8.7 20 4.9z m-149.2 -16.9 c16.8 -8 34.5 -42.7 34.5 -67.5 0 -24 -13.2 -41.9 -32 -43.3 -5.7 -0.4 -7.6 -0.1 -12.7 2.2 -14.7 6.7 -23.8 22.4 -25 43.3 -1 17.2 3 38.2 9.9 51.8 6.9 13.8 15.4 18.3 25.3 13.5z m-503.5 -98 c0 -0.9 -3.4 -4.2 -7.5 -7.3 -4.1 -3.2 -7.5 -6.2 -7.5 -6.7 0 -0.5 1.7 -1.4 3.8 -1.9 10.8 -2.9 50 -12.4 52.2 -12.6 3.7 -0.4 13.4 -6.6 11.8 -7.6 -0.7 -0.4 -1.5 -0.4 -1.8 0.1 -0.9 1.4 -3.4 -0.6 -2.7 -2.3 0.3 -0.8 0.1 -1.9 -0.5 -2.5 -0.7 -0.7 0.8 -1.3 4.8 -1.8 5.4 -0.6 5.6 -0.8 3.2 -1.6 -2.7 -0.9 -3.9 -2.8 -1.8 -2.8 0.6 0 1 -1.3 1 -2.9 0 -1.6 0.6 -3.4 1.4 -4 0.8 -0.7 1.8 -2.6 2.1 -4.3 0.7 -3.1 7.4 -10.4 9.7 -10.6 3.7 -0.3 11.1 -2.3 13.5 -3.6 1.6 -0.8 5.3 -4 8.3 -7.2 3.5 -3.7 4.6 -5.3 3 -4.4 -1.4 0.7 -28.3 15.6 -59.8 33.1 -31.5 17.6 -57.6 31.9 -58.1 31.9 -0.4 0 -3.9 -2 -7.7 -4.4 -3.8 -2.5 -7 -4.3 -7.1 -4.2 -0.2 0.2 4 16 9.3 35.2 5.2 19.2 12.3 45 15.7 57.3 l6.1 22.5 4.3 -43 c2.3 -23.6 4.2 -43.6 4.3 -44.4z m109.3 74.5 c32.3 -7.3 47.9 -24.6 52.9 -58.9 3.4 -23.7 -7.1 -39.3 -29.7 -44.1 -7.5 -1.6 -15.5 -2 -15.5 -0.7 0 0.6 -20.2 98.5 -21.5 104 -0.7 2.8 -0.1 2.8 13.8 -0.3z m-390.9 -6.7 c10.7 -5.4 17.6 -14.8 21.2 -28.7 1.8 -7.2 1.5 -12.5 -1.1 -16.4 -2.4 -3.7 -10.9 -7.6 -18.8 -8.5 l-6.7 -0.8 -0.5 3 c-0.6 4.2 -4.5 49.4 -4.5 52.9 0 3.3 1 3.2 10.4 -1.5z m-20.1 -70 c3.1 -0.7 5.7 -1.5 5.7 -1.8 0 -0.3 -6 -6.8 -13.2 -14.4 l-13.3 -13.9 -2.3 4.7 c-1.2 2.6 -1.8 4.5 -1.4 4.2 0.5 -0.3 3.7 4.2 7.2 9.9 3.4 5.8 6.6 10.8 7.1 11.1 0.5 0.3 0.6 1 0.3 1.6 -0.5 0.8 0.1 0.9 1.7 0.5 1.3 -0.4 5 -1.2 8.2 -1.9z m546.1 -215.9 c-12.4 -28.3 -22.8 -51.6 -23.1 -51.9 -0.3 -0.3 -0.3 0.6 0 2 0.3 1.4 2.2 15.1 4.2 30.5 l3.7 28 -5 18 c-2.7 9.9 -4.8 18.2 -4.6 18.5 0.1 0.3 5.1 0.2 11.1 -0.2 10.7 -0.8 10.9 -0.8 23.3 3 6.9 2.2 12.6 3.8 12.8 3.7 0.1 -0.1 -10 -23.3 -22.4 -51.6z m-403.7 -6.4 c10 -6 20.3 -12.4 22.9 -14.4 6.4 -4.8 9.7 -11.4 10.2 -20.2 1.2 -20.1 -13.2 -30.4 -33.7 -24 -3.3 1 -11.8 5.4 -18.8 9.7 -18.4 11.1 -40.3 25.5 -40.3 26.3 0 0.4 4.4 3.8 9.8 7.6 9.2 6.5 10.2 7.5 14.1 14.7 2.3 4.3 4.4 7.8 4.7 7.8 0.2 0 1.7 -0.8 3.2 -1.7 2.1 -1.4 2.4 -1.4 1.5 -0.2 -1 1.3 -0.7 1.7 2.3 2.8 l3.6 1.3 -2.4 2.6 -2.3 2.5 3.5 -2 c1.9 -1.1 11.7 -6.9 21.7 -12.8z"
       id="path14" />
    <path
       d="M519 540.9 c1.9 -1.7 5.1 -4.1 7 -5.4 1.9 -1.3 5.5 -4.3 7.9 -6.8 4.9 -5.1 5 -6.5 1.3 -14.9 -1.1 -2.4 -3.8 -9.9 -6.2 -16.8 -2.4 -6.9 -4.6 -12.9 -5.1 -13.3 -0.6 -0.7 -21.3 3.5 -36 7.4 -3.8 1 -3.6 0.5 -13.5 24.5 -0.3 0.7 4.4 2.9 11.6 5.4 6.7 2.4 11.8 4.6 11.3 5 -0.7 0.7 -46 13 -47.7 13 -0.3 0 3.2 -4.5 7.9 -10.1 4.7 -5.5 9.2 -11 9.9 -12.2 0.8 -1.2 8.5 -22.2 17.1 -46.7 23.4 -66.6 28.7 -81.4 29.4 -82.2 0.4 -0.4 11.2 27.5 24.1 62 12.8 34.5 23.9 63.9 24.6 65.3 0.7 1.5 5 5.7 9.4 9.4 4.5 3.7 7.8 7.1 7.3 7.5 -0.7 0.7 -60.5 12.1 -62.8 12 -0.5 -0.1 0.6 -1.5 2.5 -3.1z m-11.2 -77.1 l8.4 -2.3 -0.6 -5.5 c-0.4 -3 -1.7 -11.8 -2.9 -19.5 l-2.3 -14 -4.8 17 c-2.6 9.4 -5.4 19.1 -6.1 21.8 -0.8 2.6 -1.1 4.7 -0.7 4.7 0.4 0 4.5 -1 9 -2.2z"
       id="path16" />
  </g>
  <g
     fill="#a58c1b"
     id="g26">
    <path
       d="M272 530 c-4.1 -2.2 -13.8 -7 -21.5 -10.7 -7.7 -3.6 -17.6 -8.9 -22 -11.8 -25.3 -16.2 -22.1 -14.8 -39.9 -17.1 -7.1 -0.8 -15.9 -2.2 -19.5 -3 -3.6 -0.7 -6.9 -1.4 -7.3 -1.4 -0.4 0 -0.3 -1.1 0.2 -2.5 0.5 -1.4 0.7 -3.2 0.4 -4 -0.4 -0.8 -0.1 -2.2 0.6 -3 0.7 -0.8 1 -1.5 0.6 -1.5 -1.2 0 3.6 -8.5 5.8 -10.2 1.1 -1 3 -1.8 4.1 -1.9 1.1 0 -2.7 -1.1 -8.5 -2.4 -83 -18.1 -136.7 -80.9 -149.2 -174.5 -0.7 -5.6 -1.2 -19.4 -1.2 -33.5 0.1 -27.3 1.9 -42.7 7.9 -65.9 4.7 -18.5 8.6 -28.5 18.7 -48.8 23 -46.1 54.6 -81.1 92.3 -102.4 9.8 -5.5 12.7 -7.9 8.9 -7.2 -2 0.4 -3.9 -2.4 -3.2 -4.4 1.2 -2.9 28.7 -12.2 51.1 -17.2 21.1 -4.8 32.3 -5.9 52.7 -5.3 20.1 0.6 26.8 1.7 44.2 7.3 17 5.5 44.1 20.3 58.2 31.7 l2.9 2.3 -9.1 37.5 c-5 20.6 -15.7 65.1 -23.8 98.9 -8 33.8 -15 61.9 -15.4 62.3 -0.3 0.4 -4.7 -9.7 -9.6 -22.5 l-8.9 -23.3 -4.5 -2.2 c-9.6 -4.7 -21.8 -7.5 -35 -8 -6.9 -0.2 -14.3 0 -16.5 0.5 -3.3 0.8 -3.5 1 -1.2 1.1 3.2 0.1 3.2 0 1.1 10.9 -0.9 4.7 -1.4 10.6 -1.2 13.2 l0.3 4.7 -7 2.1 c-15.5 4.7 -32.1 17.1 -40 30.2 -8.5 14 -12.5 31.2 -10.6 45.8 1.9 15.1 6.2 25.3 14.4 34 14.1 14.9 33.6 18.3 60 10.7 5.1 -1.4 11.5 -3.7 14.3 -5.1 6.7 -3.2 18.6 -12.9 22.5 -18.2 l3.1 -4.2 3.1 2.6 c1.8 1.5 8.6 8.6 15.1 15.8 28.8 31.6 51.9 56.6 52.4 56.6 0.2 0 -0.1 -0.6 -0.7 -1.4 -0.7 -0.8 -0.9 -3.9 -0.6 -8.7 0.5 -5.9 2.9 -101 3.7 -138.4 l0.1 -8 1 11 c0.5 6.1 1.3 11.2 1.8 11.5 1.6 1.1 2.9 9.8 3.6 23.5 0.4 8.7 0.9 13.1 1.4 11.5 0.4 -1.4 1.2 -24.8 1.8 -52 0.6 -27.2 1.3 -56.2 1.6 -64.5 0.4 -13.9 0.3 -14.9 -1.1 -8.7 -0.3 1.3 -1.2 2.2 -2.4 2.2 -1 0 -2.2 0.5 -2.5 1 -0.3 0.6 -1.3 1 -2.2 1 -1.4 0 -1.5 -4.6 -0.9 -46.7 0.4 -25.8 0.9 -48.4 1.2 -50.4 0.5 -3.6 0.6 -3.6 6.2 -4.3 3.1 -0.4 30.5 -4.4 60.7 -9.1 80.9 -12.4 98.7 -14.1 137.5 -13.2 35.5 0.8 57.4 4.5 80.2 13.7 23 9.2 39.3 22 51.5 40.4 18.4 27.6 16.2 63.1 -6.2 96.6 -5.8 8.7 -14.9 18.6 -21.8 23.5 l-2.8 2 18.7 14 c10.3 7.7 19.5 14.7 20.3 15.6 2.4 2.4 28.8 21.8 32.9 24.1 2 1.1 12.3 8.4 22.9 16.2 10.7 7.7 19.9 14.1 20.5 14.1 0.6 0 1.5 -1.4 2 -3.1 0.5 -2.1 1.8 -3.7 4 -4.7 3.7 -1.8 4.5 -1.5 10.8 4.2 2.7 2.5 7.3 5.1 11.5 6.7 3.9 1.5 8 3.3 9.3 4.1 2.9 1.8 9.3 1.4 10.9 -0.7 0.8 -1.1 0.9 -2.9 0.4 -5.2 l-0.9 -3.6 6.7 3.5 c14.3 7.7 2.9 0.5 -33.1 -20.6 -20.8 -12.2 -38.4 -22.4 -39.2 -22.7 -0.7 -0.3 -6.4 2 -12.6 5.1 -6.2 3.1 -11.4 5.5 -11.6 5.3 -0.6 -0.6 36.1 -113.8 36.9 -113.8 0.4 0 1.1 1 1.6 2.3 0.5 1.3 2.4 5.4 4.2 9.2 1.8 3.9 3.6 8.5 3.9 10.4 0.4 3 1.4 0.8 6.7 -15.5 11.3 -34.7 42.3 -132.4 42.3 -133.4 0 -0.6 -2.9 -2.9 -6.5 -5.2 -3.6 -2.2 -6.4 -4.2 -6.3 -4.3 0.2 -0.2 38.8 4.5 85.9 10.3 l85.6 10.7 33.3 78.5 c18.4 43.2 33.8 79.1 34.4 79.8 0.5 0.8 6.2 13.6 12.6 28.5 6.4 15 24.1 55.9 39.3 91.1 15.2 35.1 27.7 64.1 27.7 64.5 0 0.4 -3 2.9 -6.7 5.6 -3.8 2.7 -11.1 9.3 -16.5 14.7 l-9.6 9.8 -9.3 0 -9.3 0 3.1 -3.2 c3.3 -3.5 4.1 -6.7 7.4 -32.3 0.6 -4.4 1.9 -13.6 3 -20.5 2.4 -16 2.4 -16.4 0 -15 -1.1 0.5 -6.5 4.4 -12.1 8.5 l-10.2 7.6 -7.5 -1.7 c-11 -2.4 -28.1 -1.6 -38.6 2 -10.2 3.4 -17.7 7.7 -24.7 14.3 -3.2 2.9 -6 5.3 -6.2 5.3 -0.3 0 -7.4 -18.8 -15.8 -41.8 l-15.4 -41.9 -18.5 -1.2 c-10.2 -0.6 -21.3 -1.4 -24.6 -1.7 -4.5 -0.4 -5.6 -0.2 -4.3 0.5 0.9 0.6 2 2.5 2.3 4.2 1 4.4 4.8 12.7 8.4 18.5 l3.2 4.9 -2.3 0.7 c-1.3 0.3 -4.2 0.6 -6.4 0.7 l-4.2 0.1 -1.7 7.8 c-0.9 4.2 -2.4 10.7 -3.2 14.5 l-1.5 6.7 -12 0 -12 0 0.6 7.3 c1.9 21.1 1.2 18.6 8.1 26.3 5.5 6.2 6.2 7.3 5.7 10.2 -0.3 2.2 -1.2 3.7 -2.6 4.2 -1.9 0.8 -21.8 5 -23.6 5 -0.4 0 -1 -4.3 -1.2 -9.5 -0.4 -8 -1 -10.5 -3.7 -15.9 -8.4 -17.1 -30.2 -27.5 -57.7 -27.7 -4.9 0 -22.2 1.2 -38.4 2.6 -16.2 1.5 -31.4 2.5 -33.7 2.3 -2.4 -0.2 -4.3 0 -4.3 0.4 0 0.5 -1.7 0.7 -3.7 0.7 l-3.8 -0.2 3.5 -0.6 3.5 -0.7 -2.7 -0.7 c-2.7 -0.7 -3.9 -2.7 -1.8 -2.7 0.6 0 1 -1.3 1 -2.9 0 -1.6 0.6 -3.4 1.4 -4 0.8 -0.7 1.8 -2.6 2.1 -4.3 0.7 -3.1 7.4 -10.4 9.7 -10.6 3.7 -0.3 11.1 -2.3 13.5 -3.6 1.6 -0.8 5.3 -4 8.3 -7.2 3.5 -3.7 4.6 -5.3 3 -4.4 -1.4 0.7 -28.3 15.6 -59.8 33.1 -31.5 17.6 -57.5 31.9 -57.9 31.9 -0.4 0 -4.1 -2.2 -8.2 -4.9 l-7.6 -4.8 -24.5 -2.2 c-13.5 -1.2 -26.3 -2.4 -28.5 -2.7 l-4 -0.6 5 4.4 c7.2 6.2 10.4 9.8 12.6 14.1 l2 3.9 -3 21.1 c-1.7 11.7 -3.3 24.2 -3.7 28 -0.4 3.7 -1 6.7 -1.3 6.7 -0.8 -0.1 -33.9 -69.4 -33.5 -69.9 0.2 -0.3 1.4 0.5 2.7 1.7 2.6 2.4 12.5 4.7 16.7 3.8 1.5 -0.3 3.3 0 4 0.7 1.3 1.2 -9.4 -20.1 -41.1 -81.5 -10.1 -19.7 -18.6 -35.8 -18.9 -35.8 -0.7 0 -29.7 26.4 -35 31.7 -3 3.1 -3 3.3 -0.6 1.5 3.7 -2.8 4 -2.8 5.5 0.6 0.7 1.5 3.3 6.2 5.8 10.4 3.9 6.9 4.7 7.7 6.4 6.8 1 -0.6 1.9 -0.9 1.9 -0.6 0 0.2 -4.1 3 -9 6.1 l-9.1 5.7 0.7 48.9 c0.4 26.9 0.4 48.9 -0.1 48.9 -0.4 0 -3.1 -1.3 -5.9 -2.9 -6.6 -3.8 -40.8 -19.4 -51.1 -23.4 -7.6 -2.9 -8.7 -3.1 -21.5 -3 -8.1 0.1 -16.1 0.7 -20 1.6 l-6.5 1.5 -14 -14.5 -14 -14.6 -2.3 4.7 c-1.2 2.6 -1.8 4.5 -1.4 4.2 0.5 -0.3 3.7 4.2 7.2 9.9 3.4 5.8 6.6 10.8 7.1 11 2 1.3 -0.7 3.4 -6.7 5 l-6.6 1.8 7.8 7.8 7.9 7.9 1.2 15.8 c1 14.2 1 15.8 -0.5 17 -1.4 1 -1.4 1.2 0 1.2 1.2 0 1.6 2.2 2.2 12.2 0.4 6.7 0.3 12.4 -0.1 12.8 -1.5 1.3 -24.5 10.2 -25 9.6 -0.3 -0.3 0.1 -1.6 0.9 -2.8 0.8 -1.3 2.1 -4.1 2.8 -6.3 0.7 -2.2 2.8 -7.5 4.7 -11.8 1.9 -4.4 3.3 -8.1 3.1 -8.3 -0.3 -0.2 -2 2.8 -3.9 6.8 -1.9 3.9 -4.7 8.7 -6.3 10.7 l-2.8 3.6 0.7 -19.4 0.8 -19.4 -8.4 6.5 c-19.6 15.3 -42.2 27.7 -64.3 35.4 l-10.9 3.8 3 2.5 c14.2 12.2 49.9 37.9 55.8 40.1 2 0.7 2 0.7 0 1.3 -6.2 1.8 -15.9 2.8 -30.5 3.2 l-16.5 0.4 -7.5 -3.9z m655.4 -349.1 c-12.4 -28.3 -22.8 -51.6 -23.1 -51.9 -0.3 -0.3 -0.3 0.6 0 2 0.3 1.4 2.2 15.1 4.2 30.5 l3.7 28 -5 18 c-2.7 9.9 -4.8 18.2 -4.6 18.5 0.1 0.3 5.1 0.2 11.1 -0.2 10.7 -0.8 10.9 -0.8 23.3 3 6.9 2.2 12.6 3.8 12.8 3.7 0.1 -0.1 -10 -23.3 -22.4 -51.6z m-403.7 -6.4 c10 -6 20.3 -12.4 22.9 -14.4 6.4 -4.8 9.7 -11.4 10.2 -20.2 1.2 -20.1 -13.2 -30.4 -33.7 -24 -3.3 1 -11.8 5.4 -18.8 9.7 -18.4 11.1 -40.3 25.5 -40.3 26.3 0 0.4 4.4 3.8 9.8 7.6 9.2 6.5 10.2 7.5 14.1 14.7 2.3 4.3 4.4 7.8 4.7 7.8 0.2 0 1.7 -0.8 3.2 -1.7 2.1 -1.4 2.4 -1.4 1.5 -0.2 -1 1.3 -0.7 1.7 2.3 2.8 l3.6 1.3 -2.4 2.6 -2.3 2.5 3.5 -2 c1.9 -1.1 11.7 -6.9 21.7 -12.8z"
       id="path20" />
    <path
       d="M1554.8 501.3 l-36.5 -19.7 -0.2 -5.8 c-0.3 -8.9 3.9 -21.7 8.1 -24.6 1 -0.7 1.6 -1.8 1.3 -2.3 -1.1 -1.7 1.7 -0.9 10.2 3.1 14.5 6.8 10.7 4.4 -9.6 -6 -10.7 -5.5 -19.8 -10.3 -20.3 -10.8 -0.5 -0.5 0 -5 1.2 -10.2 1.1 -5.1 1.8 -9.5 1.5 -9.9 -0.4 -0.3 -18.3 -2 -39.8 -3.7 -57.4 -4.6 -55.1 -4.4 -53 -6.1 1.3 -1.1 1.1 -1.1 -0.9 0.1 -1.5 0.9 -3.3 1.6 -4 1.6 -0.7 0 -6.4 2.1 -12.5 4.6 l-11.3 4.7 -7.2 -6.9 c-18.8 -17.8 -45.6 -23.6 -71 -15.3 -16.1 5.3 -39.4 18.4 -50.6 28.4 -2.7 2.5 -5.2 4.5 -5.5 4.5 -0.2 0 -0.7 -2.3 -1.1 -5.1 -0.9 -6.8 -4.6 -16.7 -8.6 -22.8 -4.6 -7.2 -16.7 -18.2 -24.7 -22.4 -17.9 -9.4 -39.3 -11 -59.1 -4.6 -3.5 1.2 -6.6 1.8 -6.9 1.5 -0.3 -0.3 -11.7 -25.4 -25.2 -55.8 l-24.6 -55.3 -9.7 -3 c-5.3 -1.6 -9.9 -3.3 -10.3 -3.6 -0.6 -0.6 34.2 -26.4 37 -27.5 0.7 -0.3 14.7 7 31.2 16.2 42.3 23.8 61.8 33.6 76.3 38.6 12.3 4.2 12.7 4.2 26.5 4.3 15.2 0 17.7 -0.7 23.8 -6.4 4.5 -4.1 5.9 -7.6 5.6 -14.3 l-0.3 -6 7.5 -4.2 c4.1 -2.3 9.6 -5.6 12.4 -7.4 3.9 -2.4 5.2 -2.8 6.4 -1.9 1.2 1 1.2 0.9 0.1 -1.3 -2.7 -5.2 -6.5 -9.3 -12.6 -13.6 -11.7 -8.4 -26.9 -14.2 -67.4 -25.9 -40.4 -11.7 -69.4 -22.2 -90.2 -32.6 -7.1 -3.6 -11.8 -5.4 -11.8 -4.7 0 0.7 -3.5 3.5 -7.8 6.2 -4.2 2.7 -8.2 5.6 -8.9 6.4 -1 1.3 -2.3 0.6 -8.2 -4.1 -12.1 -9.8 -19.3 -20.4 -24.2 -35.7 -4.3 -13.4 -5 -25.6 -1.9 -36.5 5.5 -19.5 16.5 -33.7 36.4 -47 9.8 -6.5 17.7 -10.2 30.6 -14.3 27.6 -8.8 63.9 -13.7 109.5 -14.9 42.8 -1.1 78.2 3.2 129.8 15.8 l17.3 4.2 -7.4 38.1 c-4 21 -7.6 38.8 -7.9 39.6 -0.3 0.8 -1.6 -4.2 -2.7 -11.2 -1.2 -7 -2.6 -13.1 -3.1 -13.6 -1.4 -1.3 -18.1 -5.8 -29 -7.8 -11.2 -2.1 -31.8 -2.4 -40 -0.5 -3.7 0.8 -5.4 1.6 -4.4 2 1.6 0.6 26.9 23.1 26.9 23.9 0 0.2 -2.5 0.1 -5.6 -0.3 -9 -1.1 -15.3 0.2 -19.1 4 -8 8 -1.1 18.1 15.7 22.9 3 0.8 14.4 3.4 25.4 5.6 10.9 2.2 20.2 4.2 20.6 4.5 1.2 0.8 24.8 5.5 29.5 5.9 7.6 0.8 39.4 9.5 48 13.2 11 4.7 25.2 13.1 33.6 19.9 7.6 6.1 14.6 15.1 19.4 24.5 14.2 28.3 13.9 71.4 -0.8 111.8 -2.4 6.8 -4 11.9 -3.4 11.3 1 -1 6.5 4.8 8.9 9.3 0.6 1.2 1.5 2.4 2 2.7 0.6 0.4 0.1 2.4 -1.1 4.8 -1.2 2.2 -1.9 4.1 -1.6 4.1 1.2 0 9.9 -19 13.1 -28.5 7 -21 9.9 -42.7 9.1 -68.2 -0.4 -13.8 -0.9 -18.6 -3.2 -27.1 -10.6 -40.8 -35.1 -68.7 -73.2 -83.3 -5.4 -2.1 -6.3 -2.7 -6.3 -4.9 0 -1.4 1.4 -20 3 -41.4 1.7 -21.4 3 -40.6 3 -42.7 0 -3.5 -0.5 -4.1 -8.6 -10.6 -8.6 -6.7 -8.6 -6.8 -5.8 -7.5 5.8 -1.5 159.5 -23 160.1 -22.4 0.4 0.3 -1.2 24.6 -3.6 53.9 -2.3 29.2 -4.4 56.7 -4.8 60.9 l-0.6 7.7 -6.8 -9.2 c-8.9 -12.1 -9.3 -12.6 -9.6 -10.7 -0.7 4.3 -6.4 82.4 -6.1 83.9 0.3 1.6 1.5 1.1 8.7 -3.5 l8.5 -5.4 11.4 0 c12.6 0 10.5 -0.7 28.8 10.2 4.5 2.6 8.6 4.8 9.1 4.8 0.5 0 1.5 -9.1 2.1 -20.2 4.2 -68.8 6.1 -105.3 5.4 -105.9 -0.4 -0.4 -5.1 -2.1 -10.5 -3.9 -5.4 -1.8 -9.7 -3.3 -9.5 -3.5 0.2 -0.1 28 -0.6 61.8 -1 l61.5 -0.7 8.8 121.9 c4.8 67 9.2 126.8 9.7 132.8 0.8 8.9 3.9 52.3 7.5 103 l0.5 7 -1.5 -4.5 c-0.9 -2.5 -3.3 -10.6 -5.3 -18 l-3.7 -13.5 -6 -0.6 c-3.3 -0.4 -11.2 -1 -17.5 -1.4 -9.2 -0.5 -11.3 -0.4 -10.3 0.6 0.9 0.9 0.1 2.8 -3.8 8.5 -5.1 7.3 -10.3 12.3 -21.3 20.3 l-5.8 4.3 -51.4 -2.8 c-28.3 -1.5 -51.9 -3.1 -52.5 -3.5 -0.9 -0.5 7.3 -62.4 11.2 -84.8 l1.1 -6.3 2 4.3 c1.8 4 8.3 13.5 11.6 16.9 0.8 0.8 2 2.7 2.7 4.2 1.2 2.9 1.9 -7.9 4.2 -60.9 l0.6 -15.2 -8.9 2.3 c-4.9 1.3 -21.3 5.7 -36.4 9.6 -15.1 4 -27.8 7.6 -28.3 8 -0.4 0.3 4.4 5.2 10.7 10.8 9.9 8.8 11.5 10.7 12 13.9 0.3 2.1 3.1 26.5 6.2 54.3 3 27.8 6.4 58.2 7.4 67.5 1 9.4 2.2 20.2 2.5 24 0.3 3.9 1.3 12.8 2.1 19.9 0.8 7.1 1.3 13 1.1 13.2 -0.2 0.2 -16.8 -8.5 -36.9 -19.3z"
       id="path22" />
    <path
       d="M735.6 382.5 c-5.9 -6.3 -11.5 -11.5 -12.4 -11.6 -1.2 0 -1 -0.3 0.6 -0.9 1.2 -0.5 2.2 -1.6 2.2 -2.4 0 -0.7 0.7 -1.6 1.5 -2 1.9 -0.7 1.9 0.8 0 2.4 -3.2 2.6 -0.6 2 4.4 -1.1 l5.2 -3.3 8.6 8.6 8.5 8.5 0.5 6.7 0.6 6.6 -4.5 0 c-4.4 0 -4.6 -0.1 -15.2 -11.5z"
       id="path24" />
  </g>
  <g
     fill="#e5c013"
     id="g44">
    <path
       d="M1579 493.3 c-10.3 -22.8 -13 -27.9 -15.5 -29.5 -1.6 -1 -15 -7.9 -29.7 -15.4 -14.8 -7.4 -26.8 -13.7 -26.8 -13.9 0 -0.3 0.9 -4.6 2 -9.6 1.1 -5 1.8 -9.5 1.5 -10 -0.4 -0.5 -2.4 -0.9 -4.5 -0.9 -4.7 0 -63.2 -4.9 -63.6 -5.3 -0.4 -0.4 18.3 -15.7 19.1 -15.7 0.3 0 0.3 0.4 0 1 -0.3 0.5 0.3 1.9 1.4 3.1 2.7 2.9 3.6 7.5 1.9 9.7 -4.7 5.9 24.3 -19.8 29.8 -26.4 17.5 -21.1 28.5 -49 32.4 -81.9 1.9 -15.6 1.7 -39.4 -0.4 -49.9 -3.7 -18.7 -11.4 -37.5 -21.3 -51.5 -12.1 -17.2 -33 -32.7 -54.8 -40.6 -2.7 -1 -5.1 -1.9 -5.3 -2.1 -0.3 -0.2 5.4 -76.7 6.3 -84.6 l0.6 -4.7 -8.7 -7.2 c-7.2 -6.1 -8.3 -7.4 -6.8 -8 3.1 -1.3 159.5 -23.2 160.1 -22.5 0.6 0.6 -5.5 81.7 -6.2 82.4 -0.4 0.5 -10.7 -12.9 -13.1 -17.1 -1.8 -3.3 -2.3 -3.6 -2.8 -2.1 -0.9 3.1 -10.8 125.5 -10.2 126.2 0.2 0.1 3.7 -1.9 7.7 -4.6 11 -7.2 10.9 -7.2 22.1 -7.2 l10.3 0 11 6.3 c6.1 3.5 12.2 7.1 13.7 8.1 2.2 1.5 2.9 1.5 3.2 0.5 0.5 -1.4 1.8 -22 5.6 -84.9 1.1 -18.4 2.1 -35.3 2.2 -37.4 l0.2 -3.9 -10.9 -3.8 -11 -3.7 21 -0.1 c11.6 -0.1 39.5 -0.4 62 -0.8 l41 -0.6 8.9 123.9 c4.8 68.1 9.2 128.9 9.7 134.9 0.5 6.1 2.2 30.6 3.9 54.5 1.7 23.9 3.3 44.7 3.6 46.3 0.3 1.5 0.4 2.7 0.1 2.7 -0.2 0 -2.6 -7.6 -5.2 -16.9 l-4.7 -17 -6.2 -0.6 c-3.3 -0.3 -32.6 -2.6 -65.1 -5 -32.4 -2.5 -61.1 -4.7 -63.7 -5.1 l-4.8 -0.6 0 -4.6 c0 -2.6 1.1 -26.1 2.4 -52.2 1.3 -26.1 2.3 -47.6 2.1 -47.8 -0.4 -0.4 -73.9 18.9 -74.7 19.7 -0.3 0.3 4.7 5.3 11.3 11.1 6.5 5.7 11.9 10.9 11.9 11.5 0 0.8 4.7 43.5 18 163.5 1 9.6 1.8 17.5 1.7 17.7 -0.1 0.1 -5.9 -12.2 -12.7 -27.4z"
       id="path28" />
    <path
       d="M194 463.9 c-58.5 -3.5 -110.4 -32 -142 -78 -37.8 -55 -48.2 -137.4 -26.5 -209.8 10.9 -36.4 36.2 -78.6 63.8 -106.4 32.8 -33.1 70.3 -51.5 118.2 -58.2 4.2 -0.6 4.7 -0.9 2.7 -1.6 -1.7 -0.7 -2.2 -1.5 -2 -3.8 0.2 -2.8 0.6 -3.1 4.8 -3.8 2.5 -0.4 14 -0.8 25.5 -0.8 23.3 0 29.5 0.9 48.7 7.1 16.9 5.5 44.3 20.4 58.1 31.6 l2.8 2.3 -5.1 21 c-2.8 11.6 -13.4 55.6 -23.6 98 -10.2 42.4 -18.8 77.9 -19.1 78.9 -0.3 1.2 -3.7 -6.5 -9.7 -22 l-9.2 -23.9 -6.9 -2.7 c-13 -5 -23.9 -7.1 -37 -7.1 -14.2 0.1 -23.5 2.2 -35.1 8 l-7.6 3.9 -0.2 5.4 c-0.2 3 -0.7 9.4 -1.1 14.1 -0.5 5.2 -0.4 9.3 0.2 10.3 0.8 1.5 -0.4 3.2 -6.6 9.5 -8.5 8.6 -14.3 18.4 -18.3 31.1 -2.9 9.6 -3.2 26.9 -0.5 37 7.7 29 32.3 43.8 62.2 37.5 9 -1.9 18.6 -5 25.1 -8.1 6.7 -3.2 18.6 -12.9 22.5 -18.2 l3.2 -4.3 2.5 2.3 c3.3 3 5.9 5.8 38.8 41.7 29.5 32.2 41.4 45.5 41.4 46.4 0 0.3 -1.4 0.8 -3.1 1.2 l-3.1 0.7 5.3 5.4 c2.9 3 4.9 5.4 4.4 5.4 -0.6 0 -4.8 -0.9 -9.4 -2 l-8.4 -2 -6.6 5.8 c-20.3 17.8 -39.9 29 -66.2 37.6 -26.9 8.8 -53.9 12.2 -82.9 10.5z"
       id="path30" />
    <path
       d="M365 451.8 c0.1 -1.3 0.5 -4.2 0.9 -6.5 l0.8 -4.2 -7.5 -0.3 -7.6 -0.3 11 -9.8 10.9 -9.8 0.7 8.3 c0.3 4.6 0.9 11.3 1.2 15 l0.5 6.7 -4.6 1.5 c-6 2.1 -6.3 2 -6.3 -0.6z"
       id="path32" />
    <path
       d="M1589.5 435.5 c0.8 -4.3 8.5 -58.6 8.5 -59.9 0 -0.6 1.9 2.3 4.3 6.4 2.3 4.1 6.4 10.6 8.9 14.4 5.6 8.3 6.4 6.3 -9.5 26.4 -13.2 16.7 -12.9 16.4 -12.2 12.7z"
       id="path34" />
    <path
       d="M1253.6 421.9 c-0.9 -6.8 -4.6 -16.7 -8.6 -22.8 -4.6 -7.2 -16.7 -18.2 -24.7 -22.4 -17.8 -9.3 -40.3 -11.1 -59.2 -4.6 -3 1.1 -5.7 1.9 -6.1 1.9 -0.4 0 -11.9 -25.1 -25.5 -55.9 l-24.8 -55.9 -10.4 -3.2 c-5.7 -1.8 -10.1 -3.6 -9.6 -4 0.4 -0.4 9.1 -6.7 19.2 -14 l18.5 -13.3 3 1.7 c19.5 11.3 65.4 36.6 77.2 42.7 28.5 14.6 51.2 19.6 67.5 14.9 5.6 -1.6 11.9 -6.7 13.8 -11.1 0.9 -2.1 1.9 -3.9 2.4 -3.9 0.4 0 6.8 -3.7 14.2 -8.2 15.2 -9.1 15.2 -9.1 10.9 -17.6 -3.7 -7.5 -11.7 -14.3 -24.5 -20.7 -11.2 -5.6 -23 -9.6 -66.1 -22.4 -50.5 -15.1 -82.7 -28.4 -99.7 -41.2 -3.4 -2.6 -5.6 -3.6 -6.8 -3.2 -1 0.4 -5.5 3.1 -10 6 l-8.2 5.2 -3.7 -4.2 c-2 -2.3 -5.7 -8.4 -8.1 -13.5 -17.2 -35.8 -6.4 -69.4 30.1 -93.7 9.8 -6.5 17.7 -10.2 30.6 -14.3 27.6 -8.8 63.9 -13.7 109.5 -14.9 42.8 -1.1 78.2 3.2 129.8 15.8 l17.3 4.2 -7.5 38.8 c-4.2 21.4 -7.8 38.5 -8.2 38.1 -0.4 -0.4 -1.5 -6 -2.4 -12.5 l-1.8 -11.7 -8.1 -2.5 c-35.3 -10.7 -66 -9.7 -80 2.6 -4.4 3.9 -9.2 10.3 -5.3 7.1 1.3 -1.1 2.4 -0.6 7.7 3.5 10.2 7.9 12.3 9.2 13.4 8.6 0.6 -0.4 0.1 0.6 -1.2 2.1 -4 5.2 -2.3 13.3 3.8 17.6 4.9 3.5 13.1 5.9 38 11.2 12.9 2.7 28.7 6.1 35 7.4 6.3 1.3 13.2 2.7 15.4 2.9 3.9 0.5 10.5 2.1 29 6.9 16.1 4.2 33.4 12.3 47.1 22.1 22.4 16 34.2 40.9 34.8 73.3 l0.2 10.7 -5.4 9.5 c-6.3 11.2 -8.1 13.9 -8.1 12.2 0 -0.9 -0.8 -0.7 -2.6 0.4 -1.9 1.3 -2.8 1.4 -3.3 0.6 -0.4 -0.7 -1.5 2.2 -2.5 6.5 -4 16.9 -13.4 38.3 -23.3 53 -10.3 15.2 -21.7 26.9 -38.6 39.6 -9.3 7 -10.6 7.7 -27 14.2 l-11.7 4.7 -7.3 -6.8 c-18.7 -17.8 -45.3 -23.5 -70.9 -15.3 -15.8 5.1 -39.5 18.4 -50.6 28.4 -2.7 2.5 -5.2 4.5 -5.5 4.5 -0.2 0 -0.7 -2.3 -1.1 -5.1z"
       id="path36" />
    <path
       d="M489.4 420 c-4.7 -3 -44.8 -21.3 -53.9 -24.6 -7.4 -2.7 -8.9 -2.9 -21 -2.7 -7.1 0.1 -15.8 0.8 -19.3 1.6 l-6.2 1.4 -10.9 -11.1 c-6 -6.1 -12.3 -12.8 -14 -14.8 l-3.2 -3.7 2.5 -98.8 c5.4 -209.3 5.3 -202 2.9 -202.6 -1.3 -0.3 -1.1 -0.5 0.6 -0.6 1.3 0 27.2 -3.9 57.5 -8.5 81 -12.5 98.8 -14.2 137.6 -13.3 43.9 1 73.4 7.7 98.3 22.5 21.3 12.6 37.8 32.8 43.4 53.2 1.3 4.9 1.8 9.9 1.7 20 -0.1 11.6 -0.5 14.7 -2.8 22.4 -6.6 21.8 -20.5 43.5 -33.9 53.1 -3.1 2.2 -5.6 4.3 -5.7 4.7 0 0.3 8.7 7.1 19.2 15 10.6 7.8 20 15 20.8 15.8 2 2 30.6 23 31.3 23 0.6 0 64.5 46.6 66.2 48.2 0.6 0.6 -3.3 -1.1 -8.5 -3.7 -7.9 -4 -9.9 -4.6 -12 -3.8 -1.4 0.5 -27.9 15.1 -59 32.5 -31.1 17.3 -58 32.3 -59.8 33.2 l-3.2 1.7 -7.8 -4.9 -7.7 -4.9 -24.5 -2.2 c-13.5 -1.2 -26.3 -2.4 -28.5 -2.7 l-4 -0.6 5 4.4 c7.1 6.1 10.4 9.8 12.6 14 1.8 3.5 1.8 4.5 0.7 13.3 -0.6 5.3 -1.5 9.2 -1.9 8.8 -0.4 -0.4 -14.5 -27.6 -31.4 -60.3 -16.9 -32.7 -33.6 -65 -37.2 -71.7 l-6.4 -12.2 -24.7 22.6 c-13.6 12.4 -25.1 22.9 -25.5 23.3 -0.4 0.4 3.1 4.5 7.8 9.1 l8.5 8.4 -0.2 48.7 -0.3 48.7 -3.1 -1.9z m27 -240.8 c15.3 -9.2 29.8 -18.4 32.1 -20.4 9 -7.9 11.6 -22.4 5.9 -33.5 -2.4 -4.8 -3.8 -6.2 -8.3 -8.5 -6.2 -3.3 -14.5 -3.8 -22.7 -1.3 -8.4 2.5 -58.9 33.8 -58.9 36.5 0 0.8 4.2 4.4 9.4 8.1 8.4 5.9 9.9 7.4 13.7 14 l4.2 7.4 -5.6 8 c-3 4.4 -6.5 9.1 -7.6 10.4 -1.9 2.3 -1.6 2.2 3.9 -0.8 3.3 -1.8 18.5 -10.8 33.9 -19.9z"
       id="path38" />
    <path
       d="M896.2 387.2 l-9.2 -11.9 -5.8 0.8 c-4.8 0.7 -5.8 0.5 -6.6 -0.9 -1.8 -3.5 -12.6 -13.1 -17.2 -15.5 -11.3 -5.6 -24.8 -8.7 -39 -8.8 -7.5 0 -42.4 2.6 -62.4 4.6 l-5.5 0.6 6 -3.9 c3.3 -2.1 15.3 -9.5 26.6 -16.6 l20.7 -12.7 21.8 -4 c26.5 -4.8 26.1 -4.7 24.3 -6.4 -0.8 -0.7 -21.5 -13 -46 -27.3 l-44.5 -26.1 -9.6 5 c-8.9 4.6 -13.6 5.5 -12.5 2.5 0.2 -0.6 4.8 -14.8 10.2 -31.6 5.3 -16.8 9.9 -30.6 10 -30.8 0.1 -0.2 2.5 4.4 5.3 10.1 2.8 5.8 5.4 10.7 5.9 11 1 0.7 13.5 -37 42.8 -129.3 10.2 -32.2 19.2 -60.4 20 -62.7 l1.4 -4.2 -7.2 -4.6 c-4.4 -2.8 -6.2 -4.5 -4.7 -4.2 1.4 0.3 40.1 5.2 86.1 10.9 l83.6 10.3 33.3 78.5 c18.4 43.2 34 79.4 34.6 80.5 0.7 1.1 5.6 12.4 10.9 25 5.4 12.7 11.5 26.8 13.6 31.5 9.3 21.1 55 127.3 54.7 127.4 -0.2 0.1 -2.2 1.7 -4.6 3.5 l-4.3 3.4 -4.3 -4.2 -4.2 -4.1 -11.7 0 -11.7 0 0 -2.7 c0 -1.6 1.2 -10 2.5 -18.8 3.1 -19.8 3.1 -19.9 0.6 -18.5 -1.1 0.5 -6.5 4.4 -12.1 8.5 l-10.2 7.6 -7.5 -1.7 c-11 -2.4 -28.1 -1.6 -38.6 2 -10.3 3.5 -17.7 7.8 -24.8 14.4 -3.3 3 -6.1 5.3 -6.3 5.1 -0.2 -0.2 -7.2 -19.1 -15.6 -42 l-15.2 -41.6 -8.2 -0.7 c-30.2 -2.4 -48 -3.5 -48.4 -3.2 -0.2 0.3 1.7 7.1 4.3 15.2 2.5 8.1 4.7 15.4 4.8 16.3 0 0.9 -1.2 7.6 -2.8 14.9 l-2.9 13.2 -11.9 0 -11.9 0 0.7 10.8 c0.9 15.5 1 15.9 8 23.2 l6.2 6.5 -1.1 3.8 -1.1 3.8 -9.3 -11.9z m53.8 -154.8 c0 -0.9 -42 -96.4 -44.1 -100.4 l-1.9 -3.5 0.5 4.5 c0.3 2.5 2.1 16.3 3.9 30.7 l3.4 26.2 -4.9 18.2 c-2.7 10 -4.8 18.3 -4.7 18.5 0.2 0.1 5 -0.1 10.8 -0.6 l10.5 -0.9 12.5 3.9 c13.3 4.2 14 4.3 14 3.4z"
       id="path40" />
    <path
       d="M736.3 383.1 c-5.7 -6 -10.3 -11.1 -10.3 -11.4 0 -0.2 2.5 -2.1 5.6 -4.2 l5.7 -3.7 8.4 8.4 c8.2 8.2 8.4 8.5 9 14.2 0.7 6.5 -0.1 7.6 -5.2 7.5 -2.5 0 -4.7 -1.8 -13.2 -10.8z"
       id="path42" />
  </g>
  <g
     fill="#fbf55d"
     id="g62">
    <path
       d="M1578.5 491.6 l-12 -26.6 -29.5 -15.2 c-16.2 -8.3 -29.6 -15.2 -29.7 -15.3 -0.2 -0.1 0.8 -4.5 2.1 -9.8 1.3 -5.4 2 -9.9 1.7 -10.2 -0.4 -0.2 -11.4 -1.2 -24.4 -2.2 -13 -0.9 -23.7 -2 -23.7 -2.4 0 -0.3 2.8 -2.8 6.2 -5.5 17.8 -14 33.5 -32.1 41.5 -47.7 13.2 -26.1 20.8 -70 17.3 -99.2 -5.6 -46.2 -30.8 -81.1 -71.3 -98.6 -6 -2.6 -11 -4.9 -11.2 -5.1 -0.5 -0.4 6.2 -88.9 6.7 -89.3 0.2 -0.2 13.1 -2.9 28.8 -6 15.7 -3.1 30.6 -6.1 33.2 -6.6 l4.7 -1.1 -1.9 -2.1 c-1.1 -1.1 -2 -2.7 -2 -3.4 0 -0.7 -0.9 -2.2 -2.1 -3.4 -1.1 -1.1 -1.8 -2.3 -1.6 -2.6 0.7 -0.6 82.9 -12.4 84 -12 0.5 0.1 -3.2 3.1 -8.1 6.6 l-9.1 6.4 -0.5 5.1 c-0.3 2.8 -1 11 -1.6 18.1 -0.5 7.2 -1.9 24 -3 37.5 -4.7 58.4 -9 115.3 -8.7 115.7 0.3 0.2 67.8 4.1 68.4 3.9 0.2 -0.1 6.8 -105.8 7.6 -123.1 l0.2 -3.9 -11 -3.7 -11 -3.7 21 -0.1 c11.6 -0.1 39.5 -0.4 62 -0.8 l41 -0.6 7.2 101.8 c4 56.1 7.1 102 7 102.2 -0.7 0.6 -7.1 -11.6 -8.2 -15.7 l-1.3 -4.5 -0.1 3.5 c-0.1 4.2 2.1 32.3 4.9 63.5 5.6 63.2 6.8 77 6.7 77.1 -0.1 0.1 -10.3 -0.7 -22.7 -1.7 -12.4 -0.9 -43.6 -3.4 -69.5 -5.4 -25.8 -2.1 -47.1 -3.8 -47.3 -4 -0.3 -0.3 3.3 -79.7 4.4 -95.4 l0.6 -9.3 -3.3 0.7 c-5.1 1.1 -71.3 18.6 -72 19 -1 0.7 7.9 67.5 9.2 69 0.6 0.5 0.9 0.1 1 -1 0 -1.8 0.6 -0.7 5.2 9.8 0.6 1.5 1.5 2.7 1.9 2.7 0.5 0 0.8 0.5 0.8 1.1 0 1.9 7.2 16.2 10.6 21 3.2 4.6 3.2 4.7 6.8 36 6 53 6.8 59.9 6.4 61.5 -0.2 0.9 -5.7 -10.4 -12.3 -25z"
       id="path46" />
    <path
       d="M180.1 462.4 c-78.5 -10.7 -136.6 -63.1 -157.2 -141.8 -11.2 -43 -11.1 -91.4 0.2 -135.3 7.5 -29.3 24.5 -63.7 45.1 -91.1 8.5 -11.3 27.1 -30.9 37.5 -39.4 45.1 -36.9 104.6 -51.6 158.8 -39.3 16 3.6 25.2 6.9 41.5 14.6 13.4 6.3 15.5 7 27.5 8.9 7.1 1.1 13.3 2.4 13.7 2.8 0.7 0.7 -7.3 35.1 -23.2 99.7 -5.8 24 -7.8 30.7 -7.9 27.3 -0.1 -1.3 -0.9 -1.8 -3.1 -1.8 -1.6 0 -3 -0.4 -3 -1 0 -0.5 -0.6 -1 -1.3 -1 -0.7 0 -1.8 -0.9 -2.5 -2 -0.7 -1.1 -1.8 -1.7 -2.7 -1.4 -0.8 0.4 -1.5 0.2 -1.5 -0.2 0 -0.5 -1.8 -2 -4 -3.4 -2.2 -1.3 -4 -2.8 -4 -3.2 0 -0.4 -0.6 -0.8 -1.3 -0.8 -1.3 0 -2.3 3.9 -8.7 31.7 l-2.1 9.1 -5.6 -2.4 c-3 -1.4 -9.8 -3.6 -15.1 -5.1 -13.5 -3.6 -32.9 -3.9 -44.6 -0.5 -27.5 7.9 -54.2 32.5 -64.7 59.6 -5.9 15.2 -8.8 35.6 -5.3 37 2.8 1.1 10.8 0.6 14.9 -0.9 2.2 -0.8 4 -1.5 4 -1.5 0 0 0.1 3 0.3 6.8 1.4 33.4 21.8 55.2 51.8 55.2 12.6 0 33.3 -6 42.8 -12.3 7.9 -5.3 14.3 -10.9 17.7 -15.6 l3.2 -4.2 2.5 2.3 c2.1 2 65.3 71.1 75.5 82.6 2 2.3 3.7 4.6 3.7 5 0 0.5 -1.1 1.2 -2.5 1.8 l-2.5 0.9 4.4 4.5 c2.5 2.5 4.5 4.8 4.6 5.1 0 0.3 -3.3 -0.2 -7.2 -1.2 -4 -1 -8 -1.9 -8.9 -1.9 -0.9 0 -4.7 2.7 -8.5 6.1 -29.1 25.7 -63.6 40.7 -106.7 46.4 -14.5 1.9 -41.3 1.8 -55.6 -0.1z"
       id="path48" />
    <path
       d="M365 452.6 c0 -5.7 2.2 -12.3 5 -14.8 1.7 -1.6 3.5 -2.8 4 -2.8 0.6 0 1 3.4 1 7.9 l0 7.9 -4 1.6 c-4.9 2 -6 2 -6 0.2z"
       id="path50" />
    <path
       d="M1254 423.8 c0 -1.9 -0.7 -5.9 -1.6 -8.9 -5.9 -19.9 -22 -36 -43.9 -43.6 -7.4 -2.5 -9.2 -2.7 -23 -2.7 -13.6 0 -15.7 0.2 -23 2.6 -4.3 1.5 -8 2.6 -8.1 2.5 -1.2 -1.3 -49.2 -111.1 -48.9 -111.7 0.3 -0.5 4.2 -3.2 8.8 -6 4.5 -2.8 11.7 -7.4 16.1 -10.2 5.5 -3.6 8.2 -4.9 9.2 -4.2 0.7 0.5 5.5 3.8 10.6 7.4 34.5 24.2 70.2 43.4 92.8 49.7 10.7 3 27.6 4.1 37.8 2.3 9.2 -1.5 21.8 -7.6 26.3 -12.7 1.7 -2 4.4 -6.2 5.8 -9.3 2.2 -4.7 2.6 -6.9 2.6 -15 0 -8.2 -0.4 -10.3 -2.7 -15.2 -6.2 -13.2 -19.8 -22.7 -45.3 -31.5 -3.8 -1.3 -18.5 -5.8 -32.5 -9.9 -57.5 -17.1 -88.7 -29.1 -108 -41.6 -19.6 -12.7 -32 -33.3 -32 -53 0.1 -14.7 5.9 -26.8 19 -39.2 3.9 -3.6 7 -6.8 7 -7.1 0 -0.3 -1.8 0.6 -3.9 2.1 l-4 2.6 -2.8 -2.2 c-2.4 -1.7 -3.4 -1.9 -5.9 -1.1 -2.6 1 -2.4 0.6 1.8 -3.2 21.4 -19.4 63.8 -30.8 128.3 -34.7 51.1 -3 89.1 0.7 146 14.2 13.2 3.1 17.2 4.4 15 4.8 l-3 0.5 -5.2 25.9 c-2.9 14.3 -5.4 26.1 -5.6 26.2 -0.2 0.2 -3.7 -0.8 -7.9 -2.1 -19.6 -6.2 -45.1 -9 -59.4 -6.6 -13.1 2.3 -22.6 8.1 -28.2 17.3 -6.6 11 -5.2 20.8 4.2 30.2 5.1 5.1 19.9 13.9 19.4 11.5 -0.2 -0.7 1.3 -2.2 3.3 -3.3 2.2 -1.3 3.4 -2.7 3.1 -3.5 -0.3 -1 0 -1.2 1.4 -0.6 5.4 2.2 28.2 7.2 70.4 15.5 35.3 7 55 12.9 71.4 21.3 24.6 12.6 38.6 27.7 46.1 49.7 3.6 10.5 4.1 15.3 1.8 17.1 -1.6 1.2 -1.7 1.2 -0.6 -0.2 1.1 -1.4 0.8 -1.5 -2.6 -1.5 -2.2 0.1 -3.7 -0.2 -3.5 -0.6 0.3 -0.4 -1 -1.5 -2.8 -2.4 -3.4 -1.8 -5.4 -3.4 -5.6 -4.7 -0.1 -0.4 -0.6 -1.5 -1.2 -2.5 -1.1 -1.9 -1.1 -1.6 1 7.8 0.5 2.5 1 12 1 21.2 0 24.6 -3.5 43.2 -12.2 64.8 -10.2 25.3 -29.4 49.7 -52.8 67 -9.3 6.8 -9 6.7 -26.7 13.9 l-12.1 5 -6.4 -6.2 c-16.2 -15.8 -40.2 -22.8 -62.4 -18.3 -18.9 3.8 -41.6 15.6 -62.3 32.4 l-4.1 3.4 0 -3.4z"
       id="path52" />
    <path
       d="M461 406.1 c-25.1 -11.7 -30 -13.3 -42 -13.8 -6.9 -0.3 -13.9 0.1 -20.4 1.1 l-10 1.7 -3.9 -3.8 c-2.1 -2.1 -8.3 -8.6 -13.7 -14.4 l-9.9 -10.5 1.9 -72.5 c1.1 -39.8 2.6 -101.9 3.4 -137.9 0.9 -36 1.8 -71.2 2.1 -78.2 0.5 -12.5 0.5 -12.7 -1.7 -13.1 -2.3 -0.4 -2.3 -0.4 0.1 -0.6 1.3 0 27.2 -3.9 57.5 -8.5 81 -12.5 98.8 -14.2 137.6 -13.3 50.5 1.1 83 10.1 109.8 30.2 15.5 11.7 30.1 33.4 32.5 48.5 0.6 3.4 0.5 3.6 -8.5 10 -5 3.6 -9.4 6.4 -9.8 6.3 -0.4 -0.1 -1.5 3.5 -2.4 8 -1 4.5 -3.2 11.6 -4.9 15.6 -6.7 16.4 -23.2 36.1 -40 48.1 -4.8 3.4 -7.2 5.7 -6.4 6.1 0.6 0.3 5.6 1 11 1.3 18.9 1.4 17.2 0.6 39.2 17.2 20.9 15.7 48 35.8 60.3 44.6 8.1 5.8 9.6 7.4 6.2 6.3 -1.4 -0.4 -2.5 -0.3 -3 0.5 -0.5 0.8 -1.8 0.5 -4.6 -1.1 -8.3 -4.8 -1 0.3 18.1 12.6 13.3 8.6 21 12.9 23 13 2.4 0.1 12.7 6.5 16.5 10.2 0.2 0.2 -3.5 -1.7 -8.2 -4.2 l-8.7 -4.6 -62 34.6 -62.1 34.6 -7.4 -5 -7.5 -5.1 -27.2 -2.5 c-15 -1.4 -28.2 -2.5 -29.3 -2.3 -1.8 0.3 -1.6 0.6 1.6 2.6 5.1 3.2 14.6 13.7 15.5 17.2 0.8 3 -0.6 20 -1.6 20 -0.3 0 -4.3 -7.3 -8.9 -16.3 -26.5 -51.9 -65.9 -127.2 -66.5 -127 -0.5 0.1 -12 10.4 -25.7 23 l-25 22.7 -0.2 49.1 c-0.1 26.9 0 50.7 0.1 52.8 0.1 2 0.1 3.7 -0.1 3.7 -0.2 -0.1 -6.8 -3.1 -14.8 -6.9z m40.3 -217.7 c53.2 -31.4 56 -33.9 56.1 -49.9 0 -5.5 -0.6 -8.2 -2.6 -12.6 -4.1 -9 -10.8 -12.4 -23.3 -11.7 -9.4 0.4 -16.7 4 -46.6 23.1 l-21.5 13.7 6.5 25.5 c3.6 14 6.9 25.5 7.4 25.5 0.5 0 11.3 -6.1 24 -13.6z"
       id="path54" />
    <path
       d="M742.5 389 c-2.7 -2.7 -4.7 -5.1 -4.4 -5.3 0.2 -0.1 2.9 -1.9 6 -3.9 l5.7 -3.7 2 2.2 c1.3 1.4 2.2 4.3 2.7 8.3 l0.7 6.1 -3.2 0.7 c-1.8 0.3 -3.5 0.6 -3.9 0.6 -0.4 0 -2.9 -2.2 -5.6 -5z"
       id="path56" />
    <path
       d="M1101.1 382.3 c-4.2 -0.4 -4.3 -0.5 -3.8 -3.6 0.3 -1.8 1.5 -10.5 2.8 -19.4 1.3 -9 2.6 -16.3 2.9 -16.3 0.3 0 2.2 4 4.2 8.8 2 4.8 5.9 13.8 8.7 20 l5 11.2 -7.7 -0.2 c-4.2 -0.1 -9.7 -0.3 -12.1 -0.5z"
       id="path58" />
    <path
       d="M985.2 336.8 c-8.4 -22.6 -15.3 -41.3 -15.5 -41.5 -0.5 -0.5 -56.7 -4.7 -57 -4.2 -0.2 0.2 -4.3 13.8 -9.2 30.2 -4.8 16.3 -9.2 29.7 -9.6 29.7 -0.5 0 -0.9 1.5 -0.9 3.3 0 1.7 -1.2 7.1 -2.7 11.8 -2.7 8.4 -2.9 8.7 -6.3 9.3 -7.3 1.2 -8.4 0.9 -12.2 -4.2 -4.8 -6.5 -13.3 -12 -24.8 -15.9 -13.9 -4.7 -25.1 -5.9 -42.3 -4.4 -7.6 0.7 -14 1.1 -14.2 0.9 -0.2 -0.2 13.6 -8.9 30.6 -19.5 l30.9 -19.1 -46 -26.9 c-25.2 -14.7 -45.9 -27.2 -46 -27.8 0 -0.5 7.4 -23.9 16.4 -52 9 -28 25.2 -79.1 36.1 -113.5 10.9 -34.4 20.1 -62.8 20.4 -63.2 0.4 -0.4 12.8 0.8 27.6 2.7 14.9 1.9 28.3 3.5 29.8 3.5 l2.8 0 -3 -3.2 c-1.7 -1.8 -2.8 -3.4 -2.6 -3.6 0.2 -0.3 23.5 2.4 51.8 5.9 l51.4 6.4 33.3 78.5 c18.4 43.2 33.7 79 34 79.5 0.4 0.6 5.3 12 11 25.5 5.7 13.5 11.6 27.4 13.2 30.9 1.6 3.5 2.7 6.6 2.4 6.8 -0.3 0.3 -1.9 0 -3.7 -0.6 -2.7 -0.9 -3 -0.9 -1.9 0.4 1 1.2 1 1.8 0.1 2.9 -1 1.1 -0.8 1.7 0.6 2.5 2 1.1 1.3 1.4 -3.7 1.3 -1.6 -0.1 -1.9 0.1 -0.7 0.4 0.9 0.3 1.7 1 1.7 1.5 0 0.6 -0.4 0.7 -1 0.4 -0.5 -0.3 -1 -0.1 -1 0.4 0 0.6 0.4 1.1 0.8 1.1 0.5 0 0.9 0.7 0.9 1.5 0 0.8 -0.1 1.5 -0.3 1.5 -0.5 0 -5.2 -9.1 -9.3 -18.3 -2.4 -5.3 -4.5 -9.6 -4.7 -9.4 -0.2 0.2 8.7 20.9 19.7 46.2 16.3 37.4 19.8 46.1 18.7 47.1 -0.7 0.7 -6.2 4.8 -12.2 9.2 l-11 7.9 -5.5 -1.5 c-3.5 -0.9 -10 -1.6 -17.1 -1.6 -17.1 0 -29.4 3.9 -43.5 13.9 -3.3 2.3 -6.9 5.2 -7.9 6.4 -1.1 1.1 -2.2 2.1 -2.6 2.1 -0.4 0 -7.5 -18.5 -15.8 -41.2z m-35.2 -104.5 c0 -1 -44.1 -101.6 -45 -102.6 -0.7 -0.8 -5.1 14.3 -11.7 39.5 l-2.8 10.8 8.4 8.4 c4.7 4.7 8.8 8.3 9.3 8 1.5 -0.9 0.8 3 -2.7 16.1 -1.9 7.2 -3.5 13.3 -3.5 13.8 0 0.4 3.7 0.4 8.3 0.1 l8.2 -0.6 1.3 3 c1.1 2.6 2 3.1 5.5 3.5 7.9 0.7 24.7 0.7 24.7 0z"
       id="path60" />
  </g>
</svg>
