<?xml version="1.0" encoding="utf-8"?>
<!DOCTYPE svg PUBLIC "-//W3C//DTD SVG 20010904//EN" "http://www.w3.org/TR/2001/REC-SVG-20010904/DTD/svg10.dtd">
<svg version="1.0" xmlns="http://www.w3.org/2000/svg" width="1578px" height="263px" viewBox="0 0 1578 263" preserveAspectRatio="xMidYMid meet">
 <g fill="#070003">
  <path d="M1551.9 260.2 c-15.4 -7.9 -32.1 -18.4 -38.5 -24.4 l-7.1 -6.8 -10 0 c-11.3 0 -18.7 -1.8 -24.8 -6 -2.2 -1.5 -9.2 -8.1 -15.6 -14.7 -15.9 -16.4 -15.9 -16.3 -15.9 -45.8 l0 -22.4 -4.7 2.2 c-4.2 1.9 -6.9 2.2 -20.5 2.5 l-15.8 0.4 0 24.4 0 24.4 3.2 5.1 c3.2 5.3 4.6 12.4 3.4 17.3 -0.9 3.7 -5.6 8.7 -10.1 10.7 -3.5 1.6 -6.9 1.9 -27.4 1.9 -14.9 0 -24.8 -0.4 -27.2 -1.2 -2.2 -0.6 -6.6 -3.5 -9.8 -6.5 -6.3 -5.7 -7.1 -6.1 -7.1 -3.8 0 2.4 -5.8 8.2 -9.9 9.9 -3.4 1.3 -11.1 1.5 -55.7 1.5 -48.6 0 -52 -0.1 -56 -1.9 -5 -2.2 -21 -17.2 -25.5 -23.9 -2.7 -4.1 -3 -5.2 -2.7 -10.6 0.3 -4.7 1.1 -7.3 3.6 -11.3 l3.2 -5.2 0 -70.5 0 -70.4 -3.5 -5.8 c-5.5 -9.1 -4.6 -18.7 2.4 -24.6 5.5 -4.6 8.2 -4.8 53.4 -4.5 l42.2 0.3 6 2.8 c4.6 2.1 8.8 5.7 18.5 15.5 7.6 7.6 13.5 14.5 14.8 17.2 2.2 4.5 2.2 4.5 2.2 1.4 0 -1.8 -1.1 -5.2 -2.5 -7.5 -3.8 -6.7 -4.8 -11.2 -3.4 -16.1 1.4 -5.3 7.2 -11.2 12.4 -12.7 2.6 -0.7 17.8 -1.1 43.5 -1.1 50.9 0 50.9 0 66.7 15.3 4 3.9 7.4 6.8 7.5 6.6 0.2 -0.2 1.2 -2.2 2.3 -4.4 2.9 -5.7 8.9 -11.3 15.4 -14.4 l5.6 -2.6 32.2 -0.3 c44.2 -0.4 43.6 -0.6 63.5 19.3 8.1 8.1 11.6 12.4 14 17.3 l3.3 6.7 0 24.5 c0 22.5 -0.2 24.9 -2.1 29.5 l-2.1 5.1 2.1 3.9 c2.1 3.9 2.1 5.4 2.4 70 0.3 68.5 0.1 73.1 -3.9 78.6 -4.5 6.3 -14.9 8.7 -22 5.1z"/>
  <path d="M44.7 227.9 c-7.4 -1.7 -12.4 -5.3 -24.9 -17.8 -9.8 -9.8 -13.4 -14 -15.5 -18.6 l-2.8 -6 0 -80 0 -80 2.8 -5.7 c3.6 -7.3 11.9 -15 18.9 -17.5 4.7 -1.6 8.9 -1.8 38.3 -1.8 l33 0 6.6 3.2 c4.2 2.1 9.8 6.3 15.3 11.4 6.8 6.4 9 7.9 9.7 6.8 0.5 -0.8 0.9 -1.8 0.9 -2.3 0 -2.2 7.5 -10.7 11.8 -13.5 8.5 -5.4 13.5 -6.1 44.7 -6.1 38 0 39.9 0.5 55 15.1 l8 7.8 -0.3 -3.9 c-0.7 -7.5 4.6 -15 12.7 -17.8 4.4 -1.6 47.1 -1.6 52.5 -0.1 3 0.8 6.9 3.9 15.4 12.2 6.3 6.2 12.3 12.9 13.3 14.9 2.2 4.4 2.5 11.2 0.5 15 -1.3 2.4 -1.3 3.5 0.2 8.5 l1.6 5.8 4.6 -14.5 c4.4 -13.8 4.6 -14.7 3.2 -18 -2.1 -5.2 -1.2 -13 2.2 -17.4 5.2 -6.9 6.1 -7.1 35.1 -7.1 l26 0 4.5 2.7 c2.5 1.4 6.1 4.2 7.9 6.2 4.1 4.2 4.7 4.4 5.5 1.2 0.8 -3.4 6.8 -8.3 11.7 -9.6 2.7 -0.8 17.7 -1 46.2 -0.8 l42.2 0.3 5.9 2.9 c3.5 1.7 9.2 6 13.8 10.4 l7.8 7.5 0 -3.2 c0 -7.3 6.1 -15 13.3 -17 2.9 -0.8 19.8 -1.1 55.7 -0.9 l51.5 0.3 4.5 2.7 c2.5 1.4 6.1 4.2 7.9 6.2 1.9 2 3.8 3.6 4.1 3.6 0.4 0 1.4 -1.6 2.3 -3.5 0.9 -1.9 3.5 -4.7 5.8 -6.2 l4.3 -2.8 47 0 c52.9 0 48.8 -0.6 58.1 7.9 4.4 4 5.1 4.3 6 2.8 2.4 -4.1 8.3 -9.1 12 -10.1 5.3 -1.5 95.5 -1.5 100.7 0 2.2 0.6 6.3 3.3 9.8 6.6 3.3 3.1 6.2 5.4 6.4 5.2 0.2 -0.2 1.1 -1.9 2 -3.7 0.9 -1.7 3.5 -4.4 5.8 -6 l4.2 -2.7 44.5 0 44.6 0 5.9 2.8 c8.7 4 29.5 24.7 33.9 33.7 l3.2 6.5 0 30.5 c0 29.1 -0.1 30.7 -2.1 34.7 l-2.1 4.3 2.1 4.2 c2 4.1 2.1 6.1 2.6 41.8 0.5 36.8 0.5 37.6 2.8 41 5.1 7.9 4.9 15.6 -0.5 22.1 -5.8 6.9 -5.1 6.8 -62.7 6.8 -58.8 0 -55.6 0.4 -64.5 -8.2 -3.1 -3.1 -5.5 -4.7 -5.8 -4 -1.4 3.8 -5.4 8.1 -9.3 10.1 -4.4 2.2 -4.6 2.2 -52.3 2.2 -34.9 0 -49.1 -0.3 -52.1 -1.2 -4.9 -1.5 -23.3 -18.7 -27.4 -25.7 -3.7 -6.3 -3.5 -12.1 0.6 -19.4 l3.2 -5.7 0 -44.9 0 -45 -3 1 c-3.1 1.1 -11.3 0.8 -14.2 -0.5 -1.7 -0.8 -1.8 2.1 -1.8 53.2 l0 53.9 3.5 6.7 c1.9 3.7 3.5 8 3.4 9.4 -0.2 7.2 -6.3 15.4 -12.8 17.2 -2 0.5 -14.2 1 -27.1 1 -20.9 0 -24 -0.3 -27.7 -1.9 -5.7 -2.6 -25.8 -23 -27.3 -27.7 -1.8 -5.4 -0.7 -12.2 2.9 -18.2 l3.1 -5.3 0 -44.4 c0 -30 -0.3 -44.5 -1 -44.5 -0.6 0 -5.1 -3.9 -10 -8.6 l-8.9 -8.6 -0.3 67.3 c-0.3 66.7 -0.3 67.5 -2.5 72.1 -3 6.6 -9.6 13.3 -16.2 16.5 l-5.6 2.8 -35.5 0 -35.5 0 -6 -2.9 c-8.5 -4.1 -29 -24.6 -33.1 -33.1 l-2.9 -6 -0.3 -25.7 -0.3 -25.7 -4.7 3.3 c-7.6 5.5 -12.4 6.6 -28.2 6.6 l-14 0 0 25 0 25 2.9 5.3 c4.5 7.9 4.8 11.7 1.7 18 -1.5 3.2 -4 6.2 -6.2 7.7 -3.7 2.5 -4 2.5 -29 2.8 -29 0.4 -29.8 0.2 -39.1 -8.2 -5.2 -4.7 -5.3 -4.8 -6.2 -2.4 -1.4 3.6 -7.1 8.7 -11 9.8 -2 0.5 -14.1 1 -26.9 1 -18.1 0 -24 -0.3 -26.7 -1.4 -3.1 -1.3 -3.9 -1.3 -7 0 -2.4 1 -7.4 1.4 -17 1.4 -9.6 0 -14.6 -0.4 -17 -1.4 -3.1 -1.3 -3.9 -1.3 -7 0 -4.2 1.7 -47.7 2 -53.8 0.3 -2.6 -0.7 -6.5 -3.5 -11.9 -8.7 -7.4 -7 -8.1 -7.5 -9 -5.7 -2.1 3.8 -9.2 9.8 -14.7 12.4 l-5.6 2.6 -34 0 -34 0 -5.9 -2.8 c-4.1 -1.9 -8.8 -5.5 -15.1 -11.7 l-9.2 -9 -1.9 4.2 c-2.3 5.2 -7.6 11.3 -12.5 14.4 -7.8 4.9 -12 5.4 -44.3 5.3 -16.6 -0.1 -31.8 -0.5 -33.9 -1z m909.9 -140.6 c-0.2 -0.2 -1.5 0.2 -2.9 0.8 l-2.6 1.2 -0.3 25.2 -0.3 25.2 -2.7 3.9 -2.6 3.9 5.6 5.8 5.7 5.8 0.3 -35.7 c0.1 -19.6 0.1 -35.9 -0.2 -36.1z m-830.6 33.3 l0 -31.3 -4.9 -0.5 c-3.1 -0.3 -6.7 -1.6 -10 -3.6 -4.9 -3.1 -5.6 -3.2 -15.6 -3.2 l-10.5 0 0 32.5 c0 27.9 0.2 32.5 1.5 32.5 0.8 0 4.3 -1.6 7.8 -3.5 10.4 -5.7 17.2 -4.6 25.7 4 2.4 2.5 4.8 4.5 5.2 4.5 0.4 0 0.8 -14.1 0.8 -31.4z"/>
 </g>
 <g fill="#98000b">
  <path d="M1521.7 228.3 c-10.4 -6 -17.4 -10.8 -18.3 -12.3 -0.7 -1.4 -1.3 -4.4 -1.4 -6.7 l0 -4.1 -18.2 -0.4 c-20.1 -0.4 -22.5 -1 -29.2 -6.8 -2 -1.8 -4.7 -5.2 -5.9 -7.4 l-2.2 -4.1 0 -81 0 -81 2.2 -4 c2.6 -5 6.5 -8.6 12.3 -11.6 4.5 -2.4 4.7 -2.4 38 -2.4 30 0 34 0.2 38.2 1.8 5.8 2.2 12.9 9.8 14.6 15.5 0.8 2.5 1.2 12.2 1.2 27.5 l0 23.5 -2.9 5.6 -3 5.6 3 2.9 2.9 2.9 0 69.6 0 69.6 -2.8 3.1 c-2.1 2.3 -3.8 3.2 -7.2 3.6 -4.2 0.4 -5.5 -0.2 -21.3 -9.4z m-18.8 -122.6 l4 -2.3 -2.2 -2.2 c-2.1 -2.2 -2.2 -3.1 -2.5 -22.7 -0.3 -19.4 -0.4 -20.5 -2.2 -20.5 -1.8 0 -1.9 1.2 -2.2 24.6 -0.3 21.8 -0.2 25.4 0.8 25.4 0.1 0 2 -1 4.3 -2.3z"/>
  <path d="M27.5 203.6 c-8.9 -2.8 -13.4 -6.6 -17.6 -14.6 l-2.4 -4.5 -0.3 -76.4 c-0.3 -84.6 -0.4 -82.7 6.1 -91.3 2 -2.7 5.5 -5.4 9.2 -7.3 l5.9 -3 32 0 c31.6 0 32.2 0 37.3 2.4 5.9 2.6 12.3 9 15 14.8 1.4 3.1 1.7 6.7 1.8 19.1 l0 15.4 -3.7 3.4 c-5 4.5 -9 4.5 -17.2 -0.1 l-6.3 -3.5 -14.1 0 -14.2 0 0 47.5 0 47.5 14.6 0 14.7 0 5.1 -3.2 c9.4 -5.9 17.8 -3.9 20.7 5 1.9 5.7 0.7 27.7 -1.8 33.3 -2.6 5.8 -8.3 11.6 -14.2 14.3 -4.3 2 -6.3 2.1 -35.6 2.3 -22.8 0.1 -32.1 -0.2 -35 -1.1z"/>
  <path d="M149.2 203.3 c-6.2 -1.9 -13.3 -7.8 -16.5 -13.7 l-2.2 -4.1 0 -80 0 -80 2.7 -4.5 c3.5 -6 7.2 -9.4 13.3 -12.2 4.9 -2.2 5.7 -2.3 37 -2.3 l32 0 5.7 2.8 c3.2 1.6 7.3 4.6 9.2 6.9 6.8 7.9 6.6 4.9 6.6 89.3 0 85.1 0.3 81.5 -7 89.8 -2.3 2.5 -6.2 5.4 -9.2 6.8 -5.2 2.3 -6 2.4 -35.8 2.6 -25.4 0.2 -31.4 -0.1 -35.8 -1.4z m35.8 -97.8 c0 -46.8 0 -47.5 -2 -47.5 -2 0 -2 0.7 -2 47.5 0 46.8 0 47.5 2 47.5 2 0 2 -0.7 2 -47.5z"/>
  <path d="M259.3 203.6 c-7.3 -3.3 -8.7 -11 -3.5 -19.4 l3.2 -5.2 0 -73 0 -72.9 -3.7 -7.1 c-3.6 -7 -3.7 -7.2 -2.3 -11.2 2.8 -7.8 4.2 -8.3 28.3 -8.6 25.4 -0.4 29.1 0 32.8 3.8 3.9 3.9 4.5 7.3 2.4 13.5 l-1.7 5.2 10.2 32.9 c5.7 18.1 10.6 33.5 11 34.2 0.3 0.7 5.5 -14.3 11.5 -33.3 l10.8 -34.7 -1.7 -3.4 c-2.4 -5.1 -2.1 -9.7 1 -13.3 4 -4.8 7.5 -5.3 32.4 -4.9 19.5 0.3 22.8 0.5 25.1 2.1 6 4.1 6.8 10.9 2 18.7 l-3.1 5 0 73.7 0 73.6 3.1 5.1 c3.6 5.8 4.1 11.1 1.5 15.2 -3.2 4.8 -6.6 5.4 -29.9 5.4 -23.6 0 -26.6 -0.3 -29.6 -3.1 -2.1 -1.9 -2.1 -1.9 -5.2 0.3 -2.9 2.2 -4 2.3 -17.9 2.3 -14.3 0 -14.9 -0.1 -17.4 -2.4 l-2.6 -2.4 -2.6 2.4 c-2.5 2.4 -2.7 2.4 -26.7 2.6 -19.1 0.2 -24.9 0 -27.4 -1.1z"/>
  <path d="M442.2 203.3 c-7 -3.4 -7.9 -10.4 -2.7 -19.7 l3.5 -6.3 0 -71.7 0 -71.8 -3.5 -6.2 c-4.1 -7.4 -4.5 -12.1 -1.3 -16.1 4.2 -5.4 5.5 -5.5 47.2 -5.5 23.9 0 40.4 0.4 43.6 1.1 6.8 1.5 13.8 6.4 17.5 12.3 l3 4.9 0.3 37.8 c0.3 37 0.2 37.9 -1.9 42.9 -2.8 6.5 -9.6 12.5 -16.2 14.5 -3.6 1.1 -9.8 1.5 -20.9 1.5 l-15.8 0 0 29.1 0 29.2 3.1 5.1 c5.2 8.4 3.7 16.1 -3.5 19.1 -5.2 2.2 -47.9 2 -52.4 -0.2z"/>
  <path d="M590.3 203.2 c-7.1 -2.5 -11.3 -6 -14.8 -12.3 l-3 -5.4 -0.5 -77 -0.5 -77 -3.4 -6.3 c-3.4 -6.2 -3.5 -6.4 -2 -10.4 0.7 -2.3 2.7 -5.1 4.2 -6.2 2.7 -2 4 -2.1 26.5 -2 29.1 0.1 29.3 0.1 58.4 0 22.5 -0.1 23.8 0 26.5 2 1.5 1.1 3.4 3.9 4.2 6.2 1.5 4 1.4 4.2 -2.2 11.1 l-3.7 7 0 73.9 c0 80.9 0.1 79.6 -5.9 87.9 -1.9 2.6 -5 5.1 -8.8 6.9 l-5.8 2.9 -32 0.2 c-28.5 0.2 -32.6 0 -37.2 -1.5z m37.5 -110.9 c-0.3 -53.3 -0.5 -60.8 -1.8 -60.8 -1.3 0 -1.5 7.5 -1.8 60.8 -0.2 60.3 -0.2 60.7 1.8 60.7 2 0 2 -0.4 1.8 -60.7z"/>
  <path d="M731.5 204.2 c-5.2 -1.7 -8.5 -6 -8.5 -11 0 -2 1.4 -5.9 3.5 -9.6 l3.5 -6.3 0 -59.6 c0 -32.9 -0.3 -59.7 -0.6 -59.7 -0.4 0 -3 1.4 -5.8 3.1 -6.2 3.9 -11.2 4.7 -15.4 2.5 -5.9 -3 -6.3 -5.3 -6 -29.2 l0.3 -21.6 3.2 -2.8 c2 -1.8 4.8 -3.1 7.5 -3.5 2.4 -0.3 23 -0.5 45.8 -0.3 45.1 0.3 45.7 0.4 48.6 5.9 1.1 2.2 1.4 7.7 1.4 24.5 l0 21.6 -3.4 3.4 c-4.6 4.6 -8.8 4.6 -17.3 -0.1 l-6.3 -3.6 0 60.7 0 60.7 3.1 5.1 c3.6 5.8 4.1 11.1 1.5 15.2 -3.2 4.8 -6.5 5.4 -30.8 5.3 -12.3 -0.1 -23.2 -0.4 -24.3 -0.7z"/>
  <path d="M831.3 203.5 c-7.2 -3.1 -8.6 -11 -3.4 -19.4 l3.1 -5.1 0 -73.5 0 -73.5 -3.1 -5 c-4.8 -7.8 -4 -14.6 2 -18.7 2.4 -1.6 6.7 -1.8 49.7 -2.1 52.2 -0.3 53.1 -0.2 57.1 5.7 2.2 3.3 2.3 4.2 2.3 23.3 0 22.2 -0.7 25.6 -5.9 28.2 -4.6 2.5 -8.7 1.9 -15.2 -1.9 l-6 -3.5 -14.5 0 -14.4 0 0 5.5 0 5.5 7.8 0 c7 0 8.3 -0.3 12.7 -3.1 6.4 -4.1 11 -4.6 15.3 -1.9 5.6 3.5 6.2 6.3 6.2 31 0 23.2 -0.5 26.5 -4.7 30.3 -4 3.5 -8.5 3.3 -15.7 -0.7 -5.8 -3.3 -7.2 -3.6 -14 -3.6 l-7.6 0 0 16 0 16 14.6 0 14.6 0 6.2 -3.5 c6.9 -3.9 10.2 -4.3 14.7 -1.9 5.2 2.6 5.9 6.1 5.9 28.1 0 18.1 -0.2 20.1 -2 23.1 -3.8 6.2 -4 6.2 -55.7 6.2 -37.5 -0.1 -47.4 -0.4 -50 -1.5z"/>
  <path d="M962.4 204.3 c-1.2 -0.2 -3.4 -1.8 -5 -3.4 -4.1 -4.3 -4 -10.5 0.4 -17.5 l3.2 -5.1 0 -72.6 0 -72.6 -3.2 -5.3 c-4.5 -7.5 -4.6 -13.8 -0.1 -17.8 2 -1.8 4.8 -3.1 7.5 -3.5 2.4 -0.4 22.1 -0.5 43.8 -0.3 39.2 0.3 39.5 0.3 44.3 2.7 5.7 2.8 12.3 10 13.7 15 0.6 2 1 16.3 1 32.7 l0 29.1 -2.5 4.7 -2.5 4.7 2.5 4.3 2.5 4.3 0 36.7 0 36.8 3.5 6.2 c4.5 8.1 4.7 13.1 0.7 17.4 -3.8 4.1 -7.1 4.4 -33.7 3.8 -12.1 -0.2 -22.9 -0.5 -24 -0.4 -1.1 0 -12.8 0.1 -26 0.2 -13.2 0.2 -25 0.1 -26.1 -0.1z m54.6 -55 c0 -27.6 0 -28.3 -2 -28.3 -2 0 -2 0.7 -2 28.4 0 15.6 0.3 29.2 0.7 30.2 0.6 1.6 0.7 1.6 2 -0.2 1 -1.4 1.3 -8 1.3 -30.1z"/>
  <path d="M1186.2 203.3 c-7 -3.4 -7.9 -10.4 -2.7 -19.7 l3.5 -6.3 0 -71.7 0 -71.8 -3.5 -6.2 c-4.3 -7.7 -4.6 -12.2 -0.9 -16.5 1.4 -1.7 4.2 -3.6 6.2 -4.1 2.5 -0.8 17.1 -1 44.2 -0.8 l40.5 0.3 6 3 c6.7 3.4 11.8 9.2 13.5 15.6 0.7 2.5 1 14.6 0.8 33.2 l-0.3 29.4 -2.7 3.5 -2.7 3.5 2.7 3.8 2.7 3.8 0.3 37.8 0.3 37.9 3.4 5.9 c4.6 7.9 4.7 11.9 0.1 16.9 l-3.4 3.7 -24.9 -0.1 c-13.6 0 -26.1 -0.1 -27.8 -0.2 -1.6 0 -14 0.1 -27.5 0.3 -21.2 0.4 -24.9 0.2 -27.8 -1.2z m55.8 -52.9 c0 -25.5 -0.2 -29.4 -1.5 -29.4 -1.3 0 -1.5 3.9 -1.5 29.3 0 16.2 0.3 29.7 0.6 30 2 2 2.4 -3.1 2.4 -29.9z"/>
  <path d="M1323.3 203.5 c-7.2 -3.1 -8.6 -11 -3.4 -19.4 l3.1 -5.1 0 -73.5 0 -73.5 -3.1 -5.1 c-3.6 -5.7 -4.1 -11.1 -1.5 -15.1 3.5 -5.3 3.5 -5.3 49.5 -5.3 37.9 0 43 0.2 46.3 1.7 6.2 2.8 10.3 6.5 13.4 12 l2.9 5.3 0 38 0 38 -2.7 5.1 c-6.2 11.7 -13 14.4 -36.5 14.4 l-16.3 0 0 28.2 0 28.1 3.5 6.3 c5.3 9.4 4.2 16.4 -2.9 19.8 -4.6 2.2 -47.3 2.3 -52.3 0.1z"/>
 </g>
 <g fill="#ed0013">
  <path d="M1526.8 214.4 l-9.8 -5.6 0 -9.4 0 -9.3 -25.1 -0.3 -25.1 -0.3 -2.9 -3.3 -2.9 -3.2 0 -77.5 0 -77.5 2.9 -3.2 2.9 -3.3 29.9 -0.3 c16.4 -0.2 31.3 0 33.2 0.3 1.8 0.4 4.4 1.7 5.7 3 2.4 2.4 2.4 2.5 2.4 25.3 0 26.9 0.5 25.6 -11.8 32.4 -4.2 2.4 -8 4.4 -8.4 4.6 -0.5 0.2 -0.8 -9.6 -0.8 -21.7 l0 -22.1 -17 0 -17 0 0 62.5 0 62.5 17 0 17 0 0 -18.5 0 -18.4 -6.5 -3.6 c-3.6 -2 -6.7 -4 -6.9 -4.4 -0.5 -0.7 32.2 -20.1 33.7 -20.1 0.4 0 0.7 26.3 0.7 58.5 -0.1 32.2 -0.4 58.5 -0.8 58.5 -0.4 -0.1 -5.1 -2.6 -10.4 -5.6z"/>
  <path d="M27.9 187.7 c-1.8 -1.2 -3.9 -3.4 -4.6 -4.7 -1 -1.9 -1.3 -19.5 -1.3 -77.5 0 -73.5 0 -75.1 2 -78.3 3.7 -6 5.8 -6.3 38.3 -6 26.2 0.3 29.5 0.5 31.9 2.1 3.9 2.7 5.5 7.2 5.7 16.1 0.1 8.7 0.7 8.3 -7.4 5.2 -5.6 -2.1 -37 -2.2 -42 -0.2 -6.6 2.8 -6.5 1.6 -6.5 61.1 0 58.9 -0.1 57.8 6.1 61 4.6 2.4 39.9 1.8 44.8 -0.7 1.9 -1 3.8 -1.8 4.3 -1.8 1.7 0 0.3 17.6 -1.6 20.5 -3.4 5.1 -6 5.5 -37.4 5.5 -28.4 0 -29 0 -32.3 -2.3z m6.1 -56.9 c0 -17.8 -0.3 -21.8 -1.4 -21.8 -0.7 0 -1.6 1.4 -2 3.1 -0.8 4.1 -0.8 31.9 0.1 38.8 0.5 4.8 0.8 5.2 2 3.6 1 -1.4 1.3 -7 1.3 -23.7z"/>
  <path d="M152.4 189 c-1.1 -0.4 -3.3 -2.2 -4.7 -4 l-2.7 -3.2 0 -76.2 0 -76.3 2.2 -2.8 c4 -5.2 6.3 -5.5 36.3 -5.5 30 0 32.3 0.3 36.3 5.5 l2.2 2.8 0 76.2 c0 75.8 0 76.2 -2.1 78.9 -4.3 5.4 -5.4 5.6 -36.6 5.5 -15.8 0 -29.7 -0.4 -30.9 -0.9z m61.7 -74.3 c-0.6 -2.2 -0.9 3.6 -1 18.9 -0.1 23 -0.6 28.8 -2.4 27.7 -0.7 -0.4 -0.8 0 -0.4 1.1 0.4 1 0.7 2.3 0.7 2.9 0 0.7 0.4 0.6 1 -0.3 0.7 -1.2 1.1 -0.7 1.7 2 0.5 2.1 0.9 -7.2 1.1 -22.8 0.1 -14.5 -0.2 -27.7 -0.7 -29.5z m-19.8 52.2 c1.2 -0.6 3 -2.1 3.9 -3.3 1.6 -1.9 1.8 -6.5 1.8 -57.3 0 -39.2 -0.3 -55.9 -1.1 -57.7 -1.8 -3.8 -6.6 -5.6 -15.3 -5.6 -8.5 0 -13.8 1.7 -15.6 4.9 -1.4 2.8 -1.4 112.4 0 115.2 1.9 3.5 6.1 4.8 15.3 4.9 4.9 0 9.8 -0.5 11 -1.1z m-37.2 -13.8 l0.2 -3.6 0.6 3.5 c1.5 8.3 2.2 -0.5 2 -23.5 -0.2 -13.5 -0.6 -23.9 -1.1 -23.3 -0.4 0.7 -0.9 10.3 -1 21.3 l-0.3 20 -0.2 -17.6 c-0.3 -16.6 -0.5 -17.7 -2.3 -18.2 -1.9 -0.5 -2 0.1 -2 20.8 0 11.7 0.3 22.7 0.7 24.5 0.6 3.1 0.7 3.2 2 1.5 0.7 -1.1 1.4 -3.5 1.4 -5.4z m53.4 2.9 c2.2 -4.3 2.2 -41 0 -41 -0.8 0 -1.5 -0.8 -1.5 -1.7 0 -0.9 -0.3 -1.3 -0.7 -0.9 -1 1 -1 46.6 -0.1 46.6 0.4 0 1.4 -1.3 2.3 -3z"/>
  <path d="M270 189.3 c0 -0.5 0.9 -2.1 2 -3.8 1.9 -2.9 2 -4.8 2 -79.7 0 -74.9 0 -76.8 -2 -80 -1.1 -1.8 -2 -3.6 -2 -4 0 -0.5 6.8 -0.8 15 -0.8 11.6 0 15 0.3 15 1.3 0 0.7 -0.4 1.7 -0.9 2.3 -0.6 0.6 31.4 105.4 37 121.1 0.2 0.7 8.9 -25.9 19.2 -59.1 13.9 -44.5 18.7 -60.9 18.2 -62.9 l-0.7 -2.7 15.1 0 c8.3 0 15.1 0.3 15.1 0.6 0 0.4 -0.9 2.2 -2 4 -2.1 3.2 -2.1 4.4 -2 79.8 0 54.3 -0.3 76.6 -1 76.6 -0.6 0 -0.8 0.5 -0.5 1.1 0.4 0.6 1 0.8 1.3 0.5 0.5 -0.5 4.2 4.7 4.2 5.9 0 0.3 -6.7 0.5 -15 0.5 -10.5 0 -15 -0.3 -15 -1.1 0 -0.7 0.9 -2.6 1.9 -4.3 1.8 -2.8 2 -5.6 2.3 -29.6 0.3 -14.6 0.8 -27.4 1.2 -28.5 0.6 -1.6 0.6 -1.7 -0.3 -0.5 -0.8 1.1 -1.1 -0.7 -1.1 -7.1 0 -7 -0.3 -8.8 -1.6 -9.3 -3.5 -1.3 -5.2 -0.6 -6.3 2.7 -0.5 1.7 -5.5 17.8 -11.1 35.7 -5.6 17.9 -10.8 34.7 -11.6 37.3 l-1.6 4.8 -8.5 -0.3 -8.5 -0.3 -12.6 -40.2 c-13.1 -42 -12.9 -41.5 -17.6 -39.7 -1.3 0.5 -1.6 2.3 -1.6 9.4 0 4.9 -0.4 9.2 -1 9.5 -0.5 0.3 -1 1.6 -1 2.8 0 1.6 0.3 1.8 0.9 0.9 0.5 -0.8 0.9 9.3 1 23.3 0.1 17.1 -0.2 25.1 -0.9 26 -0.9 1.1 -0.7 1.9 1 3.7 2.2 2.2 2.2 2.2 1.1 0.1 -1.9 -3.6 -1.2 -4 0.9 -0.5 1.1 1.8 2 3.7 2 4.2 0 0.6 -5.9 1 -15 1 -8.2 0 -15 -0.3 -15 -0.7z m115.1 -11.2 c0 -2.4 0.1 -2.4 0.9 -0.6 0.5 1.2 0.9 -3.5 0.9 -12.5 0.1 -8 0.4 -20.1 0.7 -27 0.6 -12.4 0.6 -12.5 -1.7 -13.5 l-2.4 -1.1 0.3 26.9 c0.2 14.9 0 28.2 -0.4 29.6 l-0.7 2.6 -0.7 -3 c-0.7 -2.9 -0.8 -2.9 -0.9 0.9 -0.1 3.8 -0.1 3.9 1.9 2.1 1.1 -1 2 -3 2.1 -4.4z m-101 -17.8 c0 -11.5 0.2 -24.5 0.6 -28.9 0.4 -5.5 0.2 -8.4 -0.6 -8.8 -1.7 -1.1 -1.3 -3.6 0.5 -3.6 1.8 0 1.5 -3.1 -0.3 -3.7 -2.7 -0.9 -3.3 5.4 -3.3 35.3 0 26.6 0.2 30.4 1.5 30.4 1.4 0 1.6 -2.8 1.6 -20.7z"/>
  <path d="M454.3 188.3 c0.3 -1 1.3 -3.6 2.1 -5.8 2.3 -6 2.3 -148 0 -154 -3.2 -8.4 -6.9 -7.5 33 -7.5 38.3 0 40.6 0.3 44 5.1 1.4 2.1 1.6 6.6 1.6 37.7 l0 35.4 -3.4 3.4 -3.4 3.4 -24.1 0 -24.1 0 0 37.8 c0 35.8 0.1 38 2 41.7 1.1 2.2 2 4.1 2 4.2 0 0.2 -6.8 0.3 -15.1 0.3 -14 0 -15.1 -0.1 -14.6 -1.7z m11.8 -9.2 c0.6 1 0.9 0.1 0.9 -2.8 0 -2.4 0.3 -4.3 0.8 -4.3 1.1 0 0.2 -26.3 -1 -27.7 -0.7 -0.9 -0.6 -1.4 0.6 -1.9 1.4 -0.5 1.6 -2.6 1.6 -14 0 -12.1 -0.2 -13.6 -2 -15.4 l-2 -2 0 29.9 c0 16.4 -0.2 32.5 -0.4 35.7 -0.2 3.2 -0.2 4.8 0.1 3.5 0.4 -1.9 0.7 -2.1 1.4 -1z m5.1 -18.1 c-0.2 -13.4 0.1 -20 0.8 -20 0.6 0 1 -3.9 1 -10.5 0 -8.6 -0.3 -10.5 -1.5 -10.5 -1.2 0 -1.5 4.4 -1.7 30.5 -0.2 19.9 0 30.5 0.7 30.5 0.6 0 0.9 -7.1 0.7 -20z m38.4 -80.4 l3.4 -3.4 0 -13.4 c0 -19.4 -1.4 -20.8 -20.8 -20.8 l-12 0 -0.3 3.8 c-0.2 2 -0.3 11.2 -0.1 20.5 l0.3 16.7 13 0 13.1 0 3.4 -3.4z"/>
  <path d="M592.2 188 c-1.8 -1.1 -3.7 -3.2 -4.2 -4.6 -0.6 -1.5 -1 -31.3 -1 -77.7 0 -72.8 -0.1 -75.3 -2 -79.6 -1.1 -2.4 -2 -4.5 -2 -4.7 0 -0.2 6.8 -0.4 15 -0.4 9.7 0 15 0.4 15 1 0 0.6 -0.8 2.3 -1.7 3.7 -1.7 2.5 -1.8 7.6 -1.8 69.5 l0 66.8 2.8 2.7 c2.7 2.7 3.1 2.8 13.7 2.8 10.6 0 11 -0.1 13.7 -2.8 l2.8 -2.7 0 -66.3 c0 -61.1 -0.1 -66.5 -1.7 -69.6 -1 -1.9 -1.8 -3.8 -1.8 -4.3 0 -0.4 6.8 -0.8 15 -0.8 8.3 0 15 0.2 15 0.5 0 0.3 -0.9 2.4 -2 4.5 -2 3.9 -2 5.6 -2 79.5 0 83 0.3 79.8 -6 83 -2.4 1.2 -8.1 1.5 -33.2 1.5 -28.5 0 -30.5 -0.1 -33.6 -2z"/>
  <path d="M741 189.1 c0 -0.5 0.9 -2.8 2 -5.2 1.9 -4.2 2 -6.8 2 -72.8 l0 -68.3 -10.3 0.4 c-7.6 0.2 -11 0.8 -13 2.1 -1.4 0.9 -3.1 1.7 -3.7 1.7 -0.6 0 -1 -4.7 -1 -13 l0 -13 38.5 0 38.5 0 0 13.1 c0 12.1 -0.1 13.1 -1.7 12.4 -6.5 -2.8 -9.7 -3.4 -17 -3.5 l-8.3 0 0 3.8 c0 2 0 33.1 0 69 0 68.1 -0.1 65.9 3.8 73.5 0.2 0.4 -6.4 0.7 -14.7 0.7 -8.3 0 -15.1 -0.4 -15.1 -0.9z m24.8 -15.9 c0.4 -12.7 -0.9 -64.5 -1.6 -63.8 -0.6 0.7 -0.3 71.7 0.4 72.8 0.3 0.4 0.6 0.8 0.7 0.8 0.1 0 0.3 -4.4 0.5 -9.8z"/>
  <path d="M842 189.5 c0 -0.2 0.9 -1.9 2 -3.7 1.9 -3.2 2 -5.1 2 -79.8 0 -74.6 -0.1 -76.7 -2 -80.5 -1.1 -2.2 -2 -4.1 -2 -4.2 0 -0.2 18.5 -0.3 41 -0.3 l41 0 0 13 c0 8.3 -0.4 13 -1 13 -0.6 0 -2.3 -0.8 -3.7 -1.7 -2.4 -1.6 -5.9 -1.8 -27 -2.1 l-24.3 -0.3 0 20.5 0 20.6 16.3 0 c14 0 16.8 -0.3 20.6 -2 2.4 -1.1 4.5 -2 4.7 -2 0.9 0 0.1 17.6 -0.8 18.8 -0.7 0.8 -0.7 1.2 0.1 1.2 0.7 0 1.1 2 1.1 5 0 2.8 -0.2 5 -0.4 5 -0.2 0 -2.3 -0.9 -4.7 -2 -3.8 -1.7 -6.6 -2 -20.6 -2 l-16.3 0 0 31 0 31 23.3 0 c20.9 0 23.6 -0.2 27.6 -2 2.4 -1.1 4.5 -2 4.7 -2 0.2 0 0.4 2.5 0.4 5.6 0 4.2 -0.5 6 -1.7 7 -1.7 1.3 -1.7 1.4 0 0.8 1.5 -0.5 1.7 0.1 1.7 6 l0 6.6 -41 0 c-22.5 0 -41 -0.2 -41 -0.5z m15.7 -44.2 l0 -23.8 -0.6 20.7 c-0.3 11.3 -0.9 21 -1.3 21.4 -0.5 0.4 -0.9 -6 -1 -14.2 l-0.2 -14.9 -0.6 14 c-0.5 13.6 -0.5 13.3 -1 -10 l-0.6 -24 0 26.6 c0.1 21.1 0.4 26.9 1.5 28.3 3.2 3.8 3.7 0.3 3.8 -24.1z"/>
  <path d="M972 189.6 c0 -0.2 0.9 -2.3 2 -4.7 1.9 -4.3 2 -6.8 2 -79.4 0 -73.1 -0.1 -75.2 -2 -79 -1.1 -2.2 -2 -4.3 -2 -4.7 0 -0.4 16.2 -0.8 36.1 -0.8 30 0 36.6 0.3 39.3 1.5 5.9 2.8 6.1 3.5 6.4 32.3 0.3 23.1 0.1 26.7 -1.3 28.9 -1.9 2.9 -10.8 7.3 -14.7 7.3 -2.5 0 -2.8 0.4 -2.8 3.5 0 3.4 0.1 3.5 6.1 5.2 3.9 1.1 7.4 2.9 9.5 4.9 l3.4 3.1 0 37.4 c0 35.6 0.1 37.6 2 40.7 1.1 1.8 2 3.5 2 3.7 0 0.3 -7 0.5 -15.5 0.5 l-15.5 0 2.2 -4.2 c2.2 -4.2 2.3 -5.2 2.6 -36.3 0.2 -17.6 0 -33.5 -0.3 -35.4 -0.4 -1.8 -1.7 -4.4 -3 -5.7 -2.3 -2.3 -3 -2.4 -16.5 -2.4 l-14 0 0 37.5 c0 35.6 0.1 37.8 2 41.5 1.1 2.2 2 4.2 2 4.5 0 0.3 -6.7 0.5 -15 0.5 -8.2 0 -15 -0.2 -15 -0.4z m78 -38.1 c0 -19.9 -0.4 -30.5 -1 -30.5 -0.7 0 -1 10.4 -1 29.9 0.1 26.5 0.3 31.1 1.7 31.1 0.2 0 0.3 -13.7 0.3 -30.5z m-23 -69 c4.2 -2.2 5.2 -6.8 4.8 -21.2 -0.3 -11.9 -0.4 -12.4 -3.1 -15 -2.7 -2.8 -3 -2.8 -16.7 -3.1 l-14 -0.4 0 20.6 0 20.6 13 0 c9.7 0 13.9 -0.4 16 -1.5z"/>
  <path d="M1199.2 185.8 l2.3 -4.3 0 -76 0 -76 -2.3 -4.3 -2.3 -4.3 38.1 0.3 38.2 0.3 2.9 3.3 2.9 3.2 0 28 0 27.9 -3.7 2.6 c-2.1 1.4 -6.1 3.2 -8.9 4.1 -3.7 1 -5.3 2.1 -5.7 3.5 -0.6 2.4 0.2 5.1 1.3 4.4 1 -0.6 11 3.2 14 5.4 l2.5 1.8 0.5 37.9 c0.4 33.6 0.7 38.3 2.3 41.1 0.9 1.8 1.7 3.7 1.7 4.3 0 0.6 -5.2 1 -15 1 -8.2 0 -15 -0.1 -15 -0.3 0 -0.1 0.9 -2 2 -4.2 1.9 -3.7 2 -5.9 2 -39.1 l0 -35.2 -3.1 -2.6 c-3 -2.5 -3.5 -2.6 -16.5 -2.6 l-13.4 0 0 37.8 c0 35.8 0.1 38 2 41.7 1.1 2.2 2 4.1 2 4.2 0 0.2 -7 0.3 -15.5 0.3 l-15.5 0 2.2 -4.2z m75.7 -32.5 c-0.1 -18.6 -0.5 -27.7 -1 -24.3 -0.8 6.3 -1.1 50.4 -0.2 52.6 0.3 0.8 0.7 1.4 0.9 1.4 0.2 0 0.3 -13.4 0.3 -29.7z m-54.9 -6.6 c0 -16.4 -0.4 -29.6 -0.8 -29.3 -0.5 0.3 -0.9 14.4 -1 31.3 -0.2 20.9 0.1 30.3 0.8 29.3 0.6 -0.9 1 -13 1 -31.3z m33.9 -65.3 l3.1 -2.6 0 -14.8 c0 -14.3 -0.1 -15 -2.4 -17.7 -2.4 -2.8 -2.5 -2.8 -16.5 -3.1 l-14.1 -0.4 0 20.6 0 20.6 13.4 0 c13 0 13.5 -0.1 16.5 -2.6z"/>
  <path d="M1334 189.7 c0 -0.1 0.9 -2 2 -4.2 1.9 -3.8 2 -5.9 2 -80 0 -74.1 -0.1 -76.1 -2 -79.8 -1.1 -2 -2 -3.9 -2 -4.2 0 -0.3 16.2 -0.5 36 -0.5 39.7 0 41.5 0.2 44.4 5.9 1.4 2.5 1.6 8.1 1.6 37.5 l0 34.6 -2.9 3.2 -2.9 3.3 -25.2 0.3 -25.1 0.3 0.3 37.7 c0.3 37 0.3 37.8 2.6 42 l2.2 4.2 -15.5 0 c-8.5 0 -15.5 -0.1 -15.5 -0.3z m57.1 -109.5 c2.9 -3.2 2.9 -3.3 2.9 -15.8 0 -19.7 -1.7 -21.4 -22 -21.4 l-12 0 0 20.6 0 20.6 14.1 -0.4 14.1 -0.3 2.9 -3.3z"/>
 </g>
 <g fill="#847579">
 </g>
 <g fill="#ffe9ec">
  <path d="M1521.7 228.3 c-10.4 -6 -17.4 -10.8 -18.3 -12.3 -0.7 -1.4 -1.3 -4.4 -1.4 -6.7 l0 -4.1 -18.2 -0.4 c-20.1 -0.4 -22.5 -1 -29.2 -6.8 -2 -1.8 -4.7 -5.2 -5.9 -7.4 l-2.2 -4.1 0 -81 0 -81 2.2 -4 c2.6 -5 6.5 -8.6 12.3 -11.6 4.5 -2.4 4.7 -2.4 38 -2.4 30 0 34 0.2 38.2 1.8 5.8 2.2 12.9 9.8 14.6 15.5 0.8 2.5 1.2 12.2 1.2 27.5 l0 23.5 -2.9 5.6 -3 5.6 3 2.9 2.9 2.9 0 69.6 0 69.6 -2.8 3.1 c-2.1 2.3 -3.8 3.2 -7.2 3.6 -4.2 0.4 -5.5 -0.2 -21.3 -9.4z m23.1 0.5 c1.7 -1.7 1.7 -132.9 0 -134.6 -0.7 -0.7 -2 -1.2 -3 -1.2 -1.9 0 -46.1 25 -48.7 27.5 -2.4 2.3 -0.3 4.9 7.6 9.5 l7.8 4.5 0.3 13.3 0.3 13.2 -9.6 0 -9.5 0 0 -55 0 -55 9.5 0 9.5 0 0 21.1 c0 21.7 0.5 24.9 4 24.9 1 0 7 -3 13.2 -6.6 20 -11.6 19.3 -10.2 19.3 -40.5 l0 -23.5 -2.7 -4.1 c-1.6 -2.5 -4.4 -4.9 -7.2 -6.2 -4.3 -2.1 -5.3 -2.2 -37.4 -1.9 l-32.9 0.3 -3.7 2.9 c-2.1 1.5 -4.6 4.2 -5.7 6 -1.8 3 -1.9 6.1 -1.9 81.9 0 85.7 -0.3 81.3 5.7 86.9 4.6 4.4 7.2 4.8 28.8 4.8 l20.4 0 0.3 7.7 0.3 7.8 15 8.7 c14.9 8.7 18 9.9 20.3 7.6z m-41.9 -123.1 l4 -2.3 -2.2 -2.2 c-2.1 -2.2 -2.2 -3.1 -2.5 -22.7 -0.3 -19.4 -0.4 -20.5 -2.2 -20.5 -1.8 0 -1.9 1.2 -2.2 24.6 -0.3 21.8 -0.2 25.4 0.8 25.4 0.1 0 2 -1 4.3 -2.3z"/>
  <path d="M27.5 203.6 c-8.9 -2.8 -13.4 -6.6 -17.6 -14.6 l-2.4 -4.5 -0.3 -76.4 c-0.3 -84.6 -0.4 -82.7 6.1 -91.3 2 -2.7 5.5 -5.4 9.2 -7.3 l5.9 -3 32 0 c31.6 0 32.2 0 37.3 2.4 5.9 2.6 12.3 9 15 14.8 1.4 3.1 1.7 6.7 1.8 19.1 l0 15.4 -3.7 3.4 c-5 4.5 -9 4.5 -17.2 -0.1 l-6.3 -3.5 -14.1 0 -14.2 0 0 47.5 0 47.5 14.6 0 14.7 0 5.1 -3.2 c9.4 -5.9 17.8 -3.9 20.7 5 1.9 5.7 0.7 27.7 -1.8 33.3 -2.6 5.8 -8.3 11.6 -14.2 14.3 -4.3 2 -6.3 2.1 -35.6 2.3 -22.8 0.1 -32.1 -0.2 -35 -1.1z m68.6 -8.9 c2.4 -1.3 5.8 -4.3 7.4 -6.6 2.9 -4.1 3 -4.8 3.4 -16.7 0.1 -6.8 0 -13.6 -0.3 -14.9 -0.9 -3.5 -4.4 -3.2 -10.8 0.8 l-5.3 3.2 -18.1 0.3 c-15.8 0.3 -18.3 0.1 -19.8 -1.3 -1.4 -1.5 -1.6 -6.7 -1.6 -53.5 0 -28.5 0.3 -52.5 0.6 -53.4 0.5 -1.4 3.2 -1.6 19.7 -1.6 l19 0 5.5 3.1 c3.2 1.8 6.4 2.9 8 2.7 l2.7 -0.3 0 -14.5 c0 -14.2 -0.1 -14.6 -2.8 -18.8 -2 -3.1 -4.3 -5.1 -8 -6.8 -5.1 -2.3 -5.6 -2.4 -35 -2.4 -24.6 0 -30.4 0.3 -33.5 1.5 -4.9 2.1 -8.1 5.2 -10.3 10 -1.8 3.8 -1.9 8.2 -1.9 79.8 0 66.2 0.2 76.2 1.5 79.5 2.1 4.9 5.2 8.1 10 10.3 3.6 1.7 7 1.9 34.6 1.9 30.1 0 30.7 0 35 -2.3z"/>
  <path d="M149.2 203.3 c-6.2 -1.9 -13.3 -7.8 -16.5 -13.7 l-2.2 -4.1 0 -80 0 -80 2.7 -4.5 c3.5 -6 7.2 -9.4 13.3 -12.2 4.9 -2.2 5.7 -2.3 37 -2.3 l32 0 5.7 2.8 c3.2 1.6 7.3 4.6 9.2 6.9 6.8 7.9 6.6 4.9 6.6 89.3 0 85.1 0.3 81.5 -7 89.8 -2.3 2.5 -6.2 5.4 -9.2 6.8 -5.2 2.3 -6 2.4 -35.8 2.6 -25.4 0.2 -31.4 -0.1 -35.8 -1.4z m68.3 -8.2 c4.7 -2.2 8.9 -6.4 10.4 -10.4 1.5 -3.9 1.5 -154.5 0 -158.4 -1.5 -4 -5.7 -8.2 -10.4 -10.4 -3.6 -1.7 -6.9 -1.9 -34 -1.9 -26.9 0 -30.4 0.2 -34 1.9 -5.2 2.3 -10.2 8.1 -11.2 12.8 -1 4.8 -1.1 150.9 0 154.5 1.1 4 6.6 9.8 11.2 11.9 3.6 1.7 7.1 1.9 34 1.9 27.1 0 30.4 -0.2 34 -1.9z"/>
  <path d="M175.3 160.3 c-1 -0.4 -1.3 -12.3 -1.3 -54.8 l0 -54.4 8.5 -0.3 c4.7 -0.2 9 -0.1 9.5 0 0.6 0.2 1 20.2 1 54.7 0 48.6 -0.2 54.3 -1.6 54.9 -1.8 0.7 -14.3 0.7 -16.1 -0.1z m9.7 -54.8 c0 -46.8 0 -47.5 -2 -47.5 -2 0 -2 0.7 -2 47.5 0 46.8 0 47.5 2 47.5 2 0 2 -0.7 2 -47.5z"/>
  <path d="M259.3 203.6 c-7.3 -3.3 -8.7 -11 -3.5 -19.4 l3.2 -5.2 0 -73 0 -72.9 -3.7 -7.1 c-3.6 -7 -3.7 -7.2 -2.3 -11.2 2.8 -7.8 4.2 -8.3 28.3 -8.6 25.4 -0.4 29.1 0 32.8 3.8 3.9 3.9 4.5 7.3 2.4 13.5 l-1.7 5.2 10.2 32.9 c5.7 18.1 10.6 33.5 11 34.2 0.3 0.7 5.5 -14.3 11.5 -33.3 l10.8 -34.7 -1.7 -3.4 c-2.4 -5.1 -2.1 -9.7 1 -13.3 4 -4.8 7.5 -5.3 32.4 -4.9 19.5 0.3 22.8 0.5 25.1 2.1 6 4.1 6.8 10.9 2 18.7 l-3.1 5 0 73.7 0 73.6 3.1 5.1 c3.6 5.8 4.1 11.1 1.5 15.2 -3.2 4.8 -6.6 5.4 -29.9 5.4 -23.6 0 -26.6 -0.3 -29.6 -3.1 -2.1 -1.9 -2.1 -1.9 -5.2 0.3 -2.9 2.2 -4 2.3 -17.9 2.3 -14.3 0 -14.9 -0.1 -17.4 -2.4 l-2.6 -2.4 -2.6 2.4 c-2.5 2.4 -2.7 2.4 -26.7 2.6 -19.1 0.2 -24.9 0 -27.4 -1.1z m49.1 -7.2 c2.5 -0.9 1.9 -4.2 -1.9 -11 l-3.5 -6.3 0.2 -21.7 0.3 -21.6 9.5 30.3 9.5 30.4 13.2 0.3 c12.8 0.2 13.3 0.2 14.6 -2 0.8 -1.3 5.2 -14.5 9.8 -29.5 4.6 -14.9 8.5 -27 8.7 -26.8 0.2 0.2 0.3 9.8 0.2 21.5 0 16.1 -0.4 21.7 -1.4 23.3 -4.1 6.5 -5.5 10 -4.5 11.9 0.9 1.7 2.6 1.8 24.2 1.8 28.6 0 28.6 0 22.2 -10.7 l-3.5 -5.8 0 -74.8 0 -74.9 3.5 -5.9 c6.4 -10.9 6.4 -10.9 -21.5 -10.9 -12.4 0 -23 0.4 -23.6 0.8 -2.2 1.5 -2.2 4 0 7.8 l2.2 3.9 -12.8 41 c-7 22.6 -13.7 44.1 -14.9 47.8 -1.1 3.8 -2.3 6.6 -2.6 6.3 -0.3 -0.3 -7.2 -21.8 -15.4 -47.8 l-14.8 -47.3 2 -3.3 c1 -1.8 1.9 -4.1 1.9 -5.1 0 -3.8 -1.6 -4.1 -25 -4.1 -27.9 0 -28 0.1 -21.5 11.1 l3.5 6 0 74.7 -0.1 74.7 -3.4 5.5 c-6.9 10.7 -6.2 11 21.1 11 12.2 0 22.9 -0.3 23.8 -0.6z"/>
  <path d="M442.2 203.3 c-7 -3.4 -7.9 -10.4 -2.7 -19.7 l3.5 -6.3 0 -71.7 0 -71.8 -3.5 -6.2 c-4.1 -7.4 -4.5 -12.1 -1.3 -16.1 4.2 -5.4 5.5 -5.5 47.2 -5.5 23.9 0 40.4 0.4 43.6 1.1 6.8 1.5 13.8 6.4 17.5 12.3 l3 4.9 0.3 37.8 c0.3 37 0.2 37.9 -1.9 42.9 -2.8 6.5 -9.6 12.5 -16.2 14.5 -3.6 1.1 -9.8 1.5 -20.9 1.5 l-15.8 0 0 29.1 0 29.2 3.1 5.1 c5.2 8.4 3.7 16.1 -3.5 19.1 -5.2 2.2 -47.9 2 -52.4 -0.2z m50.6 -7.5 c1.8 -1.8 1.5 -3.2 -2.3 -9.5 l-3.5 -5.8 0 -33.7 0 -33.8 20.4 0 c21.7 0 24.3 -0.4 28.9 -4.8 5.8 -5.4 5.7 -5 5.7 -44.7 0 -39.2 0 -39.4 -5.2 -44.2 -5.5 -5.2 -6.7 -5.3 -50 -5.3 -22.2 0 -40.8 0.4 -41.4 0.8 -2.3 1.5 -2 3.9 1.2 9.9 l3.4 6.1 0 75.1 0 75.1 -2.5 4.1 c-3.6 5.6 -4.5 8.2 -3.4 10.2 0.9 1.5 3.4 1.7 24.2 1.7 16.8 0 23.6 -0.3 24.5 -1.2z"/>
  <path d="M487 64 l0 -13.1 9.3 0.3 9.2 0.3 0.3 11.4 c0.2 7.5 -0.1 11.8 -0.9 12.7 -0.8 1 -3.6 1.4 -9.5 1.4 l-8.4 0 0 -13z"/>
  <path d="M590.3 203.2 c-7.1 -2.5 -11.3 -6 -14.8 -12.3 l-3 -5.4 -0.5 -77 -0.5 -77 -3.4 -6.3 c-3.4 -6.2 -3.5 -6.4 -2 -10.4 0.7 -2.3 2.7 -5.1 4.2 -6.2 2.7 -2 4 -2.1 26.5 -2 29.1 0.1 29.3 0.1 58.4 0 22.5 -0.1 23.8 0 26.5 2 1.5 1.1 3.4 3.9 4.2 6.2 1.5 4 1.4 4.2 -2.2 11.1 l-3.7 7 0 73.9 c0 80.9 0.1 79.6 -5.9 87.9 -1.9 2.6 -5 5.1 -8.8 6.9 l-5.8 2.9 -32 0.2 c-28.5 0.2 -32.6 0 -37.2 -1.5z m70.4 -7.7 c5 -2.1 7.2 -4.2 9.4 -9 1.7 -3.8 1.9 -8.4 1.9 -79.5 0 -73.8 0 -75.6 2 -79 4.9 -8.4 5.5 -10.1 4.4 -11.8 -1 -1.5 -3.7 -1.7 -23 -2 -12 -0.1 -22.9 0 -24.1 0.3 -3.3 0.8 -3 4.8 1 10.9 l3.2 5.1 0.3 63.9 c0.2 47 0 64.2 -0.9 65.2 -1.6 1.9 -16.2 2 -17.8 0 -0.8 -1 -1.1 -18.4 -0.9 -65.2 l0.3 -63.9 3.3 -5.3 c1.7 -2.9 3.2 -6.1 3.2 -7.1 0 -3.9 -1.9 -4.1 -25.5 -3.9 -27.5 0.4 -27 0.1 -21.2 10.7 l3.7 6.9 0 75.6 c0 72.3 0.1 75.8 1.9 79.4 2.3 4.5 4.6 6.6 9.1 8.6 5.2 2.3 64.4 2.3 69.7 0.1z m-32.9 -103.2 c-0.3 -53.3 -0.5 -60.8 -1.8 -60.8 -1.3 0 -1.5 7.5 -1.8 60.8 -0.2 60.3 -0.2 60.7 1.8 60.7 2 0 2 -0.4 1.8 -60.7z"/>
  <path d="M731.5 204.2 c-5.2 -1.7 -8.5 -6 -8.5 -11 0 -2 1.4 -5.9 3.5 -9.6 l3.5 -6.3 0 -59.6 c0 -32.9 -0.3 -59.7 -0.6 -59.7 -0.4 0 -3 1.4 -5.8 3.1 -6.2 3.9 -11.2 4.7 -15.4 2.5 -5.9 -3 -6.3 -5.3 -6 -29.2 l0.3 -21.6 3.2 -2.8 c2 -1.8 4.8 -3.1 7.5 -3.5 2.4 -0.3 23 -0.5 45.8 -0.3 45.1 0.3 45.7 0.4 48.6 5.9 1.1 2.2 1.4 7.7 1.4 24.5 l0 21.6 -3.4 3.4 c-4.6 4.6 -8.8 4.6 -17.3 -0.1 l-6.3 -3.6 0 60.7 0 60.7 3.1 5.1 c3.6 5.8 4.1 11.1 1.5 15.2 -3.2 4.8 -6.5 5.4 -30.8 5.3 -12.3 -0.1 -23.2 -0.4 -24.3 -0.7z m48.3 -8.4 c1.8 -1.8 1.5 -3.2 -2.3 -9.5 l-3.5 -5.8 0 -64.7 0 -64.8 5.6 0 c4.5 0 6.8 0.7 11.8 3.5 5.8 3.2 6.4 3.4 8.4 1.9 2.1 -1.5 2.2 -2.1 2.2 -20.4 0 -15.8 -0.3 -19.1 -1.6 -20.4 -1.4 -1.4 -6.8 -1.6 -44.8 -1.6 -32.3 0 -43.5 0.3 -44.4 1.2 -0.9 0.9 -1.2 6.9 -1.2 21 0 18.2 0.1 19.8 1.8 20.7 1.9 1 6.2 -0.7 11.7 -4.5 1.1 -0.8 4.5 -1.4 7.7 -1.4 l5.8 0 0 65.3 c0 36.5 -0.4 65.7 -0.9 66.3 -0.5 0.5 -2 3.1 -3.4 5.8 -2 3.7 -2.4 5.4 -1.6 6.8 0.9 1.7 2.6 1.8 24.2 1.8 16.8 0 23.6 -0.3 24.5 -1.2z"/>
  <path d="M831.3 203.5 c-7.2 -3.1 -8.6 -11 -3.4 -19.4 l3.1 -5.1 0 -73.5 0 -73.5 -3.1 -5 c-4.8 -7.8 -4 -14.6 2 -18.7 2.4 -1.6 6.7 -1.8 49.7 -2.1 52.2 -0.3 53.1 -0.2 57.1 5.7 2.2 3.3 2.3 4.2 2.3 23.3 0 22.2 -0.7 25.6 -5.9 28.2 -4.6 2.5 -8.7 1.9 -15.2 -1.9 l-6 -3.5 -14.5 0 -14.4 0 0 5.5 0 5.5 7.8 0 c7 0 8.3 -0.3 12.7 -3.1 6.4 -4.1 11 -4.6 15.3 -1.9 5.6 3.5 6.2 6.3 6.2 31 0 23.2 -0.5 26.5 -4.7 30.3 -4 3.5 -8.5 3.3 -15.7 -0.7 -5.8 -3.3 -7.2 -3.6 -14 -3.6 l-7.6 0 0 16 0 16 14.6 0 14.6 0 6.2 -3.5 c6.9 -3.9 10.2 -4.3 14.7 -1.9 5.2 2.6 5.9 6.1 5.9 28.1 0 18.1 -0.2 20.1 -2 23.1 -3.8 6.2 -4 6.2 -55.7 6.2 -37.5 -0.1 -47.4 -0.4 -50 -1.5z m98.6 -7.9 c0.8 -0.9 1.1 -7.4 0.9 -21.2 -0.3 -19.8 -0.3 -19.9 -2.6 -20.2 -1.2 -0.2 -4.8 1.2 -8 3 l-5.7 3.3 -19.5 0 -19.5 0 -0.3 -21.5 c-0.1 -11.8 0 -22.5 0.3 -23.7 0.5 -2.2 0.9 -2.3 12.1 -2.3 11.5 0 11.7 0 18.5 3.8 10.7 5.8 10.4 6.3 10.4 -21.8 0 -28.1 0.3 -27.6 -10.5 -21.7 l-6.9 3.8 -11.8 -0.3 -11.8 -0.3 -0.2 -12.7 -0.1 -12.7 19.1 -0.3 c21 -0.3 18.2 -0.8 30.6 5.8 1.7 0.9 3 1 4.3 0.3 1.6 -0.9 1.8 -2.6 1.8 -20.7 0 -14.1 -0.3 -20.1 -1.2 -21 -0.9 -0.9 -13 -1.2 -48.5 -1.2 l-47.3 0 -1.1 2.4 c-1 2.1 -0.6 3.3 2.5 8.4 l3.6 6 0 74.8 0 74.9 -3.5 5.8 c-3.8 6.3 -4.1 7.7 -2.3 9.5 1.9 1.9 95.1 1.7 96.7 -0.2z"/>
  <path d="M962.4 204.3 c-1.2 -0.2 -3.4 -1.8 -5 -3.4 -4.1 -4.3 -4 -10.5 0.4 -17.5 l3.2 -5.1 0 -72.6 0 -72.6 -3.2 -5.3 c-4.5 -7.5 -4.6 -13.8 -0.1 -17.8 2 -1.8 4.8 -3.1 7.5 -3.5 2.4 -0.4 22.1 -0.5 43.8 -0.3 39.2 0.3 39.5 0.3 44.3 2.7 5.7 2.8 12.3 10 13.7 15 0.6 2 1 16.3 1 32.7 l0 29.1 -2.5 4.7 -2.5 4.7 2.5 4.3 2.5 4.3 0 36.7 0 36.8 3.5 6.2 c4.5 8.1 4.7 13.1 0.7 17.4 -3.8 4.1 -7.1 4.4 -33.7 3.8 -12.1 -0.2 -22.9 -0.5 -24 -0.4 -1.1 0 -12.8 0.1 -26 0.2 -13.2 0.2 -25 0.1 -26.1 -0.1z m48.9 -9.5 c1.2 -1.8 0.9 -2.4 -3.8 -10.8 l-2.5 -4.5 0 -33.2 0 -33.3 8.9 0 c5 0 9.3 0.4 9.6 1 0.3 0.5 0.6 15.6 0.5 33.6 l-0.1 32.6 -3.7 6.8 c-5.6 10.2 -6 10 22.3 10 28.1 0 27.9 0.1 22.5 -9.4 l-3.5 -6.1 -0.5 -38.2 c-0.5 -36.7 -0.6 -38.3 -2.6 -41 -1.1 -1.5 -3.5 -3.7 -5.2 -4.8 -1.7 -1.1 -3.1 -2.2 -3.1 -2.5 0 -0.3 1.4 -1.4 3.1 -2.5 1.7 -1.1 4.1 -3.3 5.2 -4.8 2 -2.7 2.1 -4 2.1 -31.5 0 -28.3 0 -28.8 -2.3 -32.7 -2.6 -4.3 -5 -6.4 -9.7 -8.2 -4.3 -1.7 -83.6 -1.8 -85.3 -0.1 -1.9 1.9 -1.4 4.4 2.1 10 l3.2 5.3 0 75.1 0 75.1 -3.2 5.2 c-3.1 5 -4.1 9 -2.6 10.5 0.4 0.3 11.2 0.5 24.1 0.4 20.7 -0.3 23.6 -0.5 24.5 -2z m5.7 -45.5 c0 -27.6 0 -28.3 -2 -28.3 -2 0 -2 0.7 -2 28.4 0 15.6 0.3 29.2 0.7 30.2 0.6 1.6 0.7 1.6 2 -0.2 1 -1.4 1.3 -8 1.3 -30.1z"/>
  <path d="M1005 64.1 l0 -13 8.6 -0.3 c4.7 -0.2 9 0 9.5 0.3 0.6 0.3 0.8 6.1 0.7 13 l-0.3 12.4 -9.2 0.3 -9.3 0.3 0 -13z"/>
  <path d="M1186.2 203.3 c-7 -3.4 -7.9 -10.4 -2.7 -19.7 l3.5 -6.3 0 -71.7 0 -71.8 -3.5 -6.2 c-4.3 -7.7 -4.6 -12.2 -0.9 -16.5 1.4 -1.7 4.2 -3.6 6.2 -4.1 2.5 -0.8 17.1 -1 44.2 -0.8 l40.5 0.3 6 3 c6.7 3.4 11.8 9.2 13.5 15.6 0.7 2.5 1 14.6 0.8 33.2 l-0.3 29.4 -2.7 3.5 -2.7 3.5 2.7 3.8 2.7 3.8 0.3 37.8 0.3 37.9 3.4 5.9 c4.6 7.9 4.7 11.9 0.1 16.9 l-3.4 3.7 -24.9 -0.1 c-13.6 0 -26.1 -0.1 -27.8 -0.2 -1.6 0 -14 0.1 -27.5 0.3 -21.2 0.4 -24.9 0.2 -27.8 -1.2z m50.6 -7.5 c1.8 -1.8 1.5 -3.2 -2.3 -9.5 l-3.5 -5.8 0 -33.8 0 -33.8 9.3 0.3 9.2 0.3 0.3 33.5 0.2 33.4 -3.5 5.7 c-6.7 10.8 -6.3 11 22.5 10.7 22.5 -0.3 23.3 -0.4 24 -2.4 0.6 -1.5 -0.2 -3.6 -2.9 -8 l-3.6 -5.9 -0.3 -38.2 -0.3 -38.2 -3.2 -3.4 c-1.8 -1.9 -4.1 -3.9 -5.2 -4.5 -2 -1.1 -1.9 -1.1 0.5 -2.9 1.4 -0.9 3.7 -3 5.3 -4.6 l2.7 -2.9 0 -29.5 c0 -31.4 -0.1 -32.3 -5.2 -37 -5.5 -5.2 -6.8 -5.3 -49.7 -5.3 -22 0 -40.6 0.3 -41.5 0.6 -2.5 0.9 -1.9 5.4 1.4 10.9 l3 5 0 75.3 0 75.2 -2.5 4.1 c-3.6 5.6 -4.5 8.2 -3.4 10.2 0.9 1.5 3.4 1.7 24.2 1.7 16.8 0 23.6 -0.3 24.5 -1.2z m5.2 -45.4 c0 -25.5 -0.2 -29.4 -1.5 -29.4 -1.3 0 -1.5 3.9 -1.5 29.3 0 16.2 0.3 29.7 0.6 30 2 2 2.4 -3.1 2.4 -29.9z"/>
  <path d="M1231 64 l0 -13.1 9.3 0.3 9.2 0.3 0 12.5 0 12.5 -9.2 0.3 -9.3 0.3 0 -13.1z"/>
  <path d="M1323.3 203.5 c-7.2 -3.1 -8.6 -11 -3.4 -19.4 l3.1 -5.1 0 -73.5 0 -73.5 -3.1 -5.1 c-3.6 -5.7 -4.1 -11.1 -1.5 -15.1 3.5 -5.3 3.5 -5.3 49.5 -5.3 37.9 0 43 0.2 46.3 1.7 6.2 2.8 10.3 6.5 13.4 12 l2.9 5.3 0 38 0 38 -2.7 5.1 c-6.2 11.7 -13 14.4 -36.5 14.4 l-16.3 0 0 28.2 0 28.1 3.5 6.3 c5.3 9.4 4.2 16.4 -2.9 19.8 -4.6 2.2 -47.3 2.3 -52.3 0.1z m50.5 -9.8 c0.2 -1.8 -0.8 -4.5 -3 -8 l-3.3 -5.2 -0.3 -31.5 c-0.2 -17.3 0 -32.5 0.3 -33.7 l0.5 -2.3 20.5 0 c21.6 0 24.2 -0.4 28.9 -4.8 5.5 -5.2 5.6 -6.1 5.6 -44.7 0 -33.7 -0.1 -35.8 -2 -39.5 -1.1 -2.2 -3.9 -5.2 -6.2 -6.7 l-4.2 -2.8 -42.3 -0.3 -42.3 -0.3 -1.1 2.5 c-1 2.1 -0.7 3.2 2.5 8.4 l3.6 6 0 74.7 0 74.7 -3.5 5.9 c-6.4 11 -6.5 11 22.5 10.7 l23.5 -0.3 0.3 -2.8z"/>
  <path d="M1367.5 76 c-0.3 -0.5 -0.5 -6.4 -0.4 -13 l0.1 -12.1 9.7 0.3 9.6 0.3 0.3 11.4 c0.2 7.5 -0.1 11.8 -0.9 12.7 -1.4 1.6 -17.4 2 -18.4 0.4z"/>
 </g>
</svg>