<?xml version="1.0" encoding="utf-8"?>
<!DOCTYPE svg PUBLIC "-//W3C//DTD SVG 20010904//EN" "http://www.w3.org/TR/2001/REC-SVG-20010904/DTD/svg10.dtd">
<svg version="1.0" xmlns="http://www.w3.org/2000/svg" width="207px" height="318px" viewBox="0 0 207 318" preserveAspectRatio="xMidYMid meet">
   <defs>
      <radialGradient id="rg0" gradientUnits="userSpaceOnUse" cx="70.77295%" cy="24.528301%" r="134.54106%" >
         <stop offset="20%" style="stop-color:rgb(95,124,175);"></stop>
         <stop offset="25%" style="stop-color:rgb(90,118,169);"></stop>
         <stop offset="26%" style="stop-color:rgb(88,115,166);"></stop>
         <stop offset="27%" style="stop-color:rgb(91,118,169);"></stop>
         <stop offset="32%" style="stop-color:rgb(86,112,162);"></stop>
         <stop offset="33%" style="stop-color:rgb(83,107,157);"></stop>
         <stop offset="35%" style="stop-color:rgb(66,89,134);"></stop>
         <stop offset="52%" style="stop-color:rgb(48,68,102);"></stop>
         <stop offset="100%" style="stop-color:rgb(29,43,70);"></stop>
      </radialGradient>
      <radialGradient id="rg1" gradientUnits="userSpaceOnUse" cx="70.77295%" cy="24.528301%" r="134.54106%" >
         <stop offset="20%" style="stop-color:rgb(95,124,175);"></stop>
         <stop offset="25%" style="stop-color:rgb(90,118,169);"></stop>
         <stop offset="26%" style="stop-color:rgb(88,115,166);"></stop>
         <stop offset="27%" style="stop-color:rgb(91,118,169);"></stop>
         <stop offset="32%" style="stop-color:rgb(86,112,162);"></stop>
         <stop offset="33%" style="stop-color:rgb(83,107,157);"></stop>
         <stop offset="35%" style="stop-color:rgb(66,89,134);"></stop>
         <stop offset="52%" style="stop-color:rgb(48,68,102);"></stop>
         <stop offset="56%" style="stop-color:rgb(54,71,103);"></stop>
         <stop offset="100%" style="stop-color:rgb(29,43,70);"></stop>
      </radialGradient>
   </defs>
 <g fill="#020406">
  <path d="M0 159 l0 -159 103.50 0 103.50 0 0 159 0 159 -103.50 0 -103.50 0 0 -159z"/>
 </g>
 <g fill="#141622">
  <path d="M0 159 l0 -159 103.50 0 103.50 0 0 159 0 159 -103.50 0 -103.50 0 0 -159z m200.35 -45.75 c-0.15 -57.05 -0.40 -103.90 -0.50 -104.10 -0.15 -0.25 -43.20 -0.50 -95.65 -0.55 -52.45 -0.05 -95.75 -0.20 -96.20 -0.35 -0.75 -0.25 -0.80 7.50 -0.80 104.25 l0.05 104.50 96.70 0 96.70 0 -0.30 -103.75z"/>
  <path d="M58.25 196.65 c-0.80 -1.60 -1.95 -3.70 -2.55 -4.70 -0.60 -1 -3.15 -5.85 -5.65 -10.80 -4.20 -8.35 -5.30 -11.20 -4.05 -10.40 0.30 0.20 0.35 -0.10 0.05 -0.85 -0.25 -0.65 -0.75 -1.10 -1.15 -1 -0.80 0.10 -2.95 -4.15 -3.20 -6.30 -0.15 -1.05 -0.05 -1.10 0.65 -0.50 0.70 0.55 0.70 0.45 -0.05 -0.95 -0.75 -1.45 -1.50 -2.30 -1.20 -1.25 0.10 0.20 -0.05 0.45 -0.35 0.55 -0.45 0.15 -1.85 -2 -2.15 -3.45 -0.10 -0.40 -0.45 -1.10 -0.80 -1.50 -0.40 -0.40 -0.80 -1.40 -1 -2.20 -0.20 -0.85 -0.70 -2.30 -1.15 -3.25 -0.45 -1 -0.90 -2.25 -1 -2.75 -0.10 -0.55 -0.35 -1.20 -0.60 -1.50 -0.25 -0.30 -1.60 -3.35 -2.95 -6.80 -2.10 -5.25 -4.60 -11.20 -6.60 -15.75 -1.50 -3.40 -3.75 -8.85 -4.45 -10.75 -0.45 -1.25 -1 -2.50 -1.15 -2.80 -0.20 -0.30 -0.50 -1.45 -0.70 -2.60 -0.25 -1.70 -0.05 -2.60 1.30 -5.25 0.85 -1.75 2.75 -4.75 4.15 -6.65 3.45 -4.65 20.15 -21.50 22.45 -22.60 1.05 -0.55 3.10 -2.55 4.80 -4.65 4.15 -5.15 17.80 -18.50 21 -20.40 1.40 -0.90 2.60 -1.90 2.60 -2.20 0 -0.40 0.15 -0.35 0.45 0.10 0.30 0.45 0.55 0.50 0.75 0.10 0.20 -0.30 0.60 -0.45 0.85 -0.30 0.25 0.20 0.45 0.05 0.45 -0.25 0 -0.30 0.20 -0.40 0.50 -0.25 0.25 0.15 1 -0.05 1.60 -0.40 1.85 -1.20 7.70 -2.15 8.55 -1.45 0.90 0.75 2.35 0.25 2.35 -0.75 0 -1.30 1.75 -0.45 1.90 0.95 0.15 1.20 -0.10 1.40 -2.65 2.35 -1.55 0.60 -3 1.05 -3.25 1.05 -1.20 0 -0.80 1 0.95 2.25 3.50 2.40 6.05 7.45 6.05 12.15 0 0.85 0.20 1.60 0.40 1.60 0.20 0 0.30 -0.75 0.20 -1.70 -0.10 -0.90 0.05 -1.85 0.35 -2 0.55 -0.35 0.60 -0.15 0.75 2.40 0.05 1.30 0.45 1.70 2.80 2.90 1.50 0.75 2.95 1.40 3.15 1.40 0.20 0 0.90 0.50 1.50 1.05 l1.10 1.10 -2.75 -0.35 -2.75 -0.35 1.70 1.25 c0.95 0.70 1.95 1.30 2.15 1.30 0.20 0 0.40 0.30 0.40 0.70 0 0.35 0.35 0.95 0.75 1.30 0.60 0.50 0.75 0.50 0.75 -0.10 0 -0.55 0.35 -0.70 1.20 -0.55 0.65 0.15 1.85 -0.15 2.60 -0.65 0.80 -0.50 1.50 -0.90 1.55 -0.95 0.05 0 -0.20 -0.95 -0.60 -2 -0.40 -1.10 -0.70 -1.75 -0.75 -1.50 0 0.30 -0.25 0.15 -0.50 -0.30 -0.25 -0.40 -0.35 -1.10 -0.30 -1.50 0.70 -3.10 1 -4 1.55 -4.45 0.50 -0.40 2.20 0.15 6.70 2.25 3.30 1.50 6.65 3 7.35 3.30 l1.35 0.50 -2.15 2.20 c-2.35 2.40 -8.05 5.60 -12.50 7 -3.30 1.05 -4.45 1.90 -2 1.45 0.95 -0.15 2 -0.35 2.35 -0.45 0.30 -0.10 0.85 0.15 1.15 0.55 0.40 0.45 0.45 0.70 0.10 0.70 -0.30 0 -0.65 -0.30 -0.75 -0.60 -0.15 -0.35 -0.30 -0.05 -0.30 0.75 -0.05 0.75 0.20 1.35 0.45 1.35 0.30 0 0.50 0.40 0.50 0.90 0 0.45 0.25 1.20 0.50 1.60 0.35 0.55 0.40 0.25 0.20 -1 l-0.25 -1.75 0.95 1.80 c0.95 1.80 2.20 6 1.85 6.35 -0.05 0.10 -0.40 -0.65 -0.75 -1.60 -0.30 -1 -0.75 -1.80 -1 -1.80 -0.25 0 -0.10 0.65 0.30 1.45 0.40 0.75 0.80 2.75 0.90 4.35 0.10 1.60 0.10 2.30 -0.05 1.45 -0.10 -0.80 -0.40 -1.65 -0.60 -1.90 -0.20 -0.20 -0.10 1.80 0.25 4.50 0.35 2.70 0.65 6.55 0.70 8.55 0 3.85 1.05 7.10 2.25 7.10 0.35 0 0.90 0.30 1.20 0.70 0.50 0.55 0.95 0.60 2.05 0.20 1.55 -0.50 2.45 -1.50 8 -8.65 1.90 -2.45 3.65 -4.70 3.90 -5 1.10 -1.35 11.60 -17.35 11.60 -17.70 0 -0.70 1.80 -2.05 2.30 -1.70 1.20 1.05 -2.10 -2.65 -6.60 -7.35 -4.75 -4.90 -8.70 -9.35 -8.70 -9.80 0 -0.10 0.70 -0.50 1.50 -0.95 1.70 -0.85 3.50 -0.35 3.50 1.05 0 0.40 0.35 0.85 0.75 1 0.55 0.25 0.60 0.55 0.25 1.20 -0.35 0.70 -0.30 1.15 0.35 1.80 0.50 0.45 0.95 0.60 1.05 0.30 0.05 -0.25 0.60 -0.40 1.10 -0.25 2.10 0.55 0.70 -2.85 -4.15 -10.35 -1.55 -2.30 -2.65 -4.35 -2.50 -4.50 0.15 -0.15 1.55 1.20 3.10 3 3.60 4.15 9.30 9.85 10.55 10.50 0.50 0.25 1.90 0.50 3.10 0.50 1.20 0.05 2.70 0.30 3.40 0.65 0.70 0.35 5.15 3.70 9.80 7.45 6.40 5.10 8.95 7.45 10.15 9.35 0.85 1.40 1.55 2.65 1.55 2.80 0 0.35 -13.90 23.70 -15.80 26.50 -0.90 1.40 -5.95 8 -11.20 14.75 -8.15 10.45 -11.20 13.95 -21.60 24.40 -10.85 10.90 -13.55 13.30 -25.15 22.35 -11.25 8.80 -14.65 11.10 -25.20 17.30 -10.90 6.45 -12.30 7.40 -12.65 8.75 -0.80 3.05 -1.65 3 -3.15 -0.15z m17.75 -140.45 c-1 -2.65 -0.10 -2.95 2.85 -0.90 2.20 1.50 2.60 0.95 1.30 -1.65 -0.70 -1.45 -1.15 -1.85 -2 -1.75 -0.60 0.10 -1.65 -0.20 -2.35 -0.65 -0.70 -0.45 -1.95 -0.95 -2.80 -1.10 l-1.60 -0.25 1.30 2.20 c0.75 1.20 1.70 2.90 2.10 3.80 0.95 1.90 1.90 2.15 1.20 0.30z"/>
  <path d="M172.45 74.30 c-1.45 -2.75 -0.95 -3.45 1.05 -1.55 0.85 0.80 1.50 1.20 1.50 0.90 0 -0.30 -3.85 -4.25 -8.55 -8.80 -4.70 -4.55 -8.45 -8.55 -8.35 -8.90 0.10 -0.35 0.50 -0.75 0.90 -0.85 0.35 -0.15 0.50 0 0.30 0.35 -0.20 0.30 -0.10 0.55 0.15 0.55 0.30 0 0.55 -0.35 0.55 -0.75 0 -0.40 -0.20 -0.75 -0.50 -0.75 -1.10 0 -0.45 -2.05 0.80 -2.55 1.30 -0.45 1.35 -0.55 1 -3.70 -0.35 -3.40 0.65 -6.75 2.05 -6.75 0.35 0 0.95 -0.55 1.25 -1.25 0.35 -0.80 1.25 -1.45 2.50 -1.85 1.30 -0.40 2.60 -1.35 3.75 -2.75 2.55 -3.15 3.45 -3.50 5.20 -2.20 2.20 1.65 1.75 0.45 -1.05 -2.75 -2.75 -3.15 -3 -4.35 -0.85 -4.60 0.80 -0.10 1.70 -0.70 2.15 -1.40 0.45 -0.65 1.05 -1.20 1.40 -1.20 0.30 0 0.85 -0.45 1.20 -1 0.35 -0.55 0.85 -1 1.15 -1 0.60 0 1.65 -1.05 1.80 -1.85 0.05 -0.30 -0.30 -0.45 -0.85 -0.30 -0.60 0.15 -1.10 -0.05 -1.30 -0.55 -0.65 -1.65 0.15 -1.80 2 -0.35 1.05 0.85 2.10 1.55 2.30 1.55 0.25 0 0.85 -0.80 1.45 -1.75 0.85 -1.50 1.30 -1.75 2.80 -1.75 1.30 0 1.70 -0.15 1.45 -0.60 -0.25 -0.35 0.45 0.15 1.50 1.10 2 1.90 2.05 2.25 1.05 8.75 -0.25 1.65 -0.15 2.20 0.65 2.90 1.15 1.05 0.95 2.40 -1.20 8.40 -0.70 2 -1.85 5.50 -2.50 7.75 -0.65 2.25 -2.10 6.05 -3.25 8.50 -1.10 2.45 -3.05 6.95 -4.30 9.95 -3.15 7.70 -4.55 10.30 -6.25 11.90 -0.80 0.75 -1.55 1.35 -1.60 1.35 -0.10 0 -0.70 -1 -1.35 -2.20z"/>
 </g>
 <g fill="#222834">
  <path d="M0 159 l0 -159 103.50 0 103.50 0 0 159 0 159 -103.50 0 -103.50 0 0 -159z m31.75 149 c4.65 -2 10.90 -7.35 11.55 -9.90 0.45 -1.60 0.05 -1.75 -1.20 -0.60 -0.60 0.55 -1.20 0.80 -1.35 0.50 -0.20 -0.30 -0.90 -0.20 -1.85 0.30 -1.15 0.60 -2.60 0.75 -5.60 0.60 -3.35 -0.10 -4.65 -0.45 -7.30 -1.75 -6.85 -3.35 -12.35 -11.05 -14.50 -20.15 -0.80 -3.40 -1.60 -5.50 -2.15 -5.50 -0.25 0 -0.30 0.15 -0.20 0.40 0.15 0.20 -0.75 0.25 -1.95 0.15 -1.95 -0.15 -2.20 -0.05 -2.20 0.85 0 0.60 -0.25 1.20 -0.55 1.40 -0.70 0.40 -0.20 8.60 0.80 12.95 3.75 16.05 15.65 25.40 26.50 20.75z m127 -5.95 c0.55 -0.10 2.05 -0.20 3.35 -0.25 1.30 0 2.25 -0.15 2.10 -0.35 -0.10 -0.20 0.40 -0.45 1.15 -0.55 0.85 -0.10 1.40 -0.45 1.40 -0.90 0.05 -0.40 0.30 -0.70 0.65 -0.65 0.45 0.10 0.45 -0.15 0 -1.10 -0.30 -0.70 -0.85 -1.25 -1.20 -1.25 -0.35 0 -1.05 -0.45 -1.55 -0.95 -0.50 -0.55 -1.25 -1.05 -1.65 -1.15 -0.40 -0.10 -1.15 -0.80 -1.70 -1.65 -0.50 -0.80 -1.35 -1.80 -1.85 -2.15 -0.55 -0.35 -1.45 -1.60 -2 -2.75 -0.60 -1.15 -1.35 -2.45 -1.70 -2.85 -1.60 -2 -4 -10.55 -4.50 -16.15 -0.45 -5.10 -0.80 -6.45 -1.55 -6.15 -1.05 0.40 -0.55 -4 0.80 -7.15 0.65 -1.40 1 -2.70 0.85 -2.85 -0.40 -0.45 -2.50 5.40 -2.55 7.15 0 0.90 -0.20 1.65 -0.40 1.65 -1.30 0 -2.35 14.85 -1.45 20.50 1.70 10.50 7.40 21.65 10.30 20.05 0.30 -0.15 0.95 -0.35 1.50 -0.50z m-96.75 -10.05 c0.30 -0.55 0.35 -1 0.15 -1 -0.15 0 0.30 -0.65 1.10 -1.50 1.40 -1.45 1.40 -1.55 1.65 -9 0.15 -4.90 0.05 -7.50 -0.30 -7.50 -0.25 0 -0.60 -0.45 -0.75 -0.95 -0.35 -1.50 -1.95 -2.10 -3.10 -1.25 -0.95 0.70 -1 1.40 -1.10 11.45 -0.15 10.35 -0.10 10.75 0.85 10.75 0.55 0 1.20 -0.45 1.50 -1z m18.50 -0.75 l-1.25 -0.70 1.50 -0.05 c3.75 -0.15 4.40 -0.35 5.30 -1.45 1.05 -1.30 1.20 -2.05 0.45 -2.05 -0.25 0 -0.50 -0.25 -0.50 -0.55 0 -0.30 -1.50 -3.50 -3.35 -7.15 -1.85 -3.60 -3.75 -7.45 -4.30 -8.55 -1.30 -2.65 -2.30 -3.75 -3.45 -3.75 -0.95 0 -0.95 0.40 -0.80 9.15 0.15 9.05 0.15 9.10 1.60 11.35 2.10 3.30 3.40 4.40 5.30 4.45 0.40 0 0.20 -0.30 -0.50 -0.70z m39.50 -0.55 c0 -0.45 0.25 -0.60 0.65 -0.40 0.30 0.20 0.20 -0.10 -0.30 -0.65 -0.95 -1.10 -0.70 -1.75 0.55 -1.30 0.45 0.20 0.65 0.10 0.45 -0.20 -0.20 -0.30 -0.05 -0.65 0.35 -0.80 0.90 -0.35 0.85 -17.40 -0.05 -17.70 -0.35 -0.15 -0.55 -0.50 -0.45 -0.80 0.05 -0.35 0.05 -0.45 -0.05 -0.25 -0.15 0.25 -0.75 0.25 -1.35 0.10 -0.65 -0.15 -1.95 0.05 -2.95 0.45 -1.30 0.60 -1.90 0.60 -2.35 0.20 -0.50 -0.45 -0.55 -0.45 -0.30 0.15 0.25 0.45 0.10 0.45 -0.35 -0.10 -1.45 -1.80 -1.25 -0.20 0.50 3.75 3.20 7.30 3.30 7.75 3.20 13.25 l-0.10 5.10 1.25 0 c0.85 0 1.30 -0.30 1.30 -0.80z m63.95 -8.55 c2.15 -7.15 3.05 -19.20 2.10 -27.10 -0.55 -4.55 -1.50 -7.70 -1.55 -5.15 0 0.95 -0.45 1.30 -1.60 1.20 -0.15 -0.05 -0.60 0.25 -0.90 0.65 -0.35 0.40 -0.95 0.75 -1.35 0.75 -0.55 0 -0.40 -0.30 0.40 -1 l1.20 -1 -1.45 0.60 c-1.20 0.50 -1.50 0.50 -2.05 -0.25 -1.05 -1.45 -1.25 -0.95 -0.30 0.80 1.55 2.60 3 8.05 3.75 14.05 0.85 6.55 1.20 15.85 0.60 18.20 -0.70 2.95 0.15 1.65 1.15 -1.75z m16.30 -169.25 l0 -104.15 -50.25 -0.35 c-27.65 -0.15 -51.95 -0.40 -54 -0.55 -4.25 -0.30 -30.50 -0.45 -65.35 -0.40 l-23.65 0.05 0 104.70 0 104.75 1.40 0.15 c0.75 0.10 44.20 0.10 96.60 0.05 l95.25 -0.15 0 -104.10z"/>
  <path d="M58.70 192.30 c-1.10 -1.95 -2.25 -4.30 -2.55 -5.25 -0.70 -1.85 -0.50 -2.20 2.50 -3.80 0.75 -0.45 1.35 -1 1.35 -1.25 0 -0.30 0.15 -0.45 0.40 -0.40 0.60 0.20 5.60 -3.05 5.60 -3.60 0 -0.30 0.20 -0.45 0.40 -0.30 0.40 0.25 4 -1.90 4.60 -2.70 0.15 -0.20 0.75 -0.50 1.30 -0.70 0.60 -0.20 1.70 -0.90 2.40 -1.55 0.70 -0.65 1.30 -1.05 1.30 -0.85 0 0.20 0.25 -0.05 0.55 -0.50 0.25 -0.50 0.75 -0.90 1.10 -0.90 0.35 0 0.90 -0.45 1.25 -1 0.35 -0.60 0.85 -0.90 1.10 -0.75 0.25 0.15 1.15 -0.60 2.05 -1.70 0.85 -1.10 1.75 -1.95 1.90 -1.90 0.45 0.15 2.85 -1.80 3 -2.40 0.10 -0.25 0.30 -0.45 0.55 -0.40 0.20 0.05 2.65 -2.25 5.45 -5.10 2.75 -2.90 5.30 -5.25 5.55 -5.25 0.25 0 0.70 -0.45 1 -1.05 0.35 -0.55 0.70 -0.90 0.90 -0.75 0.40 0.40 6.15 -5.25 5.80 -5.75 -0.10 -0.20 0.45 -0.85 1.30 -1.45 0.80 -0.60 1.50 -1.30 1.50 -1.60 0 -0.25 0.55 -0.95 1.25 -1.50 0.70 -0.55 1.25 -1.30 1.25 -1.70 0 -0.40 0.35 -0.70 0.75 -0.70 0.40 0 0.70 -0.15 0.65 -0.35 -0.10 -0.25 1.15 -1.75 2.70 -3.35 1.55 -1.65 2.75 -3.15 2.60 -3.35 -0.10 -0.25 0.25 -0.65 0.80 -0.95 0.55 -0.30 1 -0.75 1 -1 0 -0.30 1.25 -1.75 2.75 -3.25 1.50 -1.55 2.75 -3 2.75 -3.25 0 -0.30 0.25 -0.50 0.50 -0.50 0.30 0 0.50 -0.30 0.50 -0.70 0 -0.40 0.35 -0.85 0.80 -1 0.40 -0.15 0.60 -0.50 0.45 -0.80 -0.15 -0.25 -0.05 -0.50 0.25 -0.50 0.30 0 0.80 -0.60 1.15 -1.35 0.30 -0.80 0.70 -1.50 0.85 -1.65 0.90 -0.75 3.40 -4.90 3.15 -5.20 -0.20 -0.15 -0.05 -0.30 0.25 -0.30 0.35 0 0.60 -0.25 0.60 -0.50 0 -0.30 0.45 -1 1 -1.60 0.55 -0.60 1 -1.40 1 -1.75 0 -0.35 0.25 -0.65 0.50 -0.65 0.30 0 0.50 -0.35 0.50 -0.75 0 -0.40 0.25 -0.75 0.50 -0.75 0.30 0 0.50 -0.30 0.50 -0.70 0 -0.40 0.20 -0.80 0.40 -0.90 0.45 -0.15 3.60 -4.65 3.60 -5.15 0 -0.15 0.45 -0.80 1.05 -1.40 0.85 -0.95 6.75 -12.15 7.95 -15.20 0.40 -0.95 0.10 -1.25 -2.40 -2.70 -1.90 -1.05 -5.35 -4.15 -10.25 -9.15 -7.75 -7.90 -8.90 -9.30 -7.65 -9.30 0.40 0 1.90 1.35 3.30 3 2.45 2.80 2.75 3 4.20 2.70 2.20 -0.45 2.55 -0.90 1.80 -2.65 -0.95 -2.40 -0.40 -2.85 1.50 -1.20 2.70 2.30 9 4.90 9 3.70 0 -0.25 -0.95 -0.60 -2.10 -0.80 -3.75 -0.65 -3.90 -1.20 -0.35 -1.25 3.40 0 4.15 0.35 8.95 4.35 0.40 0.35 2.80 2.25 5.25 4.20 2.50 1.95 5.25 4.25 6.20 5.15 1.95 1.85 4.05 4.95 4.05 6.05 0 0.45 -1.45 3.20 -3.20 6.15 -1.75 2.95 -5.20 8.75 -7.70 12.90 -2.85 4.85 -8 12.15 -14.40 20.50 -8.75 11.35 -11.40 14.45 -21.95 25.15 -10.90 11.05 -13.25 13.15 -25.30 22.55 -9.50 7.40 -15.50 11.65 -20.75 14.80 -4.10 2.40 -9.95 5.85 -13 7.70 l-5.55 3.35 -1.95 -3.55z"/>
  <path d="M47.60 171.65 c-5.95 -12.85 -9.45 -21.70 -8.85 -22.70 0.15 -0.20 0.05 -0.50 -0.25 -0.70 -0.25 -0.15 -0.50 -0.90 -0.50 -1.60 0 -1.15 -1.10 -4.05 -2.55 -6.75 -0.75 -1.50 0.45 -1.05 1.40 0.50 0.50 0.75 1.15 1.55 1.50 1.75 0.35 0.20 0.65 0.85 0.65 1.35 0 0.70 0.25 0.90 0.85 0.65 0.55 -0.20 0.70 -0.15 0.45 0.25 -0.20 0.35 -0.05 0.60 0.30 0.60 0.70 0 2.10 1.40 2.25 2.20 0.05 0.25 0.35 0.65 0.75 0.85 0.55 0.35 0.50 0.55 -0.10 0.95 -0.65 0.45 -0.60 0.50 0.20 0.40 1.50 -0.25 1.75 1.40 1.35 8.55 l-0.05 1.15 -1 -1.15 c-2.05 -2.50 -0.80 1.55 3.70 12.25 1.25 3 2.25 5.55 2.15 5.65 -0.10 0.05 -1.10 -1.80 -2.25 -4.20z"/>
  <path d="M42.40 132.65 c-1.55 -1.75 -3.80 -7 -4.90 -11.35 -1 -3.95 -1.05 -4.85 -0.55 -8.15 0.40 -2.80 0.95 -4.30 2.05 -5.85 0.85 -1.15 1.65 -3 1.80 -4.05 0.10 -1.10 0.35 -2.90 0.45 -4 0.55 -4.35 0.85 -6 1.25 -6.75 0.20 -0.40 0.40 -0.95 0.40 -1.15 0 -0.50 1.45 -4.55 2.35 -6.60 0.75 -1.70 2.95 -7.35 3 -7.75 0.05 -0.15 0.55 -1.20 1.15 -2.35 0.60 -1.20 1 -2.15 0.80 -2.15 -0.20 0 -0.05 -0.30 0.25 -0.70 0.35 -0.40 0.65 -1.15 0.80 -1.70 0.40 -2.05 3.05 -5.50 8.70 -11.25 6.35 -6.50 10.55 -9.90 10.55 -8.55 0 0.40 0.65 1.45 1.45 2.25 0.80 0.80 2.10 2.70 2.85 4.20 1.40 2.70 2.15 2.85 2.20 0.45 0 -1.40 1.25 -1.30 2.90 0.25 2 1.85 2.80 1.85 2.35 -0.10 -0.20 -0.90 -0.45 -2.15 -0.50 -2.85 -0.10 -0.70 -0.20 -1.25 -0.25 -1.25 -0.05 0 -0.15 -0.50 -0.30 -1.15 -0.10 -0.65 -0.55 -1.80 -0.95 -2.60 -0.65 -1.25 -0.65 -1.55 0 -2.15 1.60 -1.65 7.60 1.40 10.05 5.10 1.65 2.55 2.15 4.50 2.55 9.95 l0.30 4.65 -1.60 1.65 c-1.40 1.45 -1.60 2 -1.70 4.60 l-0.10 2.95 2 -0.10 c2.60 -0.10 10.05 -2.20 14.50 -4.15 2.75 -1.20 3.65 -1.90 4.20 -3.05 0.75 -1.70 0.20 -3.75 -1.20 -4.25 -1.35 -0.55 -0.75 -4.70 0.70 -4.70 0.85 0 11.95 4.85 12.75 5.55 0.75 0.65 -2 3.30 -5.70 5.45 -1.80 1.05 -6.40 2.95 -10.25 4.25 -7.65 2.55 -10.15 3.80 -12.60 6.35 -2.90 3 -4.15 6.45 -9.15 24.90 -2.60 9.60 -5.40 13.35 -7.05 9.40 -0.35 -0.90 -1.50 -2.50 -2.55 -3.50 -1.90 -1.90 -2.75 -4.70 -1.20 -4.10 0.40 0.15 0.85 0.55 0.95 0.95 0.40 0.90 2.55 0.35 3.75 -0.95 1.95 -2.05 4.10 -10.55 3.70 -14.60 -0.15 -1.75 -1.85 -3 -3.90 -2.80 -0.65 0.05 -2.65 0.75 -4.40 1.55 -3.20 1.45 -4.80 3.20 -4.80 5.40 0 0.50 -0.25 1.25 -0.50 1.65 -0.35 0.60 -0.60 0.40 -1.05 -0.90 -0.55 -1.60 -2.60 -3.10 -4.20 -3.10 -1.05 0 -5.35 2.20 -8.75 4.45 -1.50 1.05 -3.80 2.50 -5.10 3.25 -2.50 1.40 -2.70 1.90 -1.90 4 0.70 1.85 2.95 3.05 10.25 5.35 3.60 1.15 6.70 2.20 6.90 2.35 0.25 0.10 -0.45 1.15 -1.50 2.30 -1.10 1.10 -2.60 2.90 -3.35 3.95 -1.40 1.95 -4 3.85 -5.20 3.85 -0.35 0 -0.85 -0.60 -1.10 -1.30 -0.30 -0.70 -0.90 -1.65 -1.35 -2.10 -0.45 -0.45 -2.25 -2.60 -4 -4.70 -3.40 -4.10 -3.50 -4.15 -7.50 -4.65 -2.15 -0.30 -2.70 -0.20 -2.95 0.45 -0.65 1.75 0.55 3.70 4.90 8 4 3.95 4.55 4.75 4.75 6.50 0.20 1.70 -0.05 2.40 -1.35 4.20 -1.70 2.25 -2.90 2.60 -4.10 1.25z"/>
  <path d="M167.75 65.95 l-8 -7.85 0.65 -1.80 c0.35 -1 0.50 -2 0.35 -2.30 -0.70 -1.15 1.15 -0.40 2.50 1 1.40 1.45 4.25 2.80 4.25 2.05 0 -0.25 -1 -1.50 -2.25 -2.75 -2.25 -2.40 -2.90 -3.65 -1.50 -3.10 0.60 0.20 0.70 0 0.45 -1.05 -0.40 -1.45 -0.15 -1.40 2.60 0.70 l1.55 1.15 1.30 -1.20 c0.75 -0.70 1.35 -1.35 1.35 -1.50 0 -0.15 -0.90 -0.25 -2 -0.20 -2.90 0.10 -3.45 -0.70 -1.80 -2.60 0.95 -1.20 1.30 -2.15 1.30 -3.80 0 -1.70 0.25 -2.35 1.15 -2.90 0.60 -0.45 1.65 -1.65 2.30 -2.70 1.65 -2.65 2.65 -3.25 4.40 -2.50 2.85 1.20 3.25 0.90 1.50 -1.20 -3.15 -3.85 -3.55 -4.40 -3.25 -4.70 0.15 -0.15 1.15 -0.05 2.15 0.25 2.45 0.65 3.35 0.30 2.90 -1.35 -0.20 -0.85 -0.10 -1.15 0.30 -0.90 0.30 0.20 0.55 0.10 0.55 -0.15 0 -0.30 0.35 -0.55 0.75 -0.55 0.90 0 2.75 -2.85 2.45 -3.75 -0.55 -1.35 0.85 -1.20 3.55 0.30 3.15 1.80 3.30 2.05 4.20 7.75 0.65 4 0.60 4.20 -0.95 9.50 -1.75 6.05 -2.70 8.50 -8.10 21.20 -4.60 10.75 -5.50 12.65 -6.15 12.75 -0.25 0.05 -4.10 -3.45 -8.50 -7.80z"/>
 </g>
 <g fill="#1f314f">
  <path fill="url(#rg1)" d="M0 159 l0 -159 103.50 0 103.50 0 0 159 0 159 -103.50 0 -103.50 0 0 -159z m33.25 149.10 c3.50 -1.85 7.60 -5.45 9.70 -8.55 1.15 -1.65 2.05 -3.20 2.05 -3.45 0 -0.25 0.60 -1.30 1.30 -2.35 l1.30 -1.90 -2.55 2.30 c-4 3.55 -6.55 4.60 -11.30 4.60 -3.45 0 -4.45 -0.20 -7.30 -1.55 -8.55 -4.05 -14.80 -14.90 -15.90 -27.45 -0.55 -5.90 0.40 -14.50 2.25 -21 0.15 -0.55 -0.40 -0.05 -1.25 1.05 -3.75 5.05 -7.55 18.05 -7.55 25.95 0.05 16.15 6.85 29.15 17.25 32.90 3.35 1.20 9.20 0.95 12 -0.55z m141.70 -0.10 c4.10 -2.10 11.25 -9.95 12.30 -13.50 0.20 -0.70 0.75 -2 1.30 -2.85 0.70 -1.25 0.25 -0.95 -1.95 1.30 -4.15 4.20 -7.40 5.75 -12.10 5.80 -3.05 0 -4.30 -0.25 -6.60 -1.35 -5.45 -2.55 -10.35 -8.35 -13.35 -15.95 -2.60 -6.45 -3.20 -9.90 -3.20 -18.45 -0.05 -7 0.15 -8.45 1.45 -12.90 0.90 -3 -2.55 4.50 -3.75 8.15 -3.40 10.40 -3.45 23.35 -0.15 32.80 2.10 5.90 3.75 8.65 7.85 12.75 3.05 3.05 4.60 4.20 6.50 4.85 3.45 1.15 8.75 0.90 11.70 -0.65z m-75.75 -0.95 c1.05 -0.90 4.30 -7.15 4.30 -8.25 0 -0.40 0.30 -0.85 0.65 -0.95 0.30 -0.15 -2 -0.30 -5.20 -0.30 -4 -0.05 -6 -0.25 -6.35 -0.65 -0.45 -0.60 -10.40 -19.05 -14.15 -26.40 -1.40 -2.65 -1.95 -3.30 -3.05 -3.40 l-1.40 -0.15 0 10.05 c0 5.55 0.20 9.95 0.40 9.80 0.20 -0.10 1 1 1.70 2.45 0.85 1.80 1.10 2.75 0.75 2.90 -0.35 0.10 0.25 0.45 1.30 0.80 1.70 0.60 1.85 0.75 1.85 2.60 l0 1.95 -10.25 0 -10.25 0 -0.30 -1.25 c-0.30 -1.25 -0.35 -1.25 -1 -0.35 -1.90 2.75 -4.75 9.20 -4.60 10.45 l0.15 1.40 9.65 0.15 9.60 0.10 2 -3.10 c1.10 -1.75 2.40 -3.95 2.90 -4.95 0.45 -1 1.35 -2 1.95 -2.30 1 -0.50 1.25 -0.15 3.80 4.80 l2.75 5.30 2.95 0.25 c4.40 0.40 8.75 0 9.85 -0.95z m32.70 -0.15 c1.35 -1.45 3.60 -6.30 3.60 -7.75 0 -0.65 0.30 -1.20 0.65 -1.25 0.30 -0.05 -4 -0.25 -9.65 -0.40 l-10.20 -0.25 -0.30 -1.25 -0.30 -1.25 -0.80 1.25 c-1.60 2.40 -3.85 7.75 -4.20 9.90 l-0.35 2.10 10.25 0 c9.95 0 10.25 -0.05 11.30 -1.10z m-68.25 -15.45 l1.35 -1.45 0 -25.25 c0 -28.50 0 -28.70 -3.45 -30.10 -0.95 -0.40 -2.05 -1.10 -2.35 -1.55 -0.50 -0.70 -0.95 -0.25 -3.15 3.15 -2.70 4.25 -3.25 6.65 -1.75 7.85 2.65 2.10 4.10 4.05 4.65 6.20 0.45 1.70 0.60 8.10 0.55 21.95 -0.05 10.70 -0.05 19.90 -0.05 20.40 0.05 1.30 2.45 0.60 4.20 -1.20z m57.20 0.85 l1.40 -1.20 0.15 -11.05 0.15 -11 -2.70 -5.90 c-1.50 -3.25 -4.10 -9.10 -5.85 -13 -1.70 -3.90 -4.05 -8.95 -5.20 -11.25 -1.90 -3.85 -2.20 -4.20 -4.05 -4.70 -1.40 -0.35 -2.05 -0.85 -2.25 -1.65 -0.20 -0.90 -0.70 -0.35 -2.85 3.35 -3.30 5.55 -3.45 7.15 -0.75 8.55 2.55 1.30 3.30 2.25 5.35 6.80 1 2.20 2 4.45 2.25 5 2.70 5.90 9.20 20.70 9.85 22.35 0.65 1.85 1.05 6.25 1.15 13.80 0 1.50 1.55 1.45 3.35 -0.10z m63.35 -9.80 c4.30 -12.95 3.05 -34.80 -2.50 -43.55 -3.05 -4.85 -9.15 -5.65 -13.50 -1.85 -1.65 1.45 -4.05 5.55 -4.95 8.40 -0.35 1.15 -0.35 1.15 0.45 0.35 0.65 -0.65 1.75 -0.85 4.25 -0.85 2.85 0 3.70 0.20 5.60 1.45 4.55 2.85 7.50 9.95 8.75 21.05 0.70 6.30 0.65 15.85 -0.15 18.75 -0.20 0.70 -0.10 0.85 0.25 0.50 0.30 -0.25 1.10 -2.20 1.80 -4.25z m-138.35 -20.60 c2.60 -2.80 5.50 -9.40 4.20 -9.40 -0.25 0 -0.70 -1.40 -1.05 -3.10 -0.65 -3.35 -2.40 -7.60 -4.05 -10 -1.50 -2.10 -5.05 -4.25 -8.25 -4.95 -2.30 -0.50 -3 -0.50 -5 0.30 -3.20 1.20 -5.50 3.40 -7.25 6.80 -0.80 1.60 -1.45 3 -1.45 3.10 0 0.15 1.60 0.10 3.50 -0.05 4.35 -0.30 7.25 0.70 10.30 3.50 3.50 3.20 4.60 5.60 6.40 13.55 0.40 1.65 1.30 1.75 2.65 0.25z m38.40 -4.60 c0.70 -0.90 1.60 -3.10 2.05 -4.95 0.75 -3 0.75 -3.55 0 -7 -1.05 -4.75 -3 -7.55 -6.20 -8.95 -1.80 -0.80 -2.65 -0.95 -4.05 -0.60 l-1.80 0.45 -0.15 4.85 -0.15 4.85 2.25 2.05 c1.45 1.35 2.60 3 3.20 4.65 1 2.65 1.85 6.25 1.70 7 -0.20 0.85 1.90 -0.75 3.15 -2.35z m53 -15.10 c1.25 -2.95 2.25 -5.80 2.25 -6.30 0 -0.95 -1.40 -1.90 -2.90 -1.90 -0.55 0 -1.25 -0.35 -1.60 -0.75 -0.90 -1.10 -1.40 -0.55 -3.55 3.90 -2.50 5.15 -2.50 6.10 -0.10 7.10 2.50 1.05 3.65 2.15 3.30 3.15 -0.20 0.50 -0.15 0.70 0 0.55 0.20 -0.15 1.35 -2.75 2.60 -5.75z m7.65 1.15 c0.40 -0.30 1.35 -1.85 2.15 -3.45 1.45 -2.90 1.90 -5.40 0.95 -5.40 -1.35 0 -4.35 4.40 -6 8.70 -0.40 1.05 -0.30 1.10 0.90 0.90 0.75 -0.15 1.65 -0.45 2 -0.75z m55.60 -125.90 c0 -54.90 0.15 -102.20 0.35 -105.20 l0.30 -5.35 -3.95 0.30 c-6.40 0.50 -23.90 0.55 -24.65 0.10 -0.55 -0.35 -0.60 -0.30 -0.30 0.25 0.40 0.60 0.30 0.60 -0.40 0 -0.70 -0.55 -14.15 -0.60 -82.95 -0.40 -45.20 0.20 -82.15 0.30 -82.15 0.35 0 100 0.35 209.25 0.70 209.45 0.25 0.20 43.80 0.30 96.75 0.30 l96.30 0 0 -99.80z"/>
  <path d="M58.85 192.55 c-2.15 -4 -2.30 -5.35 -0.70 -5.85 0.60 -0.20 1.20 -0.50 1.35 -0.70 0.15 -0.20 3.65 -2.55 7.75 -5.25 14.30 -9.25 13.75 -8.85 25.20 -19.30 1.45 -1.35 2.85 -2.45 3.10 -2.45 0.25 0 0.70 -0.55 0.95 -1.25 0.25 -0.70 0.90 -1.40 1.35 -1.60 0.50 -0.20 1.20 -0.75 1.55 -1.25 0.35 -0.50 0.90 -0.90 1.15 -0.90 0.30 0 1.65 -1.25 3.10 -2.75 1.40 -1.50 2.80 -2.75 3.10 -2.75 0.35 0 0.85 -0.60 1.20 -1.30 0.70 -1.60 10.55 -13.70 11.15 -13.70 0.20 0 0.40 -0.25 0.40 -0.55 0 -0.55 2 -3.20 4.85 -6.40 2 -2.25 2.15 -2.50 2.15 -3.05 0 -0.25 0.20 -0.50 0.40 -0.50 0.25 0 0.80 -0.75 1.25 -1.60 0.50 -0.90 1.45 -2.55 2.15 -3.65 0.65 -1.10 1.35 -2.40 1.50 -2.85 0.15 -0.45 0.65 -0.95 1.05 -1.10 0.40 -0.15 0.60 -0.50 0.45 -0.75 -0.15 -0.20 0.15 -0.80 0.70 -1.30 0.55 -0.50 0.85 -1.10 0.70 -1.30 -0.15 -0.25 -0.05 -0.45 0.20 -0.45 0.30 0 1.25 -1.20 2.15 -2.60 0.90 -1.45 2.85 -4.45 4.25 -6.70 1.45 -2.20 4.25 -7.15 6.20 -11 2 -3.80 3.95 -7.40 4.30 -7.95 1.05 -1.45 0.95 -1.60 -1.85 -3.40 -2.80 -1.80 -2.95 -2.15 -3.10 -8.10 l-0.10 -2.50 3.10 0.05 c1.75 0.05 3 -0.10 2.85 -0.35 -0.15 -0.25 -0.70 -0.45 -1.20 -0.45 -0.50 0 -1.05 -0.20 -1.20 -0.45 -0.45 -0.70 3.80 -1.05 4.90 -0.40 1 0.55 1 0.60 -0.30 0.75 -0.80 0.10 -1.40 0.40 -1.40 0.65 0 0.30 0.70 0.35 1.65 0.20 1.45 -0.25 2.15 0.10 6.60 3.50 2.75 2.10 5.95 4.75 7.05 5.85 2.25 2.15 4 5.40 3.55 6.50 -0.15 0.35 -3.85 6.55 -8.20 13.80 -6.45 10.70 -9.70 15.45 -17.60 25.75 -8.45 10.90 -11.35 14.20 -21.50 24.50 -6.50 6.55 -12.90 12.80 -14.30 13.85 -6.50 5.15 -17.40 13.60 -21.10 16.40 -2.25 1.70 -9.35 6.15 -15.75 9.90 -6.40 3.75 -12 7.10 -12.45 7.50 -0.65 0.60 -1 0.25 -2.60 -2.75z"/>
  <path d="M167.85 66.05 c-4.30 -4.30 -7.85 -8.15 -7.85 -8.55 0.05 -0.60 0.20 -0.55 0.75 0.20 0.35 0.50 0.90 0.75 1.20 0.55 0.80 -0.45 0.65 -1.75 -0.20 -2.05 -0.75 -0.30 -1.10 -2.70 -0.35 -2.70 0.20 0.05 1.65 1.35 3.30 3 3.40 3.45 5.15 3.65 2.85 0.35 -0.80 -1.15 -2.15 -2.75 -3 -3.55 -1.65 -1.60 -2.05 -2.60 -0.80 -2.10 0.60 0.20 0.70 0 0.45 -1.05 -0.40 -1.45 -0.15 -1.40 2.55 0.65 l1.55 1.15 1.40 -1.15 c1.65 -1.30 1.40 -2.50 -0.35 -1.85 -1.15 0.45 -3.35 -0.10 -3.35 -0.85 0 -0.25 0.55 -0.90 1.25 -1.50 0.90 -0.80 1.25 -1.60 1.25 -2.95 0 -1.60 0.45 -2.25 3.40 -5.25 1.90 -1.85 3.85 -3.40 4.35 -3.40 0.50 0 1.90 1.05 3.15 2.30 1.30 1.25 2.75 2.50 3.30 2.80 1 0.55 1 0.50 0 -1.05 -0.55 -0.85 -2.60 -3.35 -4.60 -5.60 -3.80 -4.20 -4.35 -5.30 -2.45 -4.75 3.20 0.95 4.25 0.90 5.30 -0.15 0.60 -0.60 1.30 -0.95 1.55 -0.80 0.30 0.20 0.50 0.25 0.50 0.15 0 -0.10 0.35 -1.05 0.70 -2.15 0.50 -1.40 0.55 -2.25 0.20 -2.95 -0.35 -0.60 -0.30 -1.10 0 -1.40 0.80 -0.80 5.80 2.70 6.55 4.55 0.35 0.80 0.65 3.45 0.65 5.85 0.05 5.60 -2.10 14.15 -5.30 21.20 -1.25 2.65 -3.15 7.15 -4.30 9.95 -2.40 6.05 -4.85 11.10 -5.40 10.95 -0.20 -0.05 -3.90 -3.55 -8.25 -7.85z"/>
 </g>
 <g fill="#2e3c5c">
  <path fill="url(#rg1)" d="M29.25 298.30 c-6.15 -1.95 -11.10 -6.55 -14.55 -13.55 -2.50 -5.15 -3.65 -9.30 -4.15 -15 -0.55 -5.90 0.45 -14.95 2.30 -21 l0.30 -1 -1.15 1 c-0.65 0.55 -2.25 3.25 -3.55 6 -1.35 2.75 -2.45 4.90 -2.50 4.75 -0.30 -0.90 -0.50 -4.05 -0.95 -14.25 -0.30 -6.30 -0.75 -13.50 -0.95 -16 -0.25 -2.45 -0.30 -11.35 -0.15 -19.75 1 -46.35 -0.15 -79.55 -2.60 -78.15 -0.30 0.15 -0.40 0.15 -0.20 -0.10 0.20 -0.20 0.10 -0.75 -0.25 -1.15 -0.50 -0.65 -0.45 -0.70 0.15 -0.35 0.55 0.30 0.50 0.15 -0.10 -0.55 -0.80 -0.95 -0.85 -5.20 -0.90 -65.10 l0 -64.10 103.50 0 103.50 0 0 124.25 c0 112.70 -0.05 124.45 -0.80 125.85 -0.45 0.85 -1.10 2.60 -1.50 3.95 -0.50 1.60 -1.40 3 -2.75 4.30 -1.15 1.05 -2.45 2.30 -2.95 2.80 -0.85 0.90 -0.90 0.85 -1.40 -0.50 -0.40 -1.10 -0.55 -0.40 -0.55 3.75 -0.10 14.60 -6.70 27.95 -16.30 33 -3.55 1.90 -8.80 1.90 -12.85 0 -6.95 -3.25 -12.55 -11.30 -15.50 -22.35 -1.35 -5.05 -1.50 -18.90 -0.25 -22.80 0.45 -1.35 0.75 -2.55 0.65 -2.60 -0.10 -0.10 -1 1.50 -2 3.50 -1.75 3.55 -4.30 12.20 -4.30 14.60 0 1.50 -0.50 2.75 -1.05 2.75 -0.25 0 -0.45 -0.30 -0.45 -0.65 0 -0.65 -0.95 -0.75 -8 -1 -2.15 -0.05 -3 -0.30 -3.85 -1.20 l-1.10 -1.15 -0.55 1.85 c-0.40 1.25 -0.50 5.45 -0.40 11.90 0.20 12.20 0.15 12.15 5.05 13 1.55 0.25 1.85 0.50 1.85 1.50 0 2.80 0.25 2.75 -11.05 2.75 -11.30 0 -10.90 0.10 -11.10 -2.80 -0.10 -1.40 0 -1.45 2 -1.45 1.55 0 2.45 -0.30 3.25 -1.15 1.10 -1.10 1.15 -1.45 1.30 -12.10 l0.15 -10.95 -2.70 -5.90 c-1.50 -3.25 -4.10 -9.10 -5.85 -13 -1.70 -3.90 -4.05 -8.95 -5.20 -11.25 -1.90 -3.85 -2.20 -4.20 -4.05 -4.70 -1.45 -0.40 -2.05 -0.85 -2.25 -1.75 -0.25 -1.05 -0.45 -0.90 -2.15 1.85 -2.20 3.70 -3.80 7.15 -3.85 8.30 0 0.50 0.80 1.30 1.95 1.90 2.55 1.25 4 3.20 6.30 8.50 2.90 6.55 3.85 9.50 2.95 9.15 -0.40 -0.15 -0.70 -0.45 -0.70 -0.70 0 -0.35 -4.70 -0.20 -8.75 0.30 -0.55 0.05 -1.75 -0.10 -2.70 -0.35 -1.35 -0.40 -1.85 -0.30 -2.75 0.50 -1.85 1.65 -2.50 1.85 -1.55 0.40 0.45 -0.70 1.10 -1.15 1.45 -0.95 0.30 0.15 0.30 0.05 -0.05 -0.40 -0.55 -0.55 -0.95 -0.40 -2.25 0.90 -0.90 0.85 -2.35 2 -3.25 2.50 l-1.60 0.95 2.15 3.70 c1.15 2.05 3.80 6.90 5.85 10.75 4.45 8.35 6.75 11.40 9.70 12.85 2.50 1.20 2.75 1.65 2.40 3.55 l-0.25 1.35 -6.15 0 c-4.30 0 -6.30 -0.20 -6.65 -0.60 -0.45 -0.60 -10.40 -19.05 -14.15 -26.40 -1.40 -2.70 -1.95 -3.30 -3.10 -3.40 l-1.40 -0.15 0.15 11.50 c0.15 11.30 0.15 11.50 1.35 12.75 0.65 0.70 1.95 1.50 2.85 1.80 1.55 0.55 1.70 0.75 1.70 2.55 l0 1.95 -10.20 0 c-11.05 0 -10.80 0.05 -10.80 -2.75 0 -1 0.35 -1.25 1.75 -1.55 1.05 -0.20 2.25 -0.90 3 -1.80 l1.25 -1.50 0 -25.30 c0 -23.75 -0.10 -25.50 -0.95 -27.40 -0.70 -1.60 -1.40 -2.25 -2.70 -2.65 -0.95 -0.30 -1.90 -1.05 -2.20 -1.65 -0.40 -0.95 -0.75 -0.60 -3.30 3.35 -2.95 4.60 -3.50 6.70 -2.05 7.85 4.30 3.40 5.20 5.35 5.20 11.25 0 3.65 -0.45 4.70 -1.45 3.45 -0.30 -0.35 -1.35 -0.60 -2.40 -0.55 -1.05 0.10 -2.15 -0.05 -2.50 -0.35 -0.70 -0.55 -2.25 -0.35 -2.75 0.35 -0.25 0.30 -0.40 0.15 -0.40 -0.30 0 -0.45 0.65 -1.70 1.45 -2.80 l1.50 -2.05 -1.40 -0.25 c-1.25 -0.25 -1.45 -0.60 -2 -3.40 -0.70 -3.40 -2.40 -7.65 -4.10 -10.05 -1.50 -2.10 -5.05 -4.25 -8.25 -4.95 -2.30 -0.50 -3 -0.50 -5 0.30 -3.20 1.20 -5.50 3.40 -7.25 6.80 -0.80 1.60 -1.45 3.10 -1.45 3.35 0 0.30 0.95 0.30 2.40 0 2.55 -0.45 6.15 0.10 8.55 1.30 3.45 1.80 7.15 7.35 7.90 11.95 0.30 1.85 0.25 2 -0.65 1.60 -1.15 -0.45 -1.60 -0.45 -5.20 0.20 -1.50 0.25 -4.10 0.60 -5.75 0.75 -1.65 0.20 -3.85 0.50 -4.85 0.75 -1.20 0.30 -2 0.25 -2.35 -0.10 -0.40 -0.40 -0.55 -0.20 -0.60 0.70 0 1.05 -0.10 0.95 -0.70 -0.55 -1.05 -2.85 -1.45 -0.70 -1.10 6.15 0.45 9.35 2.35 15.05 6.70 19.85 2.55 2.85 4 3.75 7.30 4.50 4.95 1.10 9.90 -2 14.60 -9.20 2.30 -3.55 2.50 -3.75 3.35 -2.95 1.20 1.10 1.15 1.40 -0.70 5.05 -5.60 10.85 -14.35 16 -22.65 13.40z m148.05 -6.60 c5.70 -2.70 8.55 -10.50 9.45 -25.95 0.55 -9.45 -1.70 -21.55 -5.05 -26.80 -3.05 -4.85 -9.15 -5.65 -13.50 -1.85 -1.60 1.45 -4.05 5.55 -4.90 8.25 -0.35 1.10 -0.30 1.10 1.05 0.40 3.25 -1.70 8.70 -0.35 11.30 2.75 3.05 3.60 5.40 10.35 6 17 0.30 3 0.25 3.10 -0.30 1.45 -0.55 -1.60 -0.70 -1.75 -1.95 -1.40 -0.75 0.20 -2.25 0.50 -3.25 0.65 -3.65 0.55 -5.40 0.85 -6.65 1.15 -3 0.65 -5.55 0.70 -6.25 0.15 -0.65 -0.50 -0.75 -0.40 -0.80 0.55 -0.05 0.75 -0.30 0.20 -0.75 -1.30 l-0.65 -2.50 0.20 4.50 c0.45 9.15 3.15 18.10 6.35 21.10 2.85 2.70 6.50 3.35 9.70 1.85z m-94.40 -32.95 c1.75 -1.50 2.90 -3.70 3.65 -7.20 0.75 -3.50 -0.45 -9.10 -2.60 -12.05 -2 -2.75 -5.40 -4.30 -7.90 -3.70 l-1.80 0.45 -0.15 5.10 -0.15 5.10 2.25 2.05 c2.35 2.15 3.80 5.35 3.80 8.30 0 1.85 0.40 3.20 1 3.20 0.25 0 1.10 -0.55 1.90 -1.25z m54.35 -16.55 c1.25 -2.95 2.25 -5.80 2.25 -6.30 0 -1 -1.45 -1.90 -2.95 -1.90 -0.60 0 -1.30 -0.45 -1.65 -0.95 -0.55 -0.95 -0.65 -0.90 -1.80 0.75 -1.85 2.80 -3.60 6.80 -3.60 8.45 0 1.30 0.35 1.65 2.50 2.60 1.95 0.85 2.50 1.35 2.50 2.20 0 1.65 0.30 1.15 2.75 -4.85z m7.80 1.25 c2.25 -2.25 4.45 -8.95 2.95 -8.95 -1.35 0 -4.35 4.40 -6 8.80 -0.45 1.05 -0.35 1.20 0.75 1.20 0.70 0 1.70 -0.45 2.30 -1.05z m55.70 -131.35 l0 -105.10 -97 0 -97 0 0.10 104.90 c0 57.65 0.05 105 0.10 105.25 0.05 0.20 43.65 0.30 96.95 0.25 l96.85 -0.15 0 -105.15z"/>
  <path d="M59.50 192.70 c-0.55 -1.30 -0.95 -2.65 -0.80 -3 0.25 -0.60 7.50 -5.55 17.80 -12.05 4.80 -3.05 5.80 -3.85 9.10 -6.90 1.80 -1.65 5.80 -5.25 8.95 -8 9.05 -7.95 12.30 -11.15 16.45 -16.25 9 -11.10 16.30 -21.10 20.20 -27.70 2.30 -3.85 6.85 -11.35 10.10 -16.65 6.70 -10.80 12.35 -21.15 11.95 -21.90 -0.15 -0.25 -0.95 -1.50 -1.75 -2.75 -3.65 -5.50 -3.65 -7 -0.05 -7 3.30 0 4.55 -0.95 1.30 -1.05 -1.35 0 -2.95 -0.20 -3.50 -0.45 -0.85 -0.30 -0.75 -0.40 0.75 -0.65 0.95 -0.20 2.95 -0.40 4.40 -0.50 l2.65 -0.20 5.85 4.55 c5.75 4.55 8.85 7.80 9.40 10 0.20 0.80 -0.35 2.10 -1.70 4.35 -1.10 1.75 -4.60 7.60 -7.75 13 -4.50 7.60 -8.10 12.80 -16.15 23.25 -9.45 12.25 -11.45 14.55 -22.65 25.75 -10.85 10.80 -13.70 13.35 -24.30 21.50 -6.60 5.10 -12.70 9.70 -13.50 10.30 -2.30 1.60 -24.75 14.65 -25.25 14.65 -0.20 0 -0.90 -1.05 -1.50 -2.30z"/>
  <path d="M169.70 67.55 c-5.20 -5.05 -6.05 -6.10 -5.85 -7.20 0.15 -0.70 -0.05 -1.40 -0.40 -1.60 -0.45 -0.30 -0.55 -0.05 -0.35 0.95 0.20 0.85 0.05 1.25 -0.30 1.15 -0.35 -0.15 -0.50 -1.20 -0.40 -2.80 0.15 -2.05 0 -2.55 -0.60 -2.55 -0.50 0 -0.80 -0.45 -0.80 -1.10 0 -0.90 0.55 -0.55 3.20 2 2.15 2.05 3.50 3 4 2.80 1 -0.40 0.45 -1.50 -2.05 -4.25 -2 -2.25 -1.95 -3 0.15 -1.60 l1.45 0.90 -1.45 -1.90 c-1.75 -2.25 -1.45 -2.85 0.65 -1.30 l1.55 1.15 1.30 -1.30 c1.65 -1.60 1.20 -2.40 -1 -2.05 -2.35 0.35 -2.65 -0.55 -0.85 -2.65 0.85 -0.95 1.55 -2.20 1.55 -2.75 0 -1.05 6.50 -7.95 7.45 -7.95 0.30 0 1.80 1.25 3.30 2.75 1.55 1.50 2.90 2.75 3.05 2.75 0.85 0 -0.90 -2.80 -4.10 -6.45 -2.05 -2.30 -3.70 -4.40 -3.70 -4.60 0 -0.25 1.50 0.10 3.30 0.80 4.05 1.50 4.20 1.55 4.05 0.15 -0.05 -0.75 0.20 -1.15 0.90 -1.30 1.25 -0.25 2.75 -1.55 2.75 -2.40 0 -0.40 -0.50 -1.70 -1.10 -2.95 -0.60 -1.20 -0.95 -2.35 -0.80 -2.50 0.45 -0.45 4.85 2.70 5.50 3.90 0.35 0.65 0.55 3.25 0.55 6.35 0 6.70 -1.80 14.15 -5.15 21.50 -1.30 2.90 -3.50 7.85 -4.80 11 -2.45 5.90 -4.05 9 -4.60 9 -0.20 0 -3.10 -2.70 -6.40 -5.95z"/>
 </g>
 <g fill="#32486b">
  <path fill="url(#rg1)" d="M29.25 298.30 c-3.70 -1.15 -6.25 -2.80 -9.30 -5.95 -3.45 -3.50 -6.90 -10 -8.25 -15.35 -3 -12.05 -0.60 -28.10 5.45 -36.70 0.60 -0.80 0.80 -1.30 0.45 -1.10 -0.30 0.20 -1.15 1.35 -1.90 2.60 -0.70 1.20 -1.50 2.20 -1.80 2.20 -0.25 0 -0.35 0.20 -0.20 0.45 0.15 0.25 -0.05 0.70 -0.45 1.05 -0.40 0.35 -0.60 0.80 -0.45 1.05 0.15 0.25 -0.15 0.30 -0.60 0.10 -0.65 -0.25 -0.80 -0.15 -0.55 0.50 0.15 0.40 -0.05 1.05 -0.45 1.35 -0.50 0.45 -0.70 0.45 -0.70 0.05 0 -0.30 -0.65 -0.55 -1.40 -0.55 -1.40 0 -3.60 -1.20 -3.10 -1.70 0.15 -0.10 0.90 -0.35 1.70 -0.50 1.85 -0.35 2.10 -0.65 0.85 -1.05 -0.60 -0.15 -1.05 -0.55 -1.05 -0.80 0 -0.25 -0.35 -0.45 -0.75 -0.45 -0.40 0 -0.75 -0.15 -0.80 -0.35 0 -0.25 -0.10 -0.85 -0.20 -1.40 -0.35 -1.70 -1 -17.75 -0.95 -22.10 0.05 -3.05 0.25 -4.30 0.90 -4.90 0.75 -0.75 0.80 -0.70 0.80 0.95 l0 1.80 97.25 0 97.25 0 0 -105.25 0 -105.25 -91.35 -0.10 c-50.30 0 -91.95 -0.10 -92.65 -0.20 -2.40 -0.30 -3.25 -0.55 -3.15 -1 0.05 -0.25 0.70 -0.50 1.40 -0.60 0.70 -0.10 1.15 -0.40 1 -0.65 -0.20 -0.25 -0.05 -0.45 0.30 -0.45 0.35 0 0.45 -0.15 0.30 -0.35 -0.20 -0.15 0.45 -1.05 1.45 -2 l1.85 -1.65 93.40 0 93.45 0 -0.15 102.40 c-0.15 71 -0.35 103.35 -0.70 105.60 -0.30 1.80 -0.70 6.85 -0.85 11.25 -0.15 4.40 -0.35 8.35 -0.50 8.75 -0.25 0.65 -0.75 7.05 -0.90 11.40 -0.05 0.90 -0.20 1.40 -0.40 1.15 -0.15 -0.30 -0.60 0.15 -0.95 1 -0.35 0.80 -1.20 1.85 -1.80 2.25 -1.55 1 -6.25 2.25 -6.25 1.65 0 -0.60 -4.40 -7.45 -4.80 -7.45 -0.15 0 0.15 0.60 0.70 1.40 1.90 2.70 3.65 6.70 4.95 11.50 1.20 4.30 1.35 5.75 1.35 12.85 0 6.75 -0.15 8.65 -1.10 12.20 -2.85 10.45 -8.10 17.95 -15.10 21.60 -3.30 1.75 -8.70 1.70 -12.60 -0.15 -6.95 -3.25 -12.55 -11.30 -15.50 -22.35 -0.80 -3.05 -1 -5.45 -1.05 -12.05 -0.05 -7.90 0.05 -8.45 1.45 -12.60 1.55 -4.50 1.60 -5.95 0.10 -2.40 -0.45 1.10 -0.80 2.10 -0.75 2.20 0.05 0.10 -0.30 0.60 -0.75 1.10 -0.45 0.55 -0.85 1.15 -0.85 1.45 0 0.25 -0.25 0.55 -0.60 0.70 -0.40 0.10 -0.50 -0.10 -0.30 -0.60 0.15 -0.45 -0.05 -1.05 -0.45 -1.35 -0.40 -0.35 -0.70 -0.45 -0.70 -0.30 0 0.20 -0.45 0.10 -1 -0.20 -0.60 -0.30 -2 -0.75 -3.15 -0.95 -1.20 -0.20 -2.05 -0.65 -1.95 -0.95 0.10 -0.55 -0.55 -0.80 -1.55 -0.65 -0.25 0.05 -0.35 -0.20 -0.20 -0.55 0.10 -0.35 0.50 -0.60 0.85 -0.50 0.40 0.10 0.50 -0.15 0.35 -0.65 -0.20 -0.40 -0.05 -0.75 0.30 -0.75 0.35 0 1.50 -0.95 2.65 -2.15 2.05 -2.10 4.50 -7.40 4 -8.65 -0.15 -0.35 0 -0.75 0.35 -0.90 0.35 -0.10 0.40 -0.25 0.10 -0.25 -0.25 -0.05 -1.20 0.40 -2.10 0.95 -1.90 1.15 -3.80 4.85 -11.15 21.95 l-5 11.70 0 10.30 c0 12.40 0.30 13.55 3.95 14.15 2.85 0.50 3.40 1 2.75 2.75 l-0.45 1.40 -10.40 0.15 c-11.25 0.15 -10.80 0.25 -11 -2.70 -0.10 -1.40 0 -1.45 2 -1.45 1.55 0 2.45 -0.30 3.25 -1.15 1.10 -1.10 1.15 -1.45 1.30 -12.10 l0.15 -10.95 -2.70 -5.90 c-1.50 -3.25 -4.10 -9.10 -5.85 -13 -1.70 -3.90 -4.05 -8.95 -5.20 -11.25 -1.90 -3.85 -2.20 -4.20 -4.05 -4.70 -1.65 -0.45 -2.05 -0.80 -2.25 -2 -0.25 -1.35 -0.45 -1.10 -3 3.30 -2.15 3.75 -2.75 5.20 -2.75 6.90 0 1.95 -0.05 2.05 -0.50 0.95 -0.40 -0.90 -0.50 0.20 -0.50 4.60 -0.05 5 -0.20 6.15 -1.20 8.20 -1.40 3 -4.10 6.10 -6.85 7.85 l-2.10 1.30 2.35 4.25 c1.30 2.30 4.05 7.30 6.05 11.15 3.80 7.15 6.50 10.60 9.50 12.20 1.50 0.80 1.75 1.20 1.75 2.65 l0 1.70 -6.05 0.15 c-4.45 0.10 -6.20 -0.05 -6.55 -0.50 -0.50 -0.60 -10.40 -18.95 -14.20 -26.40 -1.40 -2.70 -1.95 -3.30 -3.10 -3.40 l-1.40 -0.15 0.15 11.50 c0.15 11.30 0.15 11.50 1.35 12.75 0.65 0.70 1.95 1.50 2.85 1.80 1.55 0.55 1.70 0.75 1.70 2.55 l0 1.95 -10.20 0 c-11.05 0 -10.80 0.05 -10.80 -2.75 0 -1 0.35 -1.25 1.75 -1.55 1.05 -0.20 2.25 -0.90 3 -1.80 l1.25 -1.50 0 -25.30 c0 -23.75 -0.10 -25.50 -0.95 -27.40 -0.75 -1.60 -1.40 -2.25 -2.70 -2.65 -1.15 -0.40 -1.95 -1.05 -2.20 -1.85 -0.40 -1.15 -0.60 -0.95 -3.30 3.20 -1.55 2.45 -2.90 4.75 -2.90 5.15 -0.05 0.40 -0.25 0.05 -0.50 -0.80 -0.25 -0.90 -0.30 1.25 -0.15 5.35 0.25 7.05 0.10 7.75 -1.75 7.15 -0.65 -0.20 -1.10 -1.10 -1.55 -3.35 -0.65 -3.40 -2.40 -7.60 -4.05 -10 -1.50 -2.10 -5.05 -4.25 -8.25 -4.95 -2.30 -0.50 -3 -0.50 -5 0.30 -4.85 1.85 -7.80 6.05 -9.80 14.15 -0.95 3.75 -1.10 5.75 -1.15 14.60 0 9.40 0.10 10.55 1.20 14 1.40 4.55 2.15 6.05 4.55 9.25 3.85 5.20 10.25 6.95 15.05 4.15 2.75 -1.65 6.45 -5.55 8.35 -8.95 1.35 -2.50 2.30 -2.90 3.25 -1.40 0.65 1.05 -1.95 6.35 -5.15 10.35 -5.45 6.80 -12.20 9.50 -18.75 7.40z m148.30 -6.60 c0.75 -0.35 2.25 -1.70 3.30 -2.95 7.45 -8.45 7.95 -38.55 0.85 -49.80 -2.15 -3.40 -5.95 -4.95 -9.60 -3.95 -6.80 1.80 -10.40 10.55 -10.95 26.25 -0.40 11.95 1.15 20.80 4.60 26.25 3.10 4.80 7.45 6.40 11.80 4.20z m-96.60 -31.65 c2.75 -1.40 4.40 -3.80 5.35 -7.70 0.75 -3 0.75 -3.55 0 -7 -1.05 -4.75 -3 -7.55 -6.20 -8.95 -1.80 -0.80 -2.65 -0.95 -4.05 -0.60 l-1.80 0.45 -0.15 12.70 -0.10 12.70 2.45 -0.30 c1.35 -0.15 3.40 -0.75 4.50 -1.30z m49.55 -1.30 c0.55 -1.70 6.10 -15.25 8.25 -20.15 1.40 -3.05 1 -3.95 -1.95 -4.55 -0.90 -0.20 -1.80 -0.80 -2.10 -1.45 -0.55 -1.10 -0.75 -0.85 -2.85 3.25 -1.25 2.40 -2.40 5.20 -2.60 6.20 -0.35 1.75 -0.30 1.85 1.95 2.95 2.50 1.20 2.65 1.65 1.55 4.30 -0.45 1.05 -0.50 1.60 -0.15 1.40 0.35 -0.25 0.40 -0.15 0.20 0.25 -0.25 0.35 -0.75 0.50 -1.15 0.35 -0.40 -0.15 -0.55 -0.05 -0.40 0.20 0.15 0.30 0.15 0.50 -0.10 0.55 -1.30 0.10 -2.35 0.45 -2.75 0.85 -1.20 1.20 -2.50 -0.15 -4.65 -4.60 -1.20 -2.50 -2.20 -4.40 -2.25 -4.20 0 0.35 6.20 14.85 7.10 16.60 0.60 1.15 1.10 0.65 1.90 -1.95z"/>
  <path d="M169.90 67.65 c-5.30 -5.40 -5.75 -6 -5.35 -7.10 0.60 -1.50 0.25 -2.55 -0.80 -2.55 -0.45 0 -0.75 -0.45 -0.75 -1.30 0 -1.20 0.25 -1.05 3.60 2 2 1.80 3.80 3.30 4 3.30 0.85 0 0.35 -1.55 -1 -3.10 -0.75 -0.90 -2.05 -2.55 -2.85 -3.65 l-1.50 -2 1.65 1.15 c2 1.45 2.05 0.85 0.05 -1.55 -1.90 -2.30 -1.70 -2.75 0.55 -1.10 1.95 1.45 2.05 1.50 1.70 0.55 -0.15 -0.40 0.15 -0.95 0.75 -1.30 0.65 -0.30 1.05 -1.05 1.05 -1.80 0 -1.15 -0.15 -1.25 -1.25 -1 -0.70 0.20 -1.50 0.20 -1.80 0 -0.70 -0.45 0.45 -1.70 1.60 -1.70 0.75 0 0.95 -0.35 0.95 -1.75 0 -1.20 0.30 -1.85 1.05 -2.25 0.55 -0.30 1.80 -1.80 2.75 -3.30 1 -1.50 2.10 -2.90 2.55 -3.05 0.45 -0.20 1.45 0.40 2.55 1.50 1.45 1.45 1.65 1.90 1.15 2.55 -0.50 0.60 -0.45 0.70 0.40 0.45 0.60 -0.15 1.60 0.10 2.30 0.55 1.20 0.80 1.25 0.80 1.25 -0.20 0 -0.55 -1.65 -2.80 -3.75 -5.05 -5.05 -5.50 -5 -6.10 0.35 -3.40 2.65 1.35 3.20 1.45 4.20 0.90 0.65 -0.35 1.25 -0.50 1.35 -0.40 2.35 3.40 2.85 4.50 2.85 6.10 0 3.30 -1.55 8.45 -4.10 13.85 -1.40 2.90 -3.20 7.15 -4 9.50 -1.55 4.35 -4.75 11 -5.35 11 -0.15 0 -2.95 -2.65 -6.15 -5.85z"/>
 </g>
 <g fill="#50474e">
  <path d="M29.25 298.30 c-6.15 -1.95 -11.10 -6.55 -14.55 -13.55 -3.65 -7.45 -4.90 -14.75 -4.10 -23.75 1.15 -12.65 5.95 -22.70 13.45 -28.25 6.25 -4.60 11.85 -4.95 19.75 -1.20 1.65 0.80 3.30 1.45 3.60 1.45 0.25 0 0.65 -0.90 0.85 -2 0.35 -1.95 1.85 -3.15 2.75 -2.15 0.55 0.60 1.60 23.25 1.05 23.80 -0.25 0.25 -0.90 0.30 -1.45 0.15 -0.75 -0.25 -1.15 -1.10 -1.60 -3.40 -0.65 -3.40 -2.40 -7.60 -4.05 -10 -1.50 -2.10 -5.05 -4.25 -8.25 -4.95 -2.30 -0.50 -3 -0.50 -5 0.30 -4.80 1.80 -7.60 5.80 -9.75 13.80 -1.05 3.75 -1.15 5.35 -1.15 14.95 0 10.40 0.05 10.90 1.35 14.85 1.65 5 4.75 9.70 7.60 11.65 2.45 1.70 6.25 2.70 8.45 2.20 3.85 -0.80 8.85 -5.15 11.70 -10.25 1.35 -2.50 2.30 -2.90 3.25 -1.40 0.65 1.05 -1.95 6.35 -5.15 10.35 -5.45 6.80 -12.20 9.50 -18.75 7.40z"/>
  <path d="M170.25 298.35 c-6.80 -2.25 -12.20 -8.05 -15.70 -16.90 -2.55 -6.45 -3.20 -9.90 -3.20 -18.45 -0.05 -8.60 0.35 -10.65 3.50 -17.75 3.35 -7.45 6.90 -11.85 11.75 -14.55 2.35 -1.30 3.15 -1.45 6.90 -1.45 3.80 0 4.60 0.20 7.60 1.65 6.50 3.20 11.60 10.35 14.20 19.90 1.20 4.40 1.35 5.85 1.40 12.95 0 8.85 -0.80 13.20 -3.70 19.65 -5.20 11.40 -14.65 17.60 -22.75 14.95z m7.30 -6.65 c0.75 -0.35 2.25 -1.70 3.30 -2.95 7.45 -8.45 7.95 -38.55 0.85 -49.80 -2.15 -3.40 -5.95 -4.95 -9.60 -3.95 -6.80 1.80 -10.50 10.65 -10.95 26.30 -0.40 11.95 1.20 20.80 4.60 26.20 3.10 4.80 7.45 6.40 11.80 4.20z"/>
  <path d="M59.30 296.70 c-0.15 -0.45 -0.30 -1.30 -0.30 -1.95 0 -1 0.35 -1.25 1.75 -1.55 1.05 -0.20 2.25 -0.90 3 -1.80 l1.25 -1.50 0 -25.30 c0 -23.75 -0.10 -25.50 -0.95 -27.40 -0.75 -1.60 -1.40 -2.25 -2.75 -2.70 -1.85 -0.60 -2.75 -2.15 -2.10 -3.80 0.25 -0.70 1.65 -0.80 12.20 -0.60 11.80 0.20 11.85 0.20 14.95 1.60 4.40 2 7.25 5.20 8.60 9.55 2.80 9.05 -0.10 18.20 -7.25 22.75 l-2.10 1.30 2.35 4.25 c1.30 2.30 4 7.30 6 11.05 4.10 7.65 6.10 10.30 9.35 12.20 2 1.20 2.25 1.50 2.10 2.90 l-0.15 1.55 -6.05 0.15 c-4.45 0.10 -6.20 -0.05 -6.55 -0.50 -0.50 -0.60 -10.40 -18.95 -14.20 -26.40 -1.40 -2.70 -1.95 -3.30 -3.10 -3.40 l-1.40 -0.15 0.15 11.50 c0.15 11.30 0.15 11.50 1.35 12.75 0.65 0.70 1.95 1.50 2.85 1.80 1.55 0.55 1.70 0.75 1.70 2.55 l0 1.95 -10.20 0 c-8.85 0 -10.25 -0.10 -10.50 -0.80z m21.65 -36.65 c2.75 -1.40 4.40 -3.80 5.35 -7.70 0.75 -3 0.75 -3.55 0 -7 -1.05 -4.75 -3 -7.55 -6.20 -8.95 -1.80 -0.80 -2.65 -0.95 -4.05 -0.60 l-1.80 0.45 -0.15 12.70 -0.10 12.70 2.45 -0.30 c1.35 -0.15 3.40 -0.75 4.50 -1.30z"/>
  <path d="M116.20 296.85 c-0.10 -0.35 -0.30 -1.35 -0.35 -2.15 -0.10 -1.40 0 -1.45 2 -1.45 1.55 0 2.45 -0.30 3.25 -1.15 1.10 -1.10 1.15 -1.45 1.30 -12.10 l0.15 -10.95 -2.70 -5.90 c-1.50 -3.25 -4.10 -9.10 -5.85 -13 -1.70 -3.90 -4.05 -8.95 -5.20 -11.25 -1.90 -3.85 -2.20 -4.20 -4.05 -4.70 -1.65 -0.45 -2.05 -0.80 -2.30 -2.15 -0.20 -1.05 -0.15 -1.70 0.25 -1.85 0.30 -0.10 5.05 -0.15 10.55 -0.10 l10 0.15 0 1.75 c0 1.50 -0.20 1.75 -1.25 1.90 -3.10 0.35 -3.50 0.60 -3.50 2.10 0 0.80 1.65 5.35 3.70 10.10 5.70 13.35 6.80 15.60 7.25 15.10 0.25 -0.25 0.70 -1.35 1.05 -2.45 0.55 -1.70 6.10 -15.25 8.25 -20.15 0.40 -0.90 0.75 -2.05 0.75 -2.60 0 -1.05 -1.35 -2 -2.90 -2 -1.40 0 -2.20 -1.20 -1.80 -2.70 l0.30 -1.30 7.60 0 c4.15 0 7.85 0.20 8.20 0.45 0.85 0.55 0.60 2.60 -0.40 3.05 -4.75 2.15 -4.70 2.15 -7 6.75 -1.25 2.50 -4.55 9.90 -7.40 16.50 l-5.10 12 0 10.25 c0 12.35 0.35 13.50 3.95 14.10 2.85 0.50 3.40 1 2.75 2.75 l-0.45 1.40 -10.40 0.15 c-8.30 0.10 -10.45 0 -10.65 -0.55z"/>
  <path fill="url(#rg1)" d="M193 227.55 c0 -1.95 0.50 -3.10 1.10 -2.75 0.30 0.20 0.25 -0.10 -0.05 -0.70 -0.80 -1.50 -0.70 -3.10 0.25 -3.10 1.20 0 2.70 0.95 2.70 1.75 0 0.40 0.25 0.75 0.50 0.75 0.30 0 0.50 -0.30 0.50 -0.70 0 -0.95 1.45 -2.40 2.05 -2.05 0.25 0.20 0.45 2.10 0.45 4.30 0 3.60 -0.10 3.95 -1 3.95 -0.85 0 -1 -0.35 -1.05 -2.35 l-0.05 -2.40 -0.55 2.15 c-0.60 2.50 -1.35 2.65 -2.50 0.50 l-0.85 -1.65 0.30 1.90 c0.30 1.65 0.20 1.85 -0.75 1.85 -0.85 0 -1.05 -0.30 -1.05 -1.45z"/>
  <path d="M42.60 132.90 c-2.85 -3.60 -6.70 -15.70 -5.85 -18.45 0.30 -0.90 0.50 -0.75 1.70 1.15 0.80 1.20 3.10 3.80 5.20 5.75 5.15 4.90 5.50 6.95 1.95 10.80 -1.40 1.50 -2.20 1.70 -3 0.75z"/>
  <path d="M54.50 122.65 c-0.60 -1.05 -1.65 -2.55 -2.35 -3.40 -3.75 -4.60 -6.75 -9.30 -7.45 -11.75 -0.60 -2 -0.75 -4.20 -0.60 -8.05 l0.15 -5.25 3.85 -7.75 c2.10 -4.25 4.30 -8.80 4.90 -10.15 1 -2.40 4.05 -12.40 4.10 -13.65 0.05 -0.35 1.90 -2.45 4.15 -4.65 5.65 -5.50 6.85 -5.35 10.15 1.25 2.85 5.80 3.60 6.90 4.95 7.80 1.70 1.15 2.40 0.60 2.85 -2 0.35 -2.30 1 -2.70 3 -1.65 1.40 0.70 1.55 0.65 2.40 -0.40 1.10 -1.35 1.15 -2.50 0.10 -4.90 -1.45 -3.45 -2.20 -7.60 -1.60 -8.90 0.30 -0.65 0.75 -1.20 1 -1.20 1.10 0 3.45 1.65 5.30 3.75 2.40 2.75 3.10 5.20 3.10 11 0 3.80 -0.15 4.50 -1.25 5.95 -0.65 0.90 -1.50 2.75 -1.80 4.10 -0.50 2.15 -0.45 2.75 0.25 4.15 0.65 1.20 1.10 1.55 1.70 1.30 0.45 -0.20 4 -1.35 7.85 -2.60 8.15 -2.65 8.80 -2.90 11.55 -4.75 2.05 -1.35 3.20 -3.35 3.20 -5.65 0 -0.55 0.30 -1.50 0.70 -2 0.65 -0.90 0.80 -0.85 4.10 0.50 1.90 0.80 3.70 1.65 3.95 1.90 0.75 0.65 -3.10 3.90 -7.10 5.95 -1.90 1 -5.75 2.50 -8.65 3.40 -6.50 2 -11.60 4.60 -13.55 6.95 -2.20 2.70 -4.05 7.70 -7.10 19.05 -2.95 11.05 -4.15 14.25 -5.75 15.65 -1 0.90 -1.05 0.90 -1.60 -0.15 -0.85 -1.55 -0.40 -4.15 1.45 -8.50 2.10 -4.85 3.10 -9.20 3.15 -13.85 0.10 -4.10 -0.20 -4.65 -2.95 -4.65 -2.05 0 -9.05 3.65 -10.70 5.55 -1.05 1.30 -1.35 1.45 -1.85 0.80 -0.35 -0.40 -1.50 -0.85 -2.55 -1.05 -1.70 -0.25 -2.45 0 -5.90 2 -2.15 1.25 -4.55 2.80 -5.40 3.40 -0.80 0.60 -2.80 1.85 -4.35 2.75 -1.60 0.90 -2.90 1.85 -2.90 2.10 0 0.25 0.30 1.25 0.70 2.20 0.90 2.15 2.65 3 11.30 5.75 6.50 2.05 6.70 2.15 5.60 2.90 -0.65 0.40 -2.15 2.15 -3.40 3.90 -2.05 2.90 -4.05 4.70 -5.15 4.70 -0.25 0 -0.95 -0.85 -1.55 -1.85z"/>
 </g>
 <g fill="#43527a">
  <path d="M27.40 297.35 c-16.30 -6.90 -21.90 -33.85 -11.30 -54.40 2 -3.95 5.80 -8.85 7.45 -9.65 0.50 -0.25 0.95 -0.65 0.95 -0.90 0 -0.20 0.35 -0.40 0.75 -0.40 0.40 0 0.75 -0.20 0.75 -0.45 0 -0.40 1.15 -1 2.65 -1.35 0.20 -0.05 0.40 -0.10 0.50 -0.20 1.05 -0.90 9.60 -0.90 10.75 0.05 0.05 0.05 0.25 0.10 0.50 0.15 0.20 0 1.90 0.80 3.80 1.75 3.75 1.85 4.30 1.70 4.30 -1.30 0 -1.15 0.30 -1.65 1 -1.90 1.60 -0.50 1.85 0 1.95 3.85 0.05 2 0.20 6 0.35 8.90 0.55 11 0.55 10.75 -0.65 10.90 -1.20 0.15 -1.10 0.30 -2.15 -4.65 -2.20 -10.15 -11.35 -16.35 -18.80 -12.70 -6.65 3.20 -9.80 12.30 -9.85 28.45 0 6.60 0.20 9.60 0.85 12.20 2.45 10.15 8.60 16.80 15.55 16.80 4.55 0 9.65 -4 13.30 -10.40 1.55 -2.65 1.60 -2.70 2.55 -1.70 0.95 0.95 0.95 1 -1.20 4.85 -2.65 4.85 -7 9.60 -10.50 11.50 -3.75 2.05 -9.40 2.30 -13.50 0.60z"/>
  <path d="M169.40 297.75 c-4.30 -1.60 -9 -5.90 -11.90 -10.95 -2 -3.55 -4.30 -10.75 -5.05 -15.75 -1.45 -10.10 1.20 -24.10 6.05 -31.70 0.80 -1.30 1.35 -2.35 1.15 -2.35 -0.20 0 0.10 -0.30 0.65 -0.70 0.50 -0.40 0.95 -1 0.95 -1.40 0 -0.35 0.35 -0.65 0.75 -0.65 0.40 -0.05 0.70 -0.35 0.60 -0.70 -0.05 -0.35 0.10 -0.50 0.40 -0.30 0.25 0.15 0.65 -0.05 0.80 -0.45 0.15 -0.45 0.60 -0.80 1 -0.80 0.40 0 0.70 -0.15 0.70 -0.40 0 -0.35 2.50 -1.65 4 -2 0.40 -0.10 2.20 -0.25 4 -0.30 9.15 -0.35 17.35 7.50 21.30 20.45 1.30 4.15 1.40 5.15 1.40 13.50 0.05 7.90 -0.10 9.50 -1.10 13.20 -2.90 10.55 -9.20 18.90 -16.05 21.30 -2.70 0.90 -7.15 0.90 -9.65 0z m7.75 -5.45 c3 -1.30 7.20 -5.60 8.30 -8.50 1.80 -4.85 2.70 -11.10 2.75 -19.05 0.10 -18.60 -5.25 -30.25 -13.90 -30.25 -7.65 0 -11.95 7.50 -13.35 23.10 -1.10 12.55 1.05 25.10 5.30 31 2.75 3.80 7.20 5.30 10.90 3.70z"/>
  <path d="M60.15 297.15 c-0.35 -0.10 -0.65 -1 -0.65 -1.95 0 -1.50 0.15 -1.70 1.40 -1.70 1.50 -0.05 2.50 -0.70 3.75 -2.50 0.75 -1.10 0.85 -3.50 0.85 -26.05 0 -17.20 -0.15 -25.30 -0.55 -26.50 -0.75 -2.15 -2.15 -3.70 -4 -4.45 -1.15 -0.50 -1.45 -0.95 -1.45 -2.20 l0 -1.60 11.40 0.10 c6.25 0.05 12 0.25 12.85 0.45 4.35 0.95 9.05 5.10 10.75 9.50 1.75 4.50 1.70 11.40 -0.10 15.35 -1.85 3.95 -3.55 6.05 -6.45 7.90 -1.35 0.90 -2.45 1.70 -2.45 1.85 0 0.10 1.30 2.60 2.95 5.55 1.60 2.95 4.35 7.95 6.05 11.10 3.80 7 5.75 9.50 8.45 10.75 1.35 0.60 2.20 1.35 2.35 2.10 0.55 2.10 -0.40 2.50 -6.20 2.60 -4.65 0.05 -5.55 -0.05 -6.20 -0.80 -0.40 -0.50 -2.20 -3.70 -4.05 -7.15 -11.95 -22.65 -12 -22.75 -13.60 -22.75 l-1.50 0 0 11.25 c0 12.95 0.10 13.35 4.10 15.05 1.65 0.70 2.15 1.15 1.95 1.75 -0.15 0.45 -0.30 1.20 -0.30 1.75 0 0.90 -0.45 0.95 -9.35 0.90 -5.20 0 -9.70 -0.15 -10 -0.30z m19.40 -36.20 c2.55 -0.90 4.85 -2.75 6.10 -5.10 0.90 -1.75 1.10 -2.90 1.10 -6.85 0 -4.20 -0.15 -5.10 -1.45 -7.65 -1.85 -3.80 -4.55 -5.85 -7.65 -5.85 -4.40 0 -4.25 -0.60 -4.05 13.55 l0.15 12.45 2.05 0 c1.15 0 2.80 -0.25 3.75 -0.55z"/>
  <path d="M116.50 296.20 c-0.90 -2.35 -0.65 -2.70 1.70 -2.70 1.65 0 2.60 -0.30 3.65 -1.20 l1.40 -1.20 -0.10 -10.95 -0.10 -10.95 -1.85 -4 c-1 -2.15 -4.15 -9.25 -7.05 -15.70 -2.85 -6.45 -5.70 -12.50 -6.30 -13.40 -0.65 -1 -1.80 -1.85 -2.90 -2.15 -1.20 -0.40 -1.95 -1 -2.30 -1.95 l-0.55 -1.45 3.85 -0.15 c2.10 -0.10 6.85 -0.20 10.55 -0.15 l6.75 0.05 0.15 1.45 c0.20 1.65 -0.50 2.25 -2.70 2.25 -3.25 0 -3.30 1.95 -0.20 8.70 0.75 1.65 3 6.80 5 11.45 2 4.60 3.75 8.25 3.90 8.15 0.35 -0.40 8.05 -18.60 9.50 -22.65 1.55 -4.25 1.35 -5.05 -1.70 -5.90 -1.65 -0.45 -1.95 -0.75 -2.10 -2 l-0.15 -1.50 7.65 0.05 c9.65 0.05 9 -0.05 8.80 1.55 -0.10 1.10 -0.50 1.50 -2.10 1.90 -3.90 1.10 -4.55 2.25 -12.75 21.40 l-5.55 12.95 0 10.90 c0 7.10 0.20 11.40 0.55 12.20 0.60 1.25 2.20 2.15 4.45 2.40 0.95 0.10 1.30 0.50 1.40 1.60 0.10 0.80 -0.10 1.60 -0.50 1.85 -0.35 0.25 -5 0.45 -10.30 0.45 l-9.60 0 -0.50 -1.30z"/>
  <path fill="url(#rg1)" d="M201.05 105.85 c0.05 -54.10 -0.05 -98.55 -0.25 -98.75 -0.20 -0.20 -32.15 -0.40 -70.95 -0.45 -52.30 -0.10 -70.60 -0.25 -70.90 -0.70 -0.15 -0.30 0.25 -1.75 1 -3.25 l1.30 -2.65 72.90 0 72.90 -0.05 -0.20 77.85 c-0.10 42.85 -0.30 78.80 -0.45 79.90 -0.15 1.10 -0.65 9 -1.10 17.50 -0.45 9.15 -1.10 17.15 -1.60 19.50 -0.40 2.20 -1 5 -1.25 6.25 -0.25 1.20 -0.70 2.45 -1 2.75 -0.35 0.35 -0.45 -29.35 -0.40 -97.90z"/>
  <path d="M125.50 139.50 c0 -0.25 1 -2 2.20 -3.85 2.85 -4.50 4.35 -7.45 6.30 -12.90 1.70 -4.80 5.95 -13.15 10.35 -20.45 1.50 -2.40 3.70 -6.35 4.90 -8.75 1.20 -2.35 3.20 -6.10 4.50 -8.30 1.95 -3.40 2.25 -4.25 2 -5.75 -0.50 -2.60 -0.35 -4.05 0.50 -5 0.45 -0.50 0.65 -1.25 0.45 -1.70 -0.45 -1.20 2.30 -1.05 4.65 0.30 l1.90 1.10 -1.45 -1.60 c-2.25 -2.40 -1.25 -1.95 3.40 1.65 4.20 3.25 7.10 6.75 5.90 7.15 -0.35 0.10 -0.60 0.40 -0.60 0.65 0 0.25 -0.75 1.50 -1.70 2.80 -3.20 4.55 -5.60 10.35 -3.55 8.65 1.50 -1.25 0.70 0.45 -3.85 8.05 -3.15 5.30 -7.75 11.85 -14.85 20.95 -11.60 15 -13.85 17.55 -14.80 17.20 -0.55 -0.25 -0.60 -0.50 -0.15 -1.20 0.35 -0.50 0.80 -0.80 1.10 -0.65 0.25 0.15 0.30 0.05 0.15 -0.20 -0.20 -0.30 0.75 -1.75 2.05 -3.25 4 -4.70 5.10 -6.20 5.10 -7.15 0 -0.45 -1 0.60 -3.90 4.05 -4.40 5.30 -8.10 8.70 -9.40 8.70 -0.65 0 -1.20 -0.20 -1.20 -0.50z"/>
  <path d="M169.80 67.55 c-3.55 -3.55 -5.70 -6.05 -5.35 -6.25 0.95 -0.60 0.65 -2.85 -0.45 -3.15 -0.70 -0.20 -1 -0.70 -1 -1.60 0.05 -1.30 0.05 -1.30 0.90 -0.30 0.50 0.55 2.35 2.30 4.20 3.90 3.30 2.85 3.35 2.85 2.90 1.30 -0.25 -0.90 -1 -2.20 -1.65 -2.90 -0.65 -0.70 -1.80 -2.20 -2.60 -3.30 l-1.50 -2 1.65 1.15 c2 1.45 2.05 0.85 0.05 -1.55 -1.90 -2.30 -1.70 -2.75 0.55 -1.10 1.95 1.45 2.05 1.50 1.70 0.55 -0.15 -0.40 0.15 -0.95 0.75 -1.30 0.65 -0.30 1.05 -1.05 1.05 -1.80 0 -1.15 -0.15 -1.25 -1.25 -1 -0.70 0.20 -1.50 0.20 -1.80 0 -0.70 -0.45 0.45 -1.70 1.60 -1.70 0.75 0 0.95 -0.35 0.95 -1.70 0 -1.25 0.30 -1.90 1.25 -2.50 0.65 -0.45 2 -2.05 3 -3.55 0.95 -1.50 2.05 -2.75 2.40 -2.75 0.35 0 1.40 0.80 2.35 1.75 1.35 1.40 1.55 1.85 1.05 2.45 -0.50 0.60 -0.45 0.70 0.35 0.45 0.55 -0.10 1.60 0.15 2.30 0.60 1.25 0.85 1.30 0.85 1.30 -0.25 0 -0.60 -1.10 -2.30 -2.65 -3.90 -4.30 -4.65 -5.05 -5.60 -4.75 -5.85 0.15 -0.15 1.80 0.45 3.70 1.30 2.70 1.25 3.60 1.45 4.30 1 1.20 -0.75 1.15 -0.80 2.85 1.55 1.05 1.45 1.55 2.65 1.55 3.90 0 3.15 -1.90 9.55 -4.30 14.40 -1.20 2.55 -2.80 6.30 -3.55 8.25 -1.40 3.95 -5.15 11.85 -5.60 11.85 -0.20 0 -3 -2.65 -6.25 -5.95z"/>
 </g>
 <g fill="#4c6091">
  <path fill="url(#rg1)" d="M202.20 169.15 c-0.15 -0.90 -0.55 -1.65 -0.80 -1.65 -0.30 0 -0.40 -29.95 -0.30 -80.35 l0.15 -80.40 -56.50 -0.25 c-60.70 -0.25 -59.25 -0.20 -59.25 -2.75 0 -0.55 -0.25 -1.30 -0.60 -1.65 -0.30 -0.30 -0.65 -0.95 -0.70 -1.35 -0.10 -0.65 6.80 -0.75 61.35 -0.75 l61.45 0 0 59.95 c0 51.20 -0.10 60.10 -0.70 60.70 -0.60 0.55 -0.80 3.65 -1 15.15 -0.50 22.55 -0.75 28.25 -1.35 30.95 -0.85 3.70 -1.35 4.35 -1.75 2.40z"/>
  <path d="M145 112.75 c-1.60 -1.95 -0.75 -4.20 7.45 -20.45 3.35 -6.55 6.40 -13.15 6.75 -14.70 0.95 -3.60 1.40 -4 3.45 -3.15 0.85 0.35 2.10 0.70 2.70 0.75 1.10 0.05 4.65 3.10 4.65 3.95 0 1.65 -11.55 21 -16.20 27.15 -5 6.65 -7.25 8.30 -8.80 6.45z"/>
  <path d="M170.60 68.35 c-5.10 -5.10 -5.20 -5.20 -5.35 -7.75 -0.10 -1.45 -0.05 -2.60 0.15 -2.60 0.20 0 1.70 1.25 3.30 2.75 1.65 1.50 3.05 2.75 3.20 2.75 0.65 0 -0.70 -3 -2.10 -4.75 -2.20 -2.75 -2.50 -3.30 -1.60 -2.95 1.15 0.45 1 -0.35 -0.45 -2.30 -0.70 -0.95 -1.25 -1.80 -1.25 -1.90 0 -0.30 1.15 0.50 3.35 2.25 2.50 2 2.80 2 3.85 0.40 1.05 -1.60 1.40 -1.55 3.55 0.30 2.25 2 2.25 1.40 0 -1.10 -0.95 -1.10 -1.75 -2.20 -1.75 -2.45 0 -0.30 -0.65 -0.50 -1.50 -0.50 -1.35 0 -1.75 0.45 -1.55 1.70 0.15 0.70 -0.50 2.30 -0.95 2.30 -0.20 0 -0.75 -0.60 -1.25 -1.30 -0.80 -1.25 -0.80 -1.35 0.30 -2.50 0.90 -0.95 1.15 -1.80 1.15 -4.10 0.05 -2.55 0.30 -3.25 2.45 -6.45 1.30 -2 2.70 -3.65 3.05 -3.65 0.95 0 3.50 2.85 2.85 3.25 -0.30 0.15 -0.90 1.15 -1.35 2.15 -1.35 3.25 -2.15 4.25 -3 3.55 -0.45 -0.35 -0.70 -0.40 -0.70 -0.05 0 0.30 0.40 0.75 0.85 1.05 0.75 0.40 1.20 -0.05 2.75 -2.50 1.05 -1.65 2.25 -3.10 2.70 -3.30 0.45 -0.15 1.35 0.25 2.20 1.10 0.85 0.80 1.65 1.30 1.80 1.10 0.75 -0.75 -0.55 -3.15 -3.20 -5.90 -3.50 -3.70 -4.10 -4.60 -2.50 -4 3.70 1.45 5.85 2.55 7.35 3.85 l1.70 1.40 -0.30 3.80 c-0.35 4.35 -1.35 7.45 -3.95 12 -1 1.80 -2.20 4.70 -2.65 6.50 -0.70 3 -5.15 13 -5.75 13 -0.15 0 -2.60 -2.35 -5.40 -5.15z"/>
 </g>
 <g fill="#6379ae">
  <path fill="url(#rg1)" d="M202.35 121.95 c-0.20 -0.65 -0.50 -26.90 -0.70 -58.30 l-0.30 -57.10 -31.55 -0.25 c-40.60 -0.30 -43.15 -0.45 -45.60 -2.55 -1.05 -0.90 -2.20 -1.25 -4.65 -1.50 -4 -0.35 -5.65 -0.80 -5.95 -1.65 -0.15 -0.50 5.45 -0.60 28.25 -0.40 15.60 0.10 33.60 0.45 39.90 0.75 6.35 0.30 14.30 0.70 17.70 0.85 l6.20 0.30 -0.35 47.10 c-0.20 25.85 -0.55 49.30 -0.85 52.05 -0.25 2.75 -0.45 6.60 -0.40 8.50 0.20 7.20 -0.05 11.55 -0.70 12.50 -0.65 0.85 -0.70 0.85 -1 -0.30z"/>
  <path d="M151.05 103.15 c-0.75 -1.50 -0.10 -3.55 4.05 -12.40 2.20 -4.65 4.55 -9.95 5.25 -11.75 0.65 -1.80 1.40 -3.45 1.65 -3.70 0.45 -0.45 5.75 1.45 6.95 2.50 1 0.90 0.45 2.40 -3.45 8.85 -5.25 8.70 -9.25 14.15 -11.75 15.85 -2.05 1.40 -2.25 1.45 -2.70 0.65z"/>
  <path d="M171.15 68.40 c-2.55 -2.50 -4.65 -4.80 -4.65 -5.15 0 -0.35 -0.35 -1.60 -0.75 -2.75 -0.40 -1.20 -0.70 -2.25 -0.60 -2.35 0.10 -0.10 1.65 1.20 3.45 2.85 1.85 1.65 3.45 3 3.60 3 0.80 0 0.10 -2.10 -1.30 -4 -3.25 -4.25 -3.15 -4.05 -2.20 -3.70 0.80 0.30 0.80 0.20 0.10 -1.50 -0.85 -2 -0.70 -2 2.15 0.10 0.95 0.70 1.80 1.05 1.90 0.75 0.10 -0.25 0.50 -0.95 0.90 -1.45 0.65 -0.90 0.75 -0.90 2.95 0.70 1.30 0.85 2.45 1.60 2.55 1.60 1.25 0 -3.50 -5.95 -5.30 -6.60 -0.75 -0.30 -0.95 -0.85 -0.95 -2.65 0 -1.25 0.15 -2.25 0.30 -2.25 0.15 0 1 0.55 1.95 1.25 l1.65 1.30 1.15 -2.35 c0.65 -1.25 1.70 -2.85 2.30 -3.50 1.40 -1.55 2.20 -1.20 4.90 2.05 1.60 2 1.85 2.55 1.60 4.10 -0.35 2.15 -2.65 5.25 -3.75 5.05 -0.45 -0.10 -1.50 -1.10 -2.35 -2.25 -0.80 -1.15 -1.70 -2.10 -1.90 -2.10 -0.60 -0.05 0.65 2.05 2.45 4.10 2 2.15 1.95 2.15 0.80 4.10 -0.50 0.85 -1.05 2.85 -1.25 4.50 -0.20 2 -0.95 4.35 -2.45 7.35 -1.20 2.40 -2.25 4.35 -2.40 4.35 -0.15 0.05 -2.35 -2 -4.85 -4.55z"/>
 </g>
 <g fill="#a28e84">
  <path d="M27.40 297.35 c-12.50 -5.30 -19.25 -22.90 -15.85 -41.35 1.90 -10.25 7.45 -19.85 13.85 -23.90 2.60 -1.65 6.95 -3.10 9.35 -3.10 1.90 0 8.05 2.05 10.80 3.60 2.30 1.30 2.95 0.90 2.95 -1.95 0 -1.40 0.20 -1.65 1.25 -1.65 1.60 0 1.60 0.15 2.05 11.25 0.15 4.95 0.35 9.70 0.40 10.50 0.05 1.20 -0.20 1.55 -1.05 1.65 -1.20 0.15 -1.10 0.30 -2.15 -4.65 -2.20 -10.15 -11.35 -16.35 -18.80 -12.70 -6.65 3.20 -9.80 12.30 -9.85 28.45 0 6.60 0.20 9.60 0.85 12.20 2.45 10.15 8.60 16.80 15.55 16.80 4.55 0 9.65 -4 13.30 -10.40 1.55 -2.65 1.60 -2.70 2.55 -1.70 0.95 0.95 0.95 1 -1.20 4.85 -2.65 4.85 -7 9.60 -10.50 11.50 -3.75 2.05 -9.40 2.30 -13.50 0.60z"/>
  <path d="M169.40 297.75 c-8.10 -2.95 -14.45 -12.60 -16.65 -25.10 -0.95 -5.40 -0.95 -10.05 0 -16.30 1.35 -9.05 4.50 -16.40 9.15 -21.45 5.45 -5.85 11.90 -7.25 18.80 -4 6.40 3 11.25 9.45 14.10 18.85 1.30 4.15 1.40 5.15 1.40 13.50 0.05 7.90 -0.10 9.50 -1.10 13.20 -2.90 10.55 -9.20 18.90 -16.05 21.30 -2.70 0.90 -7.15 0.90 -9.65 0z m7.75 -5.45 c3 -1.30 7.20 -5.60 8.30 -8.50 1.80 -4.85 2.70 -11.10 2.75 -19.05 0.10 -18.60 -5.25 -30.25 -13.90 -30.25 -7.65 0 -11.95 7.50 -13.35 23.10 -1.10 12.55 1.05 25.10 5.30 31 2.75 3.80 7.20 5.30 10.90 3.70z"/>
  <path d="M60.15 297.15 c-0.35 -0.10 -0.65 -1 -0.65 -1.95 0 -1.50 0.15 -1.70 1.40 -1.70 1.50 -0.05 2.50 -0.70 3.75 -2.50 0.75 -1.10 0.85 -3.50 0.85 -26.05 0 -17.20 -0.15 -25.30 -0.55 -26.50 -0.75 -2.15 -2.15 -3.70 -4 -4.45 -1.15 -0.50 -1.45 -0.95 -1.45 -2.10 l0 -1.45 12.40 0.15 c11.75 0.15 12.45 0.20 14.75 1.30 3.50 1.75 6.55 4.95 7.90 8.40 1.70 4.45 1.65 11.35 -0.15 15.30 -1.85 3.95 -3.55 6.05 -6.45 7.90 -1.35 0.90 -2.45 1.70 -2.45 1.85 0 0.10 1.30 2.60 2.95 5.55 1.60 2.95 4.35 7.95 6.05 11.10 3.80 7 5.75 9.50 8.45 10.75 1.35 0.60 2.20 1.35 2.35 2.10 0.55 2.10 -0.40 2.50 -6.20 2.60 -4.65 0.05 -5.55 -0.05 -6.20 -0.80 -0.40 -0.50 -2.20 -3.70 -4.05 -7.15 -11.95 -22.65 -12 -22.75 -13.60 -22.75 l-1.50 0 0 11.25 c0 12.95 0.10 13.35 4.10 15.05 1.65 0.70 2.15 1.15 1.95 1.75 -0.15 0.45 -0.30 1.20 -0.30 1.75 0 0.90 -0.45 0.95 -9.35 0.90 -5.20 0 -9.70 -0.15 -10 -0.30z m19.40 -36.20 c2.55 -0.90 4.85 -2.75 6.10 -5.10 0.90 -1.75 1.10 -2.90 1.10 -6.85 0 -4.20 -0.15 -5.10 -1.45 -7.65 -1.85 -3.80 -4.55 -5.85 -7.65 -5.85 -4.35 0 -4.15 -0.60 -4.15 13.50 l0 12.50 2.20 0 c1.15 0 2.90 -0.25 3.85 -0.55z"/>
  <path d="M116.50 296.20 c-0.90 -2.35 -0.65 -2.70 1.70 -2.70 1.65 0 2.60 -0.30 3.65 -1.20 l1.40 -1.20 -0.10 -10.95 -0.10 -10.95 -1.85 -4 c-1 -2.15 -4.15 -9.25 -7.05 -15.70 -2.85 -6.45 -5.70 -12.50 -6.30 -13.40 -0.70 -1 -1.80 -1.85 -2.95 -2.20 -1.60 -0.45 -2.35 -1.40 -2.40 -3 0 -0.25 4.65 -0.40 10.30 -0.40 l10.25 0 -0.15 1.65 c-0.15 1.45 -0.35 1.60 -1.90 1.75 -2.35 0.25 -3.15 1 -2.80 2.70 0.25 1.20 3.40 8.65 9.55 22.80 0.75 1.70 1.50 3 1.65 2.90 0.35 -0.40 8 -18.60 9.50 -22.65 1.55 -4.25 1.35 -5.05 -1.70 -5.90 -1.60 -0.40 -2 -0.80 -2.10 -1.90 l-0.15 -1.35 8 0 8.05 0 0 1.50 c0 1.25 -0.20 1.50 -1.75 1.80 -3.60 0.65 -4.55 2.30 -12.70 21.35 l-5.55 12.95 0 10.90 c0 7.10 0.20 11.40 0.55 12.20 0.60 1.25 2.20 2.15 4.45 2.40 0.95 0.10 1.30 0.50 1.40 1.60 0.10 0.80 -0.10 1.60 -0.50 1.85 -0.35 0.25 -5 0.45 -10.30 0.45 l-9.60 0 -0.50 -1.30z"/>
 </g>
 <g fill="#b19d91">
  <path d="M33.20 297.15 c-2 -0.30 -4.55 -0.85 -5.75 -1.20 -1.20 -0.40 -2.45 -0.65 -2.80 -0.60 -0.30 0 -2.05 -1.35 -3.80 -3.05 -2.55 -2.45 -3.70 -4.10 -5.50 -7.80 -2.85 -5.85 -3.80 -9.65 -4.20 -16.75 -0.70 -12.70 3.30 -24.70 10.60 -32.05 4.25 -4.25 7.20 -5.75 12 -6.05 2.90 -0.20 4.05 -0.05 6.95 1.05 1.90 0.70 4.20 1.80 5.10 2.35 2.05 1.25 2.60 0.95 3 -1.60 0.35 -2.05 1 -2.90 1.70 -2.15 0.45 0.50 1.70 22.70 1.25 23.10 -0.60 0.60 -1.50 -1.05 -2.60 -4.95 -2.15 -7.35 -5.70 -11.70 -10.95 -13.25 -3.55 -1 -6.10 -0.70 -9.10 1.15 -6.40 3.95 -9.10 12.35 -9.10 28.15 0 11.30 1.55 17.40 5.90 23.15 4.45 5.85 10.80 7.65 16.60 4.60 2.50 -1.30 5.50 -2 5.50 -1.30 -0.05 0.35 -1.85 2.35 -3.80 4.15 -0.85 0.80 -2.85 1.90 -4.50 2.55 -2.75 1.05 -3.20 1.10 -6.50 0.50z"/>
  <path d="M60.05 296.05 c-0.80 -1.45 -0.70 -1.80 0.70 -1.95 1.85 -0.15 3.55 -1.40 4.45 -3.35 1.15 -2.40 1.20 -48.20 0.05 -52.05 -0.75 -2.60 -2.20 -4.35 -4.10 -4.90 -1.25 -0.40 -2 -2.15 -1.25 -2.90 0.30 -0.30 4.75 -0.45 12.20 -0.30 13.10 0.25 14.05 0.45 18.55 4.45 3.50 3.05 4.60 6.05 4.60 12.70 0 5.30 -0.05 5.65 -1.75 9 -1.65 3.25 -4.40 6.05 -7.75 8.05 -0.90 0.50 -0.90 0.55 0.10 2 0.55 0.80 3 5.15 5.40 9.70 6.65 12.50 8.05 14.50 11.90 16.65 1.25 0.70 1.85 1.40 1.85 2.10 0 1.05 -0.30 1.10 -5.60 1.40 -3.10 0.15 -5.85 0.10 -6.05 -0.10 -0.25 -0.25 -4 -7.05 -8.35 -15.10 l-7.90 -14.70 -1.95 -0.15 -1.90 -0.15 0.10 11.30 c0.15 13 0.35 13.75 3.95 15.30 2.35 1.05 2.95 2.55 1.35 3.20 -0.50 0.20 -4.75 0.45 -9.50 0.55 -8.15 0.25 -8.60 0.20 -9.10 -0.75z m21.40 -35.65 c7.50 -3.85 8.10 -16.70 1.10 -23.05 -2.20 -2 -4.50 -2.65 -7.10 -2 l-1.70 0.45 -0.15 13.20 -0.10 13.15 2.80 -0.30 c1.60 -0.15 3.90 -0.80 5.15 -1.45z"/>
  <path d="M124.40 296.75 c-0.20 -0.20 -2.70 -0.60 -6.10 -0.95 -0.85 -0.10 -1.60 -0.40 -1.70 -0.70 -0.20 -0.60 0 -0.65 2.65 -0.90 0.85 -0.05 1.80 -0.10 2.10 -0.15 0.35 -0.05 1 -0.80 1.50 -1.65 0.80 -1.45 0.90 -3 0.85 -12.15 l0 -10.50 -7.35 -16.25 c-4.05 -8.90 -7.95 -16.95 -8.65 -17.85 -0.70 -0.90 -1.95 -1.80 -2.85 -2.05 -1.25 -0.30 -1.65 -0.70 -1.75 -1.75 l-0.15 -1.35 9.90 0.10 9.90 0.15 0 1.25 c0 1.05 -0.30 1.30 -1.75 1.50 -2.75 0.45 -3.15 0.90 -2.85 3 0.10 1 2.30 6.65 4.85 12.55 6.65 15.40 6.55 15.20 7.20 12.85 0.15 -0.65 2 -5.10 4.05 -9.90 5.40 -12.40 6.45 -15.40 5.80 -16.85 -0.30 -0.60 -1.15 -1.25 -1.90 -1.45 -1.85 -0.45 -2.65 -1.10 -2.65 -2.25 0 -0.90 0.50 -0.95 7.15 -0.95 3.90 0 7.40 0.20 7.80 0.45 1.05 0.70 0.20 2.55 -1.20 2.55 -1.55 0 -3.85 2 -5.40 4.65 -0.70 1.15 -3.95 8.45 -7.30 16.20 l-6.05 14.05 0 10.45 c0 11.75 0.35 13.30 3.40 14.60 0.85 0.40 1.60 0.90 1.60 1.10 0 0.65 -3.10 1.40 -6.55 1.60 -1.80 0.10 -3.50 0.30 -3.80 0.50 -0.30 0.20 -0.60 0.20 -0.75 0.10z"/>
  <path d="M156.10 280.40 c-1.55 -0.75 -2.70 -5.30 -3.35 -13.45 -1.25 -15.70 6.70 -33.50 16.30 -36.70 9.50 -3.15 20.20 4.10 24.45 16.55 1.15 3.35 1.25 4.40 0.40 3.90 -0.50 -0.30 -0.50 -0.20 0 0.35 0.70 0.75 0.80 1.65 0.10 1.20 -0.25 -0.15 -0.80 0.35 -1.20 1.15 -0.45 0.90 -1.40 1.60 -2.50 1.95 -2 0.60 -2 0.65 -2.60 -3.60 -0.65 -4.95 -3.10 -10.55 -5.85 -13.60 -3.95 -4.25 -7.40 -5.20 -11.70 -3.10 -3.80 1.85 -6.45 6.05 -8.20 13.05 -1.80 7.30 -1.90 23.75 -0.10 30.85 0.25 1 0.15 1.15 -0.70 0.95 -0.55 -0.15 -1.55 0.05 -2.20 0.40 -1.40 0.80 -1.40 0.80 -2.85 0.10z"/>
 </g>
</svg>