<?xml version="1.0" encoding="utf-8"?>
<!DOCTYPE svg PUBLIC "-//W3C//DTD SVG 20010904//EN" "http://www.w3.org/TR/2001/REC-SVG-20010904/DTD/svg10.dtd">
<svg version="1.0" xmlns="http://www.w3.org/2000/svg" width="700px" height="220px" viewBox="0 0 700 220" preserveAspectRatio="xMidYMid meet">
 <g fill="#ffffff">
  <path d="M562.5 217.6 c-18 -4.6 -22.9 -15.6 -22.8 -50.6 0.1 -27.9 3.2 -39.3 12.6 -46.1 7.6 -5.5 21.2 -7.8 36.2 -5.9 19.1 2.3 26.1 9.3 28 27.8 l0.7 7.2 -14 0 -14 0 -0.4 -6.6 c-0.4 -5.8 -0.8 -7 -3.2 -9 -4.2 -3.7 -10.6 -3.4 -14 0.6 -3.7 4.4 -4.1 8 -4 32.5 0 29.9 1.4 34 11.5 34 7 0 8.8 -2.2 10.2 -12.4 l1.1 -8.1 13.4 0 13.5 0 -0.6 8.8 c-0.6 10.1 -2.5 15.2 -7.5 20.5 -5.9 6 -12.3 8 -28.2 8.3 -8.7 0.2 -15.3 -0.1 -18.5 -1z"/>
  <path d="M645 217.4 c-12 -3.2 -18.5 -11.5 -19.7 -25.2 l-0.6 -7.2 13.5 0 13.5 0 0.6 5.4 c0.3 2.9 1.1 6.3 1.8 7.4 3.5 5.6 13.1 5.2 16 -0.5 3.9 -7.8 -0.6 -13.7 -16.8 -22.2 -21.9 -11.4 -26.7 -16.9 -26.8 -31 0 -9.4 1.7 -14.2 6.7 -19.7 4.9 -5.3 11.1 -8 22.1 -9.4 16 -2.2 30.5 1.3 36.6 8.7 3.1 3.7 6.1 12.8 6.1 18.1 l0 3.2 -13.4 0 -13.3 0 -0.6 -4.5 c-0.6 -6.2 -2.9 -8.5 -8.4 -8.5 -7.5 0 -10.6 5.8 -6.5 12.5 1.1 1.7 4.7 4.6 8.1 6.5 33.4 18.8 34.6 20.2 34.6 38.6 0 10.6 -0.1 11.3 -3 16 -5.8 9.2 -16.6 13.4 -34.5 13.3 -5.8 0 -13 -0.7 -16 -1.5z"/>
  <path d="M0 166.9 l0 -50.1 27.3 0.4 c30.1 0.5 34.1 1.2 41 6.9 8.1 6.6 10 15 10 41.9 -0.1 22.5 -1.6 32.1 -6.1 38.5 -7.1 10.2 -16.4 12.4 -51.4 12.5 l-20.8 0 0 -50.1z m44.9 28.7 c1.6 -1.5 3.4 -4.7 3.9 -6.9 2.9 -11.5 2.3 -40.7 -1 -47.4 -2.2 -4.4 -6 -6.5 -13.2 -7 l-6.6 -0.6 0 32.8 0 32.7 7 -0.4 c6 -0.3 7.3 -0.8 9.9 -3.2z"/>
  <path d="M108 202 l0 -15 -14 -34.5 c-7.7 -19 -14 -34.7 -14 -35 0 -0.3 6.4 -0.5 14.3 -0.5 l14.3 0 5.9 20.8 c3.2 11.4 6.2 21.4 6.6 22.2 0.9 1.8 0 4.1 8.7 -22 l6.9 -20.5 14.1 -0.3 14.1 -0.3 -1.4 3.3 c-0.7 1.8 -7.2 17.2 -14.4 34.3 l-13.1 31 0 15.7 0 15.8 -14 0 -14 0 0 -15z"/>
  <path d="M174 167 l0 -50 20.2 0.2 20.3 0.3 8.1 38.5 c4.4 21.2 8.3 39.2 8.6 40 0.4 0.8 0.7 -16.6 0.7 -38.7 l0.1 -40.3 11 0 11 0 0 50 0 50 -20.2 -0.2 -20.2 -0.3 -8.1 -39.3 c-4.5 -21.6 -8.5 -39.6 -8.9 -39.9 -0.3 -0.3 -0.6 17.4 -0.6 39.5 l0 40.2 -11 0 -11 0 0 -50z"/>
  <path d="M265.2 213.3 c0.6 -2.1 6.3 -24.5 12.8 -49.8 l11.7 -46 19.9 -0.3 20 -0.2 11.9 43.7 c6.5 24.1 12.6 46.6 13.6 50.1 l1.8 6.3 -14.7 -0.3 -14.7 -0.3 -2.1 -9.5 -2 -9.5 -13.2 -0.3 -13.1 -0.3 -2.2 10.1 -2.3 10 -14.2 0 -14.2 0 1 -3.7z m54.4 -35 c-0.3 -1 -2.6 -10.3 -5.1 -20.8 -5 -20.7 -5.3 -22 -6 -21.3 -0.3 0.3 -2.5 10.2 -4.9 22.1 l-4.3 21.7 10.4 0 c9.5 0 10.4 -0.2 9.9 -1.7z"/>
  <path d="M367 167 l0 -50 22.2 0.2 22.2 0.3 5 33.7 c2.8 18.5 5.3 33.9 5.7 34.2 0.3 0.3 2.9 -14.2 5.8 -32.2 2.9 -18 5.5 -33.5 5.7 -34.4 0.5 -1.6 2.4 -1.8 22.5 -1.8 l21.9 0 0 50 0 50 -12.5 0 -12.5 0 0 -41.2 c0 -22.6 -0.2 -40.9 -0.4 -40.7 -0.3 0.2 -3.6 17.7 -7.5 38.9 -3.9 21.2 -7.3 39.5 -7.6 40.8 -0.5 2.2 -0.8 2.2 -16 2.2 -8.5 0 -15.5 -0.3 -15.5 -0.7 0 -2.4 -14.9 -81.5 -15.4 -82 -0.3 -0.4 -0.6 18.1 -0.6 41 l0 41.7 -11.5 0 -11.5 0 0 -50z"/>
  <path d="M497 167 l0 -50 14 0 14 0 0 50 0 50 -14 0 -14 0 0 -50z"/>
  <path d="M21.7 99 c-9.7 -2.5 -15.6 -7.9 -18.3 -16.7 -3.3 -10.8 -3.5 -49.8 -0.4 -61.3 1.9 -7.1 4.8 -11.8 9 -14.9 5.7 -4.1 11.5 -5.4 21.8 -4.9 7.4 0.3 9.6 0.8 13.6 3.2 5.8 3.4 9.3 10 10.2 19.4 l0.7 6.2 -7.2 0 -7.1 0 0 -3.7 c-0.1 -9.5 -6.4 -16 -14.7 -15 -8.6 0.9 -11.7 5 -13.4 17.9 -1.4 10 -0.6 44.6 1.1 50.2 2.5 8.3 9.9 12.1 18.1 9.5 5.5 -1.8 7.7 -5 9.1 -13.2 l1.1 -6.7 6.8 0 c7.9 0 7.6 -0.4 5.8 9.5 -1.8 9.7 -5.7 15.2 -13.6 18.7 -4.8 2.1 -17.2 3.1 -22.6 1.8z"/>
  <path d="M349.3 99 c-11.2 -2.4 -16.6 -9 -18 -22 l-0.6 -6 7 0 7 0 0.7 4.3 c1.7 11.1 4.6 14.1 13.7 14.1 6.6 0.1 10.4 -2.1 12.5 -6.9 1.9 -4.6 1.7 -9.2 -0.6 -14.2 -1.6 -3.7 -3.7 -5.4 -13.7 -11.9 -16.3 -10.6 -19 -12.9 -22 -18.8 -5 -9.8 -3 -24.1 4.2 -30.4 5.3 -4.7 12.2 -6.5 22.9 -6 7.3 0.3 9.9 0.9 13.4 2.8 5.8 3.3 9.2 9.2 9.9 17 l0.6 6 -7.2 0 -7.1 0 0 -3.7 c0 -4.7 -3.1 -10 -6.6 -11.3 -3.5 -1.4 -9.4 -1.2 -12.3 0.3 -4.2 2.1 -6.3 6 -6.3 11.5 0 7.7 2.5 10.9 14.8 18.8 20.7 13.2 24.3 17.3 25.2 29.4 1.2 17.1 -7.4 26.5 -25.3 27.5 -4.4 0.2 -9.9 0 -12.2 -0.5z"/>
  <path d="M115 49.9 l0 -48.2 18.8 0.6 c10.3 0.3 20.4 1.1 22.5 1.7 9.5 2.8 14.4 12 13.5 25.1 -0.7 9.1 -3.8 14.6 -10.3 18.1 -4.2 2.2 -4.6 2.8 -3 3.3 10.2 3.1 11.4 6.7 12.9 36.8 l0.5 10.7 -6.9 0 c-8.3 0 -7.6 1.4 -8.4 -18.1 -0.3 -7.5 -1.1 -15.4 -1.8 -17.5 -1.8 -5.5 -6 -7.4 -16 -7.4 l-7.8 0 0 21.5 0 21.5 -7 0 -7 0 0 -48.1z m34.6 -7.4 c4.4 -2.8 5.8 -6.2 5.9 -13.9 0 -12.1 -4.1 -15.6 -18.5 -15.6 l-8 0 0 16.1 0 16.2 9.1 -0.6 c5.7 -0.4 10 -1.2 11.5 -2.2z"/>
  <path d="M243 79.7 l0 -18.2 -12.5 -29.4 c-6.9 -16.1 -12.5 -29.5 -12.5 -29.8 0 -0.2 3.4 -0.3 7.7 -0.1 l7.6 0.3 8.5 22.8 c4.7 12.5 8.9 22.7 9.2 22.7 0.4 0 4.7 -10.4 9.6 -23 l8.8 -23 6.9 0 c6.2 0 6.8 0.2 6.2 1.9 -0.3 1 -6.2 14.4 -13 29.7 l-12.5 27.7 0 18.4 0 18.3 -7 0 -7 0 0 -18.3z"/>
  <path d="M456 55.5 l0 -42.5 -11 0 -11 0 0 -5.5 0 -5.5 29 0 29 0 0 5.5 0 5.5 -11 0 -11 0 0 42.5 0 42.5 -7 0 -7 0 0 -42.5z"/>
  <path d="M530.4 93.8 c0.7 -2.4 6.8 -24 13.7 -48 l12.4 -43.8 9 0 9 0 13.3 47.3 c7.2 25.9 13.2 47.5 13.2 48 0 0.4 -3.1 0.7 -6.9 0.7 l-6.9 0 -2.2 -8.2 c-1.1 -4.6 -2.6 -9.8 -3.1 -11.5 l-1.1 -3.3 -15.8 0 -15.9 0 -1.4 5.3 c-0.9 2.8 -2.3 8 -3.2 11.5 l-1.8 6.2 -6.8 0 -6.8 0 1.3 -4.2z m47.6 -29.4 c0 -1.9 -12.5 -49.4 -13 -49.4 -0.3 0 -3.2 10.7 -6.4 23.8 -3.3 13 -6.1 24.3 -6.4 25 -0.3 0.9 2.6 1.2 12.7 1.2 7.2 0 13.1 -0.3 13.1 -0.6z"/>
  <path d="M653 50 l0 -48 7 0 7 0 0 43 0 43 15 0 15 0 0 5 0 5 -22 0 -22 0 0 -48z"/>
 </g>
</svg>