<?xml version="1.0" encoding="utf-8"?>
<!DOCTYPE svg PUBLIC "-//W3C//DTD SVG 20010904//EN" "http://www.w3.org/TR/2001/REC-SVG-20010904/DTD/svg10.dtd">
<svg version="1.0" xmlns="http://www.w3.org/2000/svg" width="691px" height="240px" viewBox="0 0 691 240" preserveAspectRatio="xMidYMid meet">
 <g fill="#f2f8ff">
  <path d="M589 216.8 c-3.8 -12.4 -5 -15.8 -5.9 -15.8 -0.4 0 -8.3 4.5 -17.5 10.1 l-16.8 10 -3.9 -2.5 c-2.1 -1.4 -4.3 -2.6 -4.9 -2.6 -0.5 0 -2.6 2.3 -4.6 5 -4.8 6.7 -6.3 6.3 -2.5 -0.7 1.7 -3.1 3.1 -6.2 3.1 -6.9 0 -0.7 -1.8 -2.7 -4 -4.4 -3 -2.4 -4 -3.9 -4 -6.1 0 -2.2 -0.5 -2.9 -1.9 -2.9 -1.1 0 -2.3 0.5 -2.7 1.1 -0.4 0.8 -2.8 1 -6.8 0.6 -11.5 -1 -16.3 -2.6 -21.9 -7.3 l-5.2 -4.4 -2.6 3.2 -2.7 3.2 -6.3 -1.2 c-3.5 -0.6 -8.2 -1.4 -10.4 -1.7 -8.1 -1.1 -15 -2.9 -16.6 -4.2 -1.1 -1 -5.3 -1.5 -13.6 -1.7 -10.4 -0.3 -12.6 -0.6 -16.2 -2.7 -5.2 -2.9 -6.4 -1.9 -8.3 6.6 l-1.3 6 -6.5 0.3 c-8.2 0.3 -11.6 -1.6 -15 -8.4 -1.4 -2.7 -3.1 -5.6 -3.7 -6.5 -3.7 -4.6 -4.7 -23.7 -2.3 -43.4 1.3 -10.6 3.4 -17.1 6.7 -20.5 2.1 -2.3 3.2 -2.5 13.1 -2.8 10.4 -0.4 10.8 -0.3 13.1 2.2 3.2 3.4 3.9 3.3 4.9 -0.6 0.7 -2.8 1.4 -3.4 4.8 -4 6.5 -1.1 11.1 -0.9 12.4 0.7 1.1 1.3 1.4 1.2 2.9 -0.5 1.5 -1.8 5.5 -2.5 26.6 -4.5 1.7 -0.2 7.7 -1.1 13.5 -2 5.8 -0.9 14 -1.8 18.3 -2 5.1 -0.2 8.4 -0.8 9.5 -1.8 2.7 -2.3 5.3 -3.3 12.2 -4.7 3.6 -0.7 9.1 -2.1 12.2 -3.1 8.6 -2.8 11.9 -2.5 17.4 1.7 4.5 3.5 4.8 3.6 6.2 1.8 0.8 -1.1 2.5 -4.2 3.8 -7.1 2.3 -5.1 2.5 -5.2 9.1 -7.2 3.7 -1.1 8.2 -2.3 9.8 -2.6 8.1 -1.8 13.4 -5.3 18.8 -12.7 8.1 -10.9 8.2 -11.3 5.1 -13.7 -7.6 -6 -31.5 -11.8 -43.4 -10.6 -9.4 0.9 -21.3 3.9 -32.1 7.9 -9.3 3.6 -12.9 4.3 -12.9 2.8 0 -2 3.5 -5.3 10.2 -9.8 4 -2.6 9.3 -6.1 11.7 -7.7 2.4 -1.7 6.1 -3.4 8.2 -3.9 2.2 -0.4 5.8 -1.3 8.2 -1.9 8.1 -2 30.4 -3.3 32.3 -1.7 0.7 0.5 2.2 0.4 3.8 -0.3 2.2 -1 2.9 -0.9 4.6 0.6 1.6 1.5 2.4 1.6 5.2 0.6 2.9 -1 3.4 -0.9 4.9 1 1.4 1.9 2.2 2.1 6.3 1.5 4.3 -0.7 4.8 -0.5 5.3 1.3 0.4 1.6 1.3 2.1 4.1 2.1 2.4 0 4.2 0.7 5.8 2.5 1.7 1.9 3.3 2.5 6.3 2.5 3.4 0 4 0.4 4.9 3 0.8 2 1.9 3.1 3.9 3.6 6.8 1.5 7.8 2 8.1 4.7 0.3 2.1 1 2.8 3.8 3.3 3.5 0.6 5.4 2.8 5.4 6.1 0 1.3 1.2 2.3 3.5 3.2 4.9 1.8 6.6 3.7 5.9 6.8 -0.6 2.2 0 3.2 4.2 6.8 4.8 4.2 4.9 4.4 3.7 7.5 -1.1 3 -1 3.6 1.6 6.9 5 6.4 5.4 7.8 3 10.2 l-2.1 2.1 2.6 6.9 c2.7 7.3 2.6 9.4 -0.5 10.4 -2.2 0.7 -2.3 2 -0.8 9.9 1.2 6.5 0.4 8.3 -3.9 8.8 -2.4 0.3 -2.7 0.8 -3 4.3 -0.5 7.4 -0.9 8.3 -4.5 8.7 -2.8 0.3 -3.4 0.8 -4.7 4.8 -2.1 6.2 -2.7 7 -5.9 7 -2.3 0 -3.1 0.7 -4.4 4 -1.3 3.3 -2 4 -4.4 4 -2.1 0.1 -3.5 1 -5.6 4.1 -2.3 3.3 -3.1 3.8 -5.3 3.3 -1.9 -0.5 -3.2 0 -5.4 2.1 -2.3 2.2 -3.4 2.6 -5.6 2.1 -2 -0.5 -3.2 -0.2 -5 1.5 -1.5 1.4 -3 2 -4.5 1.6 -1.2 -0.3 -3.2 0.1 -4.5 0.9 -1.6 1.1 -2.8 1.3 -4 0.6 -1.3 -0.7 -2.5 -0.6 -4.1 0.5 -1.9 1.3 -2.6 1.3 -3.8 0.3 -1.2 -1 -2.2 -1 -3.9 -0.2 -1.3 0.6 -3.3 0.8 -4.5 0.5 -1.2 -0.3 -2.1 -0.1 -2.1 0.5 0 0.6 -0.7 1.8 -1.6 2.7 -1.6 1.5 -1.5 2.7 1.3 16.1 1.7 7.9 2.7 14.4 2.2 14.4 -0.4 0 -2.2 -4.6 -3.9 -10.2z m26.8 -81.3 c3.7 -1.6 8.2 -5.2 8.2 -6.6 0 -0.5 -2.7 -2.6 -5.9 -4.8 -4.5 -3.1 -6.1 -3.7 -6.9 -2.8 -1 1.2 -4.2 12.4 -4.2 14.6 0 1.6 4.5 1.4 8.8 -0.4z"/>
  <path d="M602.8 217.1 c-2.8 -2.5 -3.3 -3.6 -3.3 -7.4 0 -7.8 7.3 -12.7 14.6 -9.7 4.1 1.7 5.9 4.7 5.9 9.8 0 9.3 -10.1 13.6 -17.2 7.3z"/>
  <path d="M115 210.2 c-2.7 -11.3 -7.1 -19.2 -10.5 -19.2 -1.3 0 -2.7 -0.5 -3 -1.1 -0.4 -0.5 -1.9 -0.7 -3.4 -0.4 -1.9 0.4 -3.2 0.1 -4.1 -1 -0.9 -1.1 -2.2 -1.4 -3.9 -1 -2.1 0.4 -3.3 -0.1 -5.5 -2.4 -2.4 -2.5 -3.1 -2.8 -4.8 -1.8 -1.7 1 -2.2 0.9 -3.2 -0.7 -0.6 -1 -1.8 -2.8 -2.8 -4 -1.6 -2 -1.7 -2 -3.7 -0.2 -2.9 2.6 -4.6 1.5 -6.1 -4.1 -1.8 -6.5 -1.7 -6.5 -5 -4.8 -3.2 1.7 -4 0.8 -4 -4.8 0 -6.1 -1 -7.9 -3.9 -7.2 -1.4 0.4 -3 0.7 -3.6 0.8 -0.6 0.1 -1 -2.4 -1 -6.3 l0 -6.5 -3.7 0.3 c-2.1 0.2 -3.8 0.1 -3.8 -0.3 0 -0.3 0.7 -3.5 1.6 -7 2 -8 1.5 -9.5 -3.1 -9.5 -4.6 0 -4.6 -2 0 -8.4 1.9 -2.7 3.5 -5.5 3.5 -6.1 0 -0.6 -1.7 -1.8 -3.7 -2.8 -2.9 -1.3 -3.9 -1.4 -4.5 -0.4 -0.5 0.7 -1 -0.1 -1.4 -2.2 l-0.7 -3.4 -1.3 2.5 c-1.5 2.9 -5.2 20.1 -6.1 28.8 -0.3 3.3 -0.9 6.3 -1.3 6.5 -0.8 0.5 -2.3 -8.5 -3.6 -21.4 -0.4 -4.1 -1 -5.8 -1.5 -4.9 -1 1.8 -2.9 24 -3 36.2 l-0.1 9.1 -1.9 -7.5 c-3 -12.3 -4.2 -26.2 -3.6 -43 1.3 -36.4 11.9 -65.1 31.2 -84.4 19.9 -19.9 40.9 -24.2 63 -13.1 7.5 3.8 9.5 5.3 11.9 9.1 1.5 2.5 2.6 4.8 2.2 5.1 -0.3 0.3 -3.2 -0.2 -6.3 -1.2 -9.1 -2.7 -10.8 -2.8 -16.2 -1 -7.8 2.5 -12.8 10.2 -11.9 18 0.3 2.7 0.7 3 4.1 3.3 3.7 0.3 3.8 0.2 3.5 -2.5 -0.3 -2.8 -0.3 -2.8 5 -2.5 5.1 0.3 5.2 0.3 5.2 -2.3 0 -2.4 0.3 -2.6 2.3 -2.1 6.7 1.9 6.5 1.9 6.9 -0.6 0.3 -2.3 0.9 -2.4 5.9 -1.2 2.1 0.5 2.7 0.2 3.2 -1.6 0.5 -2 0.7 -2.1 3.6 -0.5 2.7 1.3 3.2 1.4 3.7 0.1 0.4 -1 2 -1.3 5.6 -1.2 2.8 0.2 7.6 -0.2 10.6 -0.7 l5.6 -1 -2.5 -2 c-1.3 -1.1 -9.7 -5.5 -18.6 -9.8 -9 -4.3 -16.3 -8.3 -16.3 -8.9 0 -2.2 12.1 -0.2 30.2 5 5.6 1.6 10.4 2.8 10.6 2.5 0.2 -0.2 -0.9 -1.5 -2.4 -2.9 -1.6 -1.3 -2.6 -2.7 -2.2 -3.1 1.8 -1.9 23.9 7.7 36.8 15.9 3.6 2.3 8.4 5 10.7 6 2.4 1.1 5.4 3.4 6.8 5.1 1.7 2.4 4.3 3.9 8.7 5.4 10.7 3.6 13.6 2.4 12.1 -5 -0.8 -3.9 1.1 -3.7 3 0.4 2.9 6.2 4.7 11 4.7 12.5 0 0.9 -1.5 2.8 -3.2 4.2 l-3.2 2.7 -3.6 -1.8 c-3.4 -1.8 -9 -2.8 -18.1 -3.3 -2.5 -0.2 -5 -0.6 -5.5 -0.9 -0.6 -0.3 -1.6 -0.2 -2.4 0.3 -1.1 0.7 -0.6 1.7 2.3 4.9 5.3 5.9 4.8 7.7 -1.3 4.6 -2.6 -1.4 -5.4 -0.5 -3.1 1 0.6 0.3 0.8 1.2 0.4 2 -0.3 0.8 -0.1 1.5 0.5 1.5 0.6 0 1.3 1.3 1.7 3 0.4 1.6 1.3 3 2.1 3 0.8 0 1.4 0.5 1.4 1.1 0 0.6 1 1.9 2.1 2.8 2.1 1.7 2.1 1.8 0.4 4.4 -3.1 4.8 -5.4 3.6 -13.2 -7.1 -4 -5.3 -8.8 -11.3 -10.7 -13.1 -3.5 -3.3 -3.6 -3.4 -5.5 -1.7 -1.1 1 -2.6 3.4 -3.2 5.4 l-1.2 3.5 -1.9 -2.7 c-4.3 -5.8 -10.4 -6.5 -16.4 -2 -1.7 1.3 -4.6 2.7 -6.5 3 -1.9 0.4 -5.4 2.5 -8 4.8 -2.5 2.3 -5.4 4.6 -6.4 5.2 -2.8 1.6 -0.7 3.8 5 5.4 l4.5 1.3 5.4 -4.7 c3 -2.5 6.1 -4.6 7 -4.6 0.9 0 4.2 -1.3 7.4 -2.8 5.7 -2.9 5.7 -2.9 10.9 -1.3 3.7 1.2 6 2.7 8.2 5.5 1.7 2.1 3.1 4.3 3.1 4.8 0 0.5 -2.3 0.6 -5.2 0.2 -5.2 -0.7 -5.3 -0.7 -3.5 1.3 1.1 1.3 1.8 3.9 2 7.6 0.2 5.2 0.4 5.7 2.5 5.7 2.6 0 16.3 2.9 31.6 6.6 10.8 2.6 13.8 4.1 17.4 8.5 3 3.8 4.6 3.6 7 -0.4 l1.9 -3.4 10.4 1.4 c5.7 0.7 11 1.5 11.7 1.8 1.1 0.4 4.9 7.9 8.2 16.3 0.7 1.7 1.8 3.2 2.5 3.2 0.7 0 2.1 -2.8 3.3 -6.2 2.8 -8.9 5.1 -10.3 15.5 -10.2 10.2 0.1 15.8 1.6 20.1 5.5 l3.4 3 2.5 -2.4 c4.9 -5 24.3 -4.4 29.8 0.9 l2.7 2.6 0.4 -2.3 c0.3 -2.3 0.7 -2.4 7.3 -2.4 l7 0 2 4.3 c1.2 2.4 2.5 4.5 3 4.5 0.6 0.1 1.2 -1.8 1.5 -4.3 l0.5 -4.5 7 0 7 0 0.4 4 c0.4 4.4 -1.5 32.8 -3.3 50 l-1.1 11 -6.2 0.3 c-5.7 0.3 -6.3 0.1 -7.9 -2.3 -1.7 -2.6 -1.7 -2.6 -3.1 -0.5 -1.3 1.8 -2.3 2 -7.1 1.8 l-5.7 -0.3 -0.3 -3.5 c-0.5 -5.2 -1.6 -5.5 -4.5 -1.1 -2.9 4.4 -3.8 4.8 -14.1 5.4 -8.1 0.6 -12.5 -0.5 -14.8 -3.6 l-1.7 -2.2 -3.6 3.5 -3.6 3.5 -11.7 0.2 c-6.4 0.1 -15 0.7 -19.1 1.3 -6.9 1.1 -7.5 1 -9.5 -0.9 l-2 -2.1 -3.1 3 c-2.7 2.7 -3.8 3 -11 3.4 -4.4 0.2 -10.7 1 -14 1.6 -3.3 0.7 -7.9 1.3 -10.2 1.5 -2.3 0.2 -4.6 0.6 -5.1 0.9 -0.7 0.4 -20.1 4.6 -21.5 4.6 -0.3 0 -1.7 -2.5 -3.2 -5.5 -1.4 -3 -3.1 -5.5 -3.8 -5.5 -0.6 0 -4.9 3.8 -9.6 8.4 -9.9 9.6 -14.2 12.1 -23.7 13.6 -8.2 1.4 -14.9 3.2 -26.2 7.1 -4.6 1.6 -8.7 2.9 -9.2 2.9 -0.4 0 -1.8 -4 -3 -8.8z m-69.6 -110.7 c0.6 -1.6 -5.1 -6.8 -6.5 -6 -0.5 0.4 -1.6 3.2 -2.5 6.3 -0.9 3.1 -1.9 6.3 -2.2 7.1 -0.3 0.7 2 -0.3 5.1 -2.4 3 -2 5.8 -4.3 6.1 -5z m123.6 0 c1.5 -1.9 -0.3 -4.5 -3.1 -4.5 -2.7 0 -3.3 1.9 -1.3 4.1 2.1 2.3 2.8 2.4 4.4 0.4z"/>
 </g>
 <g fill="#f6de21">
  <path d="M590.5 221.3 c-0.9 -3.2 -2.8 -9.5 -4.1 -14 l-2.5 -8.1 -17.7 10.8 -17.7 10.9 -4.3 -3.6 c-2.4 -1.9 -4.5 -3.4 -4.6 -3.2 -0.2 0.2 -2 3 -4 6.2 -2 3.1 -4.1 5.7 -4.7 5.7 -0.9 0 1 -3.8 4.8 -9.5 2.1 -3.1 1.6 -4.2 -3.1 -7.7 -4.3 -3.1 -4.4 -3.5 -3.9 -7.2 0.6 -3.7 0.5 -3.8 -1.8 -3.1 -1.3 0.4 -3.2 1.4 -4.2 2.3 -1.5 1.4 -2.7 1.4 -9.1 0.3 -11.9 -2 -14.2 -2.9 -20 -8.2 l-5.4 -4.9 -1.2 3.5 c-1.5 4.6 -2.2 4.9 -7.8 3.6 -2.6 -0.6 -7.8 -1.6 -11.7 -2.1 -12.5 -1.8 -14 -2.2 -16.6 -4.7 -2.3 -2.1 -3 -2.3 -4.9 -1.3 -1.5 0.8 -4.9 0.9 -10.8 0.5 -9.8 -0.8 -14.5 -2.4 -16.1 -5.4 -1.1 -2 -1.1 -2 -3.5 0.3 -1.6 1.7 -2.6 4.2 -3.2 8.7 l-0.9 6.4 -6.7 0 c-8.1 0 -10.8 -1.7 -14.9 -9.4 -1.6 -3 -3.4 -5.9 -3.9 -6.6 -0.5 -0.6 -1.4 -3.5 -1.9 -6.5 -0.5 -3 -1.1 -6.2 -1.3 -7 -0.4 -2.3 1.2 -25.7 2.3 -33 0.6 -3.6 1.6 -7.4 2.3 -8.5 0.7 -1.1 1.6 -3.2 1.9 -4.6 0.9 -3.7 4.9 -5.2 15.2 -5.6 8.1 -0.4 9.2 -0.3 11.2 1.6 1.2 1.2 2.8 4 3.4 6.4 l1.2 4.2 1.2 -6.3 c0.6 -3.4 1.6 -6.6 2.1 -7.1 0.5 -0.5 3.9 -1.1 7.6 -1.5 l6.7 -0.7 0.7 2.8 c1.1 5.4 1.7 5.9 2.4 2.6 0.4 -1.8 1.3 -3.9 1.9 -4.6 1.5 -1.9 15.2 -3.1 16.3 -1.4 0.6 0.9 1.1 0.7 1.9 -0.6 1.2 -2 8.9 -2.5 8.9 -0.4 0 0.7 0.5 0.5 1 -0.5 0.6 -1 2.9 -1.9 6.2 -2.3 2.9 -0.3 10.1 -1.3 16 -2.1 8.5 -1.2 11.1 -1.2 12.6 -0.3 1.7 1.1 2.3 0.9 4.3 -1.5 1.7 -1.9 4.5 -3.3 9.2 -4.5 3.7 -1 7 -1.5 7.2 -1 0.3 0.4 2 0 3.8 -1.1 1.8 -1 5.7 -2.4 8.9 -3 5.2 -1.2 5.9 -1.1 9.3 1 2 1.2 4.3 3.3 5.2 4.6 0.8 1.3 1.9 2.4 2.3 2.4 0.9 0 5.2 -6.8 5.6 -8.6 0.9 -4.7 3.1 -6.8 9.8 -9.1 3.9 -1.3 8.1 -2.3 9.4 -2.3 3.2 0 14.1 -5.1 14.7 -7 0.3 -0.8 1.9 -3.1 3.6 -5 3.2 -3.7 3 -2.5 -0.5 2.2 -1.1 1.5 -1.7 3 -1.4 3.3 0.7 0.7 5 -6.4 5.2 -8.5 0 -0.9 1.6 -3.5 3.5 -5.8 1.8 -2.4 3.2 -4.5 3 -4.7 -1.5 -1.4 -15.8 -7.7 -21.9 -9.7 -6.3 -1.9 -9.6 -2.3 -21 -2.3 -15.1 0 -20.2 1 -38.3 7.8 -5.9 2.2 -11.1 3.7 -11.4 3.3 -0.9 -0.9 3.3 -5.1 9.1 -8.9 15.8 -10.4 19.6 -12.6 21.1 -12.1 0.8 0.4 2.7 -0.1 4.1 -1.1 1.8 -1.2 2.9 -1.4 3.7 -0.6 0.7 0.7 1.9 0.4 3.9 -1 2.4 -1.8 2.9 -1.8 3.4 -0.5 0.5 1.4 0.9 1.4 3.6 0 2.1 -1.1 3.4 -1.2 4.1 -0.5 0.7 0.7 1.9 0.5 4 -0.5 2.4 -1.3 3.1 -1.4 3.8 -0.3 0.7 1.1 1.4 1.1 4.1 0.1 2.9 -1.1 3.5 -1 4.6 0.5 1.2 1.6 1.4 1.6 4.2 -0.1 2.6 -1.5 3.1 -1.5 3.6 -0.2 0.8 2.2 3.8 2.8 6.7 1.5 2.1 -1 2.8 -0.8 4.6 1 1.9 1.9 2.9 2.1 6.5 1.6 3.9 -0.6 4.4 -0.5 4.9 1.5 0.5 2 1.1 2.2 4.5 1.7 3.4 -0.4 4.1 -0.2 5 1.8 0.8 1.7 2.2 2.4 6.1 2.9 4 0.5 5.1 1.1 5.1 2.5 0 2.4 1.7 3.7 6 4.6 6.5 1.2 6.9 1.5 6.7 4.2 -0.2 2.2 0.3 2.8 2.9 3.3 4.5 1 5.4 1.8 5.4 4.9 0 2.5 0.7 3.1 5 4.9 5.1 2.1 5.9 3.6 4 7.1 -0.8 1.5 0 2.4 4.5 5.6 5.9 4 6.3 4.9 4 8.3 -1.5 2 -1.4 2.4 2.5 7.3 4.6 5.8 4.8 7.1 1.8 9.1 l-2.2 1.5 2.7 6.4 c3.4 8 3.4 9.7 0.1 10.9 -2.3 0.9 -2.5 1.4 -2 4.3 0.3 1.7 0.9 5.5 1.2 8.4 l0.7 5.2 -3.9 0.3 -3.9 0.3 -0.5 6.5 -0.5 6.5 -3.5 0 c-2.7 0 -3.5 0.4 -3.8 2 -1.4 8.2 -2.1 9.4 -5.9 9.7 -3.3 0.3 -3.8 0.7 -5.1 4.7 -1.3 4 -1.6 4.3 -4.3 3.7 -2.5 -0.5 -3.1 -0.1 -5 3.4 -2.2 3.9 -5.1 5.2 -6.5 2.9 -0.4 -0.7 -2.1 0.3 -4.4 2.6 -3.4 3.3 -4 3.5 -5.8 2.4 -1.9 -1.2 -2.5 -1 -5.1 1.5 -2.6 2.5 -3.3 2.7 -4.6 1.6 -1.3 -1.1 -1.9 -0.9 -3.8 0.8 -2.2 2 -2.4 2.1 -4 0.5 -1.6 -1.6 -1.8 -1.5 -4.3 0.8 -2.4 2.2 -2.6 2.3 -3.8 0.7 -1.6 -2.2 -2.5 -2.2 -4.9 -0.1 -1.8 1.7 -1.9 1.7 -3.3 -0.1 -0.7 -1.1 -1.5 -1.8 -1.6 -1.5 -0.2 0.2 -1.3 1.8 -2.4 3.4 -2.4 3.4 -2.2 5.2 2.4 24.3 2.2 9.3 1.2 11.2 -1.3 2.5z m-49.5 -25.1 c8 -5.7 10 -7.7 13.1 -13.2 l3.7 -6.5 -6.4 -1.9 c-3.5 -1.1 -6.4 -2.3 -6.4 -2.7 0 -0.5 2.1 -0.1 4.8 0.7 9.5 2.9 8.5 3.3 13.1 -5.1 2.4 -4.2 4.1 -7.8 3.9 -8 -0.2 -0.2 -4.5 0.4 -9.6 1.4 l-9.3 1.6 -2.5 4.3 c-1.4 2.4 -2.8 4.1 -3 3.9 -0.3 -0.2 0.5 -2.1 1.7 -4.1 1.2 -2 2 -3.8 1.8 -4 -0.2 -0.2 -1.8 0.1 -3.5 0.5 -2 0.6 -4.1 2.3 -5.8 4.9 -1.4 2.2 -2.6 4.1 -2.6 4.3 0 0.3 1.2 0.3 2.8 0.1 2.5 -0.3 2.4 -0.3 -0.5 0.8 -3.6 1.2 -3.7 1.7 -4.8 17.3 -0.5 8 -0.5 8 1 4 0.8 -2.2 2.6 -7.5 4.1 -11.7 1.4 -4.3 2.9 -7.8 3.4 -7.8 0.9 0 -7.6 24 -9 25.4 -1.2 1.2 -1.3 2.6 -0.2 2.6 0.4 0 5 -3.1 10.2 -6.8z m48.3 -6.1 c0.3 -1.6 0.9 -4.2 1.3 -5.7 0.5 -2.4 0.4 -2.7 -0.7 -1.6 -0.7 0.6 -2.1 1.2 -3.1 1.2 -1.6 0 -1.8 0.5 -1.2 3.8 1.1 6.1 2.8 7.2 3.7 2.3z m-10.1 -4.8 c-0.5 -1 -1.2 -3.4 -1.5 -5.3 -0.3 -1.9 -1.3 -6.2 -2.2 -9.5 l-1.8 -6 -2.4 7 -2.3 7 2.7 2 c1.5 1.1 3.9 3 5.3 4.2 3.1 2.7 3.3 2.8 2.2 0.6z m-10.2 -12.2 c1.1 -3 1.9 -5.6 1.6 -5.8 -0.2 -0.2 -2.6 3.2 -5.4 7.7 l-5.1 8 3.4 -2.3 c2.4 -1.5 4 -3.8 5.5 -7.6z m22.2 0.2 c5 -1 4 -3 -3.4 -7.3 -3.9 -2.2 -7.3 -3.8 -7.6 -3.6 -0.5 0.5 1.5 9.5 2.9 13.4 l0.9 2.3 2.2 -2.1 c1.3 -1.2 3.5 -2.4 5 -2.7z m7 -15.8 c0.9 -3.3 1.6 -6.1 1.4 -6.3 -0.7 -0.6 -15.6 4.2 -15.4 5 0.5 1.3 10.2 7.7 11.3 7.4 0.5 -0.1 1.7 -2.9 2.7 -6.1z m-51.9 2.4 c1.3 -0.6 4 -3.8 6 -7.2 3.2 -5.6 3.4 -6.3 2 -7.4 -1.4 -1.1 -2.4 -0.2 -7 6.7 -2.9 4.4 -5.3 8.2 -5.3 8.5 0 0.8 1.7 0.6 4.3 -0.6z m13.2 -4.2 l6.9 -2.3 -4.6 -3.2 -4.6 -3.2 -3.1 5 c-1.7 2.8 -3.1 5.2 -3.1 5.5 0 0.9 1.5 0.6 8.5 -1.8z m-11.3 -7.4 l1.6 -2.8 -3.6 0.1 c-6.7 0.1 -6.9 0.3 -3.7 2.9 1.7 1.4 3.2 2.5 3.5 2.5 0.3 0 1.3 -1.2 2.2 -2.7z m-131.2 0.2 c0 -0.8 -0.4 -1.5 -1 -1.5 -0.5 0 -1 0.7 -1 1.5 0 0.8 0.5 1.5 1 1.5 0.6 0 1 -0.7 1 -1.5z m175.5 -0.5 c3.9 -0.6 7.5 -1.4 8.1 -1.8 1.1 -0.8 8.2 -27.2 8.3 -31.2 0 -1.4 0.2 -4 0.3 -5.9 0.5 -5.8 -1.8 -4.5 -6.5 3.6 -8.5 14.7 -20.7 36.4 -20.7 36.9 0 0.3 0.8 0.3 1.8 0 0.9 -0.2 4.9 -1 8.7 -1.6z m-24 -7.5 c-0.7 -4.2 -1.5 -7.8 -1.7 -8.1 -0.3 -0.3 -2 1.8 -3.7 4.7 -1.8 2.8 -3 5.4 -2.7 5.7 0.9 0.8 8 5.1 8.7 5.2 0.3 0 0 -3.4 -0.6 -7.5z m9.9 1.4 c1.5 -2.2 6 -13.5 10 -25 6.1 -17.5 7 -20.9 5.6 -20.9 -2.3 0 -8 2 -8 2.8 0 0.4 -3.8 6.9 -8.5 14.5 l-8.4 13.8 3.2 9.4 c1.7 5.2 3.2 9.5 3.3 9.5 0.1 0 1.3 -1.8 2.8 -4.1z m-15.9 -6.5 c3.3 -5.7 5.3 -11.4 4 -11.4 -0.2 0 -2.9 3.7 -6 8.2 -4.2 6.1 -5.3 8.3 -4.3 8.9 2.1 1.4 2.2 1.2 6.3 -5.7z m54.7 -0.1 c6.2 -2.7 9.7 -5.8 8.2 -7.2 -0.5 -0.4 -4 -2.9 -7.7 -5.4 -4.4 -3.1 -6.9 -4.3 -7.2 -3.4 -0.2 0.6 -1.3 4.5 -2.4 8.5 -1.1 4.1 -2.3 8.3 -2.7 9.4 -0.5 1.8 -0.3 1.9 2.8 1.3 1.8 -0.4 5.9 -1.8 9 -3.2z m-21.6 -19.1 l9.3 -13.7 -3.2 -2.7 c-1.7 -1.6 -3.4 -2.8 -3.7 -2.8 -0.3 0 -2 3.9 -3.8 8.8 -6.7 18.4 -9.1 25.5 -8.5 24.8 0.4 -0.3 4.8 -6.8 9.9 -14.4z m-20.6 -1.4 c3 -5 6.5 -10.8 7.8 -13 1.6 -2.6 1.9 -3.6 0.8 -3.2 -1.9 0.7 -15.6 21.5 -15.6 23.7 0 3.3 1.5 1.6 7 -7.5z m28.7 -41 c1.2 -1.6 5.4 -12 5 -12.4 -0.1 -0.1 -1.9 2.9 -4 6.7 -2.1 3.8 -3.4 6.9 -2.9 6.9 0.5 0 1.4 -0.6 1.9 -1.2z m5.9 -0.7 c0.5 -0.5 4.4 -2.1 8.7 -3.6 l7.7 -2.8 -6.2 -4.8 c-3.5 -2.7 -6.7 -4.8 -7.2 -4.6 -0.7 0.2 -4 8 -6 14.5 -0.8 2.3 1 3.1 3 1.3z"/>
  <path d="M117.5 217.7 c-0.2 -0.7 -1.4 -4.9 -2.5 -9.5 -2.8 -11.3 -8.1 -20.5 -10.4 -18.2 -0.6 0.6 -1.6 0.4 -2.8 -0.7 -1.5 -1.4 -2.3 -1.5 -3.7 -0.6 -1.5 1 -2.3 0.7 -4.2 -1.3 -2.2 -2.3 -2.4 -2.4 -3.6 -0.8 -1.2 1.7 -1.6 1.5 -5.3 -2.1 -3.8 -3.7 -4.1 -3.8 -5.4 -2 -1.3 1.8 -1.5 1.7 -3.4 -1.5 -3.8 -6.3 -4.2 -6.5 -6.8 -3.3 -2.9 3.4 -3.7 2.6 -5.3 -5.8 l-1.2 -5.9 -2.9 2.2 c-1.7 1.2 -3.3 1.8 -3.7 1.4 -0.4 -0.4 -0.9 -3.6 -1.1 -7.1 -0.2 -3.6 -0.7 -6.5 -1 -6.5 -0.3 0 -2 0.5 -3.9 1.2 -1.8 0.6 -3.5 1 -3.7 0.7 -0.3 -0.3 0.1 -3 0.8 -6.1 1.6 -7 1.1 -8.2 -3.3 -6.7 -1.7 0.6 -3.5 0.8 -3.9 0.5 -0.3 -0.4 0.2 -3.7 1.1 -7.4 0.9 -3.7 1.7 -7.2 1.7 -7.9 0 -0.7 -1.8 -1.3 -4.2 -1.5 -2.3 -0.2 -4.3 -0.8 -4.5 -1.4 -0.2 -0.6 1.7 -3.7 4.2 -6.9 5.9 -7.6 5.9 -7.5 -0.7 -8.9 -4.2 -0.9 -3.4 -2.9 2.9 -7.3 6.2 -4.2 7.9 -7.6 4.4 -8.8 -3 -0.9 -4.6 -3.2 -3.2 -4.8 1.2 -1.5 0.5 -2.7 -1.4 -2.7 -0.6 0 -2.6 4.8 -4.4 10.8 -1.8 5.9 -3.4 11.2 -3.6 11.7 -0.2 0.6 -0.4 -2.1 -0.5 -6 0 -4.5 -0.4 -6.5 -0.9 -5.5 -1.7 3 -6 22 -7.2 32.1 -0.7 5.7 -1.6 10.8 -2 11.3 -1.2 1.4 -2.4 -12.2 -2.4 -28.6 0 -8.6 -0.3 -15.4 -0.6 -15 -2 2.4 -4.8 29.8 -4.9 48.7 -0.1 15.8 -0.9 15.5 -3.6 -1.1 -2.3 -14.2 -2.4 -41 -0.1 -54.4 7.9 -46.7 34.8 -80.3 66.2 -82.7 9.2 -0.7 16.2 0.8 26 5.8 6.3 3.2 8.7 5 11.2 8.7 1.8 2.5 3.1 4.7 2.9 4.9 -0.3 0.4 -9.4 -2.5 -12.2 -3.9 -2.5 -1.2 -7 -0.4 -13.6 2.4 -3.7 1.6 -5.2 2.9 -6.8 6.2 -2.2 4.7 -4 13 -3.1 14.4 0.3 0.5 3 1.2 6 1.6 4.9 0.6 5.3 0.6 4.6 -1.1 -2.2 -5.3 -2.1 -5.6 2.1 -5 2.1 0.3 4.9 0.9 6.2 1.3 2.1 0.6 2.2 0.5 1.2 -2.1 -1.4 -3.8 -0.6 -4.2 4.7 -2.3 l4.5 1.6 -0.6 -2.9 c-0.6 -3.4 1.2 -3.8 5.4 -1.4 3.5 2 4 1.9 4 -1 0 -3 0.4 -3.1 4 -0.5 2.8 2 4.2 1.8 3.3 -0.6 -0.6 -1.6 2.2 -2 3.2 -0.4 0.7 1.2 3.6 1.4 3.4 0.3 -0.3 -2.1 0.3 -2.2 2.6 -0.7 2.3 1.5 2.5 1.5 2.5 0 0 -1.9 0.4 -2 3.2 -0.5 1.5 0.8 2.2 0.8 2.8 -0.1 0.6 -0.9 1.2 -0.9 3 0 1.8 0.9 2.4 0.9 3 0 0.6 -0.9 1.2 -0.9 3 0 1.2 0.6 2.4 1 2.6 0.7 0.7 -0.7 -12.4 -7.7 -29.6 -15.7 -8.5 -4 -15.7 -7.4 -15.9 -7.6 -4.2 -4 27.6 3.5 44.8 10.5 4.1 1.7 7.6 2.9 7.8 2.8 0.1 -0.2 -3.5 -2.8 -8.2 -5.8 -4.7 -3 -8.5 -5.7 -8.5 -6.1 0 -2.6 27.7 9.9 37.9 17.1 1.5 1.1 5.2 3 8.2 4.4 3 1.3 6.3 3.6 7.3 5.1 2.2 3.4 11.1 7.5 17.9 8.3 l5 0.6 -0.5 -5.6 c-0.3 -3.2 -0.3 -5.7 -0.1 -5.7 0.2 0 1.5 2.6 2.9 5.7 1.4 3.2 2.9 6.6 3.5 7.5 1.3 2.6 1.1 4.8 -0.5 4.8 -0.8 0 -2.2 1 -3.1 2.3 -1.2 1.5 -1.9 1.8 -2.2 0.9 -0.3 -0.6 -0.9 -1 -1.4 -0.6 -0.5 0.3 -0.9 -0.2 -0.9 -1 0 -1.9 -2 -2.2 -2 -0.3 0 0.6 -0.7 0.3 -1.6 -0.8 -1.2 -1.6 -1.6 -1.7 -2.3 -0.6 -0.6 0.9 -1.1 1 -1.5 0.2 -0.4 -0.6 -2.1 -0.9 -3.9 -0.7 -1.8 0.2 -3.5 -0.1 -3.9 -0.8 -0.6 -0.8 -1.1 -0.7 -1.8 0.4 -0.7 1.1 -1 1.2 -1 0.2 0 -0.9 -0.7 -1.1 -2 -0.7 -1.2 0.4 -2 0.2 -2 -0.5 0 -0.6 -0.4 -0.9 -0.9 -0.6 -0.5 0.4 -1.2 0 -1.5 -0.6 -0.4 -0.9 -0.8 -0.9 -1.1 -0.2 -0.3 0.6 -2.5 0.9 -5 0.7 -4.8 -0.4 -6.2 1.1 -2 2.1 2.7 0.7 12.2 9.2 11.3 10.1 -0.3 0.3 -3.5 -1 -7.2 -3 -5.4 -3 -6.6 -3.4 -6.6 -2 0 0.9 0.9 1.9 2 2.2 1.5 0.4 1.9 1.1 1.5 2.4 -0.5 1.5 -0.3 1.8 1.2 1.2 1.5 -0.5 1.6 -0.3 0.6 0.8 -1.7 1.7 -1.6 2.9 0.2 2.9 0.9 0 1.2 0.6 0.9 1.5 -0.4 0.9 0 1.5 1 1.5 1 0 1.3 0.6 1 1.5 -0.4 0.9 0 1.5 1 1.5 1 0 1.3 0.6 1 1.5 -0.4 1 0 1.5 1.6 1.5 1.1 0 1.8 0.4 1.5 1 -0.3 0.5 -0.1 1 0.5 1 0.6 0 0.4 1 -0.6 2.5 -0.9 1.4 -2.2 2.5 -3 2.5 -0.7 0 -3.1 -2.6 -5.3 -5.7 -4.7 -7 -8.7 -12.1 -14.2 -18 -3.9 -4.3 -4.2 -4.4 -6 -2.7 -1.1 0.9 -2.4 3.4 -3 5.4 l-1.1 3.8 -4 -4 c-3 -3 -4.5 -3.8 -6.1 -3.4 -1.2 0.3 -3 0.6 -3.9 0.6 -0.9 0 -2.3 0.6 -3 1.3 -3 2.9 -6.4 4.7 -9 4.7 -1.8 0 -4.1 1.4 -7.1 4.3 -2.5 2.3 -5.9 5.3 -7.7 6.6 l-3.3 2.5 6.9 2.3 c3.7 1.3 7 2.3 7.3 2.3 0.4 0 3.2 -2.3 6.4 -5 3.2 -2.8 6.8 -5 7.9 -5 1.2 0 4 -1.1 6.4 -2.5 4 -2.4 4.5 -2.4 9.2 -1.2 3.9 1 5.8 2.2 8.7 5.7 2 2.4 3.3 4.6 2.8 4.7 -0.5 0.2 -4 -0.8 -7.8 -2.2 -3.9 -1.4 -7.4 -2.5 -7.8 -2.5 -0.5 0 1.1 1.6 3.5 3.6 4.6 3.9 5.5 5.8 5.7 11.7 0.1 4.1 -0.4 4.5 -2.9 2.2 -1.6 -1.4 -2.1 -1.4 -5.5 0.7 -2.4 1.4 -3.3 2.3 -2.4 2.6 0.8 0.3 2.7 1.6 4.2 3 l2.8 2.6 3.3 -3.6 3.4 -3.6 8.3 1.9 c4.6 1 9.8 2.1 11.4 2.3 8.2 1 14.5 3 14.6 4.5 0 1 0.2 1.2 0.6 0.4 1.3 -3.3 10.5 1.4 14.8 7.6 1.5 2.3 2.9 4.1 3.1 4.1 0.2 0 1.3 -1.8 2.4 -3.9 1.1 -2.2 2.4 -4.3 3 -4.6 1.5 -0.9 20.2 1.5 21.9 2.8 1.4 1.2 5 8.8 7.1 15.2 0.7 2.2 2 5.1 2.8 6.4 1.5 2.3 1.6 2.1 3.8 -5.5 2.9 -10.7 3.1 -11 6.5 -12.4 4.1 -1.7 21.3 -0.5 25.4 1.8 1.7 1 3.9 3.6 5.1 5.9 l2.1 4.1 1.2 -3.4 c2.1 -5.9 4.6 -6.8 16.9 -6 8.6 0.5 11 1 12.6 2.5 3 3.1 4.6 8.9 4.6 17.5 0 4.4 0.3 7.7 0.6 7.3 0.3 -0.3 0.6 -6.2 0.5 -13 -0.1 -9.1 0.3 -12.6 1.2 -13 0.6 -0.2 3.7 -0.2 6.8 0 l5.6 0.5 2.7 8.7 c4 12.5 4 12.6 4.6 1.1 l0.5 -10.5 6.5 0.3 c3.6 0.2 6.7 0.6 6.9 0.8 0.2 0.2 -0.2 7.4 -0.9 16.1 -0.7 8.7 -1.3 17.8 -1.5 20.3 -0.6 13.1 -1.8 25.6 -2.5 26.5 -0.5 0.6 -3.5 0.9 -6.7 0.7 l-5.9 -0.4 -1.9 -5.1 -2 -5.2 -0.5 5 -0.5 5 -5.7 0.2 -5.8 0.2 0 -4.2 c-0.1 -9.1 -1.2 -32.2 -1.6 -32.6 -0.2 -0.2 -0.4 4.4 -0.4 10.4 0 8.5 -0.4 12 -2.1 16.6 -3.1 8.6 -4.2 9.2 -16.3 9.7 l-10.3 0.4 -2 -2.8 c-1.1 -1.6 -2.2 -3.6 -2.5 -4.4 -0.3 -1 -1.4 -0.1 -3.3 2.8 -1.5 2.3 -3.7 4.4 -4.9 4.7 -5.5 1 -14.5 1.3 -18.1 0.5 -2.3 -0.5 -4.4 -0.5 -5 0 -0.6 0.5 -4.4 1.3 -8.4 1.8 l-7.3 0.9 -1 -2.9 c-1.3 -3.6 -1.8 -3.5 -4.6 0.6 -2.4 3.6 -5.4 4.5 -14.2 4.6 -2.5 0.1 -8.5 0.9 -13.5 1.9 -5.7 1.2 -9.2 1.5 -9.6 0.9 -0.4 -0.6 -1.6 -0.4 -3 0.5 -1.3 0.8 -5.5 2 -9.4 2.7 -3.8 0.7 -8.1 1.7 -9.4 2.2 -2.6 1 -5.1 -0.5 -5.1 -3 0 -0.8 -1.2 -3.5 -2.6 -5.9 l-2.6 -4.5 -8.9 9.6 c-10.2 10.8 -16.2 14.4 -25.5 15.3 -3.3 0.3 -12.3 2.7 -20.2 5.3 -9.8 3.3 -14.4 4.5 -14.7 3.7z m127.5 -40.4 c0 -1.7 -0.4 -3.5 -1 -3.8 -0.6 -0.4 -0.7 0.5 -0.4 2.3 0.4 1.8 0 4.1 -1 6 -2.2 4.3 -2 5.3 0.4 1.7 1.1 -1.6 2 -4.4 2 -6.2z m-57.5 -43.2 c-2.1 -4.3 -2.9 -3.9 -0.8 0.4 0.9 1.9 1.8 3.3 2.1 3.1 0.2 -0.2 -0.4 -1.8 -1.3 -3.5z m-25.5 -46.6 c0 -0.5 -0.4 -1.7 -0.9 -2.4 -0.8 -1.3 -1.5 -1.2 -4.5 0.4 -2 1.1 -3.6 2.3 -3.6 2.7 0 0.3 2 0.6 4.5 0.5 2.5 -0.1 4.5 -0.6 4.5 -1.2z m35 -45.5 c0 -1.4 -4.8 -3.5 -5.8 -2.6 -0.8 0.9 2.6 3.6 4.5 3.6 0.7 0 1.3 -0.5 1.3 -1z"/>
  <path d="M366.3 102.5 c5.3 -1.8 6 -3 2 -4 -1.6 -0.3 -4.5 -1.8 -6.7 -3.3 -4.8 -3.3 -12 -4.2 -24.1 -3 -10.3 1 -26.5 4.7 -34.4 7.8 -3 1.1 -5.9 1.9 -6.5 1.6 -0.6 -0.2 -0.3 -0.5 0.7 -0.5 3.6 -0.2 1.5 -2.1 -2.2 -2.1 -6.1 0 -16.8 -2.5 -25.6 -6.1 -7.8 -3.1 -8.3 -3.2 -18.8 -2.5 -8.6 0.5 -12.1 0.3 -16.7 -1 -5.4 -1.5 -5.8 -1.8 -4.7 -3.5 1.1 -1.7 0.2 -2.9 -7.8 -10.3 -7.1 -6.6 -8.4 -8.3 -6.4 -7.9 1.6 0.3 6.8 -1.1 13.5 -3.7 13 -5 22.1 -6.2 28.4 -3.6 7.2 2.9 21.1 1.5 23.4 -2.3 1.2 -1.9 -1.5 -5.2 -5.7 -7 l-4.2 -1.8 5.9 -0.8 c11.1 -1.4 21.2 -0.1 34.2 4.5 13.7 4.9 17.4 5.7 17.4 4.1 0 -0.6 -0.7 -1.4 -1.5 -1.7 -3.2 -1.3 -1.2 -2.2 7.1 -3.4 10.1 -1.4 18 -0.8 23.4 2 7.1 3.6 26.4 4.7 42.3 2.4 4 -0.6 5.1 -2.4 1.5 -2.4 -1.3 -0.1 -3.9 -0.9 -5.8 -2 l-3.5 -1.9 8.2 -0.1 c9.1 0 14.5 -0.9 27.8 -4.8 6.2 -1.8 11.5 -2.6 17.1 -2.6 7.2 -0.1 8.6 0.2 11.7 2.4 8.3 6 11 14.5 6.7 21.4 -1.2 2 -2.5 3.6 -2.8 3.6 -0.4 0.1 -2 1.1 -3.6 2.5 -2.5 2 -2.8 2.6 -1.7 3.9 1.8 2.2 0.5 7.1 -3 11 -4.8 5.6 -11.6 7.8 -25.9 8.7 -6.9 0.4 -13.4 1 -14.4 1.5 -1.4 0.5 -1.7 0.4 -1.2 -0.4 1.1 -1.8 -0.4 -1.5 -7.5 1.4 -5 2.1 -9.2 2.8 -18.9 3.5 -6.9 0.5 -14.7 1.2 -17.5 1.4 l-5 0.5 4.8 -1.5z m79 -13.8 c3.6 -2.2 7.7 -7 7.7 -9.2 0 -0.5 -1.9 0.9 -4.2 3.2 -2.4 2.2 -5.3 4.6 -6.5 5.2 -2.2 1.1 -3.2 3.1 -1.5 3.1 0.4 0 2.4 -1 4.5 -2.3z"/>
  <path d="M337.5 99.4 c5.2 -2.5 8.2 -3.4 12 -3.3 l5 0 -7 2.5 c-15.7 5.6 -20.6 6 -10 0.8z"/>
  <path d="M256.7 99.2 c-1.3 -0.6 -0.1 -1.1 4.2 -2.1 4.7 -1 6.7 -1.1 9.8 -0.1 2.1 0.7 4.1 1.5 4.5 1.9 1 0.9 -16.3 1.1 -18.5 0.3z"/>
  <path d="M367.9 51.3 c-1.4 -0.2 -4 -2 -5.8 -3.8 l-3.3 -3.5 4.1 0 c2.8 0 5.5 0.9 8.8 3 2.6 1.7 5.4 3 6.2 3.1 2.2 0.1 -3 1.7 -5.4 1.7 -1.1 -0.1 -3.2 -0.3 -4.6 -0.5z"/>
 </g>
 <g fill="#9e73be">
  <path d="M592 226.6 c0 -0.2 -1.4 -5 -3 -10.6 -1.7 -5.6 -2.8 -10.5 -2.5 -10.8 0.3 -0.3 0.5 0.1 0.5 0.8 0 0.7 0.7 2.1 1.5 3 1.7 1.9 5.6 18 4.4 18 -0.5 0 -0.9 -0.2 -0.9 -0.4z"/>
  <path d="M532.1 222.3 c1.2 -2.1 2.9 -4.7 3.6 -5.8 2.1 -3.1 1.6 -4.2 -3.1 -7.7 -4.3 -3.1 -4.4 -3.5 -3.9 -7.2 0.6 -3.7 0.5 -3.8 -1.8 -3.1 -1.3 0.4 -3.2 1.4 -4.2 2.3 -1.5 1.4 -2.7 1.4 -9.1 0.3 -11.9 -2 -14.2 -2.9 -20 -8.2 l-5.4 -4.9 -1.2 3.5 c-1.5 4.6 -2.2 4.9 -7.8 3.6 -2.6 -0.6 -7.8 -1.6 -11.7 -2.1 -12.5 -1.8 -14 -2.2 -16.6 -4.7 -2.3 -2.1 -3 -2.3 -4.9 -1.3 -1.5 0.8 -4.9 0.9 -10.8 0.5 -9.8 -0.8 -14.5 -2.4 -16.1 -5.4 -1.1 -2 -1.1 -2 -3.5 0.3 -1.6 1.7 -2.6 4.2 -3.2 8.7 l-0.9 6.4 -6.7 0 c-8.1 0 -10.8 -1.7 -14.9 -9.4 -1.6 -3 -3.4 -5.9 -3.9 -6.6 -0.5 -0.6 -1.4 -3.5 -1.9 -6.5 -0.5 -3 -1.1 -6.2 -1.3 -7 -0.4 -2.3 1.2 -25.7 2.3 -33 0.6 -3.6 1.6 -7.4 2.3 -8.5 0.7 -1.1 1.6 -3.2 1.9 -4.6 0.9 -3.7 4.9 -5.2 15.2 -5.6 8.1 -0.4 9.2 -0.3 11.2 1.6 1.2 1.2 2.8 4 3.4 6.4 l1.2 4.2 1.2 -6.3 c0.6 -3.4 1.6 -6.6 2.1 -7.1 0.5 -0.5 3.9 -1.1 7.6 -1.5 l6.7 -0.7 0.7 2.8 c1.1 5.4 1.7 5.9 2.4 2.6 0.4 -1.8 1.3 -3.9 1.9 -4.6 1.5 -1.9 15.2 -3.1 16.3 -1.4 0.6 0.9 1.1 0.7 1.9 -0.6 1.2 -2 8.9 -2.5 8.9 -0.4 0 0.7 0.5 0.5 1 -0.5 0.6 -1 2.9 -1.9 6.2 -2.3 2.9 -0.3 10.1 -1.3 16 -2.1 8.5 -1.2 11.1 -1.2 12.6 -0.3 1.7 1.1 2.3 0.9 4.3 -1.5 1.7 -1.9 4.5 -3.3 9.2 -4.5 3.7 -1 7 -1.5 7.2 -1 0.3 0.4 2 0 3.8 -1.1 1.8 -1 5.7 -2.4 8.9 -3 5.2 -1.2 5.9 -1.1 9.3 1 2 1.2 4.3 3.3 5.2 4.6 0.8 1.3 1.9 2.4 2.3 2.4 0.9 0 5.2 -6.8 5.6 -8.6 0.9 -4.7 3.1 -6.8 9.8 -9.1 3.9 -1.3 8.1 -2.3 9.4 -2.3 3.2 0 14.1 -5.1 14.7 -7 0.3 -0.8 1.9 -3.1 3.6 -5 3.2 -3.7 3 -2.5 -0.5 2.2 -1.1 1.5 -1.7 3 -1.4 3.3 0.7 0.7 5 -6.4 5.2 -8.5 0 -0.9 1.6 -3.5 3.5 -5.8 1.8 -2.4 3.2 -4.5 3 -4.7 -1.5 -1.4 -15.8 -7.7 -21.9 -9.7 -6.3 -1.9 -9.6 -2.3 -21 -2.3 -15.1 0 -20.2 1 -38.3 7.8 -5.9 2.2 -11.1 3.7 -11.4 3.3 -0.9 -0.9 3.3 -5.1 9.1 -8.9 15.8 -10.4 19.6 -12.6 21.1 -12.1 0.8 0.4 2.7 -0.1 4.1 -1.1 1.8 -1.2 2.9 -1.4 3.7 -0.6 0.7 0.7 1.9 0.4 3.9 -1 2.4 -1.8 2.9 -1.8 3.4 -0.5 0.5 1.4 0.9 1.4 3.6 0 2.1 -1.1 3.4 -1.2 4.1 -0.5 0.7 0.7 1.9 0.5 4 -0.5 2.4 -1.3 3.1 -1.4 3.8 -0.3 0.7 1.1 1.4 1.1 4.1 0.1 2.9 -1.1 3.5 -1 4.6 0.5 1.2 1.6 1.4 1.6 4.2 -0.1 2.6 -1.5 3.1 -1.5 3.6 -0.2 0.8 2.2 3.8 2.8 6.7 1.5 2.1 -1 2.8 -0.8 4.6 1 1.9 1.9 2.9 2.1 6.5 1.6 3.9 -0.6 4.4 -0.5 4.9 1.5 0.5 2 1.1 2.2 4.5 1.7 3.4 -0.4 4.1 -0.2 5 1.8 0.8 1.7 2.2 2.4 6.1 2.9 4 0.5 5.1 1.1 5.1 2.5 0 2.4 1.7 3.7 6 4.6 6.5 1.2 6.9 1.5 6.7 4.2 -0.2 2.2 0.3 2.8 2.9 3.3 4.5 1 5.4 1.8 5.4 4.9 0 2.5 0.7 3.1 5 4.9 5.1 2.1 5.9 3.6 4 7.1 -0.8 1.5 0 2.4 4.5 5.6 5.9 4 6.3 4.9 4 8.3 -1.5 2 -1.4 2.4 2.5 7.3 4.6 5.8 4.8 7.1 1.8 9.1 l-2.2 1.5 2.7 6.4 c3.4 8 3.4 9.7 0.1 10.9 -2.3 0.9 -2.5 1.4 -2 4.3 0.3 1.7 0.9 5.5 1.2 8.4 l0.7 5.2 -3.9 0.3 -3.9 0.3 -0.5 6.5 -0.5 6.5 -3.5 0 c-2.7 0 -3.5 0.4 -3.8 2 -1.4 8.2 -2.1 9.4 -5.9 9.7 -3.3 0.3 -3.8 0.7 -5.1 4.7 -1.3 4 -1.6 4.3 -4.3 3.7 -2.5 -0.5 -3.1 -0.1 -5 3.4 -2.2 3.9 -5.1 5.2 -6.5 2.9 -0.4 -0.7 -2.1 0.3 -4.4 2.6 -3.4 3.3 -4 3.5 -5.8 2.4 -1.9 -1.2 -2.5 -1 -5.1 1.5 -2.6 2.5 -3.3 2.7 -4.6 1.6 -1.3 -1.1 -1.9 -0.9 -3.8 0.8 -2.2 2 -2.4 2.1 -4 0.5 -1.6 -1.6 -1.8 -1.5 -4.3 0.8 -2.4 2.2 -2.6 2.3 -3.8 0.7 -1.6 -2.2 -2.5 -2.2 -4.9 -0.1 -1.8 1.7 -2 1.7 -3.4 -0.2 -1 -1.3 -1.7 -1.6 -2 -0.8 -0.2 0.7 -1.4 2.4 -2.6 3.9 l-2.1 2.7 -1.8 -8.9 c-1 -4.9 -2.1 -10.5 -2.3 -12.4 -0.5 -3 -0.4 -3.2 0.5 -1.2 l1 2.3 2.2 -2.1 c1.3 -1.2 3.5 -2.4 5 -2.7 4.9 -1 4.1 -3 -2.7 -6.9 -3.6 -1.9 -6.5 -3.8 -6.5 -4 0 -0.6 1.2 0.1 16.5 8.6 23.8 13.3 23.8 12.9 0.5 -3 -19.1 -13 -17.5 -11.8 -16.7 -12.7 0.4 -0.3 1.3 0 2 0.9 2.2 2.7 10.9 8 11.7 7.2 1.6 -1.8 3.9 -11.8 2.9 -12.5 -0.6 -0.3 1.7 -1.4 5.1 -2.3 7.8 -2.2 7.1 -3.3 -1.1 -1.7 -3.3 0.7 -6.3 1 -6.5 0.8 -0.3 -0.2 0.8 -0.7 2.3 -1 2.7 -0.5 3 -1.2 6.5 -14.9 2 -7.9 3.6 -15.4 3.7 -16.8 0 -1.4 0.2 -4.1 0.3 -6 0.5 -6.7 -2.4 -3.6 -11.7 12.8 -5.1 8.9 -9.6 16.6 -10 17 -1.1 0.9 -1.3 1.3 10.5 -19.6 7.3 -12.9 10.6 -17.9 11.3 -17 0.6 0.9 0.7 0.8 0.3 -0.5 -0.3 -1 -0.6 -2.2 -0.6 -2.7 0 -1.8 -3.3 -4 -6.1 -4 -1.6 0 -2.9 0.3 -2.9 0.6 0 1 5.4 4.9 6.3 4.6 0.4 -0.1 0.3 0.8 -0.4 2 -1.7 3.2 -19.1 28.8 -19.6 28.8 -0.6 0 1.2 -2.9 10.1 -16 l8.5 -12.5 -2.5 -2.3 c-1.4 -1.2 -3 -1.9 -3.6 -1.6 -0.7 0.4 -0.8 0.2 -0.4 -0.4 0.4 -0.7 0.3 -1.2 -0.1 -1.2 -1 0 -1.6 1.6 -8 19.5 -2.5 7.2 -4.6 13.7 -4.6 14.5 0 0.8 -2.4 5 -5.2 9.3 -3.9 5.7 -5.4 7.4 -5.9 6.2 -0.3 -0.9 -0.6 -2.2 -0.5 -2.8 0 -0.7 0.4 -0.4 0.8 0.7 1.4 3.5 6 -5.9 13.5 -27.5 7.8 -22.4 7.8 -22.3 1 -19.8 -2.2 0.7 -4.3 3.4 -8.3 10.2 -11.1 18.8 -12.1 20.1 -13.5 18.2 -1.1 -1.6 -1.9 -0.9 -7 6.5 -4.3 6.3 -5.4 8.5 -4.4 9.1 2.1 1.4 2.2 1.2 6.2 -5.6 4.1 -7 5.6 -8 5.6 -3.7 0 1.8 -0.3 2.3 -0.9 1.4 -0.6 -1 -1.7 0.1 -4.1 3.9 -2.8 4.6 -3 5.4 -1.7 6.3 0.8 0.6 2.4 1.7 3.4 2.4 1 0.7 -2.9 -1.1 -8.7 -4.1 -5.8 -3 -10.4 -5.9 -10.4 -6.3 0.1 -0.5 -0.7 -2.1 -1.8 -3.6 -1.5 -2.2 -2.7 -2.8 -5.6 -2.8 -3.4 0.1 -3.5 0.2 -1.5 1.3 1.2 0.7 2.2 1.7 2.3 2.2 0.1 0.6 0.7 1.7 1.3 2.5 0.9 1.1 0.4 1 -1.5 -0.3 -2.1 -1.3 -2.8 -1.4 -2.8 -0.4 0 0.7 0.3 1.7 0.8 2.3 0.4 0.5 -1 -0.8 -3.2 -2.8 -2.6 -2.6 -4.7 -3.8 -6.8 -3.8 -2.6 0 -2.8 0.2 -1.8 2 0.6 1.1 3.8 4.2 7.1 7 4.4 3.6 6.8 5 9.1 5 l3.1 0 -2.3 -2.5 -2.4 -2.5 3.1 1.1 c1.7 0.6 3.4 1.7 3.7 2.5 0.6 1.5 3.6 2 3.6 0.6 0 -0.4 -0.6 -1.4 -1.2 -2.1 -0.7 -0.8 3.3 1.7 8.9 5.5 5.6 3.7 10.1 7 9.9 7.2 -0.2 0.2 -2.7 -1.3 -5.4 -3.3 l-5 -3.5 -3.2 5.1 c-2.5 4.1 -2.9 5.4 -1.8 6 0.9 0.6 0.9 0.9 0.1 0.9 -2.6 0 -6.7 2.1 -5.6 2.8 0.9 0.6 0.5 2 -1.3 5.1 -1.4 2.3 -2.8 4 -3 3.8 -0.3 -0.2 0.5 -2.1 1.7 -4.1 1.2 -2 2 -3.8 1.8 -4 -0.2 -0.2 -1.8 0.1 -3.5 0.5 -2 0.6 -4.1 2.3 -5.8 4.9 -1.4 2.2 -2.6 4.1 -2.6 4.3 0 0.3 1.2 0.3 2.8 0.1 2.5 -0.3 2.4 -0.3 -0.5 0.8 -3.6 1.2 -3.7 1.7 -4.8 17.3 -0.5 8 -0.5 8 1 4 0.8 -2.2 2.6 -7.5 4.1 -11.7 1.4 -4.3 2.9 -7.8 3.4 -7.8 0.9 0 -7.5 23.7 -9.2 25.7 -3 3.7 1.1 1.9 9.9 -4.3 8.4 -5.9 10.2 -7.8 13.4 -13.4 l3.7 -6.5 -6.4 -1.9 c-3.5 -1.1 -6.4 -2.3 -6.4 -2.7 0 -0.5 2.1 -0.1 4.8 0.7 9.6 2.9 8.5 3.4 13.3 -5.5 2.4 -4.4 4.5 -7.8 4.7 -7.6 0.2 0.2 -6 11.8 -13.8 25.7 -7.9 13.9 -14.5 25.6 -14.7 26.1 -0.2 0.4 -0.2 0.7 0.2 0.7 0.3 0 4.4 -6 9.2 -13.2 26.5 -40.9 24.7 -38.3 25.4 -35.7 9 30.5 10.9 37.3 10.4 37.7 -0.3 0.3 -0.5 0 -0.5 -0.6 0 -0.6 -8 3.8 -17.7 9.8 l-17.8 10.9 -4.3 -3.6 c-2.4 -1.9 -4.5 -3.4 -4.6 -3.2 -0.2 0.2 -2 3 -4 6.2 -4 6.2 -7.2 8 -3.5 2z m-10.1 -24.5 c0 -1.2 -1.2 -3.3 -2.7 -4.6 -2.7 -2.3 -2.7 -2.3 -0.3 -1.2 1.4 0.7 3.4 2.3 4.6 3.6 2 2.4 2.1 2.4 4.1 0.7 1.6 -1.4 2.2 -3.5 2.7 -9.4 l0.7 -7.7 -6.3 -2.1 c-7.3 -2.5 -7.8 -2.5 -7.8 -0.7 0 2.3 -5.1 7.8 -8.7 9.3 l-3.3 1.3 1.6 3.3 c0.9 1.7 2.8 4.7 4.2 6.5 2.1 2.7 3 3.2 6.8 3.2 3.9 0 4.4 -0.3 4.4 -2.2z m-12 0.4 c0 -0.4 -2.4 -3.1 -5.2 -5.9 -4.5 -4.3 -6 -5.1 -10 -5.6 -2.7 -0.2 -4.8 -0.2 -4.8 0.2 0 0.4 2 2.6 4.4 5 3 3 6 4.8 9.3 5.7 5.9 1.6 6.3 1.6 6.3 0.6z m-112 -5.7 c-1.4 -2.5 -3.4 -3.3 -4.5 -1.6 -0.6 1 4.5 5.4 5.3 4.6 0.3 -0.3 -0.1 -1.6 -0.8 -3z m10 1.5 c-0.8 -1.4 -2.1 -2 -4.5 -2 -2.8 0 -3.5 0.4 -3.5 2 0 1.7 0.7 2 4.5 2 4.3 0 4.5 -0.1 3.5 -2z m1.9 -2.6 c-1.4 -1.8 -2.4 -1.1 -1.5 1.1 0.3 0.9 1.1 1.3 1.6 1 0.8 -0.5 0.7 -1.1 -0.1 -2.1z m69.8 0.7 c0 -1.1 -0.5 -1.9 -1 -1.8 -0.5 0.1 -1.4 -1.4 -2 -3.3 -1 -2.9 -1.7 -3.6 -4.4 -3.8 -4.1 -0.4 -4.3 1.1 -0.5 5.2 2.5 2.9 2.5 2.9 0.2 1.1 -1.4 -1.1 -4.1 -3.4 -6 -5.1 -2.1 -2 -5 -3.5 -7.5 -3.8 -7.6 -1.3 -12.5 -1.5 -12.5 -0.6 0 0.6 1.9 2.9 4.3 5.4 4.1 4.2 4.5 4.4 13.2 5.5 7.5 1 15.4 2.4 16.2 3 0.1 0 0.1 -0.8 0 -1.8z m6.3 -1.6 c1 -3.2 0.9 -3.8 -1.7 -7.1 -2.4 -3.2 -2.8 -4.6 -2.6 -9.1 0.2 -2.9 0.1 -5.3 -0.2 -5.3 -0.6 0 -3.1 5.7 -4.5 10.3 -1.1 3.6 -1 4 2.4 8.4 2 2.6 3.6 5 3.6 5.5 0 2.2 2 0.4 3 -2.7z m103.3 -0.4 c0.3 -1.6 0.9 -4.2 1.3 -5.7 0.5 -2.4 0.4 -2.7 -0.7 -1.6 -0.7 0.6 -2.1 1.2 -3.1 1.2 -1.6 0 -1.8 0.5 -1.2 3.8 1.1 6.1 2.8 7.2 3.7 2.3z m-177.3 -2.4 c0 -1.5 -2.9 -5.7 -3 -4.2 0 0.6 0.3 2 0.6 3.3 0.7 2.4 2.4 3.1 2.4 0.9z m167.2 -2.4 c-0.5 -1 -1.2 -3.4 -1.5 -5.3 -0.3 -1.9 -1.3 -6.2 -2.2 -9.5 l-1.8 -6 -2.4 7 -2.3 7 2.7 2 c1.5 1.1 3.9 3 5.3 4.2 3.1 2.7 3.3 2.8 2.2 0.6z m-132.8 0.1 c1.4 -0.5 1.4 -0.9 -0.4 -3.3 -5.6 -7.6 -5.3 -7.3 -8.5 -5.7 -1.8 1 -5.6 1.6 -9.2 1.6 -3.5 0 -6.3 0.4 -6.3 0.8 0 0.4 0.6 2 1.3 3.5 1 2.2 1.9 2.7 6.2 3 9.5 0.7 15.3 0.7 16.9 0.1z m-31 -4.3 c1.7 -1.9 1.7 -2.2 -0.7 -8.1 -2.4 -5.9 -2.4 -6 -3 -3.1 -0.4 1.7 -0.2 4.3 0.3 5.7 1.5 3.7 1.2 4 -1 1.1 -1.8 -2.3 -2.3 -2.4 -5.5 -1.4 -4.5 1.3 -4.5 2.7 0 2.7 2.8 0 3.8 0.5 4.7 2.5 1.3 3 2.9 3.2 5.2 0.6z m153.6 -8 c1.1 -3 1.9 -5.6 1.6 -5.8 -0.2 -0.2 -2.6 3.2 -5.4 7.7 l-5.1 8 3.4 -2.3 c2.4 -1.5 4 -3.8 5.5 -7.6z m-180 3.8 c0 -0.9 -0.7 -1.9 -1.5 -2.3 -1.1 -0.4 -1.5 0.2 -1.5 2.3 0 1.5 0.3 3.1 0.7 3.4 0.8 0.9 2.3 -1.3 2.3 -3.4z m142.3 -1.1 c0.4 -1.3 3.6 -7 7.3 -12.8 l6.6 -10.4 -6.3 -6 -6.4 -6 -0.5 3.5 c-0.4 1.9 -1.3 4.8 -2.2 6.4 -3.6 6.8 -8.7 19.7 -8.2 20.8 0.5 1.2 7.4 6.6 8.5 6.7 0.4 0 0.9 -1 1.2 -2.2z m-82.6 -17.5 c0.3 -1.3 0.1 -2.3 -0.5 -2.3 -1.1 0 -4.2 11.6 -4.1 15.2 0 2 2.8 -5.9 4.6 -12.9z m57 4.8 c2.4 -5.4 2.4 -5.4 0.5 -7.4 -1.9 -1.9 -2 -1.8 -5.2 5.8 -2.5 6.1 -2.9 8 -1.9 8.6 2 1.2 3.9 -0.9 6.6 -7z m-21.1 2.2 c0.7 -1 1.4 -2.7 1.4 -3.8 0 -1.2 0.5 -2.6 1.2 -3.3 2.2 -2.2 -0.9 -3.9 -8.3 -4.6 -10.4 -0.9 -11.1 -0.1 -5.3 6.5 4 4.5 5.9 5.9 9.3 6.8 0.2 0.1 1 -0.7 1.7 -1.6z m-8.6 -0.3 c0 -0.6 -2.1 -3.3 -4.7 -6.1 l-4.7 -5 -1.7 4.3 c-2.4 5.7 -2.3 6.6 0.4 7.1 4.5 0.9 10.7 0.7 10.7 -0.3z m-44.6 -2.7 c1.3 -4.9 4.7 -21.4 5 -24.4 0.2 -1.9 0.8 -4.7 1.4 -6.2 1.3 -3.2 1.5 -9.2 0.3 -12.2 -0.7 -1.7 -0.9 -1.6 -1.6 1.3 -0.4 1.9 -0.7 5.6 -0.7 8.3 0.1 2.7 -0.3 4.9 -0.7 4.9 -0.8 0 -5.5 18.1 -6.7 25.8 -0.5 3.4 -0.4 4.2 0.9 4.2 0.9 0 1.8 -0.8 2.1 -1.7z m-32 -1.9 c0.9 -2.5 0.7 -7.2 -0.4 -7.9 -0.5 -0.3 -1 -2.1 -1.1 -3.8 -0.1 -3.1 -0.1 -3.1 -0.9 -0.7 -0.4 1.4 -0.8 5.1 -0.9 8.3 -0.1 4.2 0.3 5.7 1.3 5.7 0.8 0 1.7 -0.7 2 -1.6z m146.9 -0.5 c1.3 -0.6 4 -3.8 6 -7.2 3.2 -5.6 3.4 -6.3 2 -7.4 -1.4 -1.1 -2.4 -0.2 -7 6.7 -2.9 4.4 -5.3 8.2 -5.3 8.5 0 0.8 1.7 0.6 4.3 -0.6z m-37.3 -5.4 c0 -1.7 -7.6 -6.8 -9 -6 -1.1 0.7 -4.9 -4.1 -5.6 -7.2 -0.9 -3.4 -1.6 -2.9 -4.2 2.6 -2.8 6.2 -3.8 11.1 -2.3 11.1 0.6 0 1.1 -0.6 1.1 -1.4 0 -1.8 2.2 -2.6 7.1 -2.6 2.2 0 3.9 -0.5 3.9 -1.1 0 -0.6 1.8 0.5 4 2.5 4.5 4 5 4.2 5 2.1z m-90.4 -17.7 c0.5 -4.2 0.3 -5.8 -0.5 -5.8 -0.8 0 -1 0.8 -0.6 1.9 0.3 1 0.1 2.9 -0.4 4.3 -0.5 1.3 -1.1 6 -1.4 10.3 l-0.6 8 1.4 -6.5 c0.8 -3.6 1.7 -9.1 2.1 -12.2z m-16 1 c0.6 -6.6 0.5 -7.8 -0.8 -7.8 -3.9 0 -5.1 7.5 -2.7 16.3 1.3 4.6 1.4 4.7 2.1 2 0.4 -1.5 1.1 -6.3 1.4 -10.5z m145.6 10.5 l1.6 -2.8 -3.6 0.1 c-6.7 0.1 -6.9 0.3 -3.7 2.9 1.7 1.4 3.2 2.5 3.5 2.5 0.3 0 1.3 -1.2 2.2 -2.7z m-92.7 -16 c2 -8.3 3.5 -15.9 3.3 -17 -0.4 -1.7 -8.8 30.9 -8.8 33.8 0.1 3.2 1.9 -2.3 5.5 -16.8z m104.7 -2.1 c5.4 -8.2 5.7 -9 4.8 -12.2 -0.6 -1.9 -1.7 -4.4 -2.5 -5.4 -1.4 -1.8 -1.7 -1.7 -7 2.8 -3 2.6 -5.5 5.1 -5.5 5.6 0 0.5 1.5 1.8 3.3 2.9 3.5 2.1 7.5 6.1 6.2 6.1 -0.9 0 -8.6 -5.8 -10.2 -7.7 -0.9 -1.1 -0.4 -3 2.4 -8.9 2.2 -4.7 3.3 -8 2.8 -9.1 -0.6 -1.6 -0.8 -1.5 -1.7 0.7 -0.6 1.4 -3 6.6 -5.4 11.7 -2.4 5 -4.4 9.8 -4.4 10.5 0 1.2 9.9 11.8 11 11.8 0.3 0 3.1 -4 6.2 -8.8z m57 5.1 c6.2 -2.7 9.7 -5.8 8.2 -7.2 -0.5 -0.4 -4 -2.9 -7.7 -5.4 -4.4 -3.1 -6.9 -4.3 -7.2 -3.4 -0.2 0.6 -1.3 4.5 -2.4 8.5 -1.1 4.1 -2.3 8.3 -2.7 9.4 -0.5 1.8 -0.3 1.9 2.8 1.3 1.8 -0.4 5.9 -1.8 9 -3.2z m-121.2 -0.8 c0 -1.7 -1.3 -3.3 -4.6 -5.5 -4.1 -2.9 -5 -3.1 -9.5 -2.5 -6 0.8 -6.2 2.3 -0.9 6.5 3.1 2.5 4.6 3 6.8 2.6 1.7 -0.4 3.5 -0.1 4.7 0.8 2.4 1.8 3.5 1.2 3.5 -1.9z m-15.2 1.2 c0.7 -0.1 -0.4 -1.9 -2.7 -4.1 l-4 -3.9 -0.9 2.4 c-2.5 6.6 -2.6 6.5 2.1 6.1 2.3 -0.2 4.8 -0.4 5.5 -0.5z m42.7 -4.5 c-0.4 -1.9 0.1 -4.8 1.5 -8.1 2.5 -6.5 2.5 -7.1 -0.3 -7.1 -2.9 0 -5 2.2 -7.6 8 -3.6 7.9 -2.9 9.4 4.7 9.9 2.1 0.1 2.3 -0.2 1.7 -2.7z m-23.9 -7 c1.3 -3.3 2 -6.3 1.5 -6.6 -0.4 -0.3 -1.5 1.3 -2.4 3.5 -0.9 2.4 -2.4 4.3 -3.6 4.6 -1.7 0.4 -1.8 0.8 -0.9 2.9 1.6 3.5 2.9 2.6 5.4 -4.4z m134.1 -1.6 c4.4 -6.5 4.3 -8.5 -1.3 -13.6 -4.5 -4.2 -13 -8.7 -14.2 -7.6 -0.3 0.4 -2.5 3.4 -4.8 6.9 -4 5.8 -4.2 6.3 -2.6 7.9 3.4 3.3 16.7 11.9 18.1 11.6 0.8 -0.2 2.9 -2.5 4.8 -5.2z m-58.7 -7.8 c3 -5 6.5 -10.8 7.8 -13 1.6 -2.6 1.9 -3.6 0.8 -3.2 -1.9 0.7 -15.6 21.5 -15.6 23.7 0 3.3 1.5 1.6 7 -7.5z m-3.6 -1.1 c3 -4.1 3.1 -6.4 0.3 -8.1 -2 -1.3 -6.3 0.7 -8.1 3.7 -0.9 1.5 -0.6 2.2 1.6 4.2 1.6 1.3 2.2 2.5 1.6 2.7 -0.7 0.3 -0.8 1 -0.4 1.7 0.9 1.4 0.9 1.4 5 -4.2z m-66.5 -2.6 c0.9 -1.6 1 -2.6 0.2 -3.4 -0.7 -0.7 -1.3 -0.2 -2.1 1.7 -0.5 1.5 -1 3.2 -1 3.7 0 0.5 -0.5 0.9 -1.1 0.9 -0.5 0 -0.7 0.5 -0.4 1 0.7 1.2 2.6 -0.4 4.4 -3.9z m140.2 -6.1 c4.6 -7.8 4.5 -8.2 -2 -12.2 -2 -1.2 -5.5 -3.9 -7.9 -6 -2.4 -2.2 -4.8 -3.8 -5.4 -3.6 -0.6 0.2 -2.8 3.2 -4.9 6.7 l-3.8 6.3 2.2 3 c2.5 3.4 14.5 12.8 16.4 12.8 0.7 0 3.1 -3.2 5.4 -7z m-67.7 -1.2 c2 -2.8 1.6 -3.1 -2.2 -1.7 -3.2 1.1 -3.8 1.9 -2.5 3.2 1.2 1.3 3.2 0.7 4.7 -1.5z m44.6 -4.3 c-0.7 -0.8 -2 -1.5 -2.9 -1.5 -1.3 0.1 -1.3 0.3 0.3 1.5 2.6 1.9 4.2 1.9 2.6 0z m30.9 -7.3 c1.4 -2 4.2 -5.8 6.2 -8.3 l3.8 -4.6 -2.8 -2.7 c-1.5 -1.4 -3.2 -2.6 -3.9 -2.6 -0.6 0 -1.9 -1.2 -2.8 -2.6 -2 -3 -8.4 -7.5 -9.6 -6.8 -0.4 0.3 -3.5 4.1 -6.9 8.5 -6.7 8.9 -6.7 9.8 0.1 12.7 1.9 0.8 5.4 3.4 7.7 5.8 2.4 2.4 4.6 4.4 5 4.4 0.5 0 1.9 -1.7 3.2 -3.8z m-12.4 -3.2 c-1 -1.1 -2.1 -1.7 -2.4 -1.4 -0.3 0.3 0.3 1.2 1.3 2 2.8 2 3.2 1.7 1.1 -0.6z m-36.8 -15.2 c1.2 -1.6 5.4 -12 5 -12.4 -0.1 -0.1 -1.9 2.9 -4 6.7 -2.1 3.8 -3.4 6.9 -2.9 6.9 0.5 0 1.4 -0.6 1.9 -1.2z m5.9 -0.7 c0.5 -0.5 4.4 -2.1 8.7 -3.6 l7.7 -2.8 -6.2 -4.8 c-3.5 -2.7 -6.7 -4.8 -7.2 -4.6 -0.7 0.2 -4 8 -6 14.5 -0.8 2.3 1 3.1 3 1.3z"/>
  <path d="M604.8 218.3 c-5.3 -3.3 -6.3 -10.3 -2.3 -15.1 3 -3.5 6.9 -4.5 11.1 -2.7 6.7 2.8 8.5 10.2 3.7 15.5 -3.5 3.8 -8.6 4.8 -12.5 2.3z m11.5 -3.4 c2 -2.4 2.2 -7.7 0.4 -10 -5 -6.5 -14.7 -3.6 -14.7 4.4 0 5.8 3.8 9.1 9.5 8.2 1.7 -0.3 3.8 -1.5 4.8 -2.6z"/>
  <path d="M605 209.9 l0 -6 4.8 0.3 4.7 0.3 0.2 5.8 c0.2 5.5 -1.2 8.1 -1.9 3.5 -0.2 -1.7 -1.1 -2.4 -3 -2.6 -2.4 -0.3 -2.8 0 -2.8 2.2 0 1.4 -0.4 2.6 -1 2.6 -0.6 0 -1 -2.7 -1 -6.1z m7.8 -2.6 c0.2 -0.9 -0.7 -1.3 -2.7 -1.3 -2.1 0 -3.1 0.5 -3.1 1.6 0 1.9 5.1 1.6 5.8 -0.3z"/>
  <path d="M117.5 217.7 c-0.2 -0.7 -1.4 -4.9 -2.5 -9.5 -2.8 -11.3 -8.1 -20.5 -10.4 -18.2 -0.6 0.6 -1.6 0.4 -2.8 -0.7 -1.5 -1.4 -2.3 -1.5 -3.7 -0.6 -1.5 1 -2.3 0.7 -4.2 -1.3 -2.2 -2.3 -2.4 -2.4 -3.6 -0.8 -1.2 1.7 -1.6 1.5 -5.3 -2.1 -3.8 -3.7 -4.1 -3.8 -5.4 -2 -1.3 1.8 -1.5 1.7 -3.4 -1.5 -3.8 -6.3 -4.2 -6.5 -6.8 -3.3 -2.9 3.4 -3.7 2.6 -5.3 -5.8 l-1.2 -5.9 -2.9 2.2 c-1.7 1.2 -3.3 1.8 -3.7 1.4 -0.4 -0.4 -0.9 -3.6 -1.1 -7.1 -0.2 -3.6 -0.7 -6.5 -1 -6.5 -0.3 0 -2 0.5 -3.9 1.2 -1.8 0.6 -3.5 1 -3.7 0.7 -0.3 -0.3 0.1 -3 0.8 -6.1 1.6 -7 1.1 -8.2 -3.3 -6.7 -1.7 0.6 -3.5 0.8 -3.9 0.5 -0.3 -0.4 0.2 -3.7 1.1 -7.4 0.9 -3.7 1.7 -7.2 1.7 -7.9 0 -0.7 -1.8 -1.3 -4.2 -1.5 -2.3 -0.2 -4.3 -0.8 -4.5 -1.4 -0.2 -0.6 1.7 -3.7 4.2 -6.9 5.9 -7.6 5.9 -7.5 -0.7 -8.9 -4.2 -0.9 -3.4 -2.9 2.9 -7.3 6.2 -4.2 7.9 -7.6 4.4 -8.8 -3 -0.9 -4.6 -3.2 -3.2 -4.8 1.2 -1.5 0.5 -2.7 -1.4 -2.7 -0.6 0 -2.6 4.8 -4.4 10.8 -1.8 5.9 -3.4 11.2 -3.6 11.7 -0.2 0.6 -0.4 -2.1 -0.5 -6 0 -4.5 -0.4 -6.5 -0.9 -5.5 -1.7 3 -6 22 -7.2 32.1 -0.7 5.7 -1.6 10.8 -2 11.3 -1.2 1.4 -2.4 -12.2 -2.4 -28.6 0 -8.6 -0.3 -15.4 -0.6 -15 -2 2.4 -4.8 29.8 -4.9 48.7 -0.1 15.8 -0.9 15.5 -3.6 -1.1 -2.3 -14.2 -2.4 -41 -0.1 -54.4 7.9 -46.7 34.8 -80.3 66.2 -82.7 9.2 -0.7 16.2 0.8 26 5.8 6.3 3.2 8.7 5 11.2 8.7 1.8 2.5 3.1 4.7 2.9 4.9 -0.3 0.4 -9.4 -2.5 -12.2 -3.9 -2.5 -1.2 -7 -0.4 -13.6 2.4 -3.7 1.6 -5.2 2.9 -6.8 6.2 -2.2 4.7 -4 13 -3.1 14.4 0.3 0.5 3 1.2 6 1.6 4.9 0.6 5.3 0.6 4.6 -1.1 -2.2 -5.3 -2.1 -5.6 2.1 -5 2.1 0.3 4.9 0.9 6.2 1.3 2.1 0.6 2.2 0.5 1.2 -2.1 -1.4 -3.8 -0.6 -4.2 4.7 -2.3 l4.5 1.6 -0.6 -2.9 c-0.6 -3.4 1.2 -3.8 5.4 -1.4 3.5 2 4 1.9 4 -1 0 -3 0.4 -3.1 4 -0.5 2.8 2 4.2 1.8 3.3 -0.6 -0.6 -1.6 2.2 -2 3.2 -0.4 0.7 1.2 3.6 1.4 3.4 0.3 -0.3 -2.1 0.3 -2.2 2.6 -0.7 2.3 1.5 2.5 1.5 2.5 0 0 -1.9 0.4 -2 3.2 -0.5 1.5 0.8 2.2 0.8 2.8 -0.1 0.6 -0.9 1.2 -0.9 3 0 1.8 0.9 2.4 0.9 3 0 0.6 -0.9 1.2 -0.9 3 0 1.2 0.6 2.4 1 2.6 0.7 0.7 -0.7 -12.4 -7.7 -29.6 -15.7 -8.5 -4 -15.7 -7.4 -15.9 -7.6 -4.2 -4 27.6 3.5 44.8 10.5 4.1 1.7 7.6 2.9 7.8 2.8 0.1 -0.2 -3.5 -2.8 -8.2 -5.8 -4.7 -3 -8.5 -5.7 -8.5 -6.1 0 -2.6 27.7 9.9 37.9 17.1 1.5 1.1 5.2 3 8.2 4.4 3 1.3 6.3 3.6 7.3 5.1 2.2 3.4 11.1 7.5 17.9 8.3 l5 0.6 -0.5 -5.6 c-0.3 -3.2 -0.3 -5.7 -0.1 -5.7 0.2 0 1.5 2.6 2.9 5.7 1.4 3.2 2.9 6.6 3.5 7.5 1.3 2.6 1.1 4.8 -0.5 4.8 -0.8 0 -2.2 1 -3.1 2.3 -1.2 1.5 -1.9 1.8 -2.2 0.9 -0.3 -0.6 -0.9 -1 -1.4 -0.6 -0.5 0.3 -0.9 -0.2 -0.9 -1 0 -1.9 -2 -2.2 -2 -0.3 0 0.6 -0.7 0.3 -1.6 -0.8 -1.2 -1.6 -1.6 -1.7 -2.3 -0.6 -0.6 0.9 -1.1 1 -1.5 0.2 -0.4 -0.6 -2.1 -0.9 -3.9 -0.7 -1.8 0.2 -3.5 -0.1 -3.9 -0.8 -0.6 -0.8 -1.1 -0.7 -1.8 0.4 -0.7 1.1 -1 1.2 -1 0.2 0 -0.9 -0.7 -1.1 -2 -0.7 -1.2 0.4 -2 0.2 -2 -0.5 0 -0.6 -0.4 -0.9 -0.9 -0.6 -0.5 0.4 -1.2 0 -1.5 -0.6 -0.4 -0.9 -0.8 -0.9 -1.1 -0.2 -0.3 0.6 -2.5 0.9 -5 0.7 -4.8 -0.4 -6.2 1.1 -2 2.1 2.7 0.7 12.2 9.2 11.3 10.1 -0.3 0.3 -3.5 -1 -7.2 -3 -5.4 -3 -6.6 -3.4 -6.6 -2 0 0.9 0.9 1.9 2 2.2 1.5 0.4 1.9 1.1 1.5 2.4 -0.5 1.5 -0.3 1.8 1.2 1.2 1.5 -0.5 1.6 -0.3 0.6 0.8 -1.7 1.7 -1.6 2.9 0.2 2.9 0.9 0 1.2 0.6 0.9 1.5 -0.4 0.9 0 1.5 1 1.5 1 0 1.3 0.6 1 1.5 -0.4 0.9 0 1.5 1 1.5 1 0 1.3 0.6 1 1.5 -0.4 1 0 1.5 1.6 1.5 1.1 0 1.8 0.4 1.5 1 -0.3 0.5 -0.1 1 0.5 1 0.6 0 0.4 1 -0.6 2.5 -0.9 1.4 -2.2 2.5 -3 2.5 -0.7 0 -3.1 -2.6 -5.3 -5.7 -4.7 -7 -8.7 -12.1 -14.2 -18 -3.9 -4.3 -4.2 -4.4 -6 -2.7 -1.1 0.9 -2.4 3.4 -3 5.4 l-1.1 3.8 -4 -4 c-3 -3 -4.5 -3.8 -6.1 -3.4 -1.2 0.3 -3 0.6 -3.9 0.6 -0.9 0 -2.3 0.6 -3 1.3 -3 2.9 -6.4 4.7 -9 4.7 -1.8 0 -4.1 1.4 -7.1 4.3 -2.5 2.3 -5.9 5.3 -7.7 6.6 l-3.3 2.5 6.9 2.3 c3.7 1.3 7 2.3 7.3 2.3 0.4 0 3.2 -2.3 6.4 -5 3.2 -2.8 6.8 -5 7.9 -5 1.2 0 4 -1.1 6.4 -2.5 4 -2.4 4.5 -2.4 9.2 -1.2 3.9 1 5.8 2.2 8.7 5.7 2 2.4 3.3 4.6 2.8 4.7 -0.5 0.2 -4 -0.8 -7.8 -2.2 -3.9 -1.4 -7.4 -2.5 -7.8 -2.5 -0.5 0 1.1 1.6 3.5 3.6 4.6 3.9 5.5 5.8 5.7 11.7 0.1 4.1 -0.4 4.5 -2.9 2.2 -1.6 -1.4 -2.1 -1.4 -5.5 0.7 -2.4 1.4 -3.3 2.3 -2.4 2.6 0.8 0.3 2.7 1.6 4.2 3 l2.8 2.6 3.3 -3.6 3.4 -3.6 8.3 1.9 c4.6 1 9.8 2.1 11.4 2.3 8.2 1 14.5 3 14.6 4.5 0 1 0.2 1.2 0.6 0.4 1.3 -3.3 10.5 1.4 14.8 7.6 1.5 2.3 2.9 4.1 3.1 4.1 0.2 0 1.3 -1.8 2.4 -3.9 1.1 -2.2 2.4 -4.3 3 -4.6 1.5 -0.9 20.2 1.5 21.9 2.8 1.4 1.2 5 8.9 7.1 15.2 0.7 2.2 2 5.1 2.9 6.5 0.9 1.4 3.6 7.5 6 13.5 4.5 11.5 7.3 17.7 7.8 17.1 0.2 -0.2 -1 -6.6 -2.7 -14.2 -4.9 -22 -6.1 -24.9 -7.4 -18.2 -0.3 1.7 -0.9 2.9 -1.2 2.5 -0.6 -0.5 1.7 -9.7 3.7 -14.9 1.7 -4.1 5.5 -5.2 16.7 -4.4 11.4 0.9 14.8 2.4 17.8 8.3 l2.1 4.1 1.2 -3.4 c2.1 -5.9 4.6 -6.8 16.9 -6 8.6 0.5 11 1 12.6 2.5 3 3.1 4.6 8.9 4.6 17.5 0 4.4 0.3 7.7 0.6 7.3 0.3 -0.3 0.6 -6.2 0.5 -13 -0.1 -9.1 0.3 -12.6 1.2 -13 0.6 -0.2 3.7 -0.2 6.8 0 l5.6 0.5 2.7 8.7 c4 12.5 4 12.6 4.6 1.1 l0.5 -10.5 6.5 0.3 c3.6 0.2 6.7 0.6 6.9 0.8 0.2 0.2 -0.2 7.4 -0.9 16.1 -0.7 8.7 -1.3 17.8 -1.5 20.3 -0.6 13.1 -1.8 25.6 -2.5 26.5 -0.5 0.6 -3.5 0.9 -6.7 0.7 l-5.9 -0.4 -1.9 -5.1 -2 -5.2 -0.5 5 -0.5 5 -5.7 0.2 -5.8 0.2 0 -4.2 c-0.1 -9.1 -1.2 -32.2 -1.6 -32.6 -0.2 -0.2 -0.4 4.4 -0.4 10.4 0 8.5 -0.4 12 -2.1 16.6 -3.1 8.6 -4.2 9.2 -16.3 9.7 l-10.3 0.4 -2 -2.8 c-1.1 -1.6 -2.2 -3.6 -2.5 -4.4 -0.3 -1 -1.4 -0.1 -3.3 2.8 -1.5 2.3 -3.7 4.4 -4.9 4.7 -5.5 1 -14.5 1.3 -18.1 0.5 -2.3 -0.5 -4.4 -0.5 -5 0 -0.6 0.5 -4.4 1.3 -8.4 1.8 l-7.3 0.9 -1 -2.9 c-1.3 -3.6 -1.8 -3.5 -4.6 0.6 -2.4 3.6 -5.4 4.5 -14.2 4.6 -2.5 0.1 -8.5 0.9 -13.5 1.9 -5.7 1.2 -9.2 1.5 -9.6 0.9 -0.4 -0.6 -1.6 -0.4 -3 0.5 -1.3 0.8 -5.5 2 -9.4 2.7 -3.8 0.7 -8.1 1.7 -9.4 2.2 -2.6 1 -5.1 -0.5 -5.1 -3 0 -0.8 -1.2 -3.5 -2.6 -5.9 l-2.6 -4.5 -8.9 9.6 c-10.2 10.8 -16.2 14.4 -25.5 15.3 -3.3 0.3 -12.3 2.7 -20.2 5.3 -9.8 3.3 -14.4 4.5 -14.7 3.7z m11.9 -11 c5.3 -4.9 9.6 -9.3 9.6 -9.8 0 -0.5 -1.2 -0.9 -2.6 -0.9 -2.1 0 -2.5 -0.3 -1.9 -1.7 1.7 -4 1.6 -6.2 -0.4 -10.2 -2.4 -4.6 -4.4 -5.1 -8.2 -2.3 -7.1 5.3 -8.1 5.2 -2.6 -0.5 6.1 -6.3 6.7 -8 3.9 -10.6 -1.7 -1.6 -2.3 -1.3 -10.3 4.5 -4.6 3.3 -9.4 7 -10.6 8.1 l-2.2 2 3.4 4.2 c4.2 5.1 7.9 13.1 9.6 20.8 0.7 3.2 1.6 5.6 2 5.5 0.4 -0.2 5 -4.3 10.3 -9.1z m10.8 3.3 c1.2 0 3.9 -1.9 6.2 -4.5 4.7 -5.1 6.8 -6 3.5 -1.5 -1.3 1.6 -2 3.3 -1.6 3.6 0.9 1 10.7 -1.6 15.9 -4.2 7.1 -3.6 20.1 -17.4 14.1 -14.9 -1 0.4 -4.5 1.6 -7.8 2.8 -3.3 1.1 -7.8 3.5 -10 5.2 -5.9 4.7 -7 5.1 -4.5 1.7 1.3 -1.8 2.1 -3.5 1.7 -3.8 -1.2 -1.3 -14.8 2.9 -18.4 5.6 -2.1 1.6 -6.9 5.8 -10.8 9.4 l-7 6.6 8.3 -3 c4.6 -1.7 9.3 -3 10.4 -3z m23.2 -16.6 c2.3 -2.1 2.6 -2.8 1.5 -3.4 -0.9 -0.6 -1.7 -0.3 -2.3 0.8 -0.5 0.9 -1.6 2.5 -2.4 3.5 -2.3 2.6 -0.1 2 3.2 -0.9z m33.1 0.7 c0.3 -1.1 2 -3.3 3.8 -4.9 6.6 -5.9 6.9 -6.5 5.2 -10.5 -0.8 -2.1 -1.9 -3.7 -2.3 -3.7 -0.4 0 -1.6 1.6 -2.6 3.5 -1.1 1.9 -2.1 3.3 -2.3 3.1 -0.2 -0.2 0.8 -2.5 2.2 -5 1.7 -3.1 2.4 -5.4 1.9 -6.9 -1.3 -4.5 -6.6 -14.8 -7.2 -14.2 -0.4 0.4 -0.7 4.4 -0.7 8.9 0 7.6 -0.3 8.7 -3.2 13.5 -2.6 4.2 -3.1 5.6 -2.3 7.2 1.1 1.9 3 2.6 3 1.1 0 -0.4 1 -1.3 2.1 -2.1 2.2 -1.3 2.2 -1.3 -0.1 2.3 -1.9 3.2 -2.1 4 -1 6.6 1.4 3.5 2.6 3.8 3.5 1.1z m13.8 -1.3 c3.8 -0.8 5.5 -1.9 8.4 -5.4 2 -2.5 3.4 -4.7 3.1 -4.9 -0.2 -0.3 -3.5 -0.1 -7.3 0.4 -7 0.8 -8.1 1.5 -12.3 7.7 -0.7 1 -1 1.2 -0.6 0.4 0.4 -0.9 0.3 -1.2 -0.2 -0.7 -0.5 0.5 -0.9 1.2 -0.9 1.5 0 0.4 -0.4 1.3 -0.8 1.9 -0.9 1.4 1.1 1.2 10.6 -0.9z m-70.8 0.2 c0.3 -0.5 -0.1 -1 -0.9 -1 -0.8 0 -1.8 0.5 -2.1 1 -0.3 0.6 0.1 1 0.9 1 0.8 0 1.8 -0.4 2.1 -1z m84.9 -5.9 c1.4 -2.2 3 -4.2 3.6 -4.6 1.5 -0.9 1.2 -5.1 -0.5 -8.5 -2.8 -5.4 -5.6 -2.6 -3.7 3.6 0.9 3 0.7 3.8 -1.9 7.4 -3.2 4.5 -3.6 6 -1.4 6 0.8 0 2.6 -1.8 3.9 -3.9z m10.7 0.8 c0.9 -0.5 2.9 -2.3 4.4 -4.1 l2.8 -3.3 -5.3 -0.3 c-5.8 -0.3 -8.7 1.5 -11.7 7.2 l-1.5 2.9 4.9 -0.8 c2.6 -0.4 5.5 -1.1 6.4 -1.6z m20.6 -4.8 c1.7 -2 2.8 -4 2.3 -4.5 -0.4 -0.4 -3.1 -0.5 -5.9 -0.1 -4.3 0.6 -5.3 1.2 -7.2 4.1 -2.6 4.2 -3.7 3.9 -1.3 -0.3 1.7 -2.8 1.6 -3.6 -0.5 -16.9 -1.2 -7.6 -2.6 -15.2 -3.1 -16.9 -0.5 -1.6 -1.6 -6.5 -2.5 -10.8 -1.4 -6.5 -1.9 -7.6 -3.1 -6.6 -0.8 0.6 -1.4 1.6 -1.4 2.1 0 0.5 -1.2 2.5 -2.6 4.4 l-2.7 3.5 2.8 2.9 c2.4 2.5 3.1 2.8 4.4 1.7 1.4 -1 1.4 -1 0.3 0.5 -1.1 1.4 -1.1 2.2 0.3 4.7 0.8 1.7 3.2 8.5 5.2 15.2 3.5 11.7 3.6 12.1 2 15.4 -2.5 5.3 -1.5 6.7 4.7 5.9 4.2 -0.6 5.7 -1.3 8.3 -4.3z m10.7 -1.4 c3.1 -4 3.1 -4.6 0.9 -9.2 l-1.7 -3.5 -2.7 3.3 c-3.1 3.6 -3.4 5 -1.8 9.6 1.4 3.9 2.2 3.9 5.3 -0.2z m9.8 1.2 c1.7 -0.9 3.4 -4.6 2.5 -5.5 -0.2 -0.3 -2.2 -0.2 -4.4 0.2 -2.9 0.4 -4.7 1.5 -6.7 4.1 l-2.8 3.5 4.8 -0.8 c2.7 -0.3 5.7 -1 6.6 -1.5z m23.8 -0.8 c1.3 -0.4 3.2 -2 4.2 -3.7 l1.8 -3 -9.3 0.3 c-13.3 0.5 -15.2 1 -16.5 3.8 -0.8 1.8 -0.8 2.5 0.1 2.9 1.8 0.7 16.8 0.5 19.7 -0.3z m29.4 -2.3 c1.3 -1.8 1.6 -1.9 1.6 -0.5 0 0.9 0.7 1.7 1.5 1.7 1.4 0 5.5 -3.8 5.5 -5.1 0 -0.4 0.3 -1.5 0.7 -2.4 0.5 -1.5 0.3 -1.6 -1.6 -0.6 -1.3 0.7 -5.9 1.1 -11.3 1 -7.7 -0.1 -9.3 0.1 -10.4 1.6 -1.1 1.5 -1.3 1.4 -1.2 -1.1 0 -1.6 -0.5 -4.2 -1.2 -5.9 -1.1 -2.8 -1.3 -2.8 -2 -1 -1.8 4.2 -1.1 9.5 1.5 12 2.1 2.1 3.3 2.5 8.9 2.5 5.6 0 6.7 -0.3 8 -2.2z m42.6 -1.6 l0 -3.8 -4.2 0.4 c-2.4 0.3 -4.6 1 -5 1.6 -0.4 0.6 -0.8 -0.1 -0.8 -1.6 0 -3.5 -4 -13.9 -5.1 -13.2 -1.6 1 -0.9 7.4 1.3 12.7 3 7.3 3.5 7.7 8.9 7.7 l4.9 0 0 -3.8z m-17 -0.1 c0 -3.8 -0.9 -4.3 -5.9 -3.5 -3.7 0.6 -4.1 0.9 -4.1 3.5 0 2.8 0.2 2.9 5 2.9 4.9 0 5 -0.1 5 -2.9z m-241.9 -1.2 c1.6 -1.1 5.2 -4 8 -6.4 2.9 -2.4 6.4 -4.5 8 -4.7 l2.8 -0.3 -4.5 -7.5 c-2.5 -4.1 -5.5 -8.5 -6.7 -9.8 -1.1 -1.2 -2.6 -3.7 -3.2 -5.6 -1.4 -4 -13.6 -24.6 -14.5 -24.6 -0.4 0 -2.4 1.1 -4.4 2.5 -2 1.4 -3.9 2.5 -4.2 2.5 -0.3 0 0.9 -2 2.6 -4.4 3.6 -5.3 3.6 -5.5 1 -10.6 -2.7 -5.3 -5 -5.2 -11.7 0.8 -3 2.6 -7.1 6.1 -9 7.7 l-3.4 3 2.7 4.8 c3.2 5.8 4.8 6.6 7.7 4 4.3 -3.9 5.1 -3.5 1.3 0.5 l-3.9 4.1 4.2 7 c2.3 3.9 4.8 7.1 5.6 7.1 0.8 0 3.1 -1.5 5.2 -3.2 l3.7 -3.3 -2 3 c-5 7.3 -5.2 12.7 -0.8 17.6 1.6 1.8 3.7 5.3 7.9 13.2 1.4 2.6 3 4.7 3.6 4.7 0.6 0 2.4 -0.9 4 -2.1z m149.9 -7.4 c0 -0.8 -0.8 -1.1 -2 -0.8 -2 0.5 -2.6 2.3 -1.3 3.6 0.8 0.9 3.3 -1.2 3.3 -2.8z m-37 -1.8 c0 -0.4 -0.4 -0.5 -1 -0.2 -0.5 0.3 -1 0 -1 -0.7 0 -2.6 -3.3 -9.8 -4.6 -9.8 -0.7 0 -1.4 -1 -1.6 -2.2 -0.2 -1.2 -0.8 -2.3 -1.4 -2.5 -0.7 -0.2 -1 0.6 -0.7 2.2 0.3 1.4 0.9 2.5 1.4 2.5 0.5 0 0.9 1.1 0.9 2.4 0 1.3 0.9 4.5 2 7 1.8 4.3 2.1 4.5 4 3.4 1.1 -0.7 2 -1.6 2 -2.1z m-57.7 -5.5 c2.1 -0.9 2.7 -1.8 2.7 -4.2 0 -3.8 -2.4 -4 -4.5 -0.2 -1.6 2.6 -1.6 2.6 -1 0.2 0.4 -1.4 1.1 -4.2 1.7 -6.2 0.9 -3.3 0.7 -4.3 -2.3 -9.8 l-3.2 -6.1 -5.4 5.3 c-6.5 6.4 -6.9 5.8 -0.8 -1.3 2.5 -2.9 4.5 -5.7 4.5 -6.3 0 -1.7 -9 -15.4 -10.5 -16 -0.8 -0.3 -1.5 -0.1 -1.5 0.5 0 1.2 -6.1 6.9 -7.4 6.9 -0.6 0 0.7 -1.7 2.7 -3.8 2 -2.1 3.7 -4.3 3.7 -5 0 -1.8 -0.9 -1.5 -3.5 1.6 l-2.4 2.7 0.6 -3.7 c0.5 -3.3 0.2 -3.9 -1.8 -4.7 -2.7 -1.1 -13 -3.3 -13.5 -2.8 -0.2 0.1 1.5 3.4 3.8 7.2 2.2 3.9 7.1 12.9 10.8 20 3.7 7.2 8.2 15.5 10.1 18.5 1.8 3 3.8 6.4 4.5 7.6 1.1 1.8 1.8 2 5.6 1.4 2.4 -0.4 5.5 -1.2 7.1 -1.8z m127.7 -2.8 c0 -1.4 -0.4 -2.3 -1 -1.9 -0.6 0.4 -1 -0.5 -1 -2 0 -1.5 -0.4 -2.4 -1 -2 -1.1 0.7 -1.4 6.8 -0.3 7.8 1.5 1.6 3.3 0.5 3.3 -1.9z m32.2 -10.5 c-0.3 -11.7 -1.6 -17.9 -3.6 -17.9 -1.6 0 -2.7 2.4 -2.1 4.3 0.2 0.6 0.9 6.1 1.4 12 1.1 11.5 1.6 13.1 3.4 12.4 0.8 -0.3 1.1 -3.6 0.9 -10.8z m-69.3 3.9 c0 -0.7 -1.3 -4.4 -3 -8.3 -2.9 -6.9 -2.9 -6.9 -2.3 -2.5 1 7.7 2.4 12 3.9 12 0.8 0 1.5 -0.6 1.4 -1.2z m-62.9 -1.3 c0 -0.8 -0.4 -1.5 -1 -1.5 -0.5 0 -1 0.7 -1 1.5 0 0.8 0.5 1.5 1 1.5 0.6 0 1 -0.7 1 -1.5z m95.5 -1.7 c-0.8 -3.7 -2.5 -6.1 -2.5 -3.6 0 2.1 1.8 6.8 2.6 6.8 0.3 0 0.3 -1.5 -0.1 -3.2z m-100.5 -6.9 c-1.1 -2.4 -2 -3.6 -2 -2.7 0 1.6 3.2 7.9 3.7 7.4 0.2 -0.2 -0.6 -2.3 -1.7 -4.7z m100.8 -10.7 c-0.9 -2.5 -2 -3.7 -3.3 -3.7 -2.6 0 -3 2.5 -1.5 9.7 l1.3 5.9 2.5 -4.1 c2.2 -3.9 2.3 -4.4 1 -7.8z m14 6.1 c0.3 -1 -1.3 -1.3 -5.7 -1.3 -3.4 0 -6.1 0.4 -6.1 0.9 0 2.1 11.1 2.4 11.8 0.4z m-118.9 -5.7 c-1.1 -2.6 -2.3 -4.6 -2.5 -4.3 -0.3 0.3 0.5 2.5 1.7 5.1 2.9 5.9 3.5 5.3 0.8 -0.8z m45.5 -0.3 c1.4 -4.8 1.7 -13.3 0.6 -17.3 l-1.2 -4.3 -2.4 4 c-2.3 3.9 -2.3 4.3 -0.9 8.3 0.8 2.3 1.5 5.8 1.5 7.6 0 3.6 1.5 4.6 2.4 1.7z m-20.6 -0.5 c1.6 -1.6 1.5 -2.8 -0.2 -2.8 -0.9 0 -1.2 -0.8 -0.9 -2.4 0.4 -2 -0.1 -2.8 -2.7 -4.1 -1.7 -0.9 -3.4 -1.5 -3.6 -1.3 -0.7 0.8 4.1 11.8 5.2 11.8 0.5 0 1.5 -0.5 2.2 -1.2z m24.2 -6.6 c0 -0.7 -0.4 -1 -1 -0.7 -0.5 0.3 -1 1.6 -1 2.8 0 1.8 0.2 1.9 1 0.7 0.5 -0.8 1 -2.1 1 -2.8z m-53.3 -3.5 c-0.3 -1.8 -2.6 -7.8 -5.2 -13.3 l-4.6 -9.9 -2.5 3 c-1.3 1.7 -2.4 3.3 -2.4 3.7 0 0.4 1.3 2 2.9 3.5 1.6 1.5 4 4.8 5.3 7.3 5.2 9.7 7.5 11.8 6.5 5.7z m-105.9 -6.4 c7.2 -5.9 13.2 -11.8 13.2 -13.1 0 -2 -4.9 -2.6 -6.9 -0.8 -1 0.9 -2.3 1.6 -2.9 1.6 -0.7 0 -4.6 3.3 -8.8 7.2 -7.2 6.8 -7.5 7.3 -5.3 7.9 4.5 1.3 6.1 0.9 10.7 -2.8z m-6.7 -5.5 c11.3 -10.1 12.6 -13.4 7.5 -19.6 -1.3 -1.5 -3.1 -4.4 -4.1 -6.4 -0.9 -2.1 -2.2 -3.8 -2.7 -3.8 -3.1 0 -21.8 14 -21.8 16.4 0 0.5 1.5 2.7 3.4 5 1.8 2.3 4.8 6.5 6.5 9.4 1.8 2.8 3.5 5.2 3.8 5.2 0.2 0 3.6 -2.8 7.4 -6.2z m13.9 -10.3 c0 -1.5 -2.1 -1.2 -3 0.5 -1.1 2 -1 2.1 0.9 1 1.2 -0.6 2.1 -1.3 2.1 -1.5z m-27.3 -12.5 c5 -3.3 9.8 -7.1 10.7 -8.5 1.6 -2.5 1.5 -2.7 -2.3 -8.3 -5.2 -7.4 -7.7 -10.2 -9 -10.2 -0.6 0 -4.1 2.7 -7.7 6 -3.7 3.4 -8.4 7.3 -10.5 8.8 -2.1 1.5 -3.9 3.3 -3.9 4 0 0.6 2.5 3.7 5.5 6.7 3 3 5.5 5.9 5.5 6.5 0 2.1 3 0.8 11.7 -5z m105.3 0.5 c0 -0.5 -0.4 -1.7 -0.9 -2.4 -0.8 -1.3 -1.5 -1.2 -4.5 0.4 -2 1.1 -3.6 2.3 -3.6 2.7 0 0.3 2 0.6 4.5 0.5 2.5 -0.1 4.5 -0.6 4.5 -1.2z m35 -45.5 c0 -1.4 -4.8 -3.5 -5.8 -2.6 -0.8 0.9 2.6 3.6 4.5 3.6 0.7 0 1.3 -0.5 1.3 -1z"/>
  <path d="M580.5 170 c-0.4 -1.7 -0.5 -3.4 -0.2 -3.6 0.2 -0.3 0.7 1 1.1 2.7 0.8 4.2 0 5 -0.9 0.9z"/>
  <path d="M578.7 162.1 c-0.3 -1.2 -0.1 -2.1 0.3 -2.1 1.4 0 1.9 1.5 1.1 2.9 -0.6 0.9 -1 0.7 -1.4 -0.8z"/>
  <path d="M589.5 153 c1.1 -0.5 2.7 -0.9 3.5 -0.9 0.9 0 0.8 0.4 -0.5 0.9 -1.1 0.5 -2.7 0.9 -3.5 0.9 -0.9 0 -0.8 -0.4 0.5 -0.9z"/>
  <path d="M581 150.4 c0 -1.3 4.9 -10.4 5.6 -10.4 0.4 0 0 0.9 -4 8.5 -0.9 1.7 -1.6 2.5 -1.6 1.9z"/>
  <path d="M568.6 142.4 c-0.3 -2.6 -0.4 -4.9 -0.2 -5.2 0.3 -0.2 0.8 1.7 1.1 4.3 0.4 2.5 0.5 4.8 0.3 5.1 -0.3 0.2 -0.8 -1.7 -1.2 -4.2z"/>
 </g>
 <g fill="#0a7cc4">
  <path d="M531 225.8 c0 -1.3 6.2 -11.3 7.4 -12 0.7 -0.4 5.4 -7.3 10.5 -15.3 5.1 -8 9.7 -14.5 10.3 -14.5 0.5 0 0.7 -0.4 0.4 -0.9 -0.3 -0.4 0.6 -0.7 1.9 -0.5 1.4 0.1 2.3 -0.1 2 -0.6 -0.3 -0.4 0.6 -1.5 1.9 -2.4 2.3 -1.5 5.6 -9.2 6.2 -14.5 0.2 -2.3 2.4 -5.5 2.4 -3.6 0 0.6 -1.2 4.5 -2.6 8.8 -2.4 7.2 -2.5 8 -1 9.6 0.9 1 1.4 2 1.1 2.2 -0.2 0.3 0.5 0.5 1.5 0.6 4.1 0.3 10.9 9.9 11 15.4 0 0.9 -15.3 10.2 -16.7 10.2 -0.7 0 -1.3 0.4 -1.3 0.7 0 0.4 -3.9 3.1 -8.7 5.9 l-8.6 5.2 -4.3 -3 c-2.3 -1.7 -4.5 -3.1 -4.8 -3.1 -0.3 0 -2.4 2.8 -4.6 6.3 -2.2 3.4 -4 5.9 -4 5.5z"/>
  <path d="M117.4 216.7 c-0.3 -0.9 -0.4 -2.4 -0.1 -3.4 0.3 -1.1 0.5 -0.8 0.6 1 l0.1 2.9 6.3 -5.5 c13.6 -12 15.1 -13.8 13.9 -15.8 -1 -1.6 -0.9 -1.9 0.4 -1.9 0.9 0 1.4 -0.5 1.2 -1.1 -0.6 -1.8 -2.2 -1.3 -3.3 1 -0.5 1.1 -1.3 2.1 -1.7 2.1 -1.2 0 -1 -0.8 0.7 -3.4 1.4 -2.1 1.3 -2.7 -0.6 -7.4 -1.3 -3.1 -2.8 -5.2 -3.7 -5.2 -1.3 0 -1.2 -0.2 0.3 -1.3 1.3 -1 1.5 -1.6 0.6 -2.1 -1.3 -0.9 -4.4 1.2 -3.6 2.4 0.2 0.4 -2.1 2.4 -5.3 4.5 l-5.7 3.7 6.1 -6.3 c5.4 -5.6 6.1 -6.7 5.2 -8.6 -1.7 -3.5 -3.7 -3.5 -8.1 0 -2.3 1.9 -6.2 4.8 -8.7 6.5 -9 6.3 -8.7 5.5 -4.7 10.4 3.7 4.6 7.7 11.9 7.7 14 0 0.7 -1.3 -1.4 -2.9 -4.7 -1.6 -3.3 -3.8 -7.1 -4.9 -8.4 -1.7 -2.1 -2 -2.2 -2.6 -0.6 -0.6 1.7 -0.7 1.7 -2.7 -0.1 -1.6 -1.4 -2.4 -1.6 -3.8 -0.7 -1.5 1 -2.3 0.7 -4.2 -1.3 -2.2 -2.3 -2.4 -2.4 -3.6 -0.8 -1.2 1.7 -1.6 1.5 -5.3 -2.1 -3.8 -3.7 -4.1 -3.8 -5.4 -2 -1.3 1.8 -1.5 1.7 -3.4 -1.5 -3.8 -6.3 -4.2 -6.5 -6.8 -3.3 -2.9 3.4 -3.7 2.6 -5.3 -5.8 l-1.2 -5.9 -2.9 2.2 c-1.7 1.2 -3.3 1.8 -3.7 1.4 -0.4 -0.4 -0.9 -3.6 -1.1 -7.1 -0.2 -3.6 -0.7 -6.5 -1 -6.5 -0.3 0 -2 0.5 -3.9 1.2 -1.8 0.6 -3.5 1 -3.7 0.7 -0.3 -0.3 0.1 -3 0.8 -6.1 1.6 -7 1.1 -8.2 -3.3 -6.7 -1.7 0.6 -3.5 0.8 -3.9 0.5 -0.3 -0.4 0.2 -3.7 1.1 -7.4 0.9 -3.7 1.7 -7.2 1.7 -7.9 0 -0.7 -1.8 -1.3 -4.2 -1.5 -2.3 -0.2 -4.3 -0.8 -4.5 -1.4 -0.2 -0.6 1.7 -3.7 4.2 -6.9 5.9 -7.6 5.9 -7.5 -0.7 -8.9 -4.2 -0.9 -3.4 -3 2.7 -7 3 -2.1 5.9 -4.6 6.5 -5.6 0.9 -1.6 0.6 -2.2 -1.9 -3.5 -3.7 -1.9 -4.6 -3.2 -3.2 -4.9 0.8 -1 0.7 -1.7 -0.4 -2.6 -1.7 -1.4 -1.9 -1 -6 12.6 -1.5 4.9 -2.8 9.4 -3 9.9 -0.2 0.6 -0.4 -2.1 -0.5 -6 0 -4.5 -0.4 -6.5 -0.9 -5.5 -1.7 3 -6 22 -7.2 32.1 -0.7 5.7 -1.6 10.8 -2 11.3 -1.2 1.4 -2.4 -12.2 -2.4 -28.6 0 -8.6 -0.3 -15.4 -0.6 -15 -2 2.4 -4.8 29.7 -5 48.7 -0.1 15.4 -0.7 15.1 -3.6 -1.5 -2.2 -12.8 -2.2 -41.1 0 -54 8 -46.8 34.8 -80.3 66.2 -82.7 9.2 -0.7 16.2 0.8 26 5.8 6.3 3.2 8.7 5 11.2 8.7 1.8 2.5 3.1 4.7 2.9 4.9 -0.3 0.4 -9.4 -2.5 -12.2 -3.9 -2.5 -1.2 -7 -0.4 -13.6 2.4 -3.7 1.6 -5.2 2.9 -6.8 6.2 -2.2 4.7 -4 13 -3.1 14.4 0.3 0.5 3 1.2 6 1.6 4.9 0.6 5.3 0.6 4.6 -1.1 -2.2 -5.3 -2.1 -5.6 2.1 -5 2.1 0.3 4.9 0.9 6.2 1.3 2.1 0.6 2.2 0.5 1.2 -2.1 -1.4 -3.8 -0.6 -4.2 4.7 -2.3 l4.5 1.6 -0.6 -2.9 c-0.6 -3.4 1.2 -3.8 5.4 -1.4 3.5 2 4 1.9 4 -1 0 -3 0.4 -3.1 4 -0.5 2.8 2 4.2 1.8 3.3 -0.6 -0.6 -1.6 2.2 -2 3.2 -0.4 0.7 1.2 3.6 1.4 3.4 0.3 -0.3 -2.1 0.3 -2.2 2.6 -0.7 2.3 1.5 2.5 1.5 2.5 0 0 -1.9 0.4 -2 3.2 -0.5 1.5 0.8 2.2 0.8 2.8 -0.1 0.6 -0.9 1.2 -0.9 3 0 1.8 0.9 2.4 0.9 3 0 0.6 -0.9 1.2 -0.9 3 0 1.2 0.6 2.4 1 2.6 0.7 0.7 -0.7 -12.4 -7.7 -29.6 -15.7 -8.5 -4 -15.7 -7.4 -15.9 -7.6 -4.2 -4 27.6 3.5 44.8 10.5 4.1 1.7 7.6 2.9 7.8 2.8 0.1 -0.2 -3.5 -2.8 -8.2 -5.8 -4.7 -3 -8.5 -5.7 -8.5 -6.1 0 -2.6 27.7 9.9 37.9 17.1 1.5 1.1 5.2 3 8.2 4.4 3 1.3 6.3 3.6 7.3 5.1 2.2 3.4 11.1 7.5 17.9 8.3 l5 0.6 -0.5 -5.6 c-0.3 -3.2 -0.3 -5.7 -0.1 -5.7 0.2 0 1.5 2.6 2.9 5.8 1.4 3.1 2.9 6.5 3.5 7.4 1.3 2.6 1.1 4.8 -0.5 4.8 -0.8 0 -2.2 1 -3.1 2.3 -1.2 1.5 -1.9 1.8 -2.2 0.9 -0.3 -0.6 -0.9 -1 -1.4 -0.6 -0.5 0.3 -0.9 -0.2 -0.9 -1 0 -1.9 -2 -2.2 -2 -0.3 0 0.6 -0.7 0.3 -1.6 -0.8 -1.2 -1.6 -1.6 -1.7 -2.3 -0.6 -0.6 0.9 -1.1 1 -1.5 0.2 -0.4 -0.6 -2.1 -0.9 -3.9 -0.7 -1.8 0.2 -3.5 -0.1 -3.9 -0.8 -0.6 -0.8 -1.1 -0.7 -1.8 0.4 -0.7 1.1 -1 1.2 -1 0.2 0 -0.9 -0.7 -1.1 -2 -0.7 -1.2 0.4 -2 0.2 -2 -0.5 0 -0.6 -0.4 -0.9 -0.9 -0.6 -0.5 0.4 -1.2 0 -1.5 -0.6 -0.4 -0.9 -0.8 -0.9 -1.1 -0.2 -0.3 0.6 -2.5 0.9 -5 0.7 -4.8 -0.4 -6.2 1.1 -2 2.1 2.7 0.7 12.2 9.2 11.3 10.1 -0.3 0.3 -3.5 -1 -7.2 -3 -5.4 -3 -6.6 -3.4 -6.6 -2 0 0.9 0.9 1.9 2 2.2 1.5 0.4 1.9 1.1 1.5 2.4 -0.5 1.5 -0.3 1.8 1.2 1.2 1.5 -0.5 1.6 -0.3 0.6 0.8 -1.7 1.7 -1.6 2.9 0.2 2.9 0.9 0 1.2 0.6 0.9 1.5 -0.4 0.9 0 1.5 1 1.5 1 0 1.3 0.6 1 1.5 -0.4 0.9 0 1.5 1 1.5 1 0 1.3 0.6 1 1.5 -0.4 1 0 1.5 1.6 1.5 1.1 0 1.8 0.5 1.5 1 -0.3 0.6 -0.1 1 0.5 1 0.6 0 0.4 1 -0.6 2.5 -0.9 1.4 -2.2 2.5 -3 2.5 -0.7 0 -3.1 -2.6 -5.3 -5.7 -4.7 -7 -8.7 -12.1 -14.2 -18 -3.9 -4.3 -4.2 -4.4 -6 -2.7 -1.1 0.9 -2.4 3.4 -3 5.4 l-1.1 3.8 -4 -4 c-3 -3 -4.5 -3.8 -6.1 -3.4 -1.2 0.3 -3 0.6 -3.9 0.6 -0.9 0 -2.3 0.6 -3 1.3 -3 2.9 -6.4 4.7 -9 4.7 -1.8 0 -4.1 1.4 -7.1 4.3 -2.5 2.3 -5.9 5.2 -7.6 6.5 -1.7 1.3 -2.9 2.7 -2.6 3.2 0.3 0.5 -6 -1.3 -14 -4 -8 -2.7 -14.5 -4.5 -14.5 -4.2 0 0.4 0.7 1.8 1.6 3 1.2 1.7 1.2 2.2 0.2 2.2 -0.8 0 -2.1 -1.3 -3 -2.8 -2 -3.4 -3.4 -4.1 -17.3 -9.1 -6 -2.2 -11.8 -4.2 -12.8 -4.6 -1.5 -0.6 -1.2 0.4 1.4 4.6 1.8 3 4.1 6.4 5.1 7.5 1.1 1.2 3.3 4.8 4.9 8 2.6 5.2 4 7.6 9.1 14.7 0.7 1 3.5 2.3 6.2 2.9 3.3 0.7 4.4 1.3 3.5 1.9 -0.7 0.4 -1 1.1 -0.7 1.5 0.4 0.4 -0.9 1.9 -3 3.5 -2 1.5 -6.4 5.2 -9.6 8.2 l-5.9 5.4 2.7 4.7 c3.3 5.7 5 6.5 7.9 3.9 4 -3.7 5.3 -3.5 1.5 0.1 -2.1 2 -3.8 4.2 -3.8 4.9 0.1 2.4 8.1 13.7 9.7 13.7 0.9 0 3.2 -1.5 5.1 -3.2 l3.4 -3.3 -3.1 4.9 c-3.7 5.9 -3.9 8.9 -0.8 13.6 3.9 6.1 7.6 12.4 9.1 15.8 2.6 5.7 4.5 5.3 15.6 -4 2.5 -2.1 6 -4.1 7.8 -4.4 1.8 -0.4 3.2 -0.8 3.2 -1 0 -0.7 -8.3 -14 -10.9 -17.4 -1.5 -1.9 -3.5 -5.3 -4.5 -7.5 -2.3 -5.2 -12.5 -22.5 -13.2 -22.5 -0.3 0 -1.5 0.5 -2.7 1.1 -2.1 1.1 -2.1 1 0.2 -1.5 1.4 -1.4 2.2 -2.8 1.9 -3.1 -0.6 -0.6 -3.8 2.8 -5.2 5.7 -0.6 1.2 -1.7 2.3 -2.4 2.6 -0.8 0.2 0 -1.5 1.7 -3.8 3.7 -5.2 3.8 -6.3 0.6 -11.8 -1.3 -2.3 -2 -4.2 -1.5 -4.2 0.5 0 2.1 2.3 3.5 5 1.4 2.8 3.5 5.4 4.7 5.9 1.4 0.5 1.7 1 1 1.5 -0.7 0.4 0.2 2.7 2.8 6.8 3.4 5.4 4.3 6.2 7.7 6.7 5.2 0.8 18 0.8 18.8 0 0.3 -0.4 -2 -5.5 -5.2 -11.5 -4.6 -8.6 -6.6 -11.3 -9.4 -12.9 -2 -1.1 -3.6 -2.4 -3.5 -2.8 0 -0.4 -1.4 -1.7 -3.2 -2.9 -1.8 -1.1 -3.1 -2.3 -2.8 -2.5 0.6 -0.7 4.8 1.7 7.2 4.1 5 5 8.2 7.1 12.4 8.3 l4.5 1.3 -4.3 -0.5 -4.2 -0.5 3.1 6.2 c1.7 3.5 3.7 7 4.4 7.8 0.7 0.8 4.2 7.1 7.7 14 3.6 6.9 8.6 16 11.2 20.4 3.1 5.3 4.5 8.5 4.1 10 -0.4 1.5 -0.1 1.3 1 -0.6 1 -1.9 2.4 -2.8 4.1 -2.8 3.4 0 9.4 -2.6 9.5 -4.2 0.2 -1.9 -0.2 -5.2 -0.7 -5.7 -0.7 -0.8 -4.4 3.2 -4.5 4.8 0 0.9 -0.3 1.1 -0.5 0.5 -0.3 -0.6 0.4 -3.1 1.4 -5.5 l1.9 -4.4 -3.3 -6.7 c-1.9 -3.8 -3.7 -6.8 -4 -6.8 -0.3 0 -2.9 2.4 -5.6 5.3 -2.8 2.8 -4.1 3.9 -3 2.2 1.1 -1.6 3.2 -4.1 4.6 -5.4 1.4 -1.4 2.6 -3.1 2.6 -4 0 -1.9 -7.3 -14.3 -9.6 -16.2 -1.4 -1.1 -1.8 -1.1 -2.2 -0.1 -0.5 1.6 -6.4 7.2 -7.6 7.2 -0.5 0 1 -1.9 3.2 -4.2 2.9 -2.9 3.9 -4.5 3.2 -5.2 -0.7 -0.7 -1.8 -0.2 -3.3 1.7 l-2.2 2.8 0 -3.8 c0 -3.4 -0.3 -3.9 -3.5 -5 l-3.5 -1.2 4.6 0.2 c4.2 0.2 4.5 0.4 4.1 2.6 -0.3 1.6 -0.1 2.2 0.7 1.7 0.6 -0.4 1.1 -1.7 1.2 -2.9 0 -2.1 0.1 -2.1 0.9 -0.2 0.4 1.1 2.7 3.8 5 6 2.3 2.2 5.1 5.7 6.3 7.8 l2.1 3.8 10.6 -0.3 c8.4 -0.2 10.8 0 11.8 1.2 1 1.3 1.1 1.2 0.5 -0.5 -0.3 -1.1 -1.4 -3.1 -2.3 -4.5 -1 -1.4 -2.9 -4.7 -4.3 -7.5 -1.4 -2.7 -5.4 -8 -8.9 -11.7 -3.5 -3.8 -5.9 -6.8 -5.3 -6.8 1 0 6.5 5.7 6.5 6.8 0 0.3 1.5 1.9 3.3 3.7 1.7 1.7 4.1 4.9 5.2 7.1 3.5 6.8 5.5 9.3 7 8.7 0.8 -0.3 1.5 -0.9 1.5 -1.5 0 -0.5 -0.4 -0.6 -1 -0.3 -0.5 0.3 -1 -0.3 -1 -1.3 0 -1.6 -8.2 -21 -9.7 -23.1 -0.2 -0.2 -1.3 0.4 -2.5 1.5 -2.1 1.7 -2.1 1.6 0.1 -0.9 1.6 -1.7 3.4 -2.7 5 -2.6 2.4 0.2 2.4 0.2 0.4 0.6 l-2.3 0.4 2.4 4.7 c1.9 3.9 6.3 14.2 10.7 25 0.5 1.3 1.3 2.1 1.7 1.8 0.5 -0.3 4.3 -0.6 8.5 -0.7 4.2 -0.1 7.7 -0.5 7.7 -1 0 -0.4 -0.4 -1.9 -1 -3.4 -0.6 -1.5 -0.6 -2.4 -0.1 -2 0.5 0.3 1.7 2.8 2.6 5.6 1.4 4.2 2.1 5 3.8 4.7 1.4 -0.2 2.3 -1.1 2.5 -2.7 0.3 -1.7 0 -2.2 -1 -1.9 -0.9 0.4 -1.4 -0.2 -1.3 -2 0 -2 -0.9 -3 -4.8 -5 -2.6 -1.4 -4.6 -2.7 -4.3 -2.9 1 -1 8.7 3.2 11.5 6.3 2 2.1 4.2 3.5 5.9 3.5 3.9 0.2 8.5 -0.1 9 -0.6 0.9 -0.8 -2.1 -9.6 -4.1 -12.3 l-2.1 -2.7 2.1 1.9 c2.7 2.2 6.3 12.6 6.3 18 l0.1 4.1 1.6 -3 c0.8 -1.6 2.1 -3.7 2.8 -4.5 1.8 -2.2 2.6 -5 1.4 -5 -0.5 0 -1.3 0.9 -1.7 1.9 -0.4 1.1 -0.7 -1.6 -0.7 -5.9 -0.1 -7.2 -1.1 -11.3 -2.2 -8.3 -0.3 0.7 -1.3 2.3 -2.4 3.5 -1.3 1.6 -1.1 0.9 0.7 -2.4 2.2 -4.2 2.8 -4.7 5.2 -4.2 1.5 0.3 5.4 0.9 8.7 1.4 5.6 0.8 5.4 0.8 -2.1 0.3 l-8.2 -0.5 1.5 6.3 c0.8 3.5 1.9 6.9 2.4 7.5 0.5 0.7 0.8 1.8 0.7 2.5 -0.2 0.7 1 1.6 2.7 2 4.2 0.9 19.5 1.1 19.5 0.2 -0.1 -0.5 -1.3 -3.9 -2.8 -7.8 -1.9 -4.8 -3.5 -7.4 -5.2 -8.2 l-2.5 -1.3 2.3 0 c2.4 0 4.8 4.2 8.3 14.5 0.7 2.2 2.3 5.4 3.5 7 1.2 1.7 2.5 4.1 2.9 5.5 0.8 2.9 6.9 18.1 9 22.5 5.4 11.6 6.4 14.6 5.5 17 -0.5 1.4 -1.2 2.5 -1.6 2.5 -0.3 0 -0.3 -0.7 0 -1.6 0.6 -1.4 0 -1.6 -4 -1.1 -3.6 0.4 -5.1 1.2 -7.4 3.8 -1.9 2.3 -2.4 3.6 -1.7 4.1 0.7 0.4 -0.1 0.6 -1.7 0.5 -1.6 -0.1 -3.1 -0.8 -3.2 -1.5 -0.1 -0.7 0 -0.8 0.3 -0.2 0.8 1.8 2 1.1 5.1 -2.8 l3.1 -3.8 -2 -4.4 -2 -4.4 -2.9 3.5 c-2.5 2.8 -2.9 4 -2.5 6.9 0.2 1.9 0.1 2.9 -0.3 2.2 -0.6 -0.9 -1.8 -0.1 -4.1 2.8 -2.8 3.5 -3.7 4 -6.9 3.8 l-3.7 -0.1 3.6 -0.4 c2.8 -0.3 4.4 -1.3 6.8 -4.3 1.7 -2.1 3.1 -4.1 3.1 -4.4 0 -0.9 -7.7 -0.7 -10.2 0.3 -1.3 0.5 -3.4 2.8 -4.8 5 -1.4 2.3 -3.2 4.1 -4 4.1 -0.8 0 -2.6 0.3 -4 0.5 -1.4 0.3 -1.8 0.2 -1 -0.1 0.8 -0.4 2.8 -2.1 4.4 -3.8 2.7 -3 2.7 -3 1.2 -0.3 -2.5 4.1 0 3.2 2.9 -1.1 l2.5 -3.8 -3 -15.9 c-1.7 -8.8 -3.7 -19.1 -4.5 -23 -2.7 -12.2 -3.1 -12.7 -5.8 -7 -0.9 1.9 -2.2 3.4 -2.8 3.3 -0.6 -0.2 -1.4 0.3 -1.7 1.1 -0.3 1 0 1.1 0.9 0.5 1.2 -0.6 1.2 -0.5 0 0.9 -1.2 1.6 -1.1 2.1 1.4 4.7 2.4 2.5 3.1 2.8 4.4 1.7 1.4 -1.1 1.4 -1 0.2 0.5 -1.1 1.5 -1 2.4 0.7 6 3.5 7.5 8.6 26.8 7.3 28.1 -0.6 0.6 -1.1 0.7 -1.1 0.1 0 -0.5 -2.4 -0.7 -5.2 -0.6 -5.7 0.4 -8.8 2.4 -11.4 7.4 -1.2 2.4 -1.2 2.7 0.4 3.1 1 0.3 0.7 0.5 -1 0.6 -1.5 0 -3 0.6 -3.3 1.2 -0.5 0.7 -1.3 0.5 -2.5 -0.6 -1.5 -1.4 -1.8 -1.4 -3 0 -0.7 0.8 -1.7 1.5 -2.2 1.5 -0.5 0 0.6 -1.3 2.4 -2.9 1.8 -1.6 4.2 -4.4 5.2 -6.2 1.7 -3 1.8 -3.2 0.2 -2.6 -1 0.4 -4.3 1 -7.4 1.4 -4.7 0.5 -6.5 1.3 -10.1 4.5 -2.4 2.1 -4.9 4.9 -5.6 6.2 -1.1 2.1 -1.1 2.3 0.9 2 2 -0.4 2 -0.4 0.1 0.5 -4.5 2.1 -7.7 0.8 -7.4 -3.2 0 -0.7 0.4 -0.2 0.9 1.1 1 2.2 3 3.1 3 1.1 0 -0.6 2.5 -3.4 5.6 -6.4 l5.6 -5.3 -1.2 -3.9 c-1.8 -5.7 -2.5 -5.9 -5.1 -1.4 -1.2 2.2 -2.4 3.9 -2.6 3.8 -0.5 -0.5 2.7 -6.6 3.8 -7.2 0.5 -0.4 0.9 -1.5 0.9 -2.7 0 -2.9 -6.3 -16.8 -7.6 -16.8 -1.5 0 -2.5 3.8 -1.3 4.6 2.8 1.7 -0.2 15.8 -4.3 20.1 -1.9 2 -1.9 2.5 -0.8 5.3 l1.3 3.1 2.9 -2.8 2.9 -2.8 -2.3 4.2 -2.3 4.2 -1.9 -3.2 c-1.1 -1.8 -2.1 -3.4 -2.3 -3.6 -0.2 -0.3 -2.7 1.7 -5.5 4.5 l-5.1 4.9 3.3 -4.4 c3 -3.9 3.1 -4.2 1 -2.8 -1.4 0.8 -5.6 2.7 -9.5 4.2 -3.8 1.4 -7.9 3.4 -9 4.3 -1.2 0.9 -0.6 0.3 1.2 -1.4 3 -2.9 3.2 -3.2 1.4 -3.7 -1.1 -0.2 -2.2 0 -2.5 0.7 -2 4.1 -5.4 9 -6.6 9.4 -0.8 0.3 -0.5 -0.6 0.8 -2.3 4 -5.1 3.2 -5.2 -9.8 -1.5 -5.7 1.7 -7.6 2.9 -15.5 10.4 -4.9 4.7 -8.9 9 -8.7 9.6 0.1 0.5 -0.2 1 -0.7 1 -0.5 0 -1.6 0.3 -2.5 0.6 -0.9 0.4 -1.8 0 -2.2 -0.9z m106.3 -28.4 c0.9 -1.6 2.7 -4 4.1 -5.4 l2.4 -2.7 -2.3 -5.1 c-2 -4.9 -2.3 -5.1 -4 -3.5 -1.4 1.2 -1.6 2.1 -0.8 4.1 1.5 3.9 1.1 6.2 -1.6 9.7 -1.4 1.8 -2.5 3.8 -2.5 4.4 0 2.2 3 1.2 4.7 -1.5z m40.3 -19.5 c0 -0.5 -1.4 -0.8 -3.1 -0.8 -2.4 0 -3 0.3 -2.5 1.6 0.3 0.9 0.6 2.5 0.6 3.7 0.1 2 0.3 2 2.5 -0.8 1.4 -1.6 2.5 -3.3 2.5 -3.7z m-107 4.5 c-0.1 -2.7 -1.7 -3.3 -4.6 -1.8 l-2.9 1.6 3.3 -0.6 c2 -0.4 3.2 -0.3 3.2 0.4 0 0.6 0.2 1.1 0.5 1.1 0.3 0 0.5 -0.3 0.5 -0.7z m69.4 -6.5 c-0.3 -0.4 -1 -0.6 -1.5 -0.3 -0.5 0.4 -0.9 0 -0.9 -0.7 0 -2.8 -3.5 -9.8 -4.7 -9.3 -0.8 0.3 -1.2 -0.4 -1 -1.7 0.1 -1.4 -0.4 -2.4 -1.5 -2.6 -1.5 -0.3 -1.7 0.2 -1.1 3 0.3 1.8 1.5 5.3 2.6 7.8 1 2.5 2.3 5.5 2.8 6.8 l0.9 2.2 2.4 -2.1 c1.4 -1.2 2.3 -2.6 2 -3.1z m32.8 -13.4 c0.6 -0.5 -5.7 -16.3 -6.9 -17.4 -0.3 -0.3 -0.3 0.9 0.1 2.5 0.3 1.7 1.1 5.5 1.7 8.5 0.6 3 1.3 5.8 1.6 6.3 0.5 0.8 2.7 0.9 3.5 0.1z m-86.6 -1.4 c0.9 0 1.2 -0.4 0.9 -1 -1 -1.6 -4.2 -1.2 -4.9 0.6 -0.5 1.2 -0.2 1.5 1 1 0.8 -0.3 2.2 -0.6 3 -0.6z m23.9 0.1 c0.3 -0.6 -0.1 -1.3 -0.9 -1.8 -0.7 -0.4 -3.3 -5.5 -5.6 -11.3 -2.3 -5.8 -4.7 -10.9 -5.1 -11.5 -1.8 -1.9 -0.8 2.6 1.7 8.2 8.5 18.6 8.5 18.6 9.9 16.4z m-119.6 -36.8 c5.8 -4.6 14.1 -12.5 14.1 -13.4 0 -0.4 -1.4 -1 -3.1 -1.4 -2.2 -0.5 -3.6 -0.2 -5 1.1 -1 0.9 -2.2 1.5 -2.5 1.1 -0.3 -0.3 -3.7 2.5 -7.6 6.1 -3.8 3.7 -7.7 7.1 -8.6 7.6 -1 0.5 2.5 -3.2 7.6 -8.1 10.4 -10 11.1 -12 6.4 -17.5 -1.5 -1.8 -3.5 -5 -4.5 -7 -0.9 -2.1 -2.2 -3.8 -2.8 -3.8 -0.6 0 -3.1 1.2 -5.7 2.6 l-4.7 2.7 4 -3.4 c2.1 -1.9 4.5 -3.3 5.2 -3.1 0.7 0.2 1.3 -0.2 1.3 -0.8 0 -0.5 -0.4 -1 -0.8 -1 -0.4 0 -1.5 -1.3 -2.5 -2.9 -0.9 -1.6 -3.8 -5.6 -6.3 -9 l-4.6 -6.2 -2.7 1.7 c-1.4 1 -3.2 2.5 -3.9 3.5 -0.7 1 -4.8 4.6 -9.2 8 -9 6.9 -9.1 7.3 -1.9 13.1 2.3 1.8 4.5 4.3 5 5.6 1.2 3.2 3.8 2.7 10.5 -1.8 l5.9 -4 -5.5 5 c-3 2.7 -5.8 5 -6.2 5 -1.6 0 -0.7 1.7 2.7 5.8 2 2.2 5.3 6.9 7.4 10.4 5.4 8.9 10.5 10.1 18 4.1z m6.1 -14.8 c0.7 -0.9 1 -1.8 0.7 -2.2 -0.8 -0.7 -3.7 1.5 -3.7 2.8 0 1.4 1.6 1.1 3 -0.6z m114 -58.5 c0 -1.4 -4.8 -3.5 -5.8 -2.6 -0.8 0.9 2.6 3.6 4.5 3.6 0.7 0 1.3 -0.5 1.3 -1z"/>
  <path d="M533.5 208.9 c-2.2 -1.6 -4.1 -3.3 -4.2 -3.7 -0.1 -0.4 4.8 -4 10.9 -8.1 l11.1 -7.3 -2.5 4.3 c-1.4 2.4 -4.3 7.4 -6.4 11.2 -2.1 3.7 -4.1 6.7 -4.4 6.7 -0.3 0 -2.3 -1.4 -4.5 -3.1z"/>
  <path d="M586.3 194.9 c-0.1 -1 0.3 -1.6 1.1 -1.3 0.8 0.3 1.9 -1.6 3 -5.2 1.8 -5.6 1.6 -7.8 -0.6 -5.6 -0.7 0.7 -2 1.2 -3 1.2 -1 0 -1.8 0.6 -1.9 1.3 -0.1 2 -2.9 -7.6 -2.8 -9.8 0 -1.7 0.2 -1.6 1 0.5 0.6 1.4 1.3 2 1.7 1.4 1.4 -2 5.7 -4.4 7.9 -4.4 2.5 0 3 -1.8 1.1 -4 -1.3 -1.3 7.1 3.1 14.2 7.5 4.9 3.1 12 6.6 12 6 0 -0.2 -5.5 -4.1 -12.2 -8.6 -12.9 -8.5 -15.4 -10.5 -12.7 -9.4 1.3 0.5 2 -0.7 3.5 -6.2 1 -3.7 1.8 -7.1 1.6 -7.5 -0.1 -0.4 3 -1.7 6.8 -2.8 3.9 -1.1 7 -2.3 7 -2.7 0 -0.5 -6.2 0.2 -10.7 1.3 -2.2 0.6 -2.2 0.5 -0.8 -3.3 0.7 -2.1 2.3 -7.7 3.6 -12.6 1.2 -4.8 2.4 -8.5 2.6 -8.3 0.3 0.2 -0.5 3.9 -1.7 8.1 -1.2 4.2 -1.9 7.9 -1.7 8.2 1.5 1.4 15.4 -4.2 19.4 -8 2.1 -1.9 2.2 -2.1 0.5 -3.5 -1.2 -1 -0.9 -0.9 1 0.2 2.7 1.6 2.7 1.5 6.1 -2.7 5.4 -6.6 6 -8.2 4.3 -11.5 -2 -3.9 -15.1 -12.9 -17.6 -12 -0.5 0.2 -3 3.2 -5.5 6.7 -4.2 6.1 -4.4 6.6 -2.8 8.3 0.9 1 1.1 1.8 0.5 1.8 -0.6 0 -1.2 0.6 -1.5 1.3 -0.2 0.6 -0.3 0.3 -0.1 -0.7 0.2 -1.1 -0.1 -2.5 -0.7 -3.2 -0.6 -0.8 0.5 -3.2 3.6 -7.7 2.7 -3.9 4.2 -7.2 3.9 -8.1 -0.5 -1.4 -0.3 -1.4 2.2 -0.1 3.9 2 5.1 1.9 3 -0.4 -1.6 -1.8 -1.6 -2.1 0.4 -6 1.1 -2.3 2.3 -4.1 2.5 -4.1 0.3 0 -0.3 1.7 -1.4 3.8 l-1.9 3.8 2.3 3.1 c1.3 1.6 5.4 5.2 9 7.8 3.6 2.6 6.5 5 6.5 5.2 0 0.2 -0.5 0.1 -1.2 -0.3 -0.7 -0.4 -0.8 -0.3 -0.4 0.5 1.1 1.8 2.4 0.5 7.6 -7.7 l4.9 -7.6 -3.5 -2.5 c-1.9 -1.3 -3.4 -3 -3.4 -3.7 0 -0.7 -1 -2 -2.2 -2.8 -1.2 -0.9 -1.8 -1.6 -1.3 -1.6 0.5 0 2.8 2 5.1 4.5 2.2 2.5 4.6 4.5 5.2 4.5 0.6 0 2.1 -1.7 3.3 -3.7 1.3 -2.1 4.1 -5.8 6.3 -8.2 l4 -4.3 -3.5 -3.2 c-2 -1.7 -6 -5.2 -8.9 -7.9 -2.9 -2.6 -5.7 -4.7 -6.1 -4.7 -0.4 0 -2.2 1.7 -3.8 3.8 -1.7 2 -4.6 5.7 -6.6 8 -1.9 2.4 -3.5 4.8 -3.5 5.2 0 0.5 1.2 1.8 2.6 2.9 1.4 1.1 3.5 3.2 4.6 4.8 1.3 1.7 0.5 1.2 -2.3 -1.5 -2.5 -2.3 -5 -4.2 -5.6 -4.2 -0.6 0 -2.1 1.2 -3.3 2.8 l-2.2 2.7 1.6 -2.7 c0.9 -1.5 1.3 -3.5 1 -4.5 -0.5 -1.5 -0.4 -1.5 0.5 -0.3 0.5 0.8 1.1 1.2 1.3 1 0.2 -0.3 0.8 -1.2 1.3 -2.1 0.6 -0.9 3.6 -5 6.7 -9 3.1 -4.1 5.4 -7.5 4.9 -7.7 -0.4 -0.1 -4 0.9 -8.1 2.2 -7.1 2.4 -7.3 2.5 -8.9 0.6 -0.9 -1 -4.1 -3.7 -7.1 -5.9 l-5.4 -4.1 -2.4 2.2 c-1.4 1.4 -2.1 1.7 -1.7 0.7 0.7 -1.9 -10.3 -7.5 -21.5 -11 -6.3 -2 -9.6 -2.4 -21 -2.4 -15.1 0 -20.2 1 -38.3 7.8 -5.9 2.2 -11.1 3.7 -11.4 3.3 -0.9 -0.9 3.3 -5.1 9.1 -8.9 15.8 -10.4 19.6 -12.6 21.1 -12.1 0.8 0.4 2.7 -0.1 4.1 -1.1 1.8 -1.2 2.9 -1.4 3.7 -0.6 0.7 0.7 1.9 0.4 3.9 -1 2.4 -1.8 2.9 -1.8 3.4 -0.5 0.5 1.4 0.9 1.4 3.6 0 2.1 -1.1 3.4 -1.2 4.1 -0.5 0.7 0.7 1.9 0.5 4 -0.5 2.4 -1.3 3.1 -1.4 3.8 -0.3 0.7 1.1 1.4 1.1 4.1 0.1 2.9 -1.1 3.5 -1 4.6 0.5 1.2 1.6 1.4 1.6 4.2 -0.1 2.6 -1.5 3.1 -1.5 3.6 -0.2 0.8 2.2 3.8 2.8 6.7 1.5 2.1 -1 2.8 -0.8 4.6 1 1.9 1.9 2.9 2.1 6.5 1.6 3.9 -0.6 4.4 -0.5 4.9 1.5 0.5 2 1.1 2.2 4.5 1.7 3.4 -0.4 4.1 -0.2 5 1.8 0.8 1.7 2.2 2.4 6.1 2.9 4 0.5 5.1 1.1 5.1 2.5 0 2.4 1.7 3.7 6 4.6 6.5 1.2 6.9 1.5 6.7 4.2 -0.2 2.2 0.3 2.8 2.9 3.3 4.5 1 5.4 1.8 5.4 4.9 0 2.5 0.7 3.1 5 4.9 5.1 2.1 5.9 3.6 4 7.1 -0.8 1.5 0 2.4 4.5 5.6 5.9 4 6.3 4.9 4 8.3 -1.5 2 -1.4 2.4 2.5 7.3 4.6 5.8 4.8 7.1 1.8 9.1 l-2.2 1.5 2.7 6.4 c3.4 8 3.4 9.7 0.1 10.9 -2.3 0.9 -2.5 1.4 -2 4.3 0.3 1.7 0.9 5.5 1.2 8.4 l0.7 5.2 -3.9 0.3 -3.9 0.3 -0.5 6.5 -0.5 6.5 -3.5 0 c-2.7 0 -3.5 0.4 -3.8 2 -1.4 8.2 -2.1 9.4 -5.9 9.7 -3.3 0.3 -3.8 0.7 -5.1 4.7 -1.3 4 -1.6 4.3 -4.3 3.7 -2.5 -0.5 -3.1 -0.1 -5 3.4 -2.2 3.9 -5.1 5.2 -6.5 2.9 -0.4 -0.7 -2.1 0.3 -4.4 2.6 -3.4 3.3 -4 3.5 -5.8 2.4 -1.9 -1.2 -2.5 -1 -5.1 1.5 -2.6 2.5 -3.3 2.7 -4.6 1.6 -1.3 -1.1 -1.9 -0.9 -3.8 0.8 -2.2 2 -2.4 2.1 -4 0.5 -1.6 -1.6 -1.8 -1.5 -4.3 0.8 -2.4 2.2 -2.6 2.3 -3.8 0.7 -1.6 -2.2 -2.5 -2.2 -4.8 -0.1 -1.9 1.7 -2 1.6 -3.8 -0.7 l-1.9 -2.5 -1.1 3.2 c-1.3 3.6 -3.5 5 -3.7 2.2z"/>
  <path d="M578.6 184.4 c-0.8 -2.2 -0.8 -3.9 0.2 -3 0.4 0.4 0.7 1.1 0.7 1.4 0 0.4 0.4 1.3 0.8 2 0.5 0.6 0.4 1.2 -0.1 1.2 -0.6 0 -1.3 -0.7 -1.6 -1.6z"/>
  <path d="M588 119.6 c0 -0.3 1.9 -5.7 4.1 -12.1 3 -8.4 3.8 -11.9 3 -12.4 -1.9 -1.2 10 -1.1 12.2 0.1 1.8 0.9 2.3 0.7 3.6 -1.3 3.5 -5.1 5.3 -6.5 2.9 -2.2 -2.6 4.8 -4.1 5.7 -6.8 4.3 -1 -0.6 -3.4 -1 -5.2 -1 l-3.3 0 3.8 3.1 c2 1.7 3.7 3.5 3.7 4.1 0 0.6 -0.9 0.1 -1.9 -1.1 -1.1 -1.2 -2.8 -2.3 -3.9 -2.4 -1.2 0 -1.8 -0.5 -1.6 -0.9 0.3 -0.4 0 -0.8 -0.5 -0.8 -0.6 0 -1.1 0.4 -1.1 1 0 0.5 -1.1 3.3 -2.4 6.2 -1.3 2.9 -3.1 7.7 -4.1 10.6 -1.4 4.4 -2.5 6.5 -2.5 4.8z"/>
  <path d="M156.5 102.5 l1.2 -5.5 -3.2 -2 c-1.7 -1.1 -6.7 -3.6 -11.1 -5.6 l-7.8 -3.5 5.4 -5 c3 -2.7 6.6 -5.1 8 -5.4 1.4 -0.3 4.8 -1.7 7.5 -3 4.6 -2.3 5.4 -2.4 9.6 -1.2 3.5 0.9 5.6 2.4 8.4 5.7 2 2.4 3.3 4.6 2.8 4.7 -0.5 0.2 -4 -0.8 -7.8 -2.2 -3.9 -1.4 -7.4 -2.5 -7.8 -2.5 -0.5 0 1.1 1.6 3.5 3.6 4.6 3.9 5.5 5.8 5.7 11.7 0.1 4.1 -0.4 4.5 -2.9 2.2 -1.6 -1.4 -2.1 -1.4 -5.4 0.6 -2 1.1 -3.7 2.6 -3.8 3.2 -0.6 5.3 -1.9 9.7 -2.8 9.7 -0.4 0 -0.2 -2.5 0.5 -5.5z m5.5 -15 c0 -0.5 -0.4 -1.7 -0.9 -2.4 -0.8 -1.3 -1.5 -1.2 -4.5 0.4 -2 1.1 -3.6 2.3 -3.6 2.7 0 0.3 2 0.6 4.5 0.5 2.5 -0.1 4.5 -0.6 4.5 -1.2z"/>
 </g>
 <g fill="#6e4082">
  <path d="M531 225.8 c0 -1.3 6.2 -11.2 7.8 -12.4 1.3 -0.9 1.9 -0.9 2.7 0 2.1 2.6 7.5 5.7 8.7 5 1 -0.5 1 -0.4 0.1 0.6 -1 1.1 -2.1 0.8 -5.7 -1.8 -2.4 -1.8 -4.7 -3.2 -5 -3.2 -0.3 0 -2.4 2.8 -4.6 6.3 -2.2 3.4 -4 5.9 -4 5.5z"/>
  <path d="M590.1 218.4 c-1.5 -6.1 -0.8 -6.8 0.9 -0.9 0.7 2.5 1 4.8 0.8 5.1 -0.3 0.2 -1.1 -1.6 -1.7 -4.2z"/>
  <path d="M603.7 217 c-3.1 -2.5 -4.4 -7.8 -2.7 -11.1 4 -7.7 13.9 -7.8 17.5 -0.2 2 4.1 0.7 9.4 -2.8 11.8 -3.1 2.1 -8.9 1.9 -12 -0.5z m11.9 -1.4 c5.8 -4.9 2 -14.6 -5.7 -14.6 -3.8 0 -8.9 4.8 -8.9 8.3 0 1.4 1.2 3.9 2.6 5.6 3.3 3.9 8 4.2 12 0.7z"/>
  <path d="M605 209.5 l0 -5.5 3.9 0 c4.5 0 7 2.2 5.2 4.4 -0.8 0.9 -0.8 2.1 -0.1 4 0.6 1.7 0.6 2.6 0 2.6 -0.6 0 -1 -0.9 -1 -1.9 0 -1.2 -1.1 -2.3 -2.7 -2.9 l-2.8 -1 2.8 -0.1 c4.1 -0.1 3.3 -3.6 -0.8 -3.6 -2.9 0 -3 0.1 -2.9 4.8 0.1 2.6 -0.2 4.7 -0.7 4.7 -0.5 0 -0.9 -2.5 -0.9 -5.5z"/>
  <path d="M117.4 216.7 c-0.3 -0.9 -0.4 -2.4 -0.1 -3.4 0.3 -1.1 0.5 -0.8 0.6 1 l0.1 2.9 6.3 -5.5 c13.6 -12 15.1 -13.8 13.9 -15.8 -1 -1.6 -0.9 -1.9 0.4 -1.9 0.9 0 1.4 -0.5 1.2 -1.1 -0.6 -1.8 -2.2 -1.3 -3.3 1 -0.5 1.1 -1.3 2.1 -1.7 2.1 -1.2 0 -1 -0.8 0.7 -3.4 1.4 -2.1 1.3 -2.7 -0.6 -7.4 -1.3 -3.1 -2.8 -5.2 -3.7 -5.2 -1.3 0 -1.2 -0.2 0.3 -1.3 1.3 -1 1.5 -1.6 0.6 -2.1 -1.3 -0.9 -4.4 1.2 -3.6 2.4 0.2 0.4 -2.1 2.4 -5.3 4.5 l-5.7 3.7 6.1 -6.3 c5.4 -5.6 6.1 -6.7 5.2 -8.6 -2.2 -4.5 -2.5 -4.4 -20 8.9 -2 1.5 -4 2.8 -4.4 2.8 -1.1 0 3.9 -4.4 6.8 -5.9 1.5 -0.7 5.3 -3.5 8.5 -6.2 3.2 -2.7 7.3 -5.1 9.1 -5.5 1.7 -0.3 3.2 -0.8 3.2 -1 0 -0.7 -8.3 -13.9 -10.9 -17.4 -1.5 -1.9 -3.5 -5.3 -4.5 -7.5 -2.3 -5.2 -12.5 -22.5 -13.2 -22.5 -0.3 0 -1.5 0.5 -2.7 1.1 -2.1 1.1 -2.1 1 0.2 -1.5 1.4 -1.4 2.2 -2.8 1.9 -3.1 -0.6 -0.6 -3.8 2.8 -5.2 5.7 -0.6 1.2 -1.7 2.3 -2.4 2.6 -0.8 0.2 0 -1.5 1.7 -3.8 3.7 -5.2 3.8 -6.3 0.6 -11.8 -1.3 -2.3 -2 -4.2 -1.5 -4.2 0.5 0 2.1 2.3 3.5 5 1.4 2.8 3.5 5.4 4.7 5.9 1.4 0.5 1.7 1 1 1.5 -0.7 0.4 0.2 2.7 2.8 6.8 3.4 5.4 4.3 6.2 7.7 6.7 5.2 0.8 18 0.8 18.8 0 0.3 -0.4 -2 -5.5 -5.2 -11.5 -4.6 -8.6 -6.6 -11.3 -9.4 -12.9 -2 -1.1 -3.6 -2.4 -3.5 -2.8 0 -0.4 -1.4 -1.7 -3.2 -2.9 -1.8 -1.1 -3.1 -2.3 -2.8 -2.5 0.6 -0.7 4.8 1.7 7.2 4.1 5 5 8.2 7.1 12.4 8.3 l4.5 1.3 -4.3 -0.5 -4.2 -0.5 3.1 6.2 c1.7 3.5 3.7 7 4.4 7.8 0.7 0.8 4.2 7.1 7.7 14 3.6 6.9 8.6 16 11.2 20.4 3.1 5.3 4.5 8.5 4.1 10 -0.4 1.5 -0.1 1.3 1 -0.6 1 -1.9 2.4 -2.8 4.1 -2.8 3.4 0 9.4 -2.6 9.5 -4.2 0.2 -1.9 -0.2 -5.2 -0.7 -5.7 -0.7 -0.8 -4.4 3.2 -4.5 4.8 0 0.9 -0.3 1.1 -0.5 0.5 -0.3 -0.6 0.4 -3.1 1.4 -5.5 l1.9 -4.4 -3.3 -6.7 c-1.9 -3.8 -3.7 -6.8 -4 -6.8 -0.3 0 -2.9 2.4 -5.6 5.3 -2.8 2.8 -4.1 3.9 -3 2.2 1.1 -1.6 3.2 -4.1 4.6 -5.4 1.4 -1.4 2.6 -3.1 2.6 -4 0 -1.9 -7.3 -14.3 -9.6 -16.2 -1.4 -1.1 -1.8 -1.1 -2.2 -0.1 -0.5 1.6 -6.4 7.2 -7.6 7.2 -0.5 0 1 -1.9 3.2 -4.2 2.9 -2.9 3.9 -4.5 3.2 -5.2 -0.7 -0.7 -1.8 -0.2 -3.3 1.7 l-2.2 2.8 0 -3.8 c0 -3.4 -0.3 -3.9 -3.5 -5 l-3.5 -1.2 4.6 0.2 c4.2 0.2 4.5 0.4 4.1 2.6 -0.3 1.6 -0.1 2.2 0.7 1.7 0.6 -0.4 1.1 -1.7 1.2 -2.9 0 -2.1 0.1 -2.1 0.9 -0.2 0.4 1.1 2.7 3.8 5 6 2.3 2.2 5.1 5.7 6.3 7.8 l2.1 3.8 10.6 -0.3 c8.4 -0.2 10.8 0 11.8 1.2 1 1.3 1.1 1.2 0.5 -0.5 -0.3 -1.1 -1.4 -3.1 -2.3 -4.5 -1 -1.4 -2.9 -4.7 -4.3 -7.5 -1.4 -2.7 -5.4 -8 -8.9 -11.7 -3.5 -3.8 -5.9 -6.8 -5.3 -6.8 1 0 6.5 5.7 6.5 6.8 0 0.3 1.5 1.9 3.3 3.7 1.7 1.7 4.1 4.9 5.2 7.1 3.5 6.8 5.5 9.3 7 8.7 0.8 -0.3 1.5 -0.9 1.5 -1.5 0 -0.5 -0.4 -0.6 -1 -0.3 -0.5 0.3 -1 -0.3 -1 -1.3 0 -1.6 -8.2 -21 -9.7 -23.1 -0.2 -0.2 -1.3 0.4 -2.5 1.5 -2.1 1.7 -2.1 1.6 0.1 -0.9 1.6 -1.7 3.4 -2.7 5 -2.6 2.4 0.2 2.4 0.2 0.4 0.6 l-2.3 0.4 2.4 4.7 c1.9 3.9 6.3 14.2 10.7 25 0.5 1.3 1.3 2.1 1.7 1.8 0.5 -0.3 4.3 -0.6 8.5 -0.7 4.2 -0.1 7.7 -0.5 7.7 -1 0 -0.4 -0.4 -1.9 -1 -3.4 -0.6 -1.5 -0.6 -2.4 -0.1 -2 0.5 0.3 1.7 2.8 2.6 5.6 1.4 4.2 2.1 5 3.8 4.7 1.4 -0.2 2.3 -1.1 2.5 -2.7 0.3 -1.7 0 -2.2 -1 -1.9 -0.9 0.4 -1.4 -0.2 -1.3 -2 0 -2 -0.9 -3 -4.8 -5 -2.6 -1.4 -4.6 -2.7 -4.3 -2.9 1 -1 8.7 3.2 11.5 6.3 2 2.1 4.2 3.5 5.9 3.5 3.9 0.2 8.5 -0.1 9 -0.6 0.9 -0.8 -2.1 -9.6 -4.1 -12.3 l-2.1 -2.7 2.1 1.9 c2.7 2.2 6.3 12.6 6.3 18 l0.1 4.1 1.6 -3 c0.8 -1.6 2.1 -3.7 2.8 -4.5 1.8 -2.2 2.6 -5 1.4 -5 -0.5 0 -1.3 0.9 -1.7 1.9 -0.4 1.1 -0.7 -1.6 -0.7 -5.9 -0.1 -7.2 -1.1 -11.3 -2.2 -8.3 -0.3 0.7 -1.3 2.3 -2.4 3.5 -1.3 1.6 -1.1 0.9 0.7 -2.4 2.2 -4.2 2.8 -4.7 5.2 -4.2 1.5 0.3 5.4 0.9 8.7 1.4 5.6 0.8 5.4 0.8 -2.1 0.3 l-8.2 -0.5 1.5 6.3 c0.8 3.5 1.9 6.9 2.4 7.5 0.5 0.7 0.8 1.8 0.7 2.5 -0.2 0.7 1 1.6 2.7 2 4.2 0.9 19.5 1.1 19.5 0.2 -0.1 -0.5 -1.3 -3.9 -2.8 -7.8 -1.9 -4.8 -3.5 -7.4 -5.2 -8.2 l-2.5 -1.3 2.3 0 c2.4 0 4.8 4.2 8.3 14.5 0.7 2.2 2.3 5.4 3.5 7 1.2 1.7 2.5 4.1 2.9 5.5 0.8 2.9 6.9 18.1 9 22.5 5.4 11.6 6.4 14.6 5.5 17 -0.5 1.4 -1.2 2.5 -1.6 2.5 -0.3 0 -0.3 -0.7 0 -1.6 0.6 -1.4 0 -1.6 -4 -1.1 -3.6 0.4 -5.1 1.2 -7.4 3.8 -1.9 2.3 -2.4 3.6 -1.7 4.1 0.7 0.4 -0.1 0.6 -1.7 0.5 -1.6 -0.1 -3.1 -0.8 -3.2 -1.5 -0.1 -0.7 0 -0.8 0.3 -0.2 0.8 1.8 2 1.1 5.1 -2.8 l3.1 -3.8 -2 -4.4 -2 -4.4 -2.9 3.5 c-2.5 2.8 -2.9 4 -2.5 6.9 0.2 1.9 0.1 2.9 -0.3 2.2 -0.6 -0.9 -1.8 -0.1 -4.1 2.8 -2.8 3.5 -3.7 4 -6.9 3.8 l-3.7 -0.1 3.6 -0.4 c2.8 -0.3 4.4 -1.3 6.8 -4.3 1.7 -2.1 3.1 -4.1 3.1 -4.4 0 -0.9 -7.7 -0.7 -10.2 0.3 -1.3 0.5 -3.4 2.8 -4.8 5 -1.4 2.3 -3.2 4.1 -4 4.1 -0.8 0 -2.6 0.3 -4 0.5 -1.4 0.3 -1.8 0.2 -1 -0.1 0.8 -0.4 2.8 -2.1 4.4 -3.8 2.7 -3 2.7 -3 1.2 -0.3 -2.5 4.1 0 3.2 2.9 -1.1 l2.5 -3.8 -3 -15.9 c-1.7 -8.8 -3.7 -19.1 -4.5 -23 -2.7 -12.2 -3.1 -12.7 -5.8 -7 -0.9 1.9 -2.2 3.4 -2.8 3.3 -0.6 -0.2 -1.4 0.3 -1.7 1.1 -0.3 1 0 1.1 0.9 0.5 1.2 -0.6 1.2 -0.5 0 0.9 -1.2 1.6 -1.1 2.1 1.4 4.7 2.4 2.5 3.1 2.8 4.4 1.7 1.4 -1.1 1.4 -1 0.2 0.5 -1.1 1.5 -1 2.4 0.7 6 3.5 7.5 8.6 26.8 7.3 28.1 -0.6 0.6 -1.1 0.7 -1.1 0.1 0 -0.5 -2.4 -0.7 -5.2 -0.6 -5.7 0.4 -8.8 2.4 -11.4 7.4 -1.2 2.4 -1.2 2.7 0.4 3.1 1 0.3 0.7 0.5 -1 0.6 -1.5 0 -3 0.6 -3.3 1.2 -0.5 0.7 -1.3 0.5 -2.5 -0.6 -1.5 -1.4 -1.8 -1.4 -3 0 -0.7 0.8 -1.7 1.5 -2.2 1.5 -0.5 0 0.6 -1.3 2.4 -2.9 1.8 -1.6 4.2 -4.4 5.2 -6.2 1.7 -3 1.8 -3.2 0.2 -2.6 -1 0.4 -4.3 1 -7.4 1.4 -4.7 0.5 -6.5 1.3 -10.1 4.5 -2.4 2.1 -4.9 4.9 -5.6 6.2 -1.1 2.1 -1.1 2.3 0.9 2 2 -0.4 2 -0.4 0.1 0.5 -4.5 2.1 -7.7 0.8 -7.4 -3.2 0 -0.7 0.4 -0.2 0.9 1.1 1 2.2 3 3.1 3 1.1 0 -0.6 2.5 -3.4 5.6 -6.4 l5.6 -5.3 -1.2 -3.9 c-1.8 -5.7 -2.5 -5.9 -5.1 -1.4 -1.2 2.2 -2.4 3.9 -2.6 3.8 -0.5 -0.5 2.7 -6.6 3.8 -7.2 0.5 -0.4 0.9 -1.5 0.9 -2.7 0 -2.9 -6.3 -16.8 -7.6 -16.8 -1.5 0 -2.5 3.8 -1.3 4.6 2.8 1.7 -0.2 15.8 -4.3 20.1 -1.9 2 -1.9 2.5 -0.8 5.3 l1.3 3.1 2.9 -2.8 2.9 -2.8 -2.3 4.2 -2.3 4.2 -1.9 -3.2 c-1.1 -1.8 -2.1 -3.4 -2.3 -3.6 -0.2 -0.3 -2.7 1.7 -5.5 4.5 l-5.1 4.9 3.3 -4.4 c3 -3.9 3.1 -4.2 1 -2.8 -1.4 0.8 -5.6 2.7 -9.5 4.2 -3.8 1.4 -7.9 3.4 -9 4.3 -1.2 0.9 -0.6 0.3 1.2 -1.4 3 -2.9 3.2 -3.2 1.4 -3.7 -1.1 -0.2 -2.2 0 -2.5 0.7 -2 4.1 -5.4 9 -6.6 9.4 -0.8 0.3 -0.5 -0.6 0.8 -2.3 4 -5.1 3.2 -5.2 -9.8 -1.5 -5.7 1.7 -7.6 2.9 -15.5 10.4 -4.9 4.7 -8.9 9 -8.7 9.6 0.1 0.5 -0.2 1 -0.7 1 -0.5 0 -1.6 0.3 -2.5 0.6 -0.9 0.4 -1.8 0 -2.2 -0.9z m106.3 -28.4 c0.9 -1.6 2.7 -4 4.1 -5.4 l2.4 -2.7 -2.3 -5.1 c-2 -4.9 -2.3 -5.1 -4 -3.5 -1.4 1.2 -1.6 2.1 -0.8 4.1 1.5 3.9 1.1 6.2 -1.6 9.7 -1.4 1.8 -2.5 3.8 -2.5 4.4 0 2.2 3 1.2 4.7 -1.5z m40.3 -19.5 c0 -0.5 -1.4 -0.8 -3.1 -0.8 -2.4 0 -3 0.3 -2.5 1.6 0.3 0.9 0.6 2.5 0.6 3.7 0.1 2 0.3 2 2.5 -0.8 1.4 -1.6 2.5 -3.3 2.5 -3.7z m-107 4.5 c-0.1 -2.7 -1.7 -3.3 -4.6 -1.8 l-2.9 1.6 3.3 -0.6 c2 -0.4 3.2 -0.3 3.2 0.4 0 0.6 0.2 1.1 0.5 1.1 0.3 0 0.5 -0.3 0.5 -0.7z m69.4 -6.5 c-0.3 -0.4 -1 -0.6 -1.5 -0.3 -0.5 0.4 -0.9 0 -0.9 -0.7 0 -2.8 -3.5 -9.8 -4.7 -9.3 -0.8 0.3 -1.2 -0.4 -1 -1.7 0.1 -1.4 -0.4 -2.4 -1.5 -2.6 -1.5 -0.3 -1.7 0.2 -1.1 3 0.3 1.8 1.5 5.3 2.6 7.8 1 2.5 2.3 5.5 2.8 6.8 l0.9 2.2 2.4 -2.1 c1.4 -1.2 2.3 -2.6 2 -3.1z m32.8 -13.4 c0.6 -0.5 -5.7 -16.3 -6.9 -17.4 -0.3 -0.3 -0.3 0.9 0.1 2.5 0.3 1.7 1.1 5.5 1.7 8.5 0.6 3 1.3 5.8 1.6 6.3 0.5 0.8 2.7 0.9 3.5 0.1z m-86.6 -1.4 c0.9 0 1.2 -0.4 0.9 -1 -1 -1.6 -4.2 -1.2 -4.9 0.6 -0.5 1.2 -0.2 1.5 1 1 0.8 -0.3 2.2 -0.6 3 -0.6z m23.9 0.1 c0.3 -0.6 -0.1 -1.3 -0.9 -1.8 -0.7 -0.4 -3.3 -5.5 -5.6 -11.3 -2.3 -5.8 -4.7 -10.9 -5.1 -11.5 -1.8 -1.9 -0.8 2.6 1.7 8.2 8.5 18.6 8.5 18.6 9.9 16.4z"/>
  <path d="M126.5 214.6 c1.7 -0.7 4.1 -1.6 5.5 -2 2 -0.5 1.9 -0.3 -0.5 0.8 -1.6 0.7 -4.1 1.6 -5.5 2 -2 0.5 -1.9 0.3 0.5 -0.8z"/>
  <path d="M136 211.3 c5.7 -2.1 8.9 -2.9 8.4 -2.2 -0.2 0.4 -2.1 1.3 -4.2 1.9 -3.8 1 -6.8 1.3 -4.2 0.3z"/>
  <path d="M533.5 208.9 c-2.2 -1.6 -4.1 -3.3 -4.2 -3.7 -0.1 -0.4 4.7 -4 10.8 -8 10.1 -6.7 10.9 -7 9.4 -4.2 -0.8 1.6 -1.8 3 -2.1 3 -0.3 0 -0.2 -0.4 0.1 -1 0.3 -0.5 0.3 -1 -0.1 -1 -1.3 0 -16.4 10.2 -16.4 11 0 0.5 1.9 2.2 4.2 3.9 2.3 1.7 3.8 3.1 3.2 3.1 -0.5 0 -2.7 -1.4 -4.9 -3.1z"/>
  <path d="M115.6 208.4 c-0.4 -1.4 -0.5 -2.8 -0.3 -3.1 0.3 -0.2 0.8 0.8 1.1 2.3 0.4 1.4 0.5 2.8 0.3 3.1 -0.3 0.2 -0.8 -0.8 -1.1 -2.3z"/>
  <path d="M146.5 208 c-0.8 -1.2 2.1 -5.6 4.3 -6.5 1.2 -0.4 1 0 -0.6 1.8 -2.4 2.6 -2.9 4.7 -0.9 4.7 2.4 -0.1 12.4 -2.8 14.5 -3.9 1.2 -0.7 4.8 -3.2 8 -5.7 l5.7 -4.5 -5 4.6 c-6 5.6 -10.3 7.9 -17.3 9.4 -6.5 1.4 -7.9 1.4 -8.7 0.1z"/>
  <path d="M567 208.7 c0 -0.3 3.3 -2.5 7.3 -4.9 9.1 -5.7 9.7 -6 9.7 -5.5 0 0.2 -2.8 2.1 -6.2 4.2 -3.5 2.1 -7.3 4.5 -8.5 5.3 -1.3 0.8 -2.3 1.2 -2.3 0.9z"/>
  <path d="M112.2 198.6 c-1.3 -2.9 -3.6 -6.7 -5.3 -8.5 -1.6 -1.9 -2.8 -3.5 -2.6 -3.8 1.2 -1.2 11.2 14.7 10.5 16.7 -0.2 0.5 -1.3 -1.5 -2.6 -4.4z"/>
  <path d="M508 199.4 c-5.1 -1.2 -5.2 -1.3 -1.1 -0.8 5.1 0.5 5 0.5 -2.8 -7.4 -3.8 -3.9 -4.9 -4.4 -10 -4.9 l-5.6 -0.6 4 4.3 c2.2 2.3 5.4 5.1 7 6.1 1.7 1 2.4 1.9 1.7 1.9 -0.7 0 -3.7 -2.3 -6.7 -5.1 -3 -2.8 -5.9 -4.8 -6.4 -4.4 -0.6 0.3 -1.1 0.1 -1.1 -0.5 0 -0.6 -1.1 -2.6 -2.5 -4.4 -2.9 -3.8 -3.2 -9 -0.9 -15.1 0.8 -2.2 1.8 -4.9 2.1 -6 0.3 -1.1 1.4 -3.9 2.5 -6.2 1.7 -3.8 2.4 -4.3 6.3 -4.9 2.4 -0.3 4.8 -0.3 5.4 0.1 1.9 1.1 1.2 -0.5 -1.8 -4.3 -3.3 -4.3 -4.5 -8.1 -3 -9.8 2 -2.4 0.5 -5.8 -3.9 -8.7 -3.9 -2.6 -4.8 -2.9 -9.8 -2.2 -3 0.3 -5.4 1 -5.4 1.5 0 0.5 2 2.5 4.5 4.6 3.6 2.9 5.1 3.5 7.4 3.1 1.7 -0.4 3.6 0 4.7 0.8 1.1 0.8 1.4 1.5 0.7 1.5 -0.6 0 -1.5 1 -1.9 2.3 -0.3 1.2 -1.5 4.2 -2.6 6.6 -1.1 2.4 -1.8 5.5 -1.5 6.8 0.4 2.2 0.3 2.3 -1.3 0.8 -1.4 -1.2 -3.6 -1.5 -10.1 -1.3 l-8.4 0.3 5 5.5 4.9 5.5 -5.5 -5.3 -5.6 -5.3 -1.1 2.8 c-0.6 1.5 -1.4 4 -1.7 5.4 -0.8 3.2 0.7 3.7 11.3 4 4.9 0.1 7.1 0.5 6.8 1.3 -3.2 7.1 -5.6 13.4 -5.6 14.6 0 0.8 1.6 3.5 3.5 5.9 1.9 2.4 3.5 4.8 3.5 5.2 0 1.8 1.9 0.8 2.5 -1.2 0.4 -1.1 0.9 -1.8 1.2 -1.6 0.2 0.3 0 1.5 -0.7 2.6 -0.8 1.5 -2 2.1 -4.3 2 -1.8 -0.1 -2.4 -0.3 -1.5 -0.6 1.4 -0.4 1.5 -0.8 0.6 -2.9 -0.6 -1.3 -1.5 -2.4 -2 -2.4 -0.5 0 -0.6 0.6 -0.2 1.3 0.4 0.6 0.3 0.8 -0.2 0.4 -0.4 -0.4 -1.3 -2.2 -1.9 -4 -0.9 -2.8 -1.5 -3.2 -5.1 -3.5 -3.1 -0.2 -4.4 -0.9 -5.2 -2.5 l-1.1 -2.2 0 2.1 c-0.1 2 2 4.8 3 4 0.2 -0.1 1.7 1.3 3.4 3.3 2.6 3.1 2.6 3.3 0.5 1.6 -1.4 -1 -4.1 -3.3 -6 -5.1 -4 -3.5 -9.7 -5.4 -16.5 -5.4 -4.3 0 -4.6 0.2 -3.5 1.8 0.7 0.9 -0.4 -0.1 -2.4 -2.2 -2.8 -3.1 -3.9 -3.7 -4.8 -2.8 -0.7 0.7 -4.3 1.2 -8.9 1.2 -8.3 0 -10.1 1 -7.5 3.9 0.9 1 1.6 2.2 1.6 2.8 0 0.7 3.8 1.4 9.8 1.8 12.1 0.8 14.5 1.3 6.7 1.3 -10.9 0.1 -17.3 -1.2 -19.8 -3.8 -1.2 -1.3 -1.4 -1.8 -0.4 -1.1 1.6 1.3 2.5 0.2 1 -1.3 -0.5 -0.4 -0.8 -1.5 -0.9 -2.4 -0.4 -5.9 -0.2 -5.7 -2.3 -3.8 -1.9 1.7 -2 1.7 -3.1 -0.5 -1.4 -2.6 -0.9 -10.5 1.5 -22.4 0.9 -4.4 1.9 -10.9 2.2 -14.5 0.3 -3.6 0.9 -7 1.3 -7.5 0.5 -0.6 1.4 -4.1 2.1 -7.8 1.1 -5.8 1.5 -6.7 3.3 -6.6 1.6 0.1 1.7 0.2 0.4 0.6 -1.1 0.3 -1.9 2.2 -2.6 6.1 -0.6 3.1 -1.3 6.5 -1.7 7.5 -0.6 1.4 -0.1 1.7 3.3 1.7 6.8 0 8.9 -1.3 10 -6.2 0.7 -3.2 1 -3.6 1.1 -1.6 0.1 1.5 -0.3 3.8 -0.9 5.2 -0.6 1.7 -0.6 2.6 0 2.6 0.6 0 1 0.7 1 1.5 0 0.8 -0.4 1.5 -1 1.5 -1.1 0 -2.3 4 -5.2 17.6 -2.2 10.5 -2 15.1 0.6 12.3 1.7 -1.8 7 -26.4 6.1 -27.9 -0.4 -0.7 -0.2 -1.6 0.4 -2 0.7 -0.4 1.5 -3.2 1.8 -6.3 0.3 -3.2 0.9 -5.7 1.4 -5.7 0.4 0 1.2 -1.9 1.6 -4.2 l0.8 -4.2 7.8 -1.1 c8.1 -1.1 9.4 -0.8 7.9 2.2 -0.5 1 -1.9 6.1 -3.1 11.3 -3.4 14.7 -6.3 24 -7.2 23.4 -0.5 -0.3 -0.9 0 -0.9 0.5 0 0.6 0.9 1.1 2 1.1 1.4 0 2.2 -1 2.9 -3.7 0.5 -2.1 2.8 -11 5 -19.7 2.2 -8.7 4.2 -16 4.3 -16.1 0.9 -0.8 7.8 -1.4 7.8 -0.8 0 0.4 -1.4 0.9 -3.1 1 -1.8 0.1 -3.4 0.5 -3.7 0.7 -0.7 0.7 -4.1 13.8 -4.2 15.9 0 1.6 0.6 1.8 4.3 1.3 2.3 -0.3 6.5 -1.3 9.2 -2.1 2.8 -0.9 9.5 -2.1 15 -2.8 l10 -1.2 1.6 -4.9 c0.9 -2.7 1.9 -4.2 2.1 -3.5 0.3 0.8 0.1 2.1 -0.4 2.9 -0.4 0.8 -1.2 2.7 -1.7 4.2 -0.7 1.8 -1.8 2.8 -3.5 3 l-2.5 0.3 2.1 3.4 2.2 3.4 2.3 -5.4 c1.3 -2.9 2.6 -6.4 2.9 -7.8 0.7 -3.3 4.7 -11.1 5.6 -11.1 0.4 0 1 0.5 1.4 1.2 0.4 0.7 0.3 0.8 -0.4 0.4 -1.4 -0.8 -3.6 3.4 -6.1 11.4 l-1.9 6 3.2 0.2 c1.7 0 3.8 0.2 4.6 0.3 0.8 0.1 2.3 -0.2 3.3 -0.7 1.1 -0.6 1.7 -0.5 1.7 0.4 0.1 0.7 1.4 -1.3 3 -4.4 3.2 -6.1 5.3 -7.8 9.6 -7.8 2.9 0 2.9 0 0.8 9.4 -0.6 2.6 -0.5 2.8 1.5 2.1 1.2 -0.4 2.8 -0.2 3.6 0.5 0.8 0.6 1.9 0.8 2.6 0.4 0.7 -0.4 2.4 -0.7 4 -0.6 2.5 0.1 3.2 -0.8 7.8 -9.7 2.7 -5.4 5.2 -11.3 5.6 -13.3 0.6 -3.1 0.3 -3.8 -2.2 -5.8 -2.4 -1.9 -3.6 -2.1 -8.1 -1.7 -3 0.3 -7.1 1.5 -9.3 2.5 -2.5 1.3 -3.5 1.5 -2.8 0.6 1.5 -1.8 10.2 -4.4 14.7 -4.4 2.8 0 4.4 0.9 8 4.5 2.5 2.5 4.6 4.4 4.7 4.3 2.5 -3.9 5.3 -9.1 6.5 -12.3 1.2 -3.1 2.1 -4 4 -4.2 1.5 -0.1 1.8 0 0.7 0.3 -1 0.3 -3 3.1 -4.6 6.2 -1.6 3.1 -4.7 9.2 -7.1 13.5 -2.3 4.3 -4 8.1 -3.7 8.4 0.3 0.3 3.4 -1.9 6.9 -4.8 6 -5 20.8 -12.7 27.3 -14.3 2.8 -0.7 2.9 -0.6 1 0.7 -1 0.8 -2.5 1.3 -3.2 1 -0.7 -0.3 -2.7 1.6 -4.5 4.2 -5.1 7.4 -5.9 8.3 -5.3 6.4 0.7 -1.9 -3.5 -4.4 -6.1 -3.5 -1.1 0.4 -3 1.5 -4.4 2.6 l-2.5 2 3.3 3 c1.8 1.7 2.8 3 2.2 3 -0.5 0 -1 0.7 -1 1.5 0 2.2 1.1 1.8 3.8 -1.2 1.2 -1.6 0.2 0.5 -2.4 4.5 -4.7 7.2 -7.5 10.3 -3.5 3.8 2.4 -3.8 2.1 -7.7 -0.9 -11.6 l-1.8 -2.3 -3.8 3 c-2.2 1.7 -4.8 4.1 -5.9 5.3 l-2 2.2 2.5 1.7 c1.3 0.9 3.9 2.8 5.6 4.3 1.7 1.5 3.5 2.4 3.9 2 1.1 -1 -0.3 1.5 -3.7 6.6 -1.6 2.3 -2.6 4.7 -2.2 5.4 0.4 0.6 -0.7 0.3 -2.5 -0.8 -1.7 -1 -3.1 -2.2 -3.1 -2.7 0 -0.4 -0.4 -0.6 -0.9 -0.3 -0.4 0.3 -1.7 -0.1 -2.7 -0.9 -1.8 -1.5 -1.8 -1.5 0.1 -0.8 1.7 0.5 1.7 0.3 -0.5 -1.9 -1.4 -1.5 -3 -3.2 -3.6 -4 -0.8 -1 -2.4 -1.3 -4.9 -1 -3.8 0.5 -3.8 0.5 -1.4 1.8 1.3 0.7 2 1.4 1.4 1.4 -0.5 0 0.1 1 1.5 2.1 2.2 1.8 2.2 1.9 0.3 1 -1.2 -0.6 -2.5 -1.6 -2.8 -2.1 -0.3 -0.6 -1.1 -1 -1.6 -1 -0.6 0 0 1.5 1.2 3.3 1.7 2.4 1.1 2 -2.4 -1.5 -3.1 -3.2 -5.5 -4.8 -7.2 -4.8 -1.4 0 -2.5 0.4 -2.5 1 0 3.1 14.2 15.1 17 14.3 1.3 -0.4 1.3 -0.3 0 0.6 -1.3 0.9 -1 1.5 1.7 4.1 l3.2 3 2 -2.9 c2.5 -3.4 2.6 -4.5 0.6 -3.7 -0.9 0.3 -3 -0.9 -5.2 -2.9 -3.1 -2.8 -3.3 -3.3 -1.5 -2.8 1.2 0.3 2.8 1.3 3.5 2.3 1.2 1.6 5.7 3.4 5.7 2.2 0 -0.3 -0.8 -1.4 -1.7 -2.5 -1.8 -2 -1.8 -2 0.9 -0.3 l2.7 1.8 -5.9 8.9 c-3.3 4.8 -6 9.1 -6 9.4 0 0.4 1 0.4 2.3 0.1 1.2 -0.3 0.7 0.1 -1 0.9 -1.8 0.8 -4.5 3.3 -5.9 5.5 -1.5 2.2 -2.9 4 -3.1 4 -0.6 0 0.1 -1.1 7.6 -12.3 l4.5 -6.9 -6.4 -6.1 -6.4 -6.2 -0.8 3.9 c-0.4 2.1 -1.5 5 -2.3 6.5 -2.5 4.4 -8.5 18.3 -8.5 19.6 0 0.6 2 2.6 4.5 4.4 2.5 1.8 4.5 3.4 4.5 3.7 0 0.9 -4.5 -1.9 -7.5 -4.7 -1.6 -1.6 -3.7 -2.9 -4.5 -2.9 -1 0.1 -0.4 1 1.5 2.6 2.3 2 2.5 2.3 0.7 1.4 -2.7 -1.3 -2.4 -1.5 -4.6 3.1 -1.1 2.2 -3.2 4.4 -5.9 5.9 -2.3 1.3 -4.5 2.8 -4.8 3.3 -0.4 0.5 -1.4 -0.1 -2.2 -1.4 -0.9 -1.2 -1.9 -2 -2.3 -1.6 -0.3 0.3 0.4 1.9 1.7 3.6 2.4 3 4.5 4.2 3.4 1.9 -0.3 -0.7 0 -0.5 0.7 0.6 7.1 10.1 6.5 9.7 11.6 9.4 4.1 -0.3 4.7 -0.6 4.4 -2.3 -0.2 -1.1 -1.6 -3.1 -3 -4.4 l-2.7 -2.3 3 1.8 c1.7 0.9 3.6 2.5 4.3 3.5 0.8 1.1 1.9 1.6 2.9 1.2 1.1 -0.4 1.4 -0.3 0.9 0.6 -0.5 0.7 -1.4 1 -2.1 0.7 -0.8 -0.3 -1.9 0.2 -2.5 1 -1.5 1.7 -7.5 1.7 -15 -0.2z m-63 -26.2 c0.1 -1.5 0.9 -5.2 2 -8.2 2 -5.8 2.5 -9.2 1.3 -10.4 -0.4 -0.4 -2 3.7 -3.4 9.1 -1.5 5.4 -2.8 9.2 -2.8 8.6 -0.1 -1.4 -2.1 -1.8 -2.1 -0.5 0 1.4 3.4 5.1 4.2 4.6 0.5 -0.3 0.8 -1.7 0.8 -3.2z m59.2 -6.4 c3.5 -6.7 4 -9 2.1 -11 -1.9 -2.1 -3.3 -2.3 -3.3 -0.4 0 0.7 -1.1 3.9 -2.6 7.1 -1.4 3.2 -2.3 6.4 -2 7.1 1 2.6 3.6 1.4 5.8 -2.8z m4.9 -11.5 c0.6 -3.5 0.2 -5.7 -1.1 -6.1 -1.3 -0.5 -1.3 -0.3 -0.1 1.1 1.9 2.4 0.7 2.1 -3.9 -0.8 -5.7 -3.6 -6 -3.1 -1 2 4.3 4.3 5.9 5.3 6.1 3.8z m-41 -15.3 l2.4 -2.1 -3.2 1.6 c-3.2 1.5 -4.2 2.5 -2.4 2.5 0.5 0 1.9 -0.9 3.2 -2z m89 -4.7 c1.3 -2.1 2.5 -4.1 2.7 -4.4 0.1 -0.3 -2.2 -2.3 -5.3 -4.5 -5.6 -4 -6.6 -6.2 -4 -8.7 0.8 -0.8 1.2 -1.7 0.9 -2 -0.3 -0.3 0.6 -2.7 1.9 -5.4 2.2 -4.2 2.3 -5.1 1.2 -6.7 -1.3 -1.7 -1.4 -1.7 -2 1 -0.4 1.6 -2.9 7.3 -5.7 12.8 l-5 9.8 5.8 5.9 c3.2 3.2 6.1 5.9 6.5 5.9 0.4 0 1.8 -1.7 3 -3.7z m-74.4 0.8 c0.4 -0.2 -8.4 -8.1 -9 -8.1 -0.3 0 -0.9 1.5 -1.2 3.3 -0.4 1.7 -1.1 3.7 -1.6 4.3 -0.7 0.8 0.8 1.1 5.3 0.9 3.5 -0.2 6.4 -0.3 6.5 -0.4z m41.1 -4.6 c-0.9 -2 -0.7 -3.5 1.1 -8.1 2.6 -7 2.6 -7.4 -0.2 -7.4 -5.7 0 -13 16 -7.9 17.3 0.9 0.3 3.2 0.5 4.9 0.6 3.1 0.1 3.2 0 2.1 -2.4z m-69.2 -8.7 c1.3 -4.3 2.6 -8.3 3 -8.9 0.5 -0.9 -1.1 -1 -6.2 -0.4 -3.8 0.4 -7.2 1 -7.5 1.3 -1.2 1.4 -4.1 13.1 -3.6 14.5 0.4 1.1 2.1 1.4 6.3 1.3 l5.8 -0.1 2.2 -7.7z m122.9 -18.8 c0.9 -1.6 1.4 -3 1.2 -3 -1.5 0 -6.7 2.4 -6.7 3 0 0.7 2.7 2.8 3.7 3 0.1 0 0.9 -1.3 1.8 -3z"/>
  <path d="M402.7 197.3 c-2.8 -0.3 -4.5 -0.8 -4.1 -1.4 0.3 -0.6 0.1 -2.3 -0.6 -3.8 -0.8 -2.1 -1.7 -2.7 -3.1 -2.4 -2.4 0.7 -2.4 1.1 0.3 4 1.7 1.8 1.8 2.2 0.6 1.8 -1 -0.4 -2.9 -2.7 -4.4 -5.2 -2.5 -4.4 -3.3 -9.8 -2 -14.1 0.4 -1.3 0 -1.8 -1.5 -1.9 -3.9 -0.3 -4.4 -1.9 -4.2 -12.6 0.3 -19.4 2.9 -36.7 5.5 -36.7 0.5 0 0.7 -0.8 0.4 -1.8 -0.4 -1.2 0.2 -2.6 1.5 -3.8 1.7 -1.6 4 -2 13 -2.2 l10.8 -0.4 2.1 3.4 c2.1 3.5 2.6 7.8 1.1 10.6 -0.5 0.9 -1.9 8 -3.1 15.7 -1.1 7.7 -2.5 16.7 -3.1 20 -1 5.8 -0.9 6.9 0.6 11 l0.8 2 -1.6 -2 c-0.9 -1.1 -1.7 -2.8 -1.7 -3.7 0 -1 -0.5 -1.8 -1.1 -1.8 -0.5 0 -0.8 0.4 -0.4 0.9 0.3 0.5 -1.1 1.5 -3 2.1 -4.3 1.4 -4.1 3.6 0.3 3.2 2.6 -0.2 3.4 0.3 4.8 2.9 l1.6 3.1 2.4 -2.3 c1.3 -1.2 2.4 -2.8 2.4 -3.5 0 -1.7 1.7 -2.7 2.5 -1.5 0.3 0.6 -1 2.4 -3 4.2 -1.9 1.8 -3.5 4.2 -3.6 5.3 0 1.6 -0.4 1.3 -1.5 -1.3 -1.1 -2.5 -1.8 -3.1 -2.7 -2.2 -0.8 0.8 -0.8 1.4 0.1 2.3 0.7 0.7 1.2 2 1.2 3 0 1 0.5 1.8 1 1.8 0.6 0 1 1 0.9 2.3 l0 2.2 -0.9 -2.2 c-0.5 -1.3 -1.6 -2.3 -2.5 -2.3 -1.3 0 -1.4 0.4 -0.4 2.3 0.7 1.2 1.6 2.5 2.2 2.8 1.2 0.8 0 3 -1.6 2.7 -0.7 -0.1 -3.3 -0.3 -6 -0.5z m6.3 -0.8 c0 -0.2 -0.5 -1.6 -1.2 -3 -0.9 -2.1 -1.7 -2.5 -4.5 -2.2 -1.8 0.2 -3.3 0.7 -3.3 1 0 0.4 0 1.3 0 2.1 0 1 1.3 1.6 3.8 1.9 2 0.2 4 0.4 4.5 0.5 0.4 0.1 0.7 0 0.7 -0.3z m-7.5 -47.5 c1.9 -14.4 1.9 -19 0.1 -19 -3.4 0 -5 6.9 -3.2 14.5 0.5 2 0.4 2.5 -0.2 1.7 -0.7 -1.1 -1 -1 -1.6 0.3 -0.8 2.2 -0.8 15 0.1 15.9 1.7 1.7 3.4 -2.9 4.8 -13.4z m-3.5 -18.5 c1.9 -1.4 3.5 -2.5 3.5 -2.5 0.1 0 1.2 0.9 2.5 2 1.6 1.4 3.7 2 7 2 3.9 0 4.9 -0.4 6 -2.4 1.4 -2.8 0.7 -7.2 -1.7 -9.8 -1.3 -1.5 -3.3 -1.8 -10.5 -1.8 -9.8 0 -15.5 1.8 -14.4 4.7 0.4 0.9 0 2.3 -0.8 3.2 -0.8 0.9 -1.8 2.8 -2.1 4.4 -0.7 2.6 -0.6 2.7 3.2 2.7 2.6 0 5 -0.8 7.3 -2.5z"/>
  <path d="M586.3 194.9 c-0.1 -1.1 0.3 -1.6 1.1 -1.3 0.9 0.3 2 -1.9 3.4 -6.8 4.2 -14.6 4.4 -15.8 3 -17.5 -1.2 -1.5 -1.1 -1.5 0.9 -0.4 1.8 0.9 2.1 1.6 1.4 3.4 -0.5 1.3 -1.7 5.5 -2.6 9.3 -2 8.2 -4.4 14.2 -6 14.8 -0.6 0.2 -1.2 -0.4 -1.2 -1.5z"/>
  <path d="M459 191 c-1 -0.6 -0.2 -0.7 2.5 -0.3 4.9 0.7 5.8 1.3 1.9 1.3 -1.6 0 -3.6 -0.5 -4.4 -1z"/>
  <path d="M580.9 190.2 c-0.2 -0.5 -3.2 -3 -6.5 -5.6 -6.2 -4.7 -6.2 -4.8 -9.3 -3.2 -1.7 0.9 -4.7 3.1 -6.8 4.9 -3.5 3.1 -3.6 3.1 -1.9 0.5 1 -1.6 2.3 -2.8 2.8 -2.8 0.5 0 0.6 -0.5 0.2 -1.2 -0.4 -0.7 -0.3 -0.8 0.4 -0.4 0.7 0.4 2.7 -0.5 4.6 -1.9 3.4 -2.6 6.5 -9.3 7.2 -15.4 0.2 -2.3 2.4 -5.5 2.4 -3.6 0 0.6 -1.2 4.6 -2.6 8.9 l-2.7 8 2.9 2.5 c1.6 1.4 4.7 4.1 6.9 5.8 2.1 1.8 3.6 3.5 3.3 3.8 -0.3 0.4 -0.8 0.2 -0.9 -0.3z"/>
  <path d="M449.5 186.3 l-2.8 -3.8 3.9 3.5 c2.1 1.9 4.1 3.6 4.3 3.8 0.2 0.1 -0.3 0.2 -1.1 0.2 -0.9 0 -2.8 -1.7 -4.3 -3.7z"/>
  <path d="M84.9 183.3 l-3.4 -3.8 3.8 3.4 c2 1.9 3.7 3.6 3.7 3.8 0 0.8 -0.8 0 -4.1 -3.4z"/>
  <path d="M628.5 186 c1.1 -0.4 3.1 -2 4.4 -3.4 1.4 -1.4 2.8 -2.6 3.1 -2.6 0.4 0 -0.7 1.6 -2.6 3.5 -1.8 1.9 -4.1 3.5 -5.1 3.4 -1.6 0 -1.6 -0.1 0.2 -0.9z"/>
  <path d="M620.6 184.5 c-1.1 -0.8 -2.1 -2.2 -2.2 -2.9 -0.2 -1.1 0.7 -0.9 3.2 0.7 1.8 1.2 3.4 2.5 3.4 3 0 1.2 -2.3 0.8 -4.4 -0.8z"/>
  <path d="M272.2 184.1 c2 -0.4 4.3 -1.3 5.1 -1.9 0.8 -0.7 1.7 -0.9 2 -0.5 1.1 1 -4.3 3.3 -7.7 3.2 -3.1 -0.1 -3 -0.1 0.6 -0.8z"/>
  <path d="M285.3 183.3 c2.6 -0.2 6.7 -0.2 9 0 2.3 0.2 0.2 0.3 -4.8 0.3 -4.9 0 -6.8 -0.1 -4.2 -0.3z"/>
  <path d="M531.3 179.5 c0 -2.7 0.2 -3.8 0.4 -2.2 0.2 1.5 0.2 3.7 0 5 -0.2 1.2 -0.4 0 -0.4 -2.8z"/>
  <path d="M301.3 181.8 c0.9 -0.7 2.4 -2.2 3.3 -3.3 0.8 -1.1 1.2 -1.3 0.8 -0.5 -1.1 2.4 -3.6 5 -4.7 5 -0.6 0 -0.3 -0.6 0.6 -1.2z"/>
  <path d="M360.7 182.3 c-1.4 -1.3 -0.7 -2.5 0.8 -1.3 0.8 0.7 3.5 1.1 6.5 0.8 2.7 -0.1 5 0 5 0.5 0 0.9 -11.4 1 -12.3 0z"/>
  <path d="M638.5 182 c-0.3 -0.5 0 -0.7 0.8 -0.5 0.7 0.3 1.9 -0.5 2.7 -2 0.7 -1.4 1.5 -2.3 1.7 -2.1 0.6 0.6 -2.8 5.6 -3.8 5.6 -0.4 0 -1.1 -0.4 -1.4 -1z"/>
  <path d="M328 181.6 c0 -0.2 0.8 -1 1.7 -1.7 0.9 -0.8 1.4 -0.9 1 -0.2 -0.5 0.7 0.1 1.3 1.5 1.6 1.7 0.3 1.4 0.5 -0.9 0.6 -1.8 0 -3.3 -0.1 -3.3 -0.3z"/>
  <path d="M346.3 181.3 c1.5 -0.2 3.7 -0.2 5 0 1.2 0.2 0 0.4 -2.8 0.4 -2.7 0 -3.8 -0.2 -2.2 -0.4z"/>
  <path d="M344.2 161 c-0.1 -10.7 -0.5 -24.6 -0.9 -30.7 l-0.6 -11.3 4.4 0.2 c4.4 0.1 4.4 0.1 0.7 0.5 l-3.8 0.4 0 5.4 c0 7.9 0.1 8 7.5 7.9 3.6 -0.1 6.8 -0.3 7.1 -0.6 1 -1 -2.7 -11.8 -4.4 -12.8 -1.5 -1 -1.5 -1 0.3 -0.8 1.5 0.3 2.6 2.4 5 10 1.6 5.3 3.3 10 3.8 10.4 0.4 0.4 0.7 -4.1 0.7 -9.9 l0 -10.7 6.3 0 c3.5 0 6.6 0.2 6.8 0.4 0.2 0.3 0.1 4.9 -0.3 10.3 -0.3 5.4 -1.2 17 -1.8 25.8 -0.6 8.8 -1.3 16.7 -1.5 17.5 -0.4 1.2 -1.7 1.4 -5.9 1.2 -5.2 -0.4 -5.5 -0.5 -6.2 -3.5 -0.9 -4.3 -3.6 -9.7 -4.7 -9.7 -0.5 0 -0.7 2.4 -0.5 5.4 0.4 6.4 -0.5 7.5 -6.6 7.8 -4.2 0.1 -4.5 0.3 -4.9 3.2 -0.2 1.7 -0.5 -5.7 -0.5 -16.4z m31.8 -34.5 l0 -6.5 -5.5 0 -5.5 0 0 6.5 0 6.5 5.5 0 5.5 0 0 -6.5z"/>
  <path d="M66.1 177.3 c0 -1.2 0.2 -1.3 0.6 -0.5 0.4 1 0.8 1 2.1 0 1.5 -1.2 1.6 -1.1 0.3 0.5 -0.7 0.9 -1.7 1.7 -2.2 1.7 -0.5 0 -0.9 -0.8 -0.8 -1.7z"/>
  <path d="M314 176.5 c0 -0.5 0.7 -1.7 1.7 -2.7 0.9 -1 1.3 -2.1 0.9 -2.5 -0.4 -0.4 -1.1 -0.2 -1.5 0.5 -0.4 0.8 -1.2 -0.8 -1.9 -4 -0.8 -3.4 -0.9 -5.5 -0.2 -6.2 0.6 -0.6 0.6 -1.4 0 -2.1 -0.5 -0.6 -1.7 -5.8 -2.6 -11.6 -1.8 -11.8 -2.4 -14 -3.1 -12.1 -0.3 0.8 -2.7 1.2 -6.8 1.2 -6.5 0 -9.3 1.3 -5.5 2.5 1.2 0.4 4.5 0.5 7.3 0.3 l5.2 -0.3 1.7 10.5 c0.9 5.8 1.7 12.1 1.7 14.1 0.1 4 -2.2 10.3 -4 11.5 -0.8 0.5 -0.9 0.3 -0.4 -0.6 0.6 -1 0.4 -1.1 -1.1 -0.5 -1 0.5 -5.6 1 -10.2 1.3 -7.8 0.4 -8.4 0.3 -8.9 -1.7 -0.6 -2.3 -2.3 -2.9 -2.3 -0.8 0 0.6 -0.9 -0.2 -2 -1.9 -2 -3 -10 -32.5 -10 -36.5 0 -1.6 -1 -4.1 -2.8 -6.9 -0.2 -0.2 -0.8 0.2 -1.3 1 -0.9 1.2 -0.9 1.1 -0.4 -0.5 0.4 -1.1 1.3 -4.1 2.1 -6.7 1.4 -4.5 3.7 -6.9 6.6 -6.7 0.7 0 0.1 0.5 -1.4 1.1 -3.5 1.2 -5.7 7.5 -4 11.3 1 2.1 1.8 2.5 5.9 2.6 2.7 0 5.6 0.2 6.6 0.4 0.9 0.2 1.7 -0.3 1.7 -1.1 0 -0.7 1.2 -1.7 2.6 -2 2 -0.5 3.1 -0.1 5 2 2.1 2.2 3.3 2.6 8.1 2.6 l5.6 0 -0.6 -3.2 c-0.3 -1.8 -0.3 -2.7 0 -2 0.7 1.7 2.3 0.5 2.3 -1.7 0 -3.2 3.9 -7.1 6.8 -7 l2.7 0.2 -2.8 0.4 c-3.4 0.5 -5.7 3.8 -6 8.9 l-0.2 3.9 6 0.6 c4.5 0.5 6.4 0.4 7.6 -0.7 2 -1.8 3.4 -1.8 6.2 0 1.9 1.3 6.5 2 10.6 1.7 0.9 -0.1 1.2 -0.9 0.9 -2.6 -0.3 -1.4 -0.2 -2.7 0.2 -3 1.8 -1.1 2.8 34.5 1.1 40.5 -1.1 4.2 -6.3 6.1 -16 5.8 -7.2 -0.2 -8.5 0 -9.7 1.7 -0.8 1 -1.4 1.5 -1.4 1z m-17.4 -15.6 c0.6 -1.1 -2.5 -7.9 -3.7 -7.9 -0.4 0 -1 -1.7 -1.4 -3.7 -0.4 -2.1 -1.1 -4.1 -1.6 -4.4 -1 -0.6 0.1 -4 2.2 -7 1.3 -1.8 0.7 -5.4 -1.4 -8.3 -2 -2.7 -4.7 -1.4 -4.7 2.3 0 3.1 3.7 19.9 4.8 21.6 0.4 0.6 0.8 2.1 1 3.5 0.1 1.4 0.5 3.1 0.7 3.8 0.5 1.5 3.1 1.6 4.1 0.1z m31.6 -12.1 c-0.4 -13.8 -1.1 -17.3 -3.8 -17.3 -1.7 0 -1.9 0.7 -1.7 5.5 0.3 7 2.2 22 2.9 23.2 0.3 0.5 1.1 0.7 1.7 0.5 0.9 -0.3 1.1 -3.8 0.9 -11.9z"/>
  <path d="M56.2 163.3 l0.2 -6.8 0.3 5.8 c0.4 5.9 0.9 6.6 3.2 4.5 1.1 -1 1.2 -1 0.7 -0.1 -0.4 0.7 -1.6 1.8 -2.7 2.3 -1.8 1 -1.9 0.7 -1.7 -5.7z"/>
  <path d="M653 168.4 c0 -1.9 2.8 -3.6 4.9 -2.9 2.2 0.7 3.1 -0.4 4.2 -4.9 0.5 -2.3 0.7 -2.5 0.8 -0.9 0.1 1.2 -0.4 3.4 -0.9 4.8 -0.9 2.3 -1.4 2.6 -3.9 2 -2.2 -0.5 -3.2 -0.2 -4 1.2 -0.6 1 -1.1 1.3 -1.1 0.7z"/>
  <path d="M596 166 c-1.4 -1.1 -1.8 -1.8 -0.9 -1.5 1.2 0.5 2 -0.6 3.3 -4.7 0.9 -2.9 1.3 -3.7 0.9 -1.8 -0.3 1.9 -0.7 5 -0.7 6.8 -0.1 1.7 -0.1 3.2 -0.1 3.2 0 0 -1.1 -0.9 -2.5 -2z"/>
  <path d="M12.2 153.3 c-2.2 -11.6 -3.2 -23 -3 -35.8 l0.2 -13 0.6 16 c1 21.5 0.9 20.9 1.6 20.2 0.3 -0.3 0.9 -4.8 1.3 -9.9 0.6 -7.6 0.8 -5.9 0.7 9.4 -0.1 10.4 -0.2 18.8 -0.2 18.8 -0.1 0 -0.6 -2.6 -1.2 -5.7z"/>
  <path d="M47 155.7 c0 -1.7 0.2 -1.9 0.9 -0.8 0.5 0.8 1.6 1.1 2.6 0.8 0.9 -0.4 1.4 -0.3 1.1 0.2 -0.3 0.5 -1.5 1.1 -2.6 1.4 -1.5 0.4 -2 0 -2 -1.6z"/>
  <path d="M668 154.1 c2.2 -0.6 2.6 -1.4 3.1 -6.6 l0.6 -6 0.1 5.2 c0.3 6.8 -0.4 8.3 -3.7 8.2 l-2.6 -0.1 2.5 -0.7z"/>
  <path d="M93 153.1 c0 -0.8 -1.2 -3 -2.7 -5 -1.4 -2 -2 -3 -1.3 -2.3 2.2 1.9 4.2 1.4 7.9 -2 l3.4 -3.3 -2.3 3.4 c-1.3 1.8 -2.9 5 -3.6 7 -0.7 2 -1.3 3 -1.4 2.2z"/>
  <path d="M558.5 143.2 c-0.7 -0.4 -0.1 -1.7 1.4 -3.2 l2.4 -2.5 -1.4 2.5 c-0.7 1.4 -1.2 2.8 -1.1 3.3 0.3 0.9 0 0.9 -1.3 -0.1z"/>
  <path d="M41.2 141.5 c0 -1.1 0.3 -2.9 0.8 -4 1.1 -2.5 1.1 0.1 0 3.5 -0.6 2 -0.8 2.1 -0.8 0.5z"/>
  <path d="M675.5 141.3 c1.1 -0.2 2.6 -1.2 3.3 -2.1 1.3 -1.6 1.3 -1.5 1 0.3 -0.2 1.4 -1.2 2.1 -3.3 2.2 -1.8 0.1 -2.2 -0.1 -1 -0.4z"/>
  <path d="M21.2 137 c0 -2.5 0.3 -5.4 0.8 -6.5 0.8 -1.8 0.9 -1.8 0.9 0.5 0 1.4 -0.4 4.3 -0.8 6.5 l-0.9 4 0 -4.5z"/>
  <path d="M604.1 139.1 c-0.1 -1.9 4.2 -17.6 4.6 -16.5 0.1 0.5 -0.8 4.7 -2.1 9.4 -1.4 4.7 -2.5 7.9 -2.5 7.1z"/>
  <path d="M562.9 135.5 c0.5 -1.1 1.7 -2.9 2.6 -4 l1.6 -2 -1 2 c-0.5 1.1 -1.7 2.9 -2.6 4 l-1.6 2 1 -2z"/>
  <path d="M582 136.1 c0 -1 2.8 -4.1 3.6 -4.1 0.2 0 -0.3 1.1 -1.2 2.5 -1.7 2.6 -2.4 3.1 -2.4 1.6z"/>
  <path d="M80.4 131.5 c-0.9 -1.9 -0.9 -2.2 0.3 -1.8 0.8 0.3 2.4 -0.3 3.6 -1.4 4 -3.6 5.3 -3.6 1.6 0 -2 1.9 -3.8 4 -4 4.6 -0.2 0.6 -0.9 0 -1.5 -1.4z"/>
  <path d="M20.3 123 c0 -4.7 0.2 -6.6 0.4 -4.2 0.2 2.3 0.2 6.1 0 8.5 -0.2 2.3 -0.4 0.4 -0.4 -4.3z"/>
  <path d="M584.6 129 c0.3 -1.4 1.1 -3.2 1.6 -4 0.6 -1 0.7 -0.7 0.2 1 -0.3 1.4 -1.1 3.2 -1.6 4 -0.6 1 -0.7 0.7 -0.2 -1z"/>
  <path d="M34.4 127.2 c0.5 -0.8 7.6 -0.4 7.6 0.4 0 0.2 -1.8 0.4 -4.1 0.4 -2.2 0 -3.8 -0.4 -3.5 -0.8z"/>
  <path d="M337.6 124.8 c0.7 -4.3 0.1 -4.6 -11.6 -6.4 l-8.5 -1.3 7.8 0.5 c9.2 0.6 12.2 1.5 13.7 4.4 0.8 1.6 0.7 2.5 -0.4 4.2 -1.5 2.1 -1.5 2 -1 -1.4z"/>
  <path d="M568 126.1 c0 -0.6 0.4 -1.2 0.9 -1.5 0.5 -0.3 2.7 -3.7 5 -7.6 2.3 -3.8 4.4 -7 4.8 -7 0.3 0 -0.1 1 -0.9 2.3 -0.8 1.2 -3.1 5 -5.2 8.5 -3.7 6.1 -4.6 7.1 -4.6 5.3z"/>
  <path d="M616 120.9 l-3.5 -3 3.8 2.6 c3.3 2.4 4.3 3.5 3.4 3.5 -0.1 0 -1.8 -1.4 -3.7 -3.1z"/>
  <path d="M301.9 120.3 c-0.8 -0.9 -2.7 -2.2 -4.4 -2.9 -1.6 -0.7 -2.4 -1.3 -1.7 -1.4 2.1 0 6.9 2.8 7.5 4.5 0.8 2 0.3 1.9 -1.4 -0.2z"/>
  <path d="M14.3 117.5 c0 -2.2 0.2 -3 0.4 -1.7 0.2 1.2 0.2 3 0 4 -0.3 0.9 -0.5 -0.1 -0.4 -2.3z"/>
  <path d="M609.6 118.6 c0.2 -1.1 -0.1 -2.5 -0.7 -3.2 -0.6 -0.8 0.5 -3.2 3.6 -7.7 3.1 -4.5 4.3 -7.1 3.8 -8.4 -0.5 -1.5 -0.4 -1.6 0.8 -0.7 0.8 0.6 2.5 1.5 3.9 1.9 2.5 0.8 2.5 0.7 0.7 -1.3 -1.8 -1.9 -1.8 -2.1 0.3 -6.1 1.1 -2.3 2.3 -4.1 2.5 -4.1 0.3 0 -0.4 1.7 -1.4 3.9 l-2 3.9 3.2 3.5 c1.8 2 5.9 5.6 9.2 8.1 4.8 3.5 6.3 4.2 7.5 3.3 0.8 -0.7 0.5 0 -0.5 1.5 -1.8 2.4 -2.1 2.6 -3 1 -2.6 -4.3 -14.7 -13.2 -18.1 -13.2 -0.6 0 -3.1 3 -5.7 6.7 -4.4 6.3 -4.6 6.8 -3 8.5 0.9 1 1.1 1.8 0.5 1.8 -0.6 0 -1.2 0.6 -1.5 1.3 -0.2 0.6 -0.3 0.3 -0.1 -0.7z"/>
  <path d="M76 116.2 c6.9 -5.7 15 -13.4 15 -14.3 0 -0.4 -1.4 -1 -3.1 -1.4 -2.2 -0.5 -3.6 -0.2 -5 1.1 -1 0.9 -2.2 1.5 -2.5 1.1 -0.3 -0.3 -3.7 2.4 -7.5 6 -8.9 8.5 -10.6 9.7 -11.5 8.2 -0.4 -0.7 -0.3 -0.9 0.3 -0.6 0.5 0.3 5.1 -3.3 10.1 -8.1 10.4 -9.9 11.1 -11.9 6.4 -17.4 -1.5 -1.8 -3.5 -5 -4.5 -7 -0.9 -2.1 -2.2 -3.8 -2.8 -3.8 -0.6 0 -3.1 1.2 -5.7 2.6 l-4.7 2.7 4 -3.4 c2.1 -1.9 4.5 -3.3 5.2 -3.1 0.7 0.2 1.3 -0.2 1.3 -0.8 0 -0.5 -0.4 -1 -0.8 -1 -0.4 0 -1.5 -1.3 -2.5 -2.9 -0.9 -1.6 -3.8 -5.6 -6.3 -9 l-4.6 -6.2 -2.7 1.7 c-2.3 1.5 -2.4 1.6 -1.3 0.1 2.4 -2.8 4.7 -2.8 11.3 0.2 6.6 3.1 7.5 4.2 1.2 1.6 -1.9 -0.8 -3.7 -1.5 -3.9 -1.5 -0.6 0 5.8 10.4 7.8 12.6 1.1 1.2 3.3 4.8 4.9 8 2.6 5.2 4 7.6 9.1 14.7 0.7 1 3.5 2.3 6.2 2.9 3 0.6 4.4 1.3 3.6 1.8 -0.7 0.4 -0.9 1.3 -0.6 1.9 0.4 0.6 0.3 1.1 -0.2 1.1 -0.5 0 -4.9 3.6 -9.8 8 -4.9 4.4 -9.3 7.9 -9.9 7.9 -0.5 0 1 -1.7 3.5 -3.7z m7 -15.7 c0.7 -0.9 1 -1.8 0.7 -2.2 -0.8 -0.7 -3.7 1.5 -3.7 2.8 0 1.4 1.6 1.1 3 -0.6z"/>
  <path d="M436.4 117.8 c0.6 -2.5 0.4 -2.7 -3.6 -3.1 l-4.3 -0.4 4.8 -0.1 c3.9 -0.2 4.7 0.1 4.7 1.6 0 0.9 -0.5 2.4 -1.1 3.2 -0.8 1.2 -0.9 0.9 -0.5 -1.2z"/>
  <path d="M588.2 119 c0.3 -0.8 1.5 -4.6 2.8 -8.3 1.2 -3.8 2.4 -6.6 2.6 -6.4 0.5 0.5 -4.3 14.8 -5.3 15.6 -0.3 0.3 -0.4 -0.1 -0.1 -0.9z"/>
  <path d="M282 115 l-4.5 -0.7 4 -0.1 c2.2 0 6 0.3 8.5 0.7 l4.5 0.8 -4 0 c-2.2 0 -6 -0.3 -8.5 -0.7z"/>
  <path d="M471.1 112.4 c-0.1 -1.7 0.6 -2.3 3.2 -2.8 5.3 -1 26 -3.6 28.5 -3.6 2.2 0 2.2 0.1 0.8 2.2 -0.9 1.2 -1.6 3.1 -1.6 4.1 0 1 -0.4 1.5 -1 1.2 -0.6 -0.4 -0.4 -1.7 0.5 -3.6 1.8 -3.5 2.7 -3.4 -12.5 -1.4 -15.4 2 -16.8 2.4 -17.3 4.3 -0.4 1.3 -0.5 1.1 -0.6 -0.4z"/>
  <path d="M218 108.8 c-1.9 -1.6 -2.6 -2.6 -1.5 -2 1.8 0.9 6.4 5.3 5.4 5.2 -0.2 -0.1 -2 -1.5 -3.9 -3.2z"/>
  <path d="M581.1 105.5 c1.2 -2.2 2.6 -4.4 3.2 -5 1.5 -1.6 -2 4.8 -3.8 7 -0.9 1.1 -0.7 0.2 0.6 -2z"/>
  <path d="M156.5 102.5 c1.1 -4.8 1 -5.6 -0.4 -6.7 -1.4 -1.1 -1.3 -1.1 0.4 -0.2 1.2 0.7 2 2.1 1.9 3.5 -0.1 3.8 -1.5 8.9 -2.4 8.9 -0.4 0 -0.2 -2.5 0.5 -5.5z"/>
  <path d="M509.7 107.3 c-1.3 -1.2 -0.7 -2.1 2.8 -4.3 1.9 -1.2 4.3 -1.9 5.2 -1.7 1.5 0.4 1.4 0.5 -0.3 0.6 -2.6 0.1 -7.6 3.9 -6.9 5.2 0.7 1 0.1 1.2 -0.8 0.2z"/>
  <path d="M210 105.5 c0 -0.8 0.8 -1.1 2 -0.8 1.1 0.3 2 0.7 2 0.8 0 0.1 -0.9 0.5 -2 0.8 -1.2 0.3 -2 0 -2 -0.8z"/>
  <path d="M610 105.5 c-0.7 -0.9 -2 -1.3 -2.9 -1 -1.2 0.4 -1.3 0.3 -0.5 -0.5 1.3 -1.3 4 -0.4 4.8 1.6 0.7 1.8 0.2 1.8 -1.4 -0.1z"/>
  <path d="M200.5 103 c-1.3 -0.5 -1.4 -0.9 -0.5 -0.9 0.8 0 2.4 0.4 3.5 0.9 1.3 0.5 1.4 0.9 0.5 0.9 -0.8 0 -2.4 -0.4 -3.5 -0.9z"/>
  <path d="M602 99.3 c-4.1 -3.9 -4.4 -4 -5.9 -1 l-1.1 2.2 0.6 -2.4 c0.3 -1.3 0.1 -2.7 -0.5 -3 -1.9 -1.2 10 -1.1 12.2 0.1 1.8 0.9 2.3 0.7 3.6 -1.3 3.5 -5.1 5.3 -6.5 2.9 -2.2 -2.6 4.8 -4.1 5.7 -6.8 4.3 -1 -0.6 -3.3 -1 -5.1 -1 l-3.2 0 3.9 3.4 c2.1 1.9 3.7 3.6 3.4 3.8 -0.3 0.2 -2.1 -1.1 -4 -2.9z"/>
  <path d="M10.2 99 c0 -1.9 0.2 -2.7 0.5 -1.7 0.2 0.9 0.2 2.5 0 3.5 -0.3 0.9 -0.5 0.1 -0.5 -1.8z"/>
  <path d="M189.1 101.1 c-0.8 -0.5 0.5 -0.7 3.5 -0.4 2.7 0.3 5.1 0.7 5.3 0.9 0.9 0.8 -7.5 0.3 -8.8 -0.5z"/>
  <path d="M645.8 94.7 c-1.6 -1.3 -2.8 -2.8 -2.8 -3.4 0 -0.7 -1 -1.9 -2.2 -2.7 -1.2 -0.9 -1.8 -1.6 -1.3 -1.6 0.5 0 2.8 2.1 5.2 4.6 2.8 3.1 4.7 4.4 5.8 4 0.9 -0.3 1.3 -0.2 1 0.4 -1 1.5 -2.8 1.1 -5.7 -1.3z"/>
  <path d="M47 94 c-1.3 -0.8 -1.3 -1 0.1 -1 0.9 0 4.2 -1.8 7.5 -4 l5.9 -4 -5.5 5 c-6 5.5 -5.9 5.4 -8 4z"/>
  <path d="M635.5 87 c-2.1 -2.2 -4.5 -4 -5.1 -4 -0.7 0 -2.2 1.2 -3.4 2.8 l-2.2 2.7 1.6 -2.7 c0.9 -1.5 1.4 -3.3 1.3 -4 -0.2 -0.7 -0.2 -1 0 -0.5 0.7 1.1 2.3 0.9 2.3 -0.3 0 -0.6 1.9 -3.4 4.3 -6.3 2.3 -2.8 5.3 -6.7 6.6 -8.6 l2.5 -3.4 -2.5 0.6 c-5.5 1.6 -7.3 1.7 -3.9 0.3 1.9 -0.8 4.4 -1.5 5.4 -1.5 1.8 -0.1 7.4 4.2 16.6 12.9 4.2 3.9 4.2 4 0.5 1 -2.2 -1.8 -6.2 -5.2 -8.9 -7.6 -2.7 -2.4 -5.3 -4.4 -5.7 -4.4 -0.4 0 -2.2 1.7 -3.8 3.8 -1.7 2 -4.6 5.7 -6.6 8 -1.9 2.4 -3.5 4.8 -3.5 5.2 0 0.5 1.2 1.8 2.6 2.9 2.4 1.9 6.9 7.1 6.2 7.1 -0.2 0 -2.2 -1.8 -4.3 -4z"/>
  <path d="M655.9 88.2 c1.1 -1.6 2.8 -3.5 3.8 -4.3 0.9 -0.8 0.2 0.5 -1.7 2.9 -3.8 4.8 -5.2 5.7 -2.1 1.4z"/>
  <path d="M587 81.5 c1.4 -0.8 3 -1.4 3.5 -1.4 0.6 0 -0.1 0.6 -1.5 1.4 -1.4 0.8 -2.9 1.4 -3.5 1.4 -0.5 0 0.1 -0.6 1.5 -1.4z"/>
  <path d="M592.1 79.6 c1.5 -1.4 7.8 -4.4 8.3 -3.9 0.3 0.4 -1.3 1.5 -3.5 2.5 -3.9 1.7 -5.7 2.3 -4.8 1.4z"/>
  <path d="M33.5 77.3 c0.6 -0.6 3.9 -3.4 7.5 -6.3 3.6 -2.9 7.4 -6 8.4 -6.9 1.1 -0.9 1.6 -1 1.2 -0.3 -0.4 0.7 -4 3.8 -7.9 6.9 -8.4 6.6 -10.7 8.2 -9.2 6.6z"/>
  <path d="M94 77.1 c0 -0.5 -1.3 -2.3 -3 -3.9 l-3 -3 2.8 1 c3.3 1.3 7.1 6.8 4.7 6.8 -0.8 0 -1.5 -0.4 -1.5 -0.9z"/>
  <path d="M610.5 73.1 c1.2 -1.1 10.7 -4.2 11.2 -3.7 0.2 0.2 -2.4 1.3 -5.8 2.5 -3.5 1.2 -5.9 1.7 -5.4 1.2z"/>
  <path d="M78.3 67.3 c-4 -1.5 -7.1 -2.8 -6.9 -3 0.4 -0.5 15.6 4.7 15.6 5.3 0 0.7 -1.4 0.3 -8.7 -2.3z"/>
  <path d="M624.6 65.2 l-1.9 -2.7 2.6 2.4 c2.8 2.6 3.2 3.1 2 3.1 -0.5 0 -1.7 -1.3 -2.7 -2.8z"/>
  <path d="M617.1 59.5 l-4.4 -3.5 -2.6 2.2 -2.6 2.3 2.4 -2.7 c2.6 -3 3.2 -2.9 9.1 2.1 4.8 4.2 3.5 3.9 -1.9 -0.4z"/>
 </g>
</svg>