<?xml version="1.0" encoding="utf-8"?>
<!DOCTYPE svg PUBLIC "-//W3C//DTD SVG 20010904//EN" "http://www.w3.org/TR/2001/REC-SVG-20010904/DTD/svg10.dtd">
<svg version="1.0" xmlns="http://www.w3.org/2000/svg" width="880px" height="476px" viewBox="0 0 880 476" preserveAspectRatio="xMidYMid meet">
 <g fill="#2c2c4d">
  <path d="M392 468 l0 -8 2 0 2 0 0 -2 0 -2 2 0 2 0 0 -2 0 -2 2 0 2 0 0 -2 0 -2 2 0 2 0 0 -14 0 -14 -2 0 -2 0 0 -2 0 -2 -2 0 -2 0 0 -2 0 -2 -2 0 -2 0 0 -2 0 -2 -2 0 -2 0 0 -2 0 -2 -2 0 -2 0 0 -2 0 -2 -2 0 -2 0 0 -6 0 -6 -8 0 -8 0 0 2 0 2 -24 0 -24 0 0 2 0 2 -24 0 -24 0 0 2 0 2 -22 0 -22 0 0 2 0 2 -24 0 -24 0 0 2 0 2 -24 0 -24 0 0 2 0 2 -12 0 -12 0 0 -6 0 -6 10 0 10 0 0 -2 0 -2 22 0 22 0 0 -2 0 -2 22 0 22 0 0 -2 0 -2 22 0 22 0 0 -2 0 -2 4 0 4 0 0 -2 0 -2 2 0 2 0 0 -2 0 -2 2 0 2 0 0 -2 0 -2 2 0 2 0 0 -4 0 -4 2 0 2 0 0 -8 0 -8 -2 0 -2 0 0 -4 0 -4 -4 0 -4 0 0 -2 0 -2 -2 0 -2 0 0 -2 0 -2 -4 0 -4 0 0 2 0 2 -4 0 -4 0 0 2 0 2 -4 0 -4 0 0 2 0 2 -4 0 -4 0 0 2 0 2 -4 0 -4 0 0 2 0 2 -4 0 -4 0 0 2 0 2 -12 0 -12 0 0 -54 0 -54 12 0 12 0 0 2 0 2 4 0 4 0 0 2 0 2 4 0 4 0 0 2 0 2 4 0 4 0 0 2 0 2 4 0 4 0 0 2 0 2 4 0 4 0 0 2 0 2 30 0 30 0 0 -6 0 -6 18 0 18 0 0 -2 0 -2 2 0 2 0 0 -2 0 -2 2 0 2 0 0 -2 0 -2 12 0 12 0 0 2 0 2 4 0 4 0 0 2 0 2 4 0 4 0 0 -14 0 -14 -2 0 -2 0 0 -8 0 -8 -18 0 -18 0 0 1.5 0 1.5 -1.4 0 -1.4 0 -0.6 -3.5 -0.7 -3.5 -5.9 0 -6 0 0 -2 0 -2 -2 0 -2 0 0 1.5 0 1.5 -2 0 -2 0 0 -1.5 0 -1.5 -2 0 -2 0 0 -2 0 -2 -4 0 -4 0 0 -2 0 -2 -2 0 -2 0 0 -2 0 -2 -2 0 -2 0 0 -2 0 -2 -4 0 -4 0 0 -2 0 -2 -2 0 -2 0 0 -2 0 -2 -2 0 -2 0 0 -2 0 -2 -2 0 -2 0 0 -4 0 -4 -2 0 -2 0 0 -2 0 -2 -2 0 -2 0 0 -2 0 -2 -2 0 -2 0 0 -4 0 -4 -2 0 -2 0 0 -6 0 -6 -2 0 -2 0 0 -6 0 -6 -2 0 -2 0 0 -2 0 -2 -1.5 0 -1.5 0 0 -21.5 0 -21.5 1.5 0 1.5 0 0 1.5 0 1.5 2 0 2 0 0 -6 0 -6 2 0 2 0 0 -6 0 -6 2 0 2 0 0 -4 0 -4 2 0 2 0 0 -2 0 -2 2 0 2 0 0 -2 0 -2 2 0 2 0 0 -4 0 -4 2 0 2 0 0 -2 0 -2 2 0 2 0 0 -2 0 -2 2 0 2 0 0 -2 0 -2 4 0 4 0 0 -2 0 -2 2 0 2 0 0 -2 0 -2 2 0 2 0 0 -2 0 -2 4 0 4 0 0 -2 0 -2 6 0 6 0 0 -2 0 -2 6 0 6 0 0 -2 0 -2 22 0 22 0 0 2 0 2 6 0 6 0 0 2 0 2 6 0 6 0 0 2 0 2 4 0 4 0 0 2 0 2 2 0 2 0 0 2 0 2 2 0 2 0 0 2 0 2 4 0 4 0 0 2 0 2 2 0 2 0 0 2 0 2 2 0 2 0 0 2 0 2 2 0 2 0 0 2 0 2 1.5 0 1.5 0 0 1.5 0 1.5 -20 0 -20 0 0 2 0 2 -2 0 -2 0 0 17 0 17 2 0 2 0 0 2 0 2 20 0 20 0 0 15 0 15 -17 0 -17 0 0 -6 0 -6 -5 0 -5 0 0 7 0 7 2 0 2 0 0 2 0 2 23 0 23 0 0 -2 0 -2 2 0 2 0 0 -17 0 -17 -2 0 -2 0 0 -2 0 -2 -20 0 -20 0 0 -13 0 -13 15 0 15 0 0 4 0 4 5 0 5 0 0 -2 0 -2 1.5 0 1.5 0 0 1.5 0 1.5 2 0 2 0 0 -4 0 -4 2 0 2 0 0 -2 0 -2 2 0 2 0 0 -2 0 -2 2 0 2 0 0 -4 0 -4 2 0 2 0 0 -2 0 -2 2 0 2 0 0 -2 0 -2 2 0 2 0 0 -2 0 -2 4 0 4 0 0 -2 0 -2 2 0 2 0 0 -2 0 -2 2 0 2 0 0 -2 0 -2 4 0 4 0 0 -2 0 -2 6 0 6 0 0 -2 0 -2 6 0 6 0 0 -2 0 -2 22 0 22 0 0 2 0 2 6 0 6 0 0 2 0 2 6 0 6 0 0 2 0 2 4 0 4 0 0 2 0 2 2 0 2 0 0 2 0 2 2 0 2 0 0 2 0 2 4 0 4 0 0 2 0 2 2 0 2 0 0 2 0 2 2 0 2 0 0 2 0 2 2 0 2 0 0 4 0 4 2 0 2 0 0 2 0 2 2 0 2 0 0 2 0 2 2 0 2 0 0 4 0 4 2 0 2 0 0 6 0 6 2 0 2 0 0 2 0 2 1.5 0 1.5 0 0 1.5 0 1.5 -4 0 -4 0 0 18 0 18 -11 0 -11 0 0 -18 0 -18 -5 0 -5 0 0 19 0 19 2 0 2 0 0 2 0 2 13 0 13 0 0 -2 0 -2 7 0 7 0 0 3.5 0 3.5 -1.5 0 -1.5 0 0 2 0 2 -2 0 -2 0 0 6 0 6 -2 0 -2 0 0 6 0 6 -2 0 -2 0 0 4 0 4 -2 0 -2 0 0 2 0 2 -2 0 -2 0 0 2 0 2 -2 0 -2 0 0 4 0 4 -1.9 0 -1.9 0 -0.6 2.3 c-0.3 1.2 -0.6 3.7 -0.6 5.5 l0 3.2 -1.5 0 -1.5 0 0 -1.5 0 -1.5 -2 0 -2 0 0 2 0 2 -4 0 -4 0 0 2 0 2 -1.9 0 -1.9 0 -0.6 2.3 c-0.3 1.2 -0.6 3.7 -0.6 5.5 l0 3.2 -1.5 0 -1.5 0 0 -1.5 0 -1.5 -4 0 -4 0 0 2 0 2 -6 0 -6 0 0 2 0 2 -6 0 -6 0 0 2 0 2 -12 0 -12 0 0 1.5 0 1.5 -2 0 -2 0 0 -1.5 0 -1.5 -4 0 -4 0 0 4 0 4 -2 0 -2 0 0 4 0 4 -2 0 -2 0 0 2 0 2 -2 0 -2 0 0 10 0 10 10 0 10 0 0 2 0 2 2 0 2 0 0 2 0 2 2 0 2 0 0 2 0 2 2 0 2 0 0 2 0 2 8 0 8 0 0 -2 0 -2 2 0 2 0 0 -2 0 -2 12 0 12 0 0 20 0 20 -12 0 -12 0 0 -2 0 -2 -2 0 -2 0 0 -2 0 -2 -10 0 -10 0 0 4 0 4 -2 0 -2 0 0 2 0 2 -2 0 -2 0 0 2 0 2 -10 0 -10 0 0 18 0 18 2 0 2 0 0 2 0 2 2 0 2 0 0 6 0 6 -2 0 -2 0 0 2 0 2 -4 0 -4 0 0 2 0 2 -4 0 -4 0 0 2 0 2 -4 0 -4 0 0 2 0 2 -14 0 -14 0 0 12 0 12 8 0 8 0 0 -2 0 -2 8 0 8 0 0 -2 0 -2 8 0 8 0 0 -2 0 -2 8 0 8 0 0 -2 0 -2 8 0 8 0 0 -2 0 -2 8 0 8 0 0 -2 0 -2 8 0 8 0 0 -2 0 -2 8 0 8 0 0 -2 0 -2 8 0 8 0 0 -2 0 -2 6 0 6 0 0 -2 0 -2 2 0 2 0 0 -2 0 -2 2 0 2 0 0 -2 0 -2 2 0 2 0 0 -2 0 -2 4 0 4 0 0 -2 0 -2 10 0 10 0 0 -2 0 -2 8 0 8 0 0 -2 0 -2 10 0 10 0 0 -2 0 -2 8 0 8 0 0 2 0 2 2 0 2 0 0 2 0 2 2 0 2 0 0 6 0 6 -2 0 -2 0 0 2 0 2 -2 0 -2 0 0 2 0 2 -4 0 -4 0 0 2 0 2 -6 0 -6 0 0 2 0 2 -6 0 -6 0 0 2 0 2 -8 0 -8 0 0 2 0 2 -6 0 -6 0 0 2 0 2 -14 0 -14 0 0 2 0 2 -6 0 -6 0 0 2 0 2 -8 0 -8 0 0 2 0 2 -8 0 -8 0 0 2 0 2 -10 0 -10 0 0 2 0 2 -8 0 -8 0 0 2 0 2 -10 0 -10 0 0 2 0 2 -8 0 -8 0 0 2 0 2 -8 0 -8 0 0 2 0 2 -10 0 -10 0 0 2 0 2 -4 0 -4 0 0 14 0 14 2 0 2 0 0 2 0 2 2 0 2 0 0 2 0 2 2 0 2 0 0 2 0 2 2 0 2 0 0 8 0 8 -62 0 -62 0 0 -8z m-52 -102 l0 -14 -14 0 -14 0 0 12 0 12 -2 0 -2 0 0 2 0 2 16 0 16 0 0 -14z m0 -30 l0 -4 -2 0 -2 0 0 -2 0 -2 -4 0 -4 0 0 -2 0 -2 -10 0 -10 0 0 6 0 6 2 0 2 0 0 2 0 2 14 0 14 0 0 -4z m-43 -233 l0 -18 11 0 11 0 0 18 0 18 5 0 5 0 0 -19 0 -19 -2 0 -2 0 0 -2 0 -2 -19 0 -19 0 0 21 0 21 5 0 5 0 0 -18z m84 16 l0 -2 2 0 2 0 0 -3 0 -3 -5 0 -5 0 0 2 0 2 -11 0 -11 0 0 -7 0 -7 16 0 16 0 0 -9 0 -9 -2 0 -2 0 0 -2 0 -2 -17 0 -17 0 0 2 0 2 -2 0 -2 0 0 17 0 17 2 0 2 0 0 2 0 2 17 0 17 0 0 -2z m148 0 l0 -2 2 0 2 0 0 -17 0 -17 -2 0 -2 0 0 -2 0 -2 -17 0 -17 0 0 2 0 2 -2 0 -2 0 0 17 0 17 2 0 2 0 0 2 0 2 17 0 17 0 0 -2z m28 -16 l0 -18 15 0 15 0 0 16 0 16 2 0 2 0 0 2 0 2 15 0 15 0 0 -2 0 -2 2 0 2 0 0 -1 0 -1 -5 0 -5 0 0 2 0 2 -9 0 -9 0 0 -17 0 -17 14 0 14 0 0 -3 0 -3 -14 0 -14 0 0 -6 0 -6 -5 0 -5 0 0 6 0 6 -15 0 -15 0 0 -13 0 -13 8 0 8 0 0 -5 0 -5 -11 0 -11 0 0 2 0 2 -2 0 -2 0 0 37 0 37 5 0 5 0 0 -18z"/>
  <path d="M353 92 l0 -7 11 0 11 0 0 7 0 7 -11 0 -11 0 0 -7z"/>
  <path d="M501 100 l0 -15 11 0 11 0 0 15 0 15 -11 0 -11 0 0 -15z"/>
 </g>
 <g fill="#efefef">
  <path d="M148 110 l0 -34 22 0 22 0 0 2 0 2 2 0 2 0 0 20 0 20 -2 0 -2 0 0 2 0 2 -14 0 -14 0 0 10 0 10 -8 0 -8 0 0 -34z m32 -10 l0 -12 -8 0 -8 0 0 12 0 12 8 0 8 0 0 -12z"/>
  <path d="M0 82 l0 -42 28 0 28 0 0 2 0 2 2 0 2 0 0 38 0 38 -2 0 -2 0 0 2 0 2 -28 0 -28 0 0 -42z m44 0 l0 -26 -14 0 -14 0 0 26 0 26 14 0 14 0 0 -26z"/>
  <path d="M72 122 l0 -2 -2 0 -2 0 0 -20 0 -20 2 0 2 0 0 -2 0 -2 20 0 20 0 0 2 0 2 2 0 2 0 0 12 0 12 -16 0 -16 0 0 4 0 4 8 0 8 0 0 -2 0 -2 8 0 8 0 0 6 0 6 -2 0 -2 0 0 2 0 2 -20 0 -20 0 0 -2z m28 -30 l0 -4 -8 0 -8 0 0 4 0 4 8 0 8 0 0 -4z"/>
  <path d="M124 82 l0 -42 8 0 8 0 0 42 0 42 -8 0 -8 0 0 -42z"/>
  <path d="M204 82 l0 -42 8 0 8 0 0 18 0 18 14 0 14 0 0 2 0 2 2 0 2 0 0 22 0 22 -8 0 -8 0 0 -18 0 -18 -8 0 -8 0 0 18 0 18 -8 0 -8 0 0 -42z"/>
  <path d="M260 100 l0 -24 8 0 8 0 0 24 0 24 -8 0 -8 0 0 -24z"/>
  <path d="M284 100 l0 -24 22 0 22 0 0 2 0 2 2 0 2 0 0 22 0 22 -8 0 -8 0 0 -18 0 -18 -8 0 -8 0 0 18 0 18 -8 0 -8 0 0 -24z"/>
  <path d="M344 122 l0 -2 -2 0 -2 0 0 -20 0 -20 2 0 2 0 0 -2 0 -2 20 0 20 0 0 2 0 2 2 0 2 0 0 12 0 12 -16 0 -16 0 0 4 0 4 8 0 8 0 0 -2 0 -2 8 0 8 0 0 6 0 6 -2 0 -2 0 0 2 0 2 -20 0 -20 0 0 -2z m28 -30 l0 -4 -8 0 -8 0 0 4 0 4 8 0 8 0 0 -4z"/>
  <path d="M424 122 l0 -2 -2 0 -2 0 0 -10 0 -10 8 0 8 0 0 6 0 6 14 0 14 0 0 -12 0 -12 -20 0 -20 0 0 -2 0 -2 -2 0 -2 0 0 -20 0 -20 2 0 2 0 0 -2 0 -2 24 0 24 0 0 2 0 2 2 0 2 0 0 10 0 10 -8 0 -8 0 0 -4 0 -4 -12 0 -12 0 0 10 0 10 20 0 20 0 0 2 0 2 2 0 2 0 0 20 0 20 -2 0 -2 0 0 2 0 2 -26 0 -26 0 0 -2z"/>
  <path d="M492 122 l0 -2 -2 0 -2 0 0 -20 0 -20 2 0 2 0 0 -2 0 -2 20 0 20 0 0 2 0 2 2 0 2 0 0 20 0 20 -2 0 -2 0 0 2 0 2 -20 0 -20 0 0 -2z m28 -22 l0 -12 -8 0 -8 0 0 12 0 12 8 0 8 0 0 -12z"/>
  <path d="M544 84 l0 -40 2 0 2 0 0 -2 0 -2 14 0 14 0 0 8 0 8 -8 0 -8 0 0 10 0 10 12 0 12 0 0 -6 0 -6 8 0 8 0 0 6 0 6 14 0 14 0 0 6 0 6 -14 0 -14 0 0 14 0 14 6 0 6 0 0 -2 0 -2 8 0 8 0 0 4 0 4 -2 0 -2 0 0 2 0 2 -18 0 -18 0 0 -2 0 -2 -2 0 -2 0 0 -16 0 -16 -12 0 -12 0 0 18 0 18 -8 0 -8 0 0 -40z"/>
  <path d="M640 122 l0 -2 -2 0 -2 0 0 -22 0 -22 8 0 8 0 0 18 0 18 8 0 8 0 0 -18 0 -18 8 0 8 0 0 18 0 18 8 0 8 0 0 -18 0 -18 8 0 8 0 0 22 0 22 -2 0 -2 0 0 2 0 2 -16 0 -16 0 0 -2 0 -2 -4 0 -4 0 0 2 0 2 -16 0 -16 0 0 -2z"/>
  <path d="M728 122 l0 -2 -2 0 -2 0 0 -10 0 -10 2 0 2 0 0 -2 0 -2 14 0 14 0 0 -4 0 -4 -8 0 -8 0 0 2 0 2 -8 0 -8 0 0 -6 0 -6 2 0 2 0 0 -2 0 -2 20 0 20 0 0 2 0 2 2 0 2 0 0 22 0 22 -22 0 -22 0 0 -2z m28 -14 l0 -4 -8 0 -8 0 0 4 0 4 8 0 8 0 0 -4z"/>
  <path d="M780 102 l0 -22 2 0 2 0 0 -2 0 -2 20 0 20 0 0 2 0 2 2 0 2 0 0 6 0 6 -8 0 -8 0 0 -2 0 -2 -8 0 -8 0 0 18 0 18 -8 0 -8 0 0 -22z"/>
  <path d="M836 122 l0 -2 -2 0 -2 0 0 -20 0 -20 2 0 2 0 0 -2 0 -2 20 0 20 0 0 2 0 2 2 0 2 0 0 12 0 12 -16 0 -16 0 0 4 0 4 8 0 8 0 0 -2 0 -2 8 0 8 0 0 6 0 6 -2 0 -2 0 0 2 0 2 -20 0 -20 0 0 -2z m28 -30 l0 -4 -8 0 -8 0 0 4 0 4 8 0 8 0 0 -4z"/>
  <path d="M260 58 l0 -6 8 0 8 0 0 6 0 6 -8 0 -8 0 0 -6z"/>
 </g>
 <g fill="#efef8e">
  <path d="M0 190 l0 -30 2 0 2 0 0 30 0 30 -2 0 -2 0 0 -30z"/>
  <path d="M56 190 l0 -30 2 0 2 0 0 2 0 2 2 0 2 0 0 2 0 2 2 0 2 0 0 2 0 2 2 0 2 0 0 2 0 2 2 0 2 0 0 -8 0 -8 2 0 2 0 0 30 0 30 -2 0 -2 0 0 -20 0 -20 -2 0 -2 0 0 -2 0 -2 -2 0 -2 0 0 -2 0 -2 -2 0 -2 0 0 -2 0 -2 -2 0 -2 0 0 26 0 26 -2 0 -2 0 0 -30z"/>
  <path d="M136 192 l0 -28 -4 0 -4 0 0 -2 0 -2 10 0 10 0 0 2 0 2 -4 0 -4 0 0 28 0 28 -2 0 -2 0 0 -28z"/>
  <path d="M196 190 l0 -30 8 0 8 0 0 2 0 2 -6 0 -6 0 0 12 0 12 6 0 6 0 0 2 0 2 -6 0 -6 0 0 12 0 12 6 0 6 0 0 2 0 2 -8 0 -8 0 0 -30z"/>
  <path d="M264 190 l0 -30 8 0 8 0 0 2 0 2 2 0 2 0 0 2 0 2 2 0 2 0 0 8 0 8 -2 0 -2 0 0 2 0 2 -2 0 -2 0 0 2 0 2 2 0 2 0 0 2 0 2 2 0 2 0 0 12 0 12 -2 0 -2 0 0 -12 0 -12 -2 0 -2 0 0 -2 0 -2 -6 0 -6 0 0 14 0 14 -2 0 -2 0 0 -30z m16 -4 l0 -2 2 0 2 0 0 -8 0 -8 -2 0 -2 0 0 -2 0 -2 -6 0 -6 0 0 12 0 12 6 0 6 0 0 -2z"/>
  <path d="M340 190 l0 -30 2 0 2 0 0 2 0 2 2 0 2 0 0 2 0 2 2 0 2 0 0 2 0 2 2 0 2 0 0 2 0 2 2 0 2 0 0 -8 0 -8 2 0 2 0 0 30 0 30 -2 0 -2 0 0 -20 0 -20 -2 0 -2 0 0 -2 0 -2 -2 0 -2 0 0 -2 0 -2 -2 0 -2 0 0 -2 0 -2 -2 0 -2 0 0 26 0 26 -2 0 -2 0 0 -30z"/>
  <path d="M420 194 l0 -26 2 0 2 0 0 -2 0 -2 2 0 2 0 0 -2 0 -2 4 0 4 0 0 2 0 2 2 0 2 0 0 2 0 2 2 0 2 0 0 26 0 26 -2 0 -2 0 0 -14 0 -14 -8 0 -8 0 0 14 0 14 -2 0 -2 0 0 -26z m20 -16 l0 -10 -2 0 -2 0 0 -2 0 -2 -4 0 -4 0 0 2 0 2 -2 0 -2 0 0 10 0 10 8 0 8 0 0 -10z"/>
  <path d="M504 192 l0 -28 -4 0 -4 0 0 -2 0 -2 10 0 10 0 0 2 0 2 -4 0 -4 0 0 28 0 28 -2 0 -2 0 0 -28z"/>
  <path d="M568 190 l0 -30 2 0 2 0 0 30 0 30 -2 0 -2 0 0 -30z"/>
  <path d="M636 218 l0 -2 -2 0 -2 0 0 -2 0 -2 -2 0 -2 0 0 -22 0 -22 2 0 2 0 0 -2 0 -2 2 0 2 0 0 -2 0 -2 4 0 4 0 0 2 0 2 2 0 2 0 0 2 0 2 2 0 2 0 0 22 0 22 -2 0 -2 0 0 2 0 2 -2 0 -2 0 0 2 0 2 -4 0 -4 0 0 -2z m8 -4 l0 -2 2 0 2 0 0 -22 0 -22 -2 0 -2 0 0 -2 0 -2 -4 0 -4 0 0 2 0 2 -2 0 -2 0 0 22 0 22 2 0 2 0 0 2 0 2 4 0 4 0 0 -2z"/>
  <path d="M708 190 l0 -30 2 0 2 0 0 2 0 2 2 0 2 0 0 2 0 2 2 0 2 0 0 2 0 2 2 0 2 0 0 2 0 2 2 0 2 0 0 -8 0 -8 2 0 2 0 0 30 0 30 -2 0 -2 0 0 -20 0 -20 -2 0 -2 0 0 -2 0 -2 -2 0 -2 0 0 -2 0 -2 -2 0 -2 0 0 -2 0 -2 -2 0 -2 0 0 26 0 26 -2 0 -2 0 0 -30z"/>
  <path d="M788 194 l0 -26 2 0 2 0 0 -2 0 -2 2 0 2 0 0 -2 0 -2 4 0 4 0 0 2 0 2 2 0 2 0 0 2 0 2 2 0 2 0 0 26 0 26 -2 0 -2 0 0 -14 0 -14 -8 0 -8 0 0 14 0 14 -2 0 -2 0 0 -26z m20 -16 l0 -10 -2 0 -2 0 0 -2 0 -2 -4 0 -4 0 0 2 0 2 -2 0 -2 0 0 10 0 10 8 0 8 0 0 -10z"/>
  <path d="M864 190 l0 -30 2 0 2 0 0 28 0 28 6 0 6 0 0 2 0 2 -8 0 -8 0 0 -30z"/>
 </g>
</svg>