<?xml version="1.0" encoding="UTF-8" standalone="no"?>
<svg
   version="1.0"
   width="1200px"
   height="1200px"
   viewBox="0 0 1200 1200"
   preserveAspectRatio="xMidYMid meet"
   id="svg26"
   sodipodi:docname="easports.svg"
   inkscape:version="1.2 (dc2aedaf03, 2022-05-15)"
   xmlns:inkscape="http://www.inkscape.org/namespaces/inkscape"
   xmlns:sodipodi="http://sodipodi.sourceforge.net/DTD/sodipodi-0.dtd"
   xmlns="http://www.w3.org/2000/svg"
   xmlns:svg="http://www.w3.org/2000/svg">
  <defs
     id="defs30" />
  <sodipodi:namedview
     id="namedview28"
     pagecolor="#ffffff"
     bordercolor="#000000"
     borderopacity="0.25"
     inkscape:showpageshadow="2"
     inkscape:pageopacity="0.0"
     inkscape:pagecheckerboard="0"
     inkscape:deskcolor="#d1d1d1"
     showgrid="false"
     inkscape:zoom="0.6975"
     inkscape:cx="599.28315"
     inkscape:cy="600.71685"
     inkscape:window-width="1920"
     inkscape:window-height="1017"
     inkscape:window-x="-8"
     inkscape:window-y="-8"
     inkscape:window-maximized="1"
     inkscape:current-layer="svg26" />
  <g
     fill="#000000"
     id="g24"
     style="fill:#f9f9f9">
    <path
       d="M577.5 1198.9 c-31.6 -1 -63.5 -4.8 -94.7 -11 -212.1 -42.4 -386.3 -197.5 -453.1 -403.6 -28.3 -87 -36.2 -182.5 -22.6 -273.3 42.6 -284.2 285.6 -501.1 571.4 -509.9 61 -1.8 115.9 4.1 171.2 18.4 198.5 51.6 357.3 201.2 420.8 396.5 28 86.2 35.9 182.5 22.4 272.5 -30.3 202.6 -164.3 377.9 -352 460.4 -67.5 29.6 -144.5 47.6 -212.9 49.6 -9.6 0.3 -20.2 0.7 -23.5 0.8 -3.3 0.2 -15.4 0 -27 -0.4z m59 -82.9 c109.8 -8 211.2 -49 296.5 -120 16.1 -13.4 49.6 -46.9 63 -63 67.4 -81 107.1 -174.6 118.7 -280 1.4 -12.9 1.8 -24.5 1.8 -53 0 -28.5 -0.4 -40.1 -1.8 -53 -11.6 -105.3 -51.5 -199.4 -118.8 -280 -13 -15.6 -43.5 -46.4 -59.4 -60 -73.5 -62.6 -162.1 -103.4 -256.5 -118 -46.3 -7.2 -99.1 -7.9 -145.5 -2 -227.3 29 -408.3 203.9 -445 430.1 -7.7 47.5 -8.6 100.6 -2.5 148.4 17.8 139.2 90.6 264.2 203.7 349.1 76.5 57.4 169.5 92.6 266.8 100.9 18.6 1.6 60.4 1.8 79 0.5z"
       id="path2"
       style="fill:#f9f9f9" />
    <path
       d="M230.1 851.9 c-9.5 -1.9 -19.3 -10.5 -23 -20.3 -1.7 -4.5 -2.1 -7.9 -2.1 -16.6 l0 -11 12 0 11.9 0 1.1 4.3 c4.9 19.2 4.7 19.1 28 19.5 26.3 0.5 27 -0.1 27 -22.8 0 -15.6 -0.9 -18.9 -5.7 -20.8 -1.7 -0.7 -12.1 -1.2 -25.8 -1.4 -22.5 -0.3 -23.1 -0.4 -28.6 -2.9 -6.9 -3.3 -12.9 -9.1 -16.6 -16.1 l-2.8 -5.3 0 -21 c0 -20.3 0.1 -21.2 2.5 -26 3.6 -7.4 11.4 -14.8 18.5 -17.4 5.6 -2.1 7 -2.2 33.9 -1.9 26.8 0.3 28.3 0.4 32.7 2.6 7 3.4 12.5 8.7 15.6 15 2.5 5.1 2.8 7 3.2 17.5 l0.3 11.7 -12 0 -11.9 0 -1.8 -6.2 c-0.9 -3.5 -2.4 -7.8 -3.2 -9.6 -2.6 -5.6 -5.1 -6.2 -25.2 -6.2 -17.8 0 -18 0 -21 2.6 -3.8 3.2 -5.1 7.7 -5.1 17.9 0 9.4 1.2 14.5 4.1 17.1 1.9 1.7 4.4 1.9 26.3 2.4 23.5 0.5 24.2 0.6 29.8 3.2 7.1 3.3 13.8 10 17.5 17.6 l2.8 5.7 0 21.5 c0 21.1 -0.1 21.6 -2.6 27 -3.1 6.6 -7.9 12.3 -13.1 15.6 -7.2 4.6 -13.3 5.4 -38.8 5.3 -12.9 -0.1 -25.5 -0.5 -27.9 -1z"
       id="path4"
       style="fill:#f9f9f9" />
    <path
       d="M347 772.5 l0 -80.6 41.3 0.3 41.2 0.3 5 2.5 c7.4 3.6 14.8 11.4 17.3 18.3 2 5.3 2.2 7.7 2.2 29.2 0 28.3 -0.8 31.4 -9.9 40.6 -9.3 9.3 -12 9.9 -43.1 9.9 l-26 0 0 30 0 30 -14 0 -14 0 0 -80.5z m72.2 -6.4 c2.7 -1.1 4.8 -2.9 5.6 -4.5 1.6 -3.6 1.7 -34.5 0 -38.1 -0.7 -1.5 -3 -3.4 -5.6 -4.5 -3.9 -1.8 -6.7 -2 -24.3 -2 l-19.9 0 0 25.5 0 25.5 19.9 0 c17.3 0 20.5 -0.3 24.3 -1.9z"
       id="path6"
       style="fill:#f9f9f9" />
    <path
       d="M510.7 851.9 c-9.3 -2.2 -18.4 -9.6 -22.6 -18.2 -3.8 -7.8 -4.3 -16.1 -3.9 -67.1 l0.3 -48.1 2.9 -6.3 c3.7 -7.9 11.4 -15.2 19.1 -18.1 5.1 -1.9 7.7 -2.1 31.5 -2.1 31.6 0 33.8 0.5 43.6 10.4 10.2 10.4 9.9 7.9 9.9 70.1 l0 53 -2.3 5.8 c-3 7.3 -10.4 14.9 -17.9 18.5 -5.8 2.7 -5.9 2.7 -31.3 2.9 -14 0.1 -27.2 -0.2 -29.3 -0.8z m45.7 -26.1 c7.7 -3.7 7.6 -3.3 7.6 -53.9 0 -50.1 0.1 -49.6 -7.2 -52.9 -3.6 -1.6 -6.6 -2 -18.5 -2 -15.6 0 -21.9 1.6 -24.5 6.2 -1.9 3.4 -1.9 92.9 0 97.5 2.3 5.4 8.1 7.1 24.4 7.2 12.2 0.1 14.3 -0.1 18.2 -2.1z"
       id="path8"
       style="fill:#f9f9f9" />
    <path
       d="M627 772.5 l0 -80.5 39 0 c37.4 0 39.1 0.1 44.7 2.2 7.7 2.8 15.2 10 18.9 18.1 l2.9 6.2 0 21 c-0.1 19.4 -0.2 21.4 -2.3 26.6 -2.7 6.8 -7.7 12.8 -14.2 17 -2.8 1.8 -5 3.5 -5 3.8 0 0.5 9.6 23.3 24.8 58.9 l3.1 7.2 -14.7 0 -14.7 0 -13 -31.5 -13 -31.5 -14.2 0 -14.3 0 0 31.5 0 31.5 -14 0 -14 0 0 -80.5z m71.1 -10.6 c5.8 -2.9 6.9 -6.3 6.8 -21.1 0 -15.1 -1 -18.5 -6.4 -21.5 -3.8 -2.1 -5.1 -2.3 -23.7 -2.3 l-19.8 0 0 23.5 0 23.5 19.5 0 c17.8 0 19.9 -0.2 23.6 -2.1z"
       id="path10"
       style="fill:#f9f9f9" />
    <path
       d="M793 785 l0 -68 -21 0 -21 0 0 -12.5 0 -12.5 55.5 0 55.5 0 0 12.5 0 12.5 -21 0 -21 0 0 68 0 68 -13.5 0 -13.5 0 0 -68z"
       id="path12"
       style="fill:#f9f9f9" />
    <path
       d="M908.3 851.5 c-9.7 -2.7 -17.5 -9.3 -21.7 -18.4 -1.6 -3.6 -2.1 -7.2 -2.4 -16.8 l-0.4 -12.3 12.1 0 12 0 1.1 4.3 c4.9 19.2 4.7 19.1 28 19.5 26.3 0.5 27 -0.1 27 -22.8 0 -15.6 -0.9 -18.9 -5.7 -20.8 -1.7 -0.7 -12.1 -1.2 -25.8 -1.4 -22.4 -0.3 -23.1 -0.4 -28.5 -2.9 -7 -3.3 -13.6 -9.9 -16.9 -16.9 -2.5 -5.4 -2.6 -6 -2.6 -26 0 -19.7 0.1 -20.7 2.4 -25.5 3.5 -7.1 11.8 -14.9 18.6 -17.4 5.1 -1.9 7.6 -2.1 31.9 -2.1 20.7 0 27.3 0.3 31.4 1.5 7.3 2.2 15 8.8 18.7 16 2.7 5.3 3 6.8 3.3 17.7 l0.4 11.8 -12 0 -11.9 0 -1.7 -6.2 c-1 -3.5 -2.4 -7.8 -3.3 -9.6 -2.7 -5.6 -5.1 -6.2 -25.2 -6.2 l-18.1 0 -3 2.8 c-3.7 3.2 -5 7.9 -5 17.7 0 8.9 1.3 14.2 4 16.9 1.9 2 3.4 2.1 26.3 2.6 23.6 0.5 24.4 0.6 29.9 3.2 7.3 3.4 14.2 10.3 17.6 17.6 2.7 5.6 2.7 5.9 2.7 27.7 0 20.5 -0.1 22.3 -2.2 26.7 -3 6.6 -10.5 14.3 -17.2 17.5 l-5.6 2.8 -26.5 0.2 c-20.6 0.2 -27.7 -0.1 -31.7 -1.2z"
       id="path14"
       style="fill:#f9f9f9" />
    <path
       d="M1001 705.5 l0 -6.5 -3 0 c-1.6 0 -3 -0.4 -3 -1 0 -0.6 3.2 -1 7.5 -1 4.3 0 7.5 0.4 7.5 1 0 0.6 -1.6 1 -3.5 1 l-3.5 0 0 6.5 c0 3.7 -0.4 6.5 -1 6.5 -0.6 0 -1 -2.8 -1 -6.5z"
       id="path16"
       style="fill:#f9f9f9" />
    <path
       d="M1014 704.5 c0 -4.1 0.4 -7.5 1 -7.5 0.5 0 2.3 2.1 4.1 4.7 3.6 5.2 2.7 5.4 8.6 -2.3 l2.2 -2.9 -0.1 8 c-0.2 6.7 -0.2 7 -0.5 2.3 -0.2 -3.2 -0.7 -5.8 -1.1 -5.8 -0.4 0 -1.7 1.8 -3 4 -1.2 2.2 -2.6 4 -3 4 -0.4 0 -1.8 -1.9 -3.2 -4.3 l-2.5 -4.2 -0.3 5.8 c-0.4 8.4 -2.2 7 -2.2 -1.8z"
       id="path18"
       style="fill:#f9f9f9" />
    <path
       d="M212.1 648.3 c1.3 -2.1 22.5 -35.7 47.1 -74.6 24.6 -38.9 44.8 -71 44.8 -71.2 0 -0.3 -15.5 -0.6 -34.4 -0.7 l-34.5 -0.3 23.2 -36.7 23.2 -36.8 144.7 0 144.8 0 -3 4.8 c-1.6 2.6 -12.1 19.1 -23.3 36.7 l-20.4 32 -65.4 0.3 -65.4 0.3 -23.4 36.8 c-12.9 20.2 -23.7 37.3 -23.9 37.9 -0.3 0.9 25.1 1.1 104.9 1 l105.3 -0.3 95.1 -150.2 c52.3 -82.7 95.3 -150.5 95.6 -150.7 0.2 -0.2 49.3 77 109.2 171.7 59.8 94.7 113.2 179.3 118.7 188 l9.9 15.7 -44.4 0 -44.3 0 -23.8 -37.5 -23.7 -37.5 -69.9 0 c-38.4 0 -69.8 -0.2 -69.8 -0.4 0 -0.2 10.3 -16.7 22.9 -36.7 l22.8 -36.4 23.3 -0.3 c19.7 -0.2 23.1 -0.5 22.6 -1.7 -0.3 -0.8 -12.3 -20.2 -26.7 -43.1 l-26.3 -41.8 -1.8 2.5 c-1 1.3 -34.4 54.2 -74.2 117.4 l-72.4 115 -194.7 0.3 -194.7 0.2 2.3 -3.7z"
       id="path20"
       style="fill:#f9f9f9" />
    <path
       d="M330.6 350.8 c0.4 -0.7 10.8 -17.4 23.1 -37 l22.5 -35.8 153.5 0 153.4 0 -2.3 3.8 c-1.3 2.1 -11.7 18.8 -23.3 37 l-21 33.2 -153.3 0 c-122.4 0 -153.2 -0.3 -152.6 -1.2z"
       id="path22"
       style="fill:#f9f9f9" />
  </g>
</svg>
