<?xml version="1.0" encoding="UTF-8" standalone="no"?>
<svg
   version="1.0"
   width="588.22046"
   height="126.6228"
   viewBox="0 0 588.22046 126.6228"
   preserveAspectRatio="xMidYMid"
   id="svg36"
   sodipodi:docname="eidos.svg"
   inkscape:version="1.2 (dc2aedaf03, 2022-05-15)"
   xmlns:inkscape="http://www.inkscape.org/namespaces/inkscape"
   xmlns:sodipodi="http://sodipodi.sourceforge.net/DTD/sodipodi-0.dtd"
   xmlns="http://www.w3.org/2000/svg"
   xmlns:svg="http://www.w3.org/2000/svg">
  <defs
     id="defs40" />
  <sodipodi:namedview
     id="namedview38"
     pagecolor="#ffffff"
     bordercolor="#000000"
     borderopacity="0.25"
     inkscape:showpageshadow="2"
     inkscape:pageopacity="0.0"
     inkscape:pagecheckerboard="0"
     inkscape:deskcolor="#d1d1d1"
     showgrid="false"
     inkscape:zoom="2.1316667"
     inkscape:cx="294.13604"
     inkscape:cy="63.799844"
     inkscape:window-width="1920"
     inkscape:window-height="1017"
     inkscape:window-x="-8"
     inkscape:window-y="-8"
     inkscape:window-maximized="1"
     inkscape:current-layer="svg36" />
  <g
     fill="#ffffff"
     id="g34"
     transform="translate(-5.6008037,-86.280643)">
    <path
       d="m 353.3,211.8 c -4.4,-2.1 -5.2,-8.8 -1.5,-13 2.2,-2.6 9.3,-2.4 11.7,0.2 2.3,2.6 1.1,3.9 -1.4,1.6 -1.2,-1.1 -3.1,-1.6 -5.2,-1.4 -4.4,0.4 -6.1,4.5 -3.8,8.6 1.9,3.5 5.4,4 8.5,1.1 2.5,-2.4 3.8,-2.2 2.9,0.3 -0.7,1.7 -4.8,3.8 -7.3,3.7 -0.9,0 -2.7,-0.5 -3.9,-1.1 z"
       id="path2" />
    <path
       d="m 19.7,204.8 c 0.2,-10 2.3,-10.3 2.3,-0.4 0,5.4 -0.4,7.6 -1.2,7.6 -1,0 -1.3,-2 -1.1,-7.2 z"
       id="path4" />
    <path
       d="m 66,204.5 c 0,-6.5 0.2,-7.5 1.8,-7.5 0.9,0 3.4,2.5 5.7,5.8 l 4,5.7 0.3,-5.7 c 0.2,-4.3 0.7,-5.8 1.7,-5.8 1.2,0 1.5,1.6 1.5,7.5 0,6.7 -0.2,7.5 -1.9,7.5 -1.1,0 -3.3,-2.2 -5.7,-5.6 l -3.9,-5.7 -0.3,5.7 c -0.2,4.1 -0.7,5.6 -1.7,5.6 -1.2,0 -1.5,-1.6 -1.5,-7.5 z"
       id="path6" />
    <path
       d="M 129,205.5 V 199 h -3 c -1.6,0 -3,-0.4 -3,-1 0,-0.6 3,-1 7,-1 6.8,0 9.8,1.5 4.3,2.2 -2.7,0.3 -2.8,0.6 -3.1,6.6 -0.4,8.2 -2.2,8 -2.2,-0.3 z"
       id="path8" />
    <path
       d="M 180,204.5 V 197 h 6 c 3.3,0 6,0.4 6,1 0,0.6 -2.3,1 -5.1,1 -4.6,0 -5,0.2 -4.7,2.2 0.3,2 0.8,2.2 4.4,2 2.3,-0.2 4.5,0.1 4.9,0.7 0.4,0.7 -1.1,1.1 -4.4,1.1 -4.8,0 -5.1,0.2 -5.1,2.5 0,2.3 0.3,2.5 4.9,2.5 2.8,0 5.3,0.5 5.6,1 0.4,0.6 -1.8,1 -5.9,1 H 180 Z"
       id="path10" />
    <path
       d="M 236,204.5 V 197 h 5.4 c 3.6,0 6,0.5 7,1.6 1.9,1.8 1.9,2 0.7,4.3 -0.6,1 -0.6,3.3 -0.1,5.4 0.6,2.8 0.5,3.7 -0.5,3.7 -0.7,0 -1.5,-1.4 -1.9,-3.1 -0.5,-2.8 -0.8,-3 -4.3,-2.7 -3.5,0.3 -3.8,0.5 -3.5,3.1 0.3,1.9 -0.1,2.7 -1.2,2.7 -1.3,0 -1.6,-1.3 -1.6,-7.5 z m 10.5,-3 c 0,-1.5 -0.8,-2.1 -3.4,-2.3 -3.8,-0.4 -5.7,0.9 -4.7,3.3 0.4,1.2 1.6,1.5 4.3,1.3 3,-0.2 3.8,-0.7 3.8,-2.3 z"
       id="path12" />
    <path
       d="m 292,211.6 c 0,-0.2 1.3,-3.5 2.9,-7.3 3.9,-9 5.5,-9 9.3,0.1 2.9,6.8 2.9,10.1 0.1,5.9 -2.1,-3.1 -8.2,-3.3 -9,-0.3 -0.4,1.6 -3.3,3 -3.3,1.6 z m 9.5,-7.4 c -1,-4.2 -2.3,-4.8 -3.5,-1.8 -1.2,3.3 -0.9,4.1 2,4.3 1.9,0.2 2.1,-0.2 1.5,-2.5 z"
       id="path14" />
    <path
       d="m 412.5,205.8 c 0,-6.1 -0.1,-6.3 -2.7,-6.6 -5.6,-0.7 -2.6,-2.2 4.2,-2.2 4,0 7,0.4 7,1 0,0.6 -1.3,1 -3,1 h -3 v 6.5 c 0,4.6 -0.4,6.5 -1.3,6.5 -0.8,0 -1.2,-1.9 -1.2,-6.2 z"
       id="path16" />
    <path
       d="m 463,204.5 c 0,-6 0.3,-7.5 1.5,-7.5 1.2,0 1.5,1.5 1.5,7.5 0,6 -0.3,7.5 -1.5,7.5 -1.2,0 -1.5,-1.5 -1.5,-7.5 z"
       id="path18" />
    <path
       d="m 511.7,205.2 c -3,-7.6 -3.2,-8.5 -1.5,-8 0.6,0.2 2.2,3.1 3.4,6.4 l 2.2,5.9 1.7,-4 c 3.2,-7.9 3.5,-8.5 4.5,-8.5 1.3,0 1.4,-0.1 -1.6,7.9 -3.5,9.4 -5.2,9.4 -8.7,0.3 z"
       id="path20" />
    <path
       d="M 566,204.5 V 197 h 6.7 c 7.5,0 7.7,1.7 0.3,2.2 -3.3,0.2 -4.6,0.8 -4.8,2.1 -0.3,1.4 0.4,1.7 4.2,1.7 6.1,0 6.9,1.8 0.9,2.2 -4.1,0.3 -4.8,0.6 -5.1,2.6 -0.3,2.1 0,2.2 5.2,2.2 3.1,0 5.6,0.5 5.6,1 0,0.6 -2.8,1 -6.5,1 H 566 Z"
       id="path22" />
    <path
       d="m 150.7,132.3 0.3,-44.8 6.5,-0.3 6.5,-0.3 v 45.1 45 h -6.7 -6.8 z"
       id="path24" />
    <path
       d="m 386.2,174.9 c -21.9,-3.4 -40.7,-14.9 -47.8,-29.5 -2.5,-5.1 -2.9,-7.1 -2.9,-14.4 0,-7.3 0.4,-9.3 2.9,-14.4 11.6,-23.7 49.9,-36.2 84.3,-27.6 17.5,4.4 32.5,14.9 38.9,27 2.6,4.9 2.9,6.5 2.9,15 0,8.9 -0.2,9.9 -3.4,15.8 -6.4,11.8 -21,21.7 -38.6,26.3 -9.3,2.4 -27,3.3 -36.3,1.8 z m 33.3,-15.4 C 439,154.4 450,144 450,131 c 0,-10.1 -6.4,-18.5 -18.4,-24.1 -34,-15.8 -81.6,-1.8 -81.6,24.1 0,18.4 23.2,31.7 53,30.5 5.8,-0.2 13.2,-1.1 16.5,-2 z"
       id="path26" />
    <path
       d="M 487,170.6 V 165 h 34.3 c 35.4,0 43.4,-0.7 50.7,-4.5 4,-2.1 5.7,-5.6 4.2,-8.9 -1.8,-4 -10.4,-7.2 -37.2,-14.1 -29.6,-7.6 -37.3,-10.3 -43.9,-15.5 -8,-6.3 -9.2,-13.6 -3.3,-20.9 3.9,-4.9 8.3,-7.7 16.1,-10.3 6.2,-2.1 8.8,-2.2 42.4,-2.6 L 586,87.8 v 5.6 5.6 h -28.7 c -30.4,0 -39.1,0.8 -46.1,4.1 -7.4,3.6 -7.9,8 -1.4,11.6 4.4,2.5 10.6,4.4 39.2,11.8 32.4,8.5 43.6,14.7 44.7,24.8 1.1,9.4 -5.3,17 -18.5,22 -5.4,2 -7.6,2.1 -46.9,2.5 l -41.3,0.3 z"
       id="path28" />
    <path
       d="M 47,173.5 C 18.6,167.8 2.5,148.8 6.1,125.6 8.8,108.8 19.7,97.8 40.5,90.9 47.2,88.7 49.1,88.6 83.3,88.2 L 119,87.8 v 6.6 6.6 H 89.6 c -31.9,0 -40.3,0.9 -50,5.3 -2.9,1.3 -6.9,3.9 -9.1,5.8 -3.9,3.5 -9.5,10.5 -9.5,12.1 0,0.4 22.1,0.8 49,0.8 h 49 v 6.5 6.5 h -49.1 -49 l 2.3,4.1 c 2.8,5.1 9.5,11.1 15.4,13.9 10.1,4.9 13.1,5.3 47.7,5.7 l 32.7,0.5 v 6.4 6.4 L 86.3,174.9 C 63.6,174.8 51.5,174.4 47,173.5 Z"
       id="path30" />
    <path
       d="M 197,131.4 V 87.8 l 33.8,0.4 c 33.4,0.4 33.8,0.5 42.7,3.2 12.3,3.8 19.9,8 27,15.1 8.4,8.3 10.9,13.8 10.9,24 0,6.6 -0.4,9 -2.7,13.9 -3.9,8.4 -13.1,17.1 -23.8,22.3 -13.9,6.9 -17.4,7.5 -43.7,8 l -23.3,0.5 0.3,-6.9 0.3,-6.8 22,-0.6 c 23.1,-0.6 27.2,-1.3 37.8,-6.2 10.8,-4.9 18.7,-15.1 18.7,-24.3 0,-5.4 -4.2,-13.6 -9,-17.4 -2.1,-1.7 -6.7,-4.3 -10.2,-5.9 -10.6,-4.9 -19,-6.1 -44.3,-6.1 H 211 v 37 37 h -7 -7 z"
       id="path32" />
  </g>
</svg>
