<?xml version="1.0" encoding="UTF-8" standalone="no"?>
<svg
   version="1.0"
   width="2215.925"
   height="2217.646"
   viewBox="0 0 2215.925 2217.646"
   preserveAspectRatio="xMidYMid"
   id="svg20"
   sodipodi:docname="electronicarts.svg"
   inkscape:version="1.2 (dc2aedaf03, 2022-05-15)"
   xmlns:inkscape="http://www.inkscape.org/namespaces/inkscape"
   xmlns:sodipodi="http://sodipodi.sourceforge.net/DTD/sodipodi-0.dtd"
   xmlns="http://www.w3.org/2000/svg"
   xmlns:svg="http://www.w3.org/2000/svg">
  <defs
     id="defs24" />
  <sodipodi:namedview
     id="namedview22"
     pagecolor="#ffffff"
     bordercolor="#000000"
     borderopacity="0.25"
     inkscape:showpageshadow="2"
     inkscape:pageopacity="0.0"
     inkscape:pagecheckerboard="0"
     inkscape:deskcolor="#d1d1d1"
     showgrid="false"
     inkscape:zoom="0.31975"
     inkscape:cx="1097.7326"
     inkscape:cy="1107.1149"
     inkscape:window-width="1920"
     inkscape:window-height="1017"
     inkscape:window-x="-8"
     inkscape:window-y="-8"
     inkscape:window-maximized="1"
     inkscape:current-layer="svg20" />
  <g
     fill="#000000"
     id="g4"
     transform="translate(-899.475,-24.155138)"
     style="fill:#f9f9f9">
    <path
       d="m 1953,2241.3 c -37.9,-1.8 -118.1,-10 -120,-12.3 -0.3,-0.4 -6.8,-1.7 -14.5,-2.9 -14.7,-2.4 -53.5,-9.9 -64.5,-12.5 -19.9,-4.6 -24.5,-5.8 -25,-6.5 -0.3,-0.4 -4.6,-1.7 -9.6,-2.9 -18.6,-4.5 -64.4,-18 -65.4,-19.3 -0.3,-0.3 -6.6,-2.7 -14,-5.2 -7.5,-2.6 -19.9,-6.9 -27.5,-9.8 -7.7,-2.8 -14.8,-5.3 -15.7,-5.6 -1,-0.3 -1.8,-0.9 -1.8,-1.3 0,-0.5 -1.7,-1.4 -3.7,-2.1 -7.5,-2.3 -46.2,-18.7 -47.3,-19.9 -0.3,-0.3 -10.8,-5.4 -23.5,-11.5 -12.6,-6 -23.2,-11.2 -23.5,-11.6 -0.3,-0.3 -6.3,-3.7 -13.5,-7.4 -15.3,-7.9 -25.8,-13.6 -26.5,-14.5 -0.6,-0.7 -21.8,-13 -22.5,-13 -0.8,0 -11.9,-7.2 -13,-8.4 -1.2,-1.3 -4.8,-3.7 -11.1,-7.2 -6.1,-3.4 -22.5,-14 -24.4,-15.8 -2.2,-2 -18.1,-12.9 -21.2,-14.5 -1.5,-0.8 -4.4,-3 -6.5,-4.9 -2.1,-1.9 -7.4,-6 -11.8,-9 -9.8,-6.8 -19.5,-14.3 -19.5,-15.1 0,-0.4 -1.3,-1.5 -2.9,-2.4 -3,-1.7 -18.8,-14.2 -24.6,-19.3 -1.6,-1.5 -7.5,-6.5 -13,-11.1 -5.5,-4.6 -14.3,-12.5 -19.6,-17.5 -5.3,-4.9 -10.8,-9.8 -12.1,-10.7 -1.4,-0.9 -6.7,-5.9 -11.9,-11.2 -5.2,-5.2 -11.4,-11.4 -13.9,-13.6 -2.5,-2.3 -10.8,-10.8 -18.5,-18.9 -7.7,-8.2 -16.8,-17.5 -20.3,-20.9 -3.4,-3.4 -6.2,-6.4 -6.2,-6.9 0,-0.6 -9.6,-11.6 -18.4,-21.1 -1.5,-1.6 -6.6,-7.7 -11.2,-13.5 -4.7,-5.8 -9.5,-11.6 -10.7,-13 -4.6,-5.2 -15.7,-19.8 -15.7,-20.7 0,-0.5 -1.7,-2.7 -3.8,-4.9 -3.8,-3.9 -12.2,-14.8 -12.2,-15.9 0,-0.9 -9.8,-14 -13,-17.5 -1.7,-1.8 -3,-3.6 -3,-4.1 0,-0.6 -3.4,-5.9 -7.5,-11.8 -4.1,-6 -7.5,-11.3 -7.5,-11.8 0,-0.5 -0.9,-1.9 -2,-3.1 -2.1,-2.2 -13,-18.6 -13,-19.6 0,-1 -9.4,-16 -11.2,-17.8 -1,-1 -1.8,-2.2 -1.8,-2.7 0,-0.5 -2.1,-4.5 -4.6,-8.8 -2.6,-4.3 -6.4,-11.2 -8.5,-15.5 -2.1,-4.2 -4.6,-8.3 -5.4,-9.2 -0.9,-0.9 -6.2,-10.9 -11.7,-22.3 -5.6,-11.5 -10.5,-21 -10.9,-21.3 -1.1,-0.8 -10.2,-20.7 -19,-41.5 -1.8,-4.4 -3.8,-8.5 -4.5,-9.2 -0.6,-0.6 -1.6,-2.4 -2.1,-4 -0.6,-1.5 -2.8,-7 -4.8,-12.2 -6,-15.6 -13.5,-36 -13.5,-37 0,-0.5 -0.4,-1.1 -0.9,-1.3 -1.4,-0.5 -21.2,-61.1 -21.1,-64.5 0,-0.6 -0.4,-1.3 -0.9,-1.5 -1.6,-0.6 -14.1,-49.1 -19.3,-74.8 -1.2,-6.3 -2.6,-11.7 -2.9,-12 -1.3,-1 -6.4,-29 -10.9,-59.5 -4.7,-32.3 -7.2,-55.1 -9.2,-83.2 -0.6,-10 -1.6,-18.1 -2.2,-18.5 -1.5,-1 -1.5,-136.6 0,-137.6 0.6,-0.4 1.6,-8.5 2.2,-18.5 2,-28.2 4.8,-53.3 9.8,-87 3.3,-22.5 9.3,-55 10.2,-55.7 0.4,-0.3 1.5,-4.5 2.5,-9.5 4.8,-23.6 18.2,-76.6 19.7,-77.5 0.5,-0.3 1.2,-1.9 1.5,-3.5 2.3,-9.7 19.3,-61.7 20.5,-62.5 0.4,-0.3 1.5,-2.7 2.4,-5.5 4.3,-12.8 18.4,-48.7 19.5,-49.5 0.3,-0.3 2.4,-4.5 4.5,-9.5 7.6,-17.9 17.7,-40 18.5,-40.5 0.4,-0.3 5.4,-9.9 11,-21.3 5.6,-11.5 10.9,-21.7 11.9,-22.7 0.9,-1 3.2,-4.9 5.1,-8.7 1.9,-3.7 5.8,-10.9 8.7,-16 3,-5.1 5.4,-9.6 5.4,-10.2 0,-0.5 0.6,-1.4 1.3,-1.8 1.3,-0.8 11.5,-17 12.9,-20.5 0.9,-2.3 8.6,-13.7 10.8,-16.1 0.9,-0.9 2.3,-3 3.1,-4.5 1.9,-3.8 15.4,-24.2 17.7,-26.8 2.6,-2.9 10.9,-14.6 16.6,-23.1 2.6,-4 5.3,-7.6 6,-8 1.6,-1.1 8.6,-9.8 8.6,-10.8 0,-0.9 9.9,-13.5 13.7,-17.5 1.3,-1.4 6.7,-7.9 12.1,-14.5 5.3,-6.6 9.9,-12.2 10.2,-12.5 0.4,-0.3 4.6,-5 9.4,-10.5 17.9,-20.6 67.4,-71 84.4,-85.9 3.7,-3.2 8.8,-7.8 11.3,-10.2 2.6,-2.4 9.5,-8.4 15.5,-13.4 6,-5 12,-10.2 13.4,-11.4 5.5,-4.9 18.8,-15.4 23.2,-18.4 2.5,-1.8 4.8,-3.5 5,-4 0.4,-1.1 11.6,-9.6 20.7,-15.7 4,-2.8 8.5,-6.2 10,-7.7 1.4,-1.4 4,-3.4 5.8,-4.5 4.5,-2.5 24.5,-16 26.3,-17.7 1.9,-1.7 18.6,-12.6 19.4,-12.6 0.9,0 12,-7.1 13.1,-8.4 1.2,-1.4 5.1,-3.9 10.8,-7 14.9,-8.1 26.5,-14.8 28.5,-16.4 1.3,-1 10.8,-6.1 21,-11.3 10.3,-5.2 18.9,-9.7 19.2,-10.1 0.8,-1 37,-18.3 41.3,-19.7 2.1,-0.7 3.7,-1.6 3.7,-2.1 0,-0.4 1.7,-1.5 3.7,-2.3 2.1,-0.9 9.9,-4.1 17.3,-7.2 7.4,-3.1 17.8,-7.2 23,-9.2 5.2,-1.9 9.7,-3.9 10,-4.3 0.6,-1 24.8,-9.7 45.5,-16.5 8.3,-2.7 15.2,-5.2 15.5,-5.6 0.7,-0.9 40.3,-12.3 60.5,-17.4 8.3,-2.1 15.2,-4.1 15.5,-4.5 0.5,-0.8 3.7,-1.5 35.5,-8.1 18.9,-3.9 51.9,-9.6 69,-12 5,-0.7 9.2,-1.6 9.5,-1.9 0.6,-0.8 43.9,-5.5 70,-7.6 26.6,-2.1 112.3,-3 141.4,-1.5 36.1,1.9 94.3,7.4 95.6,9.1 0.3,0.3 4.6,1.1 9.5,1.8 33.2,4.6 102.8,18 104.5,20.1 0.3,0.3 6.4,2.1 13.5,3.9 18,4.6 37.8,10 45,12.3 3.3,1 8.7,2.6 12,3.4 3.3,0.9 6.2,2 6.5,2.4 0.3,0.5 4.3,2.1 9,3.5 16,5.1 51.2,17.6 52,18.6 0.3,0.4 5.5,2.6 11.5,5 23.6,9.3 41.7,17.1 43.1,18.4 0.8,0.8 3.8,2.4 6.6,3.4 6.9,2.7 37.2,17.2 37.8,18.2 0.3,0.4 4.6,2.8 9.5,5.2 15.6,7.6 29.5,14.9 30.8,16.2 1.4,1.5 12.4,7.9 15.2,9 1.1,0.4 6.4,3.4 11.7,6.7 5.3,3.2 10.1,5.9 10.7,5.9 0.6,0 1.1,0.4 1.1,0.9 0,0.8 20.3,14.1 21.6,14.1 0.8,0 9.7,6.1 10.9,7.4 0.6,0.7 7.7,5.6 15.8,11 8.2,5.4 15.1,10.5 15.4,11.2 0.3,0.8 0.9,1.4 1.5,1.4 0.5,0 5.1,3 10.1,6.8 5.1,3.7 11,7.9 13.2,9.3 2.2,1.4 5.4,3.9 7,5.6 4.2,4.1 13.1,11.3 14,11.3 0.9,0 10.6,8.1 15.7,13.2 2,2.1 5.4,4.8 7.5,6.1 2.1,1.4 6.7,5.3 10.3,8.7 3.6,3.4 9.7,8.8 13.5,12 3.9,3.1 14.7,13.2 24,22.4 9.4,9.1 17.3,16.6 17.6,16.6 0.3,0 3.3,3 6.7,6.7 3.3,3.8 12.4,13.3 20.1,21.3 7.8,8 14.1,14.8 14.1,15.2 0,0.3 3.2,3.9 7.1,7.9 3.8,3.9 9.5,10.5 12.5,14.5 3.1,4.1 5.9,7.4 6.3,7.4 0.7,0 8.8,9.9 15.8,19.2 1.8,2.4 5.5,6.8 8.3,9.8 2.7,3 5,5.9 5,6.3 0,0.6 9.5,13.5 15.3,20.7 3.7,4.6 16.8,23.2 18.1,25.8 0.9,1.7 2.8,4.4 4.2,5.9 2.8,2.9 10.4,13.8 10.4,14.8 0,1 10.9,17.4 12.9,19.4 1.2,1.2 2.1,2.5 2.1,3 0,0.5 2.2,4.5 4.8,8.8 2.7,4.3 6.6,11 8.6,14.8 2.1,3.9 4.3,7.5 5.1,8 1.3,1.1 5.3,8.4 15.7,28.5 3.3,6.3 6.4,11.7 6.9,12 0.4,0.3 5.6,10.7 11.5,23 5.9,12.4 11,22.7 11.3,23 1.1,0.9 10.8,23.2 18.1,41.5 1.7,4.4 3.5,8.2 3.9,8.5 1.3,0.8 19.2,49.5 20.6,55.7 0.3,1.8 1,3.3 1.5,3.3 1.3,0 15.5,46.3 20.1,65.5 0.7,2.8 1.6,5.2 2,5.5 1.8,1.2 15.6,64 20.5,93 1,5.8 2.1,10.7 2.5,11 1,0.8 6.8,42.5 9.4,68 4.4,43.6 4.9,56 4.9,119 0,63.2 -0.5,75.1 -5,119.5 -2.7,27.1 -8.4,67.7 -9.5,68.5 -0.3,0.3 -1.6,6.4 -2.9,13.5 -4.8,28.6 -18.1,88.3 -19.9,89.5 -0.5,0.3 -1.2,2.1 -1.6,4 -2.7,12.9 -18.7,65.8 -20.4,67 -0.3,0.3 -2.3,5.7 -4.5,12 -5.7,17 -16.7,46.4 -17.6,47 -0.4,0.3 -1.8,3 -3,6 -10.3,25.5 -17.7,42.6 -19.3,44.5 -0.4,0.6 -5.5,10.9 -11.3,23 -5.8,12.1 -10.9,22.2 -11.3,22.5 -0.4,0.3 -4.3,7.3 -8.6,15.5 -9.2,17.8 -12.5,23.6 -14.1,25 -0.7,0.6 -2.8,4 -4.8,7.7 -1.9,3.7 -4.6,8.5 -5.9,10.5 -1.3,2.1 -3.9,6.5 -5.7,9.8 -1.8,3.3 -3.8,6.5 -4.5,7 -1.4,1.1 -10.5,15 -10.5,16 0,1 -9.6,14.8 -12.9,18.4 -1.7,1.9 -3.1,3.9 -3.1,4.4 0,0.5 -3.4,5.6 -7.5,11.3 -4.1,5.7 -7.5,10.8 -7.5,11.3 0,0.6 -0.8,1.6 -1.7,2.3 -1.9,1.4 -14.3,17.5 -14.3,18.5 0,0.8 -6.6,9 -10.6,13.1 -1.8,1.9 -4.5,5.3 -6.1,7.5 -2.9,4.4 -11.9,15.4 -16,19.7 -1.3,1.4 -6.4,7.3 -11.3,13.1 -4.9,5.9 -9.7,10.9 -10.5,11.3 -0.9,0.3 -1.9,1.5 -2.3,2.6 -0.4,1.2 -8.6,10.3 -18.2,20.2 -9.6,10 -18.8,19.8 -20.5,22 -1.6,2.1 -3.4,3.8 -4,3.8 -0.6,0 -5.9,4.8 -11.8,10.8 -5.8,5.9 -15.2,14.8 -20.8,19.7 -5.6,5 -11.1,9.9 -12.3,11.1 -4,4 -19.7,17.4 -20.4,17.4 -0.4,0 -2,1.3 -3.7,3 -4.5,4.5 -18.2,16 -19,16 -0.8,0 -8.4,6.2 -13.7,11.2 -1.8,1.7 -5.1,4.3 -7.3,5.7 -6.1,4 -18.9,13.4 -20,14.9 -0.6,0.7 -2,1.8 -3.2,2.5 -3.8,2.1 -25.8,17 -26.8,18.2 -1.2,1.4 -16.2,11.5 -17,11.5 -1.1,0 -16.7,10.3 -19.3,12.7 -1.4,1.3 -2.9,2.3 -3.4,2.3 -0.6,0 -4.9,2.4 -9.6,5.3 -4.8,3 -11.6,6.8 -15.2,8.6 -3.5,1.8 -6.9,3.9 -7.5,4.6 -0.9,1.3 -11.5,7 -31,16.9 -4.4,2.2 -8.2,4.3 -8.5,4.7 -0.7,1 -39.1,19.5 -43.4,20.9 -2,0.6 -3.6,1.5 -3.6,1.9 0,1.1 -14.5,7.5 -39.5,17.3 -5.5,2.2 -10.2,4.3 -10.5,4.7 -0.7,1.1 -39.4,15.2 -54.5,19.8 -2.7,0.9 -5.2,1.9 -5.5,2.3 -1,1.4 -42.8,13.8 -64.5,19.1 -4.9,1.2 -9.2,2.6 -9.5,3 -1.2,1.8 -60.7,14.3 -90,19 -8,1.2 -14.7,2.6 -15,2.9 -1.7,2.3 -71.6,9.6 -114.4,12 -15.8,0.9 -97.6,1.1 -114.6,0.3 z m 80.9,-776 c 1.5,-1.5 11.9,-18.2 20.2,-32.3 0.8,-1.3 1.9,-2.9 2.5,-3.5 1.2,-1.2 13.4,-20.3 13.4,-21.1 0,-0.8 7,-11.6 8.6,-13.1 0.8,-0.8 2.6,-3.5 4.1,-6.1 1.4,-2.6 5.5,-9.2 9,-14.8 3.4,-5.5 6.3,-10.5 6.3,-11.1 0,-0.6 1,-2.1 2.3,-3.4 2.4,-2.4 11.7,-16.4 11.7,-17.6 0,-1 10.1,-16.4 12.1,-18.4 1,-1 1.9,-2.3 1.9,-2.9 0,-0.5 2.9,-5.4 6.4,-10.8 3.5,-5.4 7.1,-11.4 8,-13.3 0.9,-1.9 2.9,-4.9 4.4,-6.7 1.6,-1.8 4.3,-5.8 6.2,-9 6.5,-11.1 14.3,-23.3 15.6,-24.7 0.8,-0.7 1.4,-1.6 1.4,-1.9 0,-0.3 3.2,-5.5 7,-11.5 3.9,-6.1 7,-11.3 7,-11.6 0,-0.8 5.2,-8.9 6.5,-10 1.2,-1.1 8.5,-12.2 8.5,-13 0,-0.7 13.7,-22.7 15.2,-24.5 1.6,-1.8 11.8,-17.9 11.8,-18.6 0,-0.9 8.9,-14.4 11,-16.6 1,-1.1 2.6,-3.6 3.6,-5.6 0.9,-1.9 4,-7.2 6.9,-11.6 2.9,-4.5 6.2,-10.1 7.4,-12.3 1.1,-2.3 2.4,-4.3 2.9,-4.5 1,-0.3 10,-14.1 11,-16.7 1,-2.8 9.4,-15.5 11.9,-18 1.3,-1.3 2.3,-2.8 2.3,-3.4 0,-0.6 2.9,-5.6 6.5,-11.2 3.6,-5.6 6.5,-10.5 6.5,-10.9 0,-0.8 6,-9.8 7,-10.6 1.1,-0.8 8,-11.4 8,-12.2 0,-0.8 12.2,-20.4 13.9,-22.5 0.6,-0.6 2.7,-3.7 4.7,-6.9 l 3.7,-5.7 1.8,2.4 c 1,1.3 3.5,5.3 5.6,8.9 2.1,3.5 4.5,7.2 5.4,8.1 2.2,2.2 9.8,13.4 10.6,15.6 1,2.7 10.3,16.5 13,19.2 1.2,1.3 2.3,2.8 2.3,3.3 0,0.5 2.6,4.8 5.8,9.6 3.3,4.8 6.7,10.4 7.6,12.4 1,2 2.9,4.9 4.2,6.3 2.6,2.8 10.4,14 10.4,15 0,1 13.5,21 14.8,21.8 0.6,0.4 1.2,1.2 1.2,1.8 0,0.5 3,5.6 6.8,11.2 3.7,5.6 7.4,11.4 8.2,13 0.7,1.5 2.8,4.4 4.6,6.3 1.7,2 4.2,5.4 5.3,7.5 l 2.2,3.9 h -49.4 -49.4 l -6.2,10.5 c -3.4,5.8 -7.3,12.7 -8.8,15.3 -1.4,2.6 -3.1,5.2 -3.7,5.7 -1.3,1.1 -8.6,12.9 -8.6,13.9 0,0.3 -2.9,5.3 -6.5,11.1 -3.6,5.7 -6.5,10.9 -6.5,11.4 0,0.5 -0.4,1.1 -0.9,1.3 -0.8,0.3 -14.1,21.4 -14.1,22.4 0,1.1 -8.2,14.4 -8.9,14.4 -0.3,0 -1.5,1.7 -2.6,3.8 -1.1,2 -4.3,7.7 -7.2,12.5 -2.9,4.8 -6.4,11 -7.8,13.7 -1.4,2.7 -3.3,5.7 -4.3,6.7 -1,1 -2.9,3.5 -4.1,5.5 l -2.3,3.8 145.3,0.2 145.2,0.3 1.8,3.4 c 1,1.9 2.2,3.7 2.7,4 1,0.7 13.2,18.8 13.2,19.6 0,1 7.8,12.2 10.5,15.1 1.3,1.4 2.7,3.5 3.1,4.7 0.7,2.1 15.4,25.1 17.8,27.7 1.3,1.4 7.5,11 16.7,25.4 2.4,3.8 5.1,7.7 6,8.5 0.9,0.9 2.8,3.8 4.3,6.4 1.4,2.6 5.2,8.7 8.4,13.5 3.2,4.8 6.4,9.9 7.1,11.5 0.8,1.5 1.8,2.7 2.2,2.7 0.4,0 2,2 3.6,4.5 l 2.8,4.5 h 91.7 91.8 l -5,-7.7 c -2.7,-4.3 -5.6,-8.6 -6.5,-9.6 -2.1,-2.3 -12.5,-18.3 -12.5,-19.1 0,-1.1 -9.7,-15.2 -12.5,-18.2 -1.4,-1.5 -2.5,-3.1 -2.5,-3.5 0,-0.4 -2.8,-5.2 -6.3,-10.6 -3.4,-5.4 -6.9,-11 -7.6,-12.5 -0.7,-1.4 -2.5,-3.9 -4,-5.5 -2.5,-2.8 -4.5,-5.7 -16,-24 -2.8,-4.5 -6.2,-9.4 -7.6,-10.9 -1.4,-1.5 -2.5,-3.1 -2.5,-3.6 0,-0.5 -3.1,-5.6 -7,-11.3 -3.8,-5.7 -7,-10.8 -7,-11.3 0,-0.5 -1.1,-2.1 -2.4,-3.6 -2.5,-2.6 -11.6,-16.2 -11.6,-17.2 0,-1 -10.3,-15.9 -12.7,-18.3 -1.2,-1.3 -2.3,-2.8 -2.3,-3.2 0,-0.5 -2.8,-5.2 -6.3,-10.6 -3.4,-5.4 -7.5,-11.9 -9,-14.6 -1.5,-2.6 -3.6,-5.5 -4.6,-6.5 -2,-1.9 -10.1,-13.7 -10.1,-14.7 0,-1.3 -11.3,-18 -12.6,-18.8 -0.8,-0.4 -1.4,-1.2 -1.4,-1.8 0,-0.5 -3,-5.6 -6.8,-11.2 -3.7,-5.6 -7.6,-11.9 -8.7,-14 -1.1,-2.1 -3.1,-5 -4.5,-6.6 -1.4,-1.5 -4.1,-5.2 -5.9,-8.2 -8.5,-13.6 -15.4,-23.9 -16.2,-23.9 -0.4,0 -1.1,-0.9 -1.4,-2 -0.4,-1.1 -3.8,-6.8 -7.6,-12.5 -3.8,-5.8 -6.9,-10.8 -6.9,-11.1 0,-0.8 -6.2,-9.7 -7.6,-10.9 -1.5,-1.3 -6.9,-9.5 -7.7,-11.7 -0.6,-1.8 -12.5,-19.8 -13.6,-20.8 -1.1,-0.9 -15.1,-22.6 -15.1,-23.4 0,-0.9 -6,-9.7 -7.6,-11.1 -1.3,-1.1 -7.4,-10.1 -7.4,-10.9 0,-0.3 -2.9,-5 -6.5,-10.5 -3.6,-5.4 -6.5,-10.4 -6.5,-11 0,-0.6 -0.4,-1.1 -0.9,-1.1 -0.7,0 -9.6,-13.1 -18,-26.7 -1.8,-2.8 -3.6,-5.3 -4,-5.5 -0.8,-0.3 -8.1,-11.5 -8.1,-12.4 0,-0.2 -3.2,-5.2 -7,-10.9 -3.9,-5.7 -7,-10.9 -7,-11.5 0,-0.5 -0.4,-1 -0.9,-1 -0.8,0 -13.1,-18.3 -13.1,-19.6 0,-0.9 -7.8,-12.1 -10.3,-14.8 -1.2,-1.3 -2.9,-3.7 -3.7,-5.2 -2.3,-4.3 -15.8,-25.7 -17.3,-27.4 -1.8,-1.9 -13.7,-19.7 -13.7,-20.4 0,-1 -7,-11.5 -9.3,-14 -1.2,-1.3 -2.9,-3.7 -3.7,-5.3 -0.8,-1.5 -4.5,-7.4 -8.2,-13 -3.8,-5.6 -6.8,-10.6 -6.8,-11.1 0,-0.5 -1,-2 -2.3,-3.3 -1.2,-1.3 -4.7,-6.2 -7.6,-10.9 -11.2,-17.7 -14.4,-22.5 -15.3,-22.8 -0.4,-0.2 -2.7,-3.6 -5,-7.5 -2.3,-4 -6.3,-10.4 -9,-14.4 -2.6,-4 -4.8,-7.6 -4.8,-8.1 0,-0.5 -1.1,-2 -2.3,-3.3 -2.4,-2.5 -12.7,-17.4 -12.7,-18.4 0,-1.6 -8.4,-13.5 -9.5,-13.5 -1.1,0 -9.5,12.1 -9.5,13.7 0,1.2 -12.4,20.3 -13.2,20.3 -0.4,0 -0.8,0.4 -0.8,1 0,0.5 -3.1,5.9 -7,12 -3.9,6.1 -7,11.4 -7,11.7 0,1 -6.3,10.7 -8.5,13 -1.1,1.1 -2.9,3.8 -4,6 -1,2.1 -4.5,7.9 -7.6,12.8 -3.1,5 -6.4,10.5 -7.3,12.3 -0.9,1.8 -2.5,4.1 -3.4,5 -0.9,1 -3.7,5.1 -6.1,9.2 -8.9,15.1 -13,21.6 -15.5,24.5 -1.4,1.7 -2.6,3.4 -2.6,3.8 0,0.4 -2.6,4.9 -5.8,10 -3.2,5.1 -7.3,12 -9.2,15.5 -1.9,3.4 -3.8,6.2 -4.1,6.2 -0.7,0 -8.9,12.5 -8.9,13.5 0,0.3 -2.9,5.2 -6.5,10.9 -3.6,5.7 -6.5,10.9 -6.5,11.5 0,0.6 -0.4,1.1 -0.9,1.1 -0.9,0 -9.8,13.8 -14.9,23 -2.9,5.2 -5.9,9.7 -8.3,12.3 -0.9,1 -2.8,4 -4.2,6.5 -3.2,6.3 -15.6,26.5 -16.6,27.2 -0.9,0.6 -12.1,18.5 -12.1,19.3 0,1 -9,14.8 -10.6,16.5 -0.8,0.8 -2.4,3.2 -3.4,5.3 -1.1,2.1 -4.4,7.6 -7.4,12.2 -2.9,4.5 -5.6,9.2 -6,10.4 -0.4,1.1 -1.7,3.2 -3,4.5 -2.2,2.5 -10.6,15.3 -10.6,16.3 0,1.2 -13.3,21.5 -14.1,21.5 -0.5,0 -0.9,0.5 -0.9,1.1 0,0.6 -2.9,5.8 -6.5,11.5 -3.6,5.7 -6.5,10.6 -6.5,10.9 0,0.9 -7.1,11.9 -8.5,13 -1.3,1.2 -6.5,9.2 -6.5,10.1 0,0.4 -2.9,5.3 -6.5,11 -3.6,5.7 -6.5,10.8 -6.5,11.3 0,0.6 -0.6,1.4 -1.3,1.8 -1.2,0.7 -5.5,7.4 -17,26.5 -2.5,4.2 -5.3,8.5 -6.2,9.5 -1.6,1.8 -12,18.9 -17.5,28.8 -1.6,2.7 -3.7,5.9 -4.7,7 -1.1,1.1 -3.7,4.9 -5.8,8.5 -11.1,18.7 -15.8,26 -16.6,26 -0.5,0 -0.9,0.5 -0.9,1 0,0.6 -2.9,5.7 -6.5,11.4 -3.6,5.7 -6.5,10.6 -6.5,11 0,1 -7.3,12.1 -8.2,12.4 -0.5,0.2 -1.5,1.7 -2.3,3.3 l -1.6,2.9 H 1728 c -117.2,0 -213,-0.2 -213,-0.5 0,-1 7.1,-11.5 9.5,-14.1 1.4,-1.5 2.5,-3.1 2.5,-3.6 0,-0.5 2.6,-5 5.9,-10.1 3.2,-5.1 6.6,-10.7 7.5,-12.5 0.9,-1.8 2.5,-4.1 3.4,-5 2,-2 11.2,-15.9 11.2,-16.8 0,-1.1 11.2,-18.4 12,-18.4 0.3,0 1.3,-1.2 2.1,-2.7 0.7,-1.6 3.9,-6.8 6.9,-11.8 3.1,-4.9 6.8,-11.1 8.3,-13.7 1.5,-2.6 3.3,-5.3 4,-6 1.8,-1.8 9.7,-13.5 9.7,-14.4 0,-0.8 13,-21.5 14.7,-23.1 0.9,-1 27.9,-1.3 128.1,-1.3 h 127 l 4.7,-7.5 c 2.5,-4.1 5,-7.5 5.5,-7.5 0.5,0 1.2,-1 1.5,-2.2 0.4,-1.1 3.7,-6.6 7.2,-12.1 3.6,-5.5 6.8,-10.8 7.1,-11.6 0.6,-1.8 6.2,-10.3 7.2,-11.1 1.1,-0.8 8,-11.4 8,-12.2 0,-0.4 2.9,-5.3 6.5,-10.8 3.6,-5.5 6.5,-10.5 6.5,-10.9 0,-0.5 0.4,-1.1 0.9,-1.3 1,-0.3 14.1,-20.5 14.1,-21.6 0,-0.9 6.9,-11.2 8.7,-13 0.7,-0.7 2.5,-3.4 4,-6 1.4,-2.6 5.2,-8.9 8.4,-13.9 l 5.9,-9.3 h -293.3 -293.4 l -4.8,7.6 c -2.6,4.2 -5.8,8.7 -7.1,10.1 -1.3,1.4 -2.4,3 -2.4,3.5 0,0.5 -2.6,5 -5.8,10.1 -3.2,5.1 -7.1,11.5 -8.7,14.2 -1.6,2.8 -3.4,5.5 -4.1,6 -1.2,1 -8.4,12 -8.4,12.9 0,1.2 -12.4,20.2 -13.6,20.9 -0.8,0.4 -1.4,1.2 -1.4,1.8 0,0.5 -3,5.8 -6.8,11.7 -3.7,5.9 -7.6,12.4 -8.7,14.5 -1.1,2.2 -3,4.9 -4.2,6.1 -1.2,1.2 -4.8,6.7 -8.1,12.2 -3.3,5.6 -7.1,11.9 -8.6,14 -1.4,2.1 -2.6,4.2 -2.6,4.6 0,0.4 31,0.9 69,1 l 69,0.3 -2.1,4.2 c -1.1,2.3 -3,5.2 -4.2,6.5 -2.5,2.7 -9.7,13.4 -9.7,14.4 0,0.4 -2.9,5.3 -6.5,10.9 -3.6,5.6 -6.5,10.7 -6.5,11.3 0,0.6 -0.6,1.5 -1.4,1.9 -1.3,0.8 -12.6,17.8 -12.6,18.9 0,1.2 -9.2,15.4 -9.9,15.4 -0.5,0 -2.1,2.4 -3.6,5.3 -1.6,2.8 -5.5,9.3 -8.7,14.4 -3.2,5.1 -5.8,9.6 -5.8,10.1 0,0.5 -1,2 -2.3,3.4 -2.4,2.6 -12.7,18.2 -12.7,19.3 0,0.8 -10.2,16.8 -11.2,17.5 -0.7,0.6 -12.4,19.5 -16.8,27.5 -1.6,2.7 -3.7,5.9 -4.7,7 -2,2 -9.3,13.1 -9.3,14 0,1.3 -13.3,21.5 -14.1,21.5 -0.5,0 -0.9,0.5 -0.9,1.1 0,0.7 -2.9,5.8 -6.5,11.4 -3.6,5.6 -6.5,10.5 -6.5,10.8 0,1.1 -7.1,11.7 -9.7,14.4 -1.1,1.3 -2.9,4.1 -3.9,6.1 -0.9,2 -4.1,7.3 -6.9,11.8 -2.9,4.5 -6,9.8 -7,11.8 -0.9,2 -2.1,3.6 -2.5,3.6 -0.5,0 -2.2,2.3 -3.9,5 l -3.1,5 h 402.6 c 381.9,0 402.6,-0.1 404.3,-1.7 z m 65.8,-610 c 0.4,-1 1,-2 1.4,-2.3 0.9,-0.6 12.9,-19.7 12.9,-20.5 0,-0.9 7,-11.9 8.3,-13 1.4,-1.2 6.7,-9.2 6.7,-10.1 0,-0.4 2.9,-5.3 6.5,-11 3.6,-5.7 6.5,-10.7 6.5,-11.2 0,-0.4 0.9,-1.8 1.9,-2.9 2.2,-2.4 11,-15.8 11.9,-18.2 0.8,-2.1 10.4,-17.4 11.4,-18.1 0.9,-0.7 13.4,-21 16.7,-27.3 1.3,-2.6 3.2,-5.5 4.1,-6.5 2.1,-2.3 6,-7.9 6,-8.6 0,-0.3 -140.3,-0.6 -311.8,-0.6 h -311.7 l -2.5,2.8 c -2.6,2.7 -9,12.4 -9,13.5 0,0.3 -2.9,5.2 -6.5,10.9 -3.6,5.7 -6.5,10.9 -6.5,11.6 0,0.6 -0.4,1.2 -0.9,1.2 -0.8,0 -14.1,20.5 -14.1,21.7 0,0.9 -6.1,10.6 -7.4,11.8 -1.4,1.3 -6.6,9.3 -6.6,10.1 0,0.4 -2.9,5.3 -6.5,11 -3.6,5.7 -6.5,10.7 -6.5,11.2 0,0.4 -0.9,1.8 -2.1,3 -2,2.2 -11.9,17.7 -11.9,18.7 0,1.1 -11.3,18.5 -12,18.5 -0.4,0 -1.3,1.4 -1.9,3 l -1,3 h 312 c 296.2,0 312,-0.1 312.6,-1.7 z"
       id="path2"
       style="fill:#f9f9f9" />
  </g>
  <g
     fill="#ffffff"
     id="g18"
     transform="translate(-899.475,-24.155138)">
    <path
       d="m 1629.3,1467.3 c 235.6,-0.2 403.7,-0.7 403.7,-1.2 0,-0.5 0.7,-1.1 1.5,-1.5 1.9,-0.7 1.9,-0.1 -0.1,1.8 -1.4,1.5 -39.4,1.6 -405.2,1.4 l -403.7,-0.3 z"
       id="path6" />
    <path
       d="m 2685.7,1467.3 c 25.4,-0.2 67.2,-0.2 93,0 25.7,0.1 5,0.2 -46.2,0.2 -51.1,0 -72.2,-0.1 -46.8,-0.2 z"
       id="path8" />
    <path
       d="m 1515,1315.1 c 0,-0.6 0.5,-1.3 1.2,-1.7 0.7,-0.4 0.8,-0.3 0.4,0.4 -0.5,0.9 51.3,1.2 211.5,1.2 200.9,0 212.3,-0.1 213.6,-1.7 1.3,-1.6 1.3,-1.6 0.3,0.5 l -1.1,2.2 H 1728 c -132.4,0 -213,-0.4 -213,-0.9 z"
       id="path10" />
    <path
       d="m 2340,1165.4 c -0.1,-3.3 2.6,-3.4 52.1,-3.1 l 49.4,0.2 -49.7,0.3 c -46.1,0.2 -49.8,0.3 -50.7,2 -0.6,0.9 -1.1,1.2 -1.1,0.6 z"
       id="path12" />
    <path
       d="m 1376.7,1010.3 c 0.7,-1.7 588.3,-1.9 588.3,-0.3 0,0.7 -99.6,1.1 -294.4,1.2 -235.1,0.2 -294.2,0 -293.9,-0.9 z"
       id="path14" />
    <path
       d="m 1568.9,705.8 c 1.3,-1.7 17.4,-1.8 313.7,-1.8 171.8,0 312.4,0.3 312.4,0.8 0,0.4 -140.5,0.6 -312.1,0.4 -249,-0.2 -312.5,0 -313.8,1 -1.4,1.2 -1.4,1.1 -0.2,-0.4 z"
       id="path16" />
  </g>
</svg>
