<?xml version="1.0" encoding="UTF-8" standalone="no"?>
<svg
   version="1.0"
   width="2298.4973"
   height="426.48767"
   viewBox="0 0 2298.4973 426.48767"
   preserveAspectRatio="xMidYMid"
   id="svg24"
   sodipodi:docname="fireemblem.svg"
   inkscape:version="1.2 (dc2aedaf03, 2022-05-15)"
   xmlns:inkscape="http://www.inkscape.org/namespaces/inkscape"
   xmlns:sodipodi="http://sodipodi.sourceforge.net/DTD/sodipodi-0.dtd"
   xmlns="http://www.w3.org/2000/svg"
   xmlns:svg="http://www.w3.org/2000/svg">
  <defs
     id="defs28" />
  <sodipodi:namedview
     id="namedview26"
     pagecolor="#ffffff"
     bordercolor="#000000"
     borderopacity="0.25"
     inkscape:showpageshadow="2"
     inkscape:pageopacity="0.0"
     inkscape:pagecheckerboard="0"
     inkscape:deskcolor="#d1d1d1"
     showgrid="false"
     inkscape:zoom="0.4185"
     inkscape:cx="1146.9534"
     inkscape:cy="215.05376"
     inkscape:window-width="1920"
     inkscape:window-height="1017"
     inkscape:window-x="-8"
     inkscape:window-y="-8"
     inkscape:window-maximized="1"
     inkscape:current-layer="svg24" />
  <g
     fill="#ffffff"
     id="g22"
     transform="translate(-353.01609,-784.8)">
    <path
       d="m 360.9,1202.1 c 48.4,-49.6 92.1,-129.8 120.6,-221.6 6.5,-21 45.7,-167.6 45.1,-169 -0.2,-0.7 -11,-6.8 -24,-13.6 L 479,785.5 601.7,785.2 c 67.5,-0.1 123,0.1 123.4,0.5 0.4,0.5 5.1,10.5 10.4,22.3 5.4,11.8 9.9,21.8 10.1,22.2 0.3,0.4 -9.3,-4 -21.1,-9.8 L 702.9,810 h -54.4 -54.3 l -1.1,3.3 c -1.9,6 -29.1,108.4 -29.1,109.5 0,0.9 13.4,1.2 53.8,1.2 h 53.7 l 11.4,-9 c 6.3,-5 11.5,-9 11.7,-9 0.2,0 0.1,0.6 -0.1,1.2 -0.2,0.7 -4.1,15 -8.6,31.8 -4.5,16.8 -8.4,30.9 -8.7,31.4 -0.3,0.5 -2.6,-4.5 -5.1,-11 l -4.6,-11.9 h -55.4 -55.4 l -1.9,7 c -8.5,31.7 -28,78.1 -45.8,109 -37.8,65.9 -87.3,115 -143.7,142.5 -15.5,7.6 -15.6,7.6 -4.4,-3.9 z"
       id="path2" />
    <path
       d="m 1587,1015.9 c 0,-0.9 -6.3,-42.2 -14,-91.9 -7.7,-49.8 -14,-90.9 -14.1,-91.5 -0.2,-3 -3.5,9 -19.8,71.3 l -17.9,68.4 4.6,4.1 c 2.6,2.3 6.5,5.9 8.7,7.9 l 4,3.7 -27.2,0.1 c -15,0 -27.3,-0.2 -27.3,-0.4 0,-0.3 13.7,-11 16.1,-12.6 0.4,-0.3 11.1,-39.9 23.8,-88 l 23.1,-87.5 -3.3,-3 c -1.8,-1.6 -5.5,-4.9 -8.2,-7.2 l -5,-4.2 34.9,0.2 35,0.2 12.5,72.2 c 6.9,39.8 12.9,72.3 13.2,72.3 0.3,0 23,-32.4 50.5,-72 l 49.9,-72 h 31.4 31.4 l -5.4,4.3 c -3.1,2.3 -7,5.3 -8.8,6.7 -3.3,2.5 -3.4,2.8 -25.7,88 -12.3,47 -22.4,86.2 -22.4,87.1 0,0.9 3.6,4.8 8,8.8 l 8.1,7.1 h -39.7 -39.7 l 8.4,-6.3 8.4,-6.4 18.9,-71.9 c 10.4,-39.5 19.1,-72.6 19.4,-73.4 0.8,-3.2 -5.8,6.2 -66.9,94.3 -34.7,50.2 -63.6,91.6 -64,92.2 -0.6,0.5 -0.9,0.3 -0.9,-0.6 z"
       id="path4" />
    <path
       d="m 2436.6,926.7 c -7.7,-49.6 -14.2,-91.3 -14.6,-92.7 -0.6,-2.3 -0.7,-2.3 -1.3,-0.5 -1.7,5.7 -35.7,136.5 -35.7,137.6 0,0.8 3.7,4.9 8.2,9.1 l 8.3,7.7 -27.2,0.1 c -15,0 -27.3,-0.2 -27.3,-0.4 0,-0.2 3.8,-3.3 8.5,-6.7 6.9,-5.1 8.7,-7 9.5,-9.9 0.5,-1.9 10.8,-41.2 22.9,-87.2 12.2,-46 22.1,-84.1 22.1,-84.5 -0.1,-0.4 -3.7,-3.7 -8,-7.2 -4.4,-3.6 -8,-6.6 -8,-6.8 0,-0.2 15.6,-0.3 34.8,-0.3 h 34.7 l 12.4,71.8 c 6.8,39.4 12.7,72.1 13.1,72.5 0.4,0.5 23.2,-31.6 50.6,-71.2 l 49.9,-72 h 31.5 c 17.5,-0.1 31,0.3 30.5,0.8 -0.6,0.4 -4.5,3.4 -8.7,6.6 -6.2,4.6 -8,6.5 -8.7,9.4 -14.5,54.7 -44.1,168.7 -44.1,169.5 0,0.7 3.6,4.3 8,8.2 l 8,6.9 -19.5,0.3 c -10.7,0.1 -28.4,0.1 -39.2,0 l -19.8,-0.3 8.3,-6.3 c 4.5,-3.5 8.2,-6.5 8.2,-6.8 0,-0.2 8.6,-32.9 19,-72.5 10.5,-39.7 18.9,-72.4 18.6,-72.6 -0.2,-0.2 -1.3,0.8 -2.4,2.4 -1,1.5 -30.2,43.5 -64.7,93.3 -34.5,49.8 -63,90.8 -63.4,91.2 -0.3,0.4 -6.9,-39.9 -14.5,-89.5 z"
       id="path6" />
    <path
       d="m 997,987.4 c -14.1,-3 -28.1,-12.5 -34.7,-23.6 -3.2,-5.2 -34.6,-72.9 -34.1,-73.2 0.2,-0.1 3.7,-1.2 7.8,-2.5 27.5,-8.5 48.5,-25.3 56.6,-45.1 9.6,-23.8 1.9,-40.3 -20.8,-44 -3.4,-0.5 -11.6,-1 -18,-1 h -11.7 l -1,3.8 c -14,52.8 -44.1,168.9 -44.1,169.8 0,0.6 1.7,2.7 3.8,4.5 2,1.8 5.9,5.2 8.6,7.6 l 4.8,4.3 h -40.8 -40.8 l 9,-6.7 9,-6.7 23.2,-87.6 23.1,-87.5 -5.1,-4.5 c -2.9,-2.5 -6.6,-5.7 -8.3,-7.2 l -3,-2.7 46.5,-0.1 c 48.1,0 59.6,0.7 73.8,4 28.3,6.7 43.5,24.4 40.1,46.4 -1.4,8.8 -5.3,16 -13.2,24.3 -11.4,12 -30.5,23.3 -50.7,29.9 -4.7,1.5 -8.6,2.9 -8.8,3 -0.7,0.4 6.6,17.3 13.9,32.1 13.9,28.1 31.5,52 44.2,60.1 4.3,2.7 4.5,3 2.5,3.6 -4.2,1.1 -25.2,0.5 -31.8,-1 z"
       id="path8" />
    <path
       d="m 735.7,981.1 8.9,-6.9 19.7,-74.8 c 10.8,-41.2 21.2,-80.6 23.1,-87.6 l 3.4,-12.7 -8.5,-7.1 -8.5,-7 h 39.8 c 31.6,0.1 39.6,0.3 38.3,1.3 -0.9,0.7 -4.8,3.7 -8.8,6.7 -6.3,4.8 -7.3,6 -8.6,10.5 -3.8,13.4 -43.5,166.4 -43.5,167.6 0,0.8 3.7,4.9 8.2,9.1 l 8.3,7.7 -40.4,0.1 h -40.4 z"
       id="path10" />
    <path
       d="m 1044,987.6 c 0,-0.2 3.5,-3 7.8,-6.1 4.2,-3.2 8,-6.1 8.4,-6.4 0.4,-0.3 11.1,-40 23.8,-88.1 l 23.1,-87.5 -3.3,-3 c -1.8,-1.6 -5.6,-4.9 -8.3,-7.2 l -5,-4.3 h 64 64 l 6.3,21.1 c 3.5,11.6 6.1,21.3 5.9,21.5 -0.1,0.2 -9.7,-6.4 -21.2,-14.6 l -21,-15 h -18.1 -18.1 l -5.6,21.8 c -3.1,11.9 -7.9,30.1 -10.6,40.5 l -4.9,18.7 h 17.7 17.7 l 9.2,-8.6 c 5.1,-4.7 9.2,-8.1 9.2,-7.5 0,0.6 -2.8,12.2 -6.1,25.7 l -6.2,24.6 -4.6,-10.6 -4.6,-10.6 -17.9,0.3 -17.9,0.2 -9.8,37.3 c -5.4,20.5 -10.1,38.6 -10.4,40.3 l -0.7,2.9 h 33.6 33.6 l 19.5,-12 c 10.7,-6.5 20.3,-12.4 21.4,-12.9 1.6,-0.9 0.8,2.2 -4.8,19.2 l -6.8,20.2 -79.6,0.3 c -43.9,0.1 -79.7,0 -79.7,-0.2 z"
       id="path12" />
    <path
       d="m 1307.4,981.4 c 4.8,-3.6 9,-7.2 9.3,-8 0.3,-0.7 10.8,-40.2 23.3,-87.6 l 22.9,-86.3 -5.2,-4.5 c -2.8,-2.5 -6.5,-5.7 -8.2,-7.2 l -3,-2.7 63.7,-0.1 h 63.7 l 3.1,10.3 c 1.8,5.6 4.7,15.1 6.5,21.1 1.9,6.1 3.3,11.2 3.1,11.4 -0.2,0.2 -9.8,-6.5 -21.4,-14.7 L 1444.1,798 h -18 c -16.2,0 -18,0.2 -18.5,1.8 -0.3,0.9 -4.8,18.4 -10.1,38.7 -5.3,20.4 -9.9,37.8 -10.1,38.8 -0.5,1.6 0.8,1.7 17.1,1.7 h 17.7 l 9.5,-8.7 c 8.3,-7.6 9.3,-8.3 8.7,-5.7 -0.4,1.6 -3.3,13 -6.5,25.4 l -5.6,22.5 -2.8,-6 c -1.5,-3.3 -3.6,-7.9 -4.6,-10.2 l -1.8,-4.3 h -17.8 -17.9 l -10.2,39.3 c -5.6,21.5 -10.2,39.8 -10.2,40.5 0,0.9 7.3,1.2 33.3,1.2 h 33.3 l 21,-12.8 c 11.5,-7.1 21.1,-12.8 21.3,-12.6 0.1,0.1 -2.7,9.3 -6.4,20.3 l -6.7,20.1 h -80 -80.1 z"
       id="path14" />
    <path
       d="m 1778.4,982.8 c 3.9,-2.9 8,-6.2 9.2,-7.3 1.8,-1.6 6.4,-17.8 24.8,-88 12.4,-47.3 22.6,-86.7 22.6,-87.5 0,-0.9 -3.7,-4.6 -8.2,-8.4 l -8.2,-6.8 54.9,0.5 c 44.9,0.4 56.5,0.8 62.9,2.1 22.3,4.4 34.1,10.7 40.4,21.5 2.4,4.1 2.7,5.6 2.7,13.6 0,7.7 -0.4,9.8 -2.8,14.9 -1.5,3.3 -4.4,8 -6.4,10.4 -8.2,10 -25.8,19.9 -44,24.9 -5.7,1.5 -10.3,3.1 -10.3,3.4 0,0.4 3,1.2 6.8,1.9 29.2,5.5 49,20.7 50.9,39.1 0.6,7 -1.8,18.7 -5.7,26.5 -10,20.4 -32,34.3 -65.9,41.6 -9,2 -13.5,2.1 -70.1,2.5 l -60.5,0.4 z m 96.1,-10.3 c 27.2,-4.8 47,-23.1 53,-48.9 1.3,-5.5 1.3,-7 0,-12 -3.8,-14.4 -17.1,-24.1 -39.2,-28.5 -4.6,-0.9 -8.3,-1.8 -8.3,-2.1 0,-0.3 3.4,-2 7.4,-3.8 19.3,-8.7 36.3,-23.7 43.6,-38.4 7.8,-15.8 6.5,-27.3 -3.8,-33.9 -8,-5.1 -13.9,-6.3 -31.1,-6.3 l -15.3,-0.1 -22.4,85.5 c -12.3,47 -22.4,86.3 -22.4,87.2 0,1.3 1.1,1.8 4.3,2.1 10.7,0.9 26.2,0.6 34.2,-0.8 z"
       id="path16" />
    <path
       d="m 1987.4,981.4 c 4.8,-3.6 9,-7.2 9.3,-8 0.3,-0.8 10.8,-40.3 23.4,-87.7 l 22.8,-86.2 -5.2,-4.5 c -2.8,-2.5 -6.5,-5.7 -8.2,-7.2 l -3,-2.7 39.8,-0.1 c 21.8,0 39.7,0.2 39.7,0.4 0,0.2 -4.1,3.2 -9,6.7 -7.4,5.2 -9.2,6.9 -10,9.9 -11.9,44.9 -44,168.5 -44,169.6 0,1.2 5,1.4 33.3,1.4 h 33.3 l 21,-12.8 c 11.5,-7.1 21.1,-12.8 21.3,-12.6 0.1,0.1 -2.7,9.3 -6.4,20.3 l -6.7,20.1 h -80 -80.1 z"
       id="path18" />
    <path
       d="m 2174.6,981.3 9,-6.7 23.1,-87.5 23.2,-87.6 -5.2,-4.5 c -2.8,-2.5 -6.5,-5.7 -8.2,-7.2 l -3,-2.8 63.9,0.3 63.8,0.2 6.4,21 c 3.4,11.5 6.1,21.1 5.9,21.3 -0.1,0.2 -9.7,-6.5 -21.3,-14.7 L 2311.1,798 h -18 c -16.2,0 -18,0.2 -18.5,1.8 -0.3,0.9 -4.8,18.4 -10.1,38.7 -5.3,20.4 -9.8,37.8 -10.1,38.8 -0.5,1.6 0.8,1.7 17.1,1.7 h 17.7 l 9.4,-8.6 c 5.2,-4.8 9.4,-8.5 9.4,-8.3 -0.1,0.2 -2.9,11.8 -6.4,25.8 l -6.2,25.3 -4.6,-10.3 -4.5,-10.4 -17.9,-0.3 -17.9,-0.2 -10.3,39.2 c -5.6,21.6 -10.2,39.9 -10.2,40.6 0,0.9 7.3,1.2 33.3,1.2 h 33.3 l 21,-12.8 c 11.5,-7.1 21.1,-12.8 21.3,-12.6 0.1,0.1 -2.7,9.3 -6.4,20.3 l -6.7,20.1 h -80.1 -80.1 z"
       id="path20" />
  </g>
</svg>
