<svg id="Layer_1" data-name="Layer 1" xmlns="http://www.w3.org/2000/svg" viewBox="0 0 3838.96756 687.80005"><polygon points="1871.068 48.5 2198.367 48.5 2185.968 136.8 1947.868 136.8 1923.468 311.4 2133.468 311.4 2121.068 399.8 1911.068 399.8 1885.268 584 2198.668 584 2186.268 672.3 1783.768 672.3 1871.068 48.5" style="fill:#bbbebc"/><polygon points="3838.968 48.5 3728.468 48.5 3565.268 266 3448.867 48.5 3348.568 48.5 3512.268 354 3467.768 671.9 3556.968 671.9 3599.468 367.5 3838.968 48.5" style="fill:#bbbebc"/><polygon points="1391.668 686.9 1620.968 251.9 1637.568 672.3 1728.368 672.3 1703.768 48.5 1625.768 48.5 1422.668 433.6 1327.968 48.5 1250.168 48.5 1046.668 672.3 1138.168 672.3 1280.668 235.9 1391.668 686.9" style="fill:#bbbebc"/><path d="M3147.3999,35.7c-172.8,0-274.1001,160.7-296.69995,322.5-24.6001,175.5,25.19995,329.6,198.5,329.6,210.5,0,281.6001-215.8,297.5-329.6C3380.3999,117.2,3239.5,35.7,3147.3999,35.7ZM3259.1001,346c-3.30005,23.5-17.3999,104.9-61.5,170.2-38.30005,56.8-85.5,83.2-148.5,83.2-49,0-69.6001-17.1-80.8999-30-31.2-35.9-42.39991-110.2-30-198.8,12.8-91.4,71.19995-246.3,209.10009-246.3,21.69995,0,53.6001,10,78,37.9C3258.80005,200.7,3270.5,264.2,3259.1001,346Z" transform="translate(-0.03244 0)" style="fill:#bbbebc"/><path d="M482.5,615.3c-28.4,19.9-54.8,34.9-79.6,45.2-38.7,16-68.4,18.5-88.1,18.5-5,0-9.3-.2-13.1-.3-1.3,0-3.2-.1-3.8-.1h-.4c-103.5,0-164.9-45.4-197.9-83.5-51-58.6-73.1-143.9-60.5-233.9,9.5-68.4,33.9-128,72.3-177.4,32.1-41.2,73.5-74.6,123.1-99.4,88.1-43.7,177.8-47.1,203.2-47.1,60.9,0,106.2,6.7,124.1,9.9l-12.4,88.5c-9.7-1.8-52.2-9.1-111.8-9.1-54.3,0-278.4,18.8-310.4,247-14.9,106.1,32.3,216,170.6,215.8,18.2,0,45.8,5.8,102.8-27.3l12.7-90.8H320l12.2-87.1H515Z" transform="translate(-0.03244 0)" style="fill:#bbbebc"/><path d="M896.3,48.5H817.6L532.7,672.3h95.8l77.6-169.9H885l28.8,170h88.4ZM745.8,415.3l90.6-198.4,33.7,198.4Z" transform="translate(-0.03244 0)" style="fill:#bbbebc"/><path d="M2719.8999,342.6c-4.8999-4.3-9.8999-8.3-15.1001-12.1,34.2-33.4,53.1001-79,53.2-128.6.10009-59.4-23.5-95.6-43.30005-115.4C2695,66.6,2659.1001,44,2599.8999,44h-130.8L2381.2,672.3h225.3c50.5,0,99.2-22.4,133.3-63,29.30005-34.9,46.2-80,46.2-123.9C2786.30005,431,2762.7,380.3,2719.8999,342.6ZM2546,132.3h53.8999c33.1001,0,69.1001,11.5,68.8999,69.3-.10009,54-41.10009,90.7-92.69995,90.7H2523.7Zm60.8,451.8H2483l28.3999-203.2h83.5c41.8999,1.1,102.2,42.3,102.2,104.7C2697.1001,531.2,2660,584,2606.80005,584.1Z" transform="translate(-0.03244 0)" style="fill:#bbbebc"/><polygon points="1835.368 12.8 2162.668 12.8 2150.268 101.1 1912.268 101.1 1887.768 275.7 2097.768 275.7 2085.367 364.1 1875.368 364.1 1849.568 548.3 2162.968 548.3 2150.568 636.5 1748.068 636.5 1835.368 12.8" style="fill:#8157a3"/><polygon points="3803.268 12.8 3692.768 12.8 3529.568 230.2 3413.168 12.8 3312.867 12.8 3476.568 318.3 3432.068 636.1 3521.367 636.1 3563.867 331.8 3803.268 12.8" style="fill:#8157a3"/><polygon points="1355.968 651.2 1585.268 216.2 1601.868 636.5 1692.668 636.5 1668.068 12.8 1590.068 12.8 1386.968 397.9 1292.268 12.8 1214.468 12.8 1010.968 636.5 1102.468 636.5 1244.968 200.1 1355.968 651.2" style="fill:#8157a3"/><path d="M3111.7,0C2938.8999,0,2837.59985,160.7,2815,322.5c-24.6001,175.5,25.2,329.6,198.5,329.6,210.5,0,281.6001-215.8,297.5-329.6C3344.7,81.4,3203.80005,0,3111.7,0ZM3223.3999,310.3c-3.3,23.5-17.3999,104.9-61.5,170.2-38.3,56.8-85.5,83.2-148.5,83.2-49,0-69.6001-17.1-80.8999-30-31.2-35.9-42.3999-110.2-30-198.8,12.8-91.4,71.2-246.3,209.1001-246.3,21.69995,0,53.6001,10,78,37.9C3223.2,165,3234.80005,228.5,3223.3999,310.3Z" transform="translate(-0.03244 0)" style="fill:#8157a3"/><path d="M446.8,579.6c-28.4,19.9-54.8,34.9-79.6,45.2-38.7,16-68.4,18.5-88.1,18.5-5,0-9.3-.2-13.1-.3-1.3,0-3.2-.1-3.8-.1h-.4c-103.5,0-164.9-45.4-197.9-83.5C13,500.8-9.1,415.5,3.5,325.4,13,257,37.4,197.4,75.8,148c32.1-41.2,73.5-74.6,123.1-99.4C287,5,376.8,1.6,402.1,1.6c60.9,0,106.2,6.7,124.1,9.9L513.9,100c-9.7-1.8-52.2-9.1-111.8-9.1-54.3,0-278.4,18.8-310.4,247-14.9,106.1,32.3,216,170.6,215.8,18.2,0,45.8,5.8,102.8-27.3l12.7-90.8h-93.3l12.2-87.1h182.6Z" transform="translate(-0.03244 0)" style="fill:#8157a3"/><path d="M860.6,12.8H782L497,636.5h95.8l77.6-169.9h178.9l28.8,170h88.4ZM710.1,379.5l90.6-198.4,33.7,198.4Z" transform="translate(-0.03244 0)" style="fill:#8157a3"/><path d="M2684.2,306.8c-4.8999-4.3-9.8999-8.3-15.1001-12.1,34.19995-33.4,53.1001-79,53.19995-128.6.1001-59.4-23.5-95.6-43.3-115.4-19.7-19.8-55.7-42.5-114.80005-42.5h-130.8l-87.8999,628.3h225.3c50.5,0,99.2-22.4,133.30005-63,29.3-34.9,46.19995-80,46.19995-123.9C2750.6001,395.3,2727,344.6,2684.2,306.8ZM2510.30005,96.6H2564.2c33.1001,0,69.1001,11.5,68.8999,69.3-.10009,54-41.10009,90.7-92.7,90.7H2488Zm60.80005,451.8H2447.30005L2475.7,345.2h83.5c41.8999,1.1,102.19995,42.3,102.19995,104.7C2661.3999,495.5,2624.30005,548.3,2571.1001,548.4Z" transform="translate(-0.03244 0)" style="fill:#8157a3"/></svg>