<?xml version="1.0" encoding="UTF-8" standalone="no"?>
<svg
   version="1.0"
   width="1084.9211"
   height="199.84126"
   viewBox="0 0 1084.9211 199.84126"
   preserveAspectRatio="xMidYMid"
   id="svg200"
   sodipodi:docname="Guilty_Gear_2020_Logo.svg"
   inkscape:version="1.2 (dc2aedaf03, 2022-05-15)"
   xmlns:inkscape="http://www.inkscape.org/namespaces/inkscape"
   xmlns:sodipodi="http://sodipodi.sourceforge.net/DTD/sodipodi-0.dtd"
   xmlns="http://www.w3.org/2000/svg"
   xmlns:svg="http://www.w3.org/2000/svg">
  <defs
     id="defs204" />
  <sodipodi:namedview
     id="namedview202"
     pagecolor="#ffffff"
     bordercolor="#000000"
     borderopacity="0.25"
     inkscape:showpageshadow="2"
     inkscape:pageopacity="0.0"
     inkscape:pagecheckerboard="0"
     inkscape:deskcolor="#d1d1d1"
     showgrid="false"
     inkscape:zoom="1.0658333"
     inkscape:cx="498.67084"
     inkscape:cy="102.2674"
     inkscape:window-width="1920"
     inkscape:window-height="1017"
     inkscape:window-x="-8"
     inkscape:window-y="-8"
     inkscape:window-maximized="1"
     inkscape:current-layer="svg200" />
  <g
     fill="#f6f3f1"
     id="g16"
     transform="translate(-56.178801,-97.138318)">
    <path
       d="m 221,295.4 c -6.5,-1.7 -12.5,-4.5 -19.7,-9.1 -6.5,-4.1 -14.1,-14.3 -15.8,-21.3 -0.5,-1.7 -1.5,-8.2 -2,-12 -0.6,-5.2 -0.7,-151.1 -0.1,-151.8 0.3,-0.2 11,-0.4 23.8,-0.4 h 23.3 l 0.5,49.9 c 0.3,27.5 0.4,50.7 0.2,51.6 -0.5,2.3 -2.4,2.2 -2,0 0.2,-1.2 -0.3,-1.8 -1.7,-1.8 -3.2,0 -2.6,3.9 0.7,4.5 l 2.8,0.5 0.2,27.1 c 0.3,25.1 0.4,27.4 2.2,29.3 2.8,3 7.1,2.8 9.3,-0.6 1.7,-2.5 1.8,-7.9 2,-81.1 0.1,-43.2 0.4,-78.6 0.6,-78.8 0.5,-0.6 46.8,-0.7 47.3,-0.1 0.5,0.5 0.6,107.2 0.1,139.2 -0.3,18.7 -0.6,21.6 -2.5,26.5 -5.7,14.3 -17.3,24.4 -32.8,28.4 -8,2.1 -28.7,2.1 -36.4,0 z"
       id="path2" />
    <path
       d="m 308,197.1 c 0,-74.8 0.3,-96 1.3,-96.3 0.6,-0.2 5.8,-0.2 11.4,0 l 10.1,0.3 -1,3.6 c -0.7,2.7 -0.7,3.8 0.4,4.4 1,0.7 0.9,0.9 -0.5,0.9 -1,0 -1.5,0.5 -1.2,1 0.8,1.3 1.8,1.3 3.9,-0.3 1.8,-1.3 1.8,-1.5 0.2,-3.9 -2,-3.1 -1.2,-5.8 1.7,-5.7 1.2,0 6.3,0 11.2,-0.1 5,-0.1 9.6,-0.1 10.3,-0.1 0.9,0.1 1.2,20 1.2,96.1 v 96 H 332.5 308 Z"
       id="path4" />
    <path
       d="m 372.9,222.3 c 0,-39 0,-74.4 0,-78.8 0.2,-10.8 0.2,-11.5 0,-15.5 -0.1,-1.9 -0.1,-8.8 0.1,-15.2 l 0.2,-11.7 21.7,-0.3 c 11.9,-0.2 22.6,-0.2 23.9,0 l 2.2,0.3 v 76.5 76.4 h 14.4 14.5 l 0.3,3.3 c 0.2,1.7 0.2,10.5 0,19.5 L 449.9,293 H 411.5 373 Z"
       id="path6" />
    <path
       d="m 462,257.1 c 0,-27.9 0.3,-36 1.3,-36.4 0.9,-0.3 0.9,-0.7 0,-1.9 -1,-1.1 -1.3,-11.3 -1.5,-40.4 l -0.3,-38.9 -14,-0.2 -14,-0.1 -0.3,-19.1 c -0.2,-14.9 0,-19.1 1,-19.1 0.7,0 14.8,0 31.3,-0.1 16.5,-0.1 39.8,-0.1 51.8,0 L 539,101 v 19 18.9 l -14.2,0.3 -14.3,0.3 -0.3,76.8 -0.2,76.7 h -24 -24 z"
       id="path8" />
    <path
       d="m 574.9,291.8 c 0,-0.7 -0.2,-17 -0.3,-36.3 l -0.2,-35 -3.1,-10.5 c -1.7,-5.8 -5.9,-20.6 -9.3,-33 -3.4,-12.4 -9,-32.6 -12.5,-45 -6.1,-21.8 -7.9,-28.6 -8,-30.4 0,-0.4 9.9,-0.8 22,-0.8 l 22,0.1 0.7,3.3 c 1.5,7.2 5.9,33.2 8.2,49.7 1.4,9.6 2.7,17.6 2.9,17.8 0.3,0.2 0.7,-2 1.1,-4.9 2.5,-19.3 10.7,-64.3 12.1,-65.6 0.5,-0.5 29.8,-0.7 43.1,-0.2 1.1,0 -3.5,17.9 -10,39.4 -1.4,4.4 -4.3,14.6 -6.5,22.6 -2.2,8 -7,24.6 -10.6,37 l -6.5,22.5 v 35.3 35.2 h -22.5 c -17.3,0 -22.5,-0.3 -22.6,-1.2 z"
       id="path10" />
    <path
       d="m 823.3,197 0.2,-95.9 22.5,-0.3 c 12.4,-0.2 30.5,-0.2 40.3,0 L 904,101 v 19 19 h -16 -16 v 18 18 l 2.8,0.1 c 1.5,0.1 8.1,0.2 14.7,0.3 l 12,0.1 v 18.4 18.4 l -12.7,-0.1 c -7,0 -13.6,0.2 -14.8,0.5 -1.9,0.5 -2,1.3 -2,20.9 V 254 h 15.3 c 8.3,0 16.2,0.3 17.4,0.6 2.2,0.6 2.3,1.1 2.5,13.8 l 0.3,13.1 4.3,-32 c 2.3,-17.6 6.2,-48.2 8.7,-68 6.2,-49.9 10.3,-79.6 11,-80.4 0.4,-0.3 16,-0.5 34.8,-0.3 31.3,0.2 34.1,0.4 34.5,2 0.9,3.9 5.5,34.8 9.7,64.7 2.4,17.6 5.4,38.1 6.5,45.5 1.1,7.4 2.9,20 4.1,28 1.1,8 3.1,22.1 4.5,31.4 1.3,9.4 2.4,17.8 2.4,18.8 0,1.7 -1.3,1.8 -24.7,1.6 l -24.8,-0.3 -0.7,-12.5 c -0.4,-6.9 -1,-14.4 -1.3,-16.8 l -0.6,-4.3 -8.2,0.3 -8.2,0.3 -1.5,16.5 -1.5,16.5 -66.7,0.3 L 823,293 Z M 975,223.7 c 0,-0.2 -0.9,-8.4 -2,-18.3 -1.7,-15.9 -5,-51.6 -5,-54.6 0,-0.6 -0.2,-0.9 -0.5,-0.6 -0.3,0.3 -1.4,7.9 -2.5,16.9 -3.4,28.7 -6,52.8 -6,54.9 0,1.8 0.7,2 8,2 4.4,0 8,-0.2 8,-0.3 z"
       id="path12" />
    <path
       d="m 1033,197.1 c 0,-75.8 0.3,-96 1.3,-96.3 2.3,-0.9 60.2,0.1 70.2,1.1 27.6,3 37.5,18.4 36.2,56.1 -0.5,16.3 -1.4,20.4 -5.5,25.9 -2.6,3.5 -11.1,8.1 -14.9,8.1 -3.9,0 -2.5,1.4 3.7,3.8 6.3,2.5 11.3,7.2 14.7,14.1 1.6,3.3 1.8,7.3 2.1,43.4 l 0.3,39.7 h -22.5 -22.6 v -36.5 c 0,-42.1 -0.4,-46 -5.6,-48.1 -1.8,-0.8 -4.5,-1.4 -5.9,-1.4 h -2.5 v 43 43 h -24.5 -24.5 z m 57.5,-22.1 c 4.1,-1.6 5.5,-6.4 5.5,-19.2 0,-14.6 -1.1,-18.5 -5.5,-20.4 -1.9,-0.8 -4.6,-1.4 -6,-1.4 -3.1,0 -3,-0.5 -2.7,27.8 l 0.2,14.2 h 2.9 c 1.6,0 4.1,-0.4 5.6,-1 z"
       id="path14" />
  </g>
  <g
     fill="#b9030d"
     id="g198"
     transform="translate(-56.178801,-97.138318)">
    <path
       d="m 89.9,294.5 c -15.8,-5.7 -26.8,-17 -30.1,-31 -3.2,-13.9 -4.5,-53.4 -3,-95.5 1.5,-39.3 2.7,-44.6 13.2,-54.9 6.8,-6.6 11,-9.4 19.7,-12.7 6.1,-2.3 8.3,-2.6 20.8,-2.7 12,-0.1 14.9,0.2 20.3,2.1 10,3.4 17.5,7.9 22.9,13.5 5.7,6 8.3,10.2 10.6,17.2 1.8,5.6 4.3,34.1 3.3,38 l -0.6,2.5 -23.3,-0.2 -23.2,-0.3 -0.3,-19 c -0.2,-17.9 -0.3,-19.1 -2.3,-20.8 -2.8,-2.3 -8.1,-2.2 -11,0.2 l -2.4,1.9 -0.5,55.2 -0.5,55.1 -2.3,1.8 c -2.1,1.5 -2.2,1.9 -0.8,3 2.2,1.8 2,4 -0.5,5.9 -2.2,1.8 -1.8,5.2 0.7,5.2 0.7,0 2.9,1.4 4.7,3 4.1,3.5 9.2,4 12.7,1.2 3,-2.4 3.8,-8.4 3.9,-27.4 0.1,-16.5 -0.4,-17.8 -6.5,-17.8 h -3.5 l 0.3,-13.7 0.3,-13.8 26.6,-0.3 c 21.7,-0.2 26.8,0 27.8,1.1 0.8,1.1 1,15 0.9,51.3 l -0.3,49.9 h -14.4 -14.4 l -1.9,-5.5 c -1,-3 -2.2,-5.8 -2.6,-6.2 -0.4,-0.4 -3.2,1.8 -6.2,4.9 -10.8,11 -23.7,14 -38.1,8.8 z"
       id="path18" />
    <path
       d="m 727.9,293.6 c -15.6,-6.5 -23.7,-15.3 -28.2,-30.6 -2.1,-7.1 -3.6,-34.1 -2.4,-42.6 0.9,-6.3 0.9,-6.3 3.8,-5.7 1.8,0.3 2.9,0.1 2.9,-0.6 0,-0.6 -1.6,-1.1 -3.6,-1.1 h -3.6 l 0.5,-37.7 c 0.6,-39.4 1.1,-44.5 5.3,-52.3 6,-11 14.6,-17.9 29.4,-23.5 6.7,-2.5 25.2,-3.2 32.1,-1.2 3,0.8 7.2,2 9.4,2.6 6,1.6 14.6,7.1 17.3,11.1 1.3,1.9 3.3,3.8 4.6,4.3 2.8,0.9 7,8.6 9.1,16.6 1.9,7.4 3.6,33.9 2.3,36.4 -0.8,1.6 -2.7,1.8 -22.6,1.6 -13.2,0 -22.2,-0.5 -22.9,-1.1 -1,-0.8 -1.3,-5.7 -1.3,-18.3 0,-15.9 -0.2,-17.4 -2.1,-19.9 -1.5,-1.9 -3,-2.6 -5.5,-2.6 -5.2,0 -7.1,1.5 -7.9,6 -0.4,2.2 -0.7,30.2 -0.8,62.3 -0.1,61 0.2,64.5 4.3,66.7 2.9,1.5 7.6,1.2 9.9,-0.8 2.9,-2.3 3.8,-9.3 3.7,-28.5 l -0.1,-15.1 -4.5,-1.1 -4.5,-1.1 v -13.3 -13.4 l 20.4,-0.4 c 22.7,-0.5 27.1,-0.1 27.1,2.5 0.1,1.6 0.2,1.6 1.4,0 0.7,-1 2.3,-1.8 3.5,-1.8 2.5,0 2.4,-4.6 2.2,55.5 -0.1,24.7 -0.5,45.3 -1,45.8 -0.4,0.4 -6.7,0.6 -14,0.5 l -13.3,-0.3 -2,-5 c -2.9,-7.4 -3.3,-7.5 -8.3,-2.3 -2.5,2.6 -6.6,6 -9.2,7.5 -4.3,2.5 -5.8,2.8 -15.3,3 -9.1,0.2 -11.3,-0.1 -16.1,-2.1 z"
       id="path20" />
    <path
       d="m 823.4,261.5 c 0,-17.6 0.2,-24.7 0.3,-15.7 0.2,9 0.2,23.4 0,32 -0.1,8.6 -0.3,1.3 -0.3,-16.3 z"
       id="path22" />
    <path
       d="m 1081.5,253 c 0,-22.3 0.1,-31.4 0.2,-20.3 0.2,11.2 0.2,29.4 0,40.5 -0.1,11.2 -0.2,2.1 -0.2,-20.2 z"
       id="path24" />
    <path
       d="m 978.2,289 c 0,-1.9 0.2,-2.7 0.5,-1.7 0.2,0.9 0.2,2.5 0,3.5 -0.3,0.9 -0.5,0.1 -0.5,-1.8 z"
       id="path26" />
    <path
       d="m 272.8,288 c 2,-0.8 3.3,-4.2 1.5,-3.9 -2,0.3 -2.3,-0.2 -0.9,-1.6 1.8,-1.8 4.3,-2 4.9,-0.2 0.3,0.9 0.8,0.9 2.3,-0.2 1,-0.8 -0.1,0.4 -2.6,2.7 -2.5,2.3 -5.2,4.1 -6,4.1 -0.8,0 -0.5,-0.4 0.8,-0.9 z"
       id="path28" />
    <path
       d="m 591.3,287.7 c 0.4,-1 0.7,-2.3 0.7,-2.8 0,-0.5 0.5,-0.9 1,-0.9 1.6,0 1.2,2.6 -0.7,4.1 -1.5,1.2 -1.6,1.2 -1,-0.4 z"
       id="path30" />
    <path
       d="m 936,283.5 c 0,-0.9 0.6,-1.2 1.5,-0.9 0.8,0.4 1.2,1 0.9,1.5 -0.8,1.4 -2.4,1 -2.4,-0.6 z"
       id="path32" />
    <path
       d="m 574.3,280.5 c 0,-2.2 0.2,-3 0.4,-1.7 0.2,1.2 0.2,3 0,4 -0.3,0.9 -0.5,-0.1 -0.4,-2.3 z"
       id="path34" />
    <path
       d="m 197.2,278.8 c 0.5,-1.5 2.8,-1.8 2.9,-0.3 0,0.6 -0.7,1.2 -1.7,1.3 -1,0.3 -1.5,-0.1 -1.2,-1 z"
       id="path36" />
    <path
       d="m 220.7,267.4 c -0.9,-1 0.2,-2.4 1.9,-2.4 0.8,0 1.4,0.7 1.4,1.5 0,1.5 -2.1,2.1 -3.3,0.9 z"
       id="path38" />
    <path
       d="m 283.4,264.3 c 1.4,-1.5 2.9,-2.3 3.3,-1.9 0.4,0.5 0.2,1.1 -0.4,1.3 -0.7,0.3 -1.3,1.1 -1.3,1.9 0,0.8 -0.9,1.4 -2,1.4 -2,0 -2,-0.1 0.4,-2.7 z"
       id="path40" />
    <path
       d="m 255,261.5 c 0,-1.3 0.4,-1.4 2,-0.5 1.1,0.6 2,1.3 2,1.5 0,0.3 -0.9,0.5 -2,0.5 -1.1,0 -2,-0.7 -2,-1.5 z"
       id="path42" />
    <path
       d="m 976.1,261.2 c -0.1,-2.3 -0.3,-2.3 -8.5,-2 -4.6,0.2 -8.2,0 -7.9,-0.4 0.2,-0.5 4,-0.8 8.4,-0.8 8.1,0 9.9,0.9 8.6,4.2 -0.3,0.7 -0.6,0.3 -0.6,-1 z"
       id="path44" />
    <path
       d="m 619.3,255.5 c 0,-2.7 0.2,-3.8 0.4,-2.2 0.2,1.5 0.2,3.7 0,5 -0.2,1.2 -0.4,0 -0.4,-2.8 z"
       id="path46" />
    <path
       d="m 250.8,258.4 c -0.3,-0.3 -0.1,-1.8 0.5,-3.3 0.8,-2.1 1.7,-2.7 4.2,-2.8 3.2,-0.1 3.2,0 2.1,2.9 -1,2.7 -1.1,2.8 -2,0.8 -0.9,-2.1 -2.6,-2.7 -2.6,-1 0,0.6 0.5,1 1.1,1 0.8,0 0.8,0.5 -0.1,1.5 -1.3,1.6 -2.3,1.9 -3.2,0.9 z"
       id="path48" />
    <path
       d="m 230.3,255.3 c -1.7,-0.6 -1.7,-2 0,-2.6 0.8,-0.3 1.3,0.3 1.3,1.4 0,1.1 0,1.9 -0.1,1.8 0,0 -0.6,-0.3 -1.2,-0.6 z"
       id="path50" />
    <path
       d="m 428.3,254.3 c 3.7,-0.2 9.7,-0.2 13.5,0 3.7,0.2 0.6,0.3 -6.8,0.3 -7.4,0 -10.5,-0.1 -6.7,-0.3 z"
       id="path52" />
    <path
       d="m 879.8,254.3 c 4.5,-0.2 11.9,-0.2 16.5,0 4.5,0.1 0.8,0.3 -8.3,0.3 -9.1,0 -12.8,-0.2 -8.2,-0.3 z"
       id="path54" />
    <path
       d="m 220,251 c 0,-0.5 0.7,-1 1.5,-1 0.8,0 1.5,0.5 1.5,1 0,0.6 -0.7,1 -1.5,1 -0.8,0 -1.5,-0.4 -1.5,-1 z"
       id="path56" />
    <path
       d="m 183.3,247.5 c 0,-2.2 0.2,-3 0.4,-1.7 0.2,1.2 0.2,3 0,4 -0.3,0.9 -0.5,-0.1 -0.4,-2.3 z"
       id="path58" />
    <path
       d="m 246.7,249.6 c -2.1,-1.6 -2.2,-2.6 -0.3,-2.6 0.8,0 1.7,0.7 2,1.6 0.9,2.3 0.4,2.5 -1.7,1 z"
       id="path60" />
    <path
       d="m 619.3,244 c 0,-3.6 0.2,-5 0.4,-3.2 0.2,1.7 0.2,4.7 0,6.5 -0.2,1.7 -0.4,0.3 -0.4,-3.3 z"
       id="path62" />
    <path
       d="m 912.7,241.9 c 0.3,-2.4 0.7,-4.6 0.9,-4.8 0.9,-1 0.3,6.5 -0.5,7.8 -0.6,1 -0.8,-0.1 -0.4,-3 z"
       id="path64" />
    <path
       d="m 308.3,241.5 c 0,-2.2 0.2,-3 0.4,-1.7 0.2,1.2 0.2,3 0,4 -0.3,0.9 -0.5,-0.1 -0.4,-2.3 z"
       id="path66" />
    <path
       d="m 223.8,243.3 c -1.9,-0.5 -3.1,-3 -1.9,-3.8 0.5,-0.3 1.2,0.2 1.5,1.1 0.4,0.9 1.3,1.4 2.1,1 0.9,-0.3 1.5,0 1.5,0.9 0,1.5 -0.3,1.6 -3.2,0.8 z"
       id="path68" />
    <path
       d="m 208,238.5 c 0,-3.6 0.8,-4.3 2.7,-2.4 1.4,1.4 0.4,5.9 -1.3,5.9 -0.9,0 -1.4,-1.2 -1.4,-3.5 z"
       id="path70" />
    <path
       d="m 217.3,237.3 c 0.3,-3 2.4,-4.3 3.3,-1.9 0.6,1.6 -1.1,4.6 -2.7,4.6 -0.4,0 -0.7,-1.2 -0.6,-2.7 z"
       id="path72" />
    <path
       d="m 226.1,239.1 c -0.7,-0.5 -1.2,-1.4 -1,-2 0.3,-0.7 1.1,-0.3 2.1,0.9 1.8,2.1 1.3,2.6 -1.1,1.1 z"
       id="path74" />
    <path
       d="m 191.2,235 c -0.6,-1.1 -1.2,-3.2 -1.1,-4.7 0,-1.6 0.3,-2.1 0.6,-1.3 0.2,0.8 0.9,2.5 1.5,3.7 1.4,2.9 0.6,4.8 -1,2.3 z"
       id="path76" />
    <path
       d="m 619.3,232.5 c 0,-2.7 0.2,-3.8 0.4,-2.2 0.2,1.5 0.2,3.7 0,5 -0.2,1.2 -0.4,0 -0.4,-2.8 z"
       id="path78" />
    <path
       d="m 214.7,232.4 c -0.3,-0.3 -0.3,-1.2 -0.1,-1.9 0.7,-1.8 -1.4,-5.5 -3.1,-5.5 -0.9,0 -1.2,-0.6 -0.9,-1.5 0.4,-0.8 0.1,-1.5 -0.5,-1.5 -1.8,0 -1.2,-2.3 1.3,-5.4 1.4,-1.7 2.6,-2.4 3,-1.8 0.4,0.6 -0.3,1.6 -1.4,2.2 -3.1,1.7 -2.5,4 1.1,4 1.6,0 2.8,0.4 2.5,0.9 -0.3,0.5 0.3,2 1.3,3.2 1.8,2.2 2,2.2 2.6,0.7 0.4,-1 0.5,-2.4 0.2,-3.2 -0.3,-0.8 0.5,-1.8 2.1,-2.6 2.5,-1.1 2.6,-1.1 1.1,0.7 -0.9,1 -1.9,3.1 -2.3,4.7 -0.4,1.6 -1.5,3 -2.6,3.3 -1.1,0.3 -2,1.1 -2,1.9 0,1.5 -1.4,2.6 -2.3,1.8 z"
       id="path80" />
    <path
       d="m 261,229.9 c 0,-1.1 0.5,-1.7 1,-1.4 0.6,0.3 1,1.3 1,2.1 0,0.8 -0.4,1.4 -1,1.4 -0.5,0 -1,-0.9 -1,-2.1 z"
       id="path82" />
    <path
       d="m 334.6,229.6 c 0.3,-0.9 1.1,-1.6 1.6,-1.6 1.3,0 0.5,2.3 -1,2.8 -0.7,0.2 -1,-0.2 -0.6,-1.2 z"
       id="path84" />
    <path
       d="m 855.2,227.1 c -1.3,-1.8 -1.7,-3.2 -1.1,-3.8 0.6,-0.6 0.4,-1.4 -0.6,-2.3 -1.3,-1.1 -2,-1.1 -3.9,0 -2.3,1.2 -4.6,0.8 -4.6,-0.9 0,-0.4 1.5,-1.1 3.3,-1.6 2.2,-0.7 3.2,-1.6 3.2,-3 0,-1.4 -0.6,-1.9 -2,-1.7 -1.8,0.2 -1.8,0.1 -0.3,-0.8 3.2,-2 10.2,4.9 8.3,8.1 -0.4,0.5 -0.2,2.5 0.4,4.4 1.2,4.5 0,5.2 -2.7,1.6 z"
       id="path86" />
    <path
       d="m 871.2,224 c 0,-1.9 0.2,-2.7 0.5,-1.7 0.2,0.9 0.2,2.5 0,3.5 -0.3,0.9 -0.5,0.1 -0.5,-1.8 z"
       id="path88" />
    <path
       d="m 192.6,223.6 c 0.3,-0.9 1.1,-1.6 1.6,-1.6 1.3,0 0.5,2.3 -1,2.8 -0.7,0.2 -1,-0.2 -0.6,-1.2 z"
       id="path90" />
    <path
       d="m 963.8,224.3 c 1.2,-0.2 3.2,-0.2 4.5,0 1.2,0.2 0.2,0.4 -2.3,0.4 -2.5,0 -3.5,-0.2 -2.2,-0.4 z"
       id="path92" />
    <path
       d="m 594.7,219 c 0.6,-2.1 1.8,-2.6 2.8,-1.1 0.3,0.6 -0.3,1.5 -1.4,2 -1.6,0.9 -1.8,0.8 -1.4,-0.9 z"
       id="path94" />
    <path
       d="m 823.3,215.5 c 0,-3.3 0.2,-4.5 0.4,-2.7 0.2,1.8 0.2,4.5 0,6 -0.2,1.5 -0.4,0 -0.4,-3.3 z"
       id="path96" />
    <path
       d="m 217,214.7 c 0,-3.2 0.5,-4.7 1.6,-5.1 1,-0.4 1.4,-1.2 1,-2.2 -0.5,-1.2 -0.2,-1.5 1,-1 0.8,0.3 1.8,0.6 2,0.6 0.2,0 0.4,0.6 0.4,1.4 0,0.8 0.4,1.6 0.9,1.8 1.4,0.5 -0.2,7.3 -1.9,7.7 -0.8,0.2 -2.3,0.6 -3.2,0.8 -1.5,0.5 -1.8,-0.2 -1.8,-4 z"
       id="path98" />
    <path
       d="m 213.3,207.5 c -0.1,-3.6 1.2,-5.4 2.8,-3.8 0.9,0.9 -1,7.3 -2.1,7.3 -0.3,0 -0.6,-1.6 -0.7,-3.5 z"
       id="path100" />
    <path
       d="m 842.5,209.9 c -0.4,-0.6 -0.4,-1.3 -0.1,-1.6 0.8,-0.8 3.6,0.5 3.6,1.7 0,1.3 -2.7,1.3 -3.5,-0.1 z"
       id="path102" />
    <path
       d="m 209,208.6 c 0,-0.9 0.7,-1.6 1.6,-1.6 0.9,0 1.4,0.5 1.2,1.2 -0.6,1.8 -2.8,2.1 -2.8,0.4 z"
       id="path104" />
    <path
       d="m 244,207.3 c 0,-0.6 0.5,-1.5 1.1,-1.8 1.4,-0.9 5.9,0.3 5.9,1.5 0,0.6 -1.1,0.5 -2.6,-0.2 -2.1,-1 -2.7,-0.9 -3.5,0.3 -0.5,0.9 -0.9,1 -0.9,0.2 z"
       id="path106" />
    <path
       d="m 322,205.6 c 0,-0.8 0.7,-1.6 1.5,-2 1.7,-0.6 1.8,-0.4 0.9,1.8 -0.8,2 -2.4,2.1 -2.4,0.2 z"
       id="path108" />
    <path
       d="m 474.8,206.3 c -1,-0.2 -1.8,-0.8 -1.8,-1.3 0,-0.5 0.6,-0.7 1.4,-0.4 2.2,0.9 3,-1.5 1.1,-3.6 -0.9,-1 -1.4,-2.3 -1.1,-2.9 0.3,-0.5 -0.6,-1.9 -2,-3 -1.9,-1.5 -2.2,-2.1 -1,-2.1 0.9,0 1.6,-0.4 1.6,-1 0,-0.5 0.8,-1 1.8,-1 1.3,0 1.4,0.2 0.3,0.9 -1.5,1 -0.7,3.1 1.3,3.1 2.6,0 3.3,2 2.3,7 -0.5,2.8 -1.2,4.9 -1.6,4.9 -0.3,-0.1 -1.4,-0.3 -2.3,-0.6 z"
       id="path110" />
    <path
       d="m 489.5,202 c -0.3,-0.5 0.1,-1 1,-1 0.9,0 1.4,-0.4 1.1,-0.9 -0.3,-0.5 0.1,-1.2 1,-1.5 2.3,-0.9 2.4,-0.8 2.4,1.9 0,2 -0.5,2.5 -2.4,2.5 -1.4,0 -2.8,-0.4 -3.1,-1 z"
       id="path112" />
    <path
       d="m 867.3,200.5 c -0.9,-2.5 0.4,-2.9 1.7,-0.6 0.7,1.5 0.7,2.1 0,2.1 -0.6,0 -1.3,-0.7 -1.7,-1.5 z"
       id="path114" />
    <path
       d="m 823.5,158 c 0,-21.2 0.1,-29.8 0.2,-19.3 0.2,10.6 0.2,28 0,38.5 -0.1,10.6 -0.2,2 -0.2,-19.2 z"
       id="path116" />
    <path
       d="m 489.4,193.5 c 0.8,-0.8 2.4,-1.5 3.5,-1.5 1.4,0 1.9,0.5 1.5,1.5 -0.4,0.9 -1.9,1.5 -3.6,1.5 -2.6,0 -2.8,-0.2 -1.4,-1.5 z"
       id="path118" />
    <path
       d="m 356.4,185 c 0,-5.2 0.1,-7.4 0.3,-4.7 0.2,2.6 0.2,6.8 0,9.5 -0.2,2.6 -0.3,0.4 -0.3,-4.8 z"
       id="path120" />
    <path
       d="m 314.2,189.3 c -0.6,-0.2 -1,-0.9 -0.6,-1.4 0.8,-1.4 2.1,-1.1 2.8,0.6 0.6,1.5 0.1,1.7 -2.2,0.8 z"
       id="path122" />
    <path
       d="m 208.2,185.3 c 0.5,-2.4 2.1,-2.6 3.6,-0.3 1.1,1.8 1,2 -1.4,2 -1.8,0 -2.5,-0.5 -2.2,-1.7 z"
       id="path124" />
    <path
       d="m 246.7,175.3 c -0.7,-3.6 -0.3,-3.9 2.9,-2.4 2.6,1.1 2.6,1.2 0.9,3.1 -2.4,2.7 -3.2,2.5 -3.8,-0.7 z"
       id="path126" />
    <path
       d="m 889.8,175.3 c 2.3,-0.2 5.9,-0.2 8,0 2,0.2 0.1,0.4 -4.3,0.4 -4.4,0 -6.1,-0.2 -3.7,-0.4 z"
       id="path128" />
    <path
       d="m 1081.4,162 c 0,-8 0.2,-11.2 0.3,-7.2 0.2,3.9 0.2,10.5 0,14.5 -0.1,3.9 -0.3,0.7 -0.3,-7.3 z"
       id="path130" />
    <path
       d="m 1103,170 c 0,-2.2 0.7,-2.5 2.9,-1.1 1.6,1 0.6,3.1 -1.5,3.1 -0.8,0 -1.4,-0.9 -1.4,-2 z"
       id="path132" />
    <path
       d="m 267.2,169.8 c -1.2,-1.2 -1.6,-4.1 -0.6,-5 0.3,-0.3 1.4,-0.4 2.5,-0.1 1.5,0.4 1.8,1.1 1.3,2.7 -0.9,3.1 -1.8,3.8 -3.2,2.4 z"
       id="path134" />
    <path
       d="m 349.5,163.9 c -1,-1.5 0.3,-2.5 1.6,-1.2 0.7,0.7 0.7,1.3 0.1,1.7 -0.6,0.3 -1.4,0.1 -1.7,-0.5 z"
       id="path136" />
    <path
       d="m 1117.5,156.1 c -0.3,-0.5 -0.1,-1.2 0.5,-1.6 0.7,-0.4 0.5,-1.3 -0.4,-2.7 -0.8,-1.1 -1.2,-2.6 -1,-3.2 0.3,-0.7 -0.7,-1.8 -2.1,-2.6 -1.4,-0.7 -2.5,-1.7 -2.5,-2.2 0,-0.5 0.4,-0.7 0.9,-0.3 0.5,0.3 1.2,0.1 1.6,-0.5 0.3,-0.5 1.4,-1 2.3,-0.9 1.1,0 1.2,0.3 0.5,0.6 -2,0.7 -1.5,1.9 1.2,3.1 2,1 2.4,1.7 2.1,4.4 -0.2,1.8 -0.4,4.1 -0.5,5.1 -0.1,1.8 -1.6,2.3 -2.6,0.8 z"
       id="path138" />
    <path
       d="m 1132.3,153.4 c -1.5,-0.6 1.5,-4.4 3.4,-4.4 1.4,0 1.6,1 0.7,3.4 -0.6,1.6 -1.8,1.9 -4.1,1 z"
       id="path140" />
    <path
       d="m 258.6,150.2 c -1.1,-1.8 1.6,-6.6 3.9,-7 1.1,-0.2 1.6,0 1,0.5 -0.6,0.4 -1.7,2.3 -2.6,4.2 -1,2.2 -1.8,3 -2.3,2.3 z"
       id="path142" />
    <path
       d="m 389.1,147.7 c -0.6,-0.8 -0.8,-1.7 -0.4,-2 0.3,-0.4 0.1,-1.3 -0.6,-2.1 -0.9,-1.1 -0.7,-1.5 1.4,-1.8 4.5,-0.9 7.6,0.2 7.3,2.6 -0.2,1.4 -0.9,2 -2.1,1.8 -0.9,-0.2 -2,0.4 -2.3,1.3 -0.8,1.9 -1.8,1.9 -3.3,0.2 z"
       id="path144" />
    <path
       d="m 1131,145.1 c 0,-1.6 3,-3.3 4.6,-2.7 1.3,0.5 1.4,0.9 0.4,2.1 -1.3,1.6 -5,2.1 -5,0.6 z"
       id="path146" />
    <path
       d="m 1081.1,138.3 c -0.1,-2.3 0.3,-4.4 0.7,-4.7 0.4,-0.2 0.6,1.2 0.4,3.2 -0.5,5.6 -1,6.2 -1.1,1.5 z"
       id="path148" />
    <path
       d="m 433.4,138.7 c -0.2,-0.7 -0.3,-9.6 -0.2,-19.7 l 0.3,-18.5 0.5,19.8 c 0.3,10.8 0.4,19.7 0.2,19.7 -0.1,0 -0.5,-0.6 -0.8,-1.3 z"
       id="path150" />
    <path
       d="m 390.6,136.4 c -0.8,-2.2 0.1,-3.1 1.6,-1.6 0.9,0.9 0.9,1.5 0.1,2.3 -0.7,0.7 -1.2,0.5 -1.7,-0.7 z"
       id="path152" />
    <path
       d="m 265.5,131.4 c -1.3,-1.4 -1.4,-1.9 -0.4,-2.5 0.8,-0.5 1.7,-0.3 2.1,0.4 0.6,0.9 0.8,0.8 0.8,-0.3 0.1,-1.2 0.3,-1.1 1.1,0.3 1.9,3.3 -0.8,4.9 -3.6,2.1 z"
       id="path154" />
    <path
       d="m 271,129.7 c 0,-0.8 0.7,-2.1 1.6,-2.8 1.4,-1.1 1.5,-1 1.2,1.1 -0.3,2.6 -2.8,4.1 -2.8,1.7 z"
       id="path156" />
    <path
       d="m 334,129.2 c 0,-2.6 1.1,-3.4 2.7,-2.1 1,0.9 1,1.5 0.2,2.5 -1.6,1.9 -2.9,1.7 -2.9,-0.4 z"
       id="path158" />
    <path
       d="m 308.3,125 c 0,-3 0.2,-4.3 0.4,-2.7 0.2,1.5 0.2,3.9 0,5.5 -0.2,1.5 -0.4,0.2 -0.4,-2.8 z"
       id="path160" />
    <path
       d="m 264.1,125.2 c -0.1,-0.7 -0.5,-1 -1.1,-0.7 -0.6,0.3 -0.7,-0.1 -0.4,-1 0.4,-1.1 1,-1.3 1.6,-0.7 0.6,0.6 0.8,1.6 0.5,2.4 -0.4,1 -0.6,1 -0.6,0 z"
       id="path162" />
    <path
       d="m 281,125.2 c 0,-0.5 0.7,-1.3 1.6,-1.6 1,-0.4 1.4,-0.1 1.2,0.6 -0.5,1.5 -2.8,2.3 -2.8,1 z"
       id="path164" />
    <path
       d="m 490,124.5 c 0,-0.8 0.4,-1.5 0.9,-1.5 0.5,0 1.1,0.7 1.5,1.5 0.3,0.9 0,1.5 -0.9,1.5 -0.8,0 -1.5,-0.7 -1.5,-1.5 z"
       id="path166" />
    <path
       d="m 266.5,121.9 c 0.9,-3 3.2,-5.5 4.2,-4.5 0.9,0.9 -1.8,5.8 -3.6,6.4 -1,0.3 -1.1,-0.2 -0.6,-1.9 z"
       id="path168" />
    <path
       d="m 308.4,115.6 c -0.3,-0.8 -0.4,-2.5 -0.2,-3.8 0.3,-1.7 0.5,-1.3 0.9,1.5 0.5,3.8 0.2,4.7 -0.7,2.3 z"
       id="path170" />
    <path
       d="m 342.8,112.9 0.4,-4.2 -2.2,2.1 c -1.3,1.2 -2.7,1.9 -3.2,1.6 -0.5,-0.3 -0.8,-0.2 -0.7,0.3 0.3,1.8 -0.2,3.3 -1.1,3.3 -0.5,0 -1,-0.9 -1,-2 0,-2.2 -2.8,-2.8 -4.7,-0.9 -0.7,0.7 -1.2,0.6 -1.6,-0.5 -0.4,-0.9 -0.1,-1.3 0.6,-1 0.7,0.2 2.1,-0.2 3.1,-0.9 1.8,-1.3 1.8,-1.5 0.2,-3.9 -2,-3.1 -1.2,-5.8 1.9,-5.6 1.6,0.2 2.1,0.7 1.7,2 -0.2,1 0.2,2 1.2,2.4 0.9,0.3 1.6,1.5 1.6,2.6 0,1 0.4,1.7 1,1.3 0.5,-0.3 0.7,-2.2 0.4,-4.1 -0.3,-2.6 -0.1,-3.5 0.8,-3.1 0.7,0.2 1.3,1.1 1.3,2 0,0.9 0.9,2.2 1.9,3 1.5,1.1 1.6,1.7 0.7,3.4 -0.8,1.6 -0.8,2.2 0.3,2.6 2.5,1 4.1,-2 2.7,-4.9 -1.5,-3.3 -1.4,-3.7 0.4,-3 0.8,0.3 1.9,-0.2 2.4,-1.1 0.7,-1.4 1.2,-1.5 2.4,-0.5 1.1,1 1.2,1.9 0.3,4.7 -0.6,1.9 -1.6,3.5 -2.2,3.5 -0.7,0 -1.4,0.9 -1.7,2 -0.3,1.2 -1.4,2 -2.5,2 -1.1,0 -2.6,0.2 -3.4,0.5 -1,0.4 -1.3,-0.4 -1,-3.6 z m -7.4,-7.6 c -0.9,-3.6 -1.2,-3.9 -2.5,-2.6 -0.8,0.8 -0.7,1.7 0.3,3.2 1.8,2.9 3,2.6 2.2,-0.6 z"
       id="path172" />
    <path
       d="m 186.6,115.2 c -0.3,-0.6 0.1,-1.5 0.8,-2.2 0.8,-0.6 1.3,-2 1.1,-3.1 -0.4,-2 1.9,-2.7 3,-0.9 0.3,0.6 0.2,1 -0.4,1 -0.5,0 -1.1,1.2 -1.3,2.7 -0.3,2.7 -2.2,4.1 -3.2,2.5 z"
       id="path174" />
    <path
       d="m 823.1,108.3 c 0,-3.9 0.2,-7.4 0.7,-7.6 0.4,-0.3 0.6,1.8 0.4,4.6 -0.5,9.2 -0.9,10.4 -1.1,3 z"
       id="path176" />
    <path
       d="m 381.6,113.1 c -1.1,-0.4 -1.5,-1 -1,-1.3 0.5,-0.2 2,0.1 3.4,0.8 2.6,1.4 0.8,1.8 -2.4,0.5 z"
       id="path178" />
    <path
       d="m 272,111.8 c 0,-0.4 1,-1.7 2.3,-2.9 1.5,-1.5 1.8,-2.3 1,-2.6 -0.7,-0.3 -1.3,-1 -1.3,-1.6 0,-2.2 2.8,1.8 3.3,4.9 0.6,2.9 0.4,3.1 -2.4,3 -1.6,-0.1 -2.9,-0.4 -2.9,-0.8 z"
       id="path180" />
    <path
       d="m 287,110.5 c 0,-0.8 0.5,-1.5 1,-1.5 0.6,0 1,0.7 1,1.5 0,0.8 -0.4,1.5 -1,1.5 -0.5,0 -1,-0.7 -1,-1.5 z"
       id="path182" />
    <path
       d="m 191.2,106.9 c 0.2,-0.7 1,-1.5 1.7,-1.7 0.8,-0.3 1.2,0.1 0.9,0.9 -0.2,0.7 -1,1.5 -1.7,1.7 -0.8,0.3 -1.2,-0.1 -0.9,-0.9 z"
       id="path184" />
    <path
       d="m 489.8,100.3 c 1.2,-0.2 3.2,-0.2 4.5,0 1.2,0.2 0.2,0.4 -2.3,0.4 -2.5,0 -3.5,-0.2 -2.2,-0.4 z"
       id="path186" />
    <path
       d="m 615.8,100.3 c 1.8,-0.2 4.5,-0.2 6,0 1.5,0.2 0,0.4 -3.3,0.4 -3.3,0 -4.5,-0.2 -2.7,-0.4 z"
       id="path188" />
    <path
       d="m 853.3,100.3 c 3.2,-0.2 8.1,-0.2 11,0 2.9,0.2 0.3,0.3 -5.8,0.3 -6,0 -8.4,-0.1 -5.2,-0.3 z"
       id="path190" />
    <path
       d="m 940.3,100.3 c 3.7,-0.2 9.7,-0.2 13.5,0 3.7,0.2 0.6,0.3 -6.8,0.3 -7.4,0 -10.5,-0.1 -6.7,-0.3 z"
       id="path192" />
    <path
       d="m 1041.8,100.3 c 1.2,-0.2 3.2,-0.2 4.5,0 1.2,0.2 0.2,0.4 -2.3,0.4 -2.5,0 -3.5,-0.2 -2.2,-0.4 z"
       id="path194" />
    <path
       d="m 1065.3,100.3 c 2.6,-0.2 6.7,-0.2 9,0 2.3,0.2 0.2,0.3 -4.8,0.3 -4.9,0 -6.8,-0.1 -4.2,-0.3 z"
       id="path196" />
  </g>
</svg>
