<?xml version="1.0" encoding="UTF-8" standalone="no"?>
<!-- Created with Inkscape (http://www.inkscape.org/) -->

<svg
   version="1.1"
   width="1029.8357"
   height="182.69719"
   id="svg2"
   xml:space="preserve"
   sodipodi:docname="ieg.svg"
   inkscape:version="1.1.2 (0a00cf5339, 2022-02-04, custom)"
   xmlns:inkscape="http://www.inkscape.org/namespaces/inkscape"
   xmlns:sodipodi="http://sodipodi.sourceforge.net/DTD/sodipodi-0.dtd"
   xmlns:xlink="http://www.w3.org/1999/xlink"
   xmlns="http://www.w3.org/2000/svg"
   xmlns:svg="http://www.w3.org/2000/svg"><sodipodi:namedview
     id="namedview118"
     pagecolor="#ffffff"
     bordercolor="#666666"
     borderopacity="1.0"
     inkscape:pageshadow="2"
     inkscape:pageopacity="0.0"
     inkscape:pagecheckerboard="0"
     showgrid="false"
     inkscape:zoom="0.59725173"
     inkscape:cx="568.43703"
     inkscape:cy="-239.43003"
     inkscape:window-width="1920"
     inkscape:window-height="1017"
     inkscape:window-x="-8"
     inkscape:window-y="-8"
     inkscape:window-maximized="1"
     inkscape:current-layer="svg2" /><defs
     id="defs6"><clipPath
       id="clipPath18"><path
         d="M 0,0 H 651.96 V 510.264 H 0 Z"
         id="path20" /></clipPath><clipPath
       id="clipPath26"><path
         d="M 0,0 H 651.96 V 510.264 H 0 Z"
         id="path28" /></clipPath><clipPath
       id="clipPath34"><path
         d="M -19.116,-19.503 H 323.631 V 528.228 H -19.116 Z"
         id="path36" /></clipPath><clipPath
       id="clipPath42"><path
         d="M -19.116,526.5 H 333.441 V -20.7 H -19.116 Z"
         id="path44" /></clipPath><clipPath
       id="clipPath50"><path
         d="M 323.631,510.264 H 0 V 0 h 323.244 v 483.912 h 0.387 v 26.352 M 64.44,336.582 h 180 v -116.64 h -180 z M 86.958,175.5 h 29.547 V 145.953 H 86.958 Z"
         id="path52" /></clipPath><clipPath
       id="clipPath64"><path
         d="m 64.44,219.942 h 180 v 116.64 h -180 z"
         id="path66" /></clipPath><clipPath
       id="clipPath72"><path
         d="m 244.44,336.582 h -180 v -116.64 h 180 z"
         id="path74" /></clipPath><clipPath
       id="clipPath88"><path
         d="M 323.244,-18 H 669.915 V 483.912 H 323.244 Z"
         id="path90" /></clipPath><clipPath
       id="clipPath96"><path
         d="M 274.05,483.912 H 666.09 V -9 H 274.05 Z"
         id="path98" /></clipPath><clipPath
       id="clipPath104"><path
         d="M 651.96,483.912 H 323.631 323.244 V 0 H 651.96 V 483.912 M 344.997,340.803 h 291.6 v -97.2 h -291.6 z"
         id="path106" /></clipPath><clipPath
       id="clipPath118"><path
         d="m 344.997,243.603 h 291.6 v 97.2 h -291.6 z"
         id="path120" /></clipPath><clipPath
       id="clipPath126"><path
         d="m 636.597,340.803 h -291.6 v -97.2 h 291.6 z"
         id="path128" /></clipPath><clipPath
       id="clipPath134"><path
         d="m 344.78,243.384 h 292.032 v 97.632 H 344.78 Z"
         id="path136" /></clipPath><clipPath
       id="clipPath226"><path
         d="m 323.28,448.281 h 345.807 v 79.983 H 323.28 Z"
         id="path228" /></clipPath><clipPath
       id="clipPath234"><path
         d="m 669.069,528.264 0.022,-71.189 H 323.118 l 0.011,71.189 z"
         id="path236" /></clipPath><linearGradient
       x1="0"
       y1="0"
       x2="1"
       y2="0"
       id="linearGradient250"
       gradientUnits="userSpaceOnUse"
       gradientTransform="matrix(343.689,-1.53e-5,-1.53e-5,-343.689,325.4016,492.6693)"
       spreadMethod="pad"><stop
         id="stop252"
         style="stop-color:#bdbcbd;stop-opacity:1"
         offset="0" /><stop
         id="stop254"
         style="stop-color:#f9f9f9;stop-opacity:1"
         offset="0.5" /><stop
         id="stop256"
         style="stop-color:#f9f9f9;stop-opacity:1"
         offset="0.5" /><stop
         id="stop258"
         style="stop-color:#f5f4f5;stop-opacity:1"
         offset="0.75" /><stop
         id="stop260"
         style="stop-color:#f5f4f5;stop-opacity:1"
         offset="1" /></linearGradient><clipPath
       id="clipPath268"><path
         d="m 323.094,457.303 v -9.023 h 345.975 l 0.022,9.069 z"
         id="path270" /></clipPath><linearGradient
       x1="0"
       y1="0"
       x2="1"
       y2="0"
       id="linearGradient284"
       gradientUnits="userSpaceOnUse"
       gradientTransform="matrix(345.99701,0,0,-345.99701,323.09398,452.8143)"
       spreadMethod="pad"><stop
         id="stop286"
         style="stop-color:#85ce26;stop-opacity:1"
         offset="0" /><stop
         id="stop288"
         style="stop-color:#1a3f0e;stop-opacity:1"
         offset="0.5" /><stop
         id="stop290"
         style="stop-color:#1a3f0e;stop-opacity:1"
         offset="0.5" /><stop
         id="stop292"
         style="stop-color:#cae99f;stop-opacity:1"
         offset="1" /></linearGradient><clipPath
       id="clipPath314"><path
         d="m 324.616,502.098 v -40.297 h 53.73 v 40.297"
         id="path316" /></clipPath><clipPath
       id="clipPath322"><path
         d="m 361.933,495.157 c 0,0 0.576,0.129 0.873,-0.129 0.684,-0.594 3.37,-3.173 4.659,-6.99 1.291,-3.817 1.152,-7.064 0.357,-10.131 -0.772,-2.985 -2.499,-5.364 -3.103,-6.108 -0.44,-0.541 -0.596,-0.742 -0.824,-0.832 -0.029,-0.207 -0.207,-0.369 -0.397,-0.547 -0.187,-0.177 -1.923,-2.041 -4.648,-3.329 -2.726,-1.288 -5.095,-1.725 -7.465,-1.725 -2.371,0 -5.116,0.536 -7.416,1.705 -2.3,1.171 -3.531,2.191 -4.682,3.331 -0.193,0.192 -0.324,0.307 -0.365,0.524 -0.119,0.051 -0.228,0.1 -0.487,0.406 -0.256,0.309 -1.892,2.153 -2.971,5.039 -1.083,2.883 -1.448,5.899 -0.736,9.586 0.715,3.688 3.116,7.28 5.205,9.041 0.317,0.268 0.903,0.129 0.903,0.129 0,0 0.148,0.774 0.841,1.26 0.696,0.486 2.192,1.419 4.147,2.102 1.951,0.683 4.053,0.932 5.571,0.932 1.517,0 3.449,-0.268 4.748,-0.674 1.298,-0.407 3.1,-1.047 4.956,-2.36 0.675,-0.475 0.834,-1.23 0.834,-1.23"
         id="path324" /></clipPath><clipPath
       id="clipPath330"><path
         d="m 0.051,0.332 h 1 v 1 h -1 z"
         id="path332" /></clipPath><clipPath
       id="clipPath354"><path
         d="M 668.975,527.983 V 457.134 H 321.838 l 0.012,70.849 z"
         id="path356" /></clipPath><clipPath
       id="clipPath376"><path
         d="m 323.094,457.304 v -8.907 l 345.975,-0.117 0.013,9.069 z"
         id="path378" /></clipPath><clipPath
       id="clipPath404"><path
         d="m 579.861,491.786 v -31.32 h 62.64 v 31.32"
         id="path406" /></clipPath><clipPath
       id="clipPath412"><path
         d="m 587.838,472.712 v 9.485 h -2.301 v -9.485 c 0,-1.448 1.181,-2.624 2.629,-2.624 h 9.986 v 2.291 h -10 c -0.176,0 -0.314,0.139 -0.314,0.333 m 14.777,9.471 -2.279,-2.284 v -9.811 h 2.279 z m 10.689,-9.644 c -0.062,-0.099 -0.172,-0.16 -0.289,-0.16 -0.119,0 -0.222,0.063 -0.283,0.16 l -5.574,9.658 h -2.639 l 6.235,-10.806 c 0.443,-0.775 1.296,-1.303 2.261,-1.303 0.965,0 1.807,0.528 2.268,1.303 l 6.224,10.806 h -2.634 z m 11.662,-0.16 h 11.25 v -2.291 h -11.232 c -1.449,0 -2.635,1.176 -2.635,2.624 v 6.862 c 0,1.458 1.186,2.623 2.635,2.623 h 11.777 l -2.343,-2.298 h -9.452 c -0.166,0 -0.316,-0.143 -0.316,-0.325 v 0.003 -0.003 -2.291 h 8.176 l -1.674,-2.28 -6.502,-10e-4 v -2.29 c 0,-0.195 0.15,-0.333 0.316,-0.333"
         id="path414" /></clipPath><clipPath
       id="clipPath420"><path
         d="m 4.109,0.385 h 1 v 1 h -1 z"
         id="path422" /></clipPath><clipPath
       id="clipPath434"><path
         d="m 243.513,73.8 h 45.558 v 54 h -45.558 z"
         id="path436" /></clipPath><clipPath
       id="clipPath692"><path
         d="m 235.566,12.816 h 72.081 v 31.95 h -72.081 z"
         id="path694" /></clipPath><clipPath
       id="clipPath712"><path
         d="M 235.564,42.871 V 22.117 h 62.213 v 20.754"
         id="path714" /></clipPath><clipPath
       id="clipPath728"><path
         d="M 235.564,42.871 V 22.117 h 62.213 v 20.754"
         id="path730" /></clipPath><clipPath
       id="clipPath746"><path
         d="m 22.644,26.154 h 80.064 v 6.948 H 22.644 Z"
         id="path748" /></clipPath><clipPath
       id="clipPath754"><path
         d="m 22.646,33.105 h 80 v -9 h -80 z"
         id="path756" /></clipPath><clipPath
       id="clipPath766"><path
         d="m 127.998,23.895 h 86.796 v 19.107 h -86.796 z"
         id="path768" /></clipPath><clipPath
       id="clipPath774"><path
         d="m -225.016,646.487 h 792 v -1224 h -792 z"
         id="path776" /></clipPath><clipPath
       id="clipPath782"><path
         d="m 127.984,23.886 h 87 v 19.201 h -87 z"
         id="path784" /></clipPath><clipPath
       id="clipPath790"><path
         d="m 127.996,23.898 h 86.802 V 43 h -86.802 z"
         id="path792" /></clipPath><clipPath
       id="clipPath806"><path
         d="m 127.996,23.898 h 86.802 V 43 h -86.802 z"
         id="path808" /></clipPath><clipPath
       id="clipPath884"><path
         d="m 86.958,145.953 h 29.547 V 175.5 H 86.958 Z"
         id="path886" /></clipPath><clipPath
       id="clipPath892"><path
         d="M 116.505,175.5 H 86.958 v -29.547 h 29.547 z"
         id="path894" /></clipPath><clipPath
       id="clipPath900"><path
         d="m 86.928,145.919 h 29.614 v 29.614 H 86.928 Z"
         id="path902" /></clipPath><linearGradient
       x1="0"
       y1="0"
       x2="1"
       y2="0"
       id="linearGradient4565"
       xlink:href="#linearGradient250"
       gradientUnits="userSpaceOnUse"
       gradientTransform="matrix(343.689,-1.53e-5,-1.53e-5,-343.689,325.4016,492.6693)"
       spreadMethod="pad" /><linearGradient
       x1="0"
       y1="0"
       x2="1"
       y2="0"
       id="linearGradient4567"
       xlink:href="#linearGradient284"
       gradientUnits="userSpaceOnUse"
       gradientTransform="matrix(345.99701,0,0,-345.99701,323.09398,452.8143)"
       spreadMethod="pad" /></defs><g
     transform="matrix(0.88933053,0,0,-0.88933053,512.88923,227.02466)"
     id="g12"
     style="fill:#ececec"><g
       transform="matrix(5.8326457,0,0,5.8326457,1648.8774,-89.544935)"
       id="g84"
       style="fill:#ececec" /><g
       transform="matrix(5.8326457,0,0,5.8326457,-671.54131,-89.544935)"
       id="g762"
       style="fill:#ececec"><g
         clip-path="url(#clipPath766)"
         id="g764"
         style="fill:#ececec"><g
           id="g770"
           style="fill:#ececec"><g
             clip-path="url(#clipPath774)"
             id="g772"
             style="fill:#ececec"><g
               id="g778"
               style="fill:#ececec"><g
                 clip-path="url(#clipPath782)"
                 id="g780"
                 style="fill:#ececec"><g
                   id="g786"
                   style="fill:#ececec"><g
                     clip-path="url(#clipPath790)"
                     id="g788"
                     style="fill:#ececec"><path
                       d="m 187.981,23.95 c -1.758,0.037 -3.086,1.189 -3.108,2.615 -0.023,1.469 1.357,2.647 3.219,2.678 0.387,0.012 0.854,-0.05 1.329,-0.224 v -1.642 c -0.26,0.168 -0.764,0.229 -1.091,0.229 -0.653,0.006 -1.201,-0.353 -1.224,-0.961 -0.022,-0.563 0.512,-1.053 1.232,-1.028 0.445,0.012 0.964,0.18 1.083,0.285 v -1.717 c -0.03,-0.012 -0.735,-0.248 -1.44,-0.235"
                       id="path794"
                       style="fill:#ececec;fill-opacity:1;fill-rule:nonzero;stroke:none" /><path
                       d="m 194.014,25.554 c -0.638,-0.011 -1.024,0.447 -1.046,0.949 -0.022,0.514 0.393,0.998 1.024,1.016 0.615,0.019 0.994,-0.458 1.009,-0.954 0.022,-0.502 -0.349,-0.998 -0.987,-1.011 m -0.037,3.602 c -1.714,-0.006 -3.116,-1.172 -3.139,-2.604 -0.022,-1.444 1.38,-2.646 3.102,-2.665 1.751,-0.031 3.22,1.067 3.22,2.647 0,1.444 -1.454,2.628 -3.183,2.622"
                       id="path796"
                       style="fill:#ececec;fill-opacity:1;fill-rule:nonzero;stroke:none" /></g></g><path
                   d="m 201.391,26.819 h -0.489 v 0.843 h 0.46 c 0.282,0 0.549,-0.087 0.571,-0.391 0.015,-0.291 -0.245,-0.452 -0.542,-0.452 m 1.454,-0.713 c 0,0.007 1.291,0.174 1.262,1.382 -0.03,1.166 -1.105,1.494 -2.203,1.494 l -3.769,0.004 0.734,-0.705 v -4.214 h 2.048 v 1.649 l 1.06,-1.649 h 2.345 l -1.477,2.039"
                   id="path798"
                   style="fill:#ececec;fill-opacity:1;fill-rule:nonzero;stroke:none" /><path
                   d="m 208.775,26.825 h -0.481 v 0.881 h 0.466 c 0.289,0 0.542,-0.081 0.565,-0.422 0.029,-0.31 -0.253,-0.459 -0.55,-0.459 m 0.676,2.157 -3.968,0.004 0.732,-0.704 v -4.215 h 2.079 v 1.482 h 1.023 c 1.157,-0.006 2.159,0.44 2.129,1.753 -0.029,1.16 -0.898,1.68 -1.995,1.68"
                   id="path800"
                   style="fill:#ececec;fill-opacity:1;fill-rule:nonzero;stroke:none" /><g
                   id="g802"
                   style="fill:#ececec"><g
                     clip-path="url(#clipPath806)"
                     id="g804"
                     style="fill:#ececec"><path
                       d="m 183.932,36.624 -1.835,-5.426 h -4.219 l 3.901,9.292 h 4.466 l 3.699,-9.292 h -4.292 z"
                       id="path810"
                       style="fill:#ececec;fill-opacity:1;fill-rule:nonzero;stroke:none" /><path
                       d="m 135.598,33.989 h -1.216 v 1.875 h 1.13 c 0.634,0 1.233,-0.252 1.267,-0.893 0.017,-0.566 -0.548,-0.982 -1.181,-0.982 m -1.233,6.207 h 0.873 c 0.565,0 0.993,-0.327 1.01,-0.789 0.017,-0.446 -0.428,-0.803 -0.941,-0.803 h -0.942 z m 4.469,-2.783 c 1.181,0.416 2.208,1.399 2.156,2.635 -0.085,1.905 -1.951,2.947 -3.971,2.947 L 127.984,43 129.709,41.276 V 31.19 h 6.539 c 2.586,0 5.393,0.581 5.393,3.38 -0.017,1.592 -1.027,2.426 -2.807,2.843"
                       id="path812"
                       style="fill:#ececec;fill-opacity:1;fill-rule:nonzero;stroke:none" /></g></g><path
                   d="m 175.259,42.205 -1.522,-5.64 -1.553,5.64 h -4.021 l -1.617,-5.723 -1.41,5.723 -5.562,0.003 1.608,-1.607 2.929,-9.44 h 4.389 l 1.666,5.404 1.633,-5.404 h 4.517 l 3.54,11.044 z"
                   id="path814"
                   style="fill:#ececec;fill-opacity:1;fill-rule:nonzero;stroke:none" /><path
                   d="m 195.972,36.401 h -0.954 v 1.594 h 0.896 c 0.549,0 1.07,-0.164 1.113,-0.738 0.028,-0.551 -0.477,-0.856 -1.055,-0.856 m 2.832,-1.348 c 0,0.012 2.515,0.329 2.457,2.614 -0.057,2.203 -2.153,2.823 -4.292,2.823 l -7.363,0.004 1.452,-1.354 v -7.942 h 3.989 v 3.117 l 2.067,-3.117 h 4.566 l -2.876,3.855"
                   id="path816"
                   style="fill:#ececec;fill-opacity:1;fill-rule:nonzero;stroke:none" /><path
                   d="m 207.393,33.612 v 1.043 h 3.194 v 2.414 h -3.194 v 1.008 h 3.57 v 2.413 l -9.148,0.007 1.459,-1.361 v -7.938 h 7.804 v 2.414 z"
                   id="path818"
                   style="fill:#ececec;fill-opacity:1;fill-rule:nonzero;stroke:none" /><path
                   d="m 143.049,40.488 h 4.162 v -2.063 h -4.162 z"
                   id="path820"
                   style="fill:#ececec;fill-opacity:1;fill-rule:nonzero;stroke:none" /><path
                   d="m 141.612,37.589 1.437,-1.341 v -5.052 h 4.163 v 6.385 z"
                   id="path822"
                   style="fill:#ececec;fill-opacity:1;fill-rule:nonzero;stroke:none" /><path
                   d="m 154.676,34.008 c -1.243,-0.022 -1.994,0.844 -2.038,1.793 -0.043,0.973 0.766,1.887 1.994,1.922 1.2,0.035 1.937,-0.867 1.966,-1.804 0.043,-0.95 -0.679,-1.887 -1.922,-1.911 m -0.072,6.809 c -3.339,-0.012 -6.07,-2.215 -6.113,-4.922 -0.044,-2.73 2.688,-5.004 6.04,-5.039 3.411,-0.058 6.272,2.016 6.272,5.004 0,2.73 -2.832,4.968 -6.199,4.957"
                   id="path824"
                   style="fill:#ececec;fill-opacity:1;fill-rule:nonzero;stroke:none" /><path
                   d="m 213.01,41.262 h 0.173 c 0.116,0 0.197,0.018 0.244,0.056 0.047,0.036 0.072,0.084 0.072,0.141 0,0.058 -0.024,0.105 -0.069,0.142 -0.045,0.037 -0.122,0.055 -0.23,0.055 h -0.19 z m -0.399,0.675 h 0.72 c 0.204,0 0.351,-0.041 0.443,-0.122 0.091,-0.082 0.137,-0.192 0.137,-0.33 0,-0.107 -0.035,-0.201 -0.106,-0.279 -0.07,-0.079 -0.181,-0.136 -0.333,-0.171 0.063,-0.024 0.108,-0.048 0.137,-0.075 0.041,-0.037 0.083,-0.091 0.128,-0.164 0.003,-0.005 0.09,-0.16 0.262,-0.465 h -0.476 c -0.152,0.306 -0.255,0.488 -0.307,0.548 -0.052,0.06 -0.104,0.089 -0.156,0.089 -0.013,0 -0.028,-0.002 -0.05,-0.005 v -0.632 h -0.399 z m 1.894,-0.803 c 0,0.336 -0.12,0.622 -0.357,0.86 -0.237,0.237 -0.523,0.356 -0.859,0.356 -0.335,0 -0.622,-0.119 -0.86,-0.356 -0.237,-0.238 -0.356,-0.524 -0.356,-0.86 0,-0.335 0.119,-0.622 0.356,-0.859 0.238,-0.238 0.525,-0.356 0.86,-0.356 0.336,0 0.622,0.118 0.859,0.356 0.237,0.237 0.357,0.524 0.357,0.859 m 0.293,0 c 0,-0.269 -0.067,-0.52 -0.202,-0.752 -0.134,-0.233 -0.319,-0.416 -0.551,-0.55 -0.233,-0.134 -0.485,-0.201 -0.754,-0.201 -0.268,0 -0.519,0.067 -0.751,0.201 -0.234,0.134 -0.417,0.317 -0.552,0.55 -0.135,0.232 -0.202,0.483 -0.202,0.752 0,0.268 0.067,0.519 0.202,0.752 0.135,0.233 0.318,0.416 0.552,0.551 0.232,0.133 0.483,0.2 0.751,0.2 0.269,0 0.521,-0.067 0.754,-0.2 0.232,-0.135 0.417,-0.318 0.551,-0.551 0.135,-0.233 0.202,-0.484 0.202,-0.752"
                   id="path826"
                   style="fill:#ececec;fill-opacity:1;fill-rule:nonzero;stroke:none" /></g></g></g></g></g></g></g><g
     aria-label="INFINITY ENGINE"
     id="text3352"
     style="font-size:40px;line-height:1.25;fill:#ececec"><path
       d="m 12.576,-3.0517578e-6 q 2.112,0 2.112,2.1119999517578 V 65.087997 q 0,2.112 -2.112,2.112 H 2.208 Q 3.4332276e-8,67.199997 3.4332276e-8,65.087997 V 2.1119969 Q 3.4332276e-8,-3.0517578e-6 2.208,-3.0517578e-6 Z"
       style="font-size:96px;font-family:Conthrax;-inkscape-font-specification:'Conthrax, Normal'"
       id="path7442" /><path
       d="m 44.543933,-3.0517578e-6 q 2.304,0 3.84,0.1920000017578 1.536,0.192 2.688,0.86399995 1.152,0.576 2.208,1.728 1.056,1.056 2.4,2.88 l 35.712,46.8480001 q 0.384,0.672 1.248,0.672 h 0.864 q 0.768,0 0.768,-0.96 V 2.1119969 q 0,-2.1119999517578 2.112,-2.1119999517578 h 10.079997 q 2.112,0 2.112,2.1119999517578 V 57.215997 q 0,5.856 -2.112,7.968 -2.112,2.016 -6.527997,2.016 h -8.256 q -2.208,0 -3.744,-0.192 -1.44,-0.192 -2.592,-0.768 -1.152,-0.576 -2.304,-1.632 -1.056,-1.152 -2.496,-3.072 l -35.808,-46.848 q -0.576,-0.672 -1.248,-0.672 h -0.864 q -0.768,0 -0.768,0.96 v 50.112 q 0,2.112 -2.112,2.112 h -10.08 q -2.208,0 -2.208,-2.112 V 9.9839969 q 0,-5.856 2.112,-7.872 2.112,-2.1119999517578 6.528,-2.1119999517578 z"
       style="font-size:96px;font-family:Conthrax;-inkscape-font-specification:'Conthrax, Normal'"
       id="path7444" /><path
       d="m 189.69599,-3.0517578e-6 q 2.208,0 2.208,2.1119999517578 v 9.1200001 q 0,2.112 -2.208,2.112 h -41.664 q -3.744,0 -6.24,0.672 -2.4,0.576 -3.84,2.112 -1.44,1.44 -2.112,4.032 -0.576,2.496 -0.576,6.24 v 1.92 h 53.952 q 2.112,0 2.112,2.112 v 7.584 q 0,2.112 -2.112,2.112 h -53.952 v 24.96 q 0,2.112 -2.112,2.112 h -10.368 q -2.208,0 -2.208,-2.112 v -39.744 q 0,-6.912 1.44,-11.712 1.536,-4.8000001 4.704,-7.7760001 3.264,-3.072 8.352,-4.416 5.088,-1.4399999517578 12.384,-1.4399999517578 z"
       style="font-size:96px;font-family:Conthrax;-inkscape-font-specification:'Conthrax, Normal'"
       id="path7446" /><path
       d="m 213.98396,-3.0517578e-6 q 2.112,0 2.112,2.1119999517578 V 65.087997 q 0,2.112 -2.112,2.112 h -10.368 q -2.208,0 -2.208,-2.112 V 2.1119969 q 0,-2.1119999517578 2.208,-2.1119999517578 z"
       style="font-size:96px;font-family:Conthrax;-inkscape-font-specification:'Conthrax, Normal'"
       id="path7448" /><path
       d="m 245.95189,-3.0517578e-6 q 2.304,0 3.84,0.1920000017578 1.536,0.192 2.688,0.86399995 1.152,0.576 2.208,1.728 1.056,1.056 2.4,2.88 l 35.712,46.8480001 q 0.384,0.672 1.248,0.672 h 0.864 q 0.768,0 0.768,-0.96 V 2.1119969 q 0,-2.1119999517578 2.112,-2.1119999517578 h 10.08 q 2.112,0 2.112,2.1119999517578 V 57.215997 q 0,5.856 -2.112,7.968 -2.112,2.016 -6.528,2.016 h -8.256 q -2.208,0 -3.744,-0.192 -1.44,-0.192 -2.592,-0.768 -1.152,-0.576 -2.304,-1.632 -1.056,-1.152 -2.496,-3.072 l -35.808,-46.848 q -0.576,-0.672 -1.248,-0.672 h -0.864 q -0.768,0 -0.768,0.96 v 50.112 q 0,2.112 -2.112,2.112 h -10.08 q -2.208,0 -2.208,-2.112 V 9.9839969 q 0,-5.856 2.112,-7.872 2.112,-2.1119999517578 6.528,-2.1119999517578 z"
       style="font-size:96px;font-family:Conthrax;-inkscape-font-specification:'Conthrax, Normal'"
       id="path7450" /><path
       d="m 335.32795,-3.0517578e-6 q 2.112,0 2.112,2.1119999517578 V 65.087997 q 0,2.112 -2.112,2.112 h -10.368 q -2.208,0 -2.208,-2.112 V 2.1119969 q 0,-2.1119999517578 2.208,-2.1119999517578 z"
       style="font-size:96px;font-family:Conthrax;-inkscape-font-specification:'Conthrax, Normal'"
       id="path7452" /><path
       d="m 423.26389,-3.0517578e-6 q 2.208,0 2.208,2.1119999517578 v 9.4080001 q 0,2.208 -2.208,2.208 h -30.144 v 51.36 q 0,2.112 -2.112,2.112 h -10.464 q -2.112,0 -2.112,-2.112 v -51.36 h -30.144 q -2.208,0 -2.208,-2.208 V 2.1119969 q 0,-2.1119999517578 2.208,-2.1119999517578 z"
       style="font-size:96px;font-family:Conthrax;-inkscape-font-specification:'Conthrax, Normal'"
       id="path7454" /><path
       d="m 442.84781,-3.0517578e-6 q 1.536,0 2.304,1.1519999517578 l 25.632,34.6560001 25.824,-34.6560001 q 0.768,-1.1519999517578 2.304,-1.1519999517578 h 12.576 q 0.768,0 1.056,0.6720000017578 0.288,0.57599995 -0.192,1.24799995 l -34.464,44.7360001 v 18.432 q 0,2.112 -2.112,2.112 h -10.368 q -2.208,0 -2.208,-2.112 v -18.432 l -34.08,-44.7360001 q -0.48,-0.672 -0.288,-1.24799995 0.288,-0.6720000017578 1.152,-0.6720000017578 z"
       style="font-size:96px;font-family:Conthrax;-inkscape-font-specification:'Conthrax, Normal'"
       id="path7456" /><path
       d="m 620.54371,-3.0517578e-6 q 2.208,0 2.208,2.1119999517578 v 9.1200001 q 0,2.112 -2.208,2.112 h -41.952 q -3.744,0 -6.24,0.672 -2.4,0.576 -3.936,2.112 -1.44,1.44 -2.016,4.032 -0.576,2.496 -0.576,6.24 v 0.96 h 54.24 q 2.112,0 2.112,2.112 v 7.584 q 0,2.112 -2.112,2.112 h -54.24 v 1.632 q 0,3.744 0.576,6.336 0.576,2.496 2.016,4.032 1.536,1.44 3.936,2.112 2.496,0.576 6.24,0.576 h 41.952 q 2.208,0 2.208,2.112 v 9.12 q 0,2.112 -2.208,2.112 h -42.24 q -7.296,0 -12.384,-1.344 -5.088,-1.344 -8.352,-4.32 -3.168,-3.072 -4.704,-7.872 -1.44,-4.896 -1.44,-11.808 v -16.512 q 0,-6.912 1.44,-11.712 1.536,-4.8000001 4.704,-7.7760001 3.264,-3.072 8.352,-4.416 5.088,-1.4399999517578 12.384,-1.4399999517578 z"
       style="font-size:96px;font-family:Conthrax;-inkscape-font-specification:'Conthrax, Normal'"
       id="path7458" /><path
       d="m 650.87975,-3.0517578e-6 q 2.304,0 3.84,0.1920000017578 1.536,0.192 2.688,0.86399995 1.152,0.576 2.208,1.728 1.056,1.056 2.4,2.88 l 35.712,46.8480001 q 0.384,0.672 1.248,0.672 h 0.864 q 0.768,0 0.768,-0.96 V 2.1119969 q 0,-2.1119999517578 2.112,-2.1119999517578 h 10.08 q 2.112,0 2.112,2.1119999517578 V 57.215997 q 0,5.856 -2.112,7.968 -2.112,2.016 -6.528,2.016 h -8.256 q -2.208,0 -3.744,-0.192 -1.44,-0.192 -2.592,-0.768 -1.152,-0.576 -2.304,-1.632 -1.056,-1.152 -2.496,-3.072 l -35.808,-46.848 q -0.576,-0.672 -1.248,-0.672 h -0.864 q -0.768,0 -0.768,0.96 v 50.112 q 0,2.112 -2.112,2.112 h -10.08 q -2.208,0 -2.208,-2.112 V 9.9839969 q 0,-5.856 2.112,-7.872 2.112,-2.1119999517578 6.528,-2.1119999517578 z"
       style="font-size:96px;font-family:Conthrax;-inkscape-font-specification:'Conthrax, Normal'"
       id="path7460" /><path
       d="m 802.46381,-3.0517578e-6 q 2.112,0 2.112,2.1119999517578 v 9.4080001 q 0,2.208 -2.112,2.208 h -48.096 q -3.744,0 -6.24,0.672 -2.4,0.576 -3.84,2.112 -1.44,1.44 -2.112,3.936 -0.576,2.496 -0.576,6.336 v 13.824 q 0,3.84 0.576,6.432 0.672,2.496 2.112,4.032 1.44,1.44 3.84,2.112 2.496,0.576 6.24,0.576 h 31.68 q 2.496,0 3.648,-1.248 1.152,-1.344 1.152,-4.608 v -7.776 q 0,-1.248 -1.152,-1.248 h -28.128 q -2.112,0 -2.112,-2.208 v -7.2 q 0,-2.208 2.112,-2.208 h 40.032 q 2.88,0 2.88,2.88 v 22.368 q 0,8.064 -3.072,11.424 -3.072,3.264 -8.832,3.264 h -38.784 q -7.296,0 -12.384,-1.344 -5.088,-1.344 -8.352,-4.32 -3.168,-3.072 -4.704,-7.872 -1.44,-4.896 -1.44,-11.808 v -16.512 q 0,-6.912 1.44,-11.712 1.536,-4.8000001 4.704,-7.7760001 3.264,-3.072 8.352,-4.416 5.088,-1.4399999517578 12.384,-1.4399999517578 z"
       style="font-size:96px;font-family:Conthrax;-inkscape-font-specification:'Conthrax, Normal'"
       id="path7462" /><path
       d="m 829.15187,-3.0517578e-6 q 2.112,0 2.112,2.1119999517578 V 65.087997 q 0,2.112 -2.112,2.112 h -10.368 q -2.208,0 -2.208,-2.112 V 2.1119969 q 0,-2.1119999517578 2.208,-2.1119999517578 z"
       style="font-size:96px;font-family:Conthrax;-inkscape-font-specification:'Conthrax, Normal'"
       id="path7464" /><path
       d="m 861.1198,-3.0517578e-6 q 2.304,0 3.84,0.1920000017578 1.536,0.192 2.688,0.86399995 1.152,0.576 2.208,1.728 1.056,1.056 2.4,2.88 l 35.712,46.8480001 q 0.384,0.672 1.248,0.672 h 0.864 q 0.768,0 0.768,-0.96 V 2.1119969 q 0,-2.1119999517578 2.112,-2.1119999517578 h 10.08 q 2.112,0 2.112,2.1119999517578 V 57.215997 q 0,5.856 -2.112,7.968 -2.112,2.016 -6.528,2.016 h -8.256 q -2.208,0 -3.744,-0.192 -1.44,-0.192 -2.592,-0.768 -1.152,-0.576 -2.304,-1.632 -1.056,-1.152 -2.496,-3.072 l -35.808,-46.848 q -0.576,-0.672 -1.248,-0.672 h -0.864 q -0.768,0 -0.768,0.96 v 50.112 q 0,2.112 -2.112,2.112 h -10.08 q -2.208,0 -2.208,-2.112 V 9.9839969 q 0,-5.856 2.112,-7.872 2.112,-2.1119999517578 6.528,-2.1119999517578 z"
       style="font-size:96px;font-family:Conthrax;-inkscape-font-specification:'Conthrax, Normal'"
       id="path7466" /><path
       d="m 1006.2719,-3.0517578e-6 q 2.208,0 2.208,2.1119999517578 v 9.1200001 q 0,2.112 -2.208,2.112 h -41.95204 q -3.744,0 -6.24,0.672 -2.4,0.576 -3.936,2.112 -1.44,1.44 -2.016,4.032 -0.576,2.496 -0.576,6.24 v 0.96 h 54.24004 q 2.112,0 2.112,2.112 v 7.584 q 0,2.112 -2.112,2.112 h -54.24004 v 1.632 q 0,3.744 0.576,6.336 0.576,2.496 2.016,4.032 1.536,1.44 3.936,2.112 2.496,0.576 6.24,0.576 h 41.95204 q 2.208,0 2.208,2.112 v 9.12 q 0,2.112 -2.208,2.112 h -42.24004 q -7.296,0 -12.384,-1.344 -5.088,-1.344 -8.352,-4.32 -3.168,-3.072 -4.704,-7.872 -1.44,-4.896 -1.44,-11.808 v -16.512 q 0,-6.912 1.44,-11.712 1.536,-4.8000001 4.704,-7.7760001 3.264,-3.072 8.352,-4.416 5.088,-1.4399999517578 12.384,-1.4399999517578 z"
       style="font-size:96px;font-family:Conthrax;-inkscape-font-specification:'Conthrax, Normal'"
       id="path7468" /></g></svg>
