<?xml version="1.0" encoding="UTF-8" standalone="no"?>
<svg
   version="1.0"
   width="2328"
   height="1393.3712"
   viewBox="0 0 2328 1393.3712"
   preserveAspectRatio="xMidYMid"
   id="svg80"
   sodipodi:docname="infogrames-logo-png-transparent.svg"
   inkscape:version="1.2 (dc2aedaf03, 2022-05-15)"
   xmlns:inkscape="http://www.inkscape.org/namespaces/inkscape"
   xmlns:sodipodi="http://sodipodi.sourceforge.net/DTD/sodipodi-0.dtd"
   xmlns="http://www.w3.org/2000/svg"
   xmlns:svg="http://www.w3.org/2000/svg">
  <defs
     id="defs84" />
  <sodipodi:namedview
     id="namedview82"
     pagecolor="#ffffff"
     bordercolor="#000000"
     borderopacity="0.25"
     inkscape:showpageshadow="2"
     inkscape:pageopacity="0.0"
     inkscape:pagecheckerboard="0"
     inkscape:deskcolor="#d1d1d1"
     showgrid="false"
     inkscape:zoom="0.34875"
     inkscape:cx="1161.2903"
     inkscape:cy="696.77419"
     inkscape:window-width="1920"
     inkscape:window-height="1017"
     inkscape:window-x="-8"
     inkscape:window-y="-8"
     inkscape:window-maximized="1"
     inkscape:current-layer="svg80" />
  <g
     fill="#fdfdfd"
     id="g58"
     transform="translate(-36,-503.59568)">
    <path
       d="m 754.5,1895.4 c -9.2,-1.6 -23.4,-6.3 -31.5,-10.4 -24.1,-12.3 -44.3,-36.2 -53.2,-63 -4.3,-12.6 -5.2,-18.8 -5.3,-33.5 0,-16.5 2,-25.4 9,-40.2 16.2,-34.4 47.1,-57.4 85.5,-63.8 14.6,-2.5 36.8,-1.7 50.2,1.8 10.6,2.8 23.8,8.6 31.5,13.8 6.9,4.7 18.8,16.4 23.8,23.4 20.4,28.7 26,69.4 14,103.6 -8.5,24.5 -27.4,45.8 -51.3,57.8 -20.7,10.5 -49.4,14.6 -72.7,10.5 z m 43.8,-22 c 14.5,-3.2 28.9,-12.8 38,-25.2 5.1,-6.9 10.2,-17.6 13.3,-27.8 2.4,-7.9 2.7,-10.6 2.8,-23.4 0,-15.9 -1.5,-23.7 -7.2,-37.5 -10.9,-26.3 -32.4,-46.2 -56.9,-52.6 -10.1,-2.7 -26.2,-2.9 -35.3,-0.6 -11.9,3.1 -22.4,9.1 -30.8,17.6 -10.7,10.8 -16.5,21 -20.9,37.2 -2.8,10.1 -2.5,36.6 0.5,47.8 9,33.2 33.7,57.4 65.7,64.6 8.3,1.9 22.2,1.8 30.8,-0.1 z"
       id="path2" />
    <path
       d="m 1052.5,1896.3 c -21.5,-1.9 -45.3,-10.5 -60,-21.6 -36.9,-27.7 -48,-82.7 -26.4,-130.5 7.5,-16.7 23.4,-35.4 38.2,-45 20.6,-13.4 50.6,-19.1 86.4,-16.4 13.2,1 30.3,3.6 37.6,5.8 1.5,0.5 1.7,2.2 1.7,17.5 v 16.9 l -6.2,-3.1 c -22.7,-11.5 -49.4,-17.3 -68.6,-14.9 -17.7,2.2 -31.6,8.7 -43.8,20.2 -10.7,10.2 -17.6,22 -21.9,37.3 -2.6,9.4 -3.2,34 -1,44.6 5.5,27.4 23.4,49.2 48.4,58.8 11,4.2 22.3,6.1 37,6.1 13.3,0 21.8,-1.4 31.5,-5 l 5.9,-2.2 -0.6,-22.7 c -0.6,-28.4 -3,-38.7 -11.4,-49.8 l -2.4,-3.3 h 25.2 25.1 l -0.6,2.3 c -3.9,12.8 -4.6,20.5 -4.6,48.4 0,22.6 0.3,29.7 1.7,35.8 0.9,4.1 1.4,7.8 1.1,8.1 -0.3,0.3 -5,2 -10.4,3.9 -12,4 -25.6,7 -38.6,8.4 -9,1 -34.1,1.2 -43.3,0.4 z"
       id="path4" />
    <path
       d="m 2278,1896.3 c -1.4,-0.2 -6.7,-1.3 -11.7,-2.4 l -9.3,-2 v -21.6 -21.6 l 5.5,6.1 c 18.8,20.7 43,24.1 58.6,8.3 8.7,-8.9 11.1,-19.3 7,-30.1 -2.8,-7.4 -8.1,-13.2 -17.4,-19.2 -39.6,-25.5 -50.6,-34.6 -56.5,-46.8 -10.4,-21.5 -5.4,-47.8 12.7,-66 19.8,-20 47.4,-24.2 79.1,-11.9 l 8,3 v 15.5 c 0,8.5 -0.2,15.4 -0.3,15.4 -0.2,0 -4.1,-2.5 -8.6,-5.5 -11.4,-7.6 -19.1,-9.8 -32.4,-9.3 -9.3,0.3 -10.7,0.7 -16.6,3.8 -10.2,5.5 -14.9,13.3 -15,25.1 -0.1,5.4 0.4,7.6 2.9,12.7 5.2,10.3 11.1,15 44.7,35.2 12.7,7.7 25.7,19.8 29.7,27.7 3.8,7.6 5.6,15.6 5.6,24.8 0,35.7 -29.3,59.8 -72,59.4 -6.3,-0.1 -12.6,-0.3 -14,-0.6 z"
       id="path6" />
    <path
       d="m 36.4,1894.4 c 0.4,-0.9 1.5,-5 2.6,-9 4.3,-16.6 4.5,-20.5 4.5,-98.4 0,-67.9 -0.2,-75.3 -1.8,-83.4 -1,-4.9 -2.7,-11.2 -3.8,-14 -1,-2.8 -1.9,-5.2 -1.9,-5.3 0,-0.2 10.4,-0.3 23,-0.3 12.7,0 23,0.2 23,0.5 0,0.3 -1.1,4.6 -2.4,9.7 -4.2,16.4 -4.6,23.7 -4.6,94.8 0,70.7 0.3,77.1 4.5,94.8 1.4,5.7 2.5,10.8 2.5,11.3 0,0.5 -9.7,0.9 -23.1,0.9 -21,0 -23.1,-0.1 -22.5,-1.6 z"
       id="path8" />
    <path
       d="m 205,1893.3 c 0.6,-1.6 2,-8 3.1,-14.3 2.1,-11 2.2,-14.7 2.6,-89.3 l 0.4,-77.8 -4.7,-5.6 c -6.4,-7.5 -9.8,-10.9 -16.9,-17.1 l -6,-5.2 H 208 l 24.5,0.1 3.3,7.2 c 1.8,4 5.9,10.9 9.1,15.4 6.2,8.6 101.9,130.4 105.2,133.8 1.9,1.9 1.9,0.9 1.9,-56.1 0,-32 -0.5,-63.8 -1,-70.9 -1,-11.7 -2.9,-23.5 -4.5,-27.7 -0.7,-1.7 0.6,-1.8 19.2,-1.8 h 20 l -1.8,8.3 c -3.4,15.5 -4.1,35.9 -3.6,106.8 0.5,70.1 0.9,77.5 5.1,91.4 0.9,2.8 1.6,5.1 1.6,5.3 0,0.1 -8.5,0.2 -18.9,0.2 h -18.9 l -2.1,-5.3 c -3.6,-8.9 -9.9,-17.4 -59.1,-80.4 l -47.5,-60.7 -0.3,4.9 c -0.2,2.8 -0.1,28.6 0.1,57.5 0.4,47.8 0.6,53.5 2.5,63.5 1.2,6.1 2.8,13 3.6,15.4 0.9,2.4 1.6,4.5 1.6,4.7 0,0.2 -9.9,0.4 -21.9,0.4 h -22 z"
       id="path10" />
    <path
       d="m 491,1895.6 c 0,-0.2 0.9,-4.6 1.9,-9.7 4.3,-20.9 4.6,-27.4 4.6,-99.9 0,-72.7 -0.2,-77.7 -4.6,-93.8 -1,-4 -1.9,-7.4 -1.9,-7.7 0,-0.3 25.8,-0.5 57.4,-0.5 h 57.4 l -7.8,14.1 c -4.3,7.8 -8.2,14.5 -8.7,15 -0.5,0.5 -4.5,-0.3 -9.8,-2.1 -12.1,-4.1 -22.5,-5.9 -38.2,-6.7 l -13.3,-0.6 v 38.1 38.2 h 35 c 19.3,0 35,0.1 35,0.3 0,0.6 -14.2,27.2 -15,28 -0.4,0.5 -3.9,-0.3 -7.8,-1.6 -10.3,-3.8 -20.8,-5.7 -34.9,-6.4 l -12.6,-0.6 0.6,33.4 c 0.5,27.2 1,35.5 2.6,44.9 1.1,6.3 2.5,13 3,14.8 l 1,3.2 h -22 c -12,0 -21.9,-0.2 -21.9,-0.4 z"
       id="path12" />
    <path
       d="m 1245.2,1885.8 c 3.2,-19 3.8,-35.5 3.8,-100.2 0,-65.2 -0.7,-80.9 -3.8,-93.5 l -1.8,-6.8 22.6,-0.6 c 33.5,-1 45.9,0.8 63,9 17.4,8.3 30.5,24.5 34,41.8 2.4,11.9 -0.7,27.2 -7.9,38.4 -4.3,6.7 -16.2,17.8 -24.1,22.6 -3.6,2.1 -6.7,4 -6.9,4.2 -1.3,1 14.9,25.9 29.3,45.1 5.6,7.5 16.5,21.4 24.1,30.7 7.5,9.4 14.2,17.6 14.8,18.3 0.7,0.9 -2,1.2 -13.2,1.2 h -14.2 l -18.3,-18.2 c -18,-18 -30.1,-32.3 -54,-63.8 -6.5,-8.5 -12.2,-15.7 -12.8,-15.9 -0.7,-0.2 -0.8,12.2 -0.5,37 0.5,38.2 0.7,40.8 5.2,58.2 l 0.7,2.7 h -20.9 -20.9 z m 45.6,-93.7 c 19.1,-6.3 32.4,-15.6 37.7,-26.5 9.9,-20.6 0.6,-45.7 -20.9,-56.4 -7.1,-3.6 -19.9,-7.2 -25.3,-7.2 h -3.3 v 46.5 c 0,39.3 0.2,46.5 1.4,46.5 0.8,0 5.5,-1.3 10.4,-2.9 z"
       id="path14" />
    <path
       d="m 1441,1895.4 c 0,-0.3 1.5,-2.4 3.4,-4.7 7.5,-9.2 15.8,-24.8 60.7,-113.7 25.7,-50.8 47.1,-92.6 47.6,-92.7 0.4,-0.2 18.4,37.6 39.8,83.9 39.6,85.5 47.9,102.3 58.6,118.1 3.2,4.9 5.9,9 5.9,9.3 0,0.2 -10.7,0.4 -23.9,0.4 h -23.8 l -1.2,-8.8 c -1.4,-11.2 -3.5,-17.7 -12.3,-37.9 l -7,-16.3 h -39.2 l -39.1,0.1 -6.4,13.7 c -3.4,7.5 -7.6,17.5 -9.1,22.2 -2.9,8.5 -5.3,23 -4.3,25.6 0.4,1.2 -3.7,1.4 -24.6,1.4 -13.8,0 -25.1,-0.3 -25.1,-0.6 z m 136,-87.1 c 0,-2.1 -25.5,-60.2 -26.1,-59.6 -0.8,0.8 -28.9,59.1 -28.9,59.9 0,0.2 12.4,0.4 27.5,0.4 15.1,0 27.5,-0.3 27.5,-0.7 z"
       id="path16" />
    <path
       d="m 1726.2,1887.5 c 5.8,-17.3 6,-20.9 6.5,-104 l 0.5,-76 -10.7,-11.7 -10.6,-11.8 h 23.3 23.4 l 3.6,7.3 c 2,3.9 5.8,10.2 8.4,13.8 10.8,14.5 64.7,80.8 65.5,80.4 2.1,-1.4 71,-87.5 74.5,-93.3 l 4.1,-6.7 20.2,-0.3 20.1,-0.2 -3.6,4.7 c -2.1,2.7 -5,7.5 -6.6,10.9 -5.7,12.1 -5.8,13.5 -5.8,89.9 0,76.5 0.2,80.5 5.8,97.2 l 2.8,8.3 h -24.4 c -22.8,0 -24.4,-0.1 -23.9,-1.7 3.6,-10.8 5.8,-19.7 6.7,-26.5 0.7,-5.3 1,-29.2 0.8,-66.8 l -0.3,-58.4 -35.4,44.1 -35.4,44.1 -19.6,-24.2 c -10.8,-13.3 -26.8,-33.1 -35.5,-43.9 -8.8,-10.8 -16.3,-19.7 -16.8,-19.7 -0.6,0 -0.8,25.1 -0.5,61.3 0.4,58.6 0.5,61.6 2.6,71 1.2,5.5 3.1,12.2 4.1,15 1.1,2.9 2,5.3 2,5.5 0,0.1 -10.9,0.2 -24.3,0.2 h -24.3 z"
       id="path18" />
    <path
       d="m 2050.1,1888.8 c 5.5,-21 5.4,-19.9 5.4,-97.3 0,-77.1 -0.1,-79.8 -5.4,-100.2 l -1.9,-7.3 h 56.4 56.4 l -0.9,2.4 c -0.8,2 -14,28.7 -14.5,29.3 -0.1,0.2 -4,-1.3 -8.6,-3.3 -4.6,-1.9 -11.6,-4.4 -15.5,-5.5 -7.8,-2.1 -28.5,-4.4 -32.2,-3.5 l -2.3,0.6 v 37.5 37.5 h 32.5 c 17.9,0 32.5,0.2 32.5,0.5 0,0.4 -15.8,26.5 -16.6,27.4 -0.2,0.2 -4.5,-0.8 -9.6,-2.2 -10,-2.8 -22.5,-5.2 -32.5,-6.2 l -6.3,-0.6 v 39.6 39.7 l 13.8,-0.7 c 7.5,-0.4 18.3,-1.3 23.9,-2.1 9.5,-1.4 33.1,-7.3 43.2,-10.9 2.4,-0.8 4.6,-1.4 4.8,-1.2 0.2,0.2 -3,7.8 -7,16.8 l -7.3,16.4 -55.1,0.3 -55.1,0.2 z"
       id="path20" />
    <path
       d="m 809,1469.4 c -7.8,-2.1 -15.2,-6.9 -22.5,-14.6 -8.4,-8.9 -12.7,-17.5 -13.3,-27.2 -0.8,-13.4 4.6,-23.4 17.5,-31.8 15,-9.9 25.5,-12.8 49.7,-13.5 37.1,-1.1 68.5,5.2 157.1,31.7 104.5,31.2 157.6,43.9 196.5,46.8 l 10.5,0.8 -5.5,1.7 c -13.3,4.2 -23.3,5.2 -54.5,5.2 -33.9,0 -47.6,-1.1 -106.5,-8.1 -102.7,-12.2 -108.7,-12.8 -144.5,-12.8 -23.8,-0.1 -30.7,0.2 -38.4,1.7 -18.6,3.5 -31.4,9.7 -36.7,17.7 -1.5,2.2 -2.9,4 -3.3,3.9 -0.3,0 -3.1,-0.7 -6.1,-1.5 z"
       id="path22" />
    <path
       d="m 1370.8,1469.6 c -10.3,-3.7 -20.4,-12.5 -25.8,-22.8 -2.7,-5.1 -3.4,-7.7 -3.8,-13.9 -0.4,-6.6 -0.1,-8.4 2,-13 5.9,-12.9 22.6,-22.7 43.8,-26 11.5,-1.8 36.6,-0.6 55,2.6 19.7,3.4 49.7,11 86.5,22 106.4,31.6 156,43.4 182.8,43.5 11.6,0 9.8,1.7 -5.3,5 -2.5,0.5 -11.4,1.5 -19.8,2.1 -25.7,2 -56,-0.1 -134.7,-9.6 -68.9,-8.3 -102,-10.6 -125.2,-8.6 -23,2 -35.8,6.4 -43.7,15.2 -4.7,5.2 -5.9,5.6 -11.8,3.5 z"
       id="path24" />
    <path
       d="m 440.5,1393.9 c -70.7,-7.2 -131,-35.4 -177,-83 -44.7,-46.3 -70.5,-104.5 -81.2,-183.7 -2.6,-18.8 -2.5,-78 0,-97.7 7.3,-56 22.6,-106.4 48.6,-160 36.5,-75.1 88.1,-145 158.2,-214 37.9,-37.3 77.7,-70.5 103.6,-86.4 8.5,-5.2 8.4,-3 -0.2,4 -29.6,24.1 -63.2,56.8 -84.1,81.9 -62.9,75.2 -111.1,167.4 -142.3,271.7 -9.4,31.3 -13.8,53.8 -16.2,82.8 -1.6,19.8 -0.6,60.8 2,80.1 10.2,75.1 38.5,137.6 83.5,184.1 21.1,21.9 42.6,37.7 69.6,51.2 52.3,26.1 108.1,33.2 164,20.6 39.8,-8.9 86,-31.6 119.7,-58.8 4.9,-3.9 6,-5.3 5.2,-6.4 -2.6,-3.1 4.6,-1.1 13.3,3.7 5,2.8 9.4,5 9.9,5 0.5,0 0.9,0.9 0.9,2 0,1.2 -0.7,2 -1.6,2 -0.9,0 -5,3 -9.1,6.8 -55.6,50.3 -120.7,81.9 -190.3,92.4 -15.4,2.3 -60.8,3.3 -76.5,1.7 z"
       id="path26" />
    <path
       d="m 1613.5,1322.2 c -16.3,-8.5 -28.2,-17.8 -43.4,-33.8 -8.8,-9.4 -10.1,-11.1 -10.1,-14.2 v -3.5 l 9.3,8.9 c 20,19.4 38.6,27.9 63.2,29.1 20.4,1 38,-2.6 56.5,-11.3 17.5,-8.3 30.1,-17.6 46,-34 27.4,-28.2 49.7,-68.1 66.4,-118.7 6.4,-19.1 14.3,-50.3 18.1,-70.7 1.4,-8 2.9,-15.5 3.2,-16.7 0.4,-2 -0.4,-2.7 -7,-5.7 -18.3,-8.3 -49.2,-28 -69.2,-44 -13.4,-10.7 -31.4,-28.2 -41,-39.6 -34.9,-41.8 -42.1,-81.4 -22.1,-122.5 11.1,-22.6 25.1,-36.2 44.8,-43.3 6.4,-2.3 8.7,-2.6 19.3,-2.6 10,0.1 13.5,0.6 21,2.8 24.4,7.3 46.5,23.3 58.7,42.6 13.7,21.5 22.1,48.8 24.9,81 1.1,13.1 0.7,47.4 -0.7,60 l -0.6,5.5 23.3,10.4 c 61.6,27.4 133.9,62.3 172.4,83.1 51.6,27.9 95.1,55.8 124,79.4 10.4,8.5 28.9,27 35,35.1 11.7,15.6 16,26.8 15.3,39.9 -0.3,6.8 -1,9.1 -3.8,14.4 -12.6,23.7 -52.1,39.2 -117,45.9 -21,2.1 -84.8,2.5 -101.5,0.5 -59.2,-6.9 -109.3,-22.7 -123.6,-38.9 -12.5,-14.3 -10.5,-30.9 5.3,-43.3 5.7,-4.6 7.9,-5.2 4.9,-1.4 -8.3,10.6 -1.9,21.6 18.1,31.3 42.1,20.6 121.1,32.5 192.6,29.2 69.8,-3.3 110.1,-15.3 115.2,-34.3 4.8,-17.6 -11.9,-37.1 -49.9,-58.3 -34.5,-19.2 -77.8,-36.5 -193.6,-77 -42.8,-15 -89.3,-31.8 -110.8,-40 -8.8,-3.4 -13.9,-4.9 -14.1,-4.1 -0.2,0.6 -2.7,10.7 -5.6,22.5 -9.7,39.9 -22.1,74.6 -38.4,107.6 -35,70.8 -80.2,113.1 -136.6,127.9 -9.3,2.5 -30,5.6 -36.3,5.6 -1.8,0 -7.1,-2.1 -12.2,-4.8 z M 1833.9,966 c 2.4,-41.9 -4.1,-79.2 -18.2,-104.2 -13.7,-24.4 -38.1,-40.1 -62.2,-40.1 -20.3,-0.1 -30.9,10.1 -32.2,30.8 -1.1,17.7 6.1,36.2 22.6,58.2 8.5,11.3 25.7,29.1 38.3,39.6 18.1,15 48.4,35.6 49.9,33.9 0.4,-0.4 1.2,-8.6 1.8,-18.2 z"
       id="path28" />
    <path
       d="m 803,1302.4 c -16.4,-3.5 -33.3,-10.2 -50.7,-20.2 -6.5,-3.7 -8.3,-5.2 -8.3,-6.9 0,-1.3 0.2,-2.3 0.5,-2.3 0.3,0 3.1,1.3 6.3,2.9 38,19 91.7,10.3 130.7,-21 6.1,-4.9 7.3,-6.4 6.4,-7.5 -2.6,-3.1 4.5,-1.3 10.7,2.7 4.8,3.1 6.4,4.8 6.4,6.4 0,1.7 -0.5,2.2 -1.8,1.8 -1.1,-0.2 -3.5,1.1 -6.2,3.5 -19.1,16.6 -42.5,30 -66.6,38.2 -12.9,4.3 -17,4.7 -27.4,2.4 z"
       id="path30" />
    <path
       d="m 1411.5,1302.3 c -5.7,-1.6 -20.9,-14.5 -33.2,-28.3 -7.8,-8.8 -9.3,-11 -9.3,-13.9 v -3.3 l 8.1,7.6 c 17.8,16.7 37,24.6 60.5,24.6 15.1,0 35,-4.8 48.9,-11.7 7,-3.5 7.8,-4.3 6.4,-5.9 -0.9,-1.1 -0.7,-1.4 1.3,-1.4 3.2,0 12.8,9.7 12.8,12.9 0,1.7 -0.4,2.2 -1.6,1.7 -1,-0.4 -5.8,1.4 -11.8,4.3 -19.8,9.7 -35.3,13 -62.1,13.6 -9.9,0.2 -18.9,0.2 -20,-0.2 z"
       id="path32" />
    <path
       d="m 980.5,1276.7 c -13.6,-6.9 -29.5,-17.3 -40,-26.4 -6.5,-5.6 -8.1,-7.5 -8.3,-10.1 l -0.3,-3.3 6.7,4.6 c 14.9,10.3 36.1,18.9 52.7,21.5 23.4,3.8 54.6,-3.7 80.2,-19.1 13.9,-8.4 16.2,-10.3 14.6,-12.3 -1.2,-1.4 -1,-1.6 1.4,-1.6 3.4,0 14.5,8.4 14.5,11 0,1.2 -0.7,1.8 -1.7,1.8 -1,-0.1 -6.8,3.5 -13,7.9 -26.2,18.9 -55.7,29.6 -84.8,31 l -11,0.5 z"
       id="path34" />
    <path
       d="m 1200.5,1280.1 c -5.4,-0.9 -17.2,-7 -27,-13.9 -4.4,-3.2 -14.6,-12.3 -22.7,-20.4 -13.6,-13.5 -14.8,-15 -14.8,-18.3 v -3.6 l 7.3,5.9 c 33.2,27.2 71.7,38.9 107.3,32.7 18,-3.2 46.9,-15 44.3,-18.2 -0.9,-1 -0.6,-1.3 1.5,-1.3 3.6,0 13.6,8.6 13.6,11.7 0,1.4 -0.6,2.1 -1.7,2.1 -1,-0.1 -4.9,1.7 -8.8,4 -20.1,11.7 -42,17.5 -73,19.2 -17.9,1 -20.3,1 -26,0.1 z"
       id="path36" />
    <path
       d="m 725.3,1264.4 c -5.8,-4.3 -7.3,-6 -7.3,-8.1 0,-2.1 0.3,-2.3 1.4,-1.4 1.8,1.5 7.3,-5.1 18.1,-21.3 23.3,-35.3 37.4,-72 46.5,-121.3 3,-16.3 3.9,-16.2 10.8,0.5 5,12.2 6.3,17.2 4.3,17.2 -0.5,0 -1.1,-0.6 -1.4,-1.2 -0.6,-1.8 -1,-0.7 -5.3,16.2 -6.3,24.9 -15.7,50.6 -26.1,71.5 -6.3,12.6 -11.2,20.9 -21.7,36.9 -5.6,8.7 -8.6,14.1 -7.8,14.4 2.2,0.7 1.2,2.2 -1.5,2.2 -1.8,0 -5.4,-2 -10,-5.6 z"
       id="path38" />
    <path
       d="m 1541,1248.8 c -3.2,-5.6 -4.3,-13.1 -1.6,-10.9 2.7,2.2 18.2,-16.8 33.9,-41.7 27.6,-43.7 53.5,-123 62.6,-191.9 4,-30.4 4.6,-41.7 4.6,-87.8 -0.1,-48 -0.8,-59.7 -6.1,-98 -9.2,-66.6 -26.2,-112.5 -46,-124.1 -9.5,-5.6 -22.3,-3.7 -31.8,4.7 l -4.6,4.1 v -3.5 c 0,-3 0.8,-4.2 5.3,-8.2 10.3,-9.1 23.2,-16.4 31.8,-18 3.4,-0.6 3.8,-0.4 8.8,5.2 35.7,39.7 55.6,118.1 57.8,227.3 1.6,81.1 -9.5,150.4 -35.3,220.7 -19.4,52.9 -37.6,85.4 -65,115.8 -4.4,5 -7.9,9.6 -7.6,10.3 0.2,0.7 -0.5,1.2 -1.7,1.2 -1.4,0 -3,-1.6 -5.1,-5.2 z"
       id="path40" />
    <path
       d="m 918.6,1228.3 c -3,-3.9 -4.6,-6.8 -4.6,-8.7 0,-2.4 0.2,-2.6 1.4,-1.7 1.2,1 2.3,0.2 6.1,-4.6 12.3,-15.6 28.8,-44.3 36.6,-63.8 12.1,-30.3 21.3,-67.8 24.5,-99.7 0.5,-5.8 0.9,-6.8 2.5,-6.8 1.1,0 1.9,0.6 1.9,1.4 0,0.8 2,8.5 4.5,17.2 2.5,8.6 4.5,16.9 4.5,18.5 0,2.9 -1.4,4 -2.3,1.7 -0.2,-0.7 -0.7,-0.2 -1,1.2 -5.5,24.5 -7.8,33.2 -12.7,48 -11.7,35.6 -26.9,65.7 -45.2,89.8 -4.5,5.9 -7.7,11 -7.4,11.8 0.4,1 -0.2,1.4 -1.9,1.4 -1.7,0 -3.6,-1.6 -6.9,-5.7 z"
       id="path42" />
    <path
       d="m 1341.7,1222.8 c -2.3,-3.9 -3.7,-7.5 -3.7,-9.6 0,-3.1 0.2,-3.3 1.6,-2.1 1.5,1.2 2.7,0.3 10.1,-7.6 30.6,-32.3 62.2,-84.3 63.5,-104.2 0.2,-2.2 0.7,-3.3 1.8,-3.3 1.1,0 2.3,3.6 4.8,14.8 1.8,8.1 3.3,15.5 3.2,16.5 0,2.2 -1.6,2.2 -2.5,0 -0.4,-1.3 -2.7,2.2 -7.9,12.2 -15.7,30.2 -33.2,54.9 -54.3,76.6 -7.9,8.1 -10,10.8 -9.1,11.7 0.9,0.9 0.6,1.2 -1.3,1.2 -2,0 -3.3,-1.2 -6.2,-6.2 z"
       id="path44" />
    <path
       d="m 1122.1,1212.1 c -2.3,-3.4 -4.1,-7.1 -4.1,-8.6 0,-2.4 0.2,-2.6 1.6,-1.4 1.5,1.2 2.2,0.8 6.1,-3.5 17.7,-19.6 39.8,-57.7 53,-91.6 8.6,-21.9 13.9,-39.9 18.3,-62.3 2.3,-11.7 4.9,-6 10.1,22.4 1.3,6.6 0.5,12.6 -1,8.5 -0.5,-1.3 -1.6,1.8 -3.6,10 -10.4,44.3 -31.9,84.4 -64.7,120.5 -6.5,7.2 -8.4,9.9 -7.5,10.8 0.8,0.8 0.5,1.1 -1.5,1.1 -1.9,0 -3.4,-1.3 -6.7,-5.9 z"
       id="path46" />
    <path
       d="m 1896.7,1163.4 c -6.4,-2 -13.3,-8.6 -14.2,-13.7 -2.7,-14.2 20.1,-24.4 37.7,-16.8 5.5,2.4 9.5,6.1 11.4,10.7 5.7,13.7 -15.6,25.7 -34.9,19.8 z"
       id="path48" />
    <path
       d="m 776.5,734 c 1.5,-2.4 -14.6,-25.3 -22.8,-32.5 -8.1,-7.1 -14.8,-10 -23.2,-10 -8.7,0.1 -14.7,2.8 -22.4,9.9 -5.4,5.2 -13,15.6 -17,23.4 -1.2,2.3 -2.6,4.2 -3.1,4.2 -2,0 -0.9,-6.2 2.1,-12.3 8.8,-17.4 21.4,-30.9 35.4,-37.8 7.9,-3.9 9.5,-4.3 17.8,-4.7 l 9.2,-0.4 9.1,9.3 c 4.9,5.2 11.6,13.1 14.8,17.7 5.3,7.6 7.6,9.7 7.6,7.2 0,-0.5 0.5,-1 1,-1 1.7,0 1.2,4 -2.2,16.3 -2.6,9.6 -3.5,11.7 -5,11.7 -1.1,0 -1.6,-0.5 -1.3,-1 z"
       id="path50" />
    <path
       d="m 1460.7,720.1 c -0.9,-7.4 -12.6,-41.7 -20,-58.4 -15.1,-34.3 -30.8,-55.7 -46.5,-63.4 -4.9,-2.4 -6.9,-2.8 -14.2,-2.8 -7.1,0 -9.4,0.4 -14.2,2.7 -3.2,1.5 -7.4,3.9 -9.3,5.4 l -3.5,2.6 v -3 c 0,-2.5 1.1,-4 6.3,-8.4 10.9,-9.4 20.8,-15.7 31.5,-20.2 l 6.3,-2.7 7.9,7.1 c 25.3,22.8 48,60.4 64.6,107 2.6,7.4 4.9,13.7 5.1,13.9 0.1,0.2 0.9,-0.2 1.8,-0.9 1.3,-1.1 1.5,-0.9 1.5,1.3 0,1.5 -2.4,6.3 -5.4,11 -3,4.5 -6,9.5 -6.7,11 -2.1,4.5 -4.5,3.5 -5.2,-2.2 z"
       id="path52" />
    <path
       d="m 1233.1,645.2 c -16.5,-51.9 -37.5,-86.7 -58.6,-97.2 -6.2,-3 -7.9,-3.4 -15,-3.5 -7.1,0 -8.8,0.4 -14.5,3.2 -3.6,1.8 -8.9,5.3 -11.7,7.8 l -5.3,4.7 v -3.5 c 0,-3 1.1,-4.6 7.8,-11.4 12.4,-12.6 27.8,-21.6 39.3,-23 l 4.8,-0.6 12.4,12.4 c 6.8,6.8 15.2,16.2 18.6,20.9 12.3,16.7 26.9,43.8 36.1,66.9 1.9,4.7 3.6,7.9 3.8,7.3 0.6,-2 2.2,-1.3 2.2,1.1 0,3.5 -12.3,28.7 -14,28.7 -1,0 -2.8,-4.2 -5.9,-13.8 z"
       id="path54" />
    <path
       d="m 999.5,644.1 c 0.6,-1.1 -9.6,-17.8 -16,-26.1 -13.8,-17.9 -31.8,-27.1 -46.9,-24 -8,1.6 -16.6,7.8 -23.5,16.6 -3.1,4 -5.9,7.3 -6.3,7.3 -0.5,0.1 -0.8,-1.4 -0.8,-3.2 0,-7.1 16.3,-26 29.5,-34.2 7.3,-4.6 17.3,-8.7 23.7,-9.9 3.5,-0.6 4.1,-0.3 11.7,6.4 9.7,8.6 21.3,22.2 29.4,34.5 5.6,8.6 7.7,10.9 7.7,8.6 0,-0.6 0.5,-1.1 1,-1.1 1.9,0 1,5.3 -2.7,15.6 -2.9,8 -4.2,10.4 -5.6,10.4 -1,0 -1.6,-0.4 -1.2,-0.9 z"
       id="path56" />
  </g>
  <g
     fill="#ecb739"
     id="g62"
     transform="translate(-36,-503.59568)">
    <path
       d="m 1195,1279.5 c -28.2,-3.9 -58.2,-14.8 -85.4,-31.2 -14.6,-8.8 -20.8,-13.6 -34.5,-26.8 -32.1,-31.1 -56.8,-72.6 -77.9,-130.7 -16,-44 -27.1,-101.4 -32.4,-167.3 -1.7,-21.1 -1.7,-81.9 0,-100 6.5,-70.1 20.1,-138.5 37.5,-189 3.4,-9.9 12.6,-31.2 18.9,-44 17.4,-34.8 44.1,-65.2 68.8,-78.3 13.2,-7.1 20.2,-8.7 37.5,-8.6 13.6,0 15.8,0.3 23,2.7 4.4,1.5 10.8,4.2 14.2,6 6.2,3.2 17.3,10.7 17.3,11.7 0,0.3 -2.7,1.1 -6,1.7 -22,4.2 -47.2,27.9 -62.9,59 -28.8,57.4 -43.1,153.9 -43.1,290.8 0.1,141.3 15.2,260.9 39.1,308.8 3.7,7.5 5.4,10.1 17.6,27.3 8,11.1 22.5,27.5 33.4,37.7 16.4,15.3 31.6,24.8 46.9,29.4 l 7.5,2.2 -5,-0.1 c -2.7,0 -9.3,-0.6 -14.5,-1.3 z"
       id="path60" />
  </g>
  <g
     fill="#cc2132"
     id="g66"
     transform="translate(-36,-503.59568)">
    <path
       d="m 1406.5,1301.9 c -24.6,-3.2 -54.2,-14.6 -76.6,-29.5 -27.5,-18.5 -47,-38.4 -68.2,-69.6 -22.9,-33.6 -39.4,-70.3 -53,-117.8 -8.4,-29.1 -13.2,-55.6 -17.3,-95.3 -2.1,-21.1 -3,-79.9 -1.5,-105.7 4.8,-82.2 19.8,-157.2 43.8,-218 7.8,-19.5 13.1,-30.5 22,-44.8 25.1,-40.7 53.3,-62.6 84.8,-66 16.6,-1.8 33.5,2.2 48.3,11.5 12.4,7.7 12.4,7.8 7.1,9.9 -17,6.8 -37.7,22.4 -48.6,36.6 -13.5,17.4 -24,42.3 -33.1,78.4 -21.8,85.7 -27.8,222.1 -15.1,345.4 8.1,79.1 23.6,144 42.3,177 2.7,4.7 6,10.5 7.4,13 14.1,25 42.3,57.2 61,69.8 10.2,6.8 10.2,6.8 -3.3,5.1 z"
       id="path64" />
  </g>
  <g
     fill="#31a560"
     id="g70"
     transform="translate(-36,-503.59568)">
    <path
       d="m 959,1280 c -18.2,-3.3 -36.3,-10.4 -56,-22.2 -25,-14.9 -55,-45.8 -77.2,-79.4 -20.8,-31.3 -34,-58.5 -45.2,-93.2 -20,-61.7 -27.5,-120.1 -24.7,-191.7 3,-74.8 13.3,-141.2 29.6,-191.5 27.1,-83.3 64.7,-133.6 109,-146.2 6.3,-1.7 10.6,-2.2 20,-2.2 17.7,0 28.6,3.4 45,14.2 l 6.9,4.6 -3.4,0.9 c -14.6,3.7 -28.1,11.1 -37.9,20.8 -25.3,25.2 -45.1,78.4 -56,150.9 -10.9,72.4 -13,173.8 -5.6,268 7.3,91.6 23.9,162.2 46.3,196.6 17.9,27.6 51.4,55.4 81.1,67.4 4.2,1.7 8.5,3.5 9.6,4 4.1,1.8 -30.4,1 -41.5,-1 z"
       id="path68" />
  </g>
  <g
     fill="#702d8c"
     id="g74"
     transform="translate(-36,-503.59568)">
    <path
       d="m 1599,1325.9 c -34.3,-4.4 -67.8,-19.1 -92.5,-40.5 -29.3,-25.5 -66.3,-91.3 -83.1,-147.9 -4,-13.4 -9,-33 -9.8,-38.4 -0.3,-2 -1.4,-9.2 -2.5,-16.1 -7.1,-43.5 -8,-103.8 -2.5,-159.5 5.8,-58.9 20.8,-124.8 38.9,-170.5 5.5,-14 15.9,-35.2 21.2,-43.4 13.6,-21.1 34.4,-40.5 51.6,-48.1 10.1,-4.4 17.4,-5.9 29.7,-5.9 9.8,0 12.5,0.4 18.6,2.5 7.6,2.8 15.6,7.7 22.5,13.8 l 4.3,3.8 -4.9,1.2 c -18.9,4.8 -40.5,24.1 -51.5,46.1 -14.5,29 -26.4,82.2 -33,147.6 -7.1,71.3 -7.3,160 -0.5,227.9 4.4,43.3 13.3,86.4 24.2,116.7 13.7,38 42.1,75.1 74,96.6 6.6,4.5 23.8,13.2 25.9,13.2 0.7,0 1.6,0.5 1.9,1 0.8,1.2 -22.9,1.1 -32.5,-0.1 z"
       id="path72" />
  </g>
  <g
     fill="#1a77bd"
     id="g78"
     transform="translate(-36,-503.59568)">
    <path
       d="m 762.5,1306.9 c -25.4,-3.4 -52.4,-14.5 -75.2,-30.9 -28.4,-20.3 -52,-46.6 -72.2,-80.5 -15,-25.2 -25.3,-47.9 -35.1,-77.5 -18.3,-54.8 -24.7,-107.8 -21,-173 4.8,-84.4 22,-158.7 49,-211.5 22.5,-44 48.3,-69.1 80,-77.6 6.2,-1.7 23.4,-1.7 29.9,0 3,0.8 8.2,2.5 11.5,3.8 6.4,2.6 20.9,11.7 23.9,15.1 1.8,1.9 1.7,2 -7.2,2.4 -8.1,0.4 -9.8,0.8 -17.6,4.7 -16.4,8.1 -28.1,22 -39.3,46.4 -26.1,57.4 -37.3,136.6 -35.9,254.5 0.6,52.2 2.7,78.7 9.3,118.7 9.6,57.8 26.5,109.1 45.4,138 7.5,11.4 10.6,14.7 21.1,22.6 30.5,22.9 67.5,38.7 91.1,39 8,0 5.8,1.1 -8.9,3.9 -12.4,2.5 -37.7,3.4 -48.8,1.9 z"
       id="path76" />
  </g>
</svg>
