<?xml version="1.0" encoding="UTF-8" standalone="no"?>
<svg
   inkscape:version="1.2 (dc2aedaf03, 2022-05-15)"
   sodipodi:docname="Initial_D_Logo.svg"
   version="1.1"
   id="svg2"
   xml:space="preserve"
   width="1000"
   height="346.37701"
   viewBox="0 0 1000 346.37701"
   xmlns:inkscape="http://www.inkscape.org/namespaces/inkscape"
   xmlns:sodipodi="http://sodipodi.sourceforge.net/DTD/sodipodi-0.dtd"
   xmlns="http://www.w3.org/2000/svg"
   xmlns:svg="http://www.w3.org/2000/svg"
   xmlns:rdf="http://www.w3.org/1999/02/22-rdf-syntax-ns#"
   xmlns:cc="http://creativecommons.org/ns#"
   xmlns:dc="http://purl.org/dc/elements/1.1/"><sodipodi:namedview
     inkscape:current-layer="svg2"
     inkscape:window-maximized="1"
     inkscape:window-y="-8"
     inkscape:window-x="-8"
     inkscape:cy="297.18748"
     inkscape:cx="636.61733"
     inkscape:zoom="1.0060989"
     fit-margin-bottom="0"
     fit-margin-right="0"
     fit-margin-left="0"
     fit-margin-top="0"
     showgrid="false"
     id="namedview10"
     inkscape:window-height="1017"
     inkscape:window-width="1920"
     inkscape:pageshadow="2"
     inkscape:pageopacity="0"
     guidetolerance="10"
     gridtolerance="10"
     objecttolerance="10"
     borderopacity="1"
     bordercolor="#666666"
     pagecolor="#ffffff"
     inkscape:showpageshadow="2"
     inkscape:pagecheckerboard="0"
     inkscape:deskcolor="#d1d1d1" /><metadata
     id="metadata8"><rdf:RDF><cc:Work
         rdf:about=""><dc:format>image/svg+xml</dc:format><dc:type
           rdf:resource="http://purl.org/dc/dcmitype/StillImage" /><dc:title /></cc:Work></rdf:RDF></metadata><defs
     id="defs6" /><g
     transform="scale(0.61573869)"
     id="g143"><path
       id="path14"
       style="fill:#ed1c24;fill-opacity:1;fill-rule:evenodd;stroke:none;stroke-width:0.133333"
       d="m 1180.5,3.14e-4 -64.459,112.099616 h 55.8125 L 985.32422,430.44368 c -3.99333,5.426 -8.58848,7.96405 -13.11914,8.20312 h -44.50195 l -12.39063,21.64453 h 522.8594 1.3984 1.4141 c 229.24,-154.8324 256.6942,-459.3030161 5.1875,-460.291016 z m 178.045,108.798836 c 73.0267,-0.13067 107.1454,51.18564 56.7187,145.82031 -81.8533,153.57999 -149.8168,181.46484 -248.4902,181.46484 z" /><path
       id="path29"
       style="fill:#f9f9f9;fill-opacity:1;fill-rule:nonzero;stroke:none;stroke-width:0.133333"
       d="M 927.57813,3.14e-4 829.98438,110.90852 h 66.34375 l 15.48632,-19.945315 h 23.01368 l -8.52539,19.945315 h 65.62109 L 1020.2637,3.14e-4 Z m 34.46679,24.785156 c -7.548,18.450666 -13.4269,33.975251 -17.51757,46.53125 h -21.92188 c 7.36934,-9.817333 20.50745,-25.319251 39.43945,-46.53125 z" /><path
       style="fill:#ed1c24;fill-opacity:1;fill-rule:evenodd;stroke:none;stroke-width:0.133333"
       d="m 1166.7726,436.08426 -0.1853,-0.008 0.1853,0.008"
       id="path112" /><path
       style="fill:#ed1c24;fill-opacity:1;fill-rule:evenodd;stroke:none;stroke-width:0.133333"
       d="m 872.55528,534.97279 -7.78,13.59067 268.84272,-0.002 c 47.136,0.4136 91.2226,-4.49373 132.1693,-13.58853 z"
       id="path108" /><path
       style="fill:#ed1c24;fill-opacity:1;fill-rule:evenodd;stroke:none;stroke-width:0.133333"
       d="m 887.11661,509.53946 -9.548,16.67813 h 422.57599 c 16.648,-4.8672 32.7187,-10.4432 48.1734,-16.67813 z"
       id="path106" /><path
       style="fill:#ed1c24;fill-opacity:1;fill-rule:evenodd;stroke:none;stroke-width:0.133333"
       d="m 910.30061,469.04626 -18.17066,31.738 h 476.52135 c 20.8533,-9.464 40.48,-20.138 58.9333,-31.738 z"
       id="path104" /><path
       id="path16"
       style="fill:#f9f9f9;fill-opacity:1;fill-rule:evenodd;stroke:none;stroke-width:0.133333"
       d="m 245.47663,139.564 h 123.872 l -42.15333,70.064 h -123.872 z m 558.92399,33.07067 h 101.71866 l 19.14,-33.35467 h 55.49067 l -19.14,33.35467 h 118.55865 l -80.0866,136.20266 h -53.61872 l 39.99333,-67.08667 H 812.69928 l -39.99333,67.08667 h -48.392 z m -298.952,12.99333 h 100.52667 l 30.328,-51.02533 h 61.89466 L 667.86862,185.628 h 113.90933 l -44.65467,74.396 h -47.72933 c -37.316,67.52666 -81.74933,123.48533 -132.77333,168.73333 11.83467,13.17386 27.83067,23.64413 47.796,31.53373 h 142.77066 c 3.54934,-5.76093 7.592,-12.6932 12.54267,-20.95933 H 647.16329 l 42.91733,-72.72507 h 112.04933 l 9.49333,-18.036 c 19.73867,-1.808 34.43467,-7.9 41.97334,-20.07866 h -85.49867 l 39.55733,-66.00267 h 155.26 l -39.55733,66.00267 -55.07467,38.11466 h 96.084 l -42.91867,72.72507 H 812.06328 c -4.49466,7.38853 -8.64,14.36826 -12.49733,20.95933 h -52.376 c -2.03067,3.29373 -3.9,6.1984 -5.69067,8.7552 h 52.97467 c -6.89733,11.9276 -12.85333,22.4656 -18.31333,31.738 h -101.61067 -69.508 -104.97599 c -4.04934,-6.7484 -7.66,-13.69533 -10.82667,-20.84107 -11.412,7.3692 -23.084,14.31294 -35.012,20.84107 H 328.9673 316.78196 230.0313 c 0.95866,3.03493 1.912,5.95426 2.86,8.7552 h 75.76133 18.604 l -3.26,16.67813 h 77.60933 c 12.228,-5.1744 24.22,-10.7348 35.976,-16.67813 H 327.25663 l 1.71067,-8.7552 8.50933,-43.54893 c 47.83866,-5.81347 93.24666,-19.8104 135.89599,-43.082 -2.80666,-44.73467 8.38667,-95.784 35.76,-154.12933 h -48.33866 z m 98.968,274.66306 h -86.73333 c -4.03333,2.976 -8.104,5.89373 -12.208,8.7552 h 125.24133 l 0.26533,-0.32867 c -9.51866,-2.3776 -18.37066,-5.188 -26.56533,-8.42653 z m 26.3,8.7552 -25.67467,31.738 -7.08266,8.7552 h -92.324 c 3.83333,5.70213 7.98133,11.26146 12.44667,16.67813 H 401.60729 c -7.20666,3.05 -14.49733,5.96667 -21.86533,8.7552 h 145.924 v 0 0 c -2.62267,-2.876 -5.14267,-5.7968 -7.58267,-8.7552 h 66.38533 l -7.084,8.7552 h -51.71866 c 8.79466,9.6448 18.62266,18.82401 29.41866,27.5662 l 22.3,-27.5662 h 83.77733 91.78 c -20.44666,23.35631 -44.06,28.77193 -101.55866,24.96984 l 9.77866,-24.96984 3.428,-8.7552 6.53067,-16.67813 3.42933,-8.7552 8.22134,-20.99373 c 36.61733,7.73653 45.456,8.2068 58.72533,-10.74427 z m -32.75733,40.4932 h 172.95066 c -3.79867,6.19853 -7.41067,11.74226 -11.012,16.67813 h -95.308 -80.12133 z M 197.27397,220.83733 h 123.87066 l -91.6,155.70933 h -44.26 l 26.00533,19.448 c -17.45066,24.05467 -35.78799,44.56147 -54.73466,62.64067 8.53333,-2.6276 17.308,-6.4552 26.32667,-11.48227 l -14.844,36.688 c 14.04666,-5.5896 29.86533,-13.48387 47.17466,-23.31307 H 192.7793 L 331.89663,222.51867 h 44.19333 l 7.75467,-12.89067 h -44.77734 l 42.15334,-70.064 h 135.64133 l -42.15334,70.064 h -50.50666 l -7.756,12.89067 h 51.092 L 328.42063,460.52799 H 283.4193 c 7.084,11.56467 19.66266,24.35107 35.572,37.87667 l -2.20934,2.3796 -8.12933,8.7552 -3.796,4.08813 -19.82133,21.3452 -24.296,26.16568 c -0.11867,-0.0807 -0.23867,-0.16407 -0.35734,-0.24844 l -0.0667,-0.0469 c -0.11067,-0.0786 -0.22134,-0.15989 -0.332,-0.24219 l -0.0373,-0.0271 c -0.12,-0.0906 -0.24133,-0.18281 -0.36133,-0.27708 l -0.0573,-0.0443 c -0.10267,-0.0807 -0.20534,-0.16303 -0.308,-0.24636 l -0.0693,-0.0563 c -0.11333,-0.0932 -0.228,-0.18905 -0.34266,-0.28645 l -0.0947,-0.0802 -0.288,-0.25052 -0.0627,-0.0552 c -0.11466,-0.1021 -0.22933,-0.20626 -0.34533,-0.31199 l -0.028,-0.026 -0.0307,-0.0286 -0.32,-0.30105 -0.092,-0.087 c -0.11066,-0.10729 -0.22266,-0.21614 -0.33466,-0.32708 l -0.0147,-0.013 -0.003,-0.004 c -0.116,-0.11407 -0.23066,-0.23074 -0.34533,-0.34896 l -0.0947,-0.0974 c -4.53333,-4.66771 -9.20133,-12.17035 -14.01466,-22.75995 h 0.001 c -1.23333,-2.71453 -2.47733,-5.6312 -3.73067,-8.7552 h -0.001 c -2.01333,-5.0192 -4.05333,-10.5724 -6.11867,-16.67813 h -19.89466 c 3.45733,-2.79734 6.94666,-5.71507 10.47066,-8.7552 h 6.564 c -0.46666,-1.47867 -0.93466,-2.98334 -1.40533,-4.51814 -1.728,1.53534 -3.44933,3.04054 -5.16133,4.51814 H 27.509173 l 10.5796,-18.9036 c 46.390666,0.57493 61.499465,-4.17867 83.373457,-30.87347 -16.47346,4.67454 -37.792658,12.5808 -60.407858,21.3516 11.9032,-20.586 20.584933,-45.32546 28.006266,-73.37613 25.142262,-6.15467 42.999062,-13.63333 53.571992,-22.436 H 105.67317 Z M 915.31261,460.29106 H 799.57128 c -1.75466,2.99787 -3.45066,5.91613 -5.092,8.7552 h 115.82133 z m -23.18266,40.4932 h -115.964 c -1.796,3.05266 -3.54267,5.9724 -5.248,8.7552 h 116.19866 z m -14.56134,25.43333 H 759.90062 c -2.308,3.16307 -4.612,6.07707 -6.95734,8.7552 h 119.612 z M 500.04596,500.78426 h -45.804 c -5.488,3.00426 -11.02533,5.92706 -16.62133,8.7552 h 68.00266 c -1.93867,-2.88227 -3.804,-5.79787 -5.57733,-8.7552 z m -292.18933,12.84333 c -5.70133,4.4552 -11.31066,8.5724 -16.82933,12.35573 l -0.34267,0.23427 c -10.62266,7.26093 -20.90933,13.27453 -30.86,18.04333 l -0.0133,0.007 c -0.788,0.37707 -1.57333,0.74693 -2.356,1.1084 l -0.14267,0.0656 c -0.46533,0.214 -0.93066,0.42547 -1.39466,0.63493 l -0.156,0.0703 -0.74267,0.3312 -0.79467,0.35053 -0.588,0.2552 -0.33733,0.14587 -0.60933,0.262 -0.0507,0.0213 -0.79067,0.33387 -0.0427,0.0177 -0.43334,0.18067 -0.64666,0.26667 -0.54,0.22146 -0.82934,0.33427 -0.41066,0.16307 -0.74934,0.2948 -0.312,0.12186 c -0.29866,0.11615 -0.59733,0.23074 -0.896,0.34479 l -0.488,0.18491 -0.54266,0.20312 -0.776,0.28697 -0.63467,0.23125 -0.37333,0.13438 c -0.32667,0.11718 -0.65334,0.23281 -0.98,0.3474 l -0.29867,0.10364 -0.78667,0.27136 -0.27066,0.0927 c -0.34534,0.11719 -0.68934,0.2323 -1.03334,0.34584 l -0.256,0.0844 c -0.272,0.0896 -0.54533,0.17812 -0.81866,0.26562 l -0.30934,0.0995 c -0.32933,0.10521 -0.65733,0.20887 -0.98666,0.31095 l -0.296,0.0911 -0.85067,0.25886 -0.152,0.0469 -0.0253,0.007 -0.0413,0.012 c -0.29866,0.0896 -0.59733,0.17656 -0.896,0.26354 l -0.428,0.12448 -0.65333,0.18542 -0.60533,0.16875 -0.72667,0.19896 -0.29467,0.0792 c -0.3264,0.0875 -0.65293,0.17344 -0.97786,0.25781 l -0.30214,0.0771 -0.66933,0.16876 -0.39107,0.0979 c -0.32133,0.0792 -0.64173,0.15677 -0.962,0.23281 l -0.21613,0.051 c -0.29787,0.0703 -0.5948,0.13907 -0.89213,0.20678 l -0.21147,0.0479 c -0.31987,0.0724 -0.63907,0.1427 -0.95787,0.21197 l -0.29586,0.0641 c -0.33334,0.0719 -0.6672,0.1427 -1,0.21041 l 0.4964,-20.84432 0.34373,-14.4432 -0.27973,0.0932 -0.2796,0.0939 -0.27974,0.0937 -1.57293,0.52493 -0.10107,0.0339 -0.007,0.003 -0.27147,0.09 -0.278,0.0923 -1.6272,0.5396 -0.86453,0.2848 -0.27494,0.0907 -0.2756,0.0912 -0.27546,0.09 -0.474,0.15573 -0.076,0.0245 -0.274,0.0901 -1.09587,0.35773 -0.27347,0.0891 -0.54573,0.17813 -0.27293,0.0885 -0.2724,0.0885 -0.81614,0.26413 -0.2708,0.0875 -0.272,0.088 -0.2708,0.0871 -0.2708,0.0875 -1.5484,0.49787 -0.0729,0.0235 -0.2688,0.0855 -0.2692,0.0859 -0.2688,0.0855 -0.2692,0.0864 -1.072,0.3412 v 0 l -0.26707,0.0844 -0.2672,0.0848 -0.0729,0.0224 c -10.99533,3.48186 -21.422395,6.55266 -31.318795,9.23853 l -0.133866,0.0365 c -0.938534,0.25414 -1.871334,0.50414 -2.800534,0.752 l -0.04947,0.0131 -1.440534,0.38227 -1.459466,0.3844 c -0.9708,0.2536 -1.935333,0.5032 -2.895333,0.75 l -1.435867,0.36613 -0.7636,0.1932 -1.002,0.25267 -0.9104,0.2276 -0.1724,0.0432 -1.412533,0.34946 -0.01507,0.004 -1.3896,0.34 -0.1824,0.0443 -0.9176,0.2224 -0.8828,0.212 -1.902133,0.4532 -0.342134,0.0812 -1.032933,0.24213 -1.059333,0.2464 -0.384933,0.0896 -0.207734,0.0479 -1.358933,0.31093 -1.318133,0.29853 -0.07867,0.0172 -1.300533,0.29054 -1.338,0.29586 c -1.652667,0.36254 -3.287067,0.71254 -4.905734,1.05 l -0.664133,0.13854 -0.968666,0.2 -0.038,0.008 -1.293867,0.264 -0.935333,0.18747 -0.486,0.0975 -0.9484,0.18746 -0.614534,0.1208 c -0.556266,0.10894 -1.1104,0.2156 -1.662533,0.32134 l -0.663067,0.1272 -0.711466,0.13426 c -1.023334,0.1928 -2.04,0.38027 -3.05,0.56307 l -0.473334,0.0855 -1.207333,0.21506 -0.5568,0.0984 -1.4104,0.24427 -0.573466,0.098 -0.883867,0.14947 -0.668667,0.112 -1.379733,0.22706 -0.534933,0.0864 -0.966134,0.15414 -0.831733,0.13133 -1.1828,0.18333 -0.132267,0.0203 -0.333333,0.05 -1.15,0.1724 -0.36,0.0536 -1.4604,0.21253 -0.07027,0.01 -0.036,0.005 -0.192666,0.0276 -1.257867,0.1772 -0.4932,0.0676 c -0.9276,0.12813 -1.848933,0.25107 -2.764,0.36933 l -0.640666,0.0817 -0.890134,0.112 -0.673333,0.0833 c -0.4256,0.0521 -0.850587,0.10413 -1.274027,0.15413 l -0.24844,0.0292 c -0.483333,0.0568 -0.965626,0.11254 -1.445826,0.16667 l -0.01771,0.002 c -1.5718799,0.17814 -3.1239599,0.34107 -4.6578132,0.4916 l -0.34688,0.0339 c -0.4161466,0.0401 -0.8317733,0.0792 -1.2453066,0.1172 l -0.1140666,0.0109 c -0.47344,0.0437 -0.9458267,0.0854 -1.4161467,0.12656 l -0.085933,0.008 -0.14532,0.012 -1.2369733,0.10418 -0.3427067,0.0276 C 0.88645891,549.86765 0.44218692,549.90315 0,549.93646 L 8.3747471,534.97279 20.32104,513.62759 h 5.33e-4 l 2.2876,-4.08813 H 212.99263 c -1.72133,1.39333 -3.436,2.7552 -5.14133,4.08813 z m 63.30667,-53.0996 h -51.54934 l 9.42534,33.88187 z m -147.638,-12.0796 c 12.594,-15.8328 27.71133,-38.79906 52.186,-71.90173 h -31.75333 c -9.77067,29.08133 -17.87334,55.27613 -20.43267,71.90173 z m 152.44466,-57.93373 h 39.504 l -9.896,15.576 h -39.504 z m 34.72667,-58.53333 h 39.50533 l -9.896,15.576 h -39.504 z m 34.448,-56.572 h 39.504 l -9.89467,15.57467 h -39.504 z m -131.71867,6.064 h 22.98134 l -22.49867,36.02 h -22.98 z m 319.368,92.66666 C 569.22462,344.552 603.22995,306.79866 634.55262,260.024 h -78.804 c -19.15866,45.51866 -26.552,83.38933 -22.95466,114.11599 z m -153.05333,160.8328 c -19.85867,7.51467 -40.29734,14.08493 -61.308,19.72401 l 3.85333,-19.72401 h 57.45467"
       sodipodi:nodetypes="ccccccccccccccccccccccccccccccccccccccccccccccccccccccccccccccccccccccccccccccccccccsccccccccccccccccccccccccccccccccccccccccccccccccccccccccsccccccccccccccsccccccccccccccccccccccccccccccccccccccccscccssccccccccccccccccccccccccccsscccccccccccccccccccscsccccccccccccccccccccccccccccccccccccccccccccsccccccccccccccccccccccccccscccccccccccccccccccccccccccccccccccccccsssccccccccccccccccccccccccccccccccccccccccccccccccccccc" /><path
       style="fill:#f9f9f9;fill-opacity:1;fill-rule:nonzero;stroke:none;stroke-width:0.133333"
       d="m 1132.0126,0 -52.0106,88.718665 h 38.9666 L 1105.958,110.90933 H 1002.8833 L 1067.9006,0 h 64.112"
       id="path33" /><path
       style="fill:#f9f9f9;fill-opacity:1;fill-rule:nonzero;stroke:none;stroke-width:0.133333"
       d="m 883.88595,0 -65.016,110.90933 H 754.76062 L 819.77928,0 Z"
       id="path27" /><path
       style="fill:#f9f9f9;fill-opacity:1;fill-rule:nonzero;stroke:none;stroke-width:0.133333"
       d="m 805.12728,0 -13.00933,22.190666 h -38.02667 l -52.00933,88.718664 h -64.06133 l 52.012,-88.718664 H 652.10329 L 665.11795,0 Z"
       id="path25" /><path
       style="fill:#f9f9f9;fill-opacity:1;fill-rule:nonzero;stroke:none;stroke-width:0.133333"
       d="M 650.35795,0 585.34329,110.90933 H 521.23262 L 586.24862,0 Z"
       id="path23" /><path
       style="fill:#f9f9f9;fill-opacity:1;fill-rule:nonzero;stroke:none;stroke-width:0.133333"
       d="m 560.53529,0 -65.02,110.90933 h -56.16 L 435.55663,60.493332 406.00196,110.90933 H 352.44063 L 417.45663,0 h 53.56399 l 6.668,49.946665 L 506.96996,0 Z"
       id="path21" /><path
       style="fill:#f9f9f9;fill-opacity:1;fill-rule:nonzero;stroke:none;stroke-width:0.133333"
       d="M 391.73663,0 326.7193,110.90933 H 262.61396 L 327.63263,0 Z"
       id="path18" /></g></svg>
