<?xml version="1.0" encoding="utf-8"?>
<!DOCTYPE svg PUBLIC "-//W3C//DTD SVG 20010904//EN" "http://www.w3.org/TR/2001/REC-SVG-20010904/DTD/svg10.dtd">
<svg version="1.0" xmlns="http://www.w3.org/2000/svg" width="2281px" height="1121px" viewBox="0 0 2281 1121" preserveAspectRatio="xMidYMid meet">
 <g fill="#ffffff">
  <path d="M1254.9 1119 c-23.7 -1.5 -39.6 -5.1 -51.9 -11.6 -9.5 -5 -13.5 -8.7 -17 -15.7 -3.7 -7.6 -4.7 -15.9 -3.1 -25.3 2.4 -13.8 22 -58.5 32.7 -74.5 17.8 -26.8 68.5 -64.9 125.9 -94.5 22.5 -11.6 107.9 -49.4 140 -61.9 59.7 -23.3 173.7 -62.8 277 -95.9 21.5 -6.8 92.6 -29.2 158 -49.6 120.9 -37.7 140 -43.9 192.5 -62 42.3 -14.6 69.3 -24.6 78.7 -29.2 8.5 -4.1 14.7 -9.7 14.1 -12.6 -0.9 -4.7 -13.7 -8.7 -36.7 -11.6 -17 -2.2 -80.9 -3.2 -109.1 -1.7 -11.8 0.6 -27.9 1.4 -35.6 1.7 l-14.2 0.7 6.3 -26.8 c3.4 -14.7 6.8 -27.1 7.5 -27.5 4.2 -2.6 116.4 -3.5 144.5 -1.2 56.9 4.7 89.5 12.5 99.3 23.7 2 2.2 3.2 4.6 3.2 6.4 0 3.2 -16 42.6 -21.8 53.4 -4.4 8.5 -7.4 11.5 -18.4 18.7 -22.3 14.8 -67.9 34.1 -129.3 55 -24.9 8.4 -103.7 33.8 -183.5 59 -269.3 85.1 -323.6 102.9 -409.5 134.5 -104.3 38.3 -211.6 89.6 -255.1 121.8 -14.6 10.8 -26.3 22.5 -30 30.2 -4.1 8.4 -4 16.6 0.3 25 3.7 7.2 5.2 8.6 12.6 12 7.5 3.5 20.5 6.1 37.5 7.6 16.6 1.4 58.8 0.6 80.7 -1.6 38.1 -3.8 98.3 -12.7 135.2 -20.1 40.4 -8 163.8 -36.8 204.3 -47.6 77.7 -20.7 237.5 -66.2 282.5 -80.4 33.5 -10.6 121.9 -38.9 142 -45.4 8.2 -2.7 15 -4.8 15.1 -4.7 0.3 0.2 -20.4 50.8 -21 51.4 -0.4 0.4 -84.7 27.2 -147.1 46.8 -33 10.3 -112.7 33.8 -200.5 59 -72.6 20.9 -195.7 51.2 -275 67.9 -90.6 19 -183.9 29.7 -231.1 26.6z"/>
  <path d="M21.5 1110.3 c-10.4 -4.1 -19.1 -7.6 -19.3 -7.7 -0.3 -0.4 33.8 -25.1 61.3 -44.3 93.5 -65.4 209.7 -137.4 334.5 -207.3 19 -10.6 35.4 -19.8 36.5 -20.5 1.4 -0.8 3.4 -5.5 6.4 -14.6 12.6 -38.5 41.6 -122.7 58.6 -169.9 69.3 -192.6 132.5 -336.5 204.7 -465.8 6.6 -11.8 11.8 -21.6 11.5 -21.8 -1.3 -1.3 -41.4 11.9 -65.2 21.4 -29.8 12 -44.9 18.8 -103 46.7 -21.4 10.3 -46.4 22.1 -55.5 26.2 -119.4 54.3 -219.4 115.3 -293.5 178.7 -5.5 4.7 -10.5 8.6 -11 8.6 -2.7 0 -30.4 -17.3 -30.5 -19.1 0 -0.7 26.4 -24.1 43.6 -38.6 143 -120 315.4 -216.8 525.9 -295.3 84.1 -31.4 167.6 -54.4 290 -79.9 l28 -5.8 0.3 4.3 c0.3 4.1 -0.8 5.9 -27.6 46.1 l-27.9 41.9 -41.9 9.6 c-23.1 5.3 -67.2 15.4 -98.1 22.5 l-56.2 12.8 -22 47.5 c-88.1 190.7 -141 319.4 -182.7 444.5 -15.1 45.5 -36.1 115.2 -39.8 132.2 l-0.7 3.3 6.8 -3.1 c3.7 -1.7 28.4 -12.8 54.8 -24.8 26.4 -12 48.1 -21.5 48.3 -21.1 0.3 0.7 -18.5 83.1 -19 83.5 -0.2 0.1 -9.5 3.7 -20.8 8 -47.1 17.9 -94.9 39.5 -161.5 73 -94.7 47.7 -128.4 66.2 -263 144.7 -69.3 40.4 -131.6 77.2 -138.5 81.9 -6.8 4.6 -12.9 8.7 -13.5 9 -0.5 0.4 -9.5 -2.7 -20 -6.8z"/>
  <path d="M360.5 1098 c-0.3 -0.5 4.1 -11.8 9.8 -25.1 l10.5 -24.1 24.3 -13.5 c189.7 -105 398 -198.6 626.4 -281.6 108.6 -39.4 216.3 -74.3 337.7 -109.2 l4.7 -1.4 -1.3 4.2 c-9.7 31.7 -20.1 63.4 -21 64.3 -0.6 0.7 -6.9 2.8 -14.1 4.9 -19.6 5.5 -76.5 22.5 -107.5 32.1 -320.1 99.4 -622.8 220.7 -848.1 340 -10.8 5.7 -19.9 10.4 -20.2 10.4 -0.3 0 -0.9 -0.4 -1.2 -1z"/>
  <path d="M1855.5 898.4 c-25.3 -22.5 -35.5 -32.1 -35.2 -33.3 1.4 -4.7 39 -92.8 40 -93.7 1.4 -1.2 75.7 -24.7 76.3 -24.1 0.3 0.2 -8.5 34.6 -19.5 76.3 -10.9 41.7 -21.1 82.6 -22.5 90.9 -1.5 8.2 -2.9 15.1 -3 15.3 -0.2 0.2 -16.4 -13.9 -36.1 -31.4z"/>
  <path d="M717.3 769 c-12 -6.3 -23.3 -13.5 -23.3 -14.9 0 -0.4 32 -59.9 71.1 -132.2 l71.1 -131.4 8.1 -8.2 c4.5 -4.6 7.9 -8.3 7.7 -8.3 -0.3 0 -2 -0.4 -3.7 -0.9 l-3.3 -1 -4.5 8.2 c-4.6 8.5 -22.8 29.8 -57.9 67.6 -8.9 9.7 -21.7 23.5 -28.3 30.6 -20.1 21.7 -35.7 34.6 -51.6 42.6 l-7.8 4 -4.7 -2.6 c-5.6 -3 -25.4 -19.3 -25 -20.5 0.2 -0.5 4.6 -4.1 9.8 -8 37.4 -28.5 72.3 -64.3 132.6 -136 49.7 -59.2 53.3 -62.9 63.5 -66.5 4.8 -1.7 13.2 -2 16 -0.5 2.6 1.5 4.5 5.4 5.9 12.8 0.7 3.4 1.7 6.2 2.2 6.2 2.3 0 18.6 -18 29.5 -32.5 20.9 -27.8 30.1 -37 44.9 -44.3 6.1 -3 7.7 -3.4 11.5 -2.8 5.7 0.8 10.3 3.7 13 7.8 1.9 3 2 4.3 1.5 15 -0.5 10.7 -0.9 12.6 -4.7 22 -15.3 38.3 -42.4 112 -62.2 169.3 -16 46.2 -34.9 103.7 -34.2 104.3 1 1.1 8.5 -5 14.1 -11.4 3.3 -3.7 9.3 -10.4 13.4 -14.8 11 -11.9 22.9 -28.9 33.7 -48.1 8.3 -14.8 17.1 -34.9 70.4 -160.7 33.5 -79.1 60.9 -144.5 60.9 -145.4 0 -1 -0.6 -1.4 -1.7 -1 -1 0.3 -7.2 1.9 -13.8 3.5 -18.1 4.5 -45 13 -74 23.2 -29.8 10.5 -97.7 33.4 -101.7 34.3 -2.3 0.5 -4.2 -0.6 -12.5 -7.2 -9.2 -7.4 -22 -19.9 -21.2 -20.7 1 -0.9 32.6 -14.6 51 -22 29 -11.7 64 -24.2 134.9 -48 l61.6 -20.6 33.8 -82.7 c18.7 -45.5 34.2 -83 34.5 -83.4 0.3 -0.4 9.2 4.1 19.8 10 l19.1 10.7 -2.4 4.5 c-2.7 4.9 -51.4 129.3 -50.9 129.8 0.2 0.2 7.2 -1.9 15.7 -4.7 90.7 -29.7 207.4 -49 296.1 -49.1 9.7 0 17.7 0.2 17.7 0.5 0 0.2 -8.7 14.5 -19.4 31.6 l-19.4 31.2 -32.8 -0.2 c-70.3 -0.4 -127.6 7 -216.4 28 -29.3 6.9 -58.9 14.4 -59.7 15.2 -0.2 0.2 -9.8 20.9 -21.2 45.9 -18 39 -29.3 66.2 -80 192.2 -46 114.3 -58.8 147.2 -58 148.3 1 1.1 1.4 0.9 2.4 -1 0.6 -1.2 16.6 -20.1 35.6 -41.8 l34.4 -39.6 2.9 -11.9 c13.8 -57.3 46.5 -125.8 84.2 -176.4 45.7 -61.3 95.5 -95 140.9 -95.3 9.2 -0.1 11.9 0.3 16.6 2.1 7.2 2.9 12.8 7.7 16.3 14.3 2.7 4.9 2.9 6.1 2.9 15.3 -0.2 34.9 -24.3 75.8 -73.3 124.6 -11.3 11.3 -35.2 35.4 -53 53.5 -17.9 18.2 -46.8 47.5 -64.2 65.1 -29.2 29.6 -31.8 32.5 -31.8 35.6 0 4.3 1.5 5.8 6 5.8 3.1 0 5.3 -1.3 14.1 -8.4 27.2 -21.8 45 -38.6 116.4 -109.5 60.1 -59.7 80.8 -79.5 97.9 -93.8 l9.1 -7.6 21 -36.6 c11.6 -20.1 25.2 -43.6 30.4 -52.1 12.1 -19.9 30.1 -47 31.2 -47 0.5 0 2.6 1.1 4.7 2.5 2 1.3 8 4 13.2 6 17.8 6.6 17.7 6.5 11.3 18 -2.7 4.7 -9.4 15.6 -15.1 24.2 -5.6 8.6 -10 15.8 -9.8 16 0.2 0.2 6 -3.6 12.7 -8.4 17.5 -12.6 26.6 -18.6 32.7 -21.7 4.8 -2.4 30.2 -9 31.1 -8 0.2 0.2 1.7 7.9 3.2 17.1 1.6 9.3 3.1 17.8 3.4 19 0.4 1.8 -0.1 2.3 -3.3 3.3 -13.2 4.2 -33.8 15.8 -52.8 29.5 -14.9 10.9 -24.4 18.5 -56.4 45.1 l-25.5 21.1 -4.9 11.4 c-2.7 6.3 -13.9 30.4 -24.7 53.6 -38.6 82.2 -53 120 -60 157.3 -0.6 3.6 -1.5 7 -1.8 7.7 -0.4 0.7 -8.7 -5.4 -22.3 -16.3 l-21.7 -17.5 4 -9.5 c4.9 -11.9 17.2 -36.9 36.6 -74.9 15.7 -30.6 26.6 -54 26.1 -55.7 -0.6 -1.7 -36.8 34.2 -80.3 79.7 -62.8 65.6 -92.5 92.9 -125.2 114.9 -8.5 5.7 -10.7 6.7 -16.8 7.6 -3.8 0.7 -9.8 0.9 -13.2 0.5 -5.6 -0.6 -6.6 -1 -9.7 -4.5 -2.2 -2.5 -4.1 -6.1 -5.1 -9.7 -2.8 -9.8 -3.1 -10.7 -4.2 -11 -1.9 -0.7 -21.4 19.5 -38 39.2 -8.8 10.5 -19.1 21.9 -22.9 25.4 -11.6 10.6 -33.3 24.1 -38.6 24.1 -4.1 -0.1 -10.3 -3.6 -14.1 -8 -2.2 -2.6 -5.3 -8.5 -7.9 -14.9 -4.9 -12.4 -5.9 -21.1 -3.5 -30.4 0.8 -3.1 1.1 -5.5 0.7 -5.2 -0.5 0.3 -4.3 5.5 -8.5 11.5 -25.3 36.7 -53.1 60.1 -73.1 61.8 -5.8 0.4 -6.1 0.3 -8.7 -2.7 -1.4 -1.8 -3.5 -6.2 -4.6 -9.9 -1.8 -5.8 -1.9 -8 -1.2 -16.2 0.8 -8.8 3.9 -18.4 41.9 -131.5 22.6 -67.1 40.9 -122.2 40.7 -122.4 -0.2 -0.2 -2.6 1.9 -5.3 4.5 -4.2 4.2 -18 28.4 -92.2 162.2 -48 86.4 -87.5 157.2 -87.9 157.2 -0.3 0 -5.7 -2.7 -11.8 -6z m420.8 -292.3 c6.3 -6.2 20.6 -21.4 31.9 -33.7 11.3 -12.4 25.7 -27.7 32 -34 6.3 -6.3 14.7 -15.3 18.6 -20 4 -4.7 13 -14.8 20 -22.5 25.4 -27.6 36.4 -41.7 36.4 -46.5 0 -4 -3.2 -6 -9.7 -6 -5.1 0 -5.6 0.2 -16 8.7 -43.1 34.5 -80 80.6 -114 142.3 -10.7 19.4 -12.5 23 -11.4 23 0.5 0 6 -5.1 12.2 -11.3z"/>
  <path d="M1391.6 745.1 l-23.9 -23.9 24.8 -82.3 c13.6 -45.3 25 -83 25.2 -83.6 1 -2.6 -1.6 -1 -16 10.2 l-14.9 11.5 -12.1 -12.6 c-6.7 -7 -12.3 -13 -12.5 -13.4 -0.1 -0.4 16.4 -14.8 36.7 -32 33.8 -28.5 37.1 -31.6 37.7 -34.9 1.5 -9.1 7 -31.8 10.5 -43.6 23.9 -80.9 70.1 -139.9 136.9 -174.8 39.9 -20.8 80.1 -21 92 -0.5 6.5 11.4 9.2 26.7 7.1 40.8 -0.8 6 -2.5 10.3 -8.3 21.9 -31.4 63.2 -96.1 125.9 -184.3 178.6 -9.9 5.9 -18.1 10.9 -18.3 11 -0.1 0.1 -3 10.1 -6.3 22.1 -25.6 92.9 -39.5 154.5 -47.4 210.4 -1.4 10.1 -2.7 18.5 -2.8 18.7 -0.2 0.1 -11 -10.5 -24.1 -23.6z m129.9 -313.1 c9.9 -6.8 20.5 -14.6 23.5 -17.5 3 -2.8 15.1 -13.3 26.8 -23.4 24.6 -21.1 36.8 -33.1 45.8 -45.1 11.1 -14.6 20.4 -35.5 20.4 -45.5 0 -8 -6.9 -11.7 -17.6 -9.5 -4.3 0.9 -7.6 2.8 -15.7 8.7 -45 33.4 -75.5 67.2 -94.1 104.3 -6.8 13.7 -16.6 40.1 -16.6 45 0 2.1 0.2 2 4.8 -1.2 2.6 -1.9 12.8 -9 22.7 -15.8z"/>
  <path d="M1454.2 652.3 c3.8 -16.9 7 -30.8 7.1 -30.9 0.5 -0.5 95.6 -24.1 116.2 -28.9 101 -23.6 198.1 -42.4 281.5 -54.4 34.6 -5 69 -9.4 69.5 -8.9 0.4 0.4 -18.8 56.4 -19.5 57.2 -0.3 0.2 -12 2.1 -26 4.1 -104.2 14.9 -228.2 39.8 -351.5 70.6 -34.3 8.6 -80.4 20.5 -83 21.5 -0.8 0.3 1.2 -10.5 5.7 -30.3z"/>
  <path d="M1895 675.6 c0 -0.4 10.4 -27.1 23.1 -59.4 23.6 -60 36.6 -97 53.8 -153.3 5 -16.3 9.1 -29.9 9.1 -30.3 0 -1.5 -4 -0.3 -12 3.4 -9.3 4.4 -12.9 4.8 -20.7 2.5 -8.9 -2.6 -13.4 -10.1 -15.4 -25.3 -0.7 -5.1 -1.6 -9.2 -1.9 -9.2 -2.8 0 -12.5 11.6 -25.4 30.3 -12.7 18.4 -22.5 28.2 -35.7 35.6 -9.7 5.4 -13.3 4.1 -16 -6 -1.1 -4.2 -1 -5 0.9 -8.8 1.2 -2.3 2.2 -5.5 2.2 -7.1 l0 -2.9 -17.4 8.5 c-28.2 13.7 -48.5 19.5 -67.8 19.5 -12.8 0 -14.5 -0.8 -18.5 -8.9 -2.6 -5.3 -2.8 -6.6 -2.8 -17.4 0 -6.5 -0.2 -11.8 -0.5 -11.8 -0.9 0 -14.9 14.7 -37.2 39 -33.4 36.5 -49.6 51.4 -63.4 58.5 -6.5 3.4 -8.7 4 -13.8 4 -6.8 0 -9.5 -1.5 -13.8 -7.5 -5.7 -8 -6.4 -19.3 -2.3 -41.4 3.1 -17.1 3.4 -17.9 15.6 -48.6 38.5 -97 86.9 -192.6 174.6 -345 46.7 -81.2 49.6 -86 51.3 -85.9 0.8 0 7.7 8.3 15.3 18.4 12.8 17 13.8 18.5 12.6 20.7 -2 3.8 -38.2 66 -71.2 122.3 l-31.1 53 -48.7 99.5 c-26.8 54.7 -50.4 102.2 -52.3 105.5 -4.9 8.4 -6 11.8 -4.6 14.5 1.1 2 2.3 1 20.5 -17.3 27.9 -28 45.1 -42.4 58.8 -49.4 5.5 -2.9 6 -3.5 14.8 -17.9 25.3 -41.6 37.7 -56.5 58.8 -70.2 4.6 -3.1 12.7 -7.4 18 -9.7 9.5 -4.2 30.8 -11.5 33.4 -11.5 0.8 0 2.6 -1.7 4 -3.8 3.7 -5.6 10.9 -20.3 10.3 -21 -1.4 -1.3 -17.4 -0.5 -22.6 1.3 -9.9 3.2 -35.4 17.4 -46.6 25.8 -16.9 12.7 -35.1 31.8 -45.5 47.6 l-1.5 2.4 -7.7 -9.3 c-12.3 -15 -13.4 -21.4 -5.3 -29.3 2.3 -2.3 6.9 -8 10.1 -12.7 15.7 -22.5 37 -39.7 62.3 -50.4 21.4 -9 65.6 -19.4 77.8 -18.3 7.8 0.8 15.7 3.7 22.5 8.5 l5.4 3.8 -0.1 8 c-0.1 5.6 -1.2 11.8 -3.7 21.4 -4.8 18.3 -16.6 54.1 -23.8 72.7 -5.8 14.8 -9.1 26.6 -10.4 36.8 l-0.6 5 6.3 -7 c3.5 -3.8 9.5 -10.4 13.4 -14.5 11.9 -12.7 15.2 -18.3 27.9 -47.5 22 -50.5 57.8 -108.1 85.7 -137.8 l7.3 -7.8 12.3 12.2 12.3 12.2 -2.6 3.6 c-12 16.4 -41.9 62.8 -57 88.6 -8.9 15.1 -18.8 34.6 -18 35.4 0.3 0.2 3.3 -1.5 6.7 -3.7 3.5 -2.2 10.1 -5.9 14.8 -8.2 14.5 -7 16.9 -8.4 23.4 -13.1 5.8 -4.3 6.8 -5.6 13.1 -17.5 24.8 -47.2 61.8 -108.9 69.3 -115.7 1.7 -1.6 2.5 -1.2 14.5 5.6 6.9 4 14.7 8.9 17.2 11 l4.5 3.8 -5 5.7 c-6.3 7 -17.3 23.4 -27.3 40.7 -9.2 16 -22.3 42.2 -21.5 43 0.3 0.3 10.4 -1.4 22.4 -3.9 28.8 -5.8 79.6 -13.6 89.4 -13.6 3.3 0 4.6 3.4 6.1 15.5 0.6 5 1.4 11.7 1.9 15 0.4 3.3 0.6 6.2 0.4 6.4 -0.2 0.2 -14.6 2.8 -32 5.7 -31.2 5.3 -47.8 8.6 -62.4 12.5 -15.6 4.1 -38 12.2 -49 17.7 l-11.5 5.7 -6.8 16.4 c-16.3 39.6 -35.1 92.8 -51.7 147.1 -12.8 41.6 -42.3 143.3 -48.4 166.9 -3.1 11.8 -5.7 21.5 -5.9 21.6 -0.2 0.2 -60.3 18.5 -62.9 19.2 -1 0.3 -1.8 0.2 -1.8 -0.1z m-80.6 -264 c19.9 -7.2 34.2 -21.8 46.3 -47.2 5.1 -10.8 20.8 -55.5 20.1 -57.5 -0.6 -1.7 -12.3 4.8 -20 11 -20.9 16.8 -48.4 51.8 -57.3 73.1 -4.3 10.3 -3 23 2.5 23 1.1 0 4.9 -1.1 8.4 -2.4z m175.4 -34.9 c11.3 -9.1 17.4 -18.4 23.3 -35.2 l2.8 -8 -2.4 -0.3 c-3.1 -0.4 -10.7 3.5 -23.2 12 -18 12.2 -23 20.5 -19.2 31.9 1.5 4.4 2.1 5 6.1 5.8 4 0.9 3.6 1.1 12.6 -6.2z"/>
  <path d="M2191 101.1 c0 -26.2 0.9 -24.1 -10.1 -24.1 l-6.9 0 0 -6 0 -6 23 0 23 0 0 6 0 6 -6.8 0 -6.9 0 -0.6 16.7 c-0.4 9.1 -0.7 19.7 -0.7 23.5 l0 6.8 -7 0 -7 0 0 -22.9z"/>
  <path d="M2224 94.6 c0 -33.4 -0.8 -30.7 8.6 -30.9 8.8 -0.1 12.5 5.1 15.5 22.2 3.9 22 5.9 21.4 9.4 -2.7 0.8 -5.7 2.2 -11.6 3 -13.2 3.2 -6.3 9.2 -8.4 16.4 -5.9 l3.1 1.1 0 29.4 0 29.5 -6.7 -0.3 -6.8 -0.3 0 -14.7 c0 -8 -0.3 -14.9 -0.6 -15.2 -0.2 -0.3 -2.2 6.5 -4.3 15 l-3.8 15.5 -6.1 -0.3 -6.1 -0.3 -2.8 -14.1 c-4.4 -22.7 -5.2 -23.1 -5.6 -2.6 l-0.2 17.2 -6.5 0 -6.5 0 0 -29.4z"/>
 </g>
</svg>