<?xml version="1.0" encoding="utf-8"?>
<!DOCTYPE svg PUBLIC "-//W3C//DTD SVG 20010904//EN" "http://www.w3.org/TR/2001/REC-SVG-20010904/DTD/svg10.dtd">
<svg version="1.0" xmlns="http://www.w3.org/2000/svg" width="1879px" height="851px" viewBox="0 0 1879 851" preserveAspectRatio="xMidYMid meet">
 <g fill="#000000">
  <path d="M 897.5 848.7 c -2.2 -1.3 -4.9 -4 -6.2 -6.2 l -2.3 -4 0 -59.7 0 -59.8 -8.7 0 c -10.5 0 -15.5 -2.2 -19 -8.5 l -2.3 -4 0 -55.8 c 0 -59.5 -0.1 -58.4 4.8 -63.9 1.4 -1.6 1.4 -2 0 -3.5 -4.9 -5.6 -4.8 -4.5 -4.8 -64.5 l 0 -56.3 2.3 -4 c 1.2 -2.2 4 -5 6.2 -6.2 l 4 -2.3 164 0.4 c 90.2 0.2 165 0.4 166.3 0.4 2.7 0 330.1 0 334 0 1.5 0 76.5 -0.2 166.7 -0.4 l 164 -0.4 4 2.3 c 2.2 1.2 5 4 6.2 6.2 l 2.3 4 -0.4 67.5 c -0.2 37.1 -0.4 68.6 -0.4 70 0 1.4 0.2 55.6 0.4 120.5 l 0.4 118 -2.3 4 c -1.2 2.2 -4 5 -6.2 6.2 l -4 2.3 -59.9 0 c -64.3 0 -70.1 -0.3 -90.6 -5.5 -24.9 -6.2 -53.5 -20.1 -75.6 -36.6 -16 -12 -34.7 -31.7 -46.3 -48.8 -11.1 -16.3 -23.1 -41.9 -28.6 -61.2 -5.7 -19.9 -6.7 -28.6 -7.2 -66.6 l -0.5 -34.3 -6.8 0 -6.7 0 -0.6 18.3 c -0.7 22 -2.5 30.6 -9.7 45.3 -15.7 32.2 -43.6 49.5 -90 55.9 -9 1.3 -22.3 1.9 -47.7 2.2 l -35.3 0.5 0 59.2 0 59.1 -2.3 4 c -1.3 2.2 -4 4.9 -6.2 6.2 l -4 2.3 -56.5 0 -56.5 0 -4 -2.3 c -2.2 -1.3 -4.9 -4 -6.2 -6.2 l -2.3 -4 0 -59.7 0 -59.8 -8.7 0 c -10.5 0 -15.5 -2.2 -19 -8.5 -2.1 -3.7 -2.3 -5.2 -2.3 -22.4 l 0 -18.4 -4.9 6.4 c -9.7 12.7 -24.1 24.8 -37.9 31.8 -5.2 2.6 -4.7 3.7 3.2 7.6 7.4 3.6 19.2 6.3 32.5 7.6 13.6 1.2 18.3 3.3 21.8 9.4 l 2.3 4 0 51 0 51 -2.3 4 c -1.3 2.2 -4 4.9 -6.2 6.2 -3.6 2.1 -5.3 2.3 -18 2.3 -23 0 -43.4 -3.1 -63.7 -9.7 -13.1 -4.3 -35.8 -15.2 -47 -22.7 -14.7 -9.8 -31.2 -25.8 -41.2 -39.9 l -4.1 -5.9 -0.5 33.4 c -0.5 31.3 -0.6 33.5 -2.6 36.8 -1.1 1.9 -3.8 4.5 -6 5.7 l -3.9 2.3 -56.5 0 -56.5 0 -4 -2.3 z  m 815.1 -248.7 c 3.4 -5.9 8.4 -8 19.2 -8 8.5 0 9.2 -0.1 9.2 -2 0 -1.9 -0.7 -2 -22.6 -2 l -22.6 0 0.5 29.8 c 0.4 25.6 0.8 30.8 2.5 37.7 2.4 9.1 4.3 14.1 8.1 20.5 l 2.6 4.5 0.5 -38.5 c 0.5 -36.6 0.6 -38.7 2.6 -42 z  m -640.6 -10 c 0 -1.9 -0.7 -2 -22.5 -2 -21.8 0 -22.5 0.1 -22.5 2 0 1.9 0.7 2 22.5 2 21.8 0 22.5 -0.1 22.5 -2 z  m 334 0 c 0 -1.9 -0.7 -2 -22.5 -2 -21.8 0 -22.5 0.1 -22.5 2 0 1.9 0.7 2 22.5 2 21.8 0 22.5 -0.1 22.5 -2 z "/>
  <path d="M 8.5 418.7 c -2.2 -1.3 -4.9 -4 -6.2 -6.2 l -2.3 -4 0 -56.5 0 -56.5 2.3 -4 c 3.4 -5.9 8.7 -8.5 20.3 -9.6 17.9 -1.6 30.3 -6.6 37.6 -14.8 10 -11.4 10.7 -16.1 10.8 -68.3 l 0 -40.8 -29.2 0 c -28.5 0 -29.4 -0.1 -33.3 -2.3 -2.2 -1.3 -4.9 -4 -6.2 -6.2 l -2.3 -4 0 -56.5 0 -56.5 2.3 -4 c 1.3 -2.2 4 -4.9 6.2 -6.2 l 4 -2.3 92 0.1 c 76.1 0 92.4 0.2 94.5 1.3 2.1 1.2 2.9 1.2 5.2 0 2.2 -1.2 12.3 -1.4 57.3 -1.4 l 54.5 0 0 -3.7 c 0 -5.2 3.7 -11.3 8.5 -14 l 4 -2.3 56.5 0 56.5 0 4 2.3 c 4.8 2.7 8.5 8.8 8.5 13.9 l 0 3.8 55.8 0.4 c 30.6 0.2 56.9 0.4 58.5 0.4 3.5 0 330.9 0 334.5 0 1.5 0 27.8 -0.2 58.5 -0.4 l 55.7 -0.4 0 -3.8 c 0 -5.1 3.7 -11.2 8.5 -13.9 l 4 -2.3 56.5 0 56.5 0 4 2.3 c 4.8 2.7 8.5 8.8 8.5 13.9 l 0 3.8 55.8 0.4 c 66.4 0.5 48.4 0.5 117.5 0 56.9 -0.4 57.8 -0.4 61.8 1.6 2.2 1.2 4.8 3.5 5.7 5.1 1.3 2.2 2.2 2.8 3.7 2.4 31.4 -8.7 32.7 -8.8 110.5 -9.2 l 68.5 -0.3 3.9 2.2 c 2.2 1.3 4.9 3.9 6 5.8 2.1 3.5 2.1 4.6 2.6 128.3 0.4 109.5 0.7 124.9 2 125.7 0.8 0.5 4.9 1 9 1 9.1 0 14.3 2.5 17.7 8.5 l 2.3 4 0 56.5 0 56.5 -2.3 4 c -1.2 2.2 -4 5 -6.2 6.3 -4 2.2 -4.1 2.2 -39 1.9 l -35 -0.3 -8.5 -2.8 c -19.5 -6.5 -33.8 -15.5 -47.6 -29.9 -13.4 -14 -22.2 -29.2 -27.7 -48.2 -2 -6.8 -2.1 -9.8 -2.4 -92.2 -0.3 -63.2 -0.7 -85.3 -1.5 -85.3 -2.8 0 -16.9 4.5 -22.5 7.1 -7.2 3.4 -17.3 12.3 -20.8 18.3 -4 6.8 -7.4 20.5 -8.5 34.3 -0.6 7.3 -1 49.3 -1 99.7 l 0 87.1 -2.3 4 c -1.2 2.2 -4 5 -6.2 6.2 l -4 2.3 -58 -0.4 c -31.9 -0.2 -59.1 -0.4 -60.5 -0.4 -1.4 0.1 -19.1 0.1 -39.5 0.2 -35.7 0.1 -37.3 0 -45.4 -2.2 -4.7 -1.3 -13.3 -4.8 -19.2 -7.8 -8.5 -4.3 -12.6 -7.2 -19.8 -14 -10.1 -9.5 -15.3 -16.7 -21.6 -30 -8 -16.8 -11.8 -33.5 -13 -57.2 -0.3 -6.5 -0.8 -13.6 -1.1 -15.9 l -0.5 -4.3 -21.9 0 -21.8 0 -0.5 21.8 c -0.5 25.3 -1.7 31.2 -9.6 47.9 -12.7 26.5 -31.5 44.3 -58.3 55.3 -15.5 6.4 -20.5 7 -56.5 7 -31.1 0 -31.9 -0.1 -35.8 -2.3 -2.2 -1.3 -4.9 -4 -6.2 -6.2 l -2.3 -4 0 -56.5 0 -56.5 2.3 -3.9 c 3.3 -5.9 7.6 -8 17.9 -8.6 4.8 -0.3 9.1 -0.9 9.5 -1.4 0.4 -0.4 0.9 -28.4 1.1 -62.2 l 0.2 -61.4 -7.4 0 -7.3 0 -0.6 23.3 c -0.6 27.4 -2 34.5 -9.7 50.3 -15.7 32.2 -43.6 49.5 -90 55.9 -9 1.3 -22.3 1.9 -47.7 2.2 l -35.3 0.5 0 59.2 0 59.1 -2.3 4 c -1.3 2.2 -4 4.9 -6.2 6.2 l -4 2.3 -56.5 0 -56.5 0 -4 -2.3 c -2.2 -1.3 -4.9 -4 -6.2 -6.2 l -2.3 -4 0 -59.7 0 -59.8 -8.5 0 c -4.7 0 -8.5 0.3 -8.5 0.8 0.1 0.4 0.7 1.8 1.5 3.2 1.2 2.1 1.4 11.9 1.4 59 l 0.1 56.5 -2.3 4 c -1.2 2.2 -4 5 -6.2 6.3 l -4 2.3 -37 -0.4 c -42.9 -0.4 -44.9 -0.7 -63.6 -10.3 -8.5 -4.3 -12.6 -7.3 -19.8 -14 -10.1 -9.5 -15.3 -16.7 -21.6 -30 -8 -16.8 -11.8 -33.5 -13 -57.2 -0.3 -6.5 -0.8 -13.6 -1.1 -15.9 l -0.5 -4.3 -21.9 0 -21.8 0 -0.5 21.8 c -0.5 25.3 -1.7 31.2 -9.6 47.9 -12.7 26.5 -31.5 44.3 -58.3 55.3 -15.5 6.4 -20.5 7 -56.5 7 -31.1 0 -31.9 -0.1 -35.8 -2.3 -2.2 -1.3 -4.9 -4 -6.2 -6.2 -2.3 -4 -2.3 -4.2 -2.3 -49.5 l 0 -45.5 -4.8 9 c -9.7 18.2 -18.1 29.4 -32.4 43.1 -13.9 13.3 -25.7 21.4 -46.4 31.7 -26.7 13.4 -53.6 19.7 -83.9 19.7 -12.7 0 -14.4 -0.2 -18 -2.3 z  m 215.2 -137.1 c 0.4 -0.4 0.9 -28.4 1.1 -62.2 l 0.2 -61.4 -7.9 0 -8 0 -0.4 55.8 c -0.4 42.9 -0.8 57.3 -1.9 62.7 l -1.4 7 8.8 -0.5 c 4.8 -0.3 9.1 -0.9 9.5 -1.4 z  m 339.3 0.7 c -0.1 -0.5 -0.7 -1.9 -1.5 -3.3 -1.2 -2.1 -1.4 -11.8 -1.4 -58.5 0 -46.7 0.2 -56.4 1.4 -58.5 0.8 -1.4 1.4 -2.8 1.5 -3.2 0 -0.5 -4 -0.8 -9 -0.8 l -9 0 0 61.9 0 62 2.3 0.4 c 3.9 0.8 15.7 0.7 15.7 0 z  m 697 -61.8 l 0 -62.5 -7 0 -7 0 0 61.9 0 62 2.3 0.4 c 1.2 0.2 4.3 0.5 7 0.6 l 4.7 0.1 0 -62.5 z  m -487 -60.5 c 0 -1.9 -0.7 -2 -22.5 -2 -21.8 0 -22.5 0.1 -22.5 2 0 1.9 0.7 2 22.5 2 21.8 0 22.5 -0.1 22.5 -2 z "/>
 </g>
 <g fill="#b30000">
  <path d="M 900.8 843.4 c -5.9 -3.2 -5.8 -1.6 -5.8 -68.9 l 0 -61.5 -10.5 0 c -7.5 0 -11.5 -0.4 -13.5 -1.5 -6.1 -3.2 -6 -2.2 -6 -61 0 -58.8 -0.1 -57.8 6 -61 2 -1.1 6 -1.5 13.5 -1.5 l 10.5 0 0 -3 0 -3 -10.5 0 c -7.5 0 -11.5 -0.4 -13.5 -1.5 -6.1 -3.2 -6 -2.2 -6 -61.5 0 -46.4 0.2 -54.5 1.5 -57 3.3 -6.4 -8.5 -6 168.2 -6 153.9 0 160.9 0.1 163.8 1.8 2.9 1.8 3.1 1.8 6 0 2.9 -1.7 9.9 -1.8 164 -1.8 158.7 0 161 0 164.3 2 3.2 2 3.2 2 6.5 0 3.2 -2 5.5 -2 164 -2 141.8 0 161.1 0.2 163.7 1.5 6.2 3.2 6 1.2 6 71.7 0 62.3 -0.1 64.4 -2 67.6 -2 3.2 -2 3.2 0 6.5 2 3.1 2 5.3 2 118 0 126.1 0.3 118.9 -6 122.2 -4.2 2.2 -113.3 2.2 -128.9 0 -42.4 -6 -83.7 -27 -114.6 -58 -6 -6.1 -13.5 -14.5 -16.7 -18.6 -18.6 -24.5 -33.2 -55.8 -38.7 -83.4 -3.2 -16.2 -4.1 -28.9 -4.1 -61 l 0 -30.4 -11.2 -0.3 c -6.2 -0.2 -12 -0.7 -12.9 -1.1 -1.5 -0.7 -1.7 1.3 -2.2 20.5 -0.6 25.4 -2.2 33.1 -9.7 48.3 -8.7 17.6 -20.3 29.4 -38 38.4 -23.4 12 -50.1 16.1 -105.6 16.1 l -29.4 0 0 61 c 0 67 0.1 65.3 -6 68.5 -2.5 1.3 -10.6 1.5 -57 1.5 -46.4 0 -54.5 -0.2 -57 -1.5 -6.2 -3.2 -6 -1.4 -6 -69 l 0 -61.5 -10.5 0 c -11.9 0 -15.5 -1.2 -18 -6 -1.2 -2.4 -1.5 -8.1 -1.5 -33.2 l 0 -30.3 -4.5 9.3 c -6.4 13.4 -12.1 21.5 -21.7 30.8 -11.5 11.2 -23.3 18.7 -37.3 23.8 -1.8 0.7 -1.4 1.3 3.5 5.7 10.2 9.2 23.6 14 44.5 15.8 6.5 0.6 12.7 1.7 14.4 2.6 6.2 3.1 6.1 2.6 6.1 56 0 53.3 0 52.9 -6 56 -5.9 3.1 -32.7 1.8 -55 -2.6 -24.1 -4.8 -54 -17.8 -72.5 -31.6 -18.1 -13.6 -34.3 -32.6 -44.7 -52.4 l -4.8 -9 0 44.1 c 0 48.4 0 48.4 -6 51.5 -4.3 2.2 -110.1 2.2 -114.2 -0.1 z  m 817 -240.1 c 2.4 -4.3 6.2 -5.3 19.3 -5.3 11.2 0 12.1 -0.1 11.3 -1.7 -0.4 -1 -1 -4.6 -1.2 -8 l -0.4 -6.3 -28.4 0 -28.4 0 0 27.3 c 0 14.9 0.5 31.4 1 36.5 1.9 17.5 9.4 34.8 20.7 47.3 l 3.8 4.2 0.5 -45.9 c 0.4 -34.7 0.8 -46.4 1.8 -48.1 z  m -639.8 -13.3 l 0 -8 -28.5 0 -28.5 0 0 8 0 8 28.5 0 28.5 0 0 -8 z  m 334 0 l 0 -8 -28.5 0 -28.5 0 0 8 0 8 28.5 0 28.5 0 0 -8 z  m -193.6 -2 l 10.6 0 0 -3 0 -3 -10.6 0 c -5.8 0 -11.4 -0.5 -12.5 -1 -1.8 -1 -1.9 -0.7 -1.9 4 0 4.7 0.1 5 1.9 4 1.1 -0.5 6.7 -1 12.5 -1 z "/>
  <path d="M 11.8 413.4 c -5.9 -3.1 -5.8 -2.3 -5.8 -61.4 0 -59.7 -0.1 -58.3 6.3 -61.6 1.8 -1 7.2 -2.1 12.2 -2.5 27.6 -2.5 44 -13.7 50.3 -34.4 1.3 -4.1 1.6 -13.6 1.9 -53.2 l 0.4 -48.3 -31.1 0 c -34.2 0 -35.5 -0.2 -38.5 -6 -2.3 -4.4 -2.3 -109.6 0 -114 3.2 -6.3 -1.4 -6 97.2 -6 87.8 0 89.9 0.1 93.1 2 1.7 1.1 3.2 2.5 3.2 3.2 0 0.8 0.5 0.5 1.1 -0.5 2.7 -4.7 3.2 -4.7 63.4 -4.7 l 56.5 0 0 -5.5 c 0 -6.7 2 -10.9 6 -13 4.4 -2.3 109.6 -2.3 114 0 4 2.1 6 6.3 6 13 l 0 5.5 56.8 0 c 54.8 0 56.8 0.1 60 2 3.2 2 3.2 2 6.5 0 3.2 -2 5.5 -2 164.2 -2 158.7 0 161 0 164.3 2 3.2 2 3.2 2 6.5 0 3.1 -1.9 5.1 -2 60 -2 l 56.7 0 0 -5.5 c 0 -6.7 2 -10.9 6 -13 4.4 -2.3 109.6 -2.3 114 0 4 2.1 6 6.3 6 13 l 0 5.5 56.8 0 c 53.1 0 56.9 0.1 59.7 1.8 2.9 1.8 3.1 1.8 6 0 2.8 -1.7 6.5 -1.8 57.8 -1.8 47 0 55.2 0.2 57.7 1.5 3 1.6 6 6.1 6 9.1 0 1.1 0.5 1.4 1.8 0.9 5.1 -2 23 -6.5 31.2 -7.9 18.7 -3.1 29.3 -3.6 89.3 -3.6 65.6 0 64.9 -0.1 67.9 5.3 1 1.7 1.4 28.4 1.8 127.9 0.5 117.4 0.6 125.8 2.2 127.5 1.3 1.3 4 1.8 11 2.1 5.1 0.2 10.5 1.1 12 1.8 5.9 3 5.8 2.3 5.8 61.4 0 59.5 0.1 58.3 -6.1 61.6 -4.6 2.3 -65.5 1.6 -74.4 -1 -8.6 -2.5 -25.6 -10.8 -33.2 -16.2 -18.7 -13.3 -33.9 -35.2 -40.5 -58.2 -2.2 -7.7 -2.2 -8.2 -2.6 -95.9 l -0.3 -88.2 -3.2 0.6 c -21.3 4 -34.4 9.8 -44.3 19.7 -8.1 8.1 -10.4 12 -13.9 24.1 -4 13.9 -4.5 27.5 -4.5 120.7 0 95.4 0.3 91.1 -6 94.3 -2.5 1.3 -10.7 1.5 -57.7 1.5 -51.3 0 -55 -0.1 -57.8 -1.8 -2.9 -1.8 -3.1 -1.8 -6 0 -2.7 1.6 -5.8 1.8 -34.1 1.8 -34.8 0 -43.4 -0.9 -56.3 -6.1 -10.9 -4.3 -18.5 -9.3 -27.4 -17.8 -16 -15.3 -26.2 -36.3 -30.1 -62.1 -1.2 -8.2 -3.6 -37.1 -3.6 -44.7 0 -1 -6.3 -1.3 -27.9 -1.3 l -27.9 0 -0.4 23.8 c -0.4 20.2 -0.8 24.9 -2.6 31.7 -2.7 10.1 -11.5 28 -18 36.5 -14.3 18.9 -37.7 33.8 -60.4 38.4 -11.1 2.3 -65.5 2.3 -69.8 0.1 -6.1 -3.2 -6 -2.2 -6 -61.5 0 -59.1 -0.1 -58.4 5.8 -61.3 1.5 -0.8 6.9 -1.7 12.1 -2 6.7 -0.4 9.9 -1.1 11 -2.2 1.4 -1.4 1.6 -8.9 1.9 -68 l 0.3 -66.4 -11.8 -0.3 c -6.5 -0.2 -12.5 -0.7 -13.4 -1.1 -1.5 -0.8 -1.7 1.6 -2.2 25.5 -0.6 30.9 -1.7 37.2 -9.7 53.3 -8.7 17.6 -20.4 29.4 -38 38.4 -23.5 12 -50.1 16.1 -105.6 16.1 l -29.4 0 0 61 c 0 67 0.1 65.3 -6 68.5 -4.4 2.3 -109.6 2.3 -114 0 -6.2 -3.2 -6 -1.4 -6 -69 l 0 -61.5 -10.5 0 c -11.9 0 -15.5 -1.2 -18 -6 -2.3 -4.4 -2.3 -108.6 0 -113 2.5 -4.8 6.1 -6 18 -6 l 10.5 0 0 -3 0 -3 -10.7 0 c -9 0 -11.3 -0.3 -14 -2 -3.3 -2 -3.3 -2 -6.5 0 -2.8 1.7 -5.1 2 -14.5 2 l -11.3 0 0 64.4 c 0 35.4 0.3 65.7 0.6 67.4 0.8 3.9 1.9 4.3 12.9 4.9 5 0.3 10.2 1.2 11.7 1.9 5.9 3 5.8 2.3 5.8 61.4 0 59.3 0.1 58.3 -6 61.5 -4.2 2.2 -60.8 2.2 -73.5 0 -16.9 -3 -31 -10.2 -43.8 -22.4 -16 -15.3 -26.2 -36.3 -30.1 -62.1 -1.2 -8.2 -3.6 -37.1 -3.6 -44.7 0 -1 -6.3 -1.3 -27.9 -1.3 l -27.9 0 -0.4 23.8 c -0.4 20.2 -0.8 24.9 -2.6 31.7 -2.7 10.1 -11.5 28 -18 36.5 -14.3 18.9 -37.7 33.8 -60.4 38.4 -11.1 2.3 -65.5 2.3 -69.8 0.1 -6.1 -3.2 -6 -2.2 -6 -61.5 0 -59.1 -0.1 -58.4 5.8 -61.3 1.5 -0.8 6.9 -1.7 12.1 -2 6.7 -0.4 9.9 -1.1 11 -2.2 1.4 -1.4 1.6 -8.9 1.9 -68 l 0.3 -66.5 -11.1 0 c -8 0 -11.9 -0.4 -14 -1.5 l -3 -1.6 0 53.3 c 0 62.5 -0.8 72.3 -7.7 94.3 -3.6 11.4 -13.2 31.2 -20.8 42.5 -11 16.6 -30.3 35.3 -47.8 46.4 -15.4 9.7 -38.3 19.6 -56.1 24.1 -20.6 5.2 -52.5 7.4 -58.8 3.9 z  m 1254.2 -192.9 c 0 -69.5 0 -70.6 -1.9 -69.5 -1.1 0.5 -6.9 1 -13 1 l -11.1 0 0 64.4 c 0 35.4 0.3 65.7 0.6 67.4 0.8 3.9 1.9 4.3 12.9 4.9 5 0.3 9.7 0.9 10.5 1.4 0.8 0.5 1.6 0.9 1.8 0.9 0.1 0 0.2 -31.7 0.2 -70.5 z  m -487 -60.5 l 0 -8 -28.5 0 -28.5 0 0 8 0 8 28.5 0 28.5 0 0 -8 z  m -366 -5.5 l 0 -2.5 -28 0 -28 0 0 2.5 0 2.5 28 0 28 0 0 -2.5 z  m 701 0 l 0 -2.5 -28 0 -28 0 0 2.5 0 2.5 28 0 28 0 0 -2.5 z "/>
 </g>
 <g fill="#ffffff">
  <path d="M 900.8 843.4 c -5.9 -3.2 -5.8 -1.6 -5.8 -68.9 l 0 -61.5 -10.5 0 c -7.5 0 -11.5 -0.4 -13.5 -1.5 -6.1 -3.2 -6 -2.2 -6 -61 0 -58.8 -0.1 -57.8 6 -61 2 -1.1 6 -1.5 13.5 -1.5 l 10.5 0 0 -3 0 -3 -10.5 0 c -7.5 0 -11.5 -0.4 -13.5 -1.5 -6.1 -3.2 -6 -2.2 -6 -61.5 0 -46.4 0.2 -54.5 1.5 -57 3.3 -6.4 -8.5 -6 168.2 -6 153.9 0 160.9 0.1 163.8 1.8 2.9 1.8 3.1 1.8 6 0 2.9 -1.7 9.9 -1.8 164 -1.8 158.7 0 161 0 164.3 2 3.2 2 3.2 2 6.5 0 3.2 -2 5.5 -2 164 -2 141.8 0 161.1 0.2 163.7 1.5 6.2 3.2 6 1.2 6 71.7 0 62.3 -0.1 64.4 -2 67.6 -2 3.2 -2 3.2 0 6.5 2 3.1 2 5.3 2 118 0 126.1 0.3 118.9 -6 122.2 -4.2 2.2 -113.3 2.2 -128.9 0 -42.4 -6 -83.7 -27 -114.6 -58 -6 -6.1 -13.5 -14.5 -16.7 -18.6 -18.6 -24.5 -33.2 -55.8 -38.7 -83.4 -3.2 -16.2 -4.1 -28.9 -4.1 -61 l 0 -30.4 -11.2 -0.3 c -6.2 -0.2 -12 -0.7 -12.9 -1.1 -1.5 -0.7 -1.7 1.3 -2.2 20.5 -0.6 25.4 -2.2 33.1 -9.7 48.3 -8.7 17.6 -20.3 29.4 -38 38.4 -23.4 12 -50.1 16.1 -105.6 16.1 l -29.4 0 0 61 c 0 67 0.1 65.3 -6 68.5 -2.5 1.3 -10.6 1.5 -57 1.5 -46.4 0 -54.5 -0.2 -57 -1.5 -6.2 -3.2 -6 -1.4 -6 -69 l 0 -61.5 -10.5 0 c -11.9 0 -15.5 -1.2 -18 -6 -1.2 -2.4 -1.5 -8.1 -1.5 -33.2 l 0 -30.3 -4.5 9.3 c -6.4 13.4 -12.1 21.5 -21.7 30.8 -11.5 11.2 -23.3 18.7 -37.3 23.8 -1.8 0.7 -1.4 1.3 3.5 5.7 10.2 9.2 23.6 14 44.5 15.8 6.5 0.6 12.7 1.7 14.4 2.6 6.2 3.1 6.1 2.6 6.1 56 0 53.3 0 52.9 -6 56 -5.9 3.1 -32.7 1.8 -55 -2.6 -24.1 -4.8 -54 -17.8 -72.5 -31.6 -18.1 -13.6 -34.3 -32.6 -44.7 -52.4 l -4.8 -9 0 44.1 c 0 48.4 0 48.4 -6 51.5 -4.3 2.2 -110.1 2.2 -114.2 -0.1 z  m 108.2 -76.4 l 0 -66 5.9 0 c 6.7 0 6.2 -0.6 8.1 9.5 9.3 47.6 44.3 89 91.1 107.8 20.3 8.2 39.7 12.2 68.2 14.2 l 8.7 0.6 0 -45.4 0 -45.4 -10.7 -0.6 c -23 -1.4 -39.6 -8 -52.3 -20.7 -7.6 -7.5 -15.3 -20.2 -13.4 -21.9 0.5 -0.4 3.8 -1.3 7.4 -2 13.8 -2.7 27.5 -10.1 39.4 -21.2 9.6 -8.9 15.3 -16.9 21.2 -29.4 8.4 -17.7 8.4 -17 8.4 -103.2 l 0 -75.3 -156.5 0 -156.5 0 0 51 0 51 15 0 15 0 0 15.5 0 15.5 -15 0 -15 0 0 50 0 50 15 0 15 0 0 66 0 66 50.5 0 50.5 0 0 -66 z  m 334 0 l 0 -66 35.8 0 c 38.1 0 51.9 -0.8 70.2 -4.1 15.6 -2.7 23.9 -5.3 34 -10.5 16.1 -8.3 26.7 -19.1 34 -34.9 7.6 -16.2 7.3 -12.5 7.7 -102.7 l 0.4 -80.8 -156.6 0 -156.5 0 0 51 0 51 15 0 15 0 0 15 0 15 -15 0 -15 0 0 50.5 0 50.5 15 0 15 0 0 66 0 66 50.5 0 50.5 0 0 -66 z  m 517 -45 l 0 -111 -65.5 0 -65.5 0 0 45 0 45 15 0 15 0 0 15 0 15 -2.3 0 c -8.1 0 -29.1 -8 -39.3 -15.1 -13.7 -9.4 -26.6 -25.5 -32.9 -41.1 -6.1 -15 -6.5 -19.2 -6.5 -64.3 l 0 -40.5 40.5 0 40.5 0 0 10 0 10 50.5 0 50.5 0 0 -61 0 -61 -156.5 0 -156.5 0 0 55.5 0 55.5 15 0 15 0 0 36.8 c 0 46.6 1.6 60.6 9.4 84.5 24 73.2 91.4 126.1 167.6 131.6 5.8 0.5 32 0.9 58.3 1 l 47.7 0.1 0 -111 z  m -142.2 -118.7 c 2.4 -4.3 6.2 -5.3 19.3 -5.3 11.2 0 12.1 -0.1 11.3 -1.7 -0.4 -1 -1 -4.6 -1.2 -8 l -0.4 -6.3 -28.4 0 -28.4 0 0 27.3 c 0 14.9 0.5 31.4 1 36.5 1.9 17.5 9.4 34.8 20.7 47.3 l 3.8 4.2 0.5 -45.9 c 0.4 -34.7 0.8 -46.4 1.8 -48.1 z  m -499.4 -15.3 l 10.6 0 0 -3 0 -3 -10.6 0 c -5.8 0 -11.4 -0.5 -12.5 -1 -1.8 -1 -1.9 -0.7 -1.9 4 0 4.7 0.1 5 1.9 4 1.1 -0.5 6.7 -1 12.5 -1 z "/>
  <path d="M 1009 590 l 0 -20 40.5 0 40.5 0 0 20 0 20 -40.5 0 -40.5 0 0 -20 z  m 69 0 l 0 -8 -28.5 0 -28.5 0 0 8 0 8 28.5 0 28.5 0 0 -8 z "/>
  <path d="M 1343 590 l 0 -20 40.5 0 40.5 0 0 20 0 20 -40.5 0 -40.5 0 0 -20 z  m 69 0 l 0 -8 -28.5 0 -28.5 0 0 8 0 8 28.5 0 28.5 0 0 -8 z "/>
  <path d="M 11.8 413.4 c -5.9 -3.1 -5.8 -2.3 -5.8 -61.4 0 -59.7 -0.1 -58.3 6.3 -61.6 1.8 -1 7.2 -2.1 12.2 -2.5 27.6 -2.5 44 -13.7 50.3 -34.4 1.3 -4.1 1.6 -13.6 1.9 -53.2 l 0.4 -48.3 -31.1 0 c -34.2 0 -35.5 -0.2 -38.5 -6 -2.3 -4.4 -2.3 -109.6 0 -114 3.2 -6.3 -1.4 -6 97.2 -6 87.8 0 89.9 0.1 93.1 2 1.7 1.1 3.2 2.5 3.2 3.2 0 0.8 0.5 0.5 1.1 -0.5 2.7 -4.7 3.2 -4.7 63.4 -4.7 l 56.5 0 0 -5.5 c 0 -6.7 2 -10.9 6 -13 4.4 -2.3 109.6 -2.3 114 0 4 2.1 6 6.3 6 13 l 0 5.5 56.8 0 c 54.8 0 56.8 0.1 60 2 3.2 2 3.2 2 6.5 0 3.2 -2 5.5 -2 164.2 -2 158.7 0 161 0 164.3 2 3.2 2 3.2 2 6.5 0 3.1 -1.9 5.1 -2 60 -2 l 56.7 0 0 -5.5 c 0 -6.7 2 -10.9 6 -13 4.4 -2.3 109.6 -2.3 114 0 4 2.1 6 6.3 6 13 l 0 5.5 56.8 0 c 53.1 0 56.9 0.1 59.7 1.8 2.9 1.8 3.1 1.8 6 0 2.8 -1.7 6.5 -1.8 57.8 -1.8 47 0 55.2 0.2 57.7 1.5 3 1.6 6 6.1 6 9.1 0 1.1 0.5 1.4 1.8 0.9 5.1 -2 23 -6.5 31.2 -7.9 18.7 -3.1 29.3 -3.6 89.3 -3.6 65.6 0 64.9 -0.1 67.9 5.3 1 1.7 1.4 28.4 1.8 127.9 0.5 117.4 0.6 125.8 2.2 127.5 1.3 1.3 4 1.8 11 2.1 5.1 0.2 10.5 1.1 12 1.8 5.9 3 5.8 2.3 5.8 61.4 0 59.5 0.1 58.3 -6.1 61.6 -4.6 2.3 -65.5 1.6 -74.4 -1 -8.6 -2.5 -25.6 -10.8 -33.2 -16.2 -18.7 -13.3 -33.9 -35.2 -40.5 -58.2 -2.2 -7.7 -2.2 -8.2 -2.6 -95.9 l -0.3 -88.2 -3.2 0.6 c -21.3 4 -34.4 9.8 -44.3 19.7 -8.1 8.1 -10.4 12 -13.9 24.1 -4 13.9 -4.5 27.5 -4.5 120.7 0 95.4 0.3 91.1 -6 94.3 -2.5 1.3 -10.7 1.5 -57.7 1.5 -51.3 0 -55 -0.1 -57.8 -1.8 -2.9 -1.8 -3.1 -1.8 -6 0 -2.7 1.6 -5.8 1.8 -34.1 1.8 -34.8 0 -43.4 -0.9 -56.3 -6.1 -10.9 -4.3 -18.5 -9.3 -27.4 -17.8 -16 -15.3 -26.2 -36.3 -30.1 -62.1 -1.2 -8.2 -3.6 -37.1 -3.6 -44.7 0 -1 -6.3 -1.3 -27.9 -1.3 l -27.9 0 -0.4 23.8 c -0.4 20.2 -0.8 24.9 -2.6 31.7 -2.7 10.1 -11.5 28 -18 36.5 -14.3 18.9 -37.7 33.8 -60.4 38.4 -11.1 2.3 -65.5 2.3 -69.8 0.1 -6.1 -3.2 -6 -2.2 -6 -61.5 0 -59.1 -0.1 -58.4 5.8 -61.3 1.5 -0.8 6.9 -1.7 12.1 -2 6.7 -0.4 9.9 -1.1 11 -2.2 1.4 -1.4 1.6 -8.9 1.9 -68 l 0.3 -66.4 -11.8 -0.3 c -6.5 -0.2 -12.5 -0.7 -13.4 -1.1 -1.5 -0.8 -1.7 1.6 -2.2 25.5 -0.6 30.9 -1.7 37.2 -9.7 53.3 -8.7 17.6 -20.4 29.4 -38 38.4 -23.5 12 -50.1 16.1 -105.6 16.1 l -29.4 0 0 61 c 0 67 0.1 65.3 -6 68.5 -4.4 2.3 -109.6 2.3 -114 0 -6.2 -3.2 -6 -1.4 -6 -69 l 0 -61.5 -10.5 0 c -11.9 0 -15.5 -1.2 -18 -6 -2.3 -4.4 -2.3 -108.6 0 -113 2.5 -4.8 6.1 -6 18 -6 l 10.5 0 0 -3 0 -3 -10.7 0 c -9 0 -11.3 -0.3 -14 -2 -3.3 -2 -3.3 -2 -6.5 0 -2.8 1.7 -5.1 2 -14.5 2 l -11.3 0 0 64.4 c 0 35.4 0.3 65.7 0.6 67.4 0.8 3.9 1.9 4.3 12.9 4.9 5 0.3 10.2 1.2 11.7 1.9 5.9 3 5.8 2.3 5.8 61.4 0 59.3 0.1 58.3 -6 61.5 -4.2 2.2 -60.8 2.2 -73.5 0 -16.9 -3 -31 -10.2 -43.8 -22.4 -16 -15.3 -26.2 -36.3 -30.1 -62.1 -1.2 -8.2 -3.6 -37.1 -3.6 -44.7 0 -1 -6.3 -1.3 -27.9 -1.3 l -27.9 0 -0.4 23.8 c -0.4 20.2 -0.8 24.9 -2.6 31.7 -2.7 10.1 -11.5 28 -18 36.5 -14.3 18.9 -37.7 33.8 -60.4 38.4 -11.1 2.3 -65.5 2.3 -69.8 0.1 -6.1 -3.2 -6 -2.2 -6 -61.5 0 -59.1 -0.1 -58.4 5.8 -61.3 1.5 -0.8 6.9 -1.7 12.1 -2 6.7 -0.4 9.9 -1.1 11 -2.2 1.4 -1.4 1.6 -8.9 1.9 -68 l 0.3 -66.5 -11.1 0 c -8 0 -11.9 -0.4 -14 -1.5 l -3 -1.6 0 53.3 c 0 62.5 -0.8 72.3 -7.7 94.3 -3.6 11.4 -13.2 31.2 -20.8 42.5 -11 16.6 -30.3 35.3 -47.8 46.4 -15.4 9.7 -38.3 19.6 -56.1 24.1 -20.6 5.2 -52.5 7.4 -58.8 3.9 z  m 27.2 -11.9 c 11.6 -1 27.2 -4.3 39.9 -8.5 57.2 -18.8 95.1 -60.1 108.3 -117.9 2.2 -9.5 2.2 -10.5 2.5 -123.3 l 0.4 -113.8 -85.6 0 -85.5 0 0 51 0 51 35.6 0 35.6 0 -0.4 55.8 c -0.4 48.1 -0.7 56.5 -2.1 61.5 -6.3 21.8 -23.3 36.7 -47.7 41.7 -5.2 1.1 -12.1 2 -15.2 2 l -5.8 0 0 51.1 0 51.1 6.3 -0.6 c 3.4 -0.3 9.6 -0.8 13.7 -1.1 z  m 224.2 0.5 c 26 -3 50.3 -17.4 64.8 -38.5 4.7 -6.8 10.7 -19.5 13.1 -27.6 2 -6.7 2.3 -10.2 2.6 -36.1 l 0.5 -28.8 40.9 0 40.9 0 0 8.6 c 0 12.3 1.8 36.4 3.6 46.9 7 42 29.5 67.6 65.9 74.6 3.3 0.6 18.5 1.3 33.8 1.6 l 27.7 0.6 0 -51.2 0 -51.1 -8.8 0 c -11 0 -16.5 -2.4 -19.6 -8.5 -2.1 -3.9 -2.1 -5.5 -2.4 -78.2 l -0.2 -74.3 15.5 0 15.5 0 0 -51 0 -51 -61 0 -61 0 0 -10 0 -10 -50 0 -50 0 0 10 0 10 -61 0 -61 0 0 51 0 51 15 0 15 0 -0.2 75.4 c -0.3 74.4 -0.3 75.5 -2.4 78.2 -4.3 5.9 -6.8 6.9 -17.5 7.2 l -9.9 0.4 0 50.9 0 50.9 20.8 0 c 11.4 0 24.6 -0.5 29.4 -1 z  m 446.8 -65 l 0 -66 35.8 0 c 38.1 0 51.9 -0.8 70.2 -4.1 15.6 -2.7 23.9 -5.3 34 -10.5 16.1 -8.3 26.7 -19.1 34 -34.9 7.6 -16.2 7.3 -12.5 7.7 -102.7 l 0.4 -80.8 -156.6 0 -156.5 0 0 51 0 51 15 0 15 0 0 15 0 15 -15 0 -15 0 0 50.5 0 50.5 15 0 15 0 0 66 0 66 50.5 0 50.5 0 0 -66 z  m 254.2 65 c 26 -3 50.3 -17.4 64.8 -38.5 4.7 -6.8 10.7 -19.5 13.1 -27.6 2 -6.7 2.3 -10.2 2.6 -36.1 l 0.5 -28.8 40.9 0 40.9 0 0 8.6 c 0 12.3 1.8 36.4 3.6 46.9 7 42 29.5 67.6 65.9 74.6 3.3 0.6 18.5 1.3 33.8 1.6 l 27.7 0.6 0 -51.2 0 -51.1 -8.8 0 c -11 0 -16.5 -2.4 -19.6 -8.5 -2.1 -3.9 -2.1 -5.5 -2.4 -78.2 l -0.2 -74.3 15.5 0 15.5 0 0 -51 0 -51 -61 0 -61 0 0 -10 0 -10 -50 0 -50 0 0 10 0 10 -61 0 -61 0 0 51 0 51 15 0 15 0 -0.2 75.4 c -0.3 74.4 -0.3 75.5 -2.4 78.2 -4.3 5.9 -6.8 6.9 -17.5 7.2 l -9.9 0.4 0 50.9 0 50.9 20.8 0 c 11.4 0 24.6 -0.5 29.4 -1 z  m 415.8 -83.2 c 0 -88.7 0.7 -107.9 4 -121.8 7.6 -31.2 29.8 -48.8 70 -55.3 5.2 -0.9 11.4 -1.9 13.8 -2.2 l 4.2 -0.7 0 90.9 c 0.1 97.5 0.1 98.5 5.3 112.5 4.6 12.8 10.5 21.6 21.7 32.8 11 11 19 16.5 31.1 21.3 13 5.2 17.6 5.8 46.2 6.4 l 26.7 0.5 0 -50.4 0 -50.5 -9.2 -0.7 c -11 -0.7 -15.4 -2.7 -18.5 -8.2 l -2.3 -3.9 0 -125.7 0 -125.8 -48.2 0 c -26.6 0 -55.5 0.5 -64.3 1 -27.6 1.7 -50 6.5 -72.1 15.5 l -8.4 3.3 0 -9.9 0 -9.9 -50.5 0 -50.5 0 0 182.5 0 182.5 50.5 0 50.5 0 0 -84.2 z  m -114 -98.3 c 0 -69.5 0 -70.6 -1.9 -69.5 -1.1 0.5 -6.9 1 -13 1 l -11.1 0 0 64.4 c 0 35.4 0.3 65.7 0.6 67.4 0.8 3.9 1.9 4.3 12.9 4.9 5 0.3 9.7 0.9 10.5 1.4 0.8 0.5 1.6 0.9 1.8 0.9 0.1 0 0.2 -31.7 0.2 -70.5 z "/>
  <path d="M 344 154.5 l 0 -14.5 41 0 41 0 0 14.5 0 14.5 -41 0 -41 0 0 -14.5 z  m 69 0 l 0 -2.5 -28 0 -28 0 0 2.5 0 2.5 28 0 28 0 0 -2.5 z "/>
  <path d="M 710 160 l 0 -20 40.5 0 40.5 0 0 20 0 20 -40.5 0 -40.5 0 0 -20 z  m 69 0 l 0 -8 -28.5 0 -28.5 0 0 8 0 8 28.5 0 28.5 0 0 -8 z "/>
  <path d="M 1045 154.5 l 0 -14.5 41 0 41 0 0 14.5 0 14.5 -41 0 -41 0 0 -14.5 z  m 69 0 l 0 -2.5 -28 0 -28 0 0 2.5 0 2.5 28 0 28 0 0 -2.5 z "/>
 </g>
</svg>