<?xml version="1.0" encoding="utf-8"?>
<!DOCTYPE svg PUBLIC "-//W3C//DTD SVG 20010904//EN" "http://www.w3.org/TR/2001/REC-SVG-20010904/DTD/svg10.dtd">
<svg version="1.0" xmlns="http://www.w3.org/2000/svg" width="1962px" height="1080px" viewBox="0 0 1962 1080" preserveAspectRatio="xMidYMid meet">
   <defs>
      <radialGradient id="rg0" gradientUnits="userSpaceOnUse" cx="93.93476%" cy="70.92593%" r="1.27421%" >
         <stop offset="0%" style="stop-color:rgb(255,255,255);"></stop>
         <stop offset="20%" style="stop-color:rgb(254,255,255);"></stop>
         <stop offset="24%" style="stop-color:rgb(252,255,255);"></stop>
         <stop offset="28%" style="stop-color:rgb(247,255,255);"></stop>
         <stop offset="32%" style="stop-color:rgb(236,254,255);"></stop>
         <stop offset="44%" style="stop-color:rgb(179,251,254);"></stop>
         <stop offset="52%" style="stop-color:rgb(144,247,254);"></stop>
         <stop offset="100%" style="stop-color:rgb(142,254,255);"></stop>
      </radialGradient>
      <radialGradient id="rg1" gradientUnits="userSpaceOnUse" cx="61.36595%" cy="42.5%" r="3.7716615%" >
         <stop offset="0%" style="stop-color:rgb(254,255,255);"></stop>
         <stop offset="8%" style="stop-color:rgb(252,254,255);"></stop>
         <stop offset="14%" style="stop-color:rgb(243,251,254);"></stop>
         <stop offset="27%" style="stop-color:rgb(195,232,254);"></stop>
         <stop offset="72%" style="stop-color:rgb(59,203,253);"></stop>
         <stop offset="78%" style="stop-color:rgb(14,218,254);"></stop>
         <stop offset="100%" style="stop-color:rgb(5,221,255);"></stop>
      </radialGradient>
      <radialGradient id="rg2" gradientUnits="userSpaceOnUse" cx="93.37411%" cy="39.814816%" r="3.465851%" >
         <stop offset="0%" style="stop-color:rgb(255,255,255);"></stop>
         <stop offset="12%" style="stop-color:rgb(251,254,255);"></stop>
         <stop offset="69%" style="stop-color:rgb(84,210,254);"></stop>
         <stop offset="76%" style="stop-color:rgb(92,223,255);"></stop>
         <stop offset="100%" style="stop-color:rgb(92,224,255);"></stop>
      </radialGradient>
      <radialGradient id="rg3" gradientUnits="userSpaceOnUse" cx="59.53109%" cy="73.05556%" r="1.8348624%" >
         <stop offset="0%" style="stop-color:rgb(255,255,255);"></stop>
         <stop offset="11%" style="stop-color:rgb(252,254,255);"></stop>
         <stop offset="17%" style="stop-color:rgb(244,254,255);"></stop>
         <stop offset="31%" style="stop-color:rgb(204,251,255);"></stop>
         <stop offset="36%" style="stop-color:rgb(183,249,254);"></stop>
         <stop offset="50%" style="stop-color:rgb(106,236,254);"></stop>
         <stop offset="61%" style="stop-color:rgb(86,239,254);"></stop>
         <stop offset="69%" style="stop-color:rgb(74,230,255);"></stop>
         <stop offset="100%" style="stop-color:rgb(74,230,255);"></stop>
      </radialGradient>
      <linearGradient id="lg4" gradientUnits="userSpaceOnUse" x1="28.797146%" y1="25.0%" x2="28.797146%" y2="79.81481%">
         <stop offset="0%" style="stop-color:rgb(0,0,0);"></stop>
         <stop offset="1%" style="stop-color:rgb(53,191,253);"></stop>
         <stop offset="2%" style="stop-color:rgb(50,174,251);"></stop>
         <stop offset="3%" style="stop-color:rgb(48,164,246);"></stop>
         <stop offset="4%" style="stop-color:rgb(51,166,247);"></stop>
         <stop offset="5%" style="stop-color:rgb(57,174,249);"></stop>
         <stop offset="9%" style="stop-color:rgb(53,172,248);"></stop>
         <stop offset="12%" style="stop-color:rgb(72,180,246);"></stop>
         <stop offset="18%" style="stop-color:rgb(85,181,245);"></stop>
         <stop offset="20%" style="stop-color:rgb(91,187,245);"></stop>
         <stop offset="26%" style="stop-color:rgb(102,184,241);"></stop>
         <stop offset="28%" style="stop-color:rgb(112,191,247);"></stop>
         <stop offset="34%" style="stop-color:rgb(123,195,249);"></stop>
         <stop offset="48%" style="stop-color:rgb(180,230,252);"></stop>
         <stop offset="50%" style="stop-color:rgb(182,226,249);"></stop>
         <stop offset="57%" style="stop-color:rgb(200,241,254);"></stop>
         <stop offset="60%" style="stop-color:rgb(213,240,254);"></stop>
         <stop offset="62%" style="stop-color:rgb(211,238,254);"></stop>
         <stop offset="67%" style="stop-color:rgb(227,247,254);"></stop>
         <stop offset="69%" style="stop-color:rgb(228,248,254);"></stop>
         <stop offset="72%" style="stop-color:rgb(241,252,254);"></stop>
         <stop offset="74%" style="stop-color:rgb(247,250,253);"></stop>
         <stop offset="76%" style="stop-color:rgb(241,248,253);"></stop>
         <stop offset="79%" style="stop-color:rgb(252,253,253);"></stop>
         <stop offset="100%" style="stop-color:rgb(255,255,255);"></stop>
      </linearGradient>
   </defs>
 <g fill="#000000">
  <path d="M1246.3 1068.9 c-1.8 -1.8 -1.6 -3.2 1.3 -11.8 4.1 -11.9 3.3 -15.3 -7.9 -32 -3.9 -5.8 -10.1 -11.6 -13.9 -13.1 -7.1 -2.5 -11.9 -5.1 -16.4 -8.5 -7 -5.3 -12 -7.6 -19.1 -8.6 -7.6 -1.1 -13.1 -3 -28.4 -9.7 -15.3 -6.8 -18.6 -7.3 -29.2 -3.6 -11.2 3.8 -17.3 3.8 -25.4 -0.3 -7.5 -3.7 -16.2 -10.3 -16.3 -12.1 0 -0.8 2.6 -4.3 5.8 -7.8 18.1 -20.1 21.7 -53.1 7.2 -66.9 l-3.1 -3 -35.7 -0.7 c-19.6 -0.3 -197.5 -0.7 -395.2 -0.8 -197.7 0 -425.4 -0.5 -506 -1 -143.9 -0.8 -146.6 -0.8 -151.1 -2.8 -3.8 -1.7 -4.9 -2.7 -5.9 -5.8 -1.6 -4.8 -0.7 -16.3 2 -26.4 1.2 -4.1 3 -16.5 4 -27.5 1.1 -11 2.7 -22.2 3.5 -25 0.9 -2.7 2.5 -12.2 3.6 -21 2.4 -19.1 3.9 -26.4 7.9 -41 5 -18.3 7 -27.2 8.1 -37.4 0.5 -5.3 2.5 -17.9 4.4 -28.1 1.8 -10.2 3.9 -23 4.5 -28.5 0.6 -5.5 2.1 -13.6 3.2 -18 3.5 -13.6 4.7 -20.8 4.8 -27.2 0 -6.3 0.7 -10.6 4 -24.8 1 -4.4 2.6 -14.1 3.5 -21.5 1.7 -14.7 3.6 -24.6 6 -32.7 0.8 -2.8 2 -10.7 2.5 -17.5 0.5 -6.8 2.1 -16.8 3.4 -22.3 1.3 -5.5 3.4 -16.5 4.6 -24.5 1.2 -8 3 -17 4.1 -20 1.1 -3 2.9 -9.5 4 -14.4 3 -12.6 4.3 -15.2 9.5 -18.9 11.8 -8.3 35.3 -19.7 40.7 -19.7 1.2 0 10.4 -4.1 20.6 -9.1 27.8 -13.8 48 -22.9 50.5 -22.9 1.5 0 10.7 -3.7 20.3 -8.1 12 -5.5 14.9 -6.7 20.9 -8.2 3.3 -0.9 12.2 -4.5 19.9 -8 7.7 -3.6 16.8 -7.2 20.2 -8.1 3.5 -0.9 10.9 -3.8 16.5 -6.5 14.2 -6.7 17.2 -7.9 25.7 -10.2 4 -1.1 9 -2.9 11.2 -3.9 2.1 -1.1 7.3 -2.9 11.6 -3.9 4.3 -1.1 10.3 -2.7 13.4 -3.6 l5.5 -1.7 12.4 4.1 c6.8 2.3 14.2 5.5 16.4 7 4.5 3.1 21.6 19.3 51.1 48.3 l19 18.8 10.8 0 c7.5 0 11.9 -0.5 14.4 -1.5 5.5 -2.3 22.8 -20.2 24.3 -25.1 1.7 -5.9 2.5 -28 1.1 -34.4 -0.9 -4.4 -2.5 -7.2 -7.9 -13.9 -9 -11.3 -14.1 -18.6 -15.8 -22.7 -1.3 -3 -1.2 -3.8 0.1 -6.4 0.8 -1.6 1.5 -3.5 1.5 -4.3 0 -0.9 2 -2 4.8 -2.8 3.9 -1.2 23.3 -1.4 111.9 -1.2 112.2 0.2 127.4 0.7 135.9 4.3 2.7 1.2 7.8 3 11.4 4 6 1.8 28.1 9.4 34 11.8 7.1 2.8 28 13.1 39.3 19.4 11.3 6.3 16.7 10.4 16.7 12.9 0 2.8 -11.5 5.7 -28.4 6.9 -14.9 1.2 -18.2 2.2 -21.5 6.9 -2.7 3.8 -2.6 5 0.4 8.4 5.8 6.1 14.9 12 35.5 22.9 17.2 9.1 22.4 12 30.5 16.9 7.4 4.5 8.8 5 18.1 6 7.6 0.9 16 1 34.5 0.1 26.7 -1.2 30.5 -1.9 42.4 -8.6 7.2 -3.9 8.7 -6.4 8.2 -13.2 -0.5 -7.6 -2.3 -9.8 -38.3 -46.6 -15.9 -16.3 -24.4 -26.7 -24.4 -29.9 0 -2.4 -2 -3.4 -10.5 -5.4 -7.1 -1.6 -9.9 -3.1 -8.9 -4.6 1.4 -2.4 10 -0.8 36.4 6.8 5.8 1.7 15 4.2 20.5 5.6 5.5 1.4 12 3.3 14.5 4.2 2.5 0.9 9 2.5 14.5 3.5 5.5 1 12 2.6 14.5 3.5 2.5 1 7.9 2.4 12 3.2 12.4 2.4 44 11.7 49.8 14.7 1.5 0.8 5.7 2.2 9.2 3.1 3.6 0.9 10.6 3.1 15.5 5 5 1.9 13.5 4.8 19 6.5 5.5 1.7 14.1 4.5 19 6.2 5 1.6 13.9 4.5 19.8 6.4 5.9 1.9 12.5 4.3 14.5 5.3 2 1.1 6.4 2.5 9.7 3.2 7.5 1.4 191.2 93 202 100.7 6 4.2 22.7 18.3 27.5 23.2 8 8.1 28.6 25.8 37.6 32.3 6.8 4.9 11 9.6 23.3 26.1 13.4 17.9 23.6 28.6 27.4 28.6 1.8 0 2.7 -0.5 2.7 -1.6 0 -0.8 -2.9 -10.1 -6.5 -20.7 -10.3 -30.7 -17.3 -54.8 -24.9 -85.8 -2.6 -10.2 -7.6 -27.1 -11.1 -37.5 -6.9 -19.9 -9.9 -33.2 -8.6 -37.9 0.4 -1.6 1.9 -3.8 3.4 -4.9 2.5 -1.9 2.9 -1.9 6.1 -0.3 10.1 4.7 22.9 37.4 35.7 90.7 6.1 25.5 26.4 83.8 33 94.8 6.5 10.9 10.7 11.9 18.1 4.2 4.7 -4.9 12.3 -19 15.3 -28.5 0.7 -2.2 4.7 -13.2 9 -24.5 11 -29.3 15.1 -41.4 17 -50 0.9 -4.1 3.4 -12.7 5.5 -19 2.1 -6.3 5.5 -17.6 7.5 -25 6 -22.7 10.4 -33.9 14.9 -38.8 4 -4.5 12.3 -6.5 16.7 -4.2 3.7 2 2.4 11 -4.6 33 -4.2 13 -8.7 28.8 -11.4 40 -3.1 12.8 -9.1 30.7 -18.6 55 -10.1 26 -20.3 55.7 -21.2 61.7 -0.8 6 0.6 7.3 7.7 7.3 5.3 0 6 -0.3 8.6 -3.3 1.6 -1.8 7.8 -13 13.8 -25 l10.8 -21.7 50.2 -49.6 c45.4 -45 50.9 -50.1 59.1 -55 5 -2.9 10.6 -6.8 12.5 -8.6 4.1 -3.9 10.6 -7.2 17.5 -8.8 3.1 -0.7 9.1 -3.7 15.5 -7.9 5.8 -3.8 14.6 -9 19.5 -11.6 10.5 -5.6 17.3 -9.9 23.9 -14.9 2.6 -2 5.2 -3.6 5.7 -3.6 1.2 0 10.4 -6 17.1 -11.3 4.9 -3.8 6.7 -4.6 13.5 -5.6 8.3 -1.4 12.9 -2.5 26.3 -6.5 13.8 -4.1 20.8 -3.5 35.5 3.4 15 7 21.2 12.9 27.5 26.5 6 13 8.4 18.5 10.7 25 4.2 11.4 9.8 22.9 15.6 31.8 9.4 14.4 9.5 17.5 0.8 29.7 l-4.6 6.5 0 14.5 c0 12.8 0.3 15.3 2.5 21.5 3.5 10.1 3.3 17.3 -0.8 25.1 -1.8 3.3 -4.3 7.1 -5.5 8.4 -11.4 12.6 -13.9 18.1 -14 31 -0.1 11.8 1.9 18.7 7.5 26.9 14.7 21.3 16.8 26.5 14.3 34.5 -4.7 14.5 -23.1 47.8 -37 66.6 -7.8 10.7 -8.8 13.3 -7.1 19.7 1.6 5.6 13.9 36.8 19.8 49.8 6.7 15 8.8 21.5 8.8 28.1 0 8 -1.4 15.4 -4.1 20.6 -1.2 2.4 -3.2 6.4 -4.5 8.9 -1.2 2.5 -3 7 -3.9 10 -5.2 17.1 -7.1 22.4 -11.6 31.4 -2.7 5.5 -8.2 15.3 -12.3 21.9 -8.7 13.7 -9.1 15.1 -9.1 34.6 l0 13.5 5.2 11.1 c6.1 13 8.3 20.5 8.3 28.7 0 10.3 -3.3 14.1 -13.9 15.8 -8.2 1.2 -20.2 0 -26.9 -2.8 -4.8 -2 -12.9 -2 -16.9 0.1 -1.8 0.9 -4 2.9 -4.9 4.5 -2.4 4.1 -7 5.8 -20.3 7.6 -19.7 2.6 -33.8 9.2 -48.9 22.9 -3.9 3.6 -11.4 9 -17.7 12.9 -5.1 3.2 -9 9.1 -11 16.7 -1.5 5.7 -4.3 10.8 -6.6 12.3 -3.9 2.5 -17.5 -8.5 -28.5 -23 -3 -4 -7.9 -11.6 -10.9 -16.9 -6.9 -12.1 -12.4 -20.4 -18.5 -27.4 -2.6 -3 -7.5 -9.5 -11 -14.5 -6.4 -9 -13.5 -17.7 -22.1 -27 -2.6 -2.7 -6.3 -6.9 -8.3 -9.3 -1.9 -2.4 -8 -8.7 -13.4 -14 l-9.9 -9.7 -17.1 -34 c-22.6 -44.9 -22.4 -44.6 -26.3 -47.3 -6.2 -4.3 -15.6 -1.5 -18.5 5.4 -0.8 2 -2.1 9.5 -3 16.7 -0.8 7.3 -2.5 17.7 -3.8 23.2 -1.4 5.5 -3 13.4 -3.6 17.5 -2.3 14.7 -7.7 32.6 -12.4 41 -3.5 6.2 -5.6 8 -9.7 8 -3 0 -4.3 -0.7 -7.2 -3.9 -3.5 -3.9 -6.7 -11.9 -6.7 -16.7 0 -1.3 -1.6 -8.5 -3.6 -16 -2.3 -9.1 -3.8 -17.9 -4.4 -25.8 -1.1 -13 -2 -18.5 -4.4 -25.6 -1.5 -4.7 -3.2 -13.1 -4.2 -21.3 -0.4 -3.7 -1.4 -5.8 -3.9 -8.5 -2.9 -3.3 -3.9 -3.7 -7.9 -3.6 -9.6 0.2 -12 3.8 -36.8 52.9 -20.6 41.1 -23.5 46 -33.8 56.8 -11.3 12 -20 18.9 -34.9 27.8 -24.8 14.9 -41.4 32.3 -54.6 57.4 -9.7 18.3 -17.1 29.7 -22 33.7 -6.7 5.5 -25.8 18.5 -30.3 20.6 -6.6 3 -12.2 3.8 -13.9 2.1z m487.3 -68.9 c2.1 -1.7 6.9 -5 10.5 -7.5 8 -5.3 11.8 -9.5 15.3 -16.7 3.9 -8.1 8.4 -12.3 14.9 -14.2 6.4 -1.9 11.9 -5.9 11 -8.2 -0.3 -0.8 -1.8 -2.1 -3.2 -2.9 -2.4 -1.2 -3.2 -1.1 -6.8 0.5 -2.5 1.1 -4.8 3.1 -5.8 4.9 -2 4 -4.5 5.5 -13.6 8.6 -6.4 2.2 -8.4 3.5 -14.8 9.8 -12.6 12.3 -17.2 21.3 -13.9 26.7 1.6 2.6 1.8 2.6 6.4 -1z m-476.7 -1.5 l3.4 -2.4 -7.8 -7.6 c-9 -8.7 -18.7 -14.2 -23.2 -13.1 -1.5 0.4 -4.4 2.1 -6.6 3.8 l-3.8 3.1 3.8 3.9 c4.9 5.1 13.6 10.2 21.5 12.7 8.2 2.6 8.8 2.6 12.7 -0.4z m47.7 -22.9 l3.9 -3.4 -3 -3.2 c-4.4 -4.7 -6 -5.3 -9.4 -3.6 -4.9 2.6 -5.6 8.2 -1.5 11.5 3.7 2.9 5.4 2.6 10 -1.3z m408.4 -23.1 c2.3 -6.6 4.1 -13.9 4.1 -16.1 0.1 -5.4 -2.7 -10.5 -9.8 -18 -3.2 -3.4 -10.8 -11.5 -17 -18 -16.6 -17.6 -18.8 -20.8 -22.4 -31.8 -2.8 -8.4 -7.5 -13.3 -17.3 -18 -15 -7.2 -39.1 -24.9 -57.1 -41.9 -8.8 -8.4 -12 -10.6 -7.3 -5.2 1.3 1.5 11.8 12.2 23.4 23.9 18.9 18.9 25.6 26 33.2 35 4 4.8 8.1 11.7 8.8 15 1.6 7.3 4.4 11.4 18.5 26.6 14 15.1 14.8 16.4 14.9 23.6 0 6.9 -0.5 7.4 -7.1 7.4 -4.4 0 -7 -1.1 -10.9 -4.4 -4.1 -3.6 6.9 9.3 16.5 19.3 4.9 5.1 11.9 11.8 15.4 14.7 l6.5 5.4 1.7 -2.7 c1 -1.6 3.6 -8.2 5.9 -14.8z m-560.2 4.5 c2.3 -1.7 4.2 -3.3 4.2 -3.5 0 -1.2 -9.4 -4.5 -12.9 -4.5 -7.3 0 -9.9 5.8 -3.9 8.7 6 3 7.7 2.9 12.6 -0.7z m725.7 -2 c1.5 -1.7 1.6 -2.4 0.6 -4.9 -0.7 -1.6 -2.4 -3.9 -3.7 -5.2 l-2.4 -2.3 -4 3.9 c-2.2 2.2 -4 4.4 -4 5 0 1.5 7 5.4 9.6 5.5 1.1 0 2.9 -0.9 3.9 -2z m-641.6 -24.6 c3.5 -2.9 3.8 -5.1 1.3 -10.9 -3.4 -8 -7.2 -11 -15.7 -12.2 -5.1 -0.7 -12.9 1.8 -13.9 4.4 -1.5 3.7 8.9 14.8 17.7 18.9 6.5 3 6.9 3 10.6 -0.2z m-88.8 -19.9 c3.2 -6.7 3.6 -10.6 1.5 -15.6 -1.6 -3.9 -4.1 -6.4 -7.3 -7.3 -1.7 -0.6 -2.9 0 -4.9 2.1 -2.3 2.4 -2.5 3.3 -2 7.8 0.3 2.7 0.9 10.2 1.2 16.5 l0.6 11.5 4 -4.5 c2.2 -2.5 5.3 -7.2 6.9 -10.5z m204.6 12.3 c2.8 -3 5.3 -9.3 5.3 -13.2 0 -6.8 4 -16.2 11.9 -28.1 4.9 -7.5 6.6 -9.6 14.9 -18.4 2.9 -3.1 6.9 -8 8.9 -11 2 -3 6.8 -8.9 10.6 -13 3.8 -4.2 -0.2 -0.3 -9 8.5 -10 10 -18.3 19.5 -22.1 25.1 -3.4 4.9 -11.5 14.9 -18 22.2 -13.4 14.8 -14.7 16.9 -13.8 20.5 0.6 2.5 6.9 9.6 8.5 9.6 0.4 0 1.7 -1 2.8 -2.2z m469.3 -2.3 c5.7 -4 8.4 -9.5 7.7 -15.8 -0.9 -7 -4.7 -13.1 -10 -15.6 -7.4 -3.6 -9.7 -3.6 -14.5 -0.1 -5.3 3.8 -7.2 8 -7.2 15.7 0 9.9 2.6 16.3 7.5 18.4 3.9 1.7 12.1 0.4 16.5 -2.6z m-503.3 -19.4 c3 -4.6 7.6 -11.2 10.2 -14.5 2.6 -3.4 7.1 -9.5 9.9 -13.8 5.7 -8.6 7.3 -10.5 15.9 -19.8 9.2 -9.8 10.2 -11.4 11.2 -16.7 0.5 -2.6 0.8 -4.9 0.7 -5 -0.1 -0.1 -2.2 3 -4.6 7 -4.8 7.8 -11.3 17 -14.3 20.2 -1 1.1 -3.4 4.3 -5.3 7 -1.8 2.8 -5.4 7.5 -7.9 10.5 -5.7 7 -16.4 22.6 -18.1 26.5 -0.8 1.7 -3 5.3 -5 8 -2.1 2.9 -2.5 3.8 -0.9 2 1.5 -1.6 5.2 -6.8 8.2 -11.4z m425 2.3 c3 -4.6 13.1 -2.7 23.5 4.4 6.6 4.4 6.6 4.4 6.1 1.7 -1 -4.9 -4.2 -6.8 -18.4 -10.9 -6.8 -2 -7.6 -3.3 -8.9 -15.9 -2 -19.2 -1 -24.1 5.9 -29.2 3.1 -2.2 4.5 -2.5 11.8 -2.5 9.1 0 13.7 1.3 28.3 8.2 4.7 2.2 10.3 4.6 12.5 5.4 3.9 1.3 3.7 1 -5 -7.2 -9.3 -8.9 -20.5 -18.3 -26.5 -22.4 -1.9 -1.3 -5.4 -4.1 -7.7 -6.4 l-4.3 -4 0 5.1 c0 6.4 -2.1 8.3 -9.5 8.3 -5.9 0 -11.2 -2.6 -22.5 -11.1 -4.1 -3 -10.4 -7.2 -13.9 -9.3 -3.5 -2 -8.2 -5.2 -10.5 -7 -6 -4.9 -13.5 -9.5 -28.1 -17.1 -7.1 -3.7 -17.5 -9.7 -22.9 -13.4 -14.8 -9.8 -15.6 -10.4 -15.6 -9.4 0.1 0.4 1.7 2 3.6 3.5 11.9 9 56.7 52.8 73.4 71.6 15 17.1 17.9 22.4 18 32.8 0 8 -0.3 8.4 -7 8.4 -4.1 0 -6.2 -1.4 -15.9 -10.4 -5 -4.6 -4.8 -4.3 2 3.4 8.7 10 7 8.1 19.4 21.5 l10 10.8 0.3 -3.3 c0.2 -1.8 1 -4.4 1.9 -5.6z m-453.1 -5.7 c6.9 -11.9 16.5 -26.2 26.6 -39.8 3.1 -4.1 8 -11.3 10.9 -16 2.9 -4.6 7.1 -10.4 9.4 -12.9 2.3 -2.5 6 -7.6 8.3 -11.5 4.7 -8.1 7.6 -11.8 15.2 -19.1 12 -11.5 17.6 -15.5 28 -19.8 4.4 -1.8 5.4 -2.5 3 -2 -1.9 0.3 -6.2 1.9 -9.5 3.4 -3.3 1.5 -10.7 4.4 -16.5 6.5 -5.8 2.1 -10.9 4.1 -11.5 4.6 -1.6 1.1 -8.9 5.1 -25 13.4 -23.3 12.1 -37.3 21.8 -48.8 34 -18 18.9 -20.6 20.8 -29.3 20.3 -5.4 -0.3 -6 -0.6 -8.1 -3.7 -1.5 -2.2 -2.3 -4.9 -2.3 -7.7 0 -3.7 0.7 -5.1 4.9 -10.1 2.7 -3.2 9 -9.8 14.1 -14.8 5 -4.9 11.9 -12.1 15.3 -16 3.3 -3.8 -2.2 1.1 -12.4 11.1 -17.1 16.8 -26.6 25 -36.4 31.6 -5.9 4 -20.4 10.5 -26 11.8 -8.3 1.8 -21.3 8.6 -23.5 12.3 -5.4 8.8 2 28.3 7.9 20.9 2.6 -3.2 12.5 -9.3 28.6 -17.7 8.3 -4.3 16.2 -8.6 17.7 -9.6 1.4 -1.1 3.8 -1.9 5.2 -1.9 1.4 0 3.4 -0.9 4.3 -2 3.9 -4.5 15.9 -0.9 24.5 7.4 8 7.7 13.8 18.1 13.8 24.9 0 4.2 1.6 9.9 3.1 10.8 2.2 1.3 3.8 -0.2 8.5 -8.4z m-201.3 -35.1 c1.8 -1.4 1.7 -1.6 -0.6 -5.3 -1.3 -2.1 -4.9 -5.9 -7.8 -8.6 -10.6 -9.3 -14.1 -13.3 -19 -21.2 -7.6 -12.2 -8.3 -15.6 -8.3 -39 0 -30.1 1 -32.7 19.5 -51.5 15.6 -15.8 26.9 -28.2 26.9 -29.3 0 -0.5 -3.8 -7.3 -8.4 -15.1 -10.3 -17.5 -16.7 -29.3 -20.9 -38.8 -3 -7 -3.1 -7.8 -3.1 -20.4 0.1 -16.5 1.8 -26.8 6.1 -36.6 2.9 -6.8 3.2 -8 2.1 -10.5 -1.7 -4 -11.6 -18.5 -23.1 -33.8 -9.5 -12.7 -15.9 -23.8 -20.8 -36 -3.8 -9.5 -3.3 -18 1.9 -33.7 7.5 -22.6 10.3 -29 18.4 -41.5 l6 -9.3 -4.2 -4.7 c-6.7 -7.6 -8.4 -11.7 -8.5 -19.9 0 -10.7 3.4 -14.3 17.5 -18.5 5.7 -1.7 7.7 -4 15.1 -16.4 10.6 -17.8 14.5 -26.2 13.3 -28.2 -2 -3.3 -9.1 -7.3 -19.1 -10.8 -5.4 -1.9 -10.9 -4.1 -12.3 -4.9 -1.4 -0.8 -5 -1.9 -8 -2.5 -3 -0.5 -20.5 -6 -38.8 -12.1 -24 -7.9 -33.8 -10.8 -35 -10.1 -0.9 0.5 -2.7 2 -4 3.4 l-2.3 2.4 8.9 8.4 c12 11.5 38 32.3 44.3 35.4 2.8 1.5 7.3 4.9 10 7.6 4 4 4.9 5.6 4.9 8.5 0 4.5 -1.3 5 -17 5.7 -11.4 0.5 -13 0.8 -18 3.5 -3.9 2.1 -8.4 3.5 -15.3 4.5 -9.9 1.6 -27.4 6.7 -46.9 13.8 -20.9 7.6 -32.9 9.3 -45 6.3 -18.5 -4.5 -28.8 -9 -84.6 -36.9 -31.2 -15.6 -60.2 -29.7 -64.6 -31.5 -10.7 -4.2 -13.2 -5.6 -16.6 -9.2 -2.6 -2.7 -3 -3.8 -3 -9 0 -7.3 0.1 -7.3 17 -8.7 7.1 -0.6 16.2 -2.1 21 -3.5 4.7 -1.3 12.9 -3.4 18.2 -4.6 6.3 -1.5 9.5 -2.7 9.2 -3.4 -1.2 -3.1 -14.5 -10.2 -26.9 -14.4 -30.7 -10.2 -34.6 -10.5 -129 -9.9 -72.3 0.4 -75.2 0.5 -81.5 2.5 -3.6 1.1 -8.2 2.3 -10.3 2.7 -2.1 0.3 -5.2 1.9 -7 3.5 l-3.2 2.8 3.3 7.4 c4.5 10.2 5.5 17.7 4.8 34.4 -1 24.8 -3.4 31.3 -15.5 43.5 -10.3 10.3 -14.2 11.7 -35.6 13.1 -8.8 0.5 -19.9 0.8 -24.8 0.5 -7.9 -0.4 -9.7 -0.9 -18.4 -5.1 -14.1 -6.8 -19.9 -11.4 -38.3 -30.2 -9.1 -9.3 -18.5 -18.8 -21 -21 -6.9 -6.2 -18.8 -14.4 -20.9 -14.4 -3.1 0 -21.1 6.6 -33.8 12.4 -6.5 2.9 -13.4 5.7 -15.3 6.1 -1.9 0.4 -7.3 2.4 -12 4.5 -4.7 2 -13.3 5.3 -19.1 7.3 -5.9 2 -15.6 6.1 -21.5 9 -6 3 -17 7.8 -24.4 10.7 -14.3 5.6 -33.5 13.3 -38.5 15.5 -1.6 0.7 -7.4 2.9 -12.8 4.9 -23.1 8.6 -62.5 27.1 -75.2 35.4 -7.5 4.8 -13 11.1 -14.9 17.1 -0.9 2.5 -2.5 11.1 -3.7 19.1 -4 27.4 -6.7 44.6 -10.8 68.5 -1.7 9.4 -3.4 21.3 -4 26.5 -0.6 5.2 -2.6 15.8 -4.6 23.5 -1.9 7.7 -3.5 16.3 -3.5 19.1 0 6.2 -1.3 14 -4.5 26.4 -1.3 5.2 -3.1 15.1 -3.9 22 -0.9 6.9 -2.2 15 -3 18 -2.4 9.5 -4.4 21.2 -5 29.6 -0.4 4.5 -1.5 11.5 -2.6 15.5 -1.2 4.1 -3 12.8 -4.1 19.4 -1.1 6.6 -3.3 18.1 -4.9 25.5 -1.5 7.4 -3.1 16.7 -3.5 20.5 -1.1 11.8 -4.3 32 -6.4 40.2 -1.1 4.3 -2.4 12.8 -3 18.8 -0.5 6.1 -1.9 15.2 -3.1 20.4 -1.1 5.1 -1.8 9.6 -1.6 10 0.3 0.4 6.3 1.1 13.3 1.5 7 0.4 238.2 1.1 513.8 1.7 275.6 0.6 504.6 1.4 509 1.8 13.1 1.3 20.8 1.2 22.8 -0.3z m46.3 -5.1 c3.7 -2.8 6.4 -7.2 6.4 -10.3 0 -4.8 -10.7 -26 -16.2 -32.3 -3 -3.4 -8.4 -4.9 -17.5 -4.9 -5.3 0 -7.3 0.4 -7.3 1.3 0 0.7 3.7 4.8 8.1 9.2 11.1 10.9 13.9 15.4 13.9 22.3 0 2.9 -0.5 7.4 -1.2 9.9 -1.1 4.4 -1 4.7 1.3 6.6 3 2.4 7.8 1.8 12.5 -1.8z m704.6 -2.5 c1 -2.1 1.8 -5.5 1.8 -8.5 0 -5.6 2.3 -10.8 7.1 -15.9 1.6 -1.7 2.9 -3.4 2.9 -3.7 0 -0.3 -4.9 -1.1 -10.9 -1.6 -9.7 -0.9 -11.6 -1.3 -16.7 -4.4 -8 -4.7 -21.1 -18 -26.2 -26.5 -4 -6.6 -4.2 -7.5 -4.2 -14.6 0 -6.9 0.3 -8 3.3 -12.5 3.8 -5.7 9.4 -15.1 17 -28.8 6.5 -11.6 8.3 -13.6 19.5 -20.4 13.4 -8.1 22.7 -8.9 34.7 -3.1 10.3 4.9 18.5 13.7 18.5 19.7 0 4.4 9.5 17.3 12.7 17.3 2.4 0 3.2 -3.3 1.8 -7.4 -1.4 -4 -10.5 -18.1 -14.7 -22.6 -1.3 -1.4 -5.7 -6.8 -9.8 -12 -4.1 -5.2 -7.9 -9.9 -8.5 -10.3 -0.5 -0.4 -11.1 -0.6 -23.5 -0.4 -22.3 0.4 -22.6 0.4 -31 3.5 -4.7 1.7 -11.5 3.6 -15.3 4.2 -8 1.2 -15.4 4 -22 8.2 -5.9 3.8 -6.7 5.2 -6.7 12.1 0 3 -0.9 8 -2.1 11.3 -3 8.3 -3.9 31.1 -1.6 38.2 2.2 6.6 9 18.3 13.1 22.4 1.8 1.8 5.1 5.9 7.5 9.1 10.2 13.9 47.7 51.3 50.5 50.4 0.5 -0.2 1.7 -1.9 2.8 -3.7z m37.2 -3.9 c3.4 -1.3 8.6 -6.7 8.6 -8.8 -0.1 -4.3 -4.8 -7.3 -11.3 -7.3 -5.9 0 -8.2 2.5 -8.2 9 0 3.4 0.6 5.4 2 7 1.9 2.1 3.3 2.2 8.9 0.1z m-675.4 -17.9 c13.2 -7 16.8 -9.4 25.4 -17.3 11.4 -10.5 16.3 -20.1 18.9 -37.1 1.2 -7.9 1.2 -9.5 -0.4 -15.9 -1 -3.8 -3 -9.2 -4.5 -11.8 -6.3 -11.8 -19.9 -22.7 -33.5 -27.2 -7 -2.3 -8.5 -2.4 -30.9 -2.3 -14.3 0.1 -25.8 0.6 -29.5 1.4 -24.8 5.1 -57.3 34 -61 54.3 -1.5 7.6 5.9 12 16.6 9.8 8.8 -1.8 10.7 -4.1 12.8 -14.6 1 -5 2.5 -10.6 3.3 -12.5 1.9 -4.4 18.4 -21.9 24.5 -25.9 2.5 -1.7 8.2 -4.5 12.7 -6.3 7.2 -2.8 9.2 -3.2 18.6 -3.2 9.2 -0.1 11.1 0.2 15 2.3 13.1 6.9 27.2 24.5 32.4 40.3 4.9 14.9 1.4 32.5 -9.8 49.1 -7.1 10.8 -14.6 17.1 -27.6 23.4 -11.5 5.5 -15 7.8 -15 9.5 0 0.5 4.8 -1.6 10.8 -4.8 5.9 -3.1 15.4 -8.1 21.2 -11.2z m324 -7.7 c7 -3.6 2 -6.6 -11.3 -6.8 -8.1 -0.2 -9 0 -10.7 2.1 -2.2 2.6 -1.7 5 1.4 6.3 3 1.3 17 0.2 20.6 -1.6z m-351 -6.2 c5.3 -1 10.7 -7.4 13.1 -15.4 1.9 -6.2 2.1 -8.8 1.7 -24.6 -0.3 -9.8 -0.8 -18.6 -1.3 -19.7 -0.7 -1.6 -1.7 -1.8 -7.9 -1.4 -8.9 0.6 -12.2 2.3 -21.5 11.2 -7.6 7.4 -13.1 14.7 -13.1 17.7 0 1 1.6 7.3 3.5 14.1 2.4 8.3 4.4 13.1 6 14.7 3.3 3.3 12.2 4.9 19.5 3.4z m717.5 -8.7 c5.2 -2.2 9.5 -8.8 9.5 -14.7 0 -6.4 -2.4 -12.1 -5.9 -14.2 -2.9 -1.7 -3 -1.7 -7.8 2 -5.8 4.4 -11.4 9.8 -13.7 13.4 -1.6 2.6 -1.6 2.7 1.6 6.7 2.9 3.6 9.7 8.2 12.1 8.2 0.4 0 2.3 -0.6 4.2 -1.4z m-489.9 -7.7 c1.7 -0.5 4.1 -2 5.4 -3.4 l2.2 -2.4 -3.5 -0.6 c-2 -0.4 -5.1 -0.2 -7 0.4 -3.6 1.2 -11.7 6.1 -11.7 7.2 0 0.8 10.8 -0.1 14.6 -1.2z m446.9 -18.6 c3.5 -1 9.7 -6.5 11.1 -10 1.1 -2.5 1.3 -6 0.8 -14.7 l-0.7 -11.5 -7.6 -0.3 c-8.7 -0.4 -16.2 1.1 -19.3 3.8 -2.9 2.6 -8.5 14.8 -9.3 20.5 -1 6.7 1.3 11.6 5.7 12.3 7.8 1.4 14 1.3 19.3 -0.1z m-330.3 -10 c1.9 -3.2 2.4 -5.6 2.8 -15.3 0.5 -10 1 -12.4 3.7 -18.5 1.7 -3.8 3.5 -9.9 4.1 -13.5 3.1 -18.9 4.2 -24.2 5.6 -27.2 4.8 -10.2 4.6 -30 -0.5 -39.9 -1 -2.1 -2.3 -5.9 -2.9 -8.6 -1.3 -5.9 -9.6 -23.3 -11.1 -23.3 -1.6 0 -0.2 7.8 2.7 14.9 5.4 13.4 1.8 32 -8.3 43.2 -5.8 6.4 -11.5 8.4 -16.4 5.9 -2.9 -1.6 -2.7 -12.7 0.5 -20.6 2.5 -6.5 4.1 -13.1 5 -20.4 l0.6 -4.5 -2.9 3.4 c-4.7 5.3 -9.2 15.5 -10.2 23 -0.6 4.2 -0.6 15.2 -0.1 28.7 0.9 20.5 1.1 22.3 3.7 28.3 1.5 3.6 3.6 9.4 4.7 13 1.8 6.1 15.2 35.1 16.2 35.1 0.2 0 1.5 -1.7 2.8 -3.7z m-190.3 -5.7 c3.6 -1.3 9.3 -3.5 12.6 -4.9 3.3 -1.4 8.7 -3 12 -3.6 3.3 -0.5 8.1 -2.1 10.8 -3.6 3.2 -1.8 7.3 -3 12.5 -3.7 6.5 -0.8 13 -2.3 24.9 -5.7 1.3 -0.3 -2.3 -0.6 -8 -0.7 -7 0 -11.4 -0.6 -13.9 -1.7 l-3.8 -1.6 0 3.5 c0 3.2 -0.4 3.7 -4.2 5.4 -2.4 1 -8.3 2.4 -13.2 3 -5.2 0.7 -11.8 2.5 -16 4.2 -5 2.1 -9.9 3.2 -16.6 3.9 -7.9 0.7 -10.2 1.4 -13.4 3.6 -2.2 1.6 -4.2 3.4 -4.4 4.2 -0.7 2.1 12.4 0.7 20.7 -2.3z m393.2 -4.5 c-4 -5 -10.1 -10.5 -14.3 -12.8 -2.8 -1.5 -6.3 -1.8 -23.8 -2.1 -15.2 -0.2 -21.5 0 -24.3 1 l-3.8 1.4 8.8 4.3 c18.1 8.9 19.8 9.4 39.3 9.9 9.6 0.2 17.9 0.8 18.5 1.3 2.5 2.5 2.3 0.4 -0.4 -3z m-349.6 -25.8 c-4.7 -7.5 -8.4 -11.4 -13 -13.9 -4.2 -2.4 -6.1 -2.8 -13.5 -2.8 -9.4 -0.1 -13.1 0.6 -15.4 3 -2.3 2.2 -2 3 2.4 7.4 4.4 4.4 5.4 4.6 21.3 5.5 5.9 0.4 12.6 1.2 15 2 2.3 0.7 4.4 1.3 4.6 1.4 0.2 0.1 -0.5 -1.1 -1.4 -2.6z m303.9 -16.9 c4.9 -0.8 10.6 -2.3 12.5 -3.3 9.1 -4.4 9.9 -6 4.9 -9.2 -3.1 -1.9 -4.6 -2 -22.8 -1.7 -20.6 0.4 -22.6 0.8 -25 5.2 -1.1 2.2 -1.1 3 0 5.2 0.8 1.4 2.6 3.2 4 3.9 3.4 1.9 15.4 1.9 26.4 -0.1z m-503.5 -31.8 c-0.2 -0.2 -3.7 -3.1 -7.7 -6.4 -4 -3.4 -11.8 -10.4 -17.3 -15.6 l-10.1 -9.6 -5.3 0 c-7.9 0 -15.6 1.8 -18.2 4.2 -3 2.8 -3.1 8.3 -0.2 11.4 1.2 1.3 3.1 5.1 4.3 8.6 1.7 4.9 2.7 6.4 4.6 6.9 2.5 0.7 50.7 1.2 49.9 0.5z m126.8 -8.5 c22.5 -0.8 26.3 -1.7 26.3 -6.1 0 -4 -12.9 -10.5 -29.9 -15 -2.9 -0.8 -14.1 -1.1 -32.5 -1.1 -36.3 0.1 -56.4 -1.1 -63.1 -3.7 -6.7 -2.6 -9.5 -7.2 -9.5 -15.9 l0 -6.2 3.3 -0.5 c1.7 -0.3 5.8 -0.8 8.9 -1.1 3.2 -0.4 8.4 -1.6 11.5 -2.8 5.7 -2.1 7 -2.2 56.3 -2.2 27.8 0 54 0.3 58.4 0.7 l7.8 0.8 3.9 -3.8 c6.5 -6.6 3.7 -10.1 -15.5 -18.8 -6.5 -2.9 -12.6 -6.3 -13.7 -7.5 -1.4 -1.7 -1.9 -3.7 -1.9 -8.5 0 -6.8 1.8 -9.8 6.8 -11.1 8.3 -2.1 30.1 4 53.1 14.7 10.4 4.9 12.7 5.7 14.7 4.8 5.3 -2.4 7.6 -12.8 7.8 -34.3 0.1 -14.5 -0.1 -16.4 -1.9 -19 l-2 -3 -0.5 9 c-0.5 9.6 -1.5 12.1 -5.6 15.4 -2.1 1.6 -4.1 2.1 -8.8 2.1 -7.1 -0.1 -9.9 -1.5 -20 -10.5 -3.7 -3.2 -7.7 -6.6 -8.8 -7.3 -2.6 -1.9 -8.3 -1.7 -15 0.3 -9.8 3 -21.2 4.5 -33.9 4.5 -11.2 0 -12.9 -0.2 -14.9 -2 -1.3 -1.1 -3.1 -2 -4 -2 -3.1 0 -21.2 -5.6 -31.5 -9.8 -5.5 -2.2 -13.3 -5 -17.4 -6.2 -4.1 -1.2 -8.6 -3 -10 -4 -1.7 -1.1 -5.2 -2 -9.7 -2.3 -4.7 -0.4 -10.1 -1.7 -16 -4 -4.9 -1.9 -10.9 -3.8 -13.4 -4.2 -2.5 -0.4 -7.3 -2.2 -10.7 -4.1 -3.4 -1.9 -6.7 -3.4 -7.5 -3.4 -0.7 0 -5.1 -1.6 -9.7 -3.5 -4.7 -1.9 -8.6 -3.3 -8.8 -3.1 -0.2 0.2 2 3 5 6.2 3 3.3 7.6 9.3 10.2 13.4 5.6 8.7 15.1 20.2 19.7 23.9 2.1 1.5 3.6 0.8 12.4 -6.5 6.6 -5.3 11 -6.8 18.8 -6.1 7.4 0.6 15.1 3.4 23.7 8.6 9.4 5.7 10.4 7.9 10.3 22.6 -0.1 10.2 -0.5 13.2 -2.7 19.8 -5 14.8 -7.4 17.4 -23.7 25.1 -9.2 4.4 -15 4.7 -22.8 1.1 -7.3 -3.4 -11.4 -6.8 -17.2 -14.1 -2.8 -3.5 -5.6 -6.4 -6.4 -6.4 -3.1 0 -6.9 4.8 -11.6 14.3 -4.7 9.7 -5 10.6 -5 18.3 0 7.5 0.2 8.2 2.8 10.4 1.5 1.2 7.2 6.6 12.7 11.9 22.3 21.5 29.8 27.4 37.9 30.1 7.4 2.4 55.4 3.5 93.3 2.1z m479.2 -0.1 c4.7 -0.6 11.1 -2.3 14.5 -3.7 6 -2.6 6.5 -2.7 40.1 -3.5 21 -0.6 35.4 -1.4 37.6 -2.1 3.4 -1.1 4.2 -2.2 11.7 -17 4.7 -9.1 8.4 -17.6 8.8 -20.2 0.9 -6.2 -0.9 -17.1 -4.6 -28.5 -3.5 -10.5 -7.2 -16.7 -11.3 -19 -2.5 -1.4 -3.2 -1.3 -8.9 0.9 -4.3 1.7 -8.9 2.6 -14.5 2.9 -7.1 0.3 -9.2 -0.1 -16.9 -2.7 -10.7 -3.8 -13 -3.8 -22.5 -0.5 -11.3 4 -14 3.5 -38.9 -7 -4.7 -2 -9.5 -3.6 -10.7 -3.6 -2.7 0 -12.2 -3.7 -14.3 -5.5 -2.4 -2 -10.2 -2.7 -17.2 -1.5 -7.7 1.4 -34 15 -37.1 19.2 l-2 2.7 3.3 5 c4.5 7.2 19.9 21.3 26.3 24.4 8.9 4.2 17.9 5 48.8 4.2 32.9 -0.9 35.7 -0.6 41 4.2 3.2 2.9 3.9 4.2 3.9 7.3 0 3.4 -0.6 4.4 -5.2 8.2 -2.9 2.5 -7 5.2 -9.1 6.2 -6.7 3.1 -23.4 5.3 -48.2 6.6 -26.6 1.3 -30.3 1.8 -31.9 4.3 -1.4 2.3 -0.2 4.3 5.7 8.7 11.8 9 30.5 12.6 51.6 10z m127.3 -13.7 c2 -2.3 7.1 -12.3 9.7 -19 l2 -5.2 -3.3 2 c-4.6 2.7 -8.4 7.2 -11.3 13.6 -2.2 4.8 -2.4 5.8 -1.2 7.9 1.5 2.9 2.1 3 4.1 0.7z m-781.8 -36.7 c3 -2.2 3.6 -3.3 3.6 -6.4 0 -4.8 -1.8 -11.3 -3.8 -13.4 -4.9 -5.6 -20.2 1.8 -27.4 13.1 -3.4 5.4 -3.4 5.7 -0.5 7.2 3.7 2.1 8.8 2.8 16.9 2.5 6.6 -0.2 8.2 -0.7 11.2 -3z m382 -18.7 c1.4 -1.7 2.6 -3.4 2.6 -3.9 0 -2.5 -2.2 -6 -5 -8 -3.1 -2.2 -3.2 -2.2 -7.1 -0.4 -2.3 1 -4.7 3 -5.5 4.6 -1.4 2.7 -1.3 3.2 0.3 6.1 2.2 3.8 8 6.9 10.4 5.6 0.9 -0.5 2.9 -2.2 4.3 -4z m48.2 1.7 c2.6 -1.9 2.4 -10.4 -0.3 -12.4 -2.6 -2 -12.2 -1.1 -13.9 1.3 -2.3 3.1 -1.8 9.1 0.8 10.9 2.8 2 10.8 2.1 13.4 0.2z m370.2 -0.2 c3 -0.9 3 -5.7 0 -7.8 -2.9 -2 -6.1 -2 -10.5 0.1 -6.3 3 -5.5 6.1 1.9 7.4 6.1 0.9 6.1 0.9 8.6 0.3z m-785.5 -31.6 c1.6 -2.2 2.2 -4.7 2.5 -11.8 l0.4 -9 -9.8 0 c-15.9 0 -19.8 0.8 -24.4 4.7 l-4 3.5 3.1 4 c6 7.6 15.5 11.9 25.3 11.5 4.1 -0.2 5.2 -0.7 6.9 -2.9z m517.2 -6.3 c5.8 -2.2 13.3 -5.7 58 -27.5 45.8 -22.3 49.1 -23.6 79.5 -31.6 11.1 -2.9 23.5 -5.4 27.2 -5.4 l3.8 0 0 5.5 c0 4.5 -0.4 5.8 -2.7 8.1 -4.7 4.8 -11.4 8.3 -21.5 11.4 -10.6 3.3 -18.7 6.9 -22.7 9.9 -2.4 1.8 -2.4 2 -0.8 4.4 2.3 3.6 10.2 7.6 16.3 8.3 l5.4 0.7 0 -4 c0 -6.3 5.4 -13.4 15 -19.9 10.6 -7.2 21.4 -8.2 35 -3.3 12.9 4.7 14.1 4.7 20 0.4 6.7 -4.9 19.3 -19.3 22.6 -25.7 2.9 -5.6 4.9 -17.2 3.7 -20.6 l-0.8 -2.1 -5.5 2.5 c-12.1 5.7 -34.8 13.8 -42 15 -1.9 0.3 -6.6 1.4 -10.5 2.4 -3.8 1 -10.5 2.1 -14.9 2.5 -4.3 0.3 -11.2 1.7 -15.3 3 -4.1 1.4 -10.7 2.9 -14.7 3.4 -3.9 0.4 -9.4 1.9 -12.1 3.2 -5.5 2.5 -17.7 3.7 -39.5 3.8 l-11.4 0.1 -5.6 -5.5 c-4.8 -4.8 -5.8 -5.4 -7.3 -4.3 -1.5 1.2 -1.4 1.6 1.4 4.8 3.9 4.3 4.9 7 4.9 12.3 0 6.2 -2.6 9.3 -14.6 18 -4.4 3.1 -6 3.7 -10.4 3.7 -2.9 0 -7.8 -0.7 -10.9 -1.4 -10.7 -2.8 -22.6 -3.9 -26.8 -2.5 -4.9 1.6 -14.5 10.8 -18.3 17.5 -4.4 7.7 -3.7 13 2.1 15.3 2.8 1.1 5.2 0.6 13.4 -2.4z m244.5 -4.5 c1.1 -1.1 2 -2.9 2 -3.9 0 -2.6 -6.2 -9.1 -8.8 -9.1 -2.7 0 -7.3 5.5 -6.5 7.8 2.2 6.2 9.4 9.1 13.3 5.2z m-275.3 -34.7 l6.8 -6.8 -3.2 -0.3 c-1.7 -0.2 -5 0.2 -7.2 0.8 -4.1 1.1 -10.1 5.4 -10.1 7.2 0 1.8 3.5 5.7 5.2 5.8 1 0 4.8 -3 8.5 -6.7z m-511.4 -8.7 c1.8 -0.7 4.1 -2.5 5.1 -4 1.4 -2.3 1.5 -3 0.4 -4.4 -6.1 -7.8 -21.6 -14.6 -36.4 -15.9 l-7.1 -0.6 -4.8 4.4 -4.7 4.4 4.6 4.2 c11.4 10.3 32.7 16.2 42.9 11.9z m813.8 -21.2 c5.2 -5 5.2 -7.2 0.2 -34.6 -3 -17 -3.5 -18.1 -6 -15.5 -1.5 1.5 -1.9 4.2 -2.4 17 -0.5 11.9 -1.1 16.5 -2.8 21.1 -2.9 8 -2.7 11 0.6 13.6 3.3 2.5 6.6 2 10.4 -1.6z m-667.8 -10.6 c9.7 -9.7 12.1 -14.7 12 -25.3 -0.2 -24.2 -20.7 -45.8 -50.3 -53.1 -4 -1 -13.8 -1.3 -35.4 -1.4 l-29.8 0 -5.7 5.3 c-3.5 3.2 -7.4 5.8 -9.9 6.5 -4.6 1.4 -6.2 3.5 -6.2 8.1 0 5.5 3 17.5 7.2 28.9 l4.1 11.2 7.1 3.7 c16.8 8.8 27.1 13.4 38.7 17.4 13.6 4.7 19.8 5.4 46.7 5.7 l14.2 0.2 7.3 -7.2z m566 -17.9 c9.7 -2.4 23.7 -7.8 33 -12.6 4.1 -2.2 11.1 -7.5 17.9 -13.7 13 -11.8 13.1 -12 12.6 -29.6 -0.3 -9.3 -0.7 -11.3 -3.4 -17 -4.6 -9.9 -17 -21.2 -25.1 -23.1 -2.1 -0.5 -7 -0.9 -10.8 -0.9 l-7.1 0 -5.4 5.3 c-29 27.9 -36.9 34.9 -40.8 36.8 -8.4 4.1 -15.7 13.4 -19.1 24.3 -1.1 3.7 -2.1 8.5 -2.1 10.5 0 8 3.9 15.7 9.9 19.8 3.1 2.1 4.5 2.3 17.8 2.3 11.3 0 16.2 -0.4 22.6 -2.1z m-734.5 -3.9 c2.3 -1 5.3 -3.1 6.7 -4.6 2.4 -2.6 2.5 -3.3 2.5 -15 0 -13.7 -0.1 -13.9 -6.5 -10.9 -3.7 1.8 -19.4 17 -21.4 20.8 -1.2 2.2 -1.1 2.9 0.7 5.5 2.4 3.3 7.5 6.2 11.2 6.2 1.4 0 4.4 -0.9 6.8 -2z m836.2 -47.5 c1.9 -2.2 -1.2 -12.5 -8.3 -28 -7.3 -16 -8.3 -18.6 -9.6 -25.2 -2.2 -10.7 -11.3 -22.8 -20.5 -27.1 -5.8 -2.8 -13.1 -3.8 -16.8 -2.3 -3.8 1.4 -3.5 3.5 1 6.7 3.9 2.9 15.2 12.6 21.2 18.2 1.9 1.8 5.9 4.4 8.8 5.7 6.9 3.2 7.6 5.1 9.1 24.5 1.4 18 2.2 21.8 5.7 26 2.8 3.3 7.3 4.1 9.4 1.5z m-816.5 -22.4 c2.2 -1.1 7.5 -4.8 11.7 -8.4 4.4 -3.7 11.5 -8.5 16.5 -10.9 l8.7 -4.3 21.2 0 c11.7 0 21.5 -0.3 21.9 -0.7 0.9 -0.9 -4.7 -3.2 -12.5 -5.2 -3.3 -0.9 -9.3 -3 -13.3 -4.7 -11.3 -4.9 -16.7 -6.2 -24.2 -6.2 -7.2 0 -14.7 1.8 -20.6 4.9 -3.4 1.7 -10.9 8.9 -10.9 10.4 0 0.5 -2.3 4.7 -5 9.4 -6.4 10.8 -7.6 14.1 -6 16.1 1.7 2.1 7.7 1.8 12.5 -0.4z m665.3 -7.5 c2 -1.3 8.7 -7 14.7 -12.6 11.6 -10.7 22.1 -18.1 34.5 -24.4 4.1 -2.1 8 -4.3 8.5 -4.8 1.2 -1.1 -6.6 2.5 -15.5 7.2 -3.6 1.9 -6.9 3.7 -7.5 3.9 -1.7 0.7 -19.5 11.5 -27.2 16.4 -3.9 2.6 -7.6 4.7 -8.2 4.7 -0.7 0 -3.2 1.9 -5.7 4.2 l-4.6 4.2 2.2 1.8 c2.9 2.4 4.3 2.3 8.8 -0.6z"/>
  <path d="M160 845.4 c-11 -4 -13 -7 -13 -19.9 l0 -8.5 4.9 0 c4.4 0 5.6 0.5 9.6 4 2.5 2.2 5.1 4 5.7 4 1.3 0 -2.1 -4.1 -6.6 -8 -3.2 -2.8 -10.6 -13.1 -12.4 -17.3 -1.7 -3.9 -1.5 -14.2 0.3 -17.6 0.8 -1.6 2.9 -4.1 4.6 -5.5 8.4 -7.1 16.5 -8.4 25.3 -4 6.4 3.2 8.5 5.1 10.2 9.1 4.5 10.7 -2.4 18.3 -12.6 13.9 -1.8 -0.7 -4.1 -1.1 -5.2 -0.8 -1.5 0.4 0 2.3 8.2 10.8 10.8 11.1 13 14.8 13 21.8 0 9.6 -10.5 17.8 -23.5 18.3 -3.8 0.1 -7.7 0 -8.5 -0.3z"/>
  <path d="M374.5 844.9 c-0.4 -0.5 -0.9 -11.8 -1.2 -24.9 -0.5 -20.9 -0.8 -24.4 -2.4 -27 -1.6 -2.5 -2.5 -3 -5.9 -3 l-4 0 0 -5.2 c0 -6.8 1.6 -12.4 3.8 -13.4 0.9 -0.4 11.3 -1 23 -1.2 l21.2 -0.4 0 4.6 c0 5.9 -2.9 10.5 -11.2 17.9 l-6.3 5.7 0 19.7 c0 21.8 -0.2 22.6 -6.4 26.4 -3.4 2.1 -9.6 2.5 -10.6 0.8z"/>
  <path d="M519 838.8 c0 -8.7 1.2 -13.3 4.5 -18.3 1.4 -2 3.7 -7.9 5 -13.2 2.8 -10.5 8.9 -23.8 13.6 -29.6 2.8 -3.3 3.5 -3.7 7.9 -3.7 6 0 6.9 1 14.6 16.4 10.7 21.3 17.5 48.1 13.2 52.4 -0.7 0.7 -3.5 1.2 -6.3 1.2 -4.5 0 -5.9 -0.6 -11.1 -4.4 -3.2 -2.4 -7.1 -4.6 -8.6 -5 -3.9 -0.9 -11.4 2 -18.1 7 -4.9 3.6 -6.7 4.4 -10.3 4.4 l-4.4 0 0 -7.2z"/>
  <path d="M897.3 844 c-5.7 -1.2 -9.7 -3.4 -11.9 -6.7 -1.7 -2.4 -1.9 -5.1 -2.2 -21.3 -0.6 -30.1 1.4 -38.4 10.4 -43 3.7 -1.9 6.7 -2.6 13 -2.8 7.1 -0.3 8.7 -0.1 13.1 2.1 5.2 2.7 18.4 14.9 24.9 23.1 3.7 4.7 3.9 5.2 3.8 12 0 6.1 -0.5 8.1 -3.9 14.9 -5.5 11.1 -14 19.1 -23 21.6 -4.6 1.2 -18 1.3 -24.2 0.1z m23.9 -26.6 c4.8 -6.9 3.2 -12.6 -5.4 -19.4 -2.8 -2.3 -5.6 -3.9 -6.2 -3.7 -0.6 0.2 -1.4 2.3 -1.9 4.8 -1.1 5.6 0 23.8 1.5 25.6 1.6 1.9 8.5 -2.3 12 -7.3z"/>
  <path d="M978.5 843.9 c-1.7 -0.4 -4.7 -2.6 -6.8 -4.7 -3.4 -3.5 -3.8 -4.4 -3.5 -8.3 l0.3 -4.4 5.4 -0.3 c6.5 -0.4 10.3 1 13.6 5 2.7 3.2 3.5 10.4 1.3 12.6 -1.4 1.4 -5.9 1.4 -10.3 0.1z"/>
  <path d="M227.2 841.5 c-14.9 -7.6 -25.5 -31.1 -19.4 -43.2 2.9 -5.7 16.2 -19.5 23.4 -24.3 5.7 -3.8 6.4 -4 13.8 -4 7.4 0 8 0.2 13.9 4.1 7 4.6 15.6 13.7 21.3 22.4 3.8 5.7 4 6.3 3.5 12.2 -0.7 9 -8.1 24.2 -14 28.4 -7.4 5.4 -10.2 6.2 -24.2 6.6 -12.5 0.4 -13.2 0.3 -18.3 -2.2z m23.8 -17.5 c6 -3.1 9.6 -9.9 8.3 -16.1 -0.5 -2.8 -7.4 -10.6 -12 -13.6 -2 -1.4 -2.6 -1.3 -5.7 0.6 -4.5 2.8 -9.2 8.2 -11.1 12.7 -1.2 3 -1.3 4 -0.1 6.7 1.7 4.1 4.3 6.9 8.6 9.6 4.4 2.6 7 2.6 12 0.1z"/>
  <path d="M305.7 840 l-4 -4 0.6 -22.8 c1 -38.4 2.9 -42.2 21.9 -43 7.5 -0.3 9.2 -0.1 12.6 1.8 4.3 2.4 6.2 5.5 6.2 10 0 5.3 -1.9 7.8 -7.7 10 -3 1.1 -5.8 2 -6.3 2 -1.9 0 -2.1 4.2 -0.4 6.8 2.5 3.7 2.6 16.2 0.2 18.8 -0.9 1.1 -1.9 4.2 -2.3 6.9 -1.2 9.1 -1.7 10.6 -4.7 14.1 -2.6 2.9 -3.6 3.4 -7.5 3.4 -4 0 -5 -0.5 -8.6 -4z"/>
  <path d="M451.4 843 c-5.4 -1.7 -7.9 -4.9 -12.4 -16 -1.2 -3 -4.4 -10 -7 -15.5 -8.7 -18.4 -9.5 -21 -9.5 -31.5 l0 -9.5 7.9 -0.3 c9.3 -0.3 9.6 -0.1 9.6 7.9 0 4 0.5 6.2 1.9 7.8 l1.8 2.1 0.5 -5 c0.4 -3.5 1.2 -5.6 2.7 -6.9 2.9 -2.5 10.3 -4.1 19.2 -4.1 6.8 0 7.1 0.1 11.4 4.1 3.9 3.6 4.5 4.7 4.5 8.3 l0.1 4.1 4.1 -7.8 c5.5 -10.4 8.6 -13.7 13.1 -13.7 4.4 0 4.8 0.6 5.4 8 0.8 8 -1.8 15.9 -12.2 37.3 -4.7 9.7 -9.3 19.7 -10.2 22.3 -2.8 7.4 -5.5 8.8 -17.6 9.1 -5.6 0.1 -11.6 -0.2 -13.3 -0.7z"/>
  <path d="M639.4 843 c-1.2 -0.5 -4.3 -4.4 -7 -8.7 -4.9 -8 -8.4 -12.6 -9.1 -11.9 -0.3 0.2 -0.5 3.8 -0.6 7.9 -0.3 10.3 -1.7 11.9 -10.6 11.5 -6.1 -0.3 -6.7 -0.5 -8.7 -3.6 -3.1 -4.6 -3.7 -11.1 -3.2 -34 0.5 -20.3 1.3 -24.7 5.1 -28.9 2.9 -3.3 10.1 -5.3 18.8 -5.3 10.8 0 16.1 2.6 21.9 10.6 5.6 7.8 5.4 21.2 -0.5 28.2 l-2.2 2.7 4.2 7 c2.3 3.9 6.1 9.1 8.4 11.7 3.3 3.8 4.1 5.4 4.1 8.6 0 2.7 -0.5 4.2 -1.6 4.6 -2.3 0.9 -16.6 0.6 -19 -0.4z"/>
  <path d="M679.3 843 c-1.2 -0.5 -3 -2.1 -4 -3.6 -1.6 -2.5 -1.8 -5.8 -2.1 -29.9 -0.4 -31.4 0 -33.6 6.3 -37.2 5.6 -3.2 22.7 -3.3 30.9 -0.2 4.9 1.8 5.6 2.4 6.2 5.5 1.9 10.2 -2.4 14.4 -15.5 15.3 l-8.6 0.6 -0.3 3.3 c-0.3 2.9 -0.1 3.2 2.5 3.2 5.1 0 10.8 2.1 14.1 5.3 2.6 2.5 3.2 3.9 3.2 7.2 0 2.3 -0.5 4.6 -1.2 5.3 -0.7 0.7 -3.7 1.2 -6.7 1.2 -6.3 0 -12.7 1.5 -13.7 3.2 -1.4 2.2 2.9 3.5 13.8 4.1 15.2 0.8 15.8 1.1 15.8 5.6 0 4.1 -4 9.4 -8.5 11.1 -3.2 1.2 -29.2 1.2 -32.2 0z"/>
  <path d="M769 843.1 c-1.3 -0.4 -3.3 -2.2 -4.5 -4.1 -1.9 -3.3 -2 -5.4 -2.3 -32 -0.4 -33.3 -0.7 -32.1 8.6 -32.8 5.4 -0.4 6.1 -0.2 7.2 1.7 0.7 1.3 1.3 11.2 1.7 26.1 l0.6 24 9.3 0 c5.1 0 11.6 0.5 14.4 1.1 l5 1.1 0 4.4 c0 5.4 -2.1 8.9 -6.2 10.3 -3.4 1.2 -29.7 1.3 -33.8 0.2z"/>
  <path d="M832.9 841.8 c-3.6 -3.9 -4.1 -6.7 -4.8 -26.5 l-0.6 -19.2 -3.4 -3.5 c-2.8 -2.9 -3.5 -4.5 -3.9 -8.9 -0.5 -6.8 0.8 -9.3 6.1 -11.8 3.2 -1.4 6.6 -1.9 13.8 -1.9 15.3 0 17.9 1.8 17.9 12.6 0 3.8 -0.6 6.4 -1.8 8.2 -3.1 4.5 -3.4 6.1 -4.1 26 l-0.6 19.3 -4.2 4 c-5.1 4.8 -10.8 5.4 -14.4 1.7z"/>
  <path d="M153.2 744 c-1.2 -0.5 -2.7 -2.1 -3.2 -3.6 -3 -7.8 -4.2 -216.2 -1.3 -222.6 2.1 -4.6 6.8 -6.8 14.7 -6.8 8.1 0 13 2.4 15.2 7.5 1.6 3.9 1.8 37.7 0.4 69.4 -0.9 19.7 -0.9 21.6 0.8 24.2 l1.7 2.8 4.9 -3 c2.6 -1.7 11.2 -9.4 19.1 -17.2 14.8 -14.7 16.4 -17.1 26.2 -36.6 3.7 -7.4 3.7 -7.6 4.3 -23 0.6 -17 1.2 -19 6.3 -22.1 5 -3.1 16.1 -2.8 20.9 0.5 5.1 3.5 6.2 7.5 6.3 23 0 13.2 -1.1 19.5 -4.5 26.5 -1 1.9 -2.5 6.3 -3.4 9.8 -2.2 8.7 -9.6 23.3 -15.3 30.1 -2.5 3.1 -12.6 13.5 -22.5 23.1 -9.8 9.6 -17.8 18.2 -17.8 19.1 0 3.3 10.2 15.3 28.5 33.2 14.1 13.9 23.9 22.3 34.5 29.5 14.6 10 17.8 16.8 12.8 27 -3.2 6.4 -5.4 7.5 -13.5 7 -14.2 -0.8 -27 -10 -58.9 -42.1 -17.3 -17.5 -25.3 -26.6 -27.7 -31.4 -1.2 -2.4 -2.5 -4.3 -2.9 -4.3 -0.5 0 -0.5 3.7 -0.1 8.3 0.4 4.5 0.7 19.9 0.8 34.2 0 24.4 -0.1 26.2 -2 29.5 -4 6.8 -16.8 11 -24.3 8z"/>
  <path d="M298.1 743.3 c-1.7 -1.4 -2.7 -3.6 -3.3 -7.4 -0.6 -3 -1.2 -51.9 -1.5 -108.9 -0.5 -112.4 -0.6 -109.2 5 -113.4 2.5 -1.9 4.2 -2.1 15 -2.1 11.6 0 12.5 0.1 19 3.2 3.7 1.8 9.1 3.7 12.1 4.2 6.1 1.1 17.2 5.9 22.9 9.8 4.3 3 7.9 8.6 17.1 26.9 l6.6 13 0 28.2 0 28.2 -3.2 5.2 c-6.3 10.4 -13.5 19.4 -25.3 31.6 -4.4 4.5 -8.3 8.9 -8.7 9.6 -0.5 0.9 3.6 5.6 13 14.8 18.3 17.9 26.8 24.8 30.5 24.8 1.8 0 3.9 1 5.8 2.9 2.7 2.8 2.9 3.4 2.9 11 0 9.7 -2.6 16.7 -6.7 17.7 -5.2 1.4 -14.7 -0.3 -21.3 -3.6 -17.8 -9 -44.5 -35 -51.2 -49.9 -1.5 -3.5 -3 -6.2 -3.3 -6 -0.2 0.3 0.1 6.3 0.6 13.4 1.6 18.9 0.9 36.2 -1.5 40.2 -2.7 4.4 -8.7 7.5 -16 8 -5 0.4 -6.5 0.2 -8.5 -1.4z m34.4 -105.9 c7.7 -2.9 17 -11.7 20.9 -19.9 3.9 -7.9 4.9 -14.3 4.4 -29.9 -0.6 -16.8 -2.4 -22.7 -9.5 -30.6 -4.8 -5.3 -17.3 -12.6 -19.8 -11.6 -0.8 0.3 -1.9 2.2 -2.5 4.3 -1.2 4.3 -2.7 83.3 -1.7 87.5 0.7 2.8 1.6 2.8 8.2 0.2z"/>
  <path d="M425.4 742.6 c-2.9 -1.3 -6.1 -3.8 -7.5 -5.7 -2.2 -3.2 -2.4 -4.6 -3 -20.9 -1 -25.4 -0.9 -152 0 -176.1 1.1 -27 2.1 -28.9 15.2 -28.9 7.1 0 11.3 1.6 15.3 5.8 l2.9 3.1 -0.6 99.8 c-0.4 62.9 -1 102.9 -1.7 108.3 -2.1 16.1 -8.2 20.4 -20.6 14.6z"/>
  <path d="M589.1 743.3 c-1.6 -1.3 -2.6 -3.5 -3.2 -7.4 -0.5 -2.9 -1.3 -53.1 -1.9 -111.3 -0.7 -82.3 -0.7 -106.3 0.3 -107.4 2.9 -3.5 8.7 -6.2 13.5 -6.2 4.7 0 5.2 0.3 15.3 9.2 5.7 5 20.1 18.9 32 30.8 17.2 17.3 23 23.8 28.3 31.9 12.8 19.3 31.3 58.3 35 73.6 3 12.5 5.4 53.7 4 69.5 -1.2 13.7 -6.3 18.3 -19.7 17.8 l-7.2 -0.3 -2 -4 c-1.8 -3.6 -2 -6.4 -2.3 -25.2 l-0.3 -21.2 -3 -2.6 -3.1 -2.5 -29.2 0 -29.3 0 -0.6 3.5 c-0.3 1.9 -0.3 11.7 0 21.7 0.7 21.6 0 24.1 -7.4 28.5 -6 3.5 -15.8 4.3 -19.2 1.6z m79.8 -86.9 c3.5 -0.7 3.5 -1.2 -0.1 -9.4 -1.2 -2.4 -2.9 -7.2 -4 -10.5 -5.6 -17.2 -17.1 -35.8 -30.3 -49 -16 -16.1 -17.7 -15.8 -18.8 3.6 -1 18.2 0.4 61.2 2.2 63.2 0.7 0.9 2.7 1.8 4.4 2 5.5 0.7 43.3 0.7 46.6 0.1z"/>
  <path d="M838.9 742.6 c-2 -1.4 -5.1 -4.7 -6.8 -7.3 -2.9 -4.3 -3.2 -5.4 -2.7 -9.8 2.7 -24.6 3.1 -168.5 0.5 -185.5 -2.2 -15 -2.2 -16.5 -0.1 -20.6 4.1 -7.9 17.2 -10.9 27.7 -6.3 l4.8 2.1 -0.6 107.2 c-0.4 58.9 -1 109.3 -1.5 112 -1.3 7.1 -5.4 10.6 -12.5 10.6 -3.9 0 -6.1 -0.6 -8.8 -2.4z"/>
  <path d="M746.1 743 c-5.3 -1.1 -8.6 -4 -9.6 -8.3 -0.4 -1.8 -1 -47.1 -1.4 -100.7 -0.6 -89.5 -0.8 -97.7 -2.4 -100.5 -4.2 -7.4 -0.3 -17.5 8.2 -21.1 5.3 -2.2 14.8 -1.7 20.1 1 l4.5 2.4 0 96.5 c0 78.1 0.2 96.8 1.3 97.9 1 1 6 1.2 22.2 1 11.5 -0.2 22.2 -0.1 23.8 0.3 2 0.4 3.6 1.8 5.1 4.6 2 3.4 2.2 5.2 1.9 11.2 -0.4 7.6 -2.8 14 -5.6 15.3 -2.4 1.2 -62.8 1.4 -68.1 0.4z"/>
  <path d="M486 742 c-9 -1.4 -19.2 -5.1 -22.8 -8.4 -4.2 -3.7 -6.2 -9 -6.2 -16 0 -12.6 3.7 -16.6 15.4 -16.6 4.4 0 6 0.5 9.2 3 11 8.4 16.2 10.5 29.6 11.7 6.7 0.6 6.8 0.6 12 -3.4 6.9 -5.2 15 -13.6 16.5 -17.1 1.7 -3.9 1.6 -7.5 -0.6 -13.6 -3.3 -9.6 -7.6 -14.9 -29.2 -37.1 -33.1 -33.9 -41.3 -43.8 -50.5 -61.5 -2.8 -5.2 -2.9 -6.1 -2.7 -17.5 0.1 -9.9 0.5 -13.3 2.6 -19.2 3.3 -9.7 9.1 -19.7 13 -22.7 8.9 -6.7 25.7 -12.6 35.7 -12.6 14 0 38.3 10.9 42.5 19 3 5.8 1.2 21.7 -2.8 24.2 -3.5 2.2 -12.2 0.1 -17.9 -4.3 -5.6 -4.4 -8.5 -5.2 -18.3 -5.3 -10.2 -0.1 -13.2 1.1 -18.3 6.9 -3.4 3.8 -3.8 4.9 -4.7 14.1 l-0.6 6.1 31.4 31.9 c35.4 35.9 40.9 42 46 50.7 5.1 8.6 6 14.2 5.5 34.7 -0.5 19.4 -1.3 22.7 -8 33.1 -5.8 9 -13.8 14.7 -25.7 18.6 -5.4 1.7 -42.2 2.7 -51.1 1.3z"/>
  <path d="M928.5 742.4 c-20 -1.2 -33.3 -3.6 -38.8 -7.1 -11.1 -7 -14.1 -23.6 -5.6 -30.7 2.7 -2.3 3.9 -2.6 10.8 -2.6 7.5 0 7.8 0.1 11.2 3.6 1.8 2 5.1 4.4 7.1 5.5 4 2.1 17.1 4.9 22.7 4.9 4.7 0 13 -5 18.9 -11.4 9.5 -10.4 10.8 -17.1 5.3 -27.9 -5.5 -10.9 -13 -19.5 -46.1 -53.3 -17.3 -17.6 -21.7 -22.7 -29.2 -34.3 -3.7 -5.8 -5 -28.6 -2.4 -42.4 2.7 -14.2 8 -21.7 18.9 -26.7 3.5 -1.6 7 -3.6 7.7 -4.5 2 -2.4 10.7 -4.5 18.7 -4.5 8.5 0 19.6 2.3 26.8 5.5 2.8 1.2 7.1 3.2 9.8 4.3 6.4 2.8 8.7 8 8.7 19.7 0 4.6 -0.4 8.7 -1 9 -0.5 0.3 -1 2 -1 3.7 l0 3.1 -5.4 -0.6 c-4 -0.4 -7.3 -1.7 -12.9 -5.1 -15 -9.1 -27.6 -9 -36.1 0.5 -5.4 6 -7.5 12.4 -5.6 17.1 2.9 7.4 11.7 17.6 36 41.8 39.2 39.3 41 41.4 47 57 6.2 16.2 5.2 28.1 -3.7 45.3 -6.4 12.4 -14.8 21.2 -24.9 26.2 -7.4 3.7 -8.1 3.8 -19.3 4 -6.4 0.1 -14.3 0.1 -17.6 -0.1z"/>
  <path d="M162.5 305.9 c-1.1 -1.7 4.5 -9.1 19.8 -26 11.4 -12.7 16.7 -17.7 23.1 -21.9 8.3 -5.6 18.1 -13.1 24.6 -19 1.9 -1.7 6.6 -5 10.5 -7.2 3.8 -2.3 8.9 -5.6 11.2 -7.4 2.4 -1.9 10.5 -6.8 18.1 -11.1 7.5 -4.2 18 -10.4 23.2 -13.8 5.2 -3.4 16.7 -9.9 25.5 -14.5 34.5 -17.9 39.3 -20.5 48.5 -26.8 9.9 -6.7 44.2 -24.2 47.6 -24.2 3 0 21.1 -7.9 45.4 -19.7 12.4 -6.1 25.4 -11.8 29 -12.7 3.6 -0.9 9.5 -3 13.1 -4.6 3.6 -1.7 8.7 -3.4 11.5 -3.9 5 -1 8.5 -2.4 25.5 -10.4 5.3 -2.4 12.7 -5.2 16.5 -6 3.8 -0.9 10.1 -2.8 13.9 -4.3 7.5 -2.8 62.6 -21.5 71 -24 2.8 -0.8 10.4 -2.1 17 -3 6.6 -0.8 15.6 -2.6 20 -3.9 4.4 -1.3 12.5 -2.9 18 -3.5 20.3 -2.2 27.1 -3.3 32 -5.1 2.8 -1 11.1 -2.8 18.5 -3.9 16 -2.5 16.3 -2.6 26 -5.5 4.1 -1.2 10.4 -2.6 14 -3 3.6 -0.4 9.4 -1.8 12.8 -3.1 6.6 -2.4 15.1 -3.5 42.2 -5.4 8.6 -0.6 17.9 -1.9 23 -3.2 11.4 -2.9 33.1 -3.3 37.3 -0.5 6.8 4.5 4.8 5.8 -59.3 37.8 l-25.5 12.8 -41.5 41.8 c-47.3 47.6 -52.8 53.5 -60 65.3 -6.1 9.7 -12.4 18.2 -16.8 22.4 -3.1 2.9 -3.3 2.9 -19.4 3.7 -9 0.4 -28.4 0.8 -43.3 0.9 -46 0.1 -100.2 1.9 -107.5 3.6 -10.6 2.5 -15.3 3.3 -28.8 4.8 -7 0.9 -18.2 3 -24.7 4.7 -6.6 1.8 -15.1 3.5 -19 4 -3.8 0.4 -9.4 1.7 -12.2 2.8 -2.9 1.2 -9 2.8 -13.5 3.6 -4.6 0.8 -12.2 2.1 -16.9 3 -18 3.2 -51.2 12.4 -68.4 19 -3.8 1.4 -9.4 3.1 -12.4 3.6 -3 0.6 -6.4 1.7 -7.6 2.5 -1.2 0.7 -5.9 2.5 -10.6 4 -4.6 1.4 -10.6 3.4 -13.4 4.5 -2.7 1 -8.6 3 -13 4.3 -4.4 1.4 -12 3.7 -17 5.2 -4.9 1.5 -13.7 4.6 -19.5 6.9 -5.8 2.4 -12.1 4.6 -14 5 -4.4 0.9 -13.8 4.9 -31 13.2 -32.7 15.8 -42.5 19.9 -43.5 18.2z m126.5 -66.1 c7.4 -2.5 16.4 -5.5 20 -6.6 3.6 -1.1 15.7 -5.2 27 -9 37.6 -12.8 57.7 -18.5 77.1 -22.2 5.7 -1 14.2 -3 18.9 -4.5 8 -2.4 29.9 -6.6 42 -8 9.4 -1.1 25.3 -3.4 30 -4.4 2.5 -0.5 7.7 -1.6 11.5 -2.5 7.5 -1.6 44.1 -2.9 122.8 -4.2 l40.7 -0.6 5.3 -5.7 c2.8 -3.2 7 -9 9.1 -13 2.2 -3.9 5.4 -8.9 7.1 -10.9 1.8 -2 4 -5.2 4.9 -6.9 2.1 -4.1 40.2 -42.3 56.1 -56.3 20.4 -17.9 27 -22.9 52.6 -39.2 4.1 -2.6 10.1 -6.7 13.5 -9 3.3 -2.4 6.9 -4.8 8 -5.5 2.9 -1.8 -9.5 -1.7 -14.3 0.1 -2.1 0.8 -6.2 1.7 -9.2 2 -2.9 0.3 -5.9 1 -6.7 1.7 -0.8 0.6 -7.1 1.6 -14.1 2.1 -7.6 0.5 -14.8 1.7 -17.8 2.7 -2.7 1 -9 2.4 -14 3 -11.3 1.5 -22.3 3.7 -30 6 -3.3 1 -9.4 2.2 -13.5 2.6 -4.1 0.3 -11.8 1.8 -17 3.2 -11.9 3.2 -22.5 5.3 -26.9 5.3 -1.9 0 -7.9 1.5 -13.5 3.4 -5.6 1.9 -14.1 4.2 -19.1 5 -4.9 0.9 -13.2 3.1 -18.3 5.1 -5.2 1.9 -16 5.6 -24 8.1 -8.1 2.6 -18.5 6.2 -23.2 8.2 -4.7 1.9 -14.8 5.6 -22.5 8.3 -7.7 2.6 -18 6.7 -23 9 -10 4.6 -20.2 8.6 -25.3 9.9 -1.9 0.5 -4.1 1.5 -5.1 2.4 -1 0.9 -2.1 1.6 -2.5 1.6 -0.3 0 -7.3 3.1 -15.4 6.9 -21.9 10.2 -23.3 10.7 -29.9 12.9 -7.5 2.5 -8.3 2.8 -35.8 16.2 -24.3 11.8 -37.6 19 -47.7 25.6 -3.6 2.5 -18.3 10.3 -32.5 17.5 -14.2 7.3 -28.7 15 -32.3 17.3 -3.6 2.3 -9.4 5.8 -13 7.8 -3.6 2.1 -10 6.6 -14.3 10.1 -4.4 3.6 -12.1 8.9 -17.3 11.8 -16.8 9.5 -16.5 10.4 1.6 3.5 9.1 -3.4 22.6 -8.3 30 -10.8z"/>
 </g>
 <g fill="#b00000">
  <path d="M1269.4 1026.4 c-1.7 -4.1 -1.1 -9.3 1.7 -12.8 2.4 -3 8.8 -4.5 16.3 -3.7 l5.8 0.6 -9.3 9.8 c-5.2 5.3 -10.2 9.7 -11.2 9.7 -1.1 0 -2.4 -1.4 -3.3 -3.6z"/>
  <path d="M1725.2 1004.9 c-2.4 -2.5 -3.5 -8.5 -2.2 -12.8 1.5 -5.2 6.3 -12 13.9 -19.6 5.6 -5.4 7.3 -6.7 8.3 -5.7 0.7 0.7 2.6 1.2 4.3 1.2 2.8 -0.1 2.9 -0.2 1.1 -1.5 -2.8 -2.2 -1.4 -3.9 5 -5.9 5.4 -1.7 8.7 -4.2 12.4 -9.5 0.8 -1.1 3.2 -2.8 5.4 -3.6 l3.8 -1.6 -0.5 3.3 c-0.3 1.8 -0.7 4.2 -0.9 5.3 -0.3 1.8 0.4 2 6.7 2.5 l6.9 0.5 -3.3 2.7 c-1.8 1.5 -5.7 3.5 -8.8 4.4 -6.5 1.9 -11 6.1 -14.9 14.2 -3.5 7.2 -7.3 11.4 -15.3 16.8 -3.6 2.4 -8.8 6 -11.5 7.9 -5.6 4 -7.8 4.3 -10.4 1.4z"/>
  <path d="M1244.3 1002.8 c-7.6 -2.1 -9.3 -4.1 -4.5 -5.3 1.5 -0.3 4.2 -1.6 5.9 -2.6 l3.3 -2 -2.6 -4.8 -2.5 -4.8 -7 -0.7 c-10.3 -1.1 -13.6 0.8 -10.3 5.9 0.8 1.3 1.4 3.6 1.2 5.2 -0.3 2.7 -0.4 2.7 -7.7 -4.2 l-7.3 -7 4.8 -4.3 c5.6 -5.2 8 -6.2 13.8 -6.2 6.8 0 15 4.8 25.6 15 10.3 9.8 10.2 9.5 3.2 14.3 -5.2 3.6 -7.7 3.9 -15.9 1.5z"/>
  <path d="M1176.3 981.4 c-5 -2.5 -6.7 -4.8 -5.2 -7.2 1.4 -2.3 7 -5.2 10 -5.2 1.2 0 3.2 0.9 4.6 2 1.4 1.1 3.7 2 5.1 2 l2.6 0 -3.5 3.6 c-3.2 3.4 -7.8 6.4 -9.6 6.4 -0.4 0 -2.2 -0.8 -4 -1.6z"/>
  <path d="M1294.5 981.6 c-1.7 -0.7 -3.6 -2 -4.3 -2.9 -1.5 -1.8 -1.9 -8.9 -0.8 -12.5 1.3 -4 10.6 -7.2 10.6 -3.6 0 0.9 -0.7 2.2 -1.7 2.9 -2.9 2.2 0.3 2.5 4.3 0.4 l3.9 -2 2.8 3.1 c4.3 4.8 3.3 8.2 -4.3 13.7 -2.6 1.9 -7.4 2.3 -10.5 0.9z"/>
  <path d="M1698.3 969.6 c-8.3 -6.3 -26.4 -25.1 -37.4 -39.1 -20.5 -25.8 -22.2 -28.5 -18.2 -28.5 0.9 0 7.8 6.1 15.2 13.6 14.4 14.4 17.8 16.9 21.7 16 1.9 -0.5 2.4 -1.3 2.4 -3.9 -0.1 -3.8 -2.8 -7.7 -14.9 -20.7 -14.1 -15.2 -16.9 -19.3 -18.5 -26.6 -1.8 -8.1 -10.6 -18.7 -42 -50 -29 -29 -30.9 -31.5 -27.2 -35.2 1.5 -1.5 1.9 -1.5 4.9 0.1 1.7 1 7.3 5.6 12.2 10.3 17.8 17 42 34.7 57.1 42 9.8 4.7 14.5 9.6 17.3 18 3.6 11 5.8 14.2 22.4 31.8 6.2 6.5 13.8 14.6 17 18 8.3 8.8 10.1 12.6 10 21.1 0 5.6 -0.9 9.4 -4.2 19 -4.9 13.7 -7.5 18.5 -10.1 18.5 -1 0 -4.4 -2 -7.7 -4.4z"/>
  <path d="M1804.6 968.1 c-1.5 -2.4 16 -9.1 23.3 -9.1 8.6 0.1 3.1 5.9 -7.8 8.4 -7.8 1.8 -14.7 2.1 -15.5 0.7z"/>
  <path d="M1142.8 962.8 c-4.2 -1.1 -5.2 -3.8 -1.4 -3.8 2.8 0 8.6 -5.3 8.6 -8 0 -3.2 3.2 -4.2 7.1 -2.2 5.8 2.9 4.9 7.7 -2.5 12.1 -4.2 2.5 -7.4 3 -11.8 1.9z"/>
  <path d="M1865 957.3 c-4.3 -2.6 -6 -4 -6 -5.5 0 -0.4 2.6 -3.4 5.8 -6.7 3.6 -3.9 6.6 -6.1 8 -6.1 2.9 0 7.8 4.6 9.7 9.3 1.5 3.7 1.5 3.7 -0.9 3.7 -1.4 0 -2.8 -0.4 -3.1 -1 -0.3 -0.5 -1.5 -1.4 -2.5 -2 -3.1 -1.7 -6.1 2.3 -5.4 7.2 0.4 2.1 0.3 3.8 -0.2 3.8 -0.5 0 -2.9 -1.2 -5.4 -2.7z"/>
  <path d="M1324.5 955.6 c-1.8 -1.3 -1.8 -1.6 -0.5 -4.1 1.9 -3.5 10.2 -10.2 16.5 -13.1 5.1 -2.4 10.9 -3.1 11.9 -1.5 1.9 3 -8.1 15.1 -14.9 18.2 -4.8 2.2 -10.4 2.4 -13 0.5z"/>
  <path d="M1292.1 925.7 c8.8 -8.7 9.8 -9.7 16.8 -19.2 2.5 -3.2 4.6 -5.4 4.8 -4.9 0.3 0.8 1.4 0.8 3.8 0 2.9 -0.9 3.4 -1.6 3.7 -4.6 0.2 -1.9 -0.1 -4.5 -0.6 -5.7 -1 -2.5 2 -7.4 10.9 -18.3 2.5 -3 6.1 -7.7 8 -10.5 1.8 -2.7 4.6 -6.3 6 -8 3.6 -4 7.5 -9.7 16.6 -24 13.2 -21.1 21.5 -30.3 31.4 -35.1 5.5 -2.6 13 -3.2 18.4 -1.3 4 1.4 4 3.7 -0.1 7.6 -4 3.9 -7.6 5.3 -13.3 5.3 -6.6 0 -9.1 1.4 -16.5 9.2 -8.1 8.4 -11.4 14.2 -12.9 22.1 -1.1 6.3 -2 7.7 -11.4 17.7 -8.6 9.3 -10.2 11.2 -15.9 19.8 -2.8 4.3 -7.3 10.4 -9.9 13.8 -2.6 3.3 -7.2 9.9 -10.2 14.7 -5.9 9 -17.6 22.1 -24.1 26.9 -3.1 2.2 -5 2.8 -8.9 2.8 l-5 0 8.4 -8.3z"/>
  <path d="M1344.8 926.5 c-3.5 -2.4 -7.8 -9.4 -7.8 -12.9 0 -3.7 3.4 -8.7 15.1 -21.6 6.6 -7.4 14.7 -17.5 18.1 -22.5 7.1 -10.3 35.2 -39.2 48.8 -50 4.7 -3.7 12.3 -10.2 16.9 -14.4 9.2 -8.4 12.7 -10.9 13.7 -9.8 1.6 1.6 -3.1 7.1 -25.6 30.1 -13 13.3 -25.2 26.6 -27.3 29.6 -2 3 -6 8 -8.9 11.1 -8.3 8.8 -10 10.9 -14.9 18.4 -7.9 12 -11.9 21.3 -11.9 28.2 0 6.9 -6.3 16.3 -10.9 16.3 -0.9 0 -3.3 -1.1 -5.3 -2.5z"/>
  <path d="M1738.9 916.2 c-0.2 -0.5 -4.9 -5.8 -10.4 -11.7 -12.2 -13.2 -10.5 -11.3 -19.5 -21.5 -4.1 -4.7 -7.7 -8.7 -8 -9 -0.3 -0.3 -3.2 -3.6 -6.5 -7.5 -3.3 -3.8 -6.2 -7.2 -6.5 -7.5 -1.7 -1.6 -9 -11.4 -9 -12 0 -0.4 0.6 -1 1.4 -1.3 2.2 -0.9 8.8 4.4 23.6 18.9 13.3 13.1 20.5 19.4 22.1 19.4 2.8 0 3.9 -1.5 3.9 -5.4 -0.1 -10.3 -9.2 -21.9 -47.4 -60.2 -23.5 -23.5 -35.1 -34.2 -54.1 -49.8 -7.7 -6.3 -15.5 -13.8 -15.5 -14.8 0 -2.4 5.8 0 14.9 6.1 3 2 8.5 5.2 12.2 7.1 3.7 1.9 11.2 6.5 16.6 10.1 5.4 3.7 15.7 9.7 22.8 13.4 14.6 7.6 22.1 12.2 28.1 17.1 2.3 1.8 7 5 10.5 7 3.5 2.1 9.8 6.3 13.9 9.3 8.8 6.6 16.7 11.1 19.5 11.1 3.6 0 6.5 -2.8 6.5 -6.3 0 -3.6 -2.1 -6.4 -9.5 -12.2 -14 -11.2 -19.5 -16.8 -19.5 -19.9 0 -6.9 4.6 -4 23.5 14.3 14.3 13.8 19.8 18.6 27.3 24 3.4 2.4 6.2 4.7 6.2 5.1 0 0.4 -2.1 4.3 -4.8 8.7 l-4.7 8 -3.5 -1.3 c-1.9 -0.7 -6 -1.3 -8.9 -1.3 -6.6 -0.1 -12 3.1 -14.6 8.6 -1.5 3.2 -1.6 4.9 -0.7 14.9 1.1 11.4 2.2 15.2 5 16.8 0.8 0.4 1 1.1 0.6 1.5 -1.4 0.9 -8.3 11.4 -10.7 16.2 -2.2 4.2 -4.2 5.9 -4.8 4.1z"/>
  <path d="M1280.2 902.8 c-2.2 -4 -4.9 -9.3 -5.8 -11.8 -1.7 -4.4 -6 -11.5 -8.7 -14.2 -1.8 -1.8 -11.7 -18.5 -11.7 -19.7 0 -0.5 1.9 -2 4.3 -3.4 3.8 -2.3 7.9 -6.1 19.4 -18.2 11.5 -12.2 25.5 -21.9 48.8 -34 16.1 -8.3 23.4 -12.3 25 -13.4 0.6 -0.5 5.7 -2.5 11.5 -4.6 5.8 -2.1 13.4 -5.1 16.9 -6.7 7.1 -3.3 15.2 -4.5 19.4 -2.9 4.6 1.8 3.2 3.7 -5.5 7.1 -12 4.8 -17.2 8.3 -29.8 20.4 -7.6 7.3 -10.5 11 -15.2 19.1 -2.3 3.9 -6 9 -8.3 11.5 -2.3 2.5 -6.5 8.3 -9.4 12.9 -2.9 4.7 -7.8 11.9 -10.9 16 -10.3 13.9 -18.3 25.8 -25.2 37.6 -5.2 8.9 -7.3 11.5 -9.5 11.5 -0.6 0 -3 -3.3 -5.3 -7.2z"/>
  <path d="M1511.9 894.9 c-2.9 -1.1 -4.9 -4.6 -4.9 -8.8 0 -3.4 1.4 -4.1 8 -4.1 8.5 0 11.9 2.3 10.6 7.3 -1.2 4.4 -8.6 7.5 -13.7 5.6z"/>
  <path d="M1516.2 870.5 c-4 -1.7 -9.2 -5.3 -9.2 -6.4 0 -0.4 3 -2.2 6.7 -4.1 8 -4.1 18.8 -5.5 19.9 -2.5 0.9 2.2 -4.1 9.2 -8.5 12.2 -3.9 2.7 -4.5 2.7 -8.9 0.8z"/>
  <path d="M1801.9 831.8 c-11.6 -12.4 -15 -16.3 -19.3 -22.3 -1.6 -2.2 -3.9 -4.9 -5.2 -6.1 -1.2 -1.1 -3.9 -4.5 -5.8 -7.4 l-3.6 -5.5 0 -37.2 0 -37.2 4.6 -3.2 c6.3 -4.3 15 -7.7 23.3 -8.9 3.8 -0.6 10 -2.2 13.7 -3.6 3.7 -1.3 7.1 -2.4 7.5 -2.4 0.5 0 0.9 9.5 0.9 21 l0 21 -3.1 5.8 c-4.8 8.6 -11 19.1 -14.6 24.5 -6 8.9 -3.8 16.9 8.4 31.4 l4.3 5.2 -0.2 18.1 -0.3 18.1 -10.6 -11.3z"/>
  <path d="M1245.1 836.4 c-1.2 -1.9 -2.1 -3.8 -2.1 -4.2 0 -1.5 45.7 -46.2 47.2 -46.2 4 0 2.7 4.6 -4 13.9 -4.5 6.4 -36.7 40.1 -38.2 40.1 -0.5 0 -1.7 -1.6 -2.9 -3.6z"/>
  <path d="M1503 830.4 c-4.2 -1.7 -5.4 -8.5 -2.2 -12.4 2.5 -3.1 13.2 -4.3 13.2 -1.5 0 1 -0.7 2.3 -1.6 3 -1.2 0.8 -1.4 1.7 -0.8 2.8 1.5 2.7 5.4 -0.5 5.4 -4.4 0 -3 0 -3.1 4.3 -2.4 11.2 1.7 12.3 2.5 11.3 8 -1 5.2 -4.7 6.7 -17.6 7.1 -5.8 0.2 -11.2 0.1 -12 -0.2z"/>
  <path d="M1644.6 828.9 c-5.4 -2.9 -12.6 -9.8 -12.6 -12.1 0 -2.9 4.8 -2.2 11 1.5 5.3 3.1 10.4 9 9.7 11.1 -0.6 1.9 -4 1.6 -8.1 -0.5z"/>
  <path d="M1310 773.4 c0 -1 1.3 -2.6 2.8 -3.5 2.5 -1.4 2.7 -2 2.4 -5.6 l-0.4 -4 6.8 -0.2 c8.2 -0.2 9.9 -0.6 18.5 -4.2 3.7 -1.5 10.6 -3.2 15.5 -3.9 9.7 -1.2 17.8 -4.2 17.2 -6.2 -0.8 -2.3 -10.1 -4.6 -21.3 -5.3 -16.1 -0.9 -17 -1.1 -21.5 -5.5 -4.5 -4.4 -5.8 -8.1 -4 -11.5 2.1 -3.9 6.4 -5 19.5 -5 11.2 0 12.3 0.2 17 2.8 2.8 1.6 6.4 4.7 8.1 7 1.6 2.3 4.3 5.9 5.8 8.1 4.4 5.9 9.1 7.2 24.6 6.6 2.5 -0.1 6.5 0.3 8.9 1 3.7 1 4.2 1.4 3 2.5 -2.7 2.6 -21.5 7.9 -33 9.3 -5.1 0.7 -9.4 2 -13.6 4.1 -3.4 1.8 -8.2 3.4 -10.8 3.6 -2.6 0.3 -7.4 1.7 -10.8 3.1 -12.1 5.2 -19.7 7.4 -27.2 8.1 -6.9 0.5 -7.5 0.4 -7.5 -1.3z"/>
  <path d="M1721.4 771.1 c-2.6 -1.6 -5.7 -1.9 -20.5 -2.3 -19.3 -0.5 -21.4 -1 -39 -9.8 -10.1 -5 -11.8 -6.4 -10.3 -8.7 2.3 -3.7 7.8 -4.4 32.4 -4.1 25.8 0.3 26 0.4 33.7 7.1 9.2 8.1 14 17.4 9.7 19.1 -2.3 0.9 -2.6 0.8 -6 -1.3z"/>
  <path d="M1647.2 724.7 c-7 -3.9 -7.3 -16.2 -0.4 -19.3 2.1 -0.9 43.4 -1.8 46.7 -1 3.3 0.8 8.5 5.4 8.5 7.6 0 2.4 -4.3 6.4 -9.4 8.9 -9.4 4.4 -39.7 6.9 -45.4 3.8z"/>
  <path d="M1229.8 684.3 l-11.8 -0.4 0 -14.2 0 -14.3 38.6 0.3 c24 0.1 40.1 0.7 42.7 1.4 15.7 4.1 27.1 9.7 30 14.7 1.7 2.8 1.7 3.3 0.2 6.1 -0.8 1.7 -2.5 3.6 -3.8 4.2 -3.9 2.2 -54.5 3.3 -95.9 2.2z"/>
  <path d="M1747.5 683.5 c-10.9 -1.9 -22.7 -7.6 -27.8 -13.3 -2.2 -2.5 -2.5 -9.8 -0.5 -11.8 1.6 -1.6 14 -2.9 39.3 -3.9 17.9 -0.8 33.9 -3.3 40.6 -6.3 2.4 -1.2 6.7 -4.1 9.4 -6.5 l5 -4.5 -3.5 -3.6 c-1.9 -2 -5 -4.1 -6.9 -4.6 -2.2 -0.6 -15 -0.7 -33.1 -0.4 -32.7 0.7 -41.8 -0.1 -50.7 -4.3 -6.3 -3 -21.8 -17.3 -26.1 -24 -6.9 -11.1 -5.2 -13.8 14.8 -24.5 11.3 -6 16.1 -7.9 21.5 -8.9 8 -1.3 20.2 -0.5 22.4 1.5 2.1 1.9 11.6 5.6 14.4 5.6 1.2 0 6 1.6 10.7 3.6 24.4 10.3 23.8 10.2 33.8 6.7 10.2 -3.6 15.5 -3.5 27.1 0.6 11.1 3.9 15.8 3.8 26.8 -0.3 7.7 -2.8 12.3 -2.7 12.3 0.3 0 0.9 -5.3 10.6 -11.7 21.6 -6.3 11 -15 26.1 -19.3 33.5 -4.2 7.4 -9.3 16.2 -11.2 19.5 -1.9 3.3 -5 8.5 -6.8 11.6 l-3.3 5.7 -11.1 0.4 c-9.1 0.4 -12.2 1 -17.2 3.1 -10.5 4.5 -33.6 6 -48.9 3.2z"/>
  <path d="M1900.3 671.2 c-1.5 -1.8 -2.3 -4 -2.3 -6.7 0 -4.4 3.5 -12.7 7.1 -17 2.5 -2.9 9.2 -7.5 10.9 -7.5 2 0 1 4 -2.4 9.2 -5.7 9 -9.4 17 -6.4 14 0.7 -0.7 2.5 -1.2 4 -1.2 l2.9 0 -1.7 3.3 c-2.2 4.3 -6.4 8.7 -8.3 8.7 -0.9 0 -2.6 -1.3 -3.8 -2.8z"/>
  <path d="M1209 625.1 c0 -4.9 -0.3 -9.6 -0.6 -10.5 -0.4 -1.1 1.3 -2.5 6.7 -5.1 14.8 -7.5 16.7 -9.6 21.5 -24.2 2 -5.9 2.7 -10 2.8 -16.8 0.1 -11.4 -1.4 -14.2 -10.4 -19.7 l-6.5 -3.9 0.4 -7.2 c0.1 -4 0.4 -7.3 0.6 -7.5 0.6 -0.6 15 4 25 8 10.3 4.2 28.4 9.8 31.5 9.8 0.9 0 2.7 0.9 4 2 4.2 3.7 27.3 2.3 43 -2.6 7.2 -2.2 17.8 -2.4 20.7 -0.4 1.2 0.9 5.2 4.3 8.9 7.5 12 10.7 17.4 12.7 22.8 8.4 4.2 -3.3 5.6 -7 5.6 -15.3 0 -4.1 0.3 -8.1 0.6 -9 1 -2.5 4 -1.9 6.7 1.4 3.4 4 4.2 10.8 3.3 29.4 -1.1 25.6 -4 32.6 -13.3 32.6 -1.5 0 -8.3 -2.6 -15.2 -5.9 -12.9 -6 -34.1 -13.6 -41.1 -14.7 -7.6 -1.2 -13 2.1 -13 8.1 0 4.9 3 7.4 16 13.1 14.3 6.3 18 9.3 18.7 15.4 0.4 4 0.1 5 -2.2 7.8 -4.7 5.6 -7.8 6.6 -14.9 5.1 -4.7 -1.1 -17.8 -1.4 -56.6 -1.4 -49.9 0 -50.6 0 -56.5 2.3 -3.2 1.2 -6.5 2.2 -7.2 2.2 -1 0 -1.3 -2.3 -1.3 -8.9z"/>
  <path d="M1640.1 580.9 c-3.8 -1.5 -5 -4 -5.1 -10.3 0 -4.7 0.6 -6.9 3 -11 3.8 -6.8 13.5 -15.9 18.4 -17.6 4.6 -1.5 17.3 -0.8 28.1 1.6 13.8 3 13.8 3 19.7 -1.2 16.5 -11.8 17.9 -15.5 9.3 -25 -2.4 -2.7 -4.4 -5.3 -4.5 -5.7 0 -0.5 1.8 -2.7 4.1 -4.9 l4.1 -4.1 7.3 7.3 7.4 7.3 14.5 -0.6 c14.1 -0.6 14.6 -0.6 14.6 1.3 0 1.1 -0.4 2 -1 2 -0.5 0 -0.1 1.5 1 3.3 3.1 5.1 2.6 6.1 -4.2 9.2 -10.6 4.7 -19.6 8.9 -38.8 18.3 -47.6 23.1 -55 26.5 -61.7 28.8 -7.5 2.5 -12.2 2.9 -16.2 1.3z"/>
  <path d="M1917 469.7 c0.5 -15.4 0.9 -16.6 6.1 -19.3 2.7 -1.4 2.9 -1.3 4.3 1.4 0.8 1.5 1.7 4.9 2.1 7.5 l0.7 4.7 -3.1 0 c-3.4 0 -3.2 -0.6 -5.2 12.3 -1 6.8 -1.4 7.7 -3.3 7.7 -2.1 0 -2.1 -0.3 -1.6 -14.3z"/>
  <path d="M1910.6 410.3 c-0.3 -1.6 -0.8 -7.5 -1.2 -13.3 -0.9 -13.9 -2 -16.5 -8.4 -19.3 -3.8 -1.7 -5 -2.7 -4.8 -4.2 0.5 -3.2 6.4 -6.5 11.8 -6.5 l4.8 0 0.7 4.7 c0.4 2.6 2.9 9.7 5.7 15.8 2.7 6 5.2 11.6 5.5 12.3 0.8 1.8 -3.7 1.5 -5.8 -0.4 -2.7 -2.5 -3.7 -1 -4.5 6.6 -0.7 7.3 -2.7 9.6 -3.8 4.3z"/>
  <path d="M1764.6 399.9 c-1.4 -1.1 -2.6 -2.9 -2.6 -4 0 -2.9 6.6 -9.6 12.3 -12.4 l5 -2.6 -0.7 4.8 c-0.3 2.6 -1.8 7.4 -3.3 10.5 -2.3 4.7 -3.2 5.7 -5.4 5.7 -1.5 0.1 -3.8 -0.8 -5.3 -2z"/>
  <path d="M1164.8 383.3 c-7 -0.3 -7.8 -0.6 -7.8 -2.3 0 -1.6 0.7 -2 3.8 -2 2 0 5.2 -0.9 7 -2 2.6 -1.6 3.2 -2.6 3.2 -5.4 l0 -3.5 6.3 2 c14.1 4.4 16.3 5.2 19 7.1 8.2 5.8 -0.3 7.4 -31.5 6.1z"/>
  <path d="M1829 359.5 c0 -1.8 -0.5 -2.5 -2 -2.5 -4.2 0 -1.7 -2.9 5.2 -6 8.4 -3.7 16.6 -5.7 19.4 -4.6 1.7 0.7 1.6 1 -1.6 3.7 -3.2 2.7 -19 11.9 -20.4 11.9 -0.3 0 -0.6 -1.1 -0.6 -2.5z"/>
 </g>
 <g fill="#ea0000">
  <path d="M1232.1 998.2 c-5.6 -2.8 -9.8 -7.3 -10.1 -10.7 -0.9 -8.2 2.4 -9.6 18.8 -7.9 5.9 0.7 6.2 0.8 8.3 4.8 1.1 2.2 2.9 5.1 4 6.5 l1.9 2.4 -3.2 2.4 c-4.1 3.2 -9.1 5.3 -12 5.3 -1.3 0 -4.7 -1.3 -7.7 -2.8z"/>
  <path d="M1752.8 973.9 c-2 -2.2 -3.5 -2.9 -6.1 -2.9 -4.8 0 -6.3 -2.1 -3.4 -4.8 5.2 -4.9 11.7 -4.8 11.7 0.3 0 1.4 0.9 3 2 3.7 2.5 1.6 2.6 4.4 0.2 5.7 -1.5 0.8 -2.4 0.4 -4.4 -2z"/>
  <path d="M1294.3 970.4 c-2 -0.9 -1.5 -5.2 0.7 -7.4 2.9 -2.9 7.4 -2.5 11.2 0.9 l3.2 2.8 -2.7 1.8 c-2.8 1.8 -10.2 2.9 -12.4 1.9z"/>
  <path d="M1135.6 959.5 c-1.8 -1.7 -2.6 -3.4 -2.6 -5.9 0 -8.1 10.1 -10.8 22 -5.8 l3.4 1.4 -2.7 1.4 c-1.5 0.9 -2.7 2.3 -2.7 3.4 0 1.1 -1.4 3.3 -3.1 5 -4.2 4 -10.3 4.2 -14.3 0.5z"/>
  <path d="M1774.3 960 c-1.8 -0.7 -2.3 -1.7 -2.3 -4.5 0 -3.7 1.4 -7.4 3.4 -8.7 0.6 -0.4 2.4 -0.8 3.9 -0.8 7.7 0 13.6 8.1 9 12.2 -2.2 1.9 -11 3 -14 1.8z"/>
  <path d="M1872 960.2 c-3.9 -0.6 -5 -2.1 -5 -6.6 0 -5.5 2.8 -8.6 7.6 -8.6 4.3 0 9.4 4.5 9.4 8.2 0 4.5 -6.1 8.1 -12 7z"/>
  <path d="M1202.2 953 c-5.2 -3.8 -5.5 -6.9 -1.1 -11.1 3 -2.8 6.3 -3.6 8.4 -2.1 1.7 1.1 5.5 6.9 5.5 8.3 0 2.1 -5 7.9 -6.9 7.9 -1 0 -3.7 -1.4 -5.9 -3z"/>
  <path d="M1264.9 953.1 c-1.6 -1.6 -2.9 -3.6 -2.9 -4.5 0 -3.1 2.3 -6.5 5.7 -8.3 l3.4 -1.8 2.6 2.9 c2.1 2.5 2.4 3.7 2 7.5 -0.8 7.4 -5.7 9.3 -10.8 4.2z"/>
  <path d="M1842 946.7 c-1.4 -0.7 -3.5 -3.1 -4.8 -5.4 -2.2 -4 -2.2 -4.4 -0.7 -7.2 0.8 -1.7 2.9 -3.8 4.6 -4.6 2.7 -1.5 3.3 -1.5 5.4 -0.1 2.6 1.7 6.5 11.1 6.5 15.6 0 2.9 -0.2 3 -4.2 3 -2.4 0 -5.4 -0.6 -6.8 -1.3z"/>
  <path d="M1174.6 932.7 c-2.9 -3.8 -3.1 -4.6 -1.4 -8.1 2.1 -4.7 6.7 -5 11.1 -0.8 3.5 3.4 3.4 5.1 -0.6 9 -4.2 4.1 -6 4 -9.1 -0.1z"/>
  <path d="M1133.6 920 c-0.3 -8 -0.9 -18.1 -1.2 -22.5 -0.5 -7.7 -0.4 -8.2 2.1 -10.9 2.4 -2.6 3.1 -2.8 7.6 -2.4 8.2 0.8 11.9 6.2 11.9 17.2 0 8.5 -3.8 16.1 -12.7 25.6 l-7.1 7.5 -0.6 -14.5z"/>
  <path d="M1743.2 920 c-2.8 -2.7 -5.2 -5.2 -5.2 -5.4 0 -0.4 11.1 -19.5 12.4 -21.3 0.1 -0.2 8.7 2.5 17.4 5.5 5.2 1.7 7.8 4.3 8.6 8.4 1 4.9 0.7 10.8 -0.5 10.8 -0.6 0 -5.1 -2.7 -10 -6 -4.9 -3.2 -10.8 -6.5 -13 -7.2 -3.9 -1.1 -4.2 -1 -6 1.3 -2.4 3.2 -2.4 8 0.2 13 3.1 6.2 1.9 6.5 -3.9 0.9z"/>
  <path d="M1851.7 911.3 c-1.1 -1.1 -0.8 -9.3 0.4 -11.6 1.6 -3 2.8 -3.7 7 -3.7 7.5 0 9.5 7.5 3.4 12.9 -3.4 3 -9 4.2 -10.8 2.4z"/>
  <path d="M1279.2 909.2 c-1.5 -1 -3.2 -6.6 -3.2 -10.9 0 -10.1 -11.7 -26 -23.5 -31.7 -6.3 -3.1 -6.6 -3.1 -8.8 -0.6 -0.9 1.1 -2.9 2 -4.3 2 -1.4 0 -3.8 0.8 -5.2 1.9 -1.5 1 -9.4 5.3 -17.7 9.6 -15.3 8 -28.5 16.1 -28.5 17.6 0 2.1 -4.3 3.1 -8.1 2 -5.4 -1.6 -7.9 -7.1 -7.9 -17.7 0 -10.9 1.5 -13.1 12.2 -18.3 4.6 -2.2 10.5 -4.5 13.3 -5.1 5.6 -1.3 20.1 -7.8 26 -11.8 2.2 -1.5 7.1 -5.2 10.9 -8.2 12.5 -10.1 10.8 -9.5 13.8 -4.6 l2.6 4.3 -3.4 4.3 c-4 5.1 -4.1 5.7 -1.1 10.1 2 3 2.9 3.4 6.5 3.4 3.1 0 4.5 0.5 5.7 2.2 4.9 6.9 29.5 50.5 29 51.3 -0.7 1.2 -6.5 1.3 -8.3 0.2z"/>
  <path d="M1311 906.1 c0 -2.4 5.3 -12.7 8.6 -16.6 2.4 -2.9 2.5 -2.9 3.9 -1.1 1.8 2.3 1.9 5.7 0.4 10.9 -0.8 3 -1.9 4.2 -5.9 6.2 -5.9 3 -7 3.1 -7 0.6z"/>
  <path d="M1810.5 870.3 c-5.2 -1.2 -12.7 -3.9 -19.6 -7.3 -4.1 -2 -9.9 -4.5 -12.7 -5.5 -3.6 -1.3 -5.1 -2.4 -4.7 -3.3 1 -2.7 8.6 -15.1 9.6 -15.7 0.5 -0.4 3.5 1.5 6.6 4.2 8.6 7.3 28.3 26.4 28.3 27.4 0 0.9 -3.9 1 -7.5 0.2z"/>
  <path d="M1123.4 863.9 c-1.7 -0.5 -3.8 -1.7 -4.8 -2.8 -1.7 -1.8 -1.7 -2.3 0 -10.4 2.3 -11.1 1.8 -12.2 -11.7 -26.3 -5.9 -6.2 -11.2 -12.2 -11.9 -13.3 -0.9 -1.8 -0.7 -2.2 1.5 -3.1 3.5 -1.3 21 -1.3 26 0.1 2.2 0.6 5 2.3 6.3 3.8 5.7 6.4 15.3 25.7 16.8 33.5 0.8 4.5 -2.4 11.6 -6.7 14.9 -2.8 2.1 -10.1 4.9 -11.9 4.6 -0.3 0 -1.9 -0.5 -3.6 -1z"/>
  <path d="M1835.3 862.7 c-2.8 -1.5 -19.1 -15.7 -22.6 -19.7 l-2.7 -3 0 -18.1 0 -18.1 6.1 5.5 c3.3 2.9 8.5 6.9 11.6 8.7 4.9 3 6.6 3.4 17.8 4.4 6.8 0.7 12.7 1.4 13 1.7 0.5 0.6 -6.7 10.6 -8.6 11.9 -2.2 1.6 -4.9 9 -4.9 13.5 0 8.6 -5.2 15.6 -9.7 13.2z"/>
  <path d="M1865.4 853.9 c-1.5 -1.7 -1.9 -3.6 -1.9 -9.9 0 -10.7 1.2 -12 11.1 -12 8.5 0 11.4 1.1 13.8 5.2 5 8.3 -4.9 18.8 -17.6 18.8 -2.3 0 -4.2 -0.7 -5.4 -2.1z"/>
  <path d="M1163 854.3 c0 -0.4 1.3 -3 2.8 -5.8 2.5 -4.7 3.4 -5.4 15.5 -11.5 20.2 -10.3 29.3 -20.5 37.4 -42 5.6 -14.9 1.6 -30.5 -12.5 -48.1 -6.5 -8.2 -12.4 -13.4 -19.2 -17 -9.4 -4.8 -26.8 -1.7 -40.3 7.2 -6.1 4 -22.6 21.5 -24.5 25.9 -0.8 1.9 -2.3 7.5 -3.3 12.5 -1.5 7.5 -2.2 9.4 -4.6 11.2 -7.2 5.8 -26.1 5.5 -30 -0.4 -2 -3 -1.3 -13.3 1.3 -18.9 7.4 -16 25.6 -33.2 44.9 -42.3 12 -5.7 16.5 -6.4 46.5 -6.5 25.5 -0.1 26.8 0 33.9 2.3 19.7 6.5 34.3 22.2 38.6 41.5 1.5 6.9 1.5 8.2 0 18.2 -2.9 18.6 -7.4 27.5 -19.1 38.3 -10.3 9.5 -10.2 9.4 -47.4 28.9 -10.5 5.5 -20 8.6 -20 6.5z"/>
  <path d="M1508.2 825 c-3.5 -5.6 0.4 -10.4 8 -9.8 4 0.3 4.3 0.5 4.6 3.5 0.6 6.6 -9.3 11.5 -12.6 6.3z"/>
  <path d="M1881.4 813.6 c-3.7 -1.6 -9.9 -8.1 -11.5 -11.9 -1.5 -3.5 -0.2 -6.1 6.1 -12.7 6.9 -7.2 13.7 -12 17.2 -12 7.9 0 11.8 6.3 11.8 18.9 0 7.1 -0.3 8.2 -3.1 12 -4.7 6.6 -13.1 8.9 -20.5 5.7z"/>
  <path d="M1767.5 789.3 c-5.2 -9.4 -5.8 -12.9 -5.2 -31.1 0.4 -13.8 0.8 -17.8 2.6 -22.7 1.6 -4.3 2 -7.2 1.6 -10.2 -0.6 -4.3 1.4 -10.3 3.5 -10.3 0.6 0 1 14.5 1 39.5 0 21.7 -0.2 39.5 -0.4 39.5 -0.2 0 -1.6 -2.1 -3.1 -4.7z"/>
  <path d="M1507.6 769.8 c-4.2 -8.4 -8.8 -18.8 -10.1 -23 -1.3 -4.3 -3.6 -10.6 -5.1 -14 -2.5 -6 -2.7 -7.6 -3.6 -30.5 -1.2 -28.9 -0.5 -36.1 4.3 -46 3.3 -6.6 10.5 -15.3 12.7 -15.3 3.5 0 2 18.1 -2.4 30.2 -3.6 9.7 -4.2 15.7 -1.9 17.4 2.3 1.7 5.9 -0.1 10.8 -5.5 4.3 -4.8 6.9 -9.6 9.1 -17 2.3 -7.8 2 -13.1 -1.1 -20.8 -3.3 -8.1 -4 -21.6 -1.3 -23.3 2.4 -1.5 3.3 -0.8 7.3 6.1 3.4 5.9 5.5 10.8 10.1 24.4 1 2.8 2.5 6.8 3.3 9 3.4 8.9 2.7 33.5 -1.3 41.3 -1.4 2.8 -2.5 8.2 -5.6 27.2 -0.6 3.6 -2.4 9.7 -4.1 13.5 -2.7 6.1 -3.2 8.5 -3.7 18.5 -0.5 12.3 -1.7 15.6 -7.4 20.9 l-2.4 2.3 -7.6 -15.4z"/>
  <path d="M1303.3 774 c-1.3 -0.5 -2.3 -1.4 -2.3 -2 0 -2.8 13.9 -12.8 16 -11.5 0.5 0.3 1 1.3 1 2.1 0 0.8 0.6 1.4 1.4 1.4 2.6 0 2.8 1.9 0.6 5 -3.8 5.3 -10.7 7.4 -16.7 5z"/>
  <path d="M1896.5 755 c-4.5 -1.8 -12.5 -12.9 -12.5 -17.3 0 -7.6 -13 -19.2 -25 -22.3 -6.7 -1.7 -12.2 -0.3 -22.2 5.8 -10.5 6.3 -13.1 8.8 -17.5 16.6 -1.9 3.4 -3.7 6.2 -3.9 6.2 -0.2 0 -0.4 -10.3 -0.4 -22.9 0 -22.8 0 -22.9 2.3 -23.6 3 -1.1 52.9 -1.8 54.2 -0.8 0.6 0.4 4.4 5.1 8.5 10.3 4.1 5.2 8.5 10.6 9.8 12 4.3 4.7 14.1 20 15.1 23.7 2.7 9.8 -1.1 15.4 -8.4 12.3z"/>
  <path d="M1120 692.1 c-1.9 -0.5 -2.9 -2 -4.6 -6.9 -1.2 -3.5 -3.1 -7.3 -4.3 -8.6 -1.7 -1.8 -2.1 -3.5 -2.1 -8.7 0 -5.5 0.4 -6.9 2.3 -8.7 2.9 -2.7 10.5 -4.2 21.2 -4.2 l8.3 0 10.2 9.7 c11.9 11.3 24.4 21.9 28.3 23.9 7 3.7 1.9 4.4 -30.8 4.3 -14.3 -0.1 -27.1 -0.4 -28.5 -0.8z"/>
  <path d="M1208.8 683 c-11 -1.4 -16.6 -5.4 -43.3 -31.1 -5.5 -5.3 -11.2 -10.7 -12.7 -11.9 -2.7 -2.3 -2.8 -2.6 -2.8 -13.4 l0 -11.1 5 -10.2 c5.7 -11.7 8.4 -14.3 14.6 -14.3 4.2 0 4.6 0.3 9.4 6.4 5.8 7.4 9.9 10.8 17.6 14.3 5.4 2.4 6.8 2.5 13.2 0.7 2.2 -0.6 2.2 -0.6 2.2 10.4 l0 11.1 -5.7 0.6 c-12.4 1.3 -12.3 1.3 -12.3 4.8 0 1.8 1 4.9 2.3 7.1 2.7 4.7 8 7.1 18 8.2 l6.7 0.7 0 14.3 0 14.4 -3.2 -0.1 c-1.8 -0.1 -5.9 -0.5 -9 -0.9z"/>
  <path d="M1821.5 676.1 c-0.3 -0.6 1.1 -3.9 3.1 -7.3 5.3 -9 9.6 -16.4 18.4 -31.8 24.8 -43.4 31.3 -54 32.9 -54 4.9 0 9.7 6.9 14.1 20.1 3.9 11.8 5.4 21.4 4.8 30.7 -0.5 6.7 -1.1 8.5 -8.8 23.7 -8.3 16.2 -8.4 16.4 -12.4 17.4 -6 1.5 -51.2 2.5 -52.1 1.2z"/>
  <path d="M1902 664.5 c0 -3.2 7.9 -18.6 12.4 -24.2 0 0 1.8 -0.4 3.9 -0.8 3.3 -0.7 3.7 -0.5 3.7 1.4 0 2.5 -5.6 17.5 -7.9 21.1 -2.4 3.8 -4.3 4.9 -8.3 5 -3.4 0 -3.8 -0.3 -3.8 -2.5z"/>
  <path d="M1099 636.1 c-1.9 -0.4 -4.5 -1.3 -5.7 -2 -7.3 -3.9 2.5 -20.6 15.6 -26.4 6.1 -2.7 15.1 -2.9 17.9 -0.4 2.4 2.2 4.5 10 4.6 17.5 0 5 -0.2 5.7 -3.3 8.2 -1.8 1.5 -4.6 3.1 -6.3 3.4 -3.9 0.8 -18.3 0.6 -22.8 -0.3z"/>
  <path d="M1787 561.1 c-7.9 -2 -15 -8.4 -15 -13.5 0 -4.4 10.7 -10.2 28.5 -15.5 11.2 -3.3 21.5 -10.8 21.5 -15.6 0 -3 0.5 -3 -10.5 -0.5 -15.9 3.5 -33.3 8.2 -43.1 11.8 l-7.8 2.8 -3.9 -6.4 c-2.1 -3.5 -3.7 -6.6 -3.4 -6.8 0.2 -0.2 4.4 -0.8 9.3 -1.3 5.6 -0.5 10.7 -1.6 13.9 -3.1 2.7 -1.2 8.2 -2.7 12.1 -3.1 4 -0.5 10.6 -2 14.7 -3.4 4.1 -1.3 11 -2.7 15.3 -3 4.4 -0.4 11.1 -1.5 14.9 -2.5 3.9 -1 8.6 -2.1 10.5 -2.4 7.3 -1.2 30 -9.4 42 -15 3 -1.4 6.9 -2.6 8.7 -2.6 2.7 0 3.2 0.4 3.8 3.1 1.3 5.8 -0.5 18.4 -3.5 24.7 -3.3 6.9 -15.7 21.4 -23.1 26.8 -6.8 4.9 -11.3 5.1 -22.7 0.6 -11 -4.3 -15.6 -4.9 -22.3 -2.7 -9.6 3.2 -21 12.6 -24 19.7 -1.1 2.8 -1 3.2 1.1 4.8 3.7 2.8 1.7 4 -6.8 3.9 -4.2 -0.1 -8.8 -0.4 -10.2 -0.8z"/>
  <path d="M1172.8 551.6 c-6.8 -6.7 -12.9 -14.2 -18.3 -22.6 -2.6 -4.1 -6.8 -9.7 -9.4 -12.5 -8.7 -9.3 -11.1 -15.5 -6.1 -15.5 1.2 0 6.2 1.8 11.3 3.9 5.1 2.2 10.6 4.3 12.2 4.7 1.7 0.3 5.7 2.1 9 3.9 3.3 1.8 8 3.6 10.5 4 2.5 0.4 8.5 2.3 13.4 4.2 5.9 2.3 11.3 3.6 16 4 4.7 0.3 8 1.2 9.8 2.4 1.5 1 3.2 1.9 3.8 1.9 0.6 0 1 3.2 1 8.1 0 7.3 -0.2 8.1 -1.7 7.6 -1 -0.4 -4.9 -1.8 -8.8 -3.1 -3.8 -1.4 -8 -2.6 -9.3 -2.6 -3.5 0 -9.1 2.7 -14 6.8 -5.8 4.8 -12.4 9.2 -13.8 9.2 -0.5 0 -3.1 -2 -5.6 -4.4z"/>
  <path d="M1914.8 511 c-2.5 -1.9 -2.8 -2.8 -2.8 -7.8 0 -3.6 1.1 -9 2.9 -14.7 1.7 -4.9 3.5 -12.1 4.1 -16 0.7 -3.8 1.4 -8 1.6 -9.2 0.2 -1.2 1.3 -2.4 2.4 -2.7 1.1 -0.3 2.9 -0.8 3.9 -1.1 2.3 -0.7 3.3 1.9 5.5 14.5 4.4 25.4 4.3 30.1 -1.5 35.6 -4 3.8 -12.2 4.6 -16.1 1.4z"/>
  <path d="M1919.5 431 c-2.9 -1.1 -5.5 -4.3 -7.1 -8.7 -1.4 -4.1 -1.7 -16.2 -0.6 -22.8 0.7 -3.8 0.9 -4 4.6 -4.3 4.9 -0.4 7.7 2.1 10.5 9.2 4.8 12.4 6.5 23.3 3.9 25.3 -1.9 1.5 -9 2.3 -11.3 1.3z"/>
  <path d="M1099.5 409.1 c-7.1 -1.5 -6.4 -8.6 2.4 -23.6 2.8 -4.8 5.1 -9 5.1 -9.5 0 -0.4 1.7 -2.5 3.8 -4.7 6.8 -7.3 16.7 -10.8 30.7 -10.8 10 0 15.5 1.3 26.2 6.1 7.9 3.6 9.4 5.8 6.7 9.9 -2.4 3.7 -4.8 4.7 -14.8 6.1 -11.4 1.6 -22.7 7 -33.4 16.1 -10.8 9.1 -18.7 12.2 -26.7 10.4z"/>
  <path d="M1769 400.6 c0 -0.7 1.3 -4 2.9 -7.2 1.6 -3.2 3.2 -7 3.5 -8.4 0.4 -1.6 2.4 -3.6 5.3 -5.4 23.1 -14.2 27.4 -16.7 42.6 -24.4 4.1 -2.1 8 -2.4 10.1 -0.9 1.9 1.4 1.9 1.5 -0.1 4.3 -1.2 1.6 -4.3 4 -7 5.4 -9.7 4.9 -21 13.1 -31.8 23 -6 5.6 -12.7 11.3 -14.7 12.6 -4.2 2.7 -10.8 3.3 -10.8 1z"/>
  <path d="M1890 369.9 c-3.6 -3.3 -9.2 -8.1 -12.4 -10.7 -10.5 -8.3 -11.8 -9.8 -11.4 -13.4 0.4 -4.7 3.5 -6 13.3 -5.5 9.7 0.5 16.1 3.2 22.1 9.4 4.4 4.5 9.9 13.3 11 17.7 0.6 2.4 0.4 2.6 -2.5 2.6 -3.5 0 -8 2 -10 4.4 -2.1 2.5 -3.1 2 -10.1 -4.5z"/>
 </g>
 <g fill="#3fb2f7">
  <path fill="url(#lg4)" d="M101 428.2 c0 -2 7.9 -9.8 13.5 -13.4 12.7 -8.3 52.1 -26.8 75.2 -35.4 5.4 -2 11.2 -4.2 12.8 -4.9 5 -2.2 24.2 -9.9 38.5 -15.5 7.4 -2.9 18.4 -7.7 24.4 -10.7 5.9 -2.9 15.6 -7 21.5 -9 5.8 -2 14.4 -5.3 19.1 -7.3 4.7 -2.1 10.1 -4.1 12 -4.5 1.9 -0.4 8.9 -3.2 15.5 -6.2 6.6 -3 18 -7.5 25.2 -10 l13.3 -4.4 8.7 6.2 c11.1 7.9 14.2 10.7 34.3 31.3 18.3 18.6 24.1 23.3 37.8 29.9 11.5 5.7 15.5 6.2 36.9 4.9 21 -1.3 25.7 -2.8 34.8 -11.3 12 -11.2 15.1 -18.2 16.7 -37.6 1.6 -19.5 0 -28.1 -8.4 -45.1 -1 -1.9 -0.7 -2.7 2.2 -5.7 l3.4 -3.5 111.3 0 111.3 0 10.7 3.6 c6 2 13.4 5.1 16.5 7 5.7 3.5 12.8 9.8 12.8 11.5 0 1.4 -3.1 2.6 -13 4.9 -5.2 1.2 -13.3 3.3 -18 4.6 -4.8 1.4 -13.9 2.9 -21 3.5 -6.9 0.5 -13.5 1.4 -14.7 1.9 -3.4 1.4 -3 5.9 0.7 9.8 3.4 3.6 5.9 5 16.6 9.2 4.4 1.8 33.4 15.9 64.6 31.5 40 20 59.8 29.3 67.5 31.8 12.5 4.1 22.5 6.7 25.8 6.7 4.3 0 19.4 -3.9 30.3 -7.9 19.5 -7.1 37 -12.2 46.9 -13.8 7 -1.1 11.4 -2.4 15.3 -4.5 5 -2.8 6.5 -3.1 16.5 -3.5 12.7 -0.4 17.2 -1 18 -2.3 0.9 -1.5 -8.9 -10.7 -14.4 -13.5 -6.8 -3.4 -32.9 -24.4 -45.9 -37 l-10.4 -9.9 5 -4.8 c4.1 -3.9 5.7 -4.8 8.6 -4.8 1.9 0 18.5 5 36.8 11.1 18.3 6 35.8 11.5 38.8 12 3 0.6 6.4 1.6 7.5 2.3 1.1 0.7 6.3 2.8 11.5 4.6 15 5.2 20.4 8.9 21.6 14.6 0.5 2.4 -0.5 5.2 -4.8 13.5 -6.7 12.9 -15.1 26.8 -18 30 -1.3 1.3 -4.3 3 -6.8 3.8 -8.5 2.5 -12.2 4.5 -14.8 7.9 -4.8 6.3 -2.9 14.7 5.8 24.5 l4.2 4.7 -480.1 0 c-264.1 0 -480.1 -0.4 -480.1 -0.8z"/>
  <path d="M227 266.1 c0 -1.4 12.8 -12.9 18.3 -16.5 2.9 -1.8 8.4 -5.2 12.3 -7.4 3.9 -2.3 10.7 -7 15 -10.5 4.4 -3.5 10.2 -7.7 12.9 -9.2 2.8 -1.5 8.4 -4.9 12.5 -7.5 4.1 -2.6 19.1 -10.6 33.3 -17.8 14.2 -7.3 28.9 -15.1 32.5 -17.6 10.1 -6.6 23.4 -13.8 47.7 -25.6 27.5 -13.4 28.3 -13.7 35.8 -16.2 6.6 -2.2 8 -2.7 29.9 -12.9 8.1 -3.8 15.1 -6.9 15.4 -6.9 0.4 0 1.5 -0.7 2.5 -1.6 1 -0.9 3.2 -1.9 5.1 -2.4 5.1 -1.3 15.3 -5.3 25.3 -9.9 5 -2.3 15.3 -6.4 23 -9 7.7 -2.7 17.8 -6.4 22.5 -8.3 4.7 -2 15.1 -5.6 23.2 -8.2 8 -2.5 18.8 -6.2 24 -8.1 5.1 -2 13.4 -4.2 18.3 -5.1 5 -0.8 13.5 -3.1 19.1 -5 5.6 -1.9 11.6 -3.4 13.5 -3.4 4.4 0 15 -2.1 26.9 -5.3 5.2 -1.4 12.9 -2.9 17 -3.2 4.1 -0.4 10.2 -1.6 13.5 -2.6 7.7 -2.3 18.7 -4.5 30 -6 5 -0.6 11.3 -2 14 -3 3 -1 10.2 -2.2 17.8 -2.7 7 -0.5 13.3 -1.5 14.1 -2.1 0.8 -0.7 3.8 -1.4 6.7 -1.7 3 -0.3 7.2 -1.2 9.4 -2 3 -1.1 7.9 -1.4 18.9 -1.2 l14.9 0.3 -8.9 4.5 c-4.9 2.5 -11.8 6.7 -15.4 9.4 -3.6 2.7 -10.5 7.4 -15.5 10.4 -17.8 10.9 -27.7 18.4 -48 36.2 -15.9 14 -54 52.2 -56.1 56.3 -0.9 1.7 -3.1 4.9 -4.9 6.9 -1.7 2 -4.9 7 -7.1 10.9 -2.1 4 -6.3 9.8 -9.1 13 l-5.3 5.7 -40.7 0.6 c-78.7 1.3 -115.3 2.6 -122.8 4.2 -3.8 0.9 -9 2 -11.5 2.5 -4.7 1 -20.6 3.3 -30 4.4 -12.1 1.4 -34 5.6 -42 8 -4.7 1.5 -13.2 3.5 -18.9 4.5 -21.1 4 -46.7 11.5 -95.6 28.3 -5.5 1.9 -15.2 5.1 -21.5 7.2 -16.3 5.2 -47.8 17 -59.3 22.1 -9.7 4.4 -12.7 5.2 -12.7 3.5z"/>
 </g>
 <g fill="#6fc3f7">
  <path fill="url(#rg1)" d="M1212 505.1 c-12.3 -0.8 -30.6 -6.7 -49.2 -16 -13.2 -6.7 -13.3 -6.7 -15.2 -11.7 -2.7 -7.1 -3.4 -26.6 -1.2 -35.8 2 -8.4 7.4 -18.9 12.6 -24.4 l3.8 -4.2 28.4 0 c29.7 0.1 33.2 0.5 45.1 5 3.2 1.2 9.3 4.5 13.5 7.3 7 4.8 7.8 5.7 9.5 10.7 2.5 7.1 3.4 25.2 1.8 34.6 -1.8 10.2 -7.3 20.6 -15.2 28.7 l-6.7 6.7 -8.8 -0.2 c-4.9 -0.1 -13.2 -0.4 -18.4 -0.7z m-0.1 -12.7 c14.2 -4.2 24.2 -15 27.7 -30.1 3.2 -13.9 -6.6 -30.9 -22.2 -38.4 -5.8 -2.8 -8 -3.3 -13.9 -3.3 -16.6 0 -31.9 13.2 -36.1 31.1 -2.8 12.1 5.1 28.5 17.5 36.2 9.6 5.8 17.9 7.2 27 4.5z"/>
  <path fill="url(#lg4)" d="M90.2 489.3 c2.4 -15.5 3.2 -20.9 5.8 -38.8 1.2 -8.2 3 -17 3.9 -19.5 l1.7 -4.5 478.4 -0.3 478.5 -0.2 2.7 3.2 c2.7 3.1 2.7 3.2 0.9 5.2 -2.9 3.2 -12.6 18.6 -14.9 23.7 -4.9 10.8 -14.2 37.8 -14.2 41.2 0 1.6 -32.6 1.7 -472.3 1.7 l-472.4 0 1.9 -11.7z"/>
  <path fill="url(#lg4)" d="M537.8 277 c1.3 -1.1 4 -2.2 6 -2.5 2 -0.4 6.6 -1.6 10.2 -2.7 6.3 -2 9.1 -2.1 84.5 -2.6 53.1 -0.3 81.9 -0.1 90.2 0.7 12.8 1.2 25 3.6 34.3 7 l5.5 2 -116.5 0 c-115.3 0 -116.5 0 -114.2 -1.9z"/>
 </g>
 <g fill="#95d7fb">
  <path fill="url(#rg3)" d="M1158.7 822 c-6.9 -1.3 -8 -3.2 -14.3 -25.2 -0.4 -1.4 0.1 -1.8 1.8 -1.8 1.6 0 2.9 1 4.2 3.5 2 3.6 7.1 7.6 12.1 9.5 10.1 3.8 24.5 -7.7 24.5 -19.5 0 -11.5 -14.1 -22.5 -24.4 -19 -2.2 0.8 -5.7 1.5 -7.6 1.5 l-3.4 0 4.9 -5.1 c8.4 -8.6 12.3 -10.3 24.1 -10.7 9.1 -0.4 10.2 -0.2 10.9 1.4 0.5 1.1 1.1 11.3 1.3 22.7 0.3 18.8 0.2 21.4 -1.7 27.6 -2.4 8 -7.8 14.4 -13.1 15.4 -4.1 0.9 -14.3 0.7 -19.3 -0.3z"/>
  <path fill="url(#lg4)" d="M81.5 541.3 c1.1 -7.7 6.5 -39.6 7.1 -41.5 0.5 -1.7 23.9 -1.8 472.3 -1.8 l471.7 0 0 4.8 c0 7.4 7.6 24.9 16 37 l4.3 6.2 -41.4 0 -41.5 0 0 -5.4 c0 -3.2 -0.8 -7.3 -2 -10.1 -1.6 -3.8 -2.8 -4.9 -6.7 -6.7 -2.7 -1.1 -7 -3.1 -9.8 -4.3 -6.2 -2.8 -18 -5.5 -23.8 -5.5 -5.4 0 -14 2.5 -15.7 4.5 -0.7 0.9 -4.1 2.8 -7.5 4.4 -6.5 3 -10 5.9 -13 10.4 l-1.7 2.7 -13.4 0 c-12.7 0 -13.4 0.1 -13.4 2 0 1.3 -0.7 2 -2 2 -1.9 0 -2 -0.7 -2 -11 l0 -10.9 -4.6 -2.1 c-6 -2.6 -9.6 -2.5 -15.1 0.2 -6.1 3.1 -8.9 8.4 -7.4 14.2 0.5 2.2 1.3 6.7 1.6 9.9 l0.6 5.7 -35.5 0 -35.6 0 0 -13.5 0 -13.5 -5 -2.5 c-2.7 -1.4 -6.2 -2.5 -7.8 -2.5 -8.9 0 -17.7 9 -15.2 15.5 0.5 1.4 1.3 2.5 1.7 2.5 0.5 0 0.8 3.2 0.8 7 l0 7 -51.5 0 -51.5 -0.1 -7.5 -7 c-16.1 -15.3 -27.4 -24.9 -29.2 -24.9 -2 0 -6 2.2 -9.5 5.4 -2.2 1.8 -2.3 2.7 -2.3 14.3 l0 12.3 -18.9 0 -18.8 0 0.5 -4.8 c0.8 -8.4 -2.8 -12.7 -15.5 -19.1 -8.3 -4.1 -20.7 -8.1 -25.3 -8.1 -8.5 0 -30.7 9.5 -35.5 15.1 -1.3 1.6 -3.9 6 -5.7 9.8 l-3.3 7 -9.2 0 -9.3 0.1 0 -11.8 0 -11.8 -3.2 -3.1 c-5.5 -5.3 -12.1 -6.7 -17.7 -3.9 -4.1 2.2 -5.2 5.9 -5.8 18.9 l-0.6 11.7 -21.3 0 -21.3 0 -3.5 -5.9 c-2 -3.2 -5.3 -7 -7.3 -8.4 -5.7 -3.9 -16.8 -8.7 -22.9 -9.8 -3 -0.5 -8.4 -2.4 -12.1 -4.2 -6.1 -2.9 -7.7 -3.2 -16 -3.2 -14.6 0 -17.1 3.2 -17.2 21.3 l-0.1 10.2 -14.7 0 -14.8 0 -0.1 -9.8 c0 -5.3 -0.6 -11.4 -1.3 -13.5 -2.6 -7.7 -12.7 -11.1 -19.9 -6.7 -4.9 3 -6.2 7.2 -6.2 19.5 l0 10.5 -31.5 0 -31.5 0 0.6 -9.8 c0.8 -12.1 -0.3 -16.2 -5.4 -19.7 -6.6 -4.5 -16.8 -2.3 -19.3 4.3 -0.6 1.5 -1.3 7.8 -1.6 14 l-0.6 11.2 -34.4 0 -34.4 0 0.6 -4.7z"/>
  <path fill="url(#rg1)" d="M1233 505.1 c0 -0.5 1.5 -1.9 3.4 -3.1 5.5 -3.3 13.1 -12.6 17 -20.3 7.5 -15.4 7.5 -34 0.1 -48.9 -1.9 -3.8 -3 -6.8 -2.5 -6.8 1.5 0 11.8 10 15.5 15 1.9 2.6 4.7 7.9 6.2 11.6 2.2 5.9 2.6 8.5 2.7 17.9 0.1 13.8 -1.6 17.9 -12.1 28.3 l-7.3 7.2 -11.5 0 c-6.3 0 -11.5 -0.4 -11.5 -0.9z"/>
  <path fill="url(#rg1)" d="M1191.7 495.4 c-14.5 -4.5 -24.6 -16.2 -27.7 -32.1 -3.3 -16.6 6.2 -34.4 22.6 -42.4 6.4 -3.1 7.6 -3.4 16.9 -3.4 9.3 0 10.5 0.3 16.9 3.4 12.3 6 19.9 16.1 22.6 29.9 2.9 14.6 -4.9 32.1 -17.9 40.1 -9.7 5.9 -22.9 7.7 -33.4 4.5z m18.5 -15.4 c9.3 -3.4 17.7 -14.4 17.8 -23 0 -9 -9.4 -20.6 -19.1 -23.4 -4.8 -1.5 -5.8 -1.5 -10.7 -0.1 -9.7 2.9 -19.2 14.4 -19.2 23.5 0 8.4 8.4 19.4 17.6 23 6.2 2.4 7.2 2.4 13.6 0z"/>
  <path fill="url(#rg1)" d="M1148.9 481.9 l-5.6 -2.9 -4.1 -11.2 c-4.9 -13.2 -7.2 -23.5 -7.2 -31.9 0 -7.7 1 -9.5 6.2 -11.1 2.5 -0.7 6.4 -3.3 9.9 -6.5 l5.7 -5.3 7.7 0 7.8 0 -5.5 5.4 c-6.5 6.5 -12.2 16.7 -14.4 26.2 -2.7 11.7 -0.7 29.3 4.4 37.2 0.8 1.2 1.3 2.4 1.1 2.6 -0.2 0.2 -2.9 -0.9 -6 -2.5z"/>
  <path fill="url(#rg2)" d="M1782.9 480.7 c-1.8 -1.2 -4.4 -3.8 -5.6 -5.6 -10.7 -15.8 -1.3 -46.1 16.9 -55 3.9 -1.9 11.8 -8.9 40.8 -36.9 l5.4 -5.2 10.1 0 c5.5 0 11.7 0.4 13.8 0.9 8.1 1.9 20.4 13.2 25.1 23.1 2.9 6.1 3.1 7.3 3.4 20 0.4 21.1 0.6 20.6 -12.6 32.6 -11.8 10.7 -18.1 14.6 -33.8 20.7 -16.6 6.5 -23.2 7.7 -42.7 7.7 -16.4 0 -17.6 -0.1 -20.8 -2.3z m60.2 -28.3 c8.9 -4.4 15.8 -14.8 15.9 -23.7 0 -13.9 -15.5 -28.1 -28.7 -26.3 -2.5 0.3 -6.6 1.7 -9.1 3.1 -2.4 1.4 -5.5 2.5 -6.8 2.5 -1.9 0 -2.4 0.5 -2.4 2.7 0 1.4 -0.6 3.4 -1.4 4.2 -4.7 5.5 -5.7 17.1 -2.1 24.1 2.5 4.8 8.5 10.9 12.9 13.2 8.2 4.2 13.6 4.3 21.7 0.2z"/>
 </g>
 <g fill="#bae8fc">
  <path fill="url(#rg3)" d="M1157.5 810.1 c-8.7 -4.3 -13.5 -11.2 -14.3 -20.7 -0.4 -5.5 -0.1 -6.8 2.1 -10.6 7.4 -12.5 20.7 -17 32.5 -10.9 8 4.1 12.5 11.6 12.6 20.6 0 8.1 -3.4 14.8 -9.8 19.4 -4.2 3 -5.7 3.5 -11.9 3.8 -5.7 0.3 -8 0 -11.2 -1.6z m13.4 -16.7 c3.5 -2.9 3.8 -4.9 1.5 -8.2 -2.2 -3.1 -6.7 -2.9 -9.3 0.4 -2.8 3.6 -2.6 5.8 0.5 8.3 3.4 2.7 3.6 2.6 7.3 -0.5z"/>
  <path fill="url(#rg0)" d="M1828.2 787.7 c-5.9 -1.2 -7.7 -5.2 -6.9 -15.3 0.6 -8.4 5.8 -20.7 10.1 -24.1 4 -3.2 11.1 -4.3 22.4 -3.6 l10 0.6 0.7 14.2 c0.6 11.3 0.4 14.8 -0.8 17.6 -1.9 4.6 -8.3 9.6 -13.8 10.8 -5.2 1.2 -15.6 1.1 -21.7 -0.2z"/>
  <path fill="url(#lg4)" d="M553.1 644.7 c-2.9 -3.4 -19.5 -20.6 -36.8 -38.2 l-31.5 -32 0.7 -10 c0.8 -11.1 1.8 -13.8 7 -18.3 4.6 -4.1 7 -4.7 18.5 -4.7 12.3 0 15.8 0.8 21.1 4.9 4.8 3.6 10.2 5.8 12.4 5 0.7 -0.3 2.1 -2.3 2.9 -4.5 l1.6 -3.9 18.3 0 18.4 0 0.6 9.8 c0.4 5.3 0.7 29.6 0.7 54 l0 44.2 -14.2 0 -14.3 0 -5.4 -6.3z"/>
  <path fill="url(#lg4)" d="M372 645.1 c0 -0.6 0.5 -1.3 1 -1.6 1.4 -0.9 7.9 -9.8 11.8 -16.3 l3.2 -5.2 0 -25.2 0 -25.2 -7 -13.8 c-3.8 -7.6 -7 -14.1 -7 -14.3 0 -0.3 10 -0.5 22.2 -0.5 l22.1 0 -0.6 10.7 c-0.4 5.8 -0.7 29 -0.7 51.5 l0 40.8 -22.5 0 c-13.4 0 -22.5 -0.4 -22.5 -0.9z"/>
  <path fill="url(#lg4)" d="M321.6 641.4 c-0.8 -2.1 -0.6 -60.1 0.3 -79.5 1 -22.7 2.3 -24 16.7 -17 9.5 4.6 16.2 11.4 19.5 19.9 2 4.9 2.3 8.1 2.7 22.9 0.5 23.4 -1.7 32.3 -10.6 42 -8.8 9.7 -26.6 16.9 -28.6 11.7z"/>
  <path fill="url(#lg4)" d="M66.1 625.3 c0.5 -2.6 1.8 -8.1 2.9 -12.3 2.7 -10.2 4 -18.4 4 -24.4 0 -2.8 1.6 -11.4 3.6 -19.1 1.9 -7.7 3.8 -16.9 4.1 -20.5 l0.5 -6.5 34.4 0.3 34.4 0.3 0 43.4 0 43.5 -42.4 0 -42.3 0 0.8 -4.7z"/>
  <path fill="url(#lg4)" d="M215 629.5 c0 -0.3 5.3 -5.8 11.8 -12.3 6.5 -6.4 14 -14.2 16.5 -17.3 5.7 -6.8 13.1 -21.4 15.3 -30.1 0.9 -3.5 2.4 -7.9 3.4 -9.8 0.9 -1.9 2.3 -6 3 -9 0.7 -3 1.4 -6.1 1.6 -6.7 0.2 -1 4.1 -1.3 14.9 -1.3 l14.5 0 0 43.5 0 43.5 -40.5 0 c-22.3 0 -40.5 -0.2 -40.5 -0.5z"/>
  <path fill="url(#lg4)" d="M445 586.5 l0 -43.5 9.5 0 c5.2 0 9.5 0.2 9.5 0.5 0 0.3 -0.9 3.5 -2.1 7.1 -1.4 4.2 -2.1 9.4 -2.2 15.2 -0.2 7.8 0.1 9.3 2.7 14.2 6.6 12.7 15.8 25.1 28.3 38.5 3.7 3.9 7.7 8.1 8.7 9.3 l1.9 2.2 -28.1 0 -28.2 0 0 -43.5z"/>
  <path fill="url(#lg4)" d="M612.5 621.4 c-1.1 -12.7 0.3 -45.5 2 -47.3 2.5 -2.5 8.6 -1.8 13.6 1.6 6.2 4.3 17.3 16.4 23.4 25.4 5.2 7.6 14.5 25.4 14.5 27.7 0 0.9 -5.9 1.2 -26.4 1.2 l-26.4 0 -0.7 -8.6z"/>
  <path fill="url(#lg4)" d="M686.1 613.5 c-4.7 -9.1 -11.5 -21.2 -15.2 -26.8 -6.9 -10.3 -9.8 -13.7 -28.8 -32.9 l-10.6 -10.8 53.3 0 53.2 0 0 43.5 0 43.5 -21.8 0 -21.7 0 -8.4 -16.5z"/>
  <path fill="url(#lg4)" d="M762 612.2 c0 -9.8 0.3 -29.4 0.7 -43.5 l0.6 -25.7 35.2 -0.2 35.2 -0.3 0.6 31.4 c0.4 17.3 0.7 37 0.7 43.8 l0 12.3 -36.5 0 -36.5 0 0 -17.8z"/>
  <path fill="url(#lg4)" d="M940 609.1 c-27 -27.1 -33 -35.1 -33 -44.4 0 -6.4 2.1 -11.6 6.6 -16.6 5 -5.6 9.2 -7.1 19 -7.1 9.7 0.1 14.6 1.4 22.8 6.4 3.9 2.3 8.3 4.6 9.9 5 2.5 0.6 2.7 0.4 2.7 -2.3 0 -1.6 0.5 -3.3 1 -3.6 0.6 -0.3 1 -1.4 1 -2.3 0 -1.6 3 -1.7 40.5 -1.4 l40.5 0.2 7 9.5 c9.2 12.3 19.3 27.3 20.8 30.8 1.9 4.4 1.4 8.3 -2 16 -3.4 7.9 -5.8 18.5 -5.8 26 l0 4.7 -55 0 -55.1 0 -20.9 -20.9z"/>
  <path fill="url(#lg4)" d="M859 582.6 c0 -23.8 0.3 -44.8 0.6 -46.5 l0.7 -3.1 15.3 0 c8.5 0 15.4 0.1 15.4 0.3 0 0.2 -0.9 2.2 -2.1 4.6 -5.8 12.1 -6.4 40 -1.1 48.2 8.5 13.1 9.8 14.6 25.6 30.7 l9.1 9.2 -31.8 0 -31.7 0 0 -43.4z"/>
  <path fill="url(#lg4)" d="M179.9 618.3 c-0.8 -0.2 -2.3 -1.7 -3.3 -3.4 -1.7 -2.8 -1.7 -4.7 -0.6 -30.7 0.7 -15.2 0.9 -30.7 0.5 -34.4 l-0.6 -6.8 31.7 0 31.7 0 -0.7 5.8 c-0.6 5.7 -3.3 11.9 -11.7 27.2 -3.3 5.9 -7.2 10.6 -18.4 21.7 -16.4 16.3 -23.9 21.7 -28.6 20.6z"/>
  <path fill="url(#rg1)" d="M1193.6 483 c-14.6 -5.7 -21.8 -23.5 -15.2 -37.5 4.4 -9.5 15.1 -16.5 25.1 -16.5 14.8 0 27.5 12.9 27.5 28 -0.1 19.6 -19.4 33 -37.4 26z m15.1 -15.5 c8.6 -5.1 9.6 -13 2.4 -19.2 -5.6 -4.9 -10.8 -4.5 -16.4 1.1 -5 5 -4.8 10.9 0.6 15.9 3 2.7 6 4.5 8.1 4.6 0.5 0.1 2.9 -1 5.3 -2.4z"/>
  <path fill="url(#rg2)" d="M1825.5 458.1 c-8 -2.1 -16 -8.5 -20.2 -16.3 -2.5 -4.6 -2.5 -20.8 0 -25.8 3.9 -7.8 5.5 -9.6 11.7 -12.9 16.1 -8.7 34.7 -3.2 42.4 12.5 9.3 18.9 -3.7 41.5 -24.7 42.9 -3.4 0.2 -7.5 0.1 -9.2 -0.4z m12.7 -18.3 c3.1 -1.5 6.8 -7.4 6.8 -10.6 0 -4.5 -1.6 -7.3 -6 -10.4 -5.3 -3.9 -9 -3.7 -14 0.8 -5.9 5.4 -6.5 11.2 -1.7 16.7 4.4 5.2 9.4 6.4 14.9 3.5z"/>
 </g>
 <g fill="#ecf8fe">
  <path d="M1223.4 933.6 c-9 -4.2 -19.4 -15.5 -19.4 -21.1 0 -2.9 3.2 -6.1 7.6 -7.5 4.9 -1.7 17 -0.8 21.4 1.5 4.3 2.2 5.9 4.3 8.7 11.5 3.1 7.9 2.9 10.6 -1.1 14.6 -2.8 2.8 -4.1 3.4 -7.7 3.4 -2.5 0 -6.6 -1.1 -9.5 -2.4z"/>
  <path d="M1805 926.8 c-7.6 -2.1 -10 -7.5 -10 -22.3 0 -10.6 1.5 -14.4 7.2 -18.5 3.8 -2.8 4.9 -3.1 9.8 -2.8 13.2 0.9 20 8 20.8 21.7 0.4 6.4 0.1 8.4 -1.6 11.7 -2.5 4.8 -8.1 8.9 -14.2 10.3 -5.4 1.3 -7.4 1.2 -12 -0.1z"/>
  <path fill="url(#lg4)" d="M1063.5 865.9 c-4.4 -0.4 -235 -1.3 -512.5 -1.9 -277.5 -0.7 -508.8 -1.5 -514 -1.8 l-9.5 -0.7 -0.3 -3.5 c-0.2 -2 0.6 -7.8 1.8 -13 1.2 -5.2 2.6 -14.4 3.1 -20.5 0.6 -6 1.9 -14.5 3 -18.8 2.1 -8.2 5.3 -28.4 6.4 -40.2 0.4 -3.8 2 -13.1 3.5 -20.5 1.6 -7.4 3.8 -18.9 4.9 -25.5 1.1 -6.6 2.9 -15.3 4 -19.3 1.1 -4 2.5 -12.3 3.1 -18.5 0.5 -6.2 1.6 -13.9 2.4 -17.2 3.3 -14.4 4.5 -20.4 5.1 -27 0.4 -3.8 0.9 -7.8 1.1 -8.7 0.5 -1.7 3.4 -1.8 42.5 -1.8 l41.9 0 0 25.3 c0.1 37.9 1.7 82.4 3.2 85.5 0.8 1.6 2.6 3 4.6 3.6 2.7 0.8 4.1 0.4 8.9 -2 9.3 -4.8 9.8 -6.2 9.8 -28.9 0 -10.4 -0.4 -25.9 -0.8 -34.3 -0.7 -13.3 -0.6 -15.3 0.8 -15.8 3.1 -1.2 6.1 0.5 8.2 4.8 3.3 6.6 26.9 31.7 49.3 52.3 17.9 16.5 33.8 24.5 40.2 20.3 3.5 -2.3 7.3 -10.5 6 -13.2 -1.9 -4.3 -6.4 -8.5 -14.9 -14.3 -9.4 -6.3 -22.6 -17.7 -36.1 -31.2 -16.2 -16.1 -23.2 -24.3 -26.9 -31.7 l-2.1 -4.1 8.6 -8.4 8.7 -8.4 39.1 0.3 39.1 0.2 0.6 50.3 c0.4 27.6 1.1 52.6 1.5 55.6 1.5 9.2 6.9 11.2 16.3 5.9 7.7 -4.3 9 -11.6 7 -39.8 -0.7 -9.3 -1 -17.8 -0.6 -19 0.4 -1.3 1.5 -2 3.1 -2 2.1 0 3 1.1 5.8 7.3 3.9 8.5 10.4 16.8 22.5 28.5 18.4 18 35.8 28 44.5 25.8 3.3 -0.8 6.6 -8.1 6.6 -14.7 0 -4.3 -0.5 -5.5 -2.9 -8 -1.9 -1.9 -4 -2.9 -5.8 -2.9 -3.9 0 -12.7 -7.3 -31.7 -26.1 l-14.9 -14.8 1.9 -2.9 c1.1 -1.7 6 -7.3 11.1 -12.6 5.1 -5.3 10 -10.7 10.9 -12.1 l1.6 -2.5 21.9 0 21.9 0 0.1 26.3 c0.1 14.4 0.4 34.1 0.8 43.7 0.6 16.3 0.8 17.7 3 20.9 3.1 4.3 12.2 8.7 15 7.2 6 -3.2 8.1 -14.2 8.1 -42.2 0 -9.6 0.3 -29.8 0.7 -44.7 l0.6 -27.2 26.7 0 26.6 0 14.5 14.8 c16.4 16.8 19.2 19.8 23.8 26.5 6.5 9.5 9 22.4 5.7 30 -1.4 3.4 -10.4 12.6 -17.1 17.6 -3.6 2.7 -4.8 3 -11.2 3.1 -7.5 0 -19 -2 -24.5 -4.3 -1.8 -0.8 -5.3 -3.1 -7.8 -5.2 -5.9 -5 -8.1 -5.9 -12.3 -5.1 -8.6 1.6 -12.4 11.5 -7.8 20.4 3.3 6.3 6.7 8.5 21.6 13.4 5.8 1.9 42.2 1.8 49 -0.1 7.2 -2 15.9 -6.6 20.4 -10.7 4.3 -3.8 11.1 -14.6 13.2 -20.9 1 -2.8 1.4 -9.4 1.4 -21.5 0 -19.5 -0.6 -21.8 -8 -32.1 l-3.5 -4.9 15.3 0 15.4 0 0.6 27.2 c0.4 14.9 0.7 33 0.8 40.2 0 7.2 0.4 15.3 0.8 18 1.5 8.9 7.1 10.6 16.7 5.1 7 -4.1 7.5 -6.2 7.2 -30.9 -0.2 -11.8 -0.1 -21.7 0.2 -22 1.1 -1 63.8 -0.8 65.7 0.2 1 0.6 2.7 2 3.7 3.1 1.7 1.9 1.9 4 2 22.9 0.1 18.6 0.3 21.1 2.1 24.7 1.8 3.6 2.4 4 6.2 4.3 5.3 0.4 11.1 -2.3 13.9 -6.5 3 -4.5 3.7 -14.7 2.4 -39.3 -1 -21.2 -2 -29.9 -4.3 -38.5 -1.6 -5.7 -9.5 -25.5 -10.8 -26.9 -0.5 -0.6 -0.9 -1.4 -0.9 -1.8 0 -0.4 10.1 -0.8 22.5 -0.8 l22.5 0 0 43.3 c0.1 23.7 0.5 47.9 1 53.7 1.2 12.6 2.4 14.4 11.4 16.1 6.6 1.2 58 0.8 60.8 -0.5 2.2 -1 5 -7.1 5.6 -12.2 0.6 -5.8 -2.9 -12.1 -7.2 -12.9 -1.7 -0.3 -12.4 -0.5 -23.8 -0.3 -15.9 0.2 -21 0 -22 -1 -1 -1 -1.4 -10.4 -1.6 -43.7 l-0.3 -42.5 36.7 0 36.7 0 -0.7 45.2 c-0.4 24.9 -1.2 47.4 -1.7 50.1 -1.1 5.8 0.2 8.8 6.1 14.7 6.4 6.4 11.5 6.3 16.3 -0.2 1.9 -2.5 2.1 -4.9 2.8 -30.5 0.4 -15.3 0.8 -40.3 0.8 -55.5 l0.1 -27.8 30.4 0 30.4 0 14.6 15.3 c17.3 18.2 24.4 26.9 28.8 35.6 2.8 5.5 3.3 7.6 3.3 13.5 0 5 -0.6 8.3 -1.9 10.9 -2.9 5.8 -11.1 14.2 -17.2 17.8 -6.4 3.6 -12.6 4 -25.7 1.4 -9.2 -1.8 -14 -4.1 -18.6 -8.9 -3 -3.1 -4.1 -3.6 -8.2 -3.6 -3.6 0 -5.5 0.6 -7.8 2.6 -10 8.4 -1.7 24.6 14.4 28.2 9.2 2.1 23.2 3.3 38.2 3.5 l14.8 0.2 7.7 -3.9 c10.3 -5.1 18.7 -13.9 25.1 -26.3 8.7 -16.8 9.3 -24.5 3.5 -39.7 -4.9 -12.7 -10.8 -20.8 -26.5 -36.3 -2.9 -2.9 -5.3 -5.5 -5.3 -5.8 0 -0.3 25.1 -0.5 55.8 -0.5 l55.7 0 0.1 8.3 c0.1 6.8 0.6 9.4 3.2 15.4 3.9 9.2 11.4 23.1 21.9 40.8 4.6 7.7 8.3 15 8.3 16.4 0 2.8 -5 8.7 -24.5 28.6 -7.5 7.7 -15 15.9 -16.6 18.2 -4.8 6.9 -6.2 14.5 -6.2 33.8 -0.1 20.1 0.9 24.2 8.2 36 4.9 7.9 8 11.4 19.4 21.6 3.1 2.9 7.2 7.7 8.9 10.7 l3.1 5.5 -2.9 2.4 c-2.6 2.1 -3.8 2.3 -12.4 2.1 -5.2 0 -13.1 -0.5 -17.5 -0.9z m-889.3 -24.6 c5.8 -2.2 10.2 -5.6 12.8 -9.9 3.8 -6 2 -9.4 -12.8 -24.6 -13.8 -14.2 -13.8 -14.2 -4.6 -15.3 3.5 -0.5 6.1 -0.2 8.8 0.9 3.6 1.5 3.8 1.5 6.2 -0.9 2.7 -2.7 2.6 -4.7 -0.2 -9.3 -1.7 -2.6 -7.4 -6.4 -12.5 -8.2 -4.3 -1.5 -7.4 -0.6 -14 4.2 -7.3 5.3 -9.5 11.7 -6.5 18.9 2 4.8 7.1 11.6 12.7 17.2 10.3 10.2 12.2 14.7 6 14.7 -4.3 0 -8 -1.6 -12.3 -5.5 -2.1 -1.9 -4.7 -3.5 -5.8 -3.5 -1.8 0 -2 0.7 -2 5.5 0 7.5 2.7 12.6 7.7 14.7 7.7 3.3 10.4 3.5 16.5 1.1z m207.9 -0.2 c6.2 -3.8 6.4 -4.6 6.4 -26.4 l0 -19.7 6.3 -5.7 c6.5 -5.7 11.2 -12 11.2 -14.9 0 -1.4 -1.9 -1.5 -18.2 -1.2 -10.1 0.2 -19.1 0.8 -20 1.2 -1.8 0.8 -3.8 6.3 -3.8 10.4 0 1.9 0.4 2.1 2.4 1.6 1.3 -0.3 3.4 -0.1 4.5 0.5 4.3 2.3 4.8 5.4 5.4 30.3 0.5 21.3 0.9 25.8 2.2 25.8 0.3 0 1.8 -0.8 3.6 -1.9z m148.6 -2.5 c12.2 -9.2 22.2 -9.9 32.6 -2.1 6.3 4.7 9.6 5.5 11.7 3 2.8 -3.4 -3.5 -25.6 -12.5 -44 -7 -14.4 -9.7 -18.5 -12.5 -18.5 -4.6 0 -14.4 17.6 -18.5 33.3 -1.3 5.3 -3.6 11.2 -5 13.2 -3 4.5 -4.5 9.5 -4.5 15.3 0 5.4 1.2 5.4 8.7 -0.2z m387.8 2.3 c8.9 -2.5 17.5 -10.5 22.9 -21.4 5.2 -10.6 5.3 -14.7 0.2 -21.1 -6.5 -8.3 -19.7 -20.4 -25 -23.1 -6.1 -3.1 -13.1 -2.9 -20.2 0.8 -8.6 4.4 -10.8 13.3 -10.2 39.9 0.4 17.1 1.2 19.6 7 22.6 6.1 3.1 18.2 4.2 25.3 2.3z m67.5 -4.7 c-2.1 -3.6 -7.6 -7.2 -11.2 -7.2 -4.5 0 -4.6 2.6 -0.2 7.1 4.5 4.6 9.1 6.3 11.4 4.2 1.3 -1.2 1.3 -1.7 0 -4.1z m-727 2.5 c8.2 -3.6 11.8 -7.3 16.4 -16.9 6.5 -13.4 6.6 -15 1.8 -22.3 -5.7 -8.6 -14.3 -17.7 -21.3 -22.4 -8.5 -5.7 -13.3 -5.7 -21.7 -0.1 -7.2 4.8 -20.5 18.6 -23.4 24.3 -2.5 5.1 -2.1 9.3 2 17.8 4.1 8.4 11 16.1 17.4 19.4 4.9 2.5 6 2.6 15.3 2.2 5.8 -0.3 11.5 -1.1 13.5 -2z m59.8 -1.1 c3 -3.5 3.5 -5 4.7 -14.1 0.4 -2.7 1.4 -5.8 2.2 -6.8 1.9 -2 2.1 -10.1 0.3 -12.1 -2.1 -2.7 -3.1 -7.9 -1.9 -10.8 0.6 -1.6 1.5 -2.8 2 -2.8 0.4 0 3.2 -0.9 6.2 -2 9 -3.4 9.7 -9.4 1.5 -14 -3.2 -1.8 -5.1 -2.1 -9.6 -1.8 -15.4 1.2 -17.8 6.3 -18.9 40 l-0.6 19.7 4 4.1 c2.3 2.2 4.7 4 5.6 4 0.8 0 2.8 -1.5 4.5 -3.4z m156 0.7 c1.5 -1.1 3.5 -4.1 4.5 -6.7 0.9 -2.6 5.5 -12.6 10.2 -22.2 9.8 -20.3 12.9 -29.2 12 -34.6 -0.4 -2.1 -1.1 -4.1 -1.6 -4.4 -1.7 -1 -6.7 5.5 -11.9 15.9 -6.6 13 -10.6 19.4 -14.6 23.5 -3.8 3.8 -4.4 3.9 -4.4 0.8 0 -3 2 -8.8 6.5 -18.1 1.9 -4.1 3.5 -7.8 3.5 -8.3 0 -0.5 -2 -2.8 -4.5 -5.1 -3.7 -3.4 -5.2 -4.1 -8.4 -4.1 -5.8 0 -13.7 1.9 -15.9 3.8 -4.2 3.7 -4 4.9 3.3 22.5 5 12 4.4 13.3 -2.7 6.8 -3.2 -2.9 -5.8 -6 -5.8 -7 0 -1.9 -4.6 -10.9 -6.6 -12.9 -0.9 -0.8 -1.4 -3.6 -1.4 -7 0 -7.6 -0.7 -8.4 -6.6 -8 l-4.9 0.3 0.1 6.6 c0 7.2 1.6 11.8 9.4 28.4 2.6 5.5 5.8 12.5 7 15.5 4.5 11.1 7 14.3 12.4 16 5.2 1.6 17.3 0.6 20.4 -1.7z m180.6 2.1 c2.4 -0.9 2 -2.2 -2.6 -7.4 -4.2 -4.6 -13.8 -19.8 -13.8 -21.7 0 -0.6 1.3 -2.7 2.9 -4.7 6.2 -7.7 6.4 -15.5 0.9 -23.2 -6.9 -9.6 -16.7 -12.7 -28 -8.8 -5.2 1.7 -8 4.4 -9.8 9.4 -1.5 4.1 -2.6 34.2 -1.6 42.4 1 7.3 4.1 12 8.5 12.4 6.3 0.6 9.3 -5.3 7 -13.5 -1 -3.7 -1 -4.6 0.1 -5.3 0.7 -0.4 1 -1.7 0.7 -2.9 -0.3 -1.4 0 -2.1 0.9 -2.1 2.7 0 9 6.9 14.3 15.5 2.9 4.7 6.2 9 7.4 9.5 2.6 1 10.8 1.3 13.1 0.4z m54 -0.9 c3.2 -1.5 8.3 -7.2 7.3 -8.1 -0.9 -0.9 -12.5 -2.4 -19 -2.4 -9 0 -10.7 -1 -10.7 -6 0 -5 1.9 -6.1 12.4 -6.9 5.9 -0.5 8.2 -1 9 -2.3 2.2 -3.5 -8.8 -11.4 -13.8 -9.9 -0.6 0.1 -2 0 -3.3 -0.4 -2.2 -0.5 -2.4 -1 -2.1 -6.8 l0.3 -6.2 8.5 -0.6 c11.6 -0.8 17 -4.5 15.3 -10.8 -1.5 -5.7 -22.8 -8.3 -30.8 -3.8 -6.2 3.5 -6.7 6 -6.3 34.2 0.4 31.8 0.1 31.3 19.1 31.4 7.8 0.1 11.8 -0.3 14.1 -1.4z m90.4 0.4 c3.1 -1.1 6.2 -4.7 6.2 -7.3 0 -2.1 -8.3 -3.6 -19.4 -3.6 l-9.3 0 -0.6 -24 c-0.4 -14.8 -1 -24.8 -1.7 -26.1 -1 -1.7 -1.8 -2 -4.3 -1.5 -5.7 1.1 -5.8 1.6 -5.5 29.6 0.4 34.5 -0.1 33.7 20.4 33.9 6.1 0.1 12.5 -0.4 14.2 -1z m44.5 -2.8 l4.2 -4 0.6 -19.3 c0.7 -19.9 1 -21.5 4.1 -26 3.4 -4.9 1.7 -12 -3.5 -13.8 -4.9 -1.7 -15.7 -1.2 -20.4 0.9 -7.3 3.4 -8 8.6 -2 14.9 l3.2 3.3 0.6 19.2 c0.4 10.6 1.1 20.3 1.7 21.7 1.2 2.9 4.8 7 6.3 7 0.5 0 2.9 -1.8 5.2 -3.9z"/>
  <path fill="url(#lg4)" d="M542.2 814.1 c-3 -1.9 4 -8.1 9.1 -8.1 3.2 0 5.7 5.1 3.7 7.5 -1.4 1.7 -10.5 2.1 -12.8 0.6z"/>
  <path fill="url(#lg4)" d="M905.9 827.3 c-1.1 -1.2 -1.4 -5.6 -1.4 -17.9 0 -15.2 0.1 -16.5 2.1 -18.4 2.6 -2.6 4.8 -1.9 12.3 4 9.3 7.4 11.3 16 5.6 25 -4.5 7.1 -15.3 11.4 -18.6 7.3z"/>
  <path fill="url(#lg4)" d="M236 826.9 c-14.1 -8.6 -13 -24.3 2.5 -34.9 2.4 -1.7 5.2 -3 6.2 -3 2.6 0 7.1 3.1 12.5 8.4 3.7 3.7 4.8 5.7 5.4 9.1 0.8 5.5 -0.2 11.3 -2.6 15.3 -4.2 6.8 -16.7 9.5 -24 5.1z"/>
  <path fill="url(#lg4)" d="M621.5 800.3 c-2.5 -2.7 -4.5 -5.2 -4.5 -5.8 0 -1.6 6.4 -5.5 8.9 -5.5 2.1 0 9.1 6 9.1 7.8 0 1.2 -6.8 8.2 -7.9 8.2 -0.6 0 -3.1 -2.1 -5.6 -4.7z"/>
  <path fill="url(#rg3)" d="M1160.6 796.9 c-2.2 -1.7 -2.6 -2.9 -2.6 -6.8 0 -8.2 4.9 -12 13 -10.3 4.3 0.9 7.5 6.4 6.5 11.2 -1.5 7 -11.2 10.4 -16.9 5.9z"/>
  <path fill="url(#rg0)" d="M1835.9 773.1 c-3.8 -3.9 -3.8 -7.8 -0.1 -11.4 2.3 -2.2 3.7 -2.7 7.8 -2.7 6.2 0 8.4 2 8.4 7.4 0 5.2 -4.4 9.6 -9.5 9.6 -2.7 0 -4.4 -0.8 -6.6 -2.9z"/>
  <path fill="url(#lg4)" d="M619.3 659.3 c-5.3 -0.7 -5.8 -2.2 -6.1 -18 l-0.4 -14.3 26.5 0 26.4 0 1.8 5.8 c1 3.1 2.9 8.2 4.3 11.2 1.4 3 2.7 7.6 3 10.1 0.4 4.5 0.4 4.6 -2.8 5.3 -3.4 0.6 -47.2 0.6 -52.7 -0.1z"/>
  <path d="M1496 619.1 c-10.6 -4.3 -12.3 -17.4 -2.8 -22.2 5.5 -2.8 10.7 -2.5 14.7 0.9 2.9 2.4 3.5 3.6 3.9 8.3 0.4 4.9 0.1 5.9 -2.3 8.7 -2.3 2.7 -7.5 6.4 -8.7 6.1 -0.2 0 -2.3 -0.8 -4.8 -1.8z"/>
  <path d="M1538.4 616.5 c-4.6 -3.2 -3.7 -16.7 1.2 -18.5 3.8 -1.5 15.7 -1.2 17.9 0.4 1.5 1.1 1.9 2.7 1.9 9 0.1 6.6 -0.2 8 -1.8 9.2 -2.7 1.9 -16.4 1.9 -19.2 -0.1z"/>
  <path d="M1913.3 616.1 c-5.3 -0.9 -7.3 -2.6 -7.3 -6.2 0 -5.5 5.6 -8.9 14.6 -8.9 4.5 0 5.9 0.4 8 2.5 2.2 2.2 2.4 3.1 1.8 7.3 -0.3 2.6 -0.8 4.9 -1 5.1 -0.8 0.8 -11.8 1 -16.1 0.2z"/>
  <path d="M1119.8 586.5 c-2.6 -0.7 -6.3 -2.3 -8.3 -3.5 -3.4 -2.1 -12.5 -12.3 -12.5 -14 0 -0.4 2.2 -2.8 4.9 -5.3 5.9 -5.2 8.3 -5.7 28.5 -5.7 l12.8 0 -0.3 11.9 c-0.3 10.2 -0.7 12.4 -2.5 14.8 -2 2.6 -2.6 2.8 -10 3 -4.3 0.1 -10 -0.4 -12.6 -1.2z"/>
  <path d="M1890.5 575.1 c-3.4 -1.5 -5.7 -4.9 -6.2 -9.4 -0.4 -3.6 -0.1 -4.8 2.1 -7.4 6.1 -7.3 17.6 -3.3 20.1 7 0.9 3.3 -1.1 8.4 -3.6 9.7 -2.1 1.2 -9.6 1.2 -12.4 0.1z"/>
  <path d="M1612.2 544.9 c-4.2 -4.3 -5 -8.4 -2.5 -11.8 3.8 -5 7.9 -6.5 18.5 -6.9 5.4 -0.3 9.8 -0.1 9.8 0.3 0 1.6 -5.9 10.1 -9.2 13.2 -4.1 3.8 -10.7 8.3 -12.3 8.3 -0.7 0 -2.6 -1.4 -4.3 -3.1z"/>
  <path d="M1091.3 530.6 c-8.3 -2 -18 -7.3 -24.5 -13.5 l-6 -5.6 6.2 -5.9 6.1 -5.9 10.2 0.6 c11.1 0.6 17.6 2.3 27.4 6.9 7.4 3.4 14.3 10 14.3 13.5 0 3.4 -4.5 8.9 -8.2 10.2 -4.1 1.5 -19 1.2 -25.5 -0.3z"/>
  <path d="M1076.2 477.3 c-3.4 -1.7 -6.5 -5.3 -7.6 -9 -1.2 -3.6 2 -8.6 11.1 -17.7 9.7 -9.6 13.1 -11.6 19.7 -11.6 l4.6 0 0 15.4 c0 14.9 -0.1 15.4 -2.5 18 -5.6 6.1 -18.1 8.5 -25.3 4.9z"/>
  <path fill="url(#rg1)" d="M1198 472.2 c-3.7 -1.7 -7.2 -4.7 -8.7 -7.5 -1.9 -3.7 -2 -11.5 -0.3 -14.8 2.6 -4.8 9.2 -8.9 14.5 -8.9 5.3 0 11.9 4.1 14.5 8.9 1.7 3.3 1.5 11.1 -0.4 14.9 -3.1 6 -13.8 10 -19.6 7.4z"/>
  <path fill="url(#rg2)" d="M1825.5 443.4 c-10.3 -5.3 -12.3 -18.4 -4 -26.4 10.9 -10.6 29.2 -1 27.1 14.1 -1.5 10.5 -13.9 17.1 -23.1 12.3z"/>
 </g>
</svg>