<?xml version="1.0" encoding="utf-8"?>
<!DOCTYPE svg PUBLIC "-//W3C//DTD SVG 20010904//EN" "http://www.w3.org/TR/2001/REC-SVG-20010904/DTD/svg10.dtd">
<svg version="1.0" xmlns="http://www.w3.org/2000/svg" width="967px" height="451px" viewBox="0 0 967 451" preserveAspectRatio="xMidYMid meet">
 <g fill="#ffffff">
  <path d="M1.6 448.4 c-0.3 -0.9 -0.6 -23.3 -0.6 -49.8 0 -36.2 0.3 -48.5 1.2 -49.4 1.3 -1.3 27.1 -1.8 30.2 -0.6 1.4 0.5 1.6 4.2 1.6 31 l0 30.4 41.3 -0.2 41.2 -0.3 0.3 -10.2 0.3 -10.3 -18.4 0 c-12.9 0 -18.7 -0.4 -19.5 -1.2 -1.8 -1.8 -1.7 -37.2 0.2 -38.7 0.9 -0.8 11 -1.1 35.2 -0.9 l33.9 0.3 0.3 50.8 0.2 50.7 -73.4 0 c-66 0 -73.4 -0.2 -74 -1.6z"/>
  <path d="M193.6 448.4 c-0.3 -0.9 -0.6 -23.3 -0.6 -49.8 0 -36.2 0.3 -48.5 1.2 -49.4 0.9 -0.9 15.2 -1.2 58 -1.2 l56.9 0 -0.3 -10.2 -0.3 -10.3 -56.9 -0.3 c-44.1 -0.2 -57.2 -0.5 -57.8 -1.5 -0.9 -1.4 -1.1 -34.8 -0.2 -37.1 0.6 -1.4 8 -1.6 73.5 -1.6 71 0 72.9 0 73.9 1.9 1.1 2.1 1.5 154.7 0.4 158.9 l-0.6 2.2 -73.3 0 c-65.9 0 -73.3 -0.2 -73.9 -1.6z m115.2 -49.1 l0.3 -10.3 -41.6 0 -41.5 0 0 10.5 0 10.5 41.3 -0.2 41.2 -0.3 0.3 -10.2z"/>
  <path d="M385.6 448.4 c-0.8 -2 -0.8 -157.7 0 -159.8 0.5 -1.4 3.4 -1.6 21.8 -1.6 l21.2 0 26.9 27 c14.8 14.9 27.4 27 28 27 0.6 0 13.2 -12.1 28 -27 l26.9 -27 21.2 0 c18.4 0 21.3 0.2 21.8 1.6 0.9 2.4 0.7 158.7 -0.2 160.2 -0.7 0.9 -5.6 1.2 -21.3 1 l-20.4 -0.3 -0.3 -50.2 c-0.2 -40.8 -0.5 -50.3 -1.5 -50.3 -0.8 0 -13.2 11.9 -27.8 26.5 l-26.4 26.6 -26.5 -26.6 c-14.5 -14.6 -27 -26.5 -27.7 -26.5 -1 0 -1.3 10.1 -1.5 50.3 l-0.3 50.2 -20.6 0.3 c-18.2 0.2 -20.7 0 -21.3 -1.4z"/>
  <path d="M625.6 447.8 c-1.1 -4.2 -0.7 -156.8 0.4 -158.9 1 -1.9 2.9 -1.9 73.9 -1.9 65.5 0 72.9 0.2 73.5 1.6 0.3 0.9 0.6 23.3 0.6 49.8 0 36.2 -0.3 48.5 -1.2 49.4 -0.9 0.9 -15.2 1.2 -58 1.2 l-56.9 0 0.3 10.3 0.3 10.2 56.9 0.3 c44.1 0.2 57.2 0.5 57.8 1.5 0.9 1.4 1.1 34.8 0.2 37.1 -0.6 1.4 -8 1.6 -73.9 1.6 l-73.3 0 -0.6 -2.2z m115.2 -110 l-0.3 -10.3 -41 0 -41 0 -0.3 10.3 -0.3 10.2 41.6 0 41.6 0 -0.3 -10.2z"/>
  <path d="M818 430 l0 -20 57.5 0 57.5 0 0 -10.5 0 -10.5 -57.2 -0.2 -57.3 -0.3 0 -50.5 0 -50.5 73.2 -0.3 73.3 -0.2 0.5 2.2 c0.3 1.3 0.4 10.2 0.3 19.8 l-0.3 17.5 -57.5 0.5 -57.5 0.5 -0.3 10.3 -0.3 10.2 56.9 0 c42.8 0 57.1 0.3 58 1.2 0.9 0.9 1.2 13.2 1.2 49.4 0 26.5 -0.3 48.9 -0.6 49.8 -0.6 1.4 -8 1.6 -74 1.6 l-73.4 0 0 -20z"/>
  <path d="M1 307 l0 -20 3.4 0 c3.3 0 3.5 -0.2 3.8 -3.7 l0.3 -3.8 10.8 -0.3 10.7 -0.3 0 4.1 0 4 8 0 8 0 0 -4 0 -4.1 10.8 0.3 10.7 0.3 0.3 3.8 0.3 3.7 7.4 0 7.4 0 0.3 -3.7 0.3 -3.8 10.8 -0.3 10.7 -0.3 0 4.1 0 4 7.4 0 7.5 0 0.3 -3.7 0.3 -3.8 10.8 -0.3 10.7 -0.3 0 4.1 c0 3.9 0.1 4 3.5 4 l3.5 0 0 20 0 20 -74 0 -74 0 0 -20z"/>
  <path d="M391.3 156.9 c-1.7 -0.5 -4.3 -2.3 -5.7 -4 -2.2 -2.6 -2.6 -4 -2.6 -9.7 0 -12.8 6.6 -33.2 17.3 -53.7 6.6 -12.7 9.1 -14.5 19.3 -14.5 9.2 0 10.4 1 10.4 9.1 0 7.4 -2.4 14.5 -10.6 31.9 -3.5 7.4 -6.2 13.5 -6.1 13.6 0.1 0.1 1.8 0.4 3.8 0.8 l3.7 0.7 1.7 -7.8 c4 -17.8 12.4 -36.2 19.6 -42.7 5.8 -5.2 10.5 -6.6 22.6 -6.6 10.4 0 15 1.8 17.3 6.8 l1.6 3.3 2.3 -2.5 c5.7 -6.1 21.4 -9.1 33.6 -6.6 8.4 1.7 12.5 5.9 12.5 12.7 l0.1 4.8 1.6 -3 c2.6 -5 9.5 -11.4 14.3 -13.2 5.5 -2.2 20.7 -2.4 26.3 -0.5 2.1 0.8 4.9 2.9 6.5 5 7.2 9.4 1.9 41.2 -10.3 61.1 -3.9 6.4 -8.5 11.1 -13.5 13.7 -4.5 2.3 -19.3 3.1 -25.4 1.4 -7.2 -2 -11.6 -8 -11.6 -15.8 l0 -3.6 -2.8 4.5 c-4.1 6.3 -11.3 12.3 -17.3 14.2 -7.2 2.4 -20.1 2.2 -25.6 -0.3 -2.4 -1 -5.1 -3.2 -6.1 -4.8 l-1.8 -3 -3.2 3.3 c-8.1 8.6 -32.4 8.8 -38.7 0.4 l-1.8 -2.4 -3.3 3.2 c-5.1 4.7 -19 6.8 -28.1 4.2z m103.5 -26.2 c2.1 -2.2 2.1 -2.3 0.2 -3.5 -1.1 -0.7 -2 -2 -2.1 -3 0 -1.5 -2.8 6.2 -2.9 8.1 0 1.5 2.7 0.6 4.8 -1.6z m54.1 -2.5 c2 -3.9 6.9 -17.4 9.5 -26 1.7 -5.9 0.6 -6 -2.3 -0.4 -2.1 4.2 -9.5 24.2 -10.5 28.5 -0.9 3.8 0.9 2.7 3.3 -2.1z m-83.6 -0.5 c0.5 -3.5 0.5 -3.7 -1.5 -2.6 -1.2 0.7 -5.1 1.3 -8.7 1.5 -5 0.2 -6.7 0.7 -6.9 1.8 -0.3 1.3 0.8 1.6 6.5 1.6 3.7 0 7.5 0.4 8.3 1 1.8 1.1 1.6 1.3 2.3 -3.3z m59.7 -16.6 c0 -0.5 0.3 -1.6 0.6 -2.4 0.4 -1.1 -0.1 -1.3 -2 -1 -2.2 0.4 -2.3 0.8 -1.3 2.4 1.2 2 2.7 2.5 2.7 1z m-51.2 -11.6 c-0.9 -0.9 -15.2 1.1 -15.6 2.3 -0.2 0.8 1 1.2 4.2 1.2 3.1 0 5.2 0.6 6.4 1.8 1.6 1.8 1.8 1.7 3.5 -1.6 1 -1.9 1.7 -3.5 1.5 -3.7z m32 6 c0.2 -0.2 0.2 -2.3 0 -4.6 l-0.3 -4.4 -3.2 4.4 c-1.8 2.4 -3.3 4.8 -3.3 5.3 0 0.8 5.8 0.2 6.8 -0.7z"/>
 </g>
 <g fill="#ff0003">
  <path d="M367 117.5 l0 -116.5 116.5 0 116.5 0 0 116.5 0 116.5 -116.5 0 -116.5 0 0 -116.5z m45.2 44.9 c2.6 -0.9 5 -2 5.3 -2.5 1.1 -1.7 6.8 -0.9 12.4 1.9 7.9 3.8 18.1 3.8 26.5 -0.1 7.3 -3.4 11.5 -3.4 18.1 -0.2 7.5 3.7 13.9 4.2 22.2 1.7 3.8 -1.2 8.8 -3.5 11.1 -5.2 5.4 -3.9 10.8 -4.1 14.1 -0.6 5.7 6 18.1 8.7 28.2 6.2 15.2 -3.9 26.3 -17 34.8 -40.8 4.1 -11.9 6.5 -23.9 5.8 -30.3 -2.1 -20.7 -25.6 -31.2 -45.6 -20.4 -6.1 3.2 -13 3.9 -15.1 1.4 -0.6 -0.8 -3.7 -2.4 -6.8 -3.6 -8.5 -3.3 -19.6 -3.1 -28.3 0.4 -7.8 3.2 -11.1 3.4 -15.3 0.8 -8.3 -5.1 -23.6 -5 -33.9 0.4 -5.6 2.9 -10.8 3.2 -12.8 0.8 -3.7 -4.4 -14.4 -5.6 -21.6 -2.4 -7.2 3.3 -11.7 9 -19.1 23.9 -7.2 14.7 -13.3 31.4 -15.3 42.4 -1.5 8.3 -0.2 14 4.7 19.6 7.2 8.5 17.7 10.7 30.6 6.6z"/>
 </g>
 <g fill="#11100e">
  <path d="M388.5 163.8 c-9.2 -3.3 -12.5 -8.9 -12.5 -21.6 0 -10.7 2.2 -20 8.6 -36.1 8.6 -21.5 15.7 -33.1 22.4 -36.6 7.3 -3.8 22.3 -3 27.2 1.4 l3 2.7 6.1 -3.1 c5.9 -2.9 6.5 -3 20.2 -3 12.4 0 14.5 0.2 18.1 2.1 l4 2.2 7 -2.4 c12.6 -4.3 30.8 -3 39.5 2.9 l3.4 2.3 6.6 -3.4 c5.7 -2.9 8 -3.5 15.5 -3.9 10.6 -0.6 18.9 0.9 23.9 4.3 2 1.3 3.4 2 3 1.4 -1.5 -2.4 1.3 -0.7 3.3 2 1.3 1.7 1.8 3 1.3 3 -0.6 0 -0.4 1.7 0.4 4.1 2.2 6.1 1.9 21.6 -0.5 31.6 -2.3 9.8 -8 25 -11.7 31.3 -4.1 7 -11.8 14.5 -17.6 17.1 -4.6 2.1 -6.7 2.4 -18.2 2.4 -14.2 0 -18 -1.1 -23.4 -6.9 -2.4 -2.6 -2.5 -2.6 -4.5 -0.7 -1.2 1.1 -4.6 3.2 -7.6 4.8 -4.9 2.5 -6.7 2.8 -17.5 3.1 -11.5 0.3 -12.2 0.2 -17.5 -2.5 l-5.5 -2.8 -5 2.5 c-4.5 2.3 -6.2 2.5 -17.5 2.5 -10.9 0 -13.1 -0.3 -16.9 -2.2 -2.7 -1.3 -4.9 -1.9 -5.5 -1.4 -4.4 3.5 -25 5.4 -32.1 2.9z m24.4 -11.6 c6.2 -3.2 10 -11.6 7.3 -15.9 -1.3 -2 -6.5 -3.5 -9.9 -2.8 -1.8 0.3 -3.3 0.4 -3.3 0.1 0 -0.3 3.6 -8.1 7.9 -17.4 14.7 -31.2 15.6 -38.2 4.7 -38.2 -6.9 0 -10.3 3.1 -16.3 14.5 -9.5 18.3 -17.3 40.9 -17.3 50.7 0 4.5 3.8 9.4 8.3 10.8 4.4 1.3 14.4 0.4 18.6 -1.8z m42.4 -0.1 c5.1 -2.5 7.6 -5.6 8.4 -10.6 0.4 -2.7 0 -3.9 -2.1 -6 -2.6 -2.6 -3.1 -2.7 -10.7 -2.3 l-8.1 0.3 0.6 -2.5 c0.2 -1.4 0.9 -3.7 1.5 -5.2 1 -2.6 1.4 -2.8 6.9 -2.6 8.1 0.2 11.7 -1.5 14.2 -6.6 2.5 -5.2 2.5 -6.1 0 -8.6 -1.6 -1.6 -3.3 -2 -8 -2 -3.3 0 -6 -0.2 -6 -0.5 0 -0.3 0.9 -2.3 1.9 -4.4 2 -3.8 2 -3.8 9.6 -4.4 9.2 -0.7 13.5 -2.9 15.1 -7.7 2.3 -6.8 -2 -11.1 -11.7 -11.8 -12.4 -0.9 -21.4 3.3 -27.4 12.9 -4.1 6.3 -10.5 22.4 -13.1 32.5 -4.5 17.8 -2.8 25.4 6.6 30.2 3.8 2 5.6 2.3 11.1 1.9 4.1 -0.2 8.5 -1.3 11.2 -2.6z m41.7 1.2 c9.7 -3.1 18.2 -12.9 22.1 -25.4 2.5 -8.1 2.4 -12.2 -0.4 -15.4 -4.3 -5.1 -16.3 -4.3 -20.7 1.2 -3.5 4.5 -2.2 11.3 2.2 11.3 2.2 0 2.2 -0.1 0.3 4.3 -2 4.8 -6.1 7.9 -9.9 7.5 -2.8 -0.3 -3.1 -0.6 -3.4 -4.4 -0.5 -7.2 9.1 -32.5 14.2 -37.3 1.6 -1.5 3.3 -2.1 5.2 -1.9 2.8 0.3 2.9 0.5 2.9 5.3 0 4.2 0.3 5.1 2.5 6.2 2.9 1.5 8.1 0.9 11.6 -1.3 2.8 -1.9 5.4 -8.3 5.4 -13.5 0 -5.9 -4.5 -10.2 -12.5 -11.9 -11.5 -2.4 -22.7 1 -30.1 9.3 -8.7 9.6 -17.3 31.9 -18.1 46.7 -0.4 7.5 -0.1 9 1.9 12.5 4.5 7.8 15.3 10.5 26.8 6.8z m57 -0.8 c10.6 -5.3 20.7 -23.1 25.5 -44.8 4.5 -20.6 -1.2 -30.2 -18 -30.1 -15.7 0.1 -23.8 8.3 -32.4 32.9 -9.1 25.8 -7.8 38.8 4.4 43.4 4.3 1.5 16.3 0.8 20.5 -1.4z"/>
  <path d="M542.5 136.4 c-2 -2 -1.6 -4.1 3.2 -18.4 6.9 -20.4 10.8 -26.6 15.7 -24.7 2.5 1 1.9 5.7 -2 18 -4.7 14.6 -8.6 23 -11.5 25.1 -2.9 2 -3.4 2 -5.4 0z"/>
  <path d="M589 73.5 c-2.9 -3.5 -0.3 -9.4 4.3 -9.5 2.2 0 5.7 3.5 5.7 5.8 0 4.3 -7.3 7 -10 3.7z m8.2 -2 c0.9 -2.1 0.8 -2.8 -0.7 -4.5 -3.5 -3.9 -9.3 -0.1 -7.4 4.8 1.2 3.3 6.5 3.1 8.1 -0.3z"/>
  <path d="M591.1 70.2 c-0.1 -2.9 0.2 -3.3 2.1 -3 1.5 0.2 2.2 1 2.2 3 0.2 2.5 0 2.6 -1.5 1.2 -1.6 -1.4 -1.8 -1.4 -2.2 0.3 -0.3 1 -0.5 0.3 -0.6 -1.5z"/>
 </g>
 <g fill="#ffee00">
  <path d="M392.5 167.1 c-8.7 -2.1 -16.1 -8.6 -18.3 -16 -3.7 -12.1 2.3 -35.5 16.1 -62.5 9.3 -18.4 16.4 -24 30.2 -23.9 7.6 0.1 11.8 1.3 15.1 4.4 2.1 2 2.1 2 7 -0.6 11.4 -5.9 31.7 -6 40.5 -0.2 2.3 1.5 2.8 1.5 8.6 -0.8 13.5 -5.5 32.2 -3.8 42.5 3.7 1.3 1 2.7 0.6 7.5 -1.9 7.1 -3.8 16.8 -5.7 24.3 -4.8 26.7 3.4 34.4 23.5 22.5 59.2 -10.6 31.9 -26.1 45.6 -49.6 44 -8.4 -0.5 -16.4 -3.5 -20 -7.3 -1.2 -1.3 -2.6 -2.4 -3.1 -2.4 -0.4 0 -2.7 1.4 -5 3 -10.4 7.5 -27.9 9.1 -39.3 3.6 l-5.6 -2.8 -6.2 2.8 c-5.5 2.6 -7.3 2.9 -16.7 2.9 -9.3 0 -11.1 -0.3 -15.8 -2.6 -5.2 -2.6 -5.3 -2.6 -9 -0.8 -6.8 3.4 -18.5 4.7 -25.7 3z m18.6 -6.7 c3 -0.9 6.6 -2.5 8.2 -3.6 2.7 -1.9 2.7 -1.9 5.6 0.2 9.7 6.9 26.4 6.7 37.2 -0.5 l4 -2.6 2.9 2.5 c5.2 4.3 11 5.9 20.2 5.4 9.7 -0.5 17.2 -3.7 23.6 -9.9 l4 -3.7 2.3 3.6 c4.9 7.5 12.9 10.7 24.9 10 9.9 -0.6 16.6 -3.6 22.8 -10.2 6.1 -6.4 9.2 -11.7 13.7 -23.4 6.8 -17.7 9.1 -33.1 6.3 -42.3 -1.6 -5.7 -7 -11.4 -12.6 -13.6 -6.4 -2.5 -19 -2.4 -25.5 0.1 -2.7 1 -6.9 3.4 -9.4 5.3 l-4.6 3.5 -2.3 -3 c-5.7 -7.2 -22.4 -10.3 -35.1 -6.3 -3.7 1.1 -7.9 2.9 -9.2 4 -2.5 1.9 -2.5 1.9 -6 -0.9 -5.4 -4.2 -10.2 -5.3 -20.5 -4.8 -11 0.6 -18 3.3 -23.1 8.9 -3.4 3.7 -3.5 3.8 -3.5 1.4 0 -8.4 -15 -13.1 -25.1 -7.9 -6.6 3.3 -13.8 15.1 -22.3 36.5 -12.5 31.4 -11.4 46.3 3.9 51.7 4.5 1.6 13.5 1.4 19.6 -0.4z"/>
 </g>
</svg>