<?xml version="1.0" encoding="UTF-8" standalone="no"?>
<svg
   version="1.0"
   width="1112"
   height="431"
   viewBox="0 0 1112 431"
   preserveAspectRatio="xMidYMid"
   id="svg62"
   sodipodi:docname="lucasarts.svg"
   inkscape:version="1.2 (dc2aedaf03, 2022-05-15)"
   xmlns:inkscape="http://www.inkscape.org/namespaces/inkscape"
   xmlns:sodipodi="http://sodipodi.sourceforge.net/DTD/sodipodi-0.dtd"
   xmlns="http://www.w3.org/2000/svg"
   xmlns:svg="http://www.w3.org/2000/svg">
  <defs
     id="defs66" />
  <sodipodi:namedview
     id="namedview64"
     pagecolor="#ffffff"
     bordercolor="#000000"
     borderopacity="0.25"
     inkscape:showpageshadow="2"
     inkscape:pageopacity="0.0"
     inkscape:pagecheckerboard="0"
     inkscape:deskcolor="#d1d1d1"
     showgrid="false"
     inkscape:zoom="1.0658333"
     inkscape:cx="549.80453"
     inkscape:cy="215.79359"
     inkscape:window-width="1920"
     inkscape:window-height="1017"
     inkscape:window-x="-8"
     inkscape:window-y="-8"
     inkscape:window-maximized="1"
     inkscape:current-layer="svg62" />
  <g
     fill="#ffffff"
     id="g28"
     transform="translate(-50,-122)">
    <path
       d="M 50,451 V 349 h 556 556 V 451 553 H 606 50 Z m 368.9,79.2 c -3.7,-3.3 -6.1,-3.2 -3.2,0 1.7,2 5.4,3.9 6.1,3.3 0.2,-0.2 -1.1,-1.7 -2.9,-3.3 z M 452,491.5 c 2.7,-8.8 7.7,-26.2 11.2,-38.7 3.9,-14.3 6.7,-22.8 7.5,-22.8 0.9,0 1.3,-1.5 1.3,-4.4 0,-3.9 6.4,-24.7 9.2,-30.1 1,-1.8 0.9,-1.8 -0.5,-0.7 -2.2,1.8 -9,16.1 -12.3,25.7 -1.5,4.4 -3.3,8.5 -4.1,9.1 -0.7,0.6 -1.3,2.7 -1.3,4.6 0,1.9 -4.3,20 -9.5,40.4 -11.5,44.9 -11,42.9 -8.5,37.4 1.2,-2.5 4.3,-11.7 7,-20.5 z M 203.8,486 c -4.6,-1.1 -3.7,-5.8 6.1,-31.6 8.9,-23.1 9.9,-26.4 8.4,-26.4 -2.2,0.2 -7.5,3.8 -6.4,4.4 2.4,1.5 0.8,7.6 -7.9,30.8 -8.6,22.8 -9,24.1 -7.4,25.9 1.6,1.8 1.8,1.8 5.6,-0.4 3.8,-2 3.9,-2.2 1.6,-2.7 z m 83.7,4 c 1.8,-0.8 1.7,-0.9 -0.7,-0.9 -1.6,-0.1 -3.7,-1 -4.8,-2.1 -3.8,-3.8 -2.5,-23.5 2.5,-37.5 l 0.7,-2 -1.7,2 c -2.9,3.3 -7.4,13.6 -9.1,20.7 -1.4,5.7 -1.5,7.4 -0.4,11.3 2.1,7.4 7.8,11 13.5,8.5 z m 44.9,-0.4 c 1.5,-0.5 1.6,-0.9 0.6,-2.1 -1.8,-2.1 -0.7,-13.3 1.9,-20.9 1.2,-3.3 1.9,-6.1 1.7,-6.3 -1.3,-1.3 -11.6,21 -11.6,25.2 0,1.7 3.7,5.8 4.8,5.2 0.4,-0.2 1.5,-0.7 2.6,-1.1 z m 35.5,0 c 2.1,-1.1 2.1,-1.4 0.6,-2 -3.1,-1.2 -1.2,-9 8.2,-33.6 10.3,-26.7 11,-28.8 8.7,-24.2 -1.3,2.4 -2.4,3.2 -4.4,3.2 -2.6,0 -2.7,0.2 -2.2,4.8 0.5,5.3 -2.4,13.6 -7.8,22.3 -2.1,3.5 -3,6.2 -3,9.2 0,2.3 -1.2,7.4 -2.6,11.4 -2.4,6.6 -2.7,10.4 -0.7,10.3 0.4,-0.1 1.9,-0.7 3.2,-1.4 z m 37.6,0.4 c -0.3,-0.5 -1.1,-1 -1.7,-1 -0.6,0 -2.6,-1.1 -4.4,-2.5 -4.1,-3.1 -5.6,-1.5 -1.8,2 2.6,2.4 9.2,3.7 7.9,1.5 z m 87.4,-2.5 c 0.2,-0.3 -0.1,-0.5 -0.7,-0.5 -3.2,0 -0.9,-8.8 8.8,-33.2 5.5,-13.9 9.8,-25.3 9.7,-25.5 -0.2,-0.1 -3.6,0.1 -7.7,0.5 -6.5,0.6 -7,0.7 -3.5,1.2 3.9,0.5 4,0.6 4.3,4.6 0.2,3.2 -1.8,9.5 -9.6,29.7 -5.5,14.1 -9.7,25.8 -9.4,26.1 0.4,0.5 7.1,-1.9 8.1,-2.9 z m 41.4,-1.7 c -0.4,-4.7 1.4,-10.9 16.9,-56.9 l 17.3,-51.5 -4.1,0.9 -4.1,1 0.4,6.1 c 0.4,5.8 -0.5,8.8 -15.6,54 -8.9,26.4 -16.1,48.5 -16.1,49.2 0,1.3 1.5,2.2 4.1,2.3 1.3,0.1 1.5,-0.8 1.2,-5.1 z m 118.9,-1.3 c -0.4,-3.8 0.6,-6.7 7.1,-22.2 10.4,-24.5 11.4,-27.9 9.6,-31.1 -2.7,-4.8 -3.9,-3.9 -3.9,3.1 0,7.3 -1.3,11.3 -12.4,38.2 -3.7,8.7 -6.4,16.5 -6.2,17.2 0.4,0.9 1.2,1 3.4,0.2 2.8,-0.9 2.9,-1.3 2.4,-5.4 z m 189.9,3.3 c -1.8,-6 -0.6,-15.2 3.3,-24.8 1.3,-3.3 2.2,-6 2,-6 -0.9,0 -8.6,14.4 -10.9,20.3 -3,8.1 -3,8.7 -0.5,11.5 1.6,1.6 2.5,1.9 4.3,1.3 1.2,-0.5 2,-1.5 1.8,-2.3 z m 34.9,1.7 c 1.4,-0.8 1.9,-1.4 1.3,-1.5 -0.9,0 -1.3,-1.8 -1.3,-5.5 0,-4.6 1.6,-9.6 8.9,-28.8 10,-25.8 10.9,-28.6 8.5,-23.9 -1.3,2.3 -2.5,3.2 -4.3,3.2 -2.5,0 -2.6,0.2 -2.3,4.5 0.5,5.4 -2.4,13.7 -7.4,22.2 -2.5,4 -3.4,6.7 -3.4,9.9 0,2.3 -1.2,7.5 -2.6,11.4 -3.3,9.3 -2.7,11.5 2.6,8.5 z m 120,-1.9 c -2.2,-2.2 -0.7,-8 6.4,-24.7 11.2,-26.6 12.1,-29.6 8.9,-33.1 -2.5,-2.8 -3.2,-2.2 -2.6,2.2 0.8,5.7 -0.7,10.7 -10.8,35.2 -4.9,12 -8.7,22.3 -8.4,22.8 0.3,0.4 2.1,0.3 4,-0.3 2.4,-0.7 3.2,-1.4 2.5,-2.1 z m 49.5,2.4 c 1.8,-0.8 1.7,-0.9 -0.7,-0.9 -4.1,-0.1 -5.7,-1.1 -7.3,-4.2 -2.8,-5.2 -1.4,-24 1.9,-26.5 0.9,-0.6 1.6,-2.3 1.6,-3.8 0,-1.5 0.7,-4.1 1.5,-5.9 l 1.6,-3.2 -2.6,3 c -3.8,4.6 -9.2,16.3 -10.6,23.1 -1.1,5.4 -1,6.7 0.5,10.8 2.8,7.3 8.1,10.2 14.1,7.6 z m 45.5,0.6 c 0,-0.1 -2.2,-1.7 -5,-3.4 -5.4,-3.4 -7.2,-2.1 -2.4,1.7 2.2,1.8 7.4,3 7.4,1.7 z m -854.1,-2 c 1.9,-1.1 2.1,-1.4 0.7,-1.9 -1,-0.4 -1.6,-1.8 -1.6,-4.1 0,-3 8.2,-26.4 17,-48.6 1.2,-3 1.8,-5.2 1.4,-4.8 -1.9,2 -15,26.3 -14.3,26.6 1.9,0.8 0.7,6.4 -4.1,19.1 -2.7,7.3 -5,13.7 -5,14.2 0,1.3 3.1,1.1 5.9,-0.5 z m -116.7,-1.2 c -1.8,-1.3 -2.2,-2.4 -2.2,-7.2 0,-7 0.1,-7.4 14.1,-52.1 6.2,-20 12.3,-37.9 13.6,-39.8 l 2.2,-3.3 h -6.6 c -5.7,0 -6.4,0.2 -5.3,1.5 2.7,3.3 0.4,13.5 -12.5,54 -6.9,22 -13.7,41.9 -15,44.3 l -2.4,4.2 h 8.2 c 7.7,0 8,-0.1 5.9,-1.6 z m 45.8,-0.5 c 1.1,-1.9 1,-2 -1.7,-0.6 -1.5,0.8 -3.5,1.7 -4.3,2 -0.8,0.3 -0.1,0.6 1.7,0.6 2.3,0.1 3.6,-0.5 4.3,-2 z m 761.1,-23.8 c -0.5,-0.3 -1.1,-1.9 -1.3,-3.4 -0.2,-2.2 -1.7,1 -5.8,12.4 -3,8.4 -5.7,15.7 -5.8,16.3 -0.2,0.6 2.8,-4.7 6.7,-11.8 4,-7.1 6.7,-13.2 6.2,-13.5 z m -349.3,11.7 c 3.4,-6.5 5.8,-11.8 5.2,-11.8 -0.5,0 -1,-1.7 -1.1,-3.7 0,-3.7 -0.1,-3.5 -2.4,2.7 -1.3,3.6 -4,11 -6,16.5 -2,5.5 -3.2,9.6 -2.7,9 0.5,-0.5 3.7,-6.3 7,-12.7 z m 38.1,0.6 c 3.7,-6.5 6.4,-12 6,-12.2 -1.8,-0.7 -0.8,-7.1 2.1,-14.2 1.7,-4 3.7,-9.5 4.4,-12.1 1.4,-4.5 1.3,-5 -0.4,-7.1 l -1.9,-2.3 -0.1,6.6 c 0,6.4 -3.1,15.7 -16.6,50.4 -2.3,5.7 -1.2,4.3 6.5,-9.1 z m 184.2,10.4 c 3.7,-1 3.9,-1.4 3.9,-5 0,-4.8 7.4,-28.3 10.1,-32 l 2,-2.8 h -6.8 c -5.2,0 -6.4,0.3 -5.5,1.2 2.2,2.2 1.3,11.2 -2.4,23.3 -1.9,6.5 -4.2,12.8 -5.1,14.1 -1.8,2.7 -1.5,2.8 3.8,1.2 z m 165.5,-20 c 0.8,-1.6 1,-2.8 0.5,-2.8 -0.5,0 -1.1,-1.7 -1.3,-3.7 -0.3,-3.4 -0.9,-2.2 -5.7,10.7 -3,8 -5.6,15.2 -5.8,16 -0.5,1.5 9.6,-15.1 12.3,-20.2 z m -223.9,10.5 c -3,-6.3 -3.2,-7.7 -3.5,-19.4 -0.3,-10.4 0,-14.2 1.7,-21 3.1,-12.4 10.8,-27.3 17.8,-34.5 l 5.8,-5.9 -4.9,3.5 c -11.5,8.2 -23.3,24.7 -26.6,37 -4.6,17.2 -1.9,31.7 8,42.4 2.4,2.5 4.4,4.6 4.6,4.6 0.2,0 -1.1,-3 -2.9,-6.7 z m 367.3,-5.5 c 0,-1.5 -2.5,-7.4 -5.5,-13.2 -3,-5.7 -5.5,-11.4 -5.5,-12.5 0,-2.5 -1.6,-3.6 -2.4,-1.5 -1.3,3.3 -0.4,6.1 4.9,16.6 4,7.8 5.5,11.9 5.6,15 l 0.1,4.3 1.3,-3 c 0.8,-1.6 1.4,-4.2 1.5,-5.7 z m -687,0 c 0,-1 -2.5,-6.5 -5.5,-12.3 -3.1,-5.8 -5.9,-12.2 -6.3,-14.3 l -0.8,-3.7 -1.1,3.1 c -1.3,3.6 0.2,8.8 4.6,16.2 3.6,6.2 6.1,12.6 6.2,16 l 0.1,2.7 1.3,-3 c 0.8,-1.6 1.4,-3.8 1.5,-4.7 z m 547.3,-24.5 c 4.7,-12.1 5,-13.7 2.9,-16.2 -1.7,-2.1 -1.7,-2 -1.8,4.6 -0.1,4.9 -0.9,8.5 -2.8,13 -1.4,3.4 -2.6,6.5 -2.6,6.8 0,1.8 1.2,-0.5 4.3,-8.2 z M 1080,435.2 c 0,-1 -0.7,-2.7 -1.5,-3.8 -1.4,-1.8 -1.4,-1.7 -1.5,1.4 0,1.8 -0.7,4.9 -1.5,7 l -1.5,3.7 3,-3.3 c 1.7,-1.8 3,-4 3,-5 z M 591.9,435 c 1.2,-3 2.1,-5.8 2.1,-6.2 0,-1 -5,-0.9 -7.5,0.2 -1.9,0.8 -1.9,0.9 0.2,0.9 2.7,0.1 3.9,3.6 2.9,8.3 -0.8,4.3 -0.2,3.3 2.3,-3.2 z m 345.7,-4.4 c 0.5,-2.3 0.3,-2.6 -1.7,-2.6 -1.3,0 -3.5,0.3 -4.9,0.7 l -2.5,0.7 2.5,0.6 c 2.1,0.5 2.6,1.2 2.9,5 l 0.3,4.5 1.4,-3.1 c 0.7,-1.7 1.6,-4.3 2,-5.8 z m -617.2,1.7 c -0.5,-0.9 -2,-2.3 -3.3,-3.1 -2.5,-1.7 -2.4,-2.4 -0.5,6.5 l 0.5,2.6 2.2,-2.2 c 1.7,-1.6 1.9,-2.5 1.1,-3.8 z M 1121,432 c -1.2,-2.3 -4.2,-4 -6.7,-3.9 -1.2,0 -0.8,0.5 1.3,1.4 1.7,0.8 3.6,2.1 4.3,2.9 1.8,2.2 2.4,2 1.1,-0.4 z m -689,-1.5 c -1.3,-1.4 -3.3,-2.5 -4.4,-2.5 -1.6,0 -1.1,0.6 1.9,2.4 5.1,3.1 5.3,3.1 2.5,0.1 z m 399.6,-43.6 c -0.6,-0.4 -2.1,-1 -3.3,-1.3 l -2.2,-0.7 2.2,4.5 2.2,4.6 1.1,-3.3 c 0.8,-2.3 0.8,-3.4 0,-3.8 z m -307.9,-0.6 c 0.4,-1.2 -3.3,-6 -5.6,-7.2 -1.7,-1 -1.7,-0.4 0.8,10.8 0.2,0.6 4.5,-2.5 4.8,-3.6 z"
       id="path2" />
    <path
       d="M 50,234.5 V 122 h 556 556 V 234.5 347 H 606 50 Z m 1100.5,0 v -102 h -545 -545 l -0.1,101 c 0,55.6 0.2,101.6 0.4,102.3 0.3,1 109.8,1.2 545.1,1 l 544.6,-0.3 z"
       id="path4" />
    <path
       d="m 246.5,305 c -12.4,-2.6 -19.6,-9.1 -23.5,-21.2 -2.3,-7.1 -2.4,-8.4 -2.8,-46 L 219.9,199 h 16.5 16.5 l 0.3,34.8 c 0.3,38.9 0.3,38.9 7.5,43.3 2.9,1.8 5.2,2.4 10,2.4 8.1,0 13.6,-3.6 17.6,-11.4 l 2.7,-5.5 V 230.8 199 h 16.5 16.5 v 52 52 h -16 -16 v -7 c 0,-3.8 -0.2,-7 -0.5,-7 -0.3,0 -3.1,2.6 -6.3,5.8 -7.3,7.6 -14.2,10.4 -26.2,10.8 -4.7,0.2 -10.3,-0.1 -12.5,-0.6 z"
       id="path6" />
    <path
       d="m 379.3,305 c -8.3,-1.5 -15.4,-4.7 -22.4,-9.9 -7.3,-5.6 -12.2,-12.2 -16.5,-22.6 -2.7,-6.6 -2.8,-7.9 -2.8,-20.5 0,-12.3 0.3,-14.1 2.8,-21 3.5,-9.1 7.9,-16.2 13.7,-21.6 5.8,-5.4 9.9,-7.7 19.1,-10.8 6.4,-2.2 9.5,-2.6 18.5,-2.6 11.9,0 18.1,1.3 27.6,5.8 11.4,5.3 21.1,17.6 23.3,29.5 l 0.6,3.7 h -15.8 l -15.9,-0.1 -2.2,-4.7 c -5.8,-12.3 -26.1,-13.1 -34,-1.3 -3.3,4.9 -4.5,9.5 -5,20.3 -0.4,8.2 -0.2,10.6 1.7,16.3 3.8,11.5 12.4,17.5 22.8,16.1 8.1,-1.1 13.7,-5.8 16.5,-14.2 l 1.4,-3.9 15.7,-0.2 c 11.7,-0.1 15.6,0.1 15.6,1.1 0,0.6 -0.7,3.9 -1.6,7.1 -3.8,14.6 -15.1,26.3 -30.4,31.5 -7.3,2.5 -24.2,3.5 -32.7,2 z"
       id="path8" />
    <path
       d="m 481.1,305 c -6.6,-1.4 -12.6,-4.7 -16.6,-9.2 -5.6,-6.2 -6.9,-9.9 -6.9,-20.8 0,-7.9 0.4,-10.2 2.2,-13.5 2.9,-5.4 4,-6.6 9.1,-10.3 5.9,-4.3 14.3,-6.7 31.4,-9.2 23.5,-3.4 27.7,-5.3 27.7,-12.7 0,-5.1 -1.9,-7.9 -7,-10.7 -6.6,-3.6 -14.6,-3.6 -20.7,-0.1 -4.1,2.5 -7.3,6.8 -7.3,10 0,1.3 -2.2,1.5 -15.9,1.5 h -15.9 l 1.4,-6.2 c 4.5,-19.3 19.4,-27.7 49.1,-27.9 20.1,-0.1 33.7,4.1 40.9,12.5 6.2,7.3 7.3,15.3 7.4,53.6 0,27.2 0.4,32.4 2.4,38.8 l 0.7,2.2 h -16.4 c -16.2,0 -16.5,0 -17.1,-2.2 -0.3,-1.3 -0.6,-3.3 -0.6,-4.5 0,-3.1 -1.4,-2.9 -6.7,1.2 -6.4,4.9 -15.7,7.6 -27.3,8.1 -5.2,0.1 -11.5,-0.1 -13.9,-0.6 z m 32.2,-19.1 c 5.3,-1.4 10.2,-6.2 12.4,-11.7 2.3,-6.2 2.6,-20.9 0.3,-20.3 -29.4,7.4 -30.4,7.8 -33.5,12.5 -2.5,3.7 -2.9,8.7 -1.1,12.9 2.6,6.4 12.3,9.3 21.9,6.6 z"
       id="path10" />
    <path
       d="m 607.3,304.6 c -18.6,-3.6 -30.8,-14.7 -33,-30.1 l -0.6,-4.5 h 15.5 15.6 l 0.6,3.1 c 0.8,4.2 7.2,10.4 12.1,11.8 16,4.4 31,-7.7 21.8,-17.6 -2.9,-3.1 -4.2,-3.5 -31.6,-10.2 -18.7,-4.5 -26.4,-9.2 -30.1,-18.3 -2,-4.7 -2.1,-17.7 -0.2,-22.2 2.3,-5.5 8.6,-11.7 15.1,-14.7 10,-4.8 18.6,-6.2 34.8,-5.6 15.9,0.5 23,2.3 31.4,8.1 5.6,3.8 11,12.4 11.9,18.9 l 0.7,4.7 h -14.9 l -14.9,-0.1 -2,-4.1 c -2.7,-5.7 -7.1,-7.8 -15.8,-7.8 -7.6,0 -11.5,1.5 -14.1,5.4 -3.4,5.2 1,10.9 10.9,14 2.8,0.9 11.4,2.9 19.2,4.5 7.9,1.7 16.2,3.9 18.6,4.9 12.5,5.5 18.4,17.5 15.8,31.8 -2.3,12.2 -11.3,21.4 -25.3,25.9 -10.3,3.3 -29.9,4.3 -41.5,2.1 z"
       id="path12" />
    <path
       d="m 1033.3,304.6 c -17.1,-3.3 -28.3,-12.3 -31.9,-25.9 -2.5,-9.3 -3.4,-8.7 13.9,-8.7 h 15.4 l 1.2,3.9 c 3.6,12.3 23.2,16.2 32.8,6.6 3.7,-3.7 4.2,-6.9 1.7,-11.6 -1.9,-3.7 -5.3,-5.2 -19.2,-8.4 -27.5,-6.4 -33.4,-8.7 -39.4,-15.3 -4.3,-4.8 -6.3,-11.9 -5.6,-20.6 1.5,-18.6 18.2,-28.6 47.8,-28.6 27.9,0 43.6,9.4 46.6,27.8 l 0.7,4.2 h -14.9 l -14.9,-0.1 -2,-4.1 c -2.9,-6.1 -7.1,-8 -16.7,-7.6 -9.2,0.4 -13.1,2.6 -13.6,7.7 -0.8,7.5 4.9,10.6 27.2,15.2 19.3,4 24.8,6.1 30.1,11.4 12.4,12.4 10.7,33 -3.8,44.9 -8.4,6.9 -17.8,9.6 -35.2,10.1 -8.5,0.3 -15.5,0 -20.2,-0.9 z"
       id="path14" />
    <path
       d="m 961,303.3 c -10.9,-1.8 -16.3,-6.1 -19.9,-15.8 -2,-5.2 -2.1,-7.5 -2.1,-35.5 0,-16.4 -0.3,-30.5 -0.6,-31.4 -0.5,-1.3 -2.3,-1.6 -9,-1.6 H 921 v -10 -10 h 8.4 c 7,0 8.5,-0.3 9,-1.7 0.4,-0.9 0.6,-8.2 0.5,-16.2 l -0.1,-14.6 16.6,-0.3 16.6,-0.2 v 16.5 16.5 h 10.5 10.5 v 10 10 H 982.5 972 v 26.5 c 0,18.3 0.4,27.2 1.2,29 1.7,3.8 5.8,5.5 13.3,5.5 h 6.5 v 11.4 11.4 l -3.1,0.6 c -3.4,0.6 -24.8,0.6 -28.9,-0.1 z"
       id="path16" />
    <path
       d="m 106,230.8 v -72.3 h 18 18 v 56.1 c 0,42.2 0.3,56.3 1.2,57.2 0.9,0.9 9.9,1.2 34.5,1.2 H 211 v 15 15 H 158.5 106 Z"
       id="path18" />
    <path
       d="m 681.5,301.3 c 0.4,-1 2.4,-6.5 4.5,-12.3 2.1,-5.8 6.4,-17.2 9.5,-25.5 3.1,-8.2 7.9,-21.1 10.6,-28.5 2.8,-7.4 7.3,-19.5 10,-26.7 2.7,-7.3 7.1,-19.3 9.8,-26.5 2.7,-7.3 5.8,-15.5 6.8,-18.1 l 1.9,-4.8 18.7,-0.2 18.7,-0.2 2.9,8 c 3.7,10.1 19,50.8 24.1,64 2.1,5.5 4.8,12.9 6,16.5 1.2,3.6 3.5,9.7 5,13.5 1.6,3.9 4.2,10.6 5.8,15 1.7,4.4 4.6,12.4 6.6,17.8 l 3.6,9.7 -19,-0.2 -19,-0.3 -4.3,-12.5 -4.2,-12.5 -26.3,-0.3 -26.2,-0.2 -0.8,2.2 c -0.5,1.3 -2.6,7.1 -4.6,13.1 l -3.8,10.7 h -18.5 c -17.2,0 -18.5,-0.1 -17.8,-1.7 z m 88.5,-52 c 0,-0.9 -2.5,-9.8 -5.6,-19.7 -3.2,-10 -6.6,-21.2 -7.8,-24.9 -1.2,-3.8 -2.5,-6.8 -3,-6.8 -0.5,0 -1.9,2.6 -3.1,5.8 -3.6,9.3 -14.5,43.6 -14.5,45.6 0,1.5 1.5,1.7 17,1.7 15.2,0 17,-0.2 17,-1.7 z"
       id="path20" />
    <path
       d="m 836,251 v -52 h 15.5 15.4 l 0.3,8.7 c 0.2,4.7 0.8,8.8 1.3,9 0.6,0.2 2.1,-1.8 3.4,-4.3 5.2,-9.8 15.7,-15.4 28.6,-15.4 h 7.5 v 14.3 14.2 h -10.9 -10.9 l -5.8,4 c -4.5,3.1 -6.5,5.3 -8.9,9.9 l -3,6 V 274.2 303 H 852.3 836 Z"
       id="path22" />
    <path
       d="m 1108.8,167.3 c -0.3,-7.3 -0.4,-7.7 -2.8,-8.3 -1.4,-0.4 0.2,-0.6 3.8,-0.6 3.4,-0.1 6.2,0.3 6.2,0.7 0,0.4 -0.8,0.5 -1.8,0.2 -3.1,-0.8 -4.4,2.1 -4,9.2 0.1,3.6 0,6.5 -0.4,6.5 -0.4,0 -0.8,-3.5 -1,-7.7 z"
       id="path24" />
    <path
       d="m 1120,167 c 0,-7.3 0.2,-8 1.9,-8 1.6,0 2.5,1.5 4.2,7 1.3,3.9 2.7,6.9 3.3,6.7 0.5,-0.2 2,-3.5 3.4,-7.5 1.7,-5.2 2.7,-6.9 3.8,-6.5 1.1,0.4 1.4,2.4 1.2,8.7 l -0.2,8.1 -0.3,-6.8 c -0.5,-8.5 -2,-8.4 -4.7,0.1 -1.1,3.4 -2.5,6.2 -3.2,6.2 -0.7,0 -2.2,-2.9 -3.4,-6.5 -1.2,-3.6 -2.6,-6.5 -3.1,-6.5 -0.5,0 -0.9,2.9 -0.9,6.5 0,3.7 -0.4,6.5 -1,6.5 -0.6,0 -1,-3.3 -1,-8 z"
       id="path26" />
  </g>
  <g
     fill="#000000"
     id="g60"
     transform="translate(-50,-122)">
    <path
       d="m 416.5,536.1 c -2.4,-1.1 -5.2,-4.1 -5.6,-6.1 -0.6,-2.8 1.1,-6.9 3.2,-7.5 1.5,-0.5 3.1,0.4 6.4,3.4 9.3,8.6 14.1,4.6 20.3,-16.9 3,-10.3 19.2,-73.8 19.2,-75.2 0,-0.4 -3,-0.8 -6.7,-1 -6.5,-0.3 -6.8,-0.4 -6.8,-2.8 0,-2.4 0.3,-2.5 7.9,-3 l 7.8,-0.5 3.4,-9.5 c 5.4,-15.3 10.1,-23.7 17.4,-31.1 7.4,-7.5 14.9,-11.6 23,-12.5 11.5,-1.3 21,4.4 21,12.5 0,4.9 -3,7.4 -8.2,6.9 -3.1,-0.3 -3.3,-0.6 -4.1,-5.3 -2.4,-15.2 -17.9,-11.5 -28.1,6.7 -3.4,6.1 -11.6,28.5 -11.6,31.6 0,1.3 1.6,1.4 12.8,0.9 7,-0.4 15.4,-1.1 18.6,-1.7 6.1,-1 8.6,-0.3 8.6,2.6 0,0.7 -4.7,13.2 -10.5,27.8 -5.8,14.6 -10.5,27 -10.5,27.6 0,2.6 5.6,-0.1 13.6,-6.6 3.8,-3.1 5.9,-4.3 6.6,-3.6 3.7,3.7 -20.1,21.2 -28.8,21.2 -6.7,0 -6.6,-0.7 5.1,-30.9 5.9,-15.3 10.4,-28.4 10.1,-29 -0.5,-0.7 -5.5,-1.1 -14.4,-1.1 h -13.7 l -6.3,22.8 c -17.6,63.3 -21.6,72.4 -34.8,78.7 -4.1,1.9 -12.2,2.8 -14.9,1.6 z"
       id="path30" />
    <path
       d="m 764.5,494 c -20.6,-3.7 -32.4,-15.2 -35.5,-34.5 -5.2,-32.5 19.2,-66.2 55.7,-76.7 6.7,-2 10.1,-2.3 24.3,-2.3 13.8,0.1 17.5,0.4 22.5,2.1 3.9,1.3 5.9,2.5 5.8,3.5 -0.1,0.8 -1.9,6 -3.9,11.7 -2.8,7.8 -4.1,10.2 -5.3,10 -1.3,-0.3 -1.5,-1.4 -1.3,-6 0.5,-7.9 -1.8,-12.5 -7.6,-15.1 -6.6,-2.9 -22.9,-2.1 -32.5,1.6 -15.5,6 -27.2,16.7 -34.7,32 -6.9,13.9 -9.3,24.2 -8.8,36.7 0.3,8.6 0.7,10.4 3.8,16.6 5.7,11.3 14.3,15.8 30,15.7 9.7,0 13.5,-1.4 17.4,-6.5 2.5,-3.3 9.6,-25.1 9.6,-29.4 0,-3.1 -3.2,-5 -9.7,-5.9 -4.3,-0.6 -5.3,-1 -5.3,-2.6 0,-1.8 1,-1.9 20,-1.9 17.4,0 20,0.2 20,1.6 0,0.8 -1.7,2.2 -3.7,3.1 -2.1,0.8 -4.6,2.2 -5.5,3 -2.8,2.5 -11.1,29 -10.3,33 0.7,3.9 0.3,4.2 -15,7.9 -11.5,2.8 -22.8,3.7 -30,2.4 z"
       id="path32" />
    <path
       d="m 193.7,492.2 c -1,-1 -1.7,-3.3 -1.7,-5 0,-1.8 4,-13.9 8.9,-26.9 5,-13.1 8.6,-24.2 8.2,-24.6 -1.1,-1.2 -3.9,0.4 -10.7,5.9 -5,4.1 -8.4,5.1 -8.4,2.5 0,-2.1 13.7,-13.3 20.3,-16.6 8,-4 8.7,-4.1 11.7,-1.7 l 2.3,1.8 -10.2,26.8 c -5.6,14.7 -9.9,27.1 -9.6,27.6 1.8,2.9 8.9,-1.7 19.7,-12.7 8.4,-8.6 15.7,-18.9 23.3,-33.1 6.3,-11.7 7.8,-12.9 12,-9.8 1.8,1.3 1.5,2.5 -8.4,28.6 -6.4,17.3 -9.9,27.6 -9.3,28.2 1.4,1.4 4.6,-0.5 12,-7 4.5,-3.9 6.6,-5.2 7.4,-4.4 1.4,1.4 -1.7,5.7 -9,12.2 -9.9,8.9 -19.8,12.2 -22.6,7.7 -1.1,-1.7 1.7,-11 8.4,-27.7 l 2.2,-5.5 -13.1,13.7 c -18.8,19.5 -28.5,25.4 -33.4,20 z"
       id="path34" />
    <path
       d="m 275.2,491.5 c -8,-6.7 -6.2,-26.1 3.9,-43.1 4.9,-8.2 14.5,-17.5 21.4,-20.9 11,-5.4 21.6,-3.5 23.9,4.4 0.7,2.6 0.5,3.7 -1.1,5.9 -1.1,1.5 -3.2,3.1 -4.7,3.7 -2.3,0.8 -3,0.6 -4.2,-1 -0.8,-1 -1.4,-3.1 -1.4,-4.6 0,-3.6 -2.4,-5.9 -6.1,-5.9 -4.5,0 -12.7,8.7 -17.2,18.1 -6.6,14 -9,31.6 -4.7,35.9 3.6,3.6 9.7,2.2 18.4,-4.4 3.5,-2.7 5.1,-3.5 5.9,-2.7 0.8,0.8 -0.3,2.5 -3.8,6.1 -10.1,10.2 -23.7,14.1 -30.3,8.5 z"
       id="path36" />
    <path
       d="m 323.9,491.9 c -1.9,-1.9 -2.1,-3 -1.7,-8.3 1.4,-16.8 21.5,-44.8 38.1,-53.1 7.7,-3.9 15.4,-4.8 17.7,-2 1.9,2.3 2.6,1.9 4.9,-3.5 2.3,-5.3 4.8,-6.4 8.5,-3.7 1.6,1.2 1.5,1.9 -2.4,11.7 -11.3,28.4 -19.1,50.3 -18.2,51.2 1.5,1.5 4.7,0.1 11.7,-5.3 6.7,-5.1 8.5,-5.9 8.5,-3.6 0,2.3 -12.2,13.2 -17.7,16.1 -5.6,2.8 -11.1,3.4 -13.1,1.4 -1.9,-1.9 -1.5,-5.1 1.8,-14 1.7,-4.5 3,-8.7 3,-9.2 0,-0.6 -1.6,0.7 -3.5,3 -4.8,5.8 -16,14.7 -22.9,18.3 -6.9,3.7 -11.7,4 -14.7,1 z m 23.2,-11.4 c 6.6,-4.9 15.9,-15.2 20.3,-22.4 3.6,-5.9 8.6,-17 8.6,-19.1 0,-2.4 -4.9,-6 -8.3,-6 -8.7,0 -22.5,16.2 -28.8,33.8 -6.7,19.1 -4.4,22.9 8.2,13.7 z"
       id="path38" />
    <path
       d="m 394.6,491.5 c -3.2,-3 -3.6,-8.3 -0.7,-10.9 2.1,-1.9 2.6,-1.8 8.1,2.6 5.3,4.1 9.3,4.6 12.4,1.5 4.8,-4.9 4.2,-10.5 -2.5,-21.9 -3.4,-5.7 -5.9,-12.9 -5.9,-16.6 0.1,-7 7.6,-16.4 16.3,-20.2 5.9,-2.6 9.7,-2 13.2,2.2 2.7,3.2 3.1,5.8 1.5,8.9 -1.4,2.5 -3.2,2.4 -5.6,-0.2 -2.4,-2.7 -6.7,-4.9 -9.4,-4.9 -3.1,0 -7,4.4 -7,7.9 0,1.6 2.7,8.1 6,14.6 4.8,9.4 6,12.6 6,16.3 0,6 -2.7,11.7 -7.6,16.4 -5,4.8 -10,6.8 -16.7,6.8 -4.4,0 -5.9,-0.5 -8.1,-2.5 z"
       id="path40" />
    <path
       d="m 526.5,492.3 c -1.2,-1.1 -1.5,-2.6 -1.1,-4.7 0.3,-1.7 7.8,-24.8 16.7,-51.4 11.3,-33.9 15.9,-49 15.5,-50.8 -0.4,-1.4 -1.8,-3 -3.1,-3.6 -3.4,-1.5 -3.1,-3.4 0.8,-4.7 5.8,-1.9 16.8,-4.2 17.6,-3.7 0.4,0.3 -7.6,25.5 -17.8,56 -19.6,58.5 -20,60.3 -13.4,56.1 1.5,-0.9 5.8,-4.9 9.6,-8.8 5.1,-5.4 7,-6.8 7.9,-5.9 0.9,0.9 0.8,1.8 -0.3,3.9 -2.5,4.9 -12.8,15.1 -17.4,17.2 -5.5,2.6 -12.7,2.8 -15,0.4 z"
       id="path42" />
    <path
       d="m 567.4,492.6 c -0.3,-0.8 2.7,-10.4 6.6,-21.3 11,-30.1 12.9,-35.9 12,-37.3 -1.3,-2.1 -6.5,-0.2 -11.5,4.2 -3.4,3 -4.9,3.8 -5.7,3 -1.7,-1.7 3.1,-8.3 8.7,-12 8.6,-5.7 20.5,-6.4 20.5,-1.3 0,1.1 -2.5,8.5 -5.6,16.6 -3.1,8 -5.4,14.8 -5.2,15 0.2,0.3 2.3,-2.4 4.5,-5.8 13,-19.5 28,-31.3 37.3,-29.2 7.3,1.6 7.6,8.1 1,24.8 -2.1,5.5 -3.8,10.2 -3.6,10.4 0.1,0.2 2.9,-3.6 6.1,-8.3 7.2,-10.6 17.6,-21.4 23.5,-24.4 6.3,-3.3 13.5,-3.3 16.1,-0.1 2.4,2.9 2.5,9.3 0.3,15.8 -0.9,2.6 -5,12.8 -9.1,22.5 -4.1,9.8 -7.2,18.2 -6.8,18.8 0.9,1.4 7.3,-2.1 11.4,-6.4 1.9,-2 4.3,-3.6 5.3,-3.6 2.3,0 2.3,0.5 -0.2,4.5 -4.2,6.8 -17.9,15.5 -24.4,15.5 -1.6,0 -3.7,-0.7 -4.7,-1.6 -2.1,-1.9 -2.1,-2.1 6.6,-22.9 12.4,-29.8 14.6,-37.5 11.2,-38.8 -6.3,-2.4 -24.3,18.8 -41.3,48.6 -7.6,13.1 -8.5,14.2 -11.3,14.5 -2.1,0.2 -3.3,-0.2 -3.7,-1.2 -0.3,-0.9 3.9,-13.7 9.5,-28.4 9.9,-26.1 11.5,-32.4 8.7,-33.5 -4.7,-1.8 -21.4,14.6 -31.9,31.4 -2.5,4.1 -7.4,12.8 -10.9,19.4 -6,11.2 -6.6,12 -9.6,12.3 -2.1,0.2 -3.4,-0.2 -3.8,-1.2 z"
       id="path44" />
    <path
       d="m 834,491.8 c -9.2,-9.9 15.8,-51.7 37.1,-61.8 7.2,-3.4 14.8,-4 16.9,-1.5 1.9,2.3 2.6,1.9 4.9,-3.5 2.3,-5.3 4.8,-6.4 8.4,-3.7 1.6,1.1 0.9,3.5 -9.3,29.9 -10.8,28.1 -12.4,33.8 -9.6,33.8 1.6,0 12.7,-7.3 14.6,-9.5 1.5,-1.9 4,-2 4,-0.2 0,2.3 -12.2,13.2 -17.7,16.1 -7.9,4 -14.3,3.2 -14.3,-1.6 0,-1 1.4,-5.7 3,-10.5 1.7,-4.7 3,-9.1 3,-9.6 0,-0.6 -1.7,0.9 -3.7,3.3 -5.1,5.9 -17.7,15.8 -23.8,18.6 -6.4,3 -10.8,3.1 -13.5,0.2 z m 19.5,-8.9 c 11.6,-7.3 23.2,-21.2 29.1,-34.7 4.1,-9.3 4.1,-10.5 0.8,-13.1 -5.5,-4.4 -12.3,-1.7 -21.1,8.3 -9.4,10.7 -19.2,35.2 -16.3,40.7 1.4,2.5 1.8,2.4 7.5,-1.2 z"
       id="path46" />
    <path
       d="m 911.5,492.8 c -0.3,-0.8 4,-13.9 9.5,-29.2 5.6,-15.3 9.9,-28.5 9.6,-29.2 -1.1,-2.9 -7.6,-0.5 -13.4,4.9 -2.5,2.4 -3.5,2.8 -4.4,1.9 -1.5,-1.5 2.8,-7.1 9,-11.9 7.9,-6 20.2,-6.6 20.2,-1.1 0,1.3 -2.5,8.8 -5.5,16.7 -3.1,7.9 -5.4,14.6 -5.1,14.8 0.2,0.2 2.6,-2.9 5.2,-6.9 11.5,-17.4 27.5,-29.9 35.9,-28.4 7.9,1.5 8.3,8.8 1.6,25.2 -2.2,5.4 -3.9,10 -3.7,10.2 0.2,0.2 3.1,-3.7 6.5,-8.6 11.8,-17.2 23,-26.5 32.2,-26.6 6.7,-0.1 9.4,2.6 9.3,9.2 -0.2,5.7 -1.5,9.8 -11,32.1 -4.1,9.6 -7.1,17.8 -6.6,18.3 1,1 5.8,-1.5 11.4,-6.3 2.6,-2.1 5.1,-3.9 5.7,-3.9 4.6,0 -7.2,13 -15.2,16.9 -8.7,4.2 -15.7,3.8 -15.7,-0.8 0,-1 4.2,-12.1 9.4,-24.7 10.8,-26.4 12.1,-30.5 10.6,-33.4 -1.3,-2.4 -1.2,-2.4 -5.8,-0.1 -8.5,4.4 -21.5,21.3 -37.2,48.5 -6.9,11.9 -7.9,13.1 -10.7,13.4 -2,0.2 -3.2,-0.2 -3.6,-1.2 -0.4,-0.9 3.5,-12.3 8.4,-25.3 11.3,-29.6 12.6,-34 10.6,-36 -2.3,-2.3 -8.1,1.3 -16.9,10.5 -9.2,9.7 -14.7,17.6 -25.3,37.1 -7.6,13.7 -8.3,14.6 -11.3,14.9 -2,0.2 -3.4,-0.2 -3.7,-1 z"
       id="path48" />
    <path
       d="m 1034.7,492 c -11.5,-9.1 -4.9,-37 12.9,-54.5 14.2,-14.1 30.6,-17.3 35,-7 4.2,10.2 -7.2,21 -30.5,28.6 -4.6,1.4 -8.8,3.3 -9.2,4.2 -0.5,0.8 -1.2,4.6 -1.5,8.4 -0.5,5.4 -0.3,7.6 1,10.1 3,5.8 10,5.5 18.4,-0.8 5.8,-4.4 7.2,-4.9 7.2,-2.3 0,2.5 -8.6,10.2 -14.4,12.9 -6.7,3.1 -15.2,3.3 -18.9,0.4 z m 20,-38.9 c 13.4,-6.4 23.6,-20.8 16.6,-23.5 -2.7,-1.1 -10.1,3.3 -14.8,8.7 -3.8,4.4 -10.5,15.2 -10.5,17.1 0,1.2 2.7,0.5 8.7,-2.3 z"
       id="path50" />
    <path
       d="m 1082,491.2 c -3.5,-3.6 -3.9,-7.3 -1,-10.2 2.3,-2.3 3.6,-2.5 4.6,-0.9 1.1,1.8 9.7,6.9 11.7,6.9 1,0 3.2,-1.3 4.8,-2.9 4.4,-4.5 3.9,-8.1 -2.7,-21.2 -6.8,-13.2 -7.4,-17.9 -3.1,-25.2 3.3,-5.5 10.5,-11.3 16,-12.8 7.1,-1.9 13.2,2.5 12.5,9.2 -0.2,1.7 -1.1,3.7 -2,4.3 -1.4,0.8 -2.4,0.4 -5.1,-2.2 -4.3,-4.1 -9.3,-5.1 -12.6,-2.5 -4,3.2 -3.1,8.5 3.4,21 5.5,10.5 5.7,11 5.3,17.5 -0.3,5.5 -0.9,7.4 -3.5,11 -4.6,6.5 -11.1,10.1 -18.9,10.6 -6,0.4 -6.5,0.3 -9.4,-2.6 z"
       id="path52" />
    <path
       d="m 93.8,491.9 c -2.3,-1.5 0.2,-3.6 4.6,-4.1 5.4,-0.6 7.1,-1.8 9.7,-6.9 2.2,-4.5 26.6,-81.2 27.5,-86.7 0.7,-4.5 -0.4,-5.7 -6.7,-7.5 -2.6,-0.8 -4.4,-1.9 -4.4,-2.7 0,-1.3 3.4,-1.5 20.8,-1.8 19.5,-0.2 20.7,-0.1 20.7,1.6 0,1.5 -1.2,2.1 -6.1,3 -6.7,1.2 -8.3,2.2 -10.4,6.3 -2.3,4.4 -25.6,80 -26.2,85 -0.5,4.3 -0.3,4.8 2.3,6.5 2.4,1.6 4.9,1.9 16.9,1.9 13.3,0 14.3,-0.1 19.7,-2.8 4.3,-2.1 7,-4.4 10.3,-8.7 3,-3.9 5.1,-5.7 6,-5.4 0.8,0.4 1.5,0.9 1.5,1.3 0,0.3 -2.4,5.3 -5.3,11 l -5.2,10.4 -37.3,0.1 c -20.6,0.1 -37.9,-0.2 -38.4,-0.5 z"
       id="path54" />
    <path
       d="m 1108.5,397.8 c -0.3,-0.7 -0.6,-4.4 -0.7,-8.3 -0.2,-5.4 -0.7,-7 -1.8,-7.1 -0.8,-0.1 -2.1,-0.2 -2.7,-0.3 -0.7,0 -1.3,-0.5 -1.3,-1.1 0,-1.2 14.7,-1.3 15.4,-0.1 0.7,1 -2.2,2.4 -3.4,1.6 -1.6,-1 -2.4,1.8 -2.1,7.2 0.1,2.9 0,6.2 -0.4,7.3 -0.7,2.2 -2.3,2.7 -3,0.8 z"
       id="path56" />
    <path
       d="m 1120,389.5 c 0,-9.4 0.1,-9.6 2.2,-9.3 1.8,0.2 2.8,1.6 4.3,6 1.1,3.1 2.3,5.9 2.7,6.3 0.3,0.3 1.6,-2.3 2.8,-5.9 1.9,-5.7 2.5,-6.6 4.6,-6.6 2.5,0 2.5,0 2.2,9.3 -0.3,10.5 -2,12.1 -2.8,2.5 l -0.5,-6.3 -2.5,6.4 c -1.4,3.6 -3,6.6 -3.6,6.8 -0.6,0.2 -2.1,-2.4 -3.4,-5.7 -1.2,-3.3 -2.5,-6.2 -2.9,-6.4 -0.3,-0.2 -0.6,2.3 -0.6,5.6 0,4 -0.4,6.3 -1.2,6.5 -1,0.4 -1.3,-1.9 -1.3,-9.2 z"
       id="path58" />
  </g>
</svg>
