<?xml version="1.0" encoding="utf-8"?>
<!DOCTYPE svg PUBLIC "-//W3C//DTD SVG 20010904//EN" "http://www.w3.org/TR/2001/REC-SVG-20010904/DTD/svg10.dtd">
<svg version="1.0" xmlns="http://www.w3.org/2000/svg" width="4712px" height="476px" viewBox="0 0 4712 476" preserveAspectRatio="xMidYMid meet">
 <g fill="#010101">
  <path d="M2212.5 472.9 c-4.9 -0.4 -11.6 -1.3 -15 -1.9 -3.3 -0.6 -13 -2.2 -21.5 -3.6 -8.5 -1.5 -15.9 -2.8 -16.3 -3.1 -0.5 -0.3 -7.5 -2.3 -15.5 -4.5 -24.8 -6.6 -27.4 -7.4 -37.7 -11.5 -28.7 -11.5 -53.2 -24.7 -74.2 -39.9 l-6.3 -4.6 0 20.6 c0 22.8 -0.3 24.1 -6.4 27.3 -2.8 1.5 -22.8 1.6 -228.6 1.4 -143 -0.2 -226.2 -0.6 -227.5 -1.2 -1.1 -0.6 -21.2 -20.4 -44.7 -44.2 l-42.7 -43.2 -0.1 41.6 c0 40.6 -0.1 41.7 -2.1 44.3 l-2 2.6 -225.8 0 -225.7 0 -2.6 -2.7 c-1.4 -1.6 -2.8 -4.1 -3.2 -5.8 -0.4 -1.6 -1.5 -5.2 -2.5 -8 -1 -2.7 -3.8 -11.1 -6.1 -18.5 -6.3 -20 -14 -43.8 -16 -49.5 -1 -2.7 -3.6 -10.8 -5.9 -18 -6.7 -21.2 -8.5 -26.5 -9.2 -26.5 -0.5 0 -20.5 58.2 -24.4 71 -0.7 2.5 -5 15.3 -9.5 28.5 -7 20.6 -8.6 24.4 -11.3 26.8 l-3.1 2.7 -221.2 0 -221.1 0 -2.5 -2.4 c-2.5 -2.6 -2.6 -3.1 -6.3 -32.1 -0.9 -6.6 -2 -14.7 -2.5 -18 -1 -6.7 -2.5 -17.7 -4.1 -30.5 -2 -16.4 -2.7 -21.2 -3.2 -21.7 -0.5 -0.4 -5.5 2.4 -12.2 6.7 -1.2 0.8 -8.9 5.6 -17 10.5 -8.1 5 -15.2 9.5 -15.8 10 -0.7 0.6 -7 4.6 -14.2 8.9 -7.1 4.4 -13.2 8.2 -13.5 8.5 -2.4 2.8 -9.1 5.3 -12.6 4.8 -1.8 -0.3 -20.9 -11.7 -43 -25.6 -21.9 -13.7 -40 -24.8 -40.2 -24.7 -0.1 0.2 -1 5.9 -1.8 12.7 -1.8 14.4 -2.8 22.2 -4.4 33.4 -0.6 4.4 -1.7 13 -2.5 19 -4 32.3 -4.9 36.6 -7.5 38.7 -2.1 1.7 -8.6 1.8 -138.2 1.8 -91.3 0 -136.6 -0.3 -137.9 -1 -1.9 -1.1 -5.2 -6.4 -4.4 -7.2 0.3 -0.2 1.2 -6.3 2 -13.4 0.8 -7.1 1.9 -16 2.5 -19.9 0.6 -3.8 1.7 -12.4 2.5 -19 0.8 -6.6 1.9 -14.9 2.4 -18.5 0.5 -3.6 2.1 -15.5 3.6 -26.5 1.4 -11 3.1 -23.1 3.6 -27 0.5 -3.8 1.6 -12.2 2.4 -18.5 0.8 -6.3 2 -14.9 2.5 -19 0.6 -4.1 1.7 -12.7 2.5 -19 0.8 -6.3 2 -14.9 2.5 -19 0.6 -4.1 1.7 -12.7 2.5 -19 0.8 -6.3 1.9 -14.6 2.5 -18.5 0.6 -3.8 1.4 -10.4 1.9 -14.5 0.6 -4.1 1.7 -12.9 2.6 -19.5 1.7 -12.4 2.3 -16.5 5 -37.5 0.9 -6.9 2 -15.4 2.5 -19 0.5 -3.6 1.6 -11.9 2.4 -18.5 0.9 -6.6 2.1 -15.4 2.6 -19.5 1.1 -7.3 3.2 -24.1 5 -38.7 0.5 -3.9 1.4 -9 2 -11.2 2 -7.7 -6.9 -7.2 122.3 -6.9 l115.4 0.3 5.4 3.6 c3 2 8.2 5.8 11.5 8.5 3.4 2.7 7.7 6.1 9.5 7.5 1.9 1.5 11.3 8.8 20.9 16.4 9.6 7.5 19 14.8 20.9 16.3 19 14.9 19.3 15.1 21.1 14.2 1 -0.6 2.4 -1.6 3.2 -2.3 0.7 -0.7 3.1 -2.6 5.3 -4.2 2.2 -1.7 4.2 -3.2 4.5 -3.5 0.3 -0.3 3.7 -3 7.5 -6 10.8 -8.4 31.2 -24.5 38.5 -30.3 15.6 -12.5 24.2 -18.7 27.5 -19.6 2.8 -0.8 38 -1.1 117.7 -1.1 l113.8 0 3.1 2.8 c2.9 2.6 3.2 3.4 4.5 14.2 0.8 6.3 1.8 14.7 2.4 18.5 0.6 3.9 1.7 12.4 2.6 19 0.8 6.6 1.9 14.9 2.4 18.5 0.5 3.6 1.6 11.9 2.4 18.5 0.9 6.6 2 15.2 2.6 19 0.6 3.9 1.7 12.2 2.5 18.5 0.8 6.3 1.9 14.9 2.5 19 0.6 4.1 1.3 10.1 1.7 13.2 0.3 3.2 0.9 5.8 1.3 5.8 0.4 0 4.6 -11.6 9.4 -25.8 41.5 -124.2 45.4 -135.5 48 -138.1 l2.6 -2.6 185.2 0 185.1 0 2.4 3 c2.4 2.9 4.2 8 20.4 56 4.5 13.2 8.7 25.1 9.5 26.5 1.1 2.1 1.3 -3.7 1.4 -39.7 l0 -42.2 2.7 -2.1 2.7 -2.1 198.6 0.4 c127.5 0.3 202.6 0.9 210 1.6 11.7 1 20.9 2.1 36 4.1 9.1 1.1 30.9 5.3 37.5 7.2 8.4 2.3 10.2 2.8 15.5 4.4 10.2 3 24.3 8.7 35.7 14.5 l11.3 5.7 0 -16.8 0 -16.9 2.6 -2 2.7 -2.1 135.7 0 135.7 0 2.7 2.5 2.6 2.4 0 23.2 c0 22.5 0.1 23.1 1.9 21.8 1 -0.8 5.9 -4.2 10.7 -7.6 4.9 -3.4 9.4 -6.6 10 -7 2.6 -2 5 -3.4 6.7 -3.9 0.9 -0.4 1.7 -1 1.7 -1.4 0 -0.4 0.8 -1 1.8 -1.3 0.9 -0.3 4.2 -2 7.1 -3.7 13.6 -7.8 27.4 -14.2 45.6 -21 7.3 -2.7 14 -5 14.7 -5 0.8 0 1.8 -0.4 2.4 -0.9 0.5 -0.5 5.9 -2.1 11.9 -3.6 6.1 -1.4 11.7 -2.9 12.5 -3.2 5.9 -2.3 26.4 -5.8 56 -9.5 10.9 -1.3 66 -1.4 76.5 0 27.5 3.6 40.3 5.8 58.5 10.3 11.3 2.8 20.9 5.5 21.4 6 0.6 0.5 1.7 0.9 2.5 0.9 1.8 0 21.5 7.2 28.9 10.6 2.9 1.3 5.5 2.4 5.8 2.4 0.7 0 21.6 10.5 28.4 14.3 20.4 11.3 42.1 27.8 59.9 45.4 7.9 7.9 14.5 14.3 14.7 14.3 0.2 0 0.4 -18.4 0.4 -40.9 l0 -41 2.6 -2 2.7 -2.1 135.3 0 135.3 0 2.8 2.4 2.8 2.4 0.3 31.6 c0.2 17.4 0.5 31.6 0.8 31.6 0.4 0 15.1 -14.5 32.8 -32.1 21 -21.1 33.5 -32.8 36.1 -34 3.9 -1.8 15.1 -1.9 337.3 -1.9 289.4 0 333.7 0.2 336.1 1.5 3.6 1.8 4.6 4.3 16.1 38.5 5.1 15.1 10.5 31.1 12.1 35.5 l2.8 8 0 -38 c0.1 -35.9 0.2 -38.2 2.1 -41.2 1.1 -1.8 3 -3.5 4.3 -3.8 4.3 -1.1 396.4 0.2 408.7 1.4 47.6 4.3 77 10.4 108.3 22.4 l6.7 2.6 0 -10.5 c0 -10.3 0.1 -10.6 2.9 -13.5 l2.9 -2.9 306 0 c295.1 0 305.9 0.1 307.5 1.8 1.6 1.7 1.7 9.8 1.7 96.6 l0 94.7 -3.2 3 -3.2 2.9 -79.1 0 c-43.4 0 -79.5 0.4 -80.2 0.8 -0.9 0.6 -1.3 26.3 -1.3 112.7 l-0.2 111.9 -2.1 3.1 c-1.2 1.6 -2.5 3.3 -3 3.6 -0.6 0.4 -136.2 0.6 -301.6 0.5 -281.6 -0.1 -300.8 -0.2 -303.7 -1.8 -1.7 -1 -22 -20.4 -45 -43.3 -23.1 -22.8 -42.2 -41.5 -42.6 -41.5 -0.5 0 -0.8 18.2 -0.8 40.4 0 39.3 -0.1 40.4 -2.1 43 l-2 2.6 -224.5 0 c-194.6 0 -224.9 -0.2 -227.3 -1.5 -3.3 -1.6 -4.9 -5.3 -11.1 -25.5 -2.3 -7.4 -5 -15.7 -6 -18.5 -1 -2.7 -3.7 -11.1 -6 -18.5 -2.3 -7.4 -5.7 -18 -7.5 -23.5 -1.8 -5.5 -5.9 -18 -9 -27.7 -3.2 -9.8 -5.8 -17.8 -6 -17.8 -0.1 0 -4 11.4 -8.5 25.3 -4.5 13.8 -9 27.5 -10 30.2 -1 2.8 -6.7 19.9 -12.6 38 -9.3 28.3 -11.3 33.5 -14 36.3 l-3.2 3.2 -219.5 0 c-189.4 0 -219.9 -0.2 -222.3 -1.4 -1.6 -0.8 -17.2 -16 -34.6 -33.8 l-31.7 -32.3 -0.1 30.2 0 30.2 -3.4 3.4 c-1.9 1.9 -4.7 3.6 -6.3 3.8 -1.5 0.2 -62.2 0.3 -134.7 0.1 l-132 -0.4 -3.3 -3.3 -3.3 -3.3 0 -38.1 c0 -21 -0.2 -38.1 -0.5 -38.1 -0.3 0 -5.6 5.1 -11.8 11.3 -12.7 12.7 -14.8 14.6 -26.7 23.8 -19.1 14.6 -43.2 28.8 -64.9 38.1 -2.5 1 -5.9 2.5 -7.6 3.3 -6.9 3.1 -19.8 7.5 -21.8 7.5 -1.2 0 -3.5 0.7 -5 1.5 -1.6 0.8 -9 3 -16.5 4.9 -7.5 2 -15.3 4 -17.2 4.5 -1.9 0.5 -9.6 1.9 -17 3 -7.4 1.2 -16.2 2.6 -19.5 3.2 -15.1 2.7 -62.2 3.8 -84 1.8z m210.5 -47.7 c6.9 -3.4 17 -9.1 22.5 -12.8 9.6 -6.4 26.5 -19.1 26.5 -19.9 0 -0.2 -5.3 3.4 -11.7 8.1 -6.5 4.6 -12.4 8.4 -13 8.4 -0.7 0 -1.3 0.4 -1.3 0.8 0 0.5 -1.7 1.7 -3.7 2.8 -2.1 1 -4.7 2.7 -5.8 3.7 -1.1 1 -3.2 2.1 -4.7 2.4 -1.6 0.3 -2.8 0.9 -2.8 1.4 0 0.5 -0.5 0.9 -1.1 0.9 -0.6 0 -1.7 0.7 -2.5 1.5 -0.9 0.8 -2.4 1.5 -3.5 1.5 -1 0 -1.9 0.5 -1.9 1 0 0.6 -1.3 1 -3 1 -2 0 -3 0.5 -3 1.5 0 0.8 -0.9 1.5 -2 1.5 -1.1 0 -2 0.5 -2 1 0 0.6 -0.9 1 -2 1 -1.1 0 -2 0.4 -2 1 0 1.2 1.7 0.5 17 -6.8z m1837.2 -14.4 c0 -9 0.2 -18.8 0.3 -21.8 0.4 -11 0.4 -23.8 -0.1 -95.8 l-0.5 -73.2 -41.5 0.2 -41.6 0.3 -3.2 8 c-1.8 4.4 -4.1 9.8 -5.1 12 -1.9 4 -11.1 20 -12.7 22 -0.4 0.5 -4.1 5.3 -8.1 10.5 -4 5.2 -10.3 12.7 -14 16.5 l-6.6 7 50.2 50.3 c27.6 27.7 53.1 53.2 56.7 56.7 15.1 14.7 24.5 23.4 25.3 23.5 0.4 0 0.8 -7.3 0.9 -16.2z m-1979.7 1.1 c69.9 -7.8 129 -33.9 168.2 -74.2 22.2 -22.8 35.1 -46.1 41.5 -74.8 3.3 -14.9 3.2 -37.3 -0.1 -50.9 -10.3 -41.7 -37.7 -77.7 -79.6 -104.5 -46.5 -29.7 -104 -45.7 -164.6 -45.7 -66.3 0 -130 19.9 -177.5 55.2 -12.8 9.5 -33.2 30 -41.2 41.5 -11.8 16.7 -18.9 31.8 -23.7 50.1 -3.7 13.7 -4.5 34.2 -2 48.1 5.6 31.3 20.3 58 46.3 83.9 23.8 23.7 56.3 42.9 94.7 56.1 24.7 8.4 59.4 15 88 16.7 9.3 0.6 40 -0.3 50 -1.5z m-2049.7 -22.4 c0.1 -1.6 1.3 -11.1 2.7 -21 1.3 -9.9 3.2 -24.1 4 -31.5 0.9 -7.4 2 -16.6 2.5 -20.5 0.6 -3.8 2.6 -19.6 4.5 -35 4.7 -37.2 4.1 -34.5 7.7 -34.5 2.9 0 11.3 5 36.8 22 9.5 6.4 49.4 31.7 84.5 53.7 l8 5 13.3 -8.1 c11.2 -6.9 56.2 -35 83.2 -52.1 4.3 -2.7 10.3 -6.7 13.2 -8.7 16.6 -11.5 17 -11.8 20.9 -11.8 l3.9 0 0 5.3 c0 2.8 0.9 12.2 2.1 20.7 1.1 8.5 2.6 20.5 3.4 26.5 2 15.6 4 30.5 8.5 63 1.1 8.3 2.2 17 2.5 19.5 0.4 2.5 0.9 6 1.2 7.8 l0.5 3.2 80 0 79.9 0 -0.5 -3.2 c-0.3 -1.8 -0.8 -6.2 -1.1 -9.8 -0.3 -3.6 -1.9 -16.2 -3.6 -28 -1.6 -11.8 -3.6 -26.7 -4.5 -33 -0.8 -6.3 -1.9 -14.4 -2.4 -18 -0.8 -5.4 -3.8 -27.7 -9 -67.7 -0.6 -4 -1.4 -10.6 -2 -14.5 -10.1 -75.8 -10.5 -78.7 -13 -98.3 -1.1 -8.8 -2.4 -18.2 -2.9 -21 -0.6 -2.7 -1.3 -7.6 -1.6 -10.8 l-0.6 -5.7 -79.6 0 c-91.8 0 -81.2 -1.2 -97 11.4 -24.2 19.3 -64 51.3 -65.8 52.8 -14.1 12.1 -26.2 20.8 -28.8 20.8 -2.3 0 -13.2 -8.2 -53.8 -40.7 -28 -22.5 -52.6 -41.6 -54.6 -42.5 -3.5 -1.6 -10.2 -1.7 -83 -1.8 -47.8 0 -79.4 0.4 -79.8 0.9 -0.3 0.5 -1 4.3 -1.5 8.3 -0.5 4 -2.1 15.9 -3.5 26.3 -1.4 10.5 -3.2 24 -4 30 -0.8 6.1 -1.9 14.4 -2.4 18.5 -2.6 19.5 -13.5 101.4 -15.2 113.8 -0.5 3.9 -1.4 10.7 -1.9 15 -0.6 4.2 -1.7 12.7 -2.5 18.7 -0.8 6.1 -1.9 14.4 -2.4 18.5 -0.6 4.1 -1.9 14.5 -3 23 -3 22.8 -4.1 31.2 -4.6 34.3 l-0.5 2.7 80.8 -0.2 80.7 -0.3 0.3 -3z m648.7 1.7 c3.7 -1.6 8.2 -5.8 10 -9.3 1.4 -2.6 12 -34.1 26.6 -79.2 11.1 -34.5 36.3 -110.9 46.5 -141.1 4.6 -13.7 8.4 -25.1 8.4 -25.3 0 -0.1 1.5 -0.3 3.3 -0.3 l3.2 0 28.8 86.3 c39.7 118.8 53.2 158.2 55.4 161.9 2.6 4.5 6 6.7 12.3 7.8 3.5 0.6 31.9 0.9 76.8 0.8 l71.2 -0.3 -33.5 -100 c-34.1 -101.7 -59.6 -178.5 -65.5 -197.5 -1.8 -5.8 -3.5 -10.8 -3.9 -11.3 -0.7 -0.7 -287.8 -1.3 -288.6 -0.5 -0.4 0.4 -92.8 277.4 -100.5 301.1 l-2.8 8.8 74.6 -0.3 c59 -0.2 75.3 -0.6 77.7 -1.6z m535 -115.2 l0 -116.5 49.5 -0.3 c52.7 -0.3 57.5 0 66.2 4.4 10.4 5.3 19.8 18 23.3 31.4 2.5 9.6 1.7 23.7 -1.8 31.3 -4.6 10.2 -17.1 21.4 -32.4 29.1 -11.3 5.7 -25.9 11.1 -37.2 14 -5.8 1.4 -10.6 2.8 -10.8 2.9 -0.2 0.2 25.8 26.2 57.8 57.8 38.5 38.1 59.6 58.2 62.7 59.9 l4.6 2.5 85 0.3 84.9 0.2 -10.2 -10.5 c-17.7 -18.5 -86.2 -85.9 -88.7 -87.5 -3.3 -2 -3.5 -8 -0.3 -8 4 0 24.7 -14.1 39.1 -26.7 25.6 -22.3 41.3 -47.4 45.4 -72.5 1.3 -8.2 1.3 -9.4 -0.6 -18.8 -4.3 -20.9 -11.5 -33.6 -26.9 -46.7 -23.3 -19.9 -56.7 -30.8 -113.5 -37 -14.7 -1.7 -30.6 -1.8 -186.6 -1.8 l-170.5 0 -0.3 52.5 c-0.2 28.9 0 98.5 0.4 154.8 l0.6 102.2 80.2 -0.2 80.1 -0.3 0 -116.5z m550 -37.8 c0 -84.9 -0.3 -154.6 -0.7 -154.8 -1 -0.7 -158.8 -0.5 -159.8 0.1 -1.2 0.7 -1.3 142.3 -0.3 242.8 l0.6 66.7 80.1 -0.2 80.1 -0.3 0 -154.3z m761.8 143.1 c0.4 -6.5 0.4 -40.7 0 -76 l-0.6 -64.3 3 0 c2.6 0 5.2 2.2 17.9 15.3 50.1 51.3 130.4 130.8 134.9 133.3 l5 2.9 85.5 0.3 85.5 0.2 -76.7 -76.7 c-70.7 -70.6 -76.8 -77 -76.8 -80 0 -1.8 0.5 -3.3 1.1 -3.3 1.1 0 15.1 -13.7 98.3 -96.2 l54.1 -53.7 -85.8 -0.1 c-84.7 0 -85.8 0 -90 2.1 -5.5 2.6 -145.6 142.9 -147.6 147.7 -1.2 2.7 -1.8 3.2 -4.8 3.2 l-3.5 0 0.4 -76.2 0.3 -76.3 -80.5 0 -80.5 0 -0.3 95.5 c-0.2 52.5 0 122.2 0.4 154.8 l0.6 59.2 79.8 0 79.7 0 0.6 -11.7z m525.4 9.4 c1.8 -0.9 4.4 -3.7 5.8 -6.1 2.4 -4 11.6 -30.4 23.4 -67.1 2.8 -8.8 17.4 -53 32.3 -98.3 l27.2 -82.2 3.6 0 3.7 0 40.4 121.2 c29 87.1 41.2 122.5 43.4 125.7 1.7 2.5 4.8 5.4 7 6.5 3.9 2.1 5.4 2.1 78.3 2.4 40.8 0.1 74.2 0 74.2 -0.4 0 -0.4 -21.1 -64.2 -46.9 -141.8 -25.8 -77.6 -48.6 -146.5 -50.6 -153.1 -2.1 -6.6 -4.2 -12.6 -4.7 -13.3 -0.8 -0.9 -30.9 -1.2 -144.4 -1.2 l-143.4 0 -1.4 2.3 c-1.2 1.9 -102.6 305.4 -102.6 307.1 0 0.4 34.1 0.5 75.8 0.4 70 -0.3 75.9 -0.4 78.9 -2.1z m532.4 -114.9 l-0.3 -116.8 47.4 0 c26 0.1 50.4 0.5 54.2 0.9 15.9 2.1 29.2 13.2 35.7 30 3.1 7.7 3.8 24.3 1.5 32.2 -3.1 10.6 -9.7 18.1 -24 27.6 -12.4 8.2 -37.9 18.3 -55.3 21.8 -3.2 0.6 -3 0.9 56 59.7 32.6 32.4 60.4 59.6 61.9 60.4 2.3 1.2 16 1.4 88.4 1.2 l85.8 -0.3 -43 -43 c-40.3 -40.4 -56.2 -55.5 -58.4 -55.5 -0.6 0 -1 -1.6 -1 -3.5 0 -2.8 0.4 -3.5 1.9 -3.5 8.1 0 44.9 -27.1 54.6 -40.2 0.6 -0.8 3.3 -4.1 6.1 -7.3 10.9 -12.8 17.7 -24.4 22.6 -38.6 3 -8.6 3.2 -10.4 3.2 -21.4 0 -13.2 -1.2 -18.7 -6.9 -31 -14.4 -31.2 -53.3 -52.2 -112.5 -60.5 -31.4 -4.5 -24.4 -4.3 -205.7 -4.7 l-172.3 -0.4 0 155.1 0 155 80.2 -0.2 80.2 -0.3 -0.3 -116.7z m698.1 19.7 c-0.2 -53.3 0 -105.7 0.3 -116.3 l0.7 -19.4 83.7 0.3 83.6 0.3 0.6 -11 c0.4 -6 0.7 -23.4 0.8 -38.7 l0.1 -27.7 -249.7 0.2 -249.8 0.3 -0.3 36.5 c-0.1 20.1 0 37.4 0.2 38.5 0.5 2 1.2 2 82.6 1.7 56.5 -0.2 82.6 0.1 84 0.8 2 1.1 2 2.4 2 115.9 0 63.1 0.3 115.1 0.7 115.4 0.3 0.4 36.7 0.6 80.7 0.5 l80.1 -0.3 -0.3 -97z m-1387.3 -92.4 c18.8 -56.3 34 -102.8 33.9 -103.3 -0.2 -0.5 -31.6 30.4 -69.8 68.7 l-69.4 69.6 34.9 34.9 c22.4 22.4 35.2 34.5 35.6 33.7 0.4 -0.6 16.1 -47.3 34.8 -103.6z m-2338.6 -71.1 c4.9 -12.2 16.9 -43.4 21.7 -56.5 2.6 -7.1 7.2 -19.4 10.1 -27.3 l5.2 -14.2 173.1 -0.2 173.1 -0.3 -172.4 -0.2 -172.5 -0.3 -2.4 -2.3 c-2.3 -2.1 -2.4 -2.1 -3.7 -0.4 -1.2 1.7 -37.5 109.3 -37.5 111.3 0 1.7 2.7 -3.2 5.3 -9.6z m-701.9 -32 c0.8 -3 3.8 -17.9 6.7 -33 2.8 -15.1 5.6 -28.6 6.3 -30 l1.1 -2.5 35.5 -0.5 35.5 -0.5 -32.9 -0.3 -32.9 -0.2 -4.9 -3.1 c-4.6 -3 -5 -3.1 -6.8 -1.4 -2.1 1.9 -2.8 5.9 -6.1 33 -4.3 36.6 -4.8 40.4 -5.4 44.2 -0.7 3.6 -0.6 3.7 0.8 1.8 0.8 -1.2 2.2 -4.5 3.1 -7.5z m2770.6 -33.1 c12.9 -12.4 26.1 -24.9 29.3 -27.7 l5.7 -5.2 51.3 -0.2 51.2 -0.3 -49.5 -0.5 c-47.3 -0.5 -49.6 -0.6 -52.7 -2.5 l-3.3 -2 -33.9 33.9 c-25.1 25.1 -34.3 34.9 -35.5 37.9 l-1.6 4 7.8 -7.4 c4.2 -4.1 18.3 -17.6 31.2 -30z m-2425.7 22.8 c38.8 -30.4 67.5 -52.4 71.1 -54.4 1.5 -0.9 10.4 -1.3 31.6 -1.5 l29.5 -0.2 -28.2 -0.6 c-27.1 -0.5 -28.2 -0.6 -31.1 -2.7 l-3.1 -2.3 -4.9 3.8 c-2.7 2 -21.6 17 -42 33.2 -32.4 25.8 -37.1 29.8 -37.2 32.3 0 1.5 0.3 2.7 0.6 2.7 0.3 0 6.5 -4.6 13.7 -10.3z m1636.8 -12.2 c20.5 -14.9 40.8 -26 66.8 -36.7 16.8 -6.9 25.7 -9.7 41.4 -13.2 21.4 -4.8 21.6 -4.8 99.2 -4.8 l74 -0.1 -9 -1.8 c-11.6 -2.3 -29.6 -4.6 -46 -5.9 -7.1 -0.5 -20.9 -1.6 -30.7 -2.5 -36.5 -3.1 -50.1 -2 -83.4 6.5 -40.3 10.2 -81.1 29.2 -111.5 51.7 -6.5 4.8 -9.1 7.5 -10.8 11 -2.1 4.3 -2.1 4.5 -0.3 3.2 1.1 -0.8 5.7 -4.1 10.3 -7.4z m476.3 -1.7 c0.3 -2.4 1.3 -12.1 2.1 -21.7 0.8 -9.6 2 -18 2.6 -18.8 0.9 -1 12 -1.3 58.3 -1.5 l57.1 -0.3 -55.5 -0.5 -55.5 -0.5 -3.9 -2.7 c-8.1 -5.8 -8.6 -4.7 -8.6 21.1 0 21.4 0.6 29.1 2 29.1 0.4 0 1 -1.9 1.4 -4.2z m1058 -1.6 c0.4 -2.6 1.3 -12.1 2.1 -21.2 1.1 -13.4 1.7 -16.7 3.1 -17.7 1.3 -0.9 7.8 -1.4 23.3 -1.5 l21.6 -0.3 -19.2 -0.2 -19.3 -0.3 -5 -3 c-6.2 -3.7 -8.5 -3.8 -10.6 -0.4 -1.5 2.2 -1.6 5 -1.1 24.2 0.3 14.1 0.9 21.8 1.6 22 0.6 0.2 1.1 1.3 1.1 2.3 0 3.8 1.8 0.9 2.4 -3.9z m-2369.9 2.6 c0.4 -2 3.5 -36 3.5 -38.7 0 -0.5 0.7 -1.7 1.6 -2.5 1.3 -1.4 5.3 -1.6 26.2 -1.8 l24.7 -0.3 -22.3 -0.2 -22.4 -0.3 -4.3 -3 c-2.4 -1.7 -5.2 -3 -6.2 -3 -4 0 -4.3 1.5 -4.3 24.9 0 22.3 0.4 27.1 2.1 27.1 0.5 0 1.1 -1 1.4 -2.2z m552.5 -24.2 c0.6 -8.2 1.6 -15.8 2.1 -16.8 0.8 -1.5 2.4 -1.8 8.7 -2 l7.7 -0.1 -6.6 -0.6 c-4 -0.4 -7.4 -1.3 -8.5 -2.2 -3.6 -3.2 -6.4 -4.1 -8 -2.8 -1.1 0.9 -1.4 4.3 -1.4 16 0 13.2 0.2 15.3 2.2 19.4 1.2 2.4 2.3 4.4 2.4 4.2 0.1 -0.1 0.7 -6.9 1.4 -15.1z m2351.6 -17.3 c1 -0.7 4.1 -1.3 6.8 -1.4 4.3 -0.1 4.6 -0.2 2.1 -0.8 -1.6 -0.4 -4.9 -2 -7.2 -3.4 -8.2 -5.2 -11.3 -2.6 -11.3 9 0 6.4 0.4 8 3.3 13.1 l3.2 5.7 0.6 -10.4 c0.5 -8.5 1 -10.7 2.5 -11.8z m-3856.3 -2 c-18.9 -0.2 -49.7 -0.2 -68.6 0 -18.8 0.1 -3.4 0.2 34.3 0.2 37.7 0 53.1 -0.1 34.3 -0.2z m402 0 c-20.4 -0.2 -54.2 -0.2 -75 0 -20.8 0.1 -4 0.2 37.2 0.2 41.3 0 58.3 -0.1 37.8 -0.2z m738.5 0 c-22.9 -0.2 -60.7 -0.2 -84 0 -23.3 0.1 -4.5 0.2 41.7 0.2 46.2 0 65.2 -0.1 42.3 -0.2z m499 0 c-20.3 -0.2 -53.3 -0.2 -73.5 0 -20.3 0.1 -3.7 0.2 36.7 0.2 40.4 0 57 -0.1 36.8 -0.2z m844 0 c-16.9 -0.2 -44.8 -0.2 -62 0 -17.2 0.1 -3.4 0.2 30.7 0.2 34.1 0 48.2 -0.1 31.3 -0.2z m589.5 0 c-16.7 -0.2 -43.9 -0.2 -60.5 0 -16.7 0.1 -3.1 0.2 30.2 0.2 33.3 0 46.9 -0.1 30.3 -0.2z m160.5 0 c-16.3 -0.2 -43.3 -0.2 -60 0 -16.7 0.1 -3.3 0.2 29.7 0.2 33 0 46.6 -0.1 30.3 -0.2z m289.5 0 c-25.9 -0.2 -68.7 -0.2 -95 0 -26.3 0.1 -5 0.2 47.2 0.2 52.3 0 73.8 -0.1 47.8 -0.2z m616.5 0 c-41.6 -0.2 -110 -0.2 -152 0 -42 0.1 -7.9 0.2 75.7 0.2 83.6 0 117.9 -0.1 76.3 -0.2z"/>
  <path d="M2229.5 293.4 c-1.1 -0.2 -4.5 -0.9 -7.5 -1.5 -15 -2.9 -27.9 -9.2 -38.2 -18.8 -9.4 -8.6 -14.3 -19.1 -15.5 -32.6 -0.7 -8.9 0.8 -16 5.4 -25.3 13.5 -27.4 60 -41.7 100.9 -31.1 9.4 2.4 22 8.4 28.8 13.6 7.2 5.5 15 15.2 17.7 21.9 3.2 8 3.5 27.1 0.5 34.9 -4.7 12.5 -15.6 23.2 -31.1 30.6 -13.8 6.6 -21.5 8.2 -41.5 8.5 -9.6 0.2 -18.4 0.1 -19.5 -0.2z"/>
 </g>
 <g fill="#e8e8e8">
  <path d="M2223 461.3 c-12 -0.8 -34.8 -3.7 -47.4 -5.9 -40 -7 -76.1 -19.8 -109.6 -38.7 -10.4 -5.9 -26 -16.3 -26 -17.4 0 -0.3 1 0.2 2.3 1.1 21.8 15.4 55.3 31.9 83.8 41.1 60.1 19.4 124.7 23.6 191.8 12.4 56.8 -9.5 111.6 -34.9 155.6 -72.2 l7 -5.9 -6.5 6.2 c-3.6 3.4 -10.2 9.1 -14.7 12.7 -9.3 7.2 -11.1 9.5 -3 3.7 12.6 -9.1 30.7 -24 40.8 -33.6 7.9 -7.4 11.9 -10.9 11.9 -10.3 0 2.7 -6.9 14.3 -11.6 19.5 -19.5 21.6 -46.9 42.3 -71.9 54.4 -23.6 11.3 -39.3 16.7 -49.5 16.8 -3.6 0 -7.1 0.6 -7.9 1.2 -1.2 0.9 -1.3 0.8 -0.7 -0.3 0.5 -0.7 2.4 -2 4.3 -2.8 6.1 -2.5 2.9 -2.5 -4.8 0.1 -26.3 8.7 -58.6 14.8 -93.3 17.6 -11.8 0.9 -39.7 1.1 -50.6 0.3z"/>
  <path d="M4535.3 448 c-4.2 -4.9 -4.2 -6.2 -0.2 -4.8 2.2 0.7 3.4 0.7 4.1 0 1.6 -1.6 2.7 -18 3.2 -44.5 0.3 -12.6 0.7 -23.1 1 -23.5 0.4 -0.3 0.6 15.9 0.6 36 -0.1 30.9 -0.3 36.8 -1.6 38.6 -2.1 3.1 -3.4 2.7 -7.1 -1.8z"/>
  <path d="M924.6 446.7 c-1.5 -1.9 -2.6 -3.9 -2.6 -4.4 0 -0.6 -0.6 -1.1 -1.2 -1 -13.4 0.5 -427.8 -0.5 -427.8 -1 0 -0.5 94.9 -0.7 210.9 -0.5 116 0.1 212.6 -0.1 214.7 -0.6 l3.9 -0.8 4.4 -12.2 c2.4 -6.8 4.5 -12.1 4.7 -11.9 0.2 0.2 -1.4 5.7 -3.6 12.2 -2.2 6.6 -4 12.3 -4 12.8 0 0.4 1 0.7 2.1 0.5 1.6 -0.2 3.5 -2.9 7.3 -10.3 2.8 -5.5 5.4 -10.3 5.9 -10.6 0.5 -0.3 0.8 -0.9 0.8 -1.3 -0.1 -0.3 1 -2.7 2.4 -5.4 1.5 -2.6 2.3 -3.8 2 -2.7 -4.9 15.1 -12.3 36.5 -13.3 38.3 -1.8 3.1 -3.7 2.8 -6.6 -1.1z"/>
  <path d="M2016.1 447.2 c-1.5 -1.5 -3 -3.4 -3.3 -4.2 -0.4 -1.3 -27 -1.6 -222.6 -2 l-222.2 -0.5 -10.2 -10.4 -10.3 -10.5 10.3 9.7 c7.2 6.7 11.3 9.8 13.5 10.2 1.8 0.3 101.6 0.4 221.8 0.3 183.5 -0.3 218.9 -0.5 220.2 -1.7 1.5 -1.2 1.7 -1.1 1.7 0.8 0 1.4 0.9 2.5 2.8 3.2 6.4 2.6 7.3 3.7 4.7 6.3 -2.2 2.2 -3.2 2 -6.4 -1.2z"/>
  <path d="M3294.6 446.9 c-1.4 -1.7 -2.6 -3.7 -2.6 -4.5 0 -1.2 -30.4 -1.4 -215.1 -1.4 -118.3 0 -215.7 -0.3 -216.4 -0.8 -0.8 -0.4 93.7 -0.6 209.8 -0.4 116.2 0.2 213.5 0 216.4 -0.3 5.2 -0.6 5.2 -0.6 7.2 -5.8 2.3 -6.1 2.8 -5 0.6 1.3 -1.9 5.3 -1.9 5 0.4 5 2.4 0 4.1 -2.5 11.1 -16.2 2.9 -5.9 5.6 -10.6 5.8 -10.4 0.7 0.8 -10.3 33.2 -12 35.3 -1.5 1.9 -2.3 1.6 -5.2 -1.8z"/>
  <path d="M1244.5 441 l-217 -0.5 215.8 -0.3 c118.6 -0.1 216 -0.2 216.5 -0.3 0.4 -0.1 1.5 -0.5 2.5 -1 2 -1.1 2.4 0.4 0.5 1.7 -0.8 0.5 -95.5 0.7 -218.3 0.4z"/>
  <path d="M2645.5 441 c-69.8 -0.3 -126.5 -0.6 -126 -0.8 0.6 -0.1 56.8 -0.2 125 -0.2 68.2 0 125.7 -0.4 127.8 -0.9 2 -0.5 3.7 -0.6 3.7 -0.2 0 1 -2.3 3.2 -2.9 2.9 -0.4 -0.2 -57.7 -0.5 -127.6 -0.8z"/>
  <path d="M15 440.3 c0 -0.5 57.8 -0.8 128.4 -0.8 70.6 0 128.2 0.3 127.9 0.8 -0.2 0.4 -58 0.7 -128.4 0.7 -70.3 0 -127.9 -0.3 -127.9 -0.7z"/>
  <path d="M3447 440.3 c131.5 -0.7 386 -0.7 386 0 0 0.4 -98.2 0.6 -218.2 0.5 -120.1 -0.2 -195.6 -0.4 -167.8 -0.5z"/>
  <path d="M3928.6 430.8 l-10.1 -10.2 9.6 9.2 c5.3 5.1 9.8 9.3 10 9.4 0.2 0.2 70.8 0.5 156.9 0.8 l156.5 0.5 -156.4 0.3 -156.4 0.2 -10.1 -10.2z"/>
  <path d="M4274 440.3 c0 -0.5 57.8 -0.8 128.5 -0.8 70.7 0 128.5 0.3 128.5 0.8 0 0.4 -57.8 0.7 -128.5 0.7 -70.7 0 -128.5 -0.3 -128.5 -0.7z"/>
  <path d="M2227.5 416.4 c-55.1 -3.3 -106 -18.8 -147.7 -45.1 -36.6 -23.1 -64.4 -56.1 -75.8 -90.2 -12.3 -36.6 -9 -74.7 9.5 -108.6 14.3 -26.4 41.2 -53.5 70.7 -71.3 46.8 -28.1 101.3 -42.4 161.8 -42.4 44.7 0 82.7 6.9 120.5 21.9 68.2 27 112.7 72.1 126.6 128.3 2 8.2 2.4 12 2.4 28 0 15.8 -0.3 20 -2.3 28.9 -6.5 28.8 -19.3 52 -41.5 74.8 -38.7 39.8 -96.7 65.7 -165.2 73.9 -11.9 1.4 -47.5 2.5 -59 1.8z m44 -128.3 c23 -6.3 40.9 -20.1 47.1 -36.6 2.8 -7.4 2.6 -21.1 -0.5 -28.9 -2.7 -6.7 -10.5 -16.4 -17.7 -21.8 -32.1 -24.4 -85.3 -22.1 -114.5 4.9 -9.4 8.8 -15.8 24.2 -14.3 34.7 1.6 12.1 6.6 21.8 15.2 29.7 10.3 9.6 23.2 15.9 38.2 18.8 3 0.6 6.4 1.3 7.5 1.5 1.1 0.3 8.5 0.4 16.5 0.2 11 -0.2 16.4 -0.8 22.5 -2.5z"/>
  <path d="M66 393.3 c0 -1.6 0.5 -5.9 1 -9.8 0.5 -3.8 2.1 -15.8 3.5 -26.5 1.4 -10.7 3 -22.9 3.6 -27 0.5 -4.1 1.6 -12.4 2.4 -18.5 0.8 -6 1.9 -14.5 2.5 -18.7 0.5 -4.3 1.4 -11.1 1.9 -15 1.7 -12.4 12.6 -94.3 15.2 -113.8 0.5 -4.1 1.6 -12.4 2.4 -18.5 0.8 -6 2.6 -19.5 4 -30 1.4 -10.4 3 -22.3 3.5 -26.3 0.5 -4 1.2 -7.8 1.5 -8.3 0.4 -0.5 33.2 -0.9 82.8 -0.9 78.2 0 82.4 0.1 86.2 1.9 2.2 1 22.9 17.1 46 35.6 23.1 18.5 45.9 36.8 50.6 40.5 l8.7 6.9 11.8 -9.5 c6.6 -5.2 12.8 -10.3 13.9 -11.2 1.8 -1.5 41.6 -33.5 65.8 -52.8 15.8 -12.7 4.7 -11.4 100 -11.4 l82.6 0 0.6 5.7 c0.3 3.2 1 8.1 1.6 10.8 0.5 2.8 1.8 12.2 2.9 21 2.4 18.4 2.6 19.7 8 60.5 5.8 43.9 6 44.8 7 52.5 5.6 43.1 8.2 62.1 9 67.5 0.5 3.6 1.6 11.7 2.4 18 0.9 6.3 2.9 21.2 4.5 33 1.7 11.8 3.5 26.1 4.1 31.8 0.5 5.7 1.3 11.4 1.6 12.8 l0.6 2.4 -83.5 0 -83.5 0 -0.5 -3.2 c-0.3 -1.8 -0.8 -5.3 -1.2 -7.8 -0.3 -2.5 -1.4 -11.2 -2.5 -19.5 -4.5 -32.5 -6.5 -47.4 -8.5 -63 -0.8 -6 -2.3 -18 -3.4 -26.5 -1.2 -8.5 -2.1 -17.9 -2.1 -20.7 0 -2.9 -0.4 -5.3 -0.9 -5.3 -0.8 0 -4.1 2.2 -17.9 11.8 -5.9 4.1 -7.8 5.3 -52.2 33.2 -48.7 30.6 -59.4 37.1 -61.1 36.7 -2 -0.5 -65 -40.2 -96.4 -60.7 -13.2 -8.6 -25.9 -16.9 -28.1 -18.3 l-4.2 -2.6 -0.6 3.2 c-0.3 1.8 -2.1 15.8 -4.1 31.2 -1.9 15.4 -3.9 31.2 -4.5 35 -0.5 3.9 -1.6 13.1 -2.5 20.5 -0.8 7.4 -2.7 21.6 -4 31.5 -1.4 9.9 -2.6 19.4 -2.7 21 l-0.3 3 -83.7 0.3 -83.8 0.2 0 -2.7z"/>
  <path d="M723 394.6 c0 -1.5 103.7 -313.7 104.5 -314.4 0.8 -0.9 293.8 -0.3 294.6 0.5 0.3 0.5 2.1 5.5 3.9 11.3 5.9 19 31.4 95.9 66 198.9 18.7 55.8 34 102.3 34 103.3 0 1.8 -2.7 1.9 -78.2 1.6 -76 -0.3 -78.4 -0.4 -82.2 -2.3 -2.2 -1.1 -4.9 -3.2 -5.9 -4.7 -2.5 -3.4 -10.1 -25.4 -51.7 -149.6 -18.4 -55 -33.6 -99.9 -33.7 -99.8 -0.7 0.6 -37.3 110.9 -55.2 166.3 -14.6 45.1 -25.2 76.6 -26.6 79.2 -1.8 3.5 -6.3 7.7 -10 9.3 -2.4 1 -19.3 1.4 -81.2 1.6 -67.5 0.2 -78.3 0.1 -78.3 -1.2z"/>
  <path d="M1250.8 347.3 c-0.2 -26.9 -0.3 -97.8 -0.3 -157.8 l0 -109 173.5 0 c158.8 0 174.9 0.1 189.6 1.8 37.8 4.1 61.6 9.5 84.6 19.2 16.4 6.9 32.1 18.5 41.3 30.5 11.6 15.1 18 38.5 15.5 56.7 -3.6 25.7 -19.6 51.7 -45.8 74.6 -14.9 12.9 -35.1 26.7 -39.3 26.7 l-2.4 0 2.6 1.8 c2.8 1.8 68.8 66.8 91.8 90.5 l13.4 13.7 -90.9 -0.2 -91 -0.3 -4.6 -2.5 c-3.1 -1.7 -24.7 -22.3 -64.7 -61.9 -33.1 -32.7 -60.1 -59.8 -60.1 -60.3 0 -1 -0.6 -0.8 14 -4.3 18.1 -4.3 39.3 -13.3 51.6 -22.1 13.9 -9.9 21 -20.7 22.1 -33.1 1.3 -16.9 -9.8 -37.2 -24.5 -44.7 -8.6 -4.4 -13.6 -4.7 -63.2 -4.4 l-46.5 0.3 0 116.5 0 116.5 -83.2 0.3 -83.2 0.2 -0.3 -48.7z"/>
  <path d="M1800.8 365.8 c-0.9 -100.7 -0.8 -284.7 0.1 -285.3 1.2 -0.7 164.7 -0.9 165.9 -0.1 0.4 0.2 0.7 71.2 0.7 157.8 l0 157.3 -83.2 0.3 -83.2 0.2 -0.3 -30.2z"/>
  <path d="M2562.8 367.8 c-0.2 -15.6 -0.3 -86.6 -0.3 -157.8 l0 -129.5 83.5 0 83.5 0 -0.3 76.5 -0.3 76.5 2.2 -3.9 c3.2 -5.9 142.4 -145 147.6 -147.5 4.2 -2.1 5.3 -2.1 95.3 -2.1 53.8 0 91 0.4 91 0.9 0 0.5 -33.6 34.2 -74.7 74.9 -72.7 72 -77.9 77 -81.5 79.6 -1.5 1.1 7.5 10.5 77.2 80.2 43.5 43.3 79 79.2 79 79.6 0 0.5 -40.8 0.7 -90.7 0.6 l-90.8 -0.3 -5 -2.9 c-4.5 -2.5 -84.8 -82 -134.8 -133.3 l-14.9 -15.2 0.4 75.7 0.3 75.7 -83.2 0.3 -83.2 0.2 -0.3 -28.2z"/>
  <path d="M3092 395.4 c0 -1.7 103.4 -311.2 104.6 -313.1 l1.4 -2.3 146.4 0 c115.9 0 146.6 0.3 147.4 1.2 0.5 0.7 2.6 6.7 4.7 13.3 2 6.6 25.2 76.9 51.6 156.1 26.3 79.3 47.9 144.4 47.9 144.8 0 0.4 -35.2 0.5 -78.2 0.4 -76.9 -0.3 -78.4 -0.3 -82.3 -2.4 -2.2 -1.1 -5.3 -4 -7 -6.5 -2.2 -3.2 -14.4 -38.6 -43.4 -125.7 -22.2 -66.7 -40.7 -121.2 -41.1 -121.2 -0.5 0 -44.2 131.2 -60.1 180.5 -11.8 36.7 -21 63.1 -23.4 67.1 -4.9 8.4 1.2 7.9 -88.7 8.2 -43.9 0.1 -79.8 0 -79.8 -0.4z"/>
  <path d="M3621 238 l0 -158.1 175.3 0.4 c184.5 0.4 177.3 0.2 208.7 4.7 59.2 8.3 98.1 29.3 112.5 60.5 6 13 7 17.5 7 34 0 14.4 -0.2 15.4 -3.3 24.4 -4.9 14.2 -11.7 25.8 -22.6 38.6 -2.8 3.2 -5.5 6.5 -6.1 7.3 -7.4 9.9 -34.1 31.2 -46.7 37.1 -4.3 2 -7.7 3.8 -7.7 4.1 0 0.3 3.3 3.2 7.2 6.5 4 3.3 27.8 26.7 53.1 52 l45.8 46 -91.6 0.3 c-77.7 0.2 -92.1 0 -94.4 -1.2 -3.7 -2 -125.5 -123.4 -124.8 -124.5 0.3 -0.4 2.7 -1.1 5.3 -1.5 14.7 -2 43.7 -13.2 56.9 -21.9 19.4 -12.8 26.2 -23.9 25.1 -40.7 -1.4 -22 -17.7 -40.4 -38.3 -43.1 -3.8 -0.4 -26.9 -0.8 -51.3 -0.9 l-44.3 0 0.3 116.8 0.4 116.7 -83.2 0.3 -83.3 0.2 0 -158z"/>
  <path d="M4318.7 395.3 c-0.4 -0.3 -0.7 -52.3 -0.7 -115.4 0 -114.6 0 -114.8 -2 -115.9 -1.5 -0.8 -26.1 -1 -84.1 -0.8 -81.3 0.3 -82 0.3 -82.5 -1.7 -0.2 -1.1 -0.3 -19.8 -0.2 -41.5 l0.3 -39.5 252.8 -0.3 252.7 -0.2 -0.1 30.7 c-0.1 17 -0.4 35.7 -0.8 41.8 l-0.6 10.9 -83.7 -0.2 -83.8 -0.3 -0.2 9.8 c-0.1 5.4 -0.2 57.7 -0.2 116.3 l-0.1 106.5 -83.1 0.3 c-45.7 0.1 -83.4 -0.1 -83.7 -0.5z"/>
  <path d="M385.7 394.3 c-1.5 -1.4 -0.6 -6.3 1.4 -8.2 2.5 -2.3 82 -49.1 83.4 -49.1 0.2 0 -0.4 1.8 -1.2 4 -1.5 3.8 -3.6 5.3 -29.7 21.7 -34.1 21.5 -51.8 32.3 -52.6 32.3 -0.4 0 -1 -0.3 -1.3 -0.7z"/>
  <path d="M739.4 166.4 c0.3 -1.1 1.9 -6.6 3.6 -12.4 6.9 -23.4 41.3 -125.2 43.2 -127.5 2.6 -3.3 4.5 -3.2 8.3 0.5 l3.1 3 173.4 0 c168.9 0.1 173.6 0.1 177.8 2 2.7 1.2 4.2 2.6 4.2 3.7 0 1.7 -7.2 1.8 -178.3 1.5 l-178.3 -0.2 -7.9 21.2 c-4.3 11.7 -10.5 28.3 -13.8 36.8 -3.2 8.5 -8.1 21.4 -10.9 28.5 -4.9 12.9 -12.2 28.3 -16.1 34 -3.4 5 -9 10.9 -8.3 8.9z"/>
  <path d="M3122.1 161.6 c-0.1 -1.1 25.4 -79.3 30.6 -94.1 4 -11.3 6.4 -16.5 7 -14.9 0.2 0.6 -3.1 10.9 -7.3 23 -4.1 12 -10.4 30.2 -13.9 40.4 -9.9 28.6 -16.4 46.6 -16.4 45.6z"/>
  <path d="M46 118.3 c0 -2.7 0.5 -7.1 3.4 -30.3 0.8 -6.3 2.4 -19.6 3.5 -29.5 3.5 -29.2 3.9 -31.2 6.8 -33.5 3.6 -2.8 5.5 -2.5 11.6 1.5 l5.3 3.5 104 0 c97 0 104.1 0.1 107.3 1.8 1.9 0.9 3.8 2.6 4.1 3.7 0.7 2 0.3 2 -109.9 2 l-110.6 0 -1.1 2.5 c-0.7 1.4 -3.5 14.9 -6.3 30 -6.2 32.7 -7.4 37.4 -10.9 42 -1.5 1.9 -3.4 4.7 -4.1 6.3 -0.8 1.5 -1.8 2.7 -2.3 2.7 -0.4 0 -0.8 -1.2 -0.8 -2.7z"/>
  <path d="M2775 120.7 c0 -0.2 2.5 -6.4 5.6 -13.8 l5.6 -13.4 33.1 -33.3 c18.3 -18.3 34.5 -34 36 -34.8 2.7 -1.4 3.1 -1.4 7.6 1.5 l4.8 3.1 324.4 0.3 c310.8 0.2 324.5 0.3 327.7 2 1.9 1 3.2 2.5 3 3.3 -0.3 1.2 -42.4 1.4 -330 1.4 l-329.8 0 -5.7 5.2 c-3.2 2.8 -23 21.7 -44 42 -21.1 20.3 -38.3 36.7 -38.3 36.5z"/>
  <path d="M382 99.3 l0.1 -7.8 39.5 -31.5 c21.8 -17.3 41.3 -32.5 43.5 -33.8 3.6 -2.2 4 -2.3 6.6 -0.8 8.9 4.9 1.9 4.6 113.7 4.6 l104.5 0 2.7 2.3 c1.6 1.4 2.4 2.9 2 3.5 -0.5 0.9 -28 1.2 -109.9 1.2 -84.8 0 -109.7 0.3 -111.3 1.3 -3.6 2 -18.7 13.6 -73.7 56.4 -8.7 6.8 -16.2 12.3 -16.8 12.3 -0.5 0 -0.9 -3.5 -0.9 -7.7z"/>
  <path d="M2013 101.6 c0 -0.5 1.8 -4.6 9.2 -20.8 2.7 -6 3.9 -7.3 11.7 -13 40.7 -30.2 97 -52.5 151.2 -59.7 9.1 -1.2 37.7 -0.1 66.9 2.7 6.3 0.6 17.4 1.6 24.5 2.3 42.4 3.6 89.3 16.8 126.4 35.3 12.3 6.2 14.8 8.2 4.4 3.5 -29.7 -13.4 -51.7 -20.4 -76.8 -24.4 -14.2 -2.3 -154.9 -2.3 -168 0 -21.9 3.8 -36 7.9 -56.6 16.3 -33.5 13.8 -61.5 30.6 -83.7 50.1 -5.1 4.5 -9.2 7.9 -9.2 7.7z"/>
  <path d="M1197.7 84.8 c-3.2 -2.5 -3.7 -6.7 -3.7 -32.8 l0 -26 2.5 -1.6 c3.4 -2.2 8.3 -1.3 13.8 2.5 l4.4 3 179.4 0.5 c98.7 0.2 182.3 0.7 185.9 1.1 53.5 5.2 82.1 10 107 18 12 3.9 31.3 11.5 30.7 12.1 -0.2 0.2 -3.5 -0.7 -7.3 -2.1 -33.2 -11.8 -69.4 -17.8 -129.9 -21.5 -7.1 -0.4 -93.4 -0.8 -191.7 -0.9 -161.4 -0.1 -178.8 0 -180.2 1.5 -0.9 0.8 -1.6 1.8 -1.6 2.2 0.1 7 -3.5 38.6 -4.7 41.5 -1.8 4.1 -2.1 4.3 -4.6 2.5z"/>
  <path d="M2508.4 83.9 c-1.8 -1.9 -1.9 -4.2 -2.2 -29.9 l-0.3 -27.8 2.3 -1.6 c3.4 -2.4 6.5 -2 11.7 1.6 5.8 4.1 -4 3.8 136.6 4.1 104.5 0.2 111.3 0.3 113.8 2 1.5 0.9 2.7 2.4 2.7 3.2 0 1.3 -15.5 1.5 -125.9 1.5 -103.9 0 -126 0.2 -127 1.3 -0.6 0.8 -1.8 9.2 -2.6 18.8 -1.9 21.9 -2.4 25 -4.3 27.2 -1.9 2.2 -2.5 2.2 -4.8 -0.4z"/>
  <path d="M3566.6 84.1 c-0.9 -0.9 -1.6 -2.5 -1.6 -3.5 0 -0.9 -0.4 -1.5 -0.9 -1.2 -1.1 0.7 -2.1 -15.4 -2.1 -35.2 0 -16.2 0 -16.3 2.6 -18.9 3.3 -3.3 7.8 -2.8 15.1 1.5 l5.3 3.1 179.2 0.4 c182.7 0.4 189.7 0.5 214.8 4.1 1.9 0.3 8.9 1.2 15.5 2.1 27.2 3.6 49.4 8.4 68.6 15 11 3.9 22.2 8.6 21.6 9.1 -0.2 0.2 -4.4 -1 -9.3 -2.7 -22.5 -7.7 -51.7 -13.5 -81.4 -16.3 -9.1 -0.9 -21.4 -2.1 -27.5 -2.8 -17 -1.8 -385.3 -2.4 -387.8 -0.6 -1.5 1.1 -2 4.2 -3.2 18.3 -2.1 24.3 -2.6 26.9 -5.4 28.5 -1.4 0.7 -2.3 0.5 -3.5 -0.9z"/>
  <path d="M1749 71.4 l-4.5 -7.9 -0.5 -17 c-0.3 -9.3 -0.2 -18 0.2 -19.3 0.4 -1.2 2 -2.7 3.5 -3.3 3.1 -1.1 5.4 -0.4 11.4 3.7 l3.5 2.4 119.9 0 c116.9 0 119.9 0.1 124.2 2 2.9 1.3 4.3 2.5 4.1 3.5 -0.3 1.4 -13.5 1.5 -126 1.5 -121.1 0 -125.8 0.1 -126.7 1.8 -0.5 1 -1.5 8.8 -2.2 17.3 -0.6 8.5 -1.4 17.1 -1.8 19.3 l-0.6 3.8 -4.5 -7.8z"/>
  <path d="M4103.7 69.5 c-0.5 -1.1 -3.3 -6.1 -6.3 -11.1 l-5.4 -9.2 0 -10.6 c0 -10.2 0.1 -10.8 2.6 -13.3 3.3 -3.3 7.9 -2.8 15 1.6 l5.1 3.1 287.9 0.2 c282.5 0.3 288 0.3 291.7 2.2 2 1.1 3.7 2.7 3.7 3.5 0 1.5 -27.8 1.6 -294.3 1.3 -252 -0.2 -294.6 0 -296.2 1.2 -1.7 1.3 -2 3.1 -2.5 17.3 -0.3 9.5 -0.8 15 -1.3 13.8z"/>
 </g>
</svg>