<?xml version="1.0" encoding="utf-8"?>
<!DOCTYPE svg PUBLIC "-//W3C//DTD SVG 20010904//EN" "http://www.w3.org/TR/2001/REC-SVG-20010904/DTD/svg10.dtd">
<svg version="1.0" xmlns="http://www.w3.org/2000/svg" width="1185px" height="720px" viewBox="0 0 1185 720" preserveAspectRatio="xMidYMid meet">
 <g fill="#ffffff">
  <path d="M129.7 640.3 l-0.7 -0.6 0 -9.4 0 -9.3 6 0 6 0 0 9.4 0 9.4 -1.6 0.6 c-2.1 0.8 -8.9 0.8 -9.7 -0.1z"/>
  <path d="M158.7 640.4 l-0.7 -0.7 0 -9.4 0 -9.3 6 0 6.1 0 -0.3 9.8 -0.3 9.7 -5 0.3 -5.1 0.3 -0.7 -0.7z"/>
  <path d="M187.7 640.3 l-0.7 -0.6 0 -9.4 0 -9.3 6 0 6 0 0 9.4 0 9.4 -1.6 0.6 c-2.1 0.8 -8.9 0.8 -9.7 -0.1z"/>
  <path d="M208.5 640.3 c-1.1 -0.3 -2.6 -1.2 -3.2 -2.1 l-1.3 -1.6 0 -7.8 0 -7.8 6.5 0 6.5 0 0 1 0 1 15.6 0 15.5 0 -0.3 3.8 -0.3 3.7 -15.5 0.5 -15.5 0.5 1.5 0.7 1.5 0.8 15.5 0.2 15.5 0.3 0.3 2.9 0.4 2.9 -1.4 0.8 -1.3 0.9 -19 -0.1 c-10.4 -0.1 -19.9 -0.3 -21 -0.6z"/>
  <path d="M255.7 640.4 l-0.7 -0.7 0 -9.4 0 -9.3 6 0 6.1 0 -0.3 9.8 -0.3 9.7 -5 0.3 -5.1 0.3 -0.7 -0.7z"/>
  <path d="M270.7 640.3 c-0.4 -0.3 -0.7 -2.1 -0.7 -4 l0 -3.3 12 0 12 0 0 -6 0 -6 6 0 6.1 0 -0.3 8.7 -0.3 8.7 -2.5 1.3 -2.5 1.3 -14.6 0 -14.6 0 -0.6 -0.7z"/>
  <path d="M313.7 640.3 l-0.7 -0.6 0 -14.4 0 -14.3 6.5 0 6.5 0 0 14.4 0 14.4 -1.6 0.6 c-0.9 0.3 -3.5 0.6 -5.8 0.6 l-4.3 0 -0.6 -0.7z"/>
  <path d="M336.3 640.3 l-1.3 -0.5 0 -9.4 0 -9.5 6.3 0.3 6.2 0.3 0.3 8.9 0.3 8.9 -1.3 0.9 -1.3 0.8 -4 -0.1 c-2.2 0 -4.6 -0.3 -5.2 -0.6z"/>
  <path d="M374.7 640.4 c-0.4 -0.4 -0.7 -1.6 -0.7 -2.6 l0 -1.8 -12 0 -12 0 0 -4 0 -4 12 0 12 0 0 -3.5 0 -3.5 6 0 6.1 0 -0.3 9.8 -0.3 9.7 -5 0.3 -5.1 0.3 -0.7 -0.7z"/>
  <path d="M415 639.7 l-2.5 -1.3 -0.3 -8.7 -0.3 -8.7 5.9 0 5.8 0 1 1 0.9 0.9 15 0.3 15 0.3 0 3.5 0 3.5 -15.8 0.3 -15.8 0.3 0.6 0.9 0.6 1 16.5 0 16.4 0 0 3.4 0 3.4 -1.6 0.6 -1.6 0.6 -18.6 0 -18.7 0 -2.5 -1.3z"/>
  <path d="M465.4 639.7 c-0.3 -0.8 -0.4 -5.2 -0.2 -9.8 l0.3 -8.4 6.3 -0.3 6.2 -0.3 0 9.4 0 9.5 -1.6 0.6 c-0.9 0.3 -3.6 0.6 -6 0.6 l-4.5 0 -0.5 -1.3z"/>
  <path d="M505.3 640.3 l-1.3 -0.5 0 -9.4 0 -9.4 6.5 0 6.5 0 0 9.4 0 9.4 -1.6 0.6 c-1.8 0.7 -8.3 0.7 -10.1 -0.1z"/>
  <path d="M524.7 640.4 l-0.7 -0.7 0 -9.4 0 -9.3 6 0 6.1 0 -0.3 9.8 -0.3 9.7 -5 0.3 -5.1 0.3 -0.7 -0.7z"/>
  <path d="M563 638.5 l-0.9 -2.4 -11.8 -0.3 -11.8 -0.3 -0.3 -3.7 -0.3 -3.7 12.3 -0.3 12.3 -0.3 0.3 -3.2 0.3 -3.3 6 0 5.9 0 0 9.4 0 9.4 -1.6 0.6 c-0.9 0.3 -3.3 0.6 -5.5 0.6 l-3.9 0 -1 -2.5z"/>
  <path d="M582.7 640.4 l-0.7 -0.7 0 -9.4 0 -9.3 6 0 6.1 0 -0.3 9.8 -0.3 9.7 -5 0.3 -5.1 0.3 -0.7 -0.7z"/>
  <path d="M622.3 640.4 l-1.3 -0.6 0 -1.9 0 -1.9 -12 0 -12 0 -0.6 -2.5 -0.6 -2.5 0.5 -1.5 0.6 -1.4 11.8 -0.3 11.8 -0.3 0.3 -3.2 0.3 -3.3 6 0 6 0 -0.3 9.8 -0.3 9.7 -4.5 0.2 c-2.5 0.1 -5.1 0 -5.7 -0.3z"/>
  <path d="M640.7 640.3 l-0.7 -0.6 0 -9.4 0 -9.3 6.5 0 6.5 0 0 9.4 0 9.4 -1.6 0.6 c-0.9 0.3 -3.5 0.6 -5.8 0.6 l-4.3 0 -0.6 -0.7z"/>
  <path d="M679.7 640.4 l-0.7 -0.7 0 -9.4 0 -9.3 6 0 6.1 0 -0.3 9.8 -0.3 9.7 -5 0.3 -5.1 0.3 -0.7 -0.7z"/>
  <path d="M702.1 639.7 l-2.5 -1.2 -0.8 -3.3 -0.9 -3.4 0.3 -5.1 0.3 -5.2 6.2 -0.3 6.2 -0.3 0.3 5.8 0.3 5.8 19.3 0.3 19.2 0.2 0 3.4 0 3.4 -1.6 0.6 -1.6 0.6 -21.1 0 -21.2 0 -2.4 -1.3z"/>
  <path d="M760 639.7 l-2.5 -1.3 -0.3 -8.7 -0.3 -8.7 5.9 0 5.8 0 1 1 0.9 0.9 15 0.3 15 0.3 0 3.5 0 3.5 -15.8 0.3 -15.8 0.3 0.6 0.9 0.6 1 16.5 0 16.4 0 0 3.4 0 3.4 -1.6 0.6 -1.6 0.6 -18.6 0 -18.7 0 -2.5 -1.3z"/>
  <path d="M811.3 640.3 l-1.3 -0.5 0 -9.4 0 -9.4 6.5 0 6.5 0 0 9.4 0 9.4 -1.6 0.6 c-1.8 0.7 -8.3 0.7 -10.1 -0.1z"/>
  <path d="M840.7 640.3 l-0.7 -0.6 0 -9.4 0 -9.3 6 0 6 0 0 9.4 0 9.4 -1.6 0.6 c-2.1 0.8 -8.9 0.8 -9.7 -0.1z"/>
  <path d="M872.3 640.4 l-1.3 -0.6 0 -9.4 0 -9.4 6 0 6.1 0 -0.3 9.8 -0.3 9.7 -4.5 0.2 c-2.5 0.1 -5.1 0 -5.7 -0.3z"/>
  <path d="M894 639.7 l-2.5 -1.3 -0.3 -8.7 -0.3 -8.7 6 0 6 0 0.6 1 0.6 1 15 0 14.9 0 0 4 0 4 -15.6 0 -15.5 0 0.6 1 0.6 1 16.5 0 16.4 0 0 3.4 0 3.4 -1.6 0.6 -1.6 0.6 -18.6 0 -18.7 0 -2.5 -1.3z"/>
  <path d="M945.3 640.3 l-1.3 -0.5 0 -9.4 0 -9.4 6.5 0 6.5 0 0 9.4 0 9.4 -1.6 0.6 c-1.8 0.7 -8.3 0.7 -10.1 -0.1z"/>
  <path d="M984.3 640.4 l-1.3 -0.6 0 -9.4 0 -9.4 6 0 6.1 0 -0.3 9.8 -0.3 9.7 -4.5 0.2 c-2.5 0.1 -5.1 0 -5.7 -0.3z"/>
  <path d="M1020.7 640.4 l-0.7 -0.7 0 -9.4 0 -9.3 6 0 6.1 0 -0.3 9.8 -0.3 9.7 -5 0.3 -5.1 0.3 -0.7 -0.7z"/>
  <path d="M129 614.5 l0 -3.5 34 0 33.9 0 1.1 1.9 c0.5 1.1 1 2.7 1 3.5 l0 1.6 -35 0 -35 0 0 -3.5z"/>
  <path d="M204 614.5 l0 -3.5 23.5 0 23.5 0 0 3.5 0 3.5 -23.5 0 -23.5 0 0 -3.5z"/>
  <path d="M255 614.5 l0 -3.5 24.3 0 24.3 0 1.2 1.2 1.2 1.2 0 2.3 0 2.3 -25.5 0 -25.5 0 0 -3.5z"/>
  <path d="M335 616.7 c0 -0.7 0.7 -2.3 1.6 -3.5 l1.5 -2.2 22.8 0 22.7 0 1.2 1.2 1.2 1.2 0 2.3 0 2.3 -25.5 0 -25.5 0 0 -1.3z"/>
  <path d="M412 614.5 l0 -3.5 23 0 23 0 0 3.5 0 3.5 -23 0 -23 0 0 -3.5z"/>
  <path d="M465.4 616.6 c-0.3 -0.8 -0.4 -2.3 -0.2 -3.3 l0.3 -1.8 24.1 -0.3 24.1 -0.2 1 1.2 c0.6 0.7 1.4 2.3 1.7 3.6 l0.7 2.2 -25.6 0 -25.6 0 -0.5 -1.4z"/>
  <path d="M524 614.5 l0 -3.5 6 0 6 0 0 3.5 0 3.5 -6 0 -6 0 0 -3.5z"/>
  <path d="M563 614.5 l0 -3.5 6 0 6 0 0 3.5 0 3.5 -6 0 -6 0 0 -3.5z"/>
  <path d="M582 616.4 c0 -0.8 0.5 -2.4 1 -3.5 l1.1 -1.9 23.4 0 23.4 0 1.1 1.9 c0.5 1.1 1 2.7 1 3.5 l0 1.6 -25.5 0 -25.5 0 0 -1.6z"/>
  <path d="M640 614.5 l0 -3.5 24.3 0 24.3 0 1.2 1.2 1.2 1.2 0 2.3 0 2.3 -25.5 0 -25.5 0 0 -3.5z"/>
  <path d="M699 615.7 l0 -2.3 1.2 -1.2 1.2 -1.2 24.3 0 24.3 0 0 3.5 0 3.5 -25.5 0 -25.5 0 0 -2.3z"/>
  <path d="M757 614.5 l0 -3.5 23 0 23 0 0 3.5 0 3.5 -23 0 -23 0 0 -3.5z"/>
  <path d="M810 614.5 l0 -3.5 35.3 0 35.3 0 1.2 1.2 1.2 1.2 0 2.3 0 2.3 -36.5 0 -36.5 0 0 -3.5z"/>
  <path d="M891 614.5 l0 -3.5 23 0 23 0 0 3.5 0 3.5 -23 0 -23 0 0 -3.5z"/>
  <path d="M944 614.5 l0 -3.5 24.3 0 24.3 0 1.2 1.2 1.2 1.2 0 2.3 0 2.3 -25.5 0 -25.5 0 0 -3.5z"/>
  <path d="M1003 614.5 l0 -3.5 23 0 23 0 0 3.5 0 3.5 -23 0 -23 0 0 -3.5z"/>
  <path d="M128 465 l0 -51 30.5 0 30.5 0 -0.2 50.8 -0.3 50.7 -30.2 0.3 -30.3 0.2 0 -51z"/>
  <path d="M274.5 514.8 c-0.3 -0.7 -0.4 -23.6 -0.3 -50.8 l0.3 -49.5 30.5 0 30.5 0 0 50.5 0 50.5 -30.3 0.3 -30.3 0.2 -0.4 -1.2z"/>
  <path d="M421.7 515.3 l-0.7 -0.6 0 -50.4 0 -50.3 30.5 0 30.5 0 -0.2 50.8 -0.3 50.7 -29.6 0.3 -29.5 0.2 -0.7 -0.7z"/>
  <path d="M507.5 514.7 c-0.3 -0.7 -0.4 -9.4 -0.3 -19.2 l0.3 -18 95.6 -0.5 95.6 -0.5 1.6 -1.4 1.7 -1.3 0 -3 0 -2.9 -3.5 -1.5 -3.4 -1.4 -83.7 0 -83.7 0 -4.1 -1.2 -4.1 -1.3 -3.6 -3.6 -3.7 -3.7 -2.2 -5.8 -2.3 -5.9 -0.5 -14.7 -0.4 -14.8 30.4 0 30.4 0 1.2 4.5 1.2 4.4 2.7 1.8 2.7 1.8 82.1 0.5 82 0.5 5.5 2.6 5.5 2.6 3.3 3.3 3.3 3.2 2.4 4.8 2.5 4.9 1.1 7.3 1.2 7.3 -0.6 14 -0.6 14 -1.5 5 -1.5 5 -3 4.7 -3 4.7 -4.3 2.3 -4.3 2.3 -118.8 0.3 -118.7 0.2 -0.5 -1.3z"/>
  <path d="M806.9 515.1 l-3.6 -0.7 -3.6 -2.3 -3.7 -2.3 -2.5 -4.1 -2.4 -4.2 -1.5 -6 -1.6 -5.9 0 -37.8 0 -37.8 30.3 0.2 30.2 0.3 0.5 28 0.5 28 1.3 2.2 c0.7 1.3 2.1 2.7 3.2 3.3 l1.9 1 59.6 0 59.6 0 2.8 -1.5 2.9 -1.4 1.1 -3.2 1.1 -3.2 0 -26.8 0 -26.9 30.6 0 30.5 0 -0.3 40.3 -0.3 40.2 -2.3 5.5 -2.2 5.6 -3.7 3.6 c-2.1 1.9 -4.9 4.2 -6.3 4.9 l-2.5 1.4 -108 0.1 -108 0.2 -3.6 -0.7z"/>
  <path d="M128 383 l0 -19 168 0 168.1 0 3.2 1.3 3.2 1.4 3.7 4.1 3.7 4.1 1.6 5.3 1.7 5.3 0.5 8.3 0.6 8.2 -177.2 0 -177.1 0 0 -19z"/>
  <path d="M507.3 393.8 l0.5 -8.3 1.7 -5.2 1.8 -5.2 2.9 -3.6 3 -3.6 3.9 -1.9 3.8 -2 113.1 0 113 0 0 19 0 19 -122.1 0 -122.2 0 0.6 -8.2z"/>
  <path d="M788 383 l0 -19 30.5 0 30.5 0 -0.2 18.8 -0.3 18.7 -30.2 0.3 -30.3 0.2 0 -19z"/>
  <path d="M983 383 l0 -19 30.5 0 30.5 0 0 19 0 19 -30.5 0 -30.5 0 0 -19z"/>
  <path d="M127 304.9 c0 -0.6 5.9 -11.1 13.1 -23.2 7.3 -12.2 18 -30.3 23.9 -40.2 l10.6 -18 3.5 -1.7 3.4 -1.8 15.3 0 15.2 0 0 5.8 0 5.9 0.6 0.6 0.7 0.6 2.7 -4.2 c1.5 -2.3 3.7 -5.1 5 -6.2 l2.2 -2 20.9 -0.3 20.9 -0.3 0 43 0 43.1 -12 0 -12 0 0 -33.1 0 -33.1 -1.1 0.4 -1.2 0.4 -19.2 32.4 -19.3 32.5 -14.6 0.3 -14.6 0.3 0 -0.9 c0 -0.4 8.1 -14.5 18 -31.2 9.9 -16.7 18 -30.7 18 -31.2 l0 -0.8 -6.3 0 -6.4 0 -1.5 1.8 c-0.8 0.9 -9.5 15.3 -19.4 32 l-17.8 30.2 -14.3 0 -14.3 0 0 -1.1z"/>
  <path d="M281 274.5 l0 -31.6 6.2 -10.5 6.2 -10.5 1.8 -1 1.7 -0.9 31.8 0.2 31.8 0.3 0.3 9.3 0.3 9.2 -23.4 0 -23.4 0 -2 2.3 c-2.6 3 -6.3 9.5 -6.3 11.2 l0 1.5 27.4 0.2 27.5 0.3 -5 8.8 -5.1 8.7 -22.4 0 -22.4 0 0 7.5 0 7.5 27.3 0.2 27.2 0.3 0.3 9.3 0.3 9.2 -40.1 0 -40 0 0 -31.5z"/>
  <path d="M372.1 303.4 l-3.1 -2.6 0 -26.7 0 -26.7 7.5 -12.7 7.5 -12.6 2 -1.1 1.9 -1 32.8 0.2 32.8 0.3 0 9 0 9 -24.7 0.5 -24.7 0.5 -0.9 1 c-0.5 0.6 -3 4.6 -5.6 9 l-4.6 8 0 14.7 0 14.8 20.5 0 20.5 0 0 -7 0 -7 -9 0 -9 0 0 -1.1 c0 -0.6 2.3 -4.9 5.1 -9.5 l5 -8.4 16 0 15.9 0 0 23.3 -0.1 23.2 -1.2 1.6 c-0.7 0.9 -2.2 2.1 -3.4 2.7 l-2.2 1.2 -38 0 -37.9 0 -3.1 -2.6z"/>
  <path d="M471 263 l0 -43 23.4 0 23.3 0 3.4 2.3 3.4 2.3 12.1 20.4 c6.6 11.3 17.2 29 23.4 39.4 6.1 10.5 11.4 19.6 11.7 20.3 l0.5 1.4 -14.8 -0.3 -14.8 -0.3 -4.4 -7.2 -4.3 -7.3 -13.9 0 -13.9 0 -4.7 -8 c-2.6 -4.4 -5.1 -8 -5.6 -8 l-0.8 0 0 15.5 0 15.5 -12 0 -12 0 0 -43z m51 8.4 c0 -1.3 -16.9 -29 -18.7 -30.6 l-2 -1.8 -3.1 0 -3.2 0 0 15.8 0 15.9 0.7 0.6 0.6 0.7 12.9 0 12.8 0 0 -0.6z"/>
  <path d="M611 263 l0 -43 34.3 0 34.4 0 4.2 2.3 4.3 2.2 5.2 8.5 c2.8 4.7 7.5 12.6 10.4 17.5 l5.2 9.1 0 3.8 0 3.7 -10 16.9 -10.1 16.9 -3.2 2.3 -3.2 2.3 -35.7 0.3 -35.8 0.3 0 -43.1z m62.8 13.3 l6.2 -10.8 0 -2.5 0 -2.5 -6.3 -10.5 -6.3 -10.5 -16.2 -0.3 -16.2 -0.2 0 24 0 24 16.3 0 16.2 0 6.3 -10.7z"/>
  <path d="M712 263 l0 -43.1 35.8 0.3 35.9 0.3 3.5 2.7 3.6 2.7 4.6 7.9 4.6 7.9 0 3.6 0 3.6 -7.4 12.5 -7.4 12.5 8.9 15.1 c4.9 8.3 8.9 15.5 8.9 16 l0 1 -14.4 0 -14.3 0 -12.6 -21.2 -12.6 -21.3 6.5 -0.5 6.5 -0.5 5.1 -8.7 5 -8.7 -1.8 -3 -1.8 -3.1 -16.3 0 -16.3 0 0 33.5 0 33.5 -12 0 -12 0 0 -43z"/>
  <path d="M819 263 l0 -43 12 0 12 0 0 43 0 43 -12 0 -12 0 0 -43z"/>
  <path d="M866.7 281.1 l-14.7 -24.8 0.2 -17.9 0.3 -17.9 12 0 12 0 0.5 14.2 0.5 14.1 11.5 19.6 c6.3 10.7 11.8 19.6 12.1 19.6 0.3 0 5.7 -8.7 12 -19.2 l11.4 -19.3 0.5 -14.5 0.5 -14.5 12 0 12 0 0.3 18.1 0.2 18.1 -12.6 21.4 c-7 11.8 -13.6 22.9 -14.7 24.7 l-1.9 3.2 -19.7 0 -19.7 0 -14.7 -24.9z"/>
  <path d="M964 274.4 l0 -31.6 6.5 -10.8 6.5 -10.8 1.6 -0.6 1.6 -0.6 31.9 0 31.9 0 0 9.5 0 9.5 -23.7 0.2 -23.8 0.3 -3.7 5.5 -3.7 5.5 -0.1 1.7 0 1.8 27.5 0.2 27.5 0.3 -5.1 8.8 -5.1 8.7 -22.4 0 -22.4 0 0 7.5 0 7.5 27.3 0.2 27.2 0.3 0.3 9.3 0.3 9.2 -40.1 0 -40 0 0 -31.6z"/>
  <path d="M401.2 158.8 l0.3 -8.3 29 -0.5 29 -0.5 3.1 -1.7 c1.7 -0.9 4.5 -3.3 6.1 -5.2 l3.1 -3.4 1.2 -3.7 1.2 -3.7 -0.4 -4.8 -0.5 -4.8 -2.7 -4.6 -2.7 -4.5 -4.7 -2.8 -4.6 -2.8 -12.6 -0.5 -12.5 -0.5 -3 -1.7 c-3.6 -1.9 -5.7 -4.2 -7.9 -8.5 l-1.6 -3.2 0 -4.1 0 -4.1 1.4 -3.2 1.3 -3.2 3.6 -3.2 3.7 -3.2 3.9 -1.1 3.9 -1 25.9 0.2 25.8 0.3 0.3 8.2 0.3 8.3 -26.3 0.2 -26.3 0.3 0 1.5 0 1.5 12.5 0.5 12.5 0.6 5.7 2.8 5.7 2.7 4.6 4.5 4.6 4.5 3.2 6.7 3.2 6.7 0 9.5 0 9.5 -3.2 6.6 -3.3 6.6 -5 4.7 -5.1 4.7 -5.7 2.7 -5.7 2.7 -30.8 0.3 -30.8 0.3 0.3 -8.3z"/>
  <path d="M520.2 165.1 l-5.3 -1.8 -3.7 -3 -3.7 -2.9 -3.2 -4.8 -3.3 -4.8 -1 -3.9 -1.1 -3.9 0.3 -33.2 0.3 -33.3 2.5 -4.9 2.5 -4.8 5.2 -4.8 5.2 -4.8 4.7 -1.6 4.8 -1.6 31.3 0 31.4 0 -0.3 7.8 -0.3 7.7 -30.5 0.5 -30.5 0.5 -2.8 1.9 c-1.5 1 -3.8 3.3 -5 5 l-2.2 3.1 -0.3 29.8 -0.3 29.8 2.1 4.4 2.1 4.3 2.7 1.9 2.7 1.8 31 0.5 31 0.5 0 8 0 8 -30.5 0.2 -30.5 0.2 -5.3 -1.8z"/>
  <path d="M615.3 165.6 c-2.3 -0.8 -5.7 -2.3 -7.7 -3.5 l-3.5 -2.2 -4.1 -4.6 -4 -4.6 -2.1 -6.8 -2 -6.7 0.3 -30.8 0.3 -30.9 2.6 -5.6 2.7 -5.7 3.9 -3.9 4 -4 4.9 -2.4 4.9 -2.4 31.8 -0.3 31.7 -0.3 0 8.1 0 8 -28.3 0 -28.3 0 -4.4 2.3 -4.5 2.2 -2.2 4.5 -2.3 4.4 0 28.3 0 28.4 1.4 3.2 1.4 3.2 3.1 3 3.2 3 22 0.3 21.9 0.3 0 -21.5 0 -21.5 -14.7 -0.3 -14.8 -0.3 0 -7.5 0 -7.5 22.8 -0.3 22.7 -0.2 0 30.7 0 30.7 0.9 -0.9 c0.4 -0.6 5.1 -13.8 10.4 -29.5 5.4 -15.7 12.1 -35.6 15.1 -44.3 l5.3 -15.8 3 -3.7 3 -3.7 5.2 -2.9 5.3 -2.9 6.4 0 6.3 -0.1 5.8 3 5.7 2.9 3.1 4.1 3.1 4.1 17.2 50.9 c9.5 28 17.2 51.5 17.2 52.2 l0 1.2 -32.2 -0.2 -32.3 -0.3 0 -8 0 -8 21.2 -0.3 21.2 -0.2 -13.9 -41.3 -13.9 -41.2 -2.2 -1.7 -2.1 -1.8 -3.2 0 -3.2 0 -2.1 1.5 -2.1 1.5 -2.6 6.7 c-1.4 3.8 -9 25.8 -17 49 -8 23.3 -14.8 42.7 -15.1 43.3 l-0.6 1 -35.7 -0.1 -35.7 0 -4.2 -1.3z"/>
  <path d="M696 165.7 c0 -0.8 3.9 -12.6 8.6 -26.3 4.7 -13.7 11 -31.9 13.9 -40.4 2.9 -8.5 6.3 -18.4 7.5 -22 l2.2 -6.5 2 -1.8 c2.4 -2 3.8 -2.1 6.1 -0.4 l1.7 1.2 13 38.4 c7.1 21.1 13 38.5 13 38.7 0 0.2 -8.5 0.4 -19 0.4 l-19 0 0 -5.7 -0.1 -5.8 -1.3 2.5 c-0.7 1.4 -3.3 8.5 -5.7 15.8 l-4.3 13.2 -9.3 0 -9.3 0 0 -1.3z m41.3 -37.3 l0.5 -0.6 -1.9 -5.6 c-1.1 -3.2 -2.2 -6.4 -2.5 -7.2 l-0.6 -1.5 -2.4 6.9 c-1.3 3.9 -2.4 7.4 -2.4 7.8 l0 0.8 4.3 0 c2.4 0 4.6 -0.3 5 -0.6z"/>
  <path d="M525.3 145.9 l-4.1 -2 -1.6 -3.4 -1.6 -3.3 0 -13.1 0 -13.1 28.5 0 28.5 0 0 8 0 8 -19.4 0 -19.5 0 -0.5 0.9 -0.6 0.9 1.3 1.1 1.4 1.1 24.4 0.2 24.4 0.3 0.3 7.4 0.3 7.4 -1.3 0.8 -1.3 0.9 -27.5 0 -27.5 0 -4.2 -2.1z"/>
  <path d="M401 139 l0 -8 26.2 -0.2 26.3 -0.3 0.3 -1.7 0.3 -1.8 -9.8 0 -9.8 0 -5.3 -1.4 -5.2 -1.4 -4.4 -2.6 -4.4 -2.5 -4.5 -5.1 -4.6 -5.1 -2.2 -5.7 -2.3 -5.7 0 -9 -0.1 -9 3.1 -6.5 3.1 -6.5 4.6 -4.7 4.7 -4.7 5.8 -2.8 5.7 -2.8 31.3 -0.3 31.2 -0.3 0 8 0 8 -28.7 0.3 -28.8 0.3 -4.7 2.8 -4.7 2.8 -2.7 4.5 -2.7 4.6 -0.5 4.8 -0.4 4.8 1.2 3.7 1.2 3.7 3.1 3.4 3 3.5 4.1 2.1 4.1 2.1 11.5 0.4 11.5 0.4 2.7 1.1 2.8 1 3.4 3.9 3.5 3.8 0.7 3.6 0.6 3.6 -0.5 4.1 -0.5 4 -2.9 3.6 -2.9 3.5 -3.4 1.8 -3.5 1.9 -28.2 0 -28.3 0 0 -8z"/>
  <path d="M617.5 144.8 l-2.7 -2.1 -1.4 -3.3 -1.4 -3.3 0 -27.7 0 -27.6 1.7 -3.5 1.7 -3.6 4.2 -1.9 4.3 -1.8 27.3 0.2 27.3 0.3 0 8 0 8 -23.4 0.3 -23.4 0.2 -1.4 1.1 -1.3 1.1 0 18.8 0 18.8 0.6 1.6 0.6 1.6 5.9 0 5.9 0 0 -1.4 0 -1.5 -4.7 -0.3 -4.8 -0.3 -0.3 -7.7 -0.3 -7.7 2.3 -0.6 2.3 -0.6 10.5 0.3 10.5 0.3 0.3 18.3 0.2 18.2 -18.8 0 -18.9 0 -2.8 -2.2z"/>
  <path d="M518.7 106.3 l-0.7 -0.6 0 -12.7 0 -12.7 2.3 -3.4 2.2 -3.4 3.5 -1.7 3.5 -1.8 28.3 0 28.2 0 0 8.5 0 8.5 -24.3 0 -24.3 0 -1.2 1.2 c-0.7 0.7 -1.2 1.6 -1.2 2 l0 0.8 20 0 20 0 0 8 0 8 -27.8 0 -27.9 0 -0.6 -0.7z"/>
 </g>
 <g fill="#ff0000">
  <path d="M129.4 578.7 c-0.2 -0.7 -0.3 -6.7 -0.2 -13.3 l0.3 -11.9 460.2 -0.3 460.3 -0.2 0 13.5 0 13.5 -460 0 -460.1 0 -0.5 -1.3z"/>
 </g>
</svg>