<?xml version="1.0" encoding="UTF-8" standalone="no"?>
<svg
   version="1.0"
   width="771.63446"
   height="171.95395"
   viewBox="0 0 771.63446 171.95395"
   preserveAspectRatio="xMidYMid"
   id="svg96"
   sodipodi:docname="Metal_Gear_logo (1).svg"
   inkscape:version="1.2 (dc2aedaf03, 2022-05-15)"
   xmlns:inkscape="http://www.inkscape.org/namespaces/inkscape"
   xmlns:sodipodi="http://sodipodi.sourceforge.net/DTD/sodipodi-0.dtd"
   xmlns="http://www.w3.org/2000/svg"
   xmlns:svg="http://www.w3.org/2000/svg">
  <defs
     id="defs100" />
  <sodipodi:namedview
     id="namedview98"
     pagecolor="#ffffff"
     bordercolor="#000000"
     borderopacity="0.25"
     inkscape:showpageshadow="2"
     inkscape:pageopacity="0.0"
     inkscape:pagecheckerboard="0"
     inkscape:deskcolor="#d1d1d1"
     showgrid="false"
     inkscape:zoom="1.6567358"
     inkscape:cx="343.14464"
     inkscape:cy="66.999218"
     inkscape:window-width="1920"
     inkscape:window-height="1017"
     inkscape:window-x="-8"
     inkscape:window-y="-8"
     inkscape:window-maximized="1"
     inkscape:current-layer="svg96" />
  <g
     fill="#ffffff"
     id="g18"
     transform="translate(-0.25,-0.04605097)">
    <path
       d="m 731.8,171.6 c -0.3,-0.5 -1.45,-4 -2.35,-7.2 L 728.8,162 h -4.35 c -4.95,0 -4.4,0.6 -6.45,-6.5 -0.6,-2.05 -1.25,-4.3 -1.5,-5 -0.2,-0.7 -0.9,-2.95 -1.5,-5 -1.65,-5.6 -1.9,-6.5 -2.9,-9.75 -0.55,-1.65 -1.25,-4 -1.6,-5.25 -0.35,-1.25 -0.8,-2.8 -1.05,-3.5 -0.2,-0.7 -0.45,-1.8 -0.55,-2.5 -0.25,-2.2 -1.15,-1.35 -1.7,1.75 -0.6,2.9 -1.3,6.1 -2.15,9.75 -0.25,0.95 -0.7,2.95 -1,4.4 -1,5 0.25,4.65 -14.7,4.5 -14.85,-0.15 -13.5,0.35 -12.4,-4.65 1.3,-5.8 1.35,-5.25 -0.35,-5.25 h -1.55 l -0.15,4.9 -0.15,4.85 -13.7,0.15 c -10.25,0.1 -13.8,-0.05 -14.1,-0.5 -0.2,-0.3 -0.25,-2.55 -0.1,-5 l 0.3,-4.4 h -6.05 -6.05 l -0.15,-3.85 -0.15,-3.9 -4.8,-0.15 -4.8,-0.15 -1.3,2.65 c -0.7,1.45 -1.75,3.8 -2.35,5.15 -0.6,1.4 -1.65,3.7 -2.3,5.15 -0.65,1.45 -1.2,2.8 -1.2,3.05 0,0.2 -0.4,0.75 -0.9,1.2 -0.8,0.75 -2.55,0.85 -14,0.85 H 590 v -1.1 c 0,-0.65 0.9,-2.9 1.95,-5 L 593.9,135 H 592 c -1.75,0 -1.9,0.15 -3.35,2.9 -0.85,1.55 -2.05,3.8 -2.65,5 l -1.2,2.1 h -28.4 c -26.7,0 -28.4,-0.05 -28.4,-0.85 0,-0.5 0.45,-2.45 1,-4.4 1.3,-4.75 1.3,-4.75 -1,-4.75 -1.9,0 -2.05,0.15 -3.05,2.25 -1.35,2.85 -5.15,6.3 -7.85,7.15 -2.8,0.8 -59.1,0.9 -60.75,0.05 -3.1,-1.6 -5.35,-4.8 -5.35,-7.7 V 135 h -2.75 c -3.15,0 -4.9,-0.75 -6.75,-2.85 -2.5,-2.85 -3.1,-5.45 -2.05,-8.95 0.25,-0.8 0.7,-2.7 1,-4.2 0.35,-1.5 1.05,-4.65 1.6,-7 1.05,-4.45 1.75,-7.45 2.45,-10.75 0.25,-1.1 0.9,-4 1.5,-6.5 1.1,-4.65 1.7,-7.4 2.55,-11.25 0.3,-1.25 0.7,-3.05 0.95,-4 0.25,-0.95 0.65,-2.75 0.95,-4 0.85,-3.85 1.45,-6.6 2.55,-11.25 0.6,-2.45 1.25,-5.4 1.5,-6.5 0.25,-1.1 0.9,-4 1.5,-6.5 0.6,-2.45 1.3,-5.5 1.55,-6.75 1.65,-7.4 2.7,-9.6 5.75,-12.5 1.2,-1.1 3.25,-2.5 4.55,-3.15 2.4,-1.1 2.5,-1.1 34.65,-1.25 17.75,-0.1 32.75,0 33.35,0.15 1.1,0.25 1.1,0.35 -1.1,4.6 -1.25,2.4 -2.25,4.55 -2.25,4.75 0,0.2 0.95,0.4 2.15,0.4 h 2.2 L 539,33.4 c 1.15,-2.3 2.35,-4.45 2.65,-4.75 0.35,-0.5 7.45,-0.65 32.4,-0.65 17.6,0 31.95,0.2 31.95,0.4 0,0.2 -0.65,1.45 -1.5,2.75 -0.8,1.3 -1.5,2.55 -1.5,2.75 0,0.2 -0.45,0.9 -1,1.6 -1.85,2.4 -1.6,2.5 6.65,2.5 8.5,0 8.4,0.05 9.95,-3.5 0.45,-0.95 1.25,-2.8 1.85,-4.1 L 621.5,28 H 642.25 663 v 4.7 c 0,5.55 -0.2,5.4 6,5.3 2.35,-0.05 4.65,-0.05 5.15,-0.05 0.75,0.05 0.85,0.75 0.85,7.7 v 7.6 L 676,52 c 0.55,-0.7 1,-1.45 1,-1.7 0,-0.45 3.4,-7.65 8.25,-17.5 l 2.5,-5.05 13,-0.1 c 7.15,-0.1 13.3,0.05 13.7,0.3 0.5,0.35 0.55,0.8 0.1,2.25 -0.3,1 -0.75,2.55 -1.05,3.45 -0.7,2.35 -0.65,4.5 0.15,4.25 0.3,-0.1 1.65,-2.2 2.9,-4.65 1.3,-2.5 2.6,-4.8 2.9,-5.15 0.45,-0.45 4.3,-0.6 15.95,-0.6 8.45,0 16.2,0.15 17.2,0.3 2.15,0.35 5.7,3.2 6.5,5.15 0.3,0.7 0.7,2.1 0.85,3.05 0.3,1.7 0.35,1.75 3.1,2 3.9,0.35 6.55,2.25 8.3,5.85 0.85,1.85 0.7,4.2 -0.55,9.15 -1.6,6.25 -1.75,6.75 -2.3,9.25 -0.3,1.4 -0.75,3.3 -1,4.25 -0.25,0.95 -0.7,2.9 -1,4.25 -0.3,1.4 -0.75,3.3 -1,4.25 -0.25,0.95 -0.65,2.75 -0.95,4 -0.25,1.25 -0.95,4.3 -1.55,6.75 -0.6,2.5 -1.3,5.5 -1.6,6.75 -0.7,3.15 -1.75,5.3 -3.2,6.75 -2.45,2.45 -4.1,2.95 -10.3,3.15 -3.25,0.1 -5.9,0.4 -5.9,0.65 0,0.25 0.2,0.85 0.45,1.35 0.25,0.45 0.95,2.55 1.55,4.6 0.65,2.05 1.55,5 2,6.5 0.45,1.5 1.35,4.45 2,6.5 0.65,2.05 1.55,5 2,6.5 0.45,1.5 1.35,4.45 2,6.5 0.65,2.05 1.55,5.1 2.1,6.75 0.5,1.65 1.1,3.7 1.35,4.5 2.15,7.1 3.7,12.2 4.05,13.25 0.25,0.7 0.9,2.95 1.5,5 0.6,2.05 1.3,4.15 1.55,4.6 0.25,0.5 0.45,1.35 0.45,1.9 0,1 -0.3,1 -15.45,1 -8.55,0 -15.6,-0.2 -15.75,-0.4 z M 584.35,119.1 c 0.3,-0.2 1.95,-3.3 3.6,-6.85 1.7,-3.6 3.3,-6.9 3.55,-7.35 0.3,-0.5 0.5,-1.1 0.5,-1.4 0,-0.3 -4.55,-0.5 -13,-0.5 h -13 l -0.45,1.15 c -0.25,0.6 -0.6,2.05 -0.8,3.25 l -0.35,2.1 h 10.8 c 9.05,0 10.8,0.1 10.8,0.7 0,0.75 -2.75,6.1 -3.55,7.05 -0.25,0.25 -0.45,0.85 -0.45,1.35 0,0.9 1.25,1.2 2.35,0.5 z m -95.1,-10.55 c 0.15,-0.25 0.5,-1.65 0.8,-3.15 0.3,-1.45 0.75,-3.45 0.95,-4.4 0.2,-0.95 0.6,-2.75 0.9,-4 0.25,-1.25 0.55,-2.6 0.65,-3 0.15,-0.5 -0.25,-0.8 -1.05,-0.9 -1.2,-0.15 -1.35,0.1 -1.9,2.5 -0.35,1.45 -0.85,3.45 -1.1,4.4 -0.7,2.7 -2,8.25 -2,8.65 0,0.5 2.4,0.4 2.75,-0.1 z M 676,82.8 c 0,-0.65 0.2,-1.8 0.45,-2.6 0.25,-0.8 0.7,-2.8 1.05,-4.45 0.35,-1.65 0.8,-3.65 1,-4.5 0.2,-0.8 0.65,-2.85 1,-4.5 0.35,-1.65 1.05,-4.65 1.55,-6.6 1.5,-5.8 1.55,-5.7 -2.4,-5.55 l -3.4,0.15 -0.15,14.9 c -0.05,10 0.05,14.8 0.4,14.6 0.25,-0.15 0.5,-0.8 0.5,-1.45 z M 529.4,76.9 c 0.3,-0.9 0.8,-2.9 1.1,-4.4 0.35,-1.5 0.8,-3.4 1.05,-4.2 1.1,-3.55 2.4,-3.3 -17.05,-3.3 -16.75,0 -17.5,0.05 -18,0.95 -1.35,2.6 -1.65,2.55 14.45,2.55 8.25,0 15.1,0.2 15.25,0.45 0.15,0.2 -0.05,1.65 -0.4,3.1 -0.4,1.5 -0.85,3.55 -1,4.6 l -0.35,1.85 h 2.25 c 2.05,0 2.25,-0.1 2.7,-1.6 z m 74.7,0.75 c 0.4,-0.5 1.3,-2.15 2,-3.65 5.15,-10.9 8,-16.85 8.4,-17.6 0.75,-1.35 0.7,-1.4 -2,-1.4 -1.9,0 -2.5,-0.2 -2.5,-0.75 0,-1.3 -0.8,-0.8 -1.85,1.15 -0.55,1 -1.45,2.65 -2.05,3.65 -0.55,1 -1.3,2.35 -1.7,3 -1.75,3.1 -0.8,2.95 -15.75,2.95 -10.6,0 -13.65,0.15 -13.65,0.65 0,0.3 -0.15,1.1 -0.3,1.75 l -0.3,1.1 h 10.3 c 9.5,0 10.3,0.05 10.3,0.9 0,0.45 -0.45,1.4 -1,2.1 -0.55,0.7 -1,1.45 -1,1.65 0,0.25 -0.65,1.4 -1.5,2.55 -0.8,1.2 -1.3,2.3 -1.15,2.5 0.2,0.15 3.15,0.3 6.65,0.3 5.45,0 6.45,-0.15 7.1,-0.85 z"
       id="path2" />
    <path
       d="m 12.8,144.55 c -0.4,-0.6 1,-7.35 1.95,-9.65 0.3,-0.8 -0.3,-0.9 -7.1,-1 l -7.4,-0.15 0.05,-1.25 c 0.05,-0.7 0.45,-2.7 0.9,-4.5 0.8,-3.05 1.05,-4.2 2.25,-9.6 0.3,-1.2 0.95,-4.15 1.55,-6.65 1.1,-4.8 1.8,-7.7 2.55,-11.1 0.95,-4.35 1.4,-6.5 2.45,-10.9 0.6,-2.45 1.25,-5.45 1.55,-6.6 0.25,-1.2 0.7,-3.15 0.95,-4.4 1.2,-5.45 1.6,-7.1 2,-8.75 0.4,-1.65 0.8,-3.3 2,-8.75 0.3,-1.25 0.7,-3.2 0.95,-4.35 0.3,-1.2 0.95,-4.15 1.55,-6.65 1.1,-4.65 1.75,-7.55 2.25,-9.9 L 21.5,39 H 17.25 C 14.9,39 13,38.8 13,38.55 c 0,-0.25 0.45,-1.3 0.95,-2.4 1.1,-2.05 5.4,-11.2 9.5,-19.9 1.45,-3 3,-6.3 3.5,-7.25 L 27.8,7.25 42.2,7.1 56.6,7 56.25,9.1 c -0.15,1.2 -0.5,2.85 -0.75,3.65 -0.25,0.85 -0.5,2.3 -0.6,3.25 -0.15,1.55 0,1.75 1.15,1.9 1.6,0.2 2,-0.3 4.9,-6 L 63.3,7.25 82.95,7.1 c 19.55,-0.1 19.65,-0.1 21.2,1 3.25,2.25 4.45,4.3 4.55,7.65 0.05,1.85 0.15,2 1.65,2.15 1.35,0.15 1.75,-0.1 3,-2 0.8,-1.2 1.65,-2.5 1.8,-2.9 0.2,-0.4 1,-1.85 1.8,-3.25 l 1.45,-2.5 18.45,-0.15 c 17.4,-0.1 18.5,-0.05 19.95,0.85 2.65,1.6 4.25,4.15 4.55,7.25 l 0.3,2.8 h 2.95 c 1.6,0 3.4,0.3 4.05,0.65 1.9,1.05 4.25,3.85 4.65,5.5 0.2,0.9 0.45,1.75 0.5,2 0.05,0.2 0.1,0.6 0.15,0.85 0.05,0.35 10.5,0.5 30.3,0.5 24.65,0 30.35,0.1 30.55,0.65 0.1,0.35 -0.9,2.8 -2.25,5.45 -1.35,2.65 -2.4,4.9 -2.3,5 0.1,0.1 1.2,0.1 2.45,0 l 2.25,-0.2 2.3,-4.7 c 1.3,-2.6 2.7,-5.05 3.1,-5.45 1.05,-1.05 63.55,-1.1 63.95,-0.1 0.25,0.7 -3.15,8.35 -4,8.9 -0.25,0.2 -0.3,0.7 -0.15,1.1 0.2,0.5 0.75,0.65 2.15,0.4 2.05,-0.35 1.85,-0.1 5.35,-7.3 l 1.65,-3.5 19.15,-0.15 c 13.75,-0.05 19.4,0.05 19.85,0.45 0.5,0.4 0.7,1.95 0.7,5.5 v 4.95 h 5.2 c 2.85,0 5.55,0.15 6,0.3 0.7,0.25 0.8,2.8 0.8,23.5 0,12.75 0.2,23.2 0.4,23.2 0.25,0 0.7,-1.3 1.05,-2.85 1.8,-8.35 2.25,-10.5 3,-13.75 1.15,-5.15 1.5,-6.75 2.1,-9.4 0.3,-1.5 0.75,-3.25 1,-3.9 0.75,-1.95 0.55,-2.1 -2.55,-2.1 -2.05,0 -3,-0.2 -3,-0.6 0,-0.35 2.75,-6.1 6.05,-12.75 L 375.15,28 h 13.65 c 7.8,0 13.75,0.2 13.95,0.45 0.15,0.25 0.05,1 -0.2,1.65 -0.45,1.1 -1.4,5.55 -1.65,7.65 -0.15,0.95 0.2,1 7.05,1.15 l 7.2,0.15 -0.35,1.6 c -0.15,0.9 -0.5,2.5 -0.75,3.6 -0.25,1.1 -0.7,3.25 -1.05,4.75 -0.35,1.5 -0.8,3.55 -1,4.5 -0.2,0.95 -0.65,3 -1,4.5 -0.35,1.5 -0.8,3.55 -1,4.5 -0.2,0.95 -0.65,3 -1,4.5 -0.35,1.5 -0.8,3.55 -1,4.5 -0.2,0.95 -0.65,3 -1,4.5 -0.35,1.5 -0.8,3.55 -1,4.5 -0.2,0.95 -0.65,3 -1,4.5 -0.35,1.5 -0.8,3.55 -1,4.5 -0.2,0.95 -0.65,3 -1,4.5 -0.85,3.9 -1.55,6.95 -2.05,9.25 -0.25,1.1 -0.6,2.85 -0.8,3.9 l -0.3,1.85 h 7.55 c 4.15,0 7.65,0.2 7.8,0.4 0.15,0.2 -0.85,2.55 -2.2,5.2 -1.3,2.65 -2.3,4.95 -2.1,5.1 0.15,0.15 3.9,0.3 8.35,0.3 4.45,0 8.2,0.1 8.35,0.25 0.15,0.15 -2.45,5.75 -5.8,12.4 l -6.1,12.1 -26.15,0.15 -26.15,0.1 0.35,-2.35 c 0.2,-1.35 0.65,-3.65 1.05,-5.15 0.95,-3.65 0.95,-3.6 -1.15,-3.4 l -1.9,0.15 -0.25,5.25 -0.25,5.25 -12.95,0.15 c -9.75,0.1 -13.1,-0.05 -13.7,-0.5 -0.6,-0.5 -0.65,-1.5 -0.4,-5.5 l 0.35,-4.85 -6.15,-0.15 -6.15,-0.15 -0.15,-3.15 -0.15,-3.15 -5.1,0.15 -5.1,0.15 -1.5,3 c -0.8,1.7 -2.05,4.4 -2.75,6 -0.7,1.65 -1.85,4.1 -2.55,5.5 l -1.3,2.5 -12.85,0.15 c -10.55,0.1 -12.85,0 -13.1,-0.55 -0.15,-0.4 0.75,-2.8 2,-5.4 1.3,-2.6 2.3,-4.75 2.3,-4.85 0,-0.05 -2.05,-0.05 -4.6,0 -5.2,0.15 -4.7,-0.3 -5.9,5.65 -1.15,5.75 0.25,5.25 -14.55,5.25 -7.95,0 -13,-0.2 -13.2,-0.5 -0.15,-0.25 0.05,-2 0.5,-3.85 0.45,-1.9 0.85,-3.75 0.95,-4.15 0.1,-0.4 0.35,-1.15 0.55,-1.6 0.35,-0.85 -0.2,-0.9 -6.9,-0.9 -7.9,0 -8.2,-0.1 -7.35,-2.85 0.4,-1.25 1.7,-6.5 3,-12.4 0.25,-1.1 0.9,-3.95 1.45,-6.35 0.6,-2.45 1.5,-6.35 2.1,-8.75 0.55,-2.45 1.2,-5.3 1.45,-6.4 0.25,-1.1 0.9,-3.9 1.45,-6.25 0.55,-2.35 1.25,-5.5 1.6,-7 0.3,-1.5 0.75,-3.3 0.95,-4 0.2,-0.7 0.65,-2.6 1,-4.25 0.35,-1.65 1.05,-4.65 1.55,-6.6 1.4,-5.3 1.45,-5.15 -2.2,-5.15 -1.75,0 -3.3,-0.15 -3.45,-0.3 -0.15,-0.15 0.8,-2.4 2.15,-5.05 1.35,-2.65 2.45,-5 2.45,-5.25 0,-0.5 -3.55,-0.55 -4.25,0 -0.3,0.2 -1.65,2.6 -3,5.35 l -2.5,5 L 220.6,64 c -15.55,0.25 -15.8,0.3 -15.5,2.7 0.15,0.9 0.65,0.95 8.9,0.85 4.8,-0.05 9.05,0.15 9.4,0.35 0.55,0.35 0.25,1.3 -1.4,4.4 -1.15,2.2 -2.3,4.2 -2.6,4.55 -1.25,1.5 -0.15,1.75 8,1.7 6.5,-0.1 8.15,0.05 8.4,0.6 0.1,0.35 -0.6,2.25 -1.6,4.15 -1,1.9 -3.75,7.15 -6.05,11.7 -2.35,4.55 -4.5,8.55 -4.75,8.85 -0.4,0.45 -4,0.65 -13.85,0.75 l -13.3,0.15 -0.15,1.65 -0.15,1.6 h 10.5 c 9.85,0 10.55,0.05 10.55,0.9 0,0.5 -0.2,1.1 -0.45,1.4 -0.5,0.5 -4.55,8 -4.55,8.45 0,0.15 3.8,0.25 8.45,0.25 4.7,0 8.6,0.2 8.75,0.4 0.15,0.25 -0.05,0.95 -0.4,1.65 -0.6,1.1 -1.75,3.25 -6.4,11.95 -1,1.8 -2.55,4.7 -3.5,6.5 -0.95,1.8 -2.05,3.75 -2.45,4.4 l -0.7,1.1 h -27.8 c -30.1,0 -29.55,0.05 -28.5,-2.55 0.25,-0.65 0.7,-2.45 1.05,-3.95 0.3,-1.5 0.7,-3.15 0.85,-3.6 0.2,-0.8 -0.3,-0.9 -6.05,-0.9 -6.2,0 -6.3,0 -6.3,1.15 -0.05,0.6 -0.55,3 -1.15,5.35 l -1.15,4.25 h -15.5 -15.45 l 0.15,-2 c 0.1,-1.1 0.35,-2.65 0.6,-3.5 0.2,-0.8 0.55,-2.35 0.75,-3.35 l 0.3,-1.9 h -7 c -4.4,0 -7.1,-0.2 -7.3,-0.55 -0.2,-0.25 -0.15,-1.1 0.15,-1.85 0.45,-1.25 1,-3.55 2.2,-9.35 1.15,-5.55 2.2,-10.5 3.85,-17.85 0.3,-1.35 0.8,-3.4 1.05,-4.65 0.3,-1.25 0.75,-3.3 1.05,-4.6 0.3,-1.35 0.75,-3.35 1,-4.5 0.25,-1.2 0.7,-3.15 0.95,-4.4 0.3,-1.25 0.75,-3.25 1,-4.5 0.3,-1.25 0.75,-3.25 1,-4.5 0.3,-1.25 0.75,-3.25 1,-4.5 0.3,-1.25 0.75,-3.25 1,-4.5 0.3,-1.25 0.7,-3.2 1,-4.35 0.25,-1.2 0.7,-3.25 0.95,-4.65 0.3,-1.35 0.85,-3.85 1.25,-5.5 0.35,-1.65 0.5,-3.2 0.3,-3.4 -0.2,-0.25 -1.35,-0.35 -2.5,-0.25 -2.4,0.15 -2.35,0.15 -3.95,7.4 -0.35,1.5 -0.8,3.7 -1.05,4.9 -0.3,1.15 -0.7,3.1 -1,4.35 -0.25,1.25 -0.7,3.25 -1,4.5 -0.25,1.25 -0.7,3.2 -0.95,4.4 -0.3,1.15 -0.95,4.15 -1.55,6.6 -0.6,2.5 -1.25,5.45 -1.55,6.65 -0.25,1.15 -0.65,3.1 -0.95,4.35 -0.25,1.25 -0.7,3.25 -1,4.5 -0.25,1.25 -0.7,3.25 -1,4.5 -0.25,1.25 -0.7,3.2 -0.95,4.4 -0.25,1.15 -0.75,3.25 -1.05,4.6 -0.3,1.4 -0.75,3.4 -1,4.5 -0.25,1.1 -0.9,4.05 -1.5,6.5 -1.45,6.3 -2.3,10.05 -3.55,15.75 -0.3,1.5 -0.85,3.65 -1.2,4.75 l -0.6,2 -15.4,0.15 -15.4,0.1 0.3,-2.1 c 0.3,-2.2 0.9,-5.05 1.6,-7.5 l 0.35,-1.35 -7.15,-0.15 -7.2,-0.15 0.1,-1.75 c 0.1,-0.95 0.35,-2.65 0.6,-3.75 0.25,-1.1 0.75,-3.1 1.05,-4.5 0.3,-1.35 0.75,-3.3 1,-4.25 0.45,-1.7 1.05,-4.45 1.95,-8.6 0.25,-1.2 0.7,-3.2 1,-4.5 0.3,-1.35 0.8,-3.4 1.05,-4.65 0.3,-1.25 0.75,-3.25 1,-4.5 0.3,-1.25 0.75,-3.25 1,-4.5 0.3,-1.25 0.7,-3.2 0.95,-4.35 0.3,-1.2 0.95,-4.15 1.55,-6.65 1.05,-4.4 1.5,-6.55 2.45,-10.85 0.25,-1.2 0.75,-3.25 1.05,-4.65 0.7,-3.15 1.3,-5.75 2.05,-9.25 0.3,-1.5 0.75,-3.4 1,-4.2 0.85,-2.75 0.75,-2.85 -2.9,-2.7 l -3.4,0.15 -0.3,1.75 c -0.35,1.7 -1.1,5.3 -1.95,9 -0.2,0.95 -0.65,3 -1,4.5 -0.35,1.5 -0.8,3.55 -1,4.5 -0.2,0.95 -0.9,4.1 -1.5,7 -0.6,2.9 -1.3,6.05 -1.5,7 -0.2,0.95 -0.65,3 -1,4.5 -0.35,1.5 -0.8,3.55 -1,4.5 -0.2,0.95 -0.65,3 -1,4.5 -0.35,1.5 -0.8,3.55 -1,4.5 -0.2,0.95 -0.65,3 -1,4.5 -0.35,1.5 -0.8,3.55 -1,4.5 -0.2,0.95 -0.65,3 -1,4.5 -0.35,1.5 -0.8,3.55 -1,4.5 -0.2,0.95 -0.65,3 -1,4.5 -0.35,1.5 -0.8,3.55 -1,4.5 -0.2,0.95 -0.65,3 -1,4.5 -0.35,1.5 -0.8,3.65 -1.05,4.75 -0.25,1.1 -0.6,2.8 -0.75,3.75 -0.2,0.95 -0.55,2.05 -0.85,2.4 -0.55,0.7 -29.1,0.9 -29.55,0.15 z m 269.5,-47.4 c 1.65,-3.75 9.65,-20.65 13.15,-27.75 1.35,-2.7 2.3,-5 2.15,-5.15 C 297.45,64.1 295.45,64 293.2,64 h -4.15 l -0.5,1.9 c -0.5,1.8 -2.15,8.85 -3.05,12.85 -0.85,3.9 -2.45,10.55 -3.3,13.75 -1.6,6.2 -1.55,8.3 0.1,4.65 z"
       id="path4" />
    <path
       d="m 282.45,24.2 c -0.6,-0.75 -0.5,-1 0.75,-1.9 4,-2.9 5.45,-4.15 6.2,-5.4 0.8,-1.3 0.75,-1.35 -1.3,-3.35 l -2.05,-2 -1.1,1.5 c -0.7,1 -1.4,1.45 -2.15,1.35 -1.45,-0.2 -1.55,-1.9 -0.2,-3.4 1.95,-2.1 3.4,-5.45 3.4,-7.75 0,-1.3 0.3,-2.35 0.75,-2.75 0.9,-0.75 0.8,-0.8 1.95,1.65 0.75,1.7 1,1.85 2.85,1.85 1.1,0 2.45,-0.25 3,-0.55 3,-1.6 3.2,3.45 0.3,9.45 -0.8,1.6 -0.9,2.25 -0.45,2.7 0.9,0.9 0.75,2.75 -0.25,3.1 -0.45,0.2 -1,0.05 -1.2,-0.25 -0.2,-0.4 -1,0.15 -2.25,1.55 -2.15,2.35 -5.75,5 -6.85,5 -0.4,0 -1.05,-0.35 -1.4,-0.8 z m 9.9,-12.8 C 293.5,8.9 293.9,7.6 293.65,7.3 293.45,7.15 292.2,7 290.8,7 c -2.3,0 -2.6,0.15 -3.15,1.35 -0.85,1.75 -0.8,2.3 0,2 0.4,-0.15 1.35,0.25 2.15,0.95 1.8,1.45 1.9,1.45 2.55,0.1 z"
       id="path6" />
    <path
       d="M 550.6,24.4 C 550.25,24.05 550,22.3 550,19.85 V 15.9 l -2.6,0.3 c -3.05,0.35 -5.15,-0.45 -5.15,-1.95 0,-0.9 0.4,-1 3.2,-1.1 3.65,-0.15 4.6,-0.75 4.2,-2.8 C 549.4,9 549.3,8.95 547.25,9.3 544.95,9.6 543,8.95 543,7.8 c 0,-0.85 1.2,-1.35 3.7,-1.55 2.5,-0.25 2.95,-0.7 2.05,-2.45 -0.9,-1.7 -0.9,-1.8 0,-3 0.65,-0.9 0.75,-0.85 1.95,0.5 0.7,0.8 1.3,1.95 1.3,2.6 0,1 0.25,1.1 2.5,1.1 h 2.5 l -0.1,-1.6 c -0.15,-1.55 -0.05,-1.65 1.25,-1.5 0.85,0.1 1.45,-0.15 1.65,-0.65 0.5,-1.2 1,-0.9 2.25,1.5 1.1,2.1 1.15,2.3 0.35,3.05 -0.7,0.7 -1,0.75 -1.6,0.2 C 560.35,5.65 560,5.6 560,5.85 560,6.45 556.5,8 555.1,8 c -2,0 -2.6,0.55 -2.6,2.35 v 1.75 l 2.75,-0.35 c 3.3,-0.4 4.75,0 4.75,1.25 0,1.05 -2.55,2 -5.35,2 h -1.6 l -0.15,4.85 c -0.1,3.9 -0.3,4.9 -0.9,5.05 -0.45,0.05 -1.05,-0.15 -1.4,-0.5 z"
       id="path8" />
    <path
       d="m 657.9,24.3 c -1.15,-0.85 -1.15,-1.45 0.05,-2.5 2.45,-2.25 4,-8.65 2.65,-11.1 -0.4,-0.8 -0.4,-1.2 0,-1.6 0.9,-0.9 1.75,-0.7 2.8,0.6 l 0.95,1.2 1.45,-1.25 C 666.6,9 667.6,8.2 668,8 c 1.6,-0.9 -0.15,-1.05 -6.2,-0.4 -6.55,0.6 -7.4,0.5 -8.5,-1.25 -0.4,-0.6 -0.35,-1.05 0.3,-1.65 0.65,-0.65 1,-0.7 1.95,-0.2 0.9,0.5 2.2,0.5 5.9,0.1 10.35,-1.2 10.35,-1.2 11.25,-0.35 1.6,1.65 0.85,2.85 -4.7,7.5 -2.75,2.3 -4,3.7 -4,4.4 0,1.55 -3.05,7.4 -4.25,8.15 -0.8,0.5 -1.15,0.5 -1.85,0 z"
       id="path10" />
    <path
       d="m 187.7,23.8 c -0.2,-0.45 1.3,-2.3 4,-4.95 2.35,-2.35 4.3,-4.6 4.3,-5.05 0,-0.45 -0.9,-1.4 -2,-2.1 -1.4,-0.95 -2,-1.7 -2,-2.5 0,-1.65 1.65,-1.6 3.9,0.15 1.65,1.25 1.75,1.25 2.4,0.4 0.4,-0.5 0.7,-1.3 0.7,-1.75 0,-0.45 0.25,-1.05 0.6,-1.4 0.45,-0.45 0.45,-0.9 -0.05,-1.9 -0.5,-1.1 -0.45,-1.4 0.3,-1.95 1.15,-0.85 2.55,-0.15 2.95,1.5 0.3,1.2 -0.05,2.55 -1.6,6.1 -0.95,2.1 -0.95,2.1 1.05,4.15 1.2,1.25 1.7,2.1 1.45,2.65 -0.45,1.25 -2.35,1.05 -3.4,-0.4 -1.05,-1.4 -2.3,-1.65 -2.3,-0.5 0,0.4 -0.2,0.75 -0.4,0.75 -0.25,0 -0.75,0.6 -1.15,1.35 -0.95,1.8 -6.25,6.15 -7.5,6.15 -0.55,0 -1.1,-0.3 -1.25,-0.7 z"
       id="path12" />
    <path
       d="m 378.2,22.25 c -0.2,-0.45 0.55,-1.7 1.75,-3.1 C 383.35,15.35 386.3,8 384.5,8 384.25,8 384,7.55 384,7.05 c 0,-1.4 1.85,-1.85 3.1,-0.7 1.45,1.3 1,4.75 -1.25,9.3 -2.95,5.8 -6.7,9.1 -7.65,6.6 z"
       id="path14" />
    <path
       d="m 390.2,21.9 c -0.2,-0.3 -0.35,-4.25 -0.4,-8.7 -0.05,-8.65 0.1,-9.3 2.15,-7.85 1.05,0.7 1.1,1.05 0.95,6.45 -0.1,3.55 0.05,5.7 0.35,5.7 0.6,0 3.95,-5.1 4.7,-7.1 0.55,-1.45 2.15,-1.9 2.85,-0.85 1.35,2.25 -6.65,12.95 -9.7,12.95 -0.3,0 -0.7,-0.25 -0.9,-0.6 z"
       id="path16" />
  </g>
  <g
     fill="#ff0000"
     stroke="#ff000c"
     stroke-width="0.5"
     id="g72"
     style="fill:#000000"
     transform="translate(-0.25,-0.04605097)">
    <path
       d="m 720.75,159.9 c -0.15,-0.35 -2.05,-6.7 -4.25,-14.15 -2.25,-7.4 -4.95,-16.25 -6.05,-19.6 l -1.95,-6.15 1.6,-7 c 0.85,-3.85 1.75,-6.85 1.9,-6.65 0.2,0.25 1.35,3.9 2.6,8.15 2.15,7.4 13.2,44.05 13.65,45.4 0.15,0.45 -0.75,0.6 -3.55,0.6 -2.55,0 -3.8,-0.2 -3.95,-0.6 z"
       id="path20"
       style="fill:#000000" />
    <path
       d="m 365,142.9 c 0.05,-0.65 0.45,-2.85 0.9,-4.9 l 0.9,-3.75 18.2,-0.25 18.25,-0.25 3,-5.85 c 1.65,-3.25 3.25,-6.1 3.6,-6.45 0.35,-0.35 3.05,-0.5 8.2,-0.5 4.2,0.05 7.75,0.2 7.85,0.3 0.1,0.1 -2.35,5.25 -5.45,11.45 L 414.8,144 H 389.9 365 Z"
       id="path22"
       style="fill:#000000" />
    <path
       d="m 14,143.05 c 0,-0.85 1.9,-8.5 2.25,-9.05 0.2,-0.3 2.9,-0.5 7,-0.5 h 6.65 l 0.55,-1.6 c 0.3,-0.9 3.35,-14.6 6.85,-30.4 3.45,-15.8 7.4,-33.8 8.75,-40 1.4,-6.2 2.95,-13.25 3.5,-15.75 0.5,-2.45 1.05,-5 1.2,-5.6 C 51,39 51.05,39 60.95,39 c 8.5,0 10.1,0.1 10.8,0.8 0.4,0.45 0.65,1.2 0.55,1.65 -0.15,0.45 -0.5,1.95 -0.8,3.3 -0.95,4.55 -0.65,4.25 -5,4.25 -3.3,0 -3.95,0.15 -4.2,0.9 -0.25,0.8 -5,22.25 -13.8,62.35 -2.25,10.2 -4.7,21.3 -5.45,24.75 l -1.4,6.25 -13.85,0.15 C 19.3,143.45 14,143.35 14,143.05 Z"
       id="path24"
       style="fill:#000000" />
    <path
       d="m 65.4,143.25 c -0.1,-0.15 0.15,-1.9 0.65,-3.9 0.5,-1.95 0.95,-3.95 0.95,-4.4 0,-1.2 1.45,-1.45 8.85,-1.45 5.85,0 6.6,-0.1 6.85,-0.85 0.35,-1.2 1.15,-4.7 5.55,-24.4 5.15,-23.05 10.3,-46 12.5,-55.75 1.05,-4.55 2.15,-9.35 2.45,-10.75 l 0.55,-2.5 9.2,-0.15 c 9.45,-0.15 10.55,0.05 10.55,1.9 0,0.5 -0.35,2.45 -0.8,4.4 l -0.8,3.55 -3.3,0.15 -3.3,0.15 -1.3,5.5 c -0.75,3.05 -1.6,6.75 -1.95,8.25 -0.3,1.5 -1.15,5.25 -1.85,8.25 -0.7,3.05 -3.05,13.6 -5.25,23.5 -2.2,9.9 -4.45,19.9 -5,22.25 -1.55,6.65 -4.85,21.3 -5.75,25.4 L 94,143.5 H 79.8 c -7.75,0 -14.25,-0.1 -14.4,-0.25 z"
       id="path26"
       style="fill:#000000" />
    <path
       d="m 117,142.8 c 0,-1.05 1.9,-8.35 2.25,-8.7 0.2,-0.2 3.7,-0.4 7.8,-0.5 7.2,-0.15 7.45,-0.2 7.7,-1.25 1.15,-4.95 13.4,-58.4 16.25,-70.85 2,-8.65 5,-21.7 6.7,-29 l 3.1,-13.25 2.85,-0.15 c 4.6,-0.25 7.3,1.55 8.8,5.85 0.5,1.6 0.45,1.85 -0.85,3.1 -0.75,0.75 -2.55,3.6 -4,6.3 -1.45,2.7 -4.05,7.6 -5.85,10.9 -1.8,3.3 -3.25,6.3 -3.25,6.65 0,0.4 0.95,0.6 3,0.6 2.15,0 3,0.2 3,0.65 0,0.35 -1.35,6.85 -3,14.4 -1.65,7.55 -5.3,23.95 -8,36.45 -2.75,12.5 -5.3,24.1 -5.7,25.8 -0.4,1.8 -0.5,3.35 -0.25,3.85 0.3,0.45 0.05,2.5 -0.6,5.3 l -1.1,4.55 h -14.4 c -11.9,0 -14.45,-0.1 -14.45,-0.7 z"
       id="path28"
       style="fill:#000000" />
    <path
       d="m 160.9,143.25 c -0.15,-0.15 0.2,-2.25 0.75,-4.7 l 1,-4.45 1.8,-0.3 c 1,-0.15 10.15,-0.3 20.4,-0.3 h 18.6 l 0.95,-1.35 c 0.5,-0.8 2.25,-3.8 3.85,-6.75 l 2.9,-5.4 h 8.2 c 6.45,0 8.15,0.15 8.15,0.65 0,0.4 -1.4,3.25 -3.15,6.4 -1.75,3.15 -4.45,8.1 -6.05,11.1 l -2.85,5.35 H 188.3 c -14.9,0 -27.25,-0.1 -27.4,-0.25 z"
       id="path30"
       style="fill:#000000" />
    <path
       d="m 245,143.05 c 0,-0.95 1.95,-8.7 2.25,-9 0.2,-0.15 2.65,-0.4 5.5,-0.45 l 5.2,-0.2 1.25,-5.3 c 1.4,-5.95 10.7,-46.4 12.55,-54.6 1.55,-7.05 4.25,-18.55 4.55,-19.6 0.25,-0.8 1.2,-0.9 8.35,-1 l 8.1,-0.15 3,-6.15 c 1.65,-3.35 3.3,-6.35 3.7,-6.55 0.4,-0.25 1.45,-0.35 2.4,-0.2 0.95,0.15 1.95,0 2.4,-0.35 0.85,-0.7 -0.95,-1.55 30.25,14.4 6.75,3.45 12.6,6.55 13.1,6.95 0.7,0.65 0.85,0.55 1.15,-0.85 0.2,-0.9 0.2,-5.75 0,-10.8 l -0.35,-9.2 3.15,-0.05 c 1.75,-0.05 4.25,-0.1 5.55,-0.1 1.3,-0.05 2.45,0.05 2.6,0.2 0.15,0.15 0.3,12.15 0.35,26.7 l 0.05,26.5 -3.35,15 c -1.85,8.25 -3.85,17.25 -4.55,19.95 -0.65,2.7 -1.05,5.15 -0.9,5.35 0.15,0.25 2.3,0.45 4.75,0.45 h 4.5 l -0.15,4.65 -0.15,4.6 -12.35,0.15 -12.4,0.1 v -4.45 c 0,-3.05 0.2,-4.6 0.65,-4.9 0.3,-0.2 3.35,-0.45 6.75,-0.55 5.85,-0.2 6.1,-0.25 6.1,-1.3 0.2,-15.95 -0.15,-68 -0.45,-69.05 -0.25,-0.85 -0.5,-1.1 -0.5,-0.65 -0.05,0.6 -0.3,0.75 -0.9,0.55 C 346.65,63 336.7,58.1 325,52.3 313.3,46.5 303.55,41.8 303.3,41.75 c -0.4,0 -5.3,10.4 -5.3,11.3 0,0.25 1.15,0.45 2.5,0.45 1.4,0 2.5,0.1 2.5,0.25 0,0.15 -1,2.3 -2.25,4.75 L 298.5,63 h -5.25 -5.2 l -0.5,1.9 c -0.5,1.85 -2.9,12.25 -7.3,31.35 -2.25,9.9 -2.35,10.1 -7.6,21 -2.9,6.05 -5.85,12.2 -6.45,13.65 l -1.2,2.6 h 3 c 1.6,0 3.05,0.2 3.2,0.45 0.2,0.25 -0.15,2.5 -0.75,5 l -1.05,4.55 h -12.2 c -7.25,0 -12.2,-0.2 -12.2,-0.45 z"
       id="path32"
       style="fill:#000000" />
    <path
       d="m 279,143.3 c 0,-0.55 4.3,-9.1 4.75,-9.4 0.25,-0.2 2.15,-0.4 4.15,-0.4 h 3.65 l 2.75,-5.85 c 1.45,-3.25 3.3,-7.1 4.05,-8.55 l 1.4,-2.65 11.25,-0.05 11.25,-0.05 0.1,4.25 c 0.05,2.3 -0.1,4.55 -0.35,4.9 -0.3,0.5 -1.75,0.7 -5.45,0.75 -2.75,0 -5.15,0.2 -5.4,0.4 -0.2,0.25 -2.1,4.05 -4.2,8.5 l -3.8,8.1 -12.05,0.15 c -6.65,0.05 -12.1,0 -12.1,-0.1 z"
       id="path34"
       style="fill:#000000" />
    <path
       d="m 591,133.8 c 0,-0.3 1.6,-3.45 3.5,-7 1.95,-3.6 3.5,-6.65 3.5,-6.9 0,-0.2 -2.75,-0.4 -6.15,-0.4 h -6.1 l 5.5,-11.15 c 3,-6.1 7.75,-15 10.45,-19.8 4.1,-7.15 4.85,-8.85 4.4,-9.55 -0.45,-0.75 0.4,-2.9 4.45,-11.55 2.75,-5.9 5.2,-11.1 5.45,-11.55 1.05,-1.85 0.6,-2.35 -2.25,-2.5 l -2.7,-0.15 1.75,-3.5 c 0.95,-1.9 3.5,-7.3 5.6,-12 l 3.85,-8.5 19.9,-0.15 L 662,29 v 4.5 4.5 h -14.2 -14.2 l -1.1,2.35 c -2.8,6 -10.35,22.5 -10.65,23.3 -0.3,0.75 0,0.85 2.4,0.85 1.5,0 2.75,0.2 2.75,0.45 0,0.25 -2,4.6 -4.4,9.65 -2.45,5 -8.45,17.7 -13.35,28.15 -4.95,10.45 -10.35,21.7 -12,25 -2.75,5.5 -3.15,6.05 -4.6,6.3 -1.1,0.2 -1.65,0.15 -1.65,-0.25 z"
       id="path36"
       style="fill:#000000" />
    <path
       d="m 445,133.65 c -1.5,-0.55 -3.95,-3.35 -4.3,-4.85 -0.5,-2.2 -0.35,-3.85 1.05,-9.8 0.65,-2.9 3.15,-13.7 5.5,-24 2.35,-10.3 4.6,-20.1 5,-21.75 0.4,-1.65 2.3,-9.95 4.25,-18.45 1.95,-8.5 3.95,-16.4 4.45,-17.55 1.4,-3.2 3.75,-5.45 7.15,-7 l 3.15,-1.45 h 31.4 c 17.3,-0.05 31.65,0.1 31.95,0.25 0.3,0.2 -0.35,2 -1.55,4.35 l -2.05,4.05 -24.1,0.15 -24.15,0.15 -3.15,1.45 c -3.8,1.75 -7.2,5.3 -8.3,8.7 -0.75,2.25 -3.75,15.15 -12.05,51.6 -2.1,9.2 -4.45,19.45 -5.25,22.75 -0.75,3.3 -1.65,7.3 -2,8.9 l -0.55,2.85 -2.85,-0.05 c -1.55,0 -3.2,-0.15 -3.6,-0.3 z"
       id="path38"
       style="fill:#000000" />
    <path
       d="m 526,133.6 c 0,-0.45 9.1,-41.25 10.95,-49.25 1.5,-6.25 1.7,-5.85 -2.85,-5.85 h -3.9 l 1.65,-6.6 c 0.95,-3.65 1.95,-6.8 2.3,-7 0.35,-0.2 0.85,-0.55 1.15,-0.75 0.85,-0.6 13.2,-25.7 12.9,-26.2 -0.15,-0.25 -2.5,-0.45 -5.25,-0.45 -4.5,0 -5.85,-0.4 -4.45,-1.25 0.3,-0.2 1.3,-1.9 2.25,-3.8 L 542.5,29 h 31.05 31.05 l -0.7,1.15 c -0.4,0.6 -1.5,2.45 -2.45,4.1 -0.9,1.65 -1.9,3.15 -2.15,3.35 C 599,37.8 588.7,38 576.4,38 H 554 l -0.7,1.15 c -0.85,1.4 -13.3,24.9 -13.3,25.15 0,0.1 1.45,0.2 3.25,0.2 2.35,0 3.25,0.2 3.25,0.65 0,0.35 -1.15,5.5 -2.5,11.4 -1.4,5.9 -3.55,15 -4.75,20.25 -3.2,13.85 -7.65,32.6 -8.3,35.1 -0.55,2.05 -0.6,2.1 -2.75,2.1 -1.2,0 -2.2,-0.2 -2.2,-0.4 z"
       id="path40"
       style="fill:#000000" />
    <path
       d="M 636,130.4 V 127 h 5.5 5.55 l -0.15,3.35 -0.15,3.3 -5.35,0.1 -5.4,0.05 z"
       id="path42"
       style="fill:#000000" />
    <path
       d="M 675.35,133.65 C 675.15,133.5 675,124.05 675,112.7 V 92.1 l 3.5,-15.4 c 1.95,-8.5 3.85,-16.85 4.25,-18.55 1.15,-4.8 1.25,-4.65 -2.55,-4.65 -2.9,0 -3.3,-0.1 -3.05,-0.9 0.75,-2.65 11,-22.95 11.75,-23.35 0.85,-0.45 23.85,-0.65 24.3,-0.2 0.3,0.3 -1.6,8.05 -2.05,8.5 -0.25,0.25 -3,0.5 -6.1,0.55 l -5.7,0.15 -6.15,12.95 c -3.4,7.15 -6.2,13.05 -6.2,13.15 0,0.1 1.7,0.15 3.8,0.15 3.4,0 3.75,0.1 3.45,0.9 -0.35,0.9 -3,12.45 -10.75,46.35 -2.5,11 -4.7,20.5 -4.85,21.15 -0.2,0.8 -0.6,1.1 -1.6,1.1 -0.75,0 -1.55,-0.15 -1.7,-0.35 z"
       id="path44"
       style="fill:#000000" />
    <path
       d="m 484.15,117.65 c 0.2,-1.05 0.7,-3.1 1.1,-4.5 0.75,-2.5 0.9,-2.65 2.45,-2.65 0.95,0 1.95,-0.3 2.25,-0.7 0.5,-0.6 4.05,-15.8 4.05,-17.3 0,-0.25 -0.8,-0.5 -1.8,-0.5 -1.8,0 -1.8,-0.05 -1.5,-1.6 0.6,-3.2 4.65,-19.9 4.85,-20.1 0.3,-0.3 28.9,-0.5 29.2,-0.2 0.15,0.15 -0.15,2.05 -0.65,4.2 l -0.95,3.95 -8.1,0.15 -8.05,0.1 -1.2,1.9 c -2.2,3.45 -11.8,21.25 -11.8,21.85 0,0.4 1.2,0.5 4.2,0.35 2.35,-0.1 4.8,-0.1 5.45,0.1 l 1.2,0.3 -1.85,8.1 -1.8,8.15 -8.65,0.15 -8.7,0.1 z"
       id="path46"
       style="fill:#000000" />
    <path
       d="m 562,118.9 c 0,-0.35 0.2,-1.45 0.45,-2.4 0.3,-0.95 0.75,-2.7 1.05,-3.85 l 0.55,-2.15 h 10.2 c 6.1,0 10.25,0.2 10.25,0.45 0,0.3 -0.45,1.25 -0.95,2.15 -0.55,0.9 -1.5,2.65 -2.2,3.9 l -1.25,2.25 -9.05,0.15 c -7.05,0.1 -9.05,0 -9.05,-0.5 z"
       id="path48"
       style="fill:#000000" />
    <path
       d="m 632.15,110.9 c 0.2,-0.35 3.8,-8.5 8.1,-18.15 4.3,-9.6 7.9,-17.6 8.05,-17.75 0.35,-0.3 0.15,25.3 -0.15,26.65 -0.2,0.7 -0.85,0.85 -4.45,0.85 -4.85,0 -4.85,0 -9.05,5.9 -2.1,2.9 -3.15,3.95 -2.5,2.5 z"
       id="path50"
       style="fill:#000000" />
    <path
       d="m 385.1,107.9 c 1.95,-9.35 5.1,-23.75 5.65,-25.9 0.8,-3 9.25,-41.25 9.25,-41.7 0,-0.15 3.05,-0.3 6.75,-0.3 5.7,0 6.75,0.1 6.75,0.75 0,0.4 -0.55,3.05 -1.25,5.9 -0.65,2.8 -2.35,10.3 -3.7,16.6 -2.05,9.4 -8.85,40.3 -9.8,44.65 -0.25,1.05 -0.45,1.1 -7.05,1.1 -6.8,0 -6.8,0 -6.6,-1.1 z"
       id="path52"
       style="fill:#000000" />
    <path
       d="m 181.8,108.1 c -0.45,-0.1 -0.8,-0.4 -0.8,-0.65 0,-0.4 1.7,-8.45 2.75,-12.8 L 184,93.5 h 13.2 c 9.95,0 13.3,-0.15 13.7,-0.6 0.25,-0.35 1.85,-3.25 3.55,-6.4 1.7,-3.15 3.25,-5.9 3.45,-6.1 0.4,-0.4 15.95,-0.75 16.3,-0.35 0.3,0.25 -10.55,21.3 -11.65,22.6 -0.6,0.75 -2.2,0.85 -13.85,0.85 -14.45,0 -13.15,-0.3 -13.9,3.1 l -0.3,1.35 -5.95,0.15 c -3.25,0.1 -6.3,0.1 -6.75,0 z"
       id="path54"
       style="fill:#000000" />
    <path
       d="m 305.05,103.85 c -0.05,-0.2 0.5,-1.45 1.15,-2.75 0.65,-1.3 4.05,-9.1 7.55,-17.35 10.8,-25.4 10.7,-25.25 10.75,-23.25 0,0.95 -0.25,8.55 -0.6,16.85 l -0.6,15.1 -5,0.15 -5,0.15 -3.4,4.75 c -1.9,2.6 -3.75,5.2 -4.15,5.75 -0.4,0.55 -0.7,0.8 -0.7,0.6 z"
       id="path56"
       style="fill:#000000" />
    <path
       d="m 714,94.1 c 0,-0.35 0.35,-1.9 0.75,-3.5 0.6,-2.2 4,-16.35 6,-24.95 0.25,-1.15 0.35,-1.15 9.25,-1.15 7.25,0 9,0.15 9,0.7 0,0.55 -1.45,8.25 -2.3,12.2 -0.2,1.05 -0.4,1.1 -6.35,1.1 -3.35,0 -6.35,0.2 -6.65,0.4 -0.3,0.2 -2.5,3.75 -4.95,7.85 -4.75,8.2 -4.75,8.2 -4.75,7.35 z"
       id="path58"
       style="fill:#000000" />
    <path
       d="m 569.75,86.9 c 0.9,-3.65 2.15,-8.8 2.75,-11.4 0.6,-2.6 1.25,-4.95 1.5,-5.15 0.35,-0.4 18.95,-0.6 19.3,-0.2 0.1,0.05 -0.9,1.95 -2.2,4.1 l -2.35,4 -5.45,0.15 c -3.05,0.05 -5.8,0.35 -6.1,0.65 -0.35,0.3 -1.4,1.9 -2.35,3.6 -3.75,6.75 -6.2,10.85 -6.55,10.85 -0.1,0 0.55,-3 1.45,-6.6 z"
       id="path60"
       style="fill:#000000" />
    <path
       d="m 187.1,79.7 c 0.75,-3.3 2.45,-10.55 3.8,-16.2 L 193.25,53.25 208,53.1 222.75,53 l 3.4,-6.75 3.35,-6.75 2.15,0.3 c 1.15,0.2 2.15,0.4 2.25,0.45 0.1,0.1 -1.1,2.65 -2.6,5.7 -1.55,3.05 -2.8,5.85 -2.8,6.3 0,0.6 0.9,0.75 5.25,0.75 3.25,0 5.25,0.2 5.25,0.5 0,0.3 -1,2.55 -2.25,5 -1.55,3.05 -2.55,4.5 -3.15,4.5 -0.45,0 -7.15,0.05 -14.85,0.15 l -13.95,0.1 -0.5,2 c -0.55,2.5 -1.05,2.85 -3.45,2.5 -1.1,-0.15 -2.7,-0.15 -3.6,0.05 -1.55,0.25 -1.95,0.85 -5.95,8.1 -2.35,4.35 -4.55,8.25 -4.95,8.8 -0.4,0.6 -0.15,-1.25 0.75,-5 z"
       id="path62"
       style="fill:#000000" />
    <path
       d="m 242,62.7 c 0,-0.65 4.25,-8.95 4.75,-9.3 0.3,-0.2 1.15,-0.4 1.9,-0.4 1.1,0 1.35,0.2 1.15,0.9 -0.15,0.45 -0.6,2.35 -1.05,4.2 -1.15,5.05 -1,4.9 -4.05,4.9 -1.5,0 -2.7,-0.15 -2.7,-0.3 z"
       id="path64"
       style="fill:#000000" />
    <path
       d="m 724.55,46.9 c 1.05,-4.2 1.95,-7.95 1.95,-8.25 0,-0.5 -1.35,-0.65 -5.25,-0.65 -3.65,0 -5.25,-0.2 -5.25,-0.6 0,-0.45 3.7,-7.7 4.3,-8.35 0.15,-0.15 7.55,-0.2 16.55,-0.1 17.9,0.15 18.05,0.15 20.35,3.15 1.05,1.45 2.25,5.25 1.75,5.5 -0.1,0.05 -6.4,0.2 -13.95,0.35 l -13.75,0.3 -4,7.85 c -2.2,4.3 -4.15,7.95 -4.3,8.1 -0.15,0.2 0.55,-3.1 1.6,-7.3 z"
       id="path66"
       style="fill:#000000" />
    <path
       d="m 52,28.15 c 0.25,-0.8 0.8,-3.15 1.25,-5.25 0.8,-3.8 0.9,-3.9 2.3,-3.9 0.8,0 1.45,0.1 1.45,0.25 0,0.45 -5,10.25 -5.25,10.25 -0.1,0 0,-0.6 0.25,-1.35 z"
       id="path68"
       style="fill:#000000" />
    <path
       d="m 105.5,28.6 c 0,-0.25 0.3,-1.55 0.7,-2.9 0.4,-1.35 1,-3.4 1.3,-4.55 0.5,-2 0.65,-2.15 2.25,-2.15 0.95,0 1.75,0.1 1.75,0.25 0,0.35 -5.6,9.75 -5.8,9.75 -0.1,0 -0.2,-0.2 -0.2,-0.4 z"
       id="path70"
       style="fill:#000000" />
  </g>
  <g
     fill="#aa3c28"
     id="g94"
     transform="translate(-0.25,-0.04605097)">
    <path
       d="m 476.65,127.55 c -17.15,-8.5 -21.7,-11.05 -19.8,-11.05 0.45,0 39.85,20 40.4,20.55 1.2,1.2 -1.85,-0.25 -20.6,-9.5 z"
       id="path74" />
    <path
       d="m 508.8,105.55 c 0.25,-0.25 4.3,-1.5 9,-2.75 11.7,-3.1 14.7,-3.8 14.7,-3.3 0,0.5 -2.8,1.35 -14.35,4.3 -9.2,2.3 -10.15,2.5 -9.35,1.75 z"
       id="path76" />
    <path
       d="m 540,97.6 c 0,-0.65 2,-1.45 6.5,-2.55 5.6,-1.4 20.55,-5.55 21.05,-5.85 0.25,-0.15 0.45,0.15 0.45,0.7 0,0.8 -1.8,1.4 -13.1,4.3 -7.25,1.9 -13.55,3.5 -14,3.65 -0.5,0.1 -0.9,0 -0.9,-0.25 z"
       id="path78" />
    <path
       d="m 572,89.65 c 0.05,-1.45 2.55,-2.3 19.25,-6.65 4.4,-1.15 8.35,-2.3 8.75,-2.5 0.4,-0.2 2,-0.5 3.5,-0.7 2.75,-0.35 2.75,-0.35 1.75,0.65 -0.95,0.95 -2.55,1.4 -24.45,7.05 -4.4,1.15 -8.15,2.15 -8.4,2.3 -0.2,0.15 -0.4,0.1 -0.4,-0.15 z"
       id="path80" />
    <path
       d="m 376.75,78.05 c -6.3,-3.2 -11.55,-6 -11.6,-6.3 -0.1,-0.25 0.05,-0.8 0.3,-1.2 0.35,-0.55 2.9,0.6 12.35,5.45 6.6,3.35 12,6.15 12.1,6.25 0.35,0.3 -0.55,1.75 -1.1,1.7 -0.3,-0.05 -5.7,-2.7 -12.05,-5.9 z"
       id="path82" />
    <path
       d="m 622.5,76.1 c 0,-1.3 3.4,-2.45 20,-6.85 10.05,-2.7 21.3,-5.7 25,-6.75 3.7,-1 6.95,-1.7 7.15,-1.5 1.05,0.9 -0.7,2.35 -3.5,3 -1.6,0.35 -7.4,1.85 -12.9,3.35 -10.3,2.8 -34.95,9.15 -35.45,9.15 -0.15,0 -0.3,-0.2 -0.3,-0.4 z"
       id="path84" />
    <path
       d="m 342.75,61.15 c -13.05,-6.3 -39,-19.45 -39.1,-19.9 -0.1,-0.3 0.15,-0.95 0.55,-1.5 0.8,-1.1 -2.6,-2.65 30.3,14.15 6.75,3.4 12.6,6.6 13.05,7.05 0.5,0.5 0.7,1.15 0.5,1.7 -0.3,0.75 -0.85,0.6 -5.3,-1.5 z"
       id="path86" />
    <path
       d="m 690.5,58.1 c 0,-0.9 1.35,-2 3,-2.55 0.95,-0.25 7.7,-2.1 15,-4.1 7.3,-1.95 13.65,-3.65 14.15,-3.8 0.95,-0.3 1.2,1.05 0.4,2.3 -0.25,0.35 -3.8,1.5 -7.85,2.55 -4.1,1.05 -10.95,2.85 -15.2,3.95 -7.9,2.1 -9.5,2.35 -9.5,1.65 z"
       id="path88" />
    <path
       d="m 726.75,48.4 c 0.5,-1.6 1.4,-2.2 4.9,-3.15 1.7,-0.45 8.8,-2.3 15.75,-4.15 10.7,-2.85 13.1,-3.3 15.45,-3.1 1.55,0.15 2.9,0.5 3,0.8 0.1,0.3 -3.1,1.35 -7.95,2.6 -4.5,1.15 -13.3,3.45 -19.65,5.1 -6.3,1.65 -11.55,3 -11.65,3 -0.1,0 0,-0.5 0.15,-1.1 z"
       id="path90" />
    <path
       d="m 287.9,33.9 c -5.55,-2.85 -10.2,-5.45 -10.3,-5.75 -0.15,-0.5 0.75,-0.65 3.35,-0.65 2.05,0 3.55,0.2 3.55,0.5 0,0.3 3.5,2.25 7.75,4.35 6.4,3.2 7.75,4.05 7.75,4.95 0,0.9 -0.85,1.7 -1.75,1.7 -0.1,0 -4.75,-2.3 -10.35,-5.1 z"
       id="path92" />
  </g>
</svg>
