<?xml version="1.0" encoding="UTF-8" standalone="no"?>
<svg
   version="1.0"
   width="2000px"
   height="385px"
   viewBox="0 0 2000 385"
   preserveAspectRatio="xMidYMid meet"
   id="svg89"
   sodipodi:docname="mmfusion.svg"
   inkscape:version="1.1.2 (0a00cf5339, 2022-02-04, custom)"
   xmlns:inkscape="http://www.inkscape.org/namespaces/inkscape"
   xmlns:sodipodi="http://sodipodi.sourceforge.net/DTD/sodipodi-0.dtd"
   xmlns="http://www.w3.org/2000/svg"
   xmlns:svg="http://www.w3.org/2000/svg">
  <sodipodi:namedview
     id="namedview91"
     pagecolor="#ffffff"
     bordercolor="#666666"
     borderopacity="1.0"
     inkscape:pageshadow="2"
     inkscape:pageopacity="0.0"
     inkscape:pagecheckerboard="0"
     showgrid="false"
     inkscape:zoom="0.37794857"
     inkscape:cx="564.89167"
     inkscape:cy="174.62693"
     inkscape:window-width="1366"
     inkscape:window-height="697"
     inkscape:window-x="-8"
     inkscape:window-y="-8"
     inkscape:window-maximized="1"
     inkscape:current-layer="svg89" />
  <defs
     id="defs21">
    <radialGradient
       id="rg0"
       gradientUnits="userSpaceOnUse"
       cx="10.4%"
       cy="43.636364%"
       r="4.05%">
      <stop
         offset="0%"
         style="stop-color:rgb(243,211,211);"
         id="stop2" />
      <stop
         offset="6%"
         style="stop-color:rgb(241,207,206);"
         id="stop4" />
      <stop
         offset="9%"
         style="stop-color:rgb(239,199,198);"
         id="stop6" />
      <stop
         offset="10%"
         style="stop-color:rgb(239,200,200);"
         id="stop8" />
      <stop
         offset="17%"
         style="stop-color:rgb(232,176,175);"
         id="stop10" />
      <stop
         offset="22%"
         style="stop-color:rgb(230,169,169);"
         id="stop12" />
      <stop
         offset="58%"
         style="stop-color:rgb(194,46,46);"
         id="stop14" />
      <stop
         offset="60%"
         style="stop-color:rgb(191,35,34);"
         id="stop16" />
      <stop
         offset="100%"
         style="stop-color:rgb(180,0,0);"
         id="stop18" />
    </radialGradient>
  </defs>
  <g
     fill="#1d1d1b"
     id="g41">
    <path
       d="M460.5 102.8 c-7 -2.4 -12 -5.5 -17 -10.5 -6.9 -6.9 -9.5 -13.8 -9.5 -25.5 0 -7.4 0.4 -9.2 2.9 -14.1 3 -5.8 11.3 -14.7 13.8 -14.7 0.7 0 1.3 -0.4 1.3 -1 0 -0.5 0.9 -1 2 -1 1.1 0 2 -0.4 2 -0.9 0 -2.1 23.4 -4.1 25.3 -2.2 0.6 0.6 2.4 1.1 3.9 1.1 1.5 0 2.8 0.5 2.8 1 0 0.6 0.9 1 2 1 1.1 0 2 0.5 2 1 0 0.6 0.6 1 1.4 1 1.5 0 9.6 7.5 9.6 8.9 0 0.5 -0.8 1.9 -1.9 3.2 l-1.9 2.3 -3.3 -2.9 c-1.9 -1.7 -5.7 -4.1 -8.4 -5.4 -2.8 -1.3 -5.8 -2.8 -6.7 -3.3 -2.5 -1.1 -16.6 -1 -17.3 0.2 -0.3 0.6 -1.5 1 -2.5 1 -3.7 0 -12.6 6.7 -16.1 12.2 -3.2 4.9 -3.4 5.8 -3.4 13.8 0 7.5 0.3 9.1 2.8 13.2 3.4 5.9 10.8 11.6 15.9 12.4 2.1 0.4 3.8 1 3.8 1.5 0 1.2 15.7 1.1 16.5 -0.1 0.3 -0.5 1.5 -1 2.6 -1 2.4 0 9.7 -4.5 12.6 -7.8 2.1 -2.5 2.2 -2.5 4.7 -0.8 1.4 0.9 2.6 2.3 2.6 3 0 2 -10.8 11.6 -13.1 11.6 -1 0 -1.9 0.5 -1.9 1 0 0.6 -1.3 1 -2.9 1 -1.7 0 -3.3 0.5 -3.6 1 -0.8 1.3 -17.1 1.1 -21 -0.2z"
       id="path23"
       style="fill:#ffffff" />
    <path
       d="M519 68 l0 -36.1 3.6 0.3 3.5 0.3 -0.1 31.7 -0.1 31.7 13.8 0.3 13.8 0.3 0 3.5 0 3.5 -17.2 0.3 -17.3 0.2 0 -36z"
       id="path25"
       style="fill:#ffffff" />
    <path
       d="M563.5 102.7 c-0.3 -0.6 -0.4 -16.7 -0.3 -35.7 l0.3 -34.5 3.8 0 c2 0 3.7 0.3 3.7 0.8 0 0.4 0 16.5 0 35.7 l0 35 -3.5 0 c-2 0 -3.8 -0.6 -4 -1.3z"
       id="path27"
       style="fill:#ffffff" />
    <path
       d="M612.5 102.8 c-6.9 -2.4 -12 -5.5 -16.9 -10.3 -6.9 -6.9 -9.6 -14 -9.6 -25.7 0 -7.4 0.4 -9.2 2.9 -14.1 3 -5.8 11.3 -14.7 13.8 -14.7 0.7 0 1.3 -0.4 1.3 -1 0 -0.5 0.9 -1 2 -1 1.1 0 2 -0.4 2 -0.9 0 -2.1 23.4 -4.1 25.3 -2.2 0.6 0.6 2.4 1.1 3.9 1.1 1.5 0 2.8 0.5 2.8 1 0 0.6 0.9 1 2 1 1.1 0 2 0.5 2 1 0 0.6 0.6 1 1.4 1 1.5 0 9.6 7.5 9.6 8.9 0 0.5 -0.8 1.9 -1.9 3.2 l-1.9 2.3 -3.3 -2.9 c-1.9 -1.7 -5.7 -4.1 -8.4 -5.4 -2.8 -1.3 -5.8 -2.8 -6.7 -3.3 -2.5 -1.1 -16.6 -1 -17.3 0.2 -0.3 0.6 -1.5 1 -2.5 1 -3.7 0 -12.6 6.7 -16.1 12.2 -3.2 4.9 -3.4 5.8 -3.4 13.8 0 7.5 0.3 9.1 2.8 13.2 3.4 5.9 10.8 11.6 15.9 12.4 2.1 0.4 3.8 1 3.8 1.5 0 1.2 15.7 1.1 16.5 -0.1 0.3 -0.5 1.5 -1 2.6 -1 2.4 0 9.7 -4.5 12.6 -7.8 2.1 -2.5 2.2 -2.5 4.7 -0.8 1.4 0.9 2.6 2.3 2.6 3 0 2 -10.8 11.6 -13.1 11.6 -1 0 -1.9 0.5 -1.9 1 0 0.6 -1.3 1 -2.9 1 -1.7 0 -3.3 0.5 -3.6 1 -0.8 1.3 -17.1 1.1 -21 -0.2z"
       id="path29"
       style="fill:#ffffff" />
    <path
       d="M671 67.9 l0 -36 3.6 0.3 3.6 0.3 -0.1 12.9 -0.2 12.9 3.3 -2.8 c1.8 -1.5 8.4 -7.4 14.6 -13.1 10.3 -9.6 11.5 -10.4 15.2 -10.4 2.9 0 4 0.4 4 1.5 0 0.8 -0.4 1.5 -1 1.5 -0.5 0 -4.9 3.7 -9.7 8.3 -4.9 4.5 -11.9 10.9 -15.6 14.1 -3.7 3.2 -6.6 6.3 -6.5 6.7 0.4 1.1 21.5 23.7 29.9 32.1 3.7 3.6 6.5 6.9 6.2 7.2 -0.4 0.3 -2.4 0.6 -4.6 0.6 -3.6 0 -4.5 -0.6 -12.5 -9.2 -4.8 -5.1 -12 -12.6 -15.9 -16.7 l-7.3 -7.6 0 16.8 0 16.7 -3.5 0 -3.5 0 0 -36.1z"
       id="path31"
       style="fill:#ffffff" />
    <path
       d="M742.7 103.3 c-0.4 -0.3 -0.7 -14.7 -0.7 -32 l0 -31.3 -9.5 0 c-9 0 -9.6 -0.1 -10.4 -2.2 -0.5 -1.3 -0.5 -3.1 0.1 -4.1 0.8 -1.6 2.8 -1.7 24.5 -1.5 21.2 0.3 23.7 0.5 24.7 2.1 0.8 1.2 0.8 2.2 0 3.5 -0.9 1.4 -2.9 1.7 -11.3 2 l-10.1 0.3 0 31.9 0 32 -3.3 0 c-1.9 0 -3.7 -0.3 -4 -0.7z"
       id="path33"
       style="fill:#ffffff" />
    <path
       d="M778.8 69 c-0.2 -19.3 -0.1 -35.5 0 -36 0.2 -0.6 8.1 -1 20.8 -1 l20.4 0 0 4 0 4 -17 0 -17 0 0 10 0 10 17 0 17 0 0 4 0 4 -17 0 -17 0 0 14 0 14 17 0 17 0 0 4 0 4 -20.5 0 -20.4 0 -0.3 -35z"
       id="path35"
       style="fill:#ffffff" />
    <path
       d="M826 103.6 c0 -0.3 1.9 -4 4.2 -8.3 2.3 -4.3 4.1 -8 4 -8.3 -0.1 -0.3 2.5 -5.9 5.7 -12.5 3.3 -6.6 9.1 -18.6 13 -26.7 3.8 -8 7.5 -14.9 8 -15.2 0.8 -0.5 10.1 16.9 10.1 18.8 0 0.5 13.8 29.3 20.2 42.4 4.4 8.9 4.3 10.6 -0.8 10 -2.9 -0.3 -3.1 -0.7 -11 -17.5 l-2.9 -6.3 -14.8 0 c-16.2 0 -16.3 0 -18.7 6 -0.8 1.9 -3 6.7 -4.9 10.5 -3.5 6.9 -3.7 7 -7.8 7.3 -2.4 0.2 -4.3 0.1 -4.3 -0.2z m46 -32.6 c0 -0.8 -2.8 -7.1 -9 -20 -1.5 -3.2 -2.3 -2.1 -10.7 15.2 -1.3 2.6 -2.3 5 -2.3 5.3 0 0.3 5 0.5 11 0.5 6.6 0 11 -0.4 11 -1z"
       id="path37"
       style="fill:#ffffff" />
    <path
       d="M903.4 102.3 c0.3 -1 1.2 -8.1 2.1 -15.8 0.9 -7.7 2 -16.7 2.5 -20 0.5 -3.3 1.6 -12 2.5 -19.3 0.8 -7.4 1.8 -13.8 2.1 -14.3 0.9 -1.6 4.4 -1 5.1 0.9 0.3 0.9 1.6 4 2.8 6.7 1.3 2.8 3.5 7.9 5 11.5 1.5 3.6 4.8 11 7.4 16.5 2.6 5.5 6 13 7.6 16.7 l2.9 6.7 2.8 -4.9 c1.5 -2.7 2.8 -5.3 2.8 -5.7 0 -0.4 0.7 -2.1 1.6 -3.8 0.9 -1.6 4.5 -9.5 8.1 -17.5 8.1 -18 8.8 -19.6 10.7 -24.3 1.3 -3.1 2 -3.8 3.8 -3.5 2.1 0.3 2.4 1.2 3.5 8.3 1.5 10.2 5 38.1 6.3 50.8 0.6 5.3 1.1 10.3 1.3 11 0.1 0.8 -1.1 1.2 -3.2 1.2 l-3.5 0 -1.6 -11 c-1.4 -9.1 -4.1 -29.4 -5.3 -40.5 -0.3 -2.6 -1.4 -0.8 -6.8 11.5 -0.9 2.2 -4.1 9.2 -7 15.5 -2.8 6.3 -5.7 13.1 -6.4 15.1 -2.4 6.6 -4.5 9.9 -6.4 9.9 -2.4 0 -3 -0.9 -7.1 -10.5 -1.8 -4.4 -5.1 -11.8 -7.2 -16.3 -2.1 -4.6 -3.8 -8.6 -3.8 -8.8 0 -0.2 -1.1 -2.7 -2.4 -5.6 -1.3 -2.9 -3 -7 -3.7 -9 -1.5 -4.2 -2.9 -5 -2.9 -1.5 0 1.2 -0.7 7.4 -1.5 13.7 -0.9 6.3 -2.4 17.4 -3.4 24.5 l-1.7 13 -3.8 0.3 c-3.3 0.3 -3.7 0.1 -3.2 -1.5z"
       id="path39"
       style="fill:#ffffff" />
  </g>
  <g
     fill="#b50303"
     id="g45">
    <path
       d="M174.1 243.5 c-8.2 -2.3 -16.6 -7.3 -22.6 -13.2 -4.7 -4.7 -5.7 -5.3 -7.5 -4.3 -1.6 0.9 -2 0.8 -2 -0.5 0 -0.9 -1.2 -2.8 -2.6 -4.2 -2.3 -2.3 -2.4 -2.7 -1 -3.5 1.8 -1 2.1 -5 0.6 -7.8 -0.5 -1 -1.5 -5.1 -2 -9.2 -2.1 -14.7 2.9 -30.1 13.5 -41.6 4.7 -5.1 5.7 -6.7 4.9 -8 -0.9 -1.3 -0.2 -2 3.8 -4.1 4.1 -2.1 5.1 -2.3 5.8 -1.1 0.7 1.2 1.7 1.2 6.3 -0.3 10.7 -3.4 12.4 -1.6 5.4 5.6 -2.3 2.4 -5.1 6.1 -6.2 8.3 -1.1 2.1 -2.4 4.2 -3 4.6 -0.6 0.4 -1 5.6 -1 12 l0 11.3 4.3 7.5 c5.1 8.9 10.7 14.8 16.8 18.1 2.5 1.3 5.6 3 6.9 3.7 6.7 3.6 26 2.1 32.3 -2.5 1.9 -1.4 4.3 -2.3 5.8 -2.1 l2.5 0.3 -2.6 5.1 c-1.4 2.8 -5.1 7.9 -8.2 11.3 -4.7 5.3 -5.5 6.6 -4.6 8.1 1 1.5 0.5 2 -3.8 4.1 -4.1 1.9 -5.2 2 -5.9 1 -0.7 -1.2 -1.7 -1.1 -6.2 0.4 -7.2 2.5 -22.6 3 -29.7 1z"
       id="path43" />
  </g>
  <g
     fill="#4c4c4c"
     id="g63">
    <path
       d="M1944.8 382.5 c-7.8 -2.1 -13.5 -5.4 -17.2 -9.9 -3.7 -4.5 -27.3 -40.2 -86.3 -130.1 -5.7 -8.8 -18.6 -28.4 -28.6 -43.5 l-18.2 -27.5 -0.3 104.8 -0.2 104.7 -24.8 -0.2 -24.7 -0.3 0 -117.5 0 -117.5 2.3 -5.6 c5.1 -12.6 14.6 -19 31.5 -21.1 18.5 -2.3 32.2 1.5 41.3 11.5 2.9 3.1 14.7 20.2 26.3 37.9 11.5 17.8 32 49.2 45.5 69.8 13.4 20.6 32.5 49.9 42.3 65 l17.8 27.5 0.3 -105.2 0.2 -105.3 24 0 24 0 0 122.6 c0 81.4 -0.3 122.3 -1 121.9 -0.5 -0.3 -1 -0.1 -1 0.5 0 0.6 -2.2 3.5 -5 6.4 -8.4 8.9 -18.5 12.6 -34 12.5 -5.2 0 -11.6 -0.7 -14.2 -1.4z"
       id="path47"
       style="fill:#ffffff" />
    <path
       d="M432 273.8 c0 -91.5 0.2 -107.2 1.5 -112.7 3.9 -16.6 18 -30.5 36.7 -36.5 17.5 -5.5 18.8 -5.6 110.4 -5.6 l84.4 0 0 19 0 18.9 -76.2 0.4 c-65.2 0.3 -77 0.5 -81.3 1.8 -12.5 3.9 -17.9 7.8 -21.1 15.4 -1.3 3.2 -1.8 8.5 -2.2 26.6 -0.2 12.5 -0.2 24.3 0.2 26.3 l0.7 3.6 89.9 0 90 0 0 19 0 19 -89.5 0 c-49.3 0 -90 0.2 -90.5 0.5 -0.5 0.3 -0.9 3.6 -0.8 7.3 0 3.7 0 28.4 -0.1 55 l-0.1 48.2 -26 0 -26 0 0 -106.2z"
       id="path49"
       style="fill:#ffffff" />
    <path
       d="M789.6 379 c-20.6 -2.5 -36 -10 -48.8 -23.9 -7.4 -7.9 -10.5 -14.5 -11.8 -25.1 -0.6 -5.3 -1 -46.1 -1 -110.2 l0 -101.8 26 0.2 26.1 0.3 0.2 99 c0.3 112 -0.2 105.9 8.1 114.1 8.7 8.8 26.5 11 80.6 10.1 41.6 -0.7 50.1 -2.3 57.8 -11.1 6.4 -7.3 6.2 -3.8 6.2 -113.3 l0 -99.3 26.3 0.2 26.2 0.3 0.3 99.5 c0.3 103.3 0 113.1 -3.8 123.3 -4.1 11 -16.9 23.5 -31.4 30.7 -15.4 7.5 -13.1 7.3 -87.6 7.6 -36.6 0.1 -69.6 -0.2 -73.4 -0.6z"
       id="path51"
       style="fill:#ffffff" />
    <path
       d="M1032.1 361 l0.3 -19 67.5 0 c71.7 -0.1 83.2 -0.6 93.3 -3.9 13.7 -4.5 16.5 -9.8 17.5 -32.2 0.9 -20.6 -1.7 -27.8 -12.1 -33.1 -9.4 -4.8 -11.7 -5 -59.6 -5.8 -39.8 -0.7 -46.6 -1 -54.5 -2.8 -23.8 -5.2 -41.3 -16.4 -48.1 -30.7 -3.8 -8.2 -4.3 -12.8 -4.4 -40 0 -28.2 0.6 -32.8 5.6 -42.6 5.4 -10.7 19.8 -22.6 32.7 -26.8 16.8 -5.6 13.4 -5.4 106.4 -5.8 l86.2 -0.4 0.6 2.3 c0.3 1.3 0.4 10 0.3 19.3 l-0.3 17 -77 0.5 -77 0.5 -6.5 2.3 c-7.5 2.7 -12.4 6.1 -14.4 10 -3.6 7 -5.2 34.5 -2.4 41.2 3.3 7.8 9.3 12.3 21.1 15.7 4.2 1.2 14.6 1.7 52.2 2.3 46 0.7 47.2 0.8 56.5 3.2 23.5 6.3 37.4 17 44.2 33.8 2.1 5.1 2.3 7.5 2.6 33.2 0.2 16.1 -0.1 30.5 -0.7 34.4 -3.8 24.8 -25.6 41 -61.1 45.3 -5.3 0.7 -38.7 1.1 -88.8 1.1 l-80.3 0 0.2 -19z"
       id="path53"
       style="fill:#ffffff" />
    <path
       d="M1328.2 248.8 l0.3 -131.3 26 0 25.9 0 0 6.5 c0 3.6 -0.1 62.6 -0.2 131.3 l-0.2 124.7 -26 0 -26 0 0.2 -131.2z"
       id="path55"
       style="fill:#ffffff" />
    <path
       d="M1499.2 378.9 c-21.2 -2.5 -37.1 -9 -47.4 -19.2 -7.5 -7.4 -11.1 -13.8 -13.8 -24.3 -1.9 -7.4 -2 -11.2 -2 -85.3 0 -86.2 0 -85.6 6.6 -98.1 9.8 -18.7 30.9 -30.1 61.1 -33 13.2 -1.3 104.5 -1.3 117.4 0 27.3 2.7 46.8 11.9 57 26.6 1.6 2.4 4.2 7.4 5.7 11.1 l2.7 6.8 0 84.5 c0 89.8 0.1 88.6 -4.8 98.5 -7.6 15.6 -22.8 25.6 -46.7 30.8 -8.9 1.9 -13.3 2 -69 2.3 -32.7 0.1 -62.8 -0.2 -66.8 -0.7z m101.5 -37.9 c17.3 -1.5 26.2 -5.5 31.1 -13.9 2.2 -3.8 2.7 -6 3.1 -15.5 0.8 -15.7 0.5 -127.6 -0.3 -132.2 -1 -5.2 -4.9 -11.8 -8.9 -14.8 -1.7 -1.3 -6.3 -3.5 -10.2 -4.8 -6.9 -2.3 -7.4 -2.3 -53.5 -2.3 l-46.5 0 -7.5 2.5 c-9.7 3.2 -15.1 8.3 -17.7 16.7 -1.7 5.3 -1.8 11.1 -1.8 73.3 l0 67.5 2.2 4.8 c5.8 12.5 13.7 17.1 32.3 18.7 12.6 1.1 66 1.1 77.7 0z"
       id="path57"
       style="fill:#ffffff" />
    <path
       d="M254.4 302.6 c-3.3 -7.2 -4.4 -12.6 -2.5 -12.6 0.5 0 1.2 0.6 1.5 1.3 0.5 0.9 0.7 0.9 1.2 0 0.3 -0.6 4.3 -6.6 8.9 -13.1 27.4 -39.2 44.8 -73.1 50 -97.9 4.1 -19.1 -0.9 -30.6 -14.3 -33.4 -10 -2 -23.7 1.4 -43.7 11 -18.4 8.9 -22.8 11.7 -22.2 14.2 0.4 1.4 0 1.9 -1.7 1.9 -1.5 0 -2.9 -1.2 -4.4 -3.9 -2.6 -4.6 -3 -9.3 -0.7 -8.5 0.9 0.4 6.1 -2.9 13.2 -8.2 6.5 -4.9 19.5 -13.9 28.8 -20.1 22.9 -15.2 21.2 -13.8 19.8 -15.5 -1 -1.1 0.3 -2.2 7.2 -6 4.7 -2.5 8.7 -4.2 9.1 -3.7 1 1.7 3.9 0.9 15.1 -4.1 21.1 -9.4 37.1 -12.7 47.5 -9.6 17.8 5.1 18.2 27.9 1.2 63.6 -17.5 36.7 -47.3 79.9 -87.3 126.4 -18.3 21.4 -20.2 23.7 -19.5 24.7 0.3 0.5 -0.4 0.9 -1.6 0.9 -1.7 0 -2.9 -1.6 -5.6 -7.4z"
       id="path59"
       style="fill:#999999" />
    <path
       d="M15.1 280.6 c-5 -1.8 -10.8 -7.1 -12.1 -11.1 -0.6 -1.9 -1.6 -3.5 -2.1 -3.5 -1.5 0 -1.1 -22.9 0.5 -24.5 0.7 -0.8 1.7 -3.6 2.1 -6.2 1.5 -10.4 14.1 -38.1 26.8 -59 18.1 -29.8 44.5 -65.1 70 -93.6 4.6 -5.3 7.6 -9.5 7.3 -10.3 -0.3 -0.9 0.1 -1.4 1.4 -1.4 2.5 0 9 12.9 9 17.8 0 2.7 -0.3 3.2 -1.3 2.4 -0.9 -0.8 -2.5 0.8 -6.5 6.6 -30.8 44.8 -48.2 83.9 -48.4 108.9 0 7.7 0.4 10 2.5 14.6 4.1 9 10.8 12.7 23.2 12.7 11.5 0 28.4 -5.1 45.9 -13.7 3.7 -1.9 7.5 -3.2 8.2 -2.9 0.8 0.3 2.1 2 2.9 3.8 1.7 4 2.8 2.9 -17.5 16.7 -16.8 11.4 -31.6 20.4 -41.4 25.1 -4.5 2.3 -6.3 3.6 -5.3 3.9 2.4 0.9 0.9 2.3 -6.5 5.8 -5.8 2.8 -7.1 3.1 -9.3 2.1 -1.9 -0.8 -3.1 -0.8 -4.8 0 -11.9 5.9 -35.7 9 -44.6 5.8z m57.4 -11.4 c-0.3 -0.3 -1.1 0 -1.8 0.7 -0.9 1 -0.8 1.1 0.6 0.5 1 -0.3 1.5 -0.9 1.2 -1.2z"
       id="path61"
       style="fill:#999999" />
  </g>
  <g
     fill="#c33130"
     id="g69">
    <path
       d="M207.6 223.2 c-0.3 -0.2 -2 -0.5 -3.8 -0.7 -5.3 -0.4 -10.1 -1.5 -12.4 -2.8 -1.3 -0.7 -4.3 -2.3 -6.8 -3.6 -10 -5.3 -19.9 -19.8 -21.5 -31.7 -1 -6.7 0.1 -22.2 1.6 -23.3 0.5 -0.3 1.7 -2.4 2.8 -4.5 2.9 -5.8 9.6 -12.2 13.4 -12.9 1.9 -0.4 5.3 -0.7 7.6 -0.7 8.4 0 9.7 2.2 3.8 6.2 -10.7 7.1 -17.3 18.2 -17.3 28.6 0 7.7 5.1 18.5 11.3 23.7 12.8 11 27.2 11.9 39.9 2.4 2.5 -1.9 5.4 -4.6 6.3 -6.1 0.9 -1.6 2.5 -2.8 3.6 -2.8 1.5 0 1.9 0.7 1.9 3.3 0 3.3 -1.4 9.3 -3.1 13.7 -1.2 3.1 -7.4 7.6 -11.4 8.3 -1.7 0.3 -4.1 0.9 -5.5 1.2 -1.4 0.3 -3.2 0.8 -4 1 -0.8 0.2 -1.5 0.4 -1.5 0.5 0 0.4 -4.6 0.6 -4.9 0.2z m1.4 -0.7 c0 -0.3 -0.2 -0.5 -0.5 -0.5 -0.3 0 -0.5 0.2 -0.5 0.5 0 0.3 0.2 0.5 0.5 0.5 0.3 0 0.5 -0.2 0.5 -0.5z m3 0 c0 -0.3 -0.2 -0.5 -0.5 -0.5 -0.3 0 -0.5 0.2 -0.5 0.5 0 0.3 0.2 0.5 0.5 0.5 0.3 0 0.5 -0.2 0.5 -0.5z"
       id="path65" />
    <path
       d="M187 218.5 c0 -0.3 0.2 -0.5 0.5 -0.5 0.3 0 0.5 0.2 0.5 0.5 0 0.3 -0.2 0.5 -0.5 0.5 -0.3 0 -0.5 -0.2 -0.5 -0.5z"
       id="path67" />
  </g>
  <g
     fill="#cf5a59"
     id="g73">
    <path
       d="M197.8 212.7 c-5.9 -1.7 -14.8 -7.5 -18.2 -11.9 -5.4 -7.1 -7.7 -14.1 -7.7 -23.1 -0.1 -7.2 0.3 -9.3 2.9 -14.8 3 -6.6 7.8 -12.1 14.7 -16.9 l4 -2.8 6.5 1.7 c6.7 1.7 17.1 6.9 17.8 8.9 0.5 1.5 -5.6 1.6 -9.4 0.2 -2.1 -0.8 -3.6 -0.6 -7.8 1.4 -12.7 5.9 -19.3 18.5 -15.2 28.7 3.9 9.7 13.8 17.2 22.7 17.1 9.7 -0.2 21 -10.1 23.1 -20.4 0.7 -3.2 1.7 -5.8 2.3 -5.8 1.7 0 3.5 6.4 4.2 14.6 0.5 6.2 0.3 7.4 -1.7 10.5 -2.8 4.3 -10.1 9.8 -15.5 11.7 -5.6 2 -17.1 2.4 -22.7 0.9z"
       id="path71" />
  </g>
  <g
     fill="#868686"
     id="g79">
    <path
       d="M228 378.1 c-34.1 -7.4 -86.6 -38.6 -140.2 -83.4 -13.6 -11.3 -23.8 -20.4 -23.8 -21.2 0 -0.7 3.9 -2.6 6.1 -3 1.1 -0.2 2.6 -1.1 3.5 -1.9 1.5 -1.6 3.3 -2 6.7 -1.6 1 0.1 5.8 2.8 10.5 6 33.6 22.6 69.5 39.6 92 43.5 15.2 2.7 24.2 1.5 32.3 -4.1 4.7 -3.2 8.5 -10.7 9.4 -18.5 1.2 -10.6 -5.6 -34.8 -14.6 -52.1 -0.8 -1.4 -0.2 -2.1 3.2 -3.8 2.2 -1.2 4.7 -1.9 5.5 -1.6 4.2 1.6 41.2 63.8 43 72.3 0.1 0.6 1.3 4 2.7 7.5 5.5 13.7 7.2 21.6 7.2 34.3 0 10.4 -0.3 12.5 -2.2 16 -2.8 5.2 -6.8 9 -11.8 11.1 -6 2.5 -19.3 2.8 -29.5 0.5z"
       id="path75"
       style="fill:#cccccc" />
    <path
       d="M151.2 145.3 c-6.9 -9.4 -22.9 -33.9 -29.5 -45.3 -13.3 -22.8 -23.1 -46.1 -26.3 -62.6 -3 -15.7 -1.1 -25 6.7 -32.6 l4.8 -4.8 15.5 0 c9.3 0 15.6 0.4 15.6 1 0 0.5 1.7 1.2 3.8 1.6 5.7 1 16.6 5.1 28.7 10.8 34.7 16.4 82.8 49.8 127.2 88.4 6.7 5.8 8.9 8.3 8 8.9 -0.7 0.6 -4.4 2.7 -8.3 4.8 l-7.1 3.8 -14.4 -9.5 c-43.7 -28.6 -78.9 -43.8 -102 -43.8 -13.9 0 -20.3 3.4 -24.7 12.8 -2.3 5 -2.4 6.3 -1.9 15.6 0.7 12.3 4.1 23.4 12.7 41.3 l5.9 12.2 -3.3 2.1 c-1.9 1.1 -4 2 -4.9 2 -0.8 0 -3.7 -3 -6.5 -6.7z"
       id="path77"
       style="fill:#cccccc" />
  </g>
  <g
     fill="#df9190"
     id="g83">
    <path
       d="M196.3 201.9 c-21.4 -10.2 -20.7 -39 1.2 -49.5 8.8 -4.2 16.8 -2.6 24.9 5.1 5.9 5.6 12.6 16.7 12.6 20.9 0 5.8 -2.2 11.4 -6.6 16.4 -8.7 10 -20.6 12.6 -32.1 7.1z m18.7 -17.4 c1.9 -1.9 2.5 -3.6 2.5 -6.8 0 -3.9 -2 -7.7 -4 -7.7 -0.4 0 -1.3 -0.7 -2.1 -1.5 -1.7 -1.7 -5.4 -2 -5.4 -0.6 0 0.5 -1 1.1 -2.2 1.3 -1.5 0.2 -3.1 1.8 -4.6 4.5 -2.2 4 -2.2 4.4 -0.7 7.3 3.6 7 11.4 8.6 16.5 3.5z"
       id="path81" />
  </g>
  <g
     fill="#f4d6d5"
     id="g87">
    <path
       d="M204.2 190.9 c-1.2 -0.5 -2.2 -0.6 -2.2 -0.4 0 0.3 -1.2 -0.5 -2.6 -1.8 -4.9 -4.2 -7 -11 -4.6 -15.3 0.6 -1.2 0.8 -2.4 0.5 -2.8 -0.3 -0.3 0 -0.6 0.7 -0.6 0.7 0 1 -0.3 0.7 -0.6 -1 -1 4.2 -4.6 5.4 -3.8 0.8 0.4 0.9 0.3 0.5 -0.4 -0.4 -0.8 0.1 -1.2 1.3 -1.3 1.2 -0.1 3.1 -0.2 4.4 -0.3 11.5 -0.9 18.1 16.6 9.1 24.5 -3.4 3 -9.3 4.2 -13.2 2.8z m11.8 -24.4 c0 -0.3 -0.2 -0.5 -0.5 -0.5 -0.3 0 -0.5 0.2 -0.5 0.5 0 0.3 0.2 0.5 0.5 0.5 0.3 0 0.5 -0.2 0.5 -0.5z"
       id="path85" />
  </g>
</svg>
