<svg id="Layer_1" data-name="Layer 1" xmlns="http://www.w3.org/2000/svg" xmlns:xlink="http://www.w3.org/1999/xlink" viewBox="0 0 3839.19995 1292.5"><defs><linearGradient id="Dégradé_sans_nom" x1="1919.5498" y1="1289.88983" x2="1919.5498" y2="884.68982" gradientTransform="matrix(1, 0, 0, -1, 0, 1289.88983)" gradientUnits="userSpaceOnUse"><stop offset="0" stop-color="#23bfd4"/><stop offset="0.7055" stop-color="#3f4da0"/></linearGradient><linearGradient id="Dégradé_sans_nom_2" x1="1404.5" y1="952.88983" x2="1404.5" y2="1282.58983" gradientTransform="matrix(1, 0, 0, -1, 0, 1289.88983)" gradientUnits="userSpaceOnUse"><stop offset="0" stop-color="#fff" stop-opacity="0"/><stop offset="0.7031" stop-color="#fff" stop-opacity="0.5"/></linearGradient><linearGradient id="Dégradé_sans_nom_3" x1="1404.5" y1="885.08984" x2="1404.5" y2="1214.68983" xlink:href="#Dégradé_sans_nom_2"/><linearGradient id="Dégradé_sans_nom_4" x1="2087.15002" y1="953.08984" x2="2087.15002" y2="1214.68983" xlink:href="#Dégradé_sans_nom_2"/><linearGradient id="Dégradé_sans_nom_5" x1="2375.70007" y1="885.08981" x2="2375.70007" y2="1225.98983" xlink:href="#Dégradé_sans_nom_2"/><linearGradient id="Dégradé_sans_nom_6" x1="2247.05005" y1="884.98984" x2="2247.05005" y2="1289.68983" xlink:href="#Dégradé_sans_nom_2"/><linearGradient id="Dégradé_sans_nom_7" x1="1734.80005" y1="884.98984" x2="1734.80005" y2="1282.58983" xlink:href="#Dégradé_sans_nom_2"/><linearGradient id="Dégradé_sans_nom_8" x1="1768.79993" y1="951.48984" x2="1768.79993" y2="1075.98984" gradientTransform="matrix(1, 0, 0, -1, 0, 1289.88983)" gradientUnits="userSpaceOnUse"><stop offset="0" stop-color="#fff" stop-opacity="0"/><stop offset="0.7031" stop-color="#fff" stop-opacity="0.2"/></linearGradient><linearGradient id="Dégradé_sans_nom_9" x1="1768.10004" y1="1090.18983" x2="1768.10004" y2="1214.68983" xlink:href="#Dégradé_sans_nom_2"/><linearGradient id="Dégradé_sans_nom_10" x1="1919.59985" y1="770.68988" x2="1919.59985" y2="-2.61017" gradientTransform="matrix(1, 0, 0, -1, 0, 1289.88983)" gradientUnits="userSpaceOnUse"><stop offset="0" stop-color="#23bfd4"/><stop offset="0.7031" stop-color="#3f4da0"/></linearGradient><linearGradient id="Dégradé_sans_nom_11" x1="1919.59998" y1="-2.61017" x2="1919.59998" y2="770.68988" xlink:href="#Dégradé_sans_nom_2"/></defs><path d="M1490.1,274.7c0-34-28.30005-62.2-62.2-62.2h-45.3c-41,0-75-34-75-75s34-75,75-75H1558V7.3H1381.2a130.2,130.2,0,0,0,0,260.4H1426.5a6.71827,6.71827,0,0,1,7.1,7.1c0,4.2-2.80005,7.1-5.7,7.1H1251V337h176.80005C1461.80005,337,1490.1,308.7,1490.1,274.7Zm-62.29993-129.9H1382.5a6.71827,6.71827,0,0,1-7.1-7.1,6.12958,6.12958,0,0,1,5.7-5.7H1558V75.4L1381.2,75.5C1347.2,75.5,1319,103.8,1319,137.8s28.30005,62.2,62.30005,62.2h45.30005c41,0,75,33.9,75,74.9s-33.9,75-74.9,75l-175.4.1v55.2l176.80005-.1a130.15013,130.15013,0,1,0-.30005-260.3Zm615.5-14.4h157V75.2H2016.4c-24.1,0-42.4,18.4-42.4,42.4V294.4c0,24.1,18.4,42.4,42.4,42.4H2131V212.5h-87.69995v55.2h32.5v12.7h-32.5a12.65413,12.65413,0,0,1-12.69995-12.7V143.1A12.654,12.654,0,0,1,2043.30005,130.4ZM2493.2,337,2405.5,76.7c-2.8-7.1-8.5-12.7-17-12.7-7.1001,0-14.1001,5.7-17,11.3l-113.2,329.6h65.1001l39.60009-117.4V337ZM2387.1001,218.1,2405.5,274.7h-38.2ZM2473.30005,65C2462,28.3,2428,0,2387,0s-75,26.9-84.8999,63.7L2199,366.5l-.1001-222.1-155.6.1v55.2l101.9-.1.1001,150-127.3.1a55.22264,55.22264,0,0,1-55.19995-55.1l-.1-176.8a55.2227,55.2227,0,0,1,55.1-55.2l182.5-.1V7.3l-183.9.1c-60.8,0-110.3,49.6-110.3,110.4l.1,176.8c0,60.8,49.6,110.3,110.4,110.3l227.79992-.1L2358.7998,72.3c4.2-12.7,15.6001-21.2,29.7-21.2,14.10009,0,25.5,8.5,29.69995,21.2l93.5,277.2-147.1001.1v55.2l223.5-.1ZM1640.1,294.5V117.7a55.3076,55.3076,0,0,1,55.19995-55.2h189.6V7.3h-189.6a110.55687,110.55687,0,0,0-110.4,110.4V294.5a110.55688,110.55688,0,0,0,110.4,110.4h189.6V349.7h-189.6A55.24279,55.24279,0,0,1,1640.1,294.5Zm80.70007-11.2c-7.1-1.4-12.69995-7.1-12.69995-14.1l137.19995-.1V213.9l-192.4.1v82.1c0,24.1,18.4,42.4,42.5,42.4l189.6-.1V283.2ZM1720.7,131.8H1883.3999V75.2H1695.2c-24.1,0-42.4,18.4-42.4,42.4v82.1h192.4V144.5H1708A12.718,12.718,0,0,1,1720.7,131.8Z" transform="translate(0 0)" style="fill:url(#Dégradé_sans_nom)"/><path d="M1552.6,12.7V57.1H1382.5a80.18651,80.18651,0,0,0-56.69995,137.1A79.69725,79.69725,0,0,0,1382.5,217.9h45.30005a56.73674,56.73674,0,0,1,40.1,16.8,56.15016,56.15016,0,0,1,16.80005,40.1,57.36525,57.36525,0,0,1-56.9,56.9h-171.5V287.3h171.5c6.1,0,11-5.6,11-12.5a12.08193,12.08193,0,0,0-12.5-12.5H1381A124.87529,124.87529,0,0,1,1292.7,49.3,124.02346,124.02346,0,0,1,1381,12.9h171.6m5.4-5.6H1381.2a130.2,130.2,0,0,0,0,260.4H1426.5a6.71827,6.71827,0,0,1,7.1,7.1c0,4.2-2.80005,7.1-5.7,7.1H1251V337h176.80005c34,0,62.19995-28.3,62.19995-62.2,0-34-28.30005-62.2-62.19995-62.2H1382.5c-41,0-75-34-75-75s34-75,75-75H1558V7.3Z" transform="translate(0 0)" style="fill:url(#Dégradé_sans_nom_2)"/><path d="M1552.6,80.6v45.8H1381.1a11.44458,11.44458,0,0,0-11,11,12.08194,12.08194,0,0,0,12.5,12.5h45.3a124.70023,124.70023,0,1,1,0,249.4H1256.4V354.9h170.1a80.40058,80.40058,0,0,0,0-160.8H1381.2a56.73674,56.73674,0,0,1-40.1-16.8,56.15018,56.15018,0,0,1-16.80005-40.1A56.73665,56.73665,0,0,1,1341.1,97.1a56.15025,56.15025,0,0,1,40.1-16.8h171.4m5.4-5.1H1381.2C1347.2,75.2,1319,103.5,1319,137.4c0,34,28.30005,62.2,62.19995,62.2H1426.5c41,0,75,34,75,75s-34,75-75,75H1251v55.2h176.80005a130.2,130.2,0,0,0,0-260.4H1382.5a6.71827,6.71827,0,0,1-7.1-7.1,6.12958,6.12958,0,0,1,5.7-5.7H1558V75.2Z" transform="translate(0 0)" style="fill:url(#Dégradé_sans_nom_3)"/><path d="M2195,80.6V125H2043.30005a18.09533,18.09533,0,0,0-18.1,18.1V267.6a18.09532,18.09532,0,0,0,18.1,18.1H2081.2V262.2H2048.6001V217.8h77V331.5h-109.2c-21.1,0-37.1-15.9-37.1-37.1V117.7c0-21.1,15.9-37.1,37.1-37.1H2195m5.3-5.4H2016.4c-24.1,0-42.4,18.4-42.4,42.4V294.4c0,24.1,18.4,42.4,42.4,42.4H2131V212.5h-87.69995v55.2h32.5v12.7h-32.5a12.65413,12.65413,0,0,1-12.69995-12.7V143.1a12.6541,12.6541,0,0,1,12.69995-12.7h157V75.2Z" transform="translate(0 0)" style="fill:url(#Dégradé_sans_nom_4)"/><path d="M2388.5,69.3c7.1001,0,10.5,5.7,11.8999,9.2L2485.7,331.6H2368.3999V280.1h44.5l-2.3-7L2392.2,216.5l-4.8999-15.2-5.3,15-13.6001,38.8v-.5l-4.8,14.2-1.3999,4-2.5,7.2h.1001l-1.8999,5.6-38.39991,113.8h-53.69995l110.6001-322.1c2.19971-3.9,7.39966-8,12.09961-8m0-5.4c-7.1001,0-14.1001,5.7-17,11.3l-113.2,329.6h65.1001l39.60009-117.4V337H2493.1001l-87.7-260.3c-2.8-7.1-8.40015-12.8-16.90015-12.8Zm-21.2,210.8,19.80005-56.6L2405.5,274.7Z" transform="translate(0 0)" style="fill:url(#Dégradé_sans_nom_5)"/><path d="M2387.1001,5.6a82.59676,82.59676,0,0,1,51,17.6,88.75067,88.75067,0,0,1,30.19995,43.7v.2l112.2,332.4h-210.7V355.1H2519.1001l-2.3999-7.1L2423.30029,70.7a36.76814,36.76814,0,0,0-69.60009,0L2240.40015,399.5h-223.9a105.11531,105.11531,0,0,1-105-105V117.7a105.1153,105.1153,0,0,1,105-105H2195V57.1H2017.9a60.68782,60.68782,0,0,0-60.6,60.6V294.5a60.68784,60.68784,0,0,0,60.6,60.6h132.69983V194.3H2048.7V149.9h144.8999V399l10.5-30.7,103.3-302.8.1001-.2v-.2a80.08237,80.08237,0,0,1,28.8-42.7A83.973,83.973,0,0,1,2387.1001,5.6m0-5.4c-41,0-75,26.9-84.8999,63.7L2198.90015,366.7V144.5h-155.6v55.2h101.9v150H2017.90015a55.30758,55.30758,0,0,1-55.19995-55.2V117.7a55.3076,55.3076,0,0,1,55.19995-55.2h182.5V7.3h-183.9a110.55686,110.55686,0,0,0-110.4,110.4V294.5a110.55688,110.55688,0,0,0,110.4,110.4h227.79993l114.6001-332.5c4.2-12.7,15.60009-21.2,29.7-21.2,14.1001,0,25.5,8.5,29.69995,21.2L2511.7,349.7h-147.1001v55.2H2588L2473.3999,65.3C2462.1001,28.5,2428.1001.2,2387.1001.2Z" transform="translate(0 0)" style="fill:url(#Dégradé_sans_nom_6)"/><path d="M1879.5,12.7V57.1H1695.30005a60.68783,60.68783,0,0,0-60.6,60.6V294.5a60.68784,60.68784,0,0,0,60.6,60.6H1879.5v44.4H1695.30005a105.1153,105.1153,0,0,1-105-105V117.7a105.1153,105.1153,0,0,1,105-105H1879.5m5.30005-5.4h-189.6a110.55686,110.55686,0,0,0-110.4,110.4V294.5a110.55688,110.55688,0,0,0,110.4,110.4h189.6V349.7h-189.6a55.30759,55.30759,0,0,1-55.2-55.2V117.7a55.3076,55.3076,0,0,1,55.2-55.2h189.6V7.3Z" transform="translate(0 0)" style="fill:url(#Dégradé_sans_nom_7)"/><path d="M1839.80005,219.2v44.4H1702.6V269c0,9.3,7.19995,17.4,17.1,19.4l.5.1H1879.3999V333H1695.2c-21.1,0-37.1-15.9-37.1-37.1V219.2h181.70007m5.3999-5.3h-192.4V296c0,24.1,18.4,42.4,42.4,42.4h189.6V283.2H1720.7C1713.6,281.8,1708,276.1,1708,269.1H1845.2V213.9Z" transform="translate(0 0)" style="fill:url(#Dégradé_sans_nom_8)"/><path d="M1878,80.6v45.8H1720.7a18.09532,18.09532,0,0,0-18.1,18.1v5.4h137.3v44.4h-181.6V117.6c0-21.1,15.9-37.1,37.1-37.1H1878m5.4-5.3H1695.20007c-24.1,0-42.4,18.4-42.4,42.4v82.1h192.4V144.5H1708A12.6541,12.6541,0,0,1,1720.7,131.8H1883.3999V75.2Z" transform="translate(0 0)" style="fill:url(#Dégradé_sans_nom_9)"/><path d="M3820.8999,663.8q-18.15015-43.8-48.5-75.7a227.4916,227.4916,0,0,0-70.19995-50.4,193.769,193.769,0,0,0-82.3999-18.5h-575V624H3607.1001c20,0,37.8,3.9,53.6001,11.8a125.53835,125.53835,0,0,1,39.8,30.7,134.34223,134.34223,0,0,1,24.80005,43,139.2241,139.2241,0,0,1,8.69995,47.7v297.2a143.85311,143.85311,0,0,1-33.5,90.7,124.12074,124.12074,0,0,1-39.8,30.69995c-15.80005,7.9-33.6001,11.80005-53.6001,11.80005H2981.8999c-20,0-37.8-3.9-53.6001-11.80005a125.53934,125.53934,0,0,1-39.8-30.69995,134.34233,134.34233,0,0,1-24.80005-43,139.22408,139.22408,0,0,1-8.69995-47.7V519.2H2750.19971v535.2q0,49.65,18.10009,93.4Q2786.45,1191.6,2816.7998,1223.5a227.49046,227.49046,0,0,0,70.2,50.4,192.29361,192.29361,0,0,0,82.3999,18.5h650.6001c28.3999,0,55.8-6.19995,82.3999-18.5a231.56473,231.56473,0,0,0,70.2-50.4q30.29992-31.95008,48.5-75.69995,18.15015-43.79993,18.1001-93.4V757.2C3839,724.1,3833,693,3820.8999,663.8ZM3604.5,762.8q5.09985,5.55,5.1001,15v11H3381v104h324.7V773a141.62409,141.62409,0,0,0-6.7-42.2,123.43205,123.43205,0,0,0-20.1001-39A104.60049,104.60049,0,0,0,3645,663.4c-13.7-7.4-29.7-11-48.1001-11H3044.7998v104.8h549.7C3597.80005,757.2,3601.1001,759.1,3604.5,762.8Zm-2103.69995-190q-26.85-28.35-68.19995-41-41.4-12.6-98.9-12.6h-100.9q-56.70007,0-97.69995,12.6c-27.30005,8.4-50.1,22.1-68.2,41s-31.5,43.5-40.19995,73.7q-13.05,45.3-13,110.7v297.2q0,63,13,108.4,13.04993,45.29993,40.19995,74.1c18.1,19.2,40.9,33.2,68.2,42.2q40.95007,13.35,97.69995,13.4h100.9c38.4,0,71.3-4.5,98.9-13.4s50.3-23,68.19995-42.2q26.85-28.79992,39.4-74.1,12.6-45.29993,12.6-108.4V757.2q0-65.4-12.6-110.7C1531.80005,616.3,1518.6,591.7,1500.80005,572.8ZM1453.5,1076.5a159.38143,159.38143,0,0,1-5.9,44.1,91.31289,91.31289,0,0,1-18.9,35.5c-8.69995,10-19.80005,17.69995-33.5,23.3-13.69995,5.5-30.5,8.30005-50.4,8.30005h-123c-20,0-36.8-2.80005-50.4-8.30005-13.69995-5.5-24.8-13.3-33.5-23.3a91.31431,91.31431,0,0,1-18.9-35.5,160.42263,160.42263,0,0,1-5.9-44.1V735.2a159.38123,159.38123,0,0,1,5.9-44.1,91.31224,91.31224,0,0,1,18.9-35.5c8.7-10,20-17.7,33.9-23.3,13.9-5.5,30.9-8.3,50.80005-8.3H1344c20,0,36.9,2.8,50.80005,8.3s25.19995,13.3,33.9,23.3a91.314,91.314,0,0,1,18.9,35.5,160.42321,160.42321,0,0,1,5.9,44.1v341.3ZM1407,680.8c-6.80005-8.9-16.19995-15.9-28-20.9s-26.9-7.5-45.30005-7.5H1232.8999q-27.6,0-45.3,7.5c-11.80005,5-21.2,12-28,20.9a78.27749,78.27749,0,0,0-14.2,31.5,183.68189,183.68189,0,0,0-3.9,38.6v309.8c0,18.4,1.3,33.80005,3.9,46.1q3.9,18.6,13.80005,30.30005c6.6,7.9,15.80005,13.5,27.6,16.9q17.70007,5.1,45.30005,5.1h102.5q27.6,0,45.3-5.1c11.80005-3.4,21-9.1,27.6-16.9q9.9-11.85,13.80005-30.30005c2.6-12.3,3.9-27.69995,3.9-46.1V750.9a182.99607,182.99607,0,0,0-3.9-38.6C1418.5,700.2,1413.80005,689.7,1407,680.8Zm-83.6,353.1c0,6.30005-.9,11.30005-2.8,15-1.80005,3.7-5.9,5.5-12.2,5.5H1258c-6.30005,0-10.4-1.8-12.19995-5.5C1244,1045.20007,1243,1040.20007,1243,1033.9V777.7c0-6.3.9-11.3,2.80005-15,1.80005-3.7,5.9-5.5,12.19995-5.5h50.4c6.30005,0,10.4,1.8,12.2,5.5,1.8,3.7,2.8,8.7,2.8,15ZM2077,572.8q-26.84985-28.35-68.19995-41-41.4-12.6-98.9-12.6H1606.4V624H1920.1001c20,0,36.9,2.8,50.8,8.3s25.2,13.3,33.9,23.3a91.314,91.314,0,0,1,18.9,35.5,160.42321,160.42321,0,0,1,5.9,44.1V1076.5a159.38143,159.38143,0,0,1-5.9,44.1,91.31289,91.31289,0,0,1-18.9,35.5c-8.69995,10-19.80005,17.69995-33.5,23.3-13.69995,5.5-30.5,8.30005-50.4,8.30005H1705.7002V782.5h-99.30005v510h303.5c38.4,0,71.30005-4.5,98.9-13.4s50.29993-23,68.20007-42.2q26.84987-28.79992,39.39991-74.1,12.59985-45.29993,12.60009-108.4V757.2q0-65.4-12.60009-110.7C2108,616.3,2094.80005,591.7,2077,572.8ZM1896.9,762.7c3.9,3.7,5.9,8.7,5.9,15v256.2c0,6.30005-2,11.30005-5.9,15s-9.1,5.5-15.4,5.5H1864.2c-13.1,0-19.69995-6.8-19.69995-20.5V782.5H1734.1v376.80005h176.6q27.6,0,45.30005-5.1c11.80005-3.4,21-9.1,27.6-16.9q9.9-11.85,13.8-30.30005c2.6-12.30005,3.9-27.69995,3.9-46.1v-310a182.9954,182.9954,0,0,0-3.9-38.6,78.279,78.279,0,0,0-14.19995-31.5c-6.80005-8.9-16.2-15.9-28-20.9s-26.9-7.5-45.30005-7.5H1606.4V757.2h275.1C1887.80005,757.2,1892.9,759.1,1896.9,762.7Zm418.49988-225A233.28262,233.28262,0,0,0,2245.2,588.1q-30.29993,31.95-48.5,75.7-18.15015,43.8-18.1001,93.4v297.20008q0,49.65,18.1001,93.4,18.15015,43.79992,48.5,75.69995a227.49061,227.49061,0,0,0,70.19995,50.4,192.29376,192.29376,0,0,0,82.3999,18.5h298.7v-104.8h-286.1001c-20,0-37.8-3.9-53.6001-11.80005a125.53938,125.53938,0,0,1-39.8-30.69995,134.34233,134.34233,0,0,1-24.80005-43,139.22407,139.22407,0,0,1-8.69995-47.7V757.2a143.8531,143.8531,0,0,1,33.5-90.7,124.12164,124.12164,0,0,1,39.8-30.7c15.80005-7.9,33.6001-11.8,53.6001-11.8h286.1001V519.2h-298.7A193.769,193.769,0,0,0,2315.3999,537.7Zm57.2002,125.7a104.59975,104.59975,0,0,0-33.8999,28.4,124.51147,124.51147,0,0,0-20.1001,39,141.62409,141.62409,0,0,0-6.7,42.2v119.8H2636.7002v-104H2408v-11q0-9.45,5.1001-15c3.3999-3.7,6.69995-5.5,9.8999-5.5h273.5V652.4H2420.6001C2402.2,652.4,2386.2,656.1,2372.6001,663.4ZM2413.2,1048.9q-5.09985-5.54992-5.1001-15v-10.2H2636.7V918.8H2311.8999v119.8a141.624,141.624,0,0,0,6.7,42.19995,122.37589,122.37589,0,0,0,20.1001,39,104.60047,104.60047,0,0,0,33.8999,28.4c13.69995,7.4,29.69995,11,48.1001,11h275.8999V1054.3999H2423C2419.8999,1054.4,2416.6001,1052.6,2413.2,1048.9Zm496.90015,70.9a104.60047,104.60047,0,0,0,33.8999,28.4c13.7,7.4,29.7,11,48.1001,11H3597c18.3999,0,34.3999-3.7,48.1001-11a104.60047,104.60047,0,0,0,33.8999-28.4,124.51189,124.51189,0,0,0,20.1001-39,141.12992,141.12992,0,0,0,6.69995-42.19995V918.8H3381v104.8h228.6001v10.19995q0,9.45007-5.1001,15c-3.3999,3.7-6.7,5.5-9.8999,5.5H3006.30005v-.8c-3.19995,0-6.3999-1.7-9.8999-5.1-3.39991-3.4-5.1001-8.3-5.1001-14.6V519.2h-108V1038.6001a141.624,141.624,0,0,0,6.7,42.19995A122.37589,122.37589,0,0,0,2910.1001,1119.80005ZM776,573.2a132.75891,132.75891,0,0,0-26-27.6,118.49625,118.49625,0,0,0-36.3-19.3c-13.9-4.7-29.6-7.1-46.9-7.1-17.9,0-33.4,2.4-46.5,7.1A112.30958,112.30958,0,0,0,586,545.6a140.19147,140.19147,0,0,0-25.2,27.6,303.85951,303.85951,0,0,0-19.3,31.9l-23.6,47.3-23.6-47.3a231.81571,231.81571,0,0,0-18.5-31.9,136.13341,136.13341,0,0,0-25.6-27.6,118.14781,118.14781,0,0,0-34.7-19.3c-13.1-4.7-28.6-7.1-46.5-7.1s-33.6,2.4-47.3,7.1a119.44543,119.44543,0,0,0-61.5,46.9,161.58645,161.58645,0,0,0-16.6,31.9L0,1292.4H104.8l227-647.9c1.6-5.2,6.3-10,14.2-14.2s15.5-6.3,22.9-6.3a43.10841,43.10841,0,0,1,22.9,6.3c6.8,4.2,11.3,8.9,13.4,14.2L517.9,946.4,630.6,644.5c2.1-5.2,6.6-10,13.4-14.2a42.61347,42.61347,0,0,1,22.9-6.3c7.4,0,15,2.1,22.9,6.3s12.6,8.9,14.2,14.2l227,647.9h104.8L792.2,605.1A126.32711,126.32711,0,0,0,776,573.2Zm-97.3,82.7a23.96871,23.96871,0,0,0-11.8-3.5,22.48914,22.48914,0,0,0-11.4,3.5c-3.9,2.4-6.4,5.1-7.5,8.3l-130.1,358.6L387.8,664.2c-1.1-3.2-3.5-5.9-7.5-8.3a21.819,21.819,0,0,0-11.4-3.5c-3.7,0-7.6,1.2-11.8,3.5-4.2,2.4-6.8,5.1-7.9,8.3l-216,628.2H238L368.8,895.1l149,397.3,149-397.3,134.8,397.3H902.5l-216-628.2C685.5,661.1,682.9,658.3,678.7,655.9Z" transform="translate(0 0)" style="fill:url(#Dégradé_sans_nom_10)"/><path d="M2981.7,528.8v505.1c0,8.9,2.69995,16.1,7.8999,21.30005a29.05665,29.05665,0,0,0,7.1001,5.4v3.3H3594.7002c5.8999,0,11.60009-2.9,16.8999-8.6,5.1001-5.5,7.69995-12.69995,7.69995-21.5v-19.8H3390.7v-85.7h305.6001v110.19995a131.504,131.504,0,0,1-6.3,39.30005,112.79185,112.79185,0,0,1-18.5,36,96.45944,96.45944,0,0,1-30.8999,25.80005c-12.2,6.6-26.80005,9.9-43.5,9.9H2992.2c-16.7,0-31.3999-3.3-43.5-9.9a97.54167,97.54167,0,0,1-30.8999-25.80005,112.79185,112.79185,0,0,1-18.5-36,132.00221,132.00221,0,0,1-6.3-39.30005V528.8h88.7m-136.30005,0V1054.3999a150.09252,150.09252,0,0,0,9.2,50.9,146.04678,146.04678,0,0,0,26.6001,45.9,134.32594,134.32594,0,0,0,42.8,33.1c17,8.5,36.5,12.80005,57.8999,12.80005h625.40015c21.3999,0,40.80005-4.30005,57.8999-12.80005a134.32869,134.32869,0,0,0,42.8-33.1,147.99213,147.99213,0,0,0,26.6001-45.9,150.51947,150.51947,0,0,0,9.19995-50.9V757.2a150.09268,150.09268,0,0,0-9.19995-50.9A146.04694,146.04694,0,0,0,3708,660.4a136.56725,136.56725,0,0,0-42.8-33.1c-17-8.5-36.5-12.8-57.8999-12.8H3054.5V528.8h565.3999A184.32307,184.32307,0,0,1,3698.2,546.4a220.47092,220.47092,0,0,1,67.19995,48.4c19.30005,20.3,35,44.8,46.6001,72.7a233.50609,233.50609,0,0,1,17.3999,89.7v297.2A233.5058,233.5058,0,0,1,3812,1144.1c-11.6001,27.9-27.2,52.4-46.6001,72.69995A221.68946,221.68946,0,0,1,3698.2,1265.2a184.32308,184.32308,0,0,1-78.30005,17.6H2969.2998a183.992,183.992,0,0,1-78.3-17.6,220.00438,220.00438,0,0,1-67.2-48.4c-19.3-20.3-35-44.8-46.60009-72.69995a233.50625,233.50625,0,0,1-17.39991-89.7V528.8h85.6001m-158.5,0v85.7h-276.5c-21.3999,0-40.8999,4.3-57.8999,12.8a134.32852,134.32852,0,0,0-42.8,33.1,147.99229,147.99229,0,0,0-26.6001,45.9,150.51966,150.51966,0,0,0-9.2,50.9v297.2a150.09252,150.09252,0,0,0,9.2,50.9,146.04678,146.04678,0,0,0,26.6001,45.9,134.32594,134.32594,0,0,0,42.8,33.1c17,8.5,36.5,12.80005,57.8999,12.80005h276.5v85.69995H2397.7a183.99211,183.99211,0,0,1-78.30005-17.6,220.00434,220.00434,0,0,1-67.19995-48.4c-19.30005-20.30005-35-44.80005-46.6001-72.69995a233.50623,233.50623,0,0,1-17.3999-89.7V757.2a233.50609,233.50609,0,0,1,17.3999-89.7c11.6001-27.9,27.19995-52.4,46.6001-72.7a221.69051,221.69051,0,0,1,67.19995-48.4A184.32218,184.32218,0,0,1,2397.7,528.8H2686.8999M1909.9,528.8c37.2,0,69.5,4.1,96.1,12.2,25.80005,7.9,47.3999,20.8,64,38.4,16.7,17.7,29.2,41.1,37.1001,69.7,8.1001,29.3,12.3,65.7,12.3,108.2V1054.5c0,41-4.1001,76.6-12.3,105.80005-8,28.6-20.5,52.19995-37.2,70.1s-38.19995,31.2-64.1,39.6c-26.5,8.6-58.80005,12.9-96,12.9H1616V792h80.1V1197.2H1920.8999c21.1,0,39.30005-3,54-9,15-6.1,27.5-14.80005,37.1-25.9a102.42481,102.42481,0,0,0,20.9-39.1A168.05146,168.05146,0,0,0,2039.2,1076.3999V735.2a168.04687,168.04687,0,0,0-6.30005-46.8,101.80244,101.80244,0,0,0-20.9-39.1c-9.6-11.1-22.30005-19.8-37.6-25.9-15-5.9-33.3-8.9-54.4-8.9H1616V528.8h293.9M1333.7,528.8c37.19995,0,69.5,4.1,96.1,12.2,25.80005,7.9,47.4,20.8,64,38.4,16.7,17.7,29.2,41.1,37.1,69.7,8.1,29.3,12.30005,65.7,12.30005,108.2V1054.5c0,41-4.1,76.6-12.30005,105.80005-8,28.6-20.5,52.19995-37.19995,70.1s-38.19995,31.2-64.1,39.6c-26.5,8.6-58.80005,12.9-96,12.9H1232.7c-36.69995,0-68.6-4.3-94.80005-12.9-25.69995-8.4-47.3-21.69995-64.19995-39.6-17-18-29.80005-41.6-38-70.19995-8.4-29.2-12.6-64.80005-12.6-105.7V757.2c0-42.5,4.3-78.9,12.6-108.1,8.19995-28.6,20.9-52,37.9-69.7,16.9-17.6,38.5-30.6,64.1-38.5,26.30005-8.1,58.19995-12.2,94.9-12.2h101.1M1221.80005,1197.2h123c21.1,0,39.30005-3,54-9,15-6.1,27.5-14.80005,37.1-25.9a101.0837,101.0837,0,0,0,20.9-39.1,168.05146,168.05146,0,0,0,6.30005-46.80005V735.2a168.04724,168.04724,0,0,0-6.30005-46.8,101.80233,101.80233,0,0,0-20.9-39.1c-9.69995-11.1-22.3-19.8-37.6-25.9-15-5.9-33.30005-8.9-54.4-8.9H1222.5c-21.1,0-39.4,3-54.4,8.9-15.30005,6.1-27.9,14.8-37.6,25.9a103.16394,103.16394,0,0,0-20.9,39.1,168.05132,168.05132,0,0,0-6.30005,46.8v341.3a168.04725,168.04725,0,0,0,6.30005,46.80005,101.08351,101.08351,0,0,0,20.9,39.1c9.6,11.1,22.1,19.80005,37.1,25.9q22.35,8.84985,54.20007,8.8999M666.8,528.8c16.2,0,30.9,2.2,43.8,6.6A112.94044,112.94044,0,0,1,744,553.1a118.36342,118.36342,0,0,1,24.1,25.5A115.34216,115.34216,0,0,1,783,608.1v.2l239,674.5H937.5L713,641.5c-2.4-7.7-8.7-14.3-18.8-19.7-9.3-4.9-18.5-7.4-27.4-7.4a52.512,52.512,0,0,0-27.9,7.7c-8.6,5.3-14.4,11.6-17.3,18.8v.2L517.9,919,414.1,641.2v-.2c-2.9-7.2-8.7-13.5-17.3-18.8a52.51243,52.51243,0,0,0-27.9-7.7c-8.9,0-18.1,2.5-27.4,7.4-10.1,5.4-16.4,12-18.8,19.6l-224.7,641.3H13.6l239-674.4a149.21308,149.21308,0,0,1,15.5-29.9,112.89044,112.89044,0,0,1,23.6-25.4,114.65334,114.65334,0,0,1,33-17.8c12.6-4.4,27.4-6.6,44.2-6.6,16.7,0,31.2,2.2,43.3,6.5a108.46181,108.46181,0,0,1,31.9,17.7,124.90314,124.90314,0,0,1,23.8,25.6,229.6744,229.6744,0,0,1,17.8,30.6v.2l23.6,47.3,8.6,17.2,8.6-17.2,23.6-47.2a268.79054,268.79054,0,0,1,18.7-30.8,132.96577,132.96577,0,0,1,23.5-25.7,101.9067,101.9067,0,0,1,31.4-17.6C635.6,531,650.2,528.8,666.8,528.8M2686.8999,662v85.7H2423c-5.8999,0-11.6001,2.9-16.8999,8.6-5.1001,5.5-7.7,12.7-7.7,21.5v20.6h228.60009v84.9H2321.40015V773a132.00186,132.00186,0,0,1,6.30005-39.3,112.79218,112.79218,0,0,1,18.5-36,96.45866,96.45866,0,0,1,30.8999-25.8c12.19995-6.6,26.8-9.9,43.5-9.9h266.2998M1909.9,662c17,0,31,2.3,41.6,6.7,10.19995,4.3,18.30005,10.3,24.1,17.9a70.08875,70.08875,0,0,1,12.4,27.7A171.368,171.368,0,0,1,1991.7,750.9V1060.7c0,17.6-1.30005,32.5-3.69995,44.1-2.30005,10.80005-6.30005,19.6-11.80005,26.2-5.4,6.4-12.9,11-22.9,13.9-10.9,3.1-25.19995,4.7-42.69995,4.7h-167V792h91.19995v241.9c0,9.4,2.6,16.80005,7.6,22,5.1,5.30005,12.4,8.1,21.7,8.1h17.3c8.80005,0,16.2-2.69995,21.9-8.1,5.9-5.5,9-13.1,9-22V777.7c0-8.9-3.1-16.5-9-22q-8.70007-8.1-21.9-8.1H1616V662h293.9M1333.7,662c17,0,31,2.3,41.6,6.7,10.2,4.3,18.30005,10.3,24.1,17.9a70.08863,70.08863,0,0,1,12.4,27.7,171.368,171.368,0,0,1,3.7,36.6V1060.7c0,17.6-1.30005,32.5-3.7,44.1-2.3,10.80005-6.3,19.6-11.8,26.2-5.4,6.4-12.9,11-22.9,13.9-10.9,3.1-25.2,4.7-42.7,4.7H1232c-17.4,0-31.80005-1.6-42.69995-4.7-9.9-2.9-17.6-7.5-22.9-13.9-5.5-6.6-9.5-15.4-11.8-26.2-2.5-11.6-3.7-26.4-3.7-44.1V750.9a178.04942,178.04942,0,0,1,3.7-36.6,69.45546,69.45546,0,0,1,12.4-27.7c5.80005-7.5,13.9-13.6,24.1-17.9,10.6-4.5,24.6-6.7,41.6-6.7h101M1258,1064h50.4c12.7,0,18.30005-5.9,20.80005-10.80005,2.5-5.1,3.8-11.4,3.8-19.30005V777.7c0-7.9-1.19995-14.2-3.8-19.3-2.5-4.9-8.1-10.8-20.80005-10.8H1258c-12.69995,0-18.30005,5.9-20.80005,10.8-2.5,5.1-3.80005,11.4-3.80005,19.3v256.2c0,7.9,1.2,14.2,3.80005,19.30005C1239.7,1058.1,1245.30005,1064,1258,1064M666.8,662a15.36388,15.36388,0,0,1,7.1,2.3c2.4,1.4,3.3,2.5,3.5,3h0L889,1282.80005H808.4L675.9,892.1l-8.6-25.4-9.4,25.1-140,373.29992-140-373.3-9.6-25.5-8.5,25.9-128.7,390.7H146.6l211.6-615.5h0c.1-.4,1-1.6,3.5-2.9a15.36422,15.36422,0,0,1,7.1-2.3,12.55846,12.55846,0,0,1,6.5,2.2c1.8,1.1,3,2.2,3.3,3.1v.2l130.1,358.6,9,24.9,9-24.9,130.1-358.6v-.2c.1-.3.7-1.5,3.3-3.1C662.8,662.7,664.9,662,666.8,662M3597,662c16.7,0,31.3999,3.3,43.5,9.9a97.54333,97.54333,0,0,1,30.8999,25.8,112.79258,112.79258,0,0,1,18.5,36A132.50438,132.50438,0,0,1,3696.2,773V883.2h-305.6001V798.3H3619.2V777.7c0-8.8-2.6001-16-7.7-21.5-5.3-5.7-11-8.6-16.8999-8.6H3054.5V662H3597M2627,928.4v85.7H2398.3999v19.8c0,8.80005,2.6001,16,7.7,21.5,5.3,5.7,11,8.6,16.89991,8.6h263.8999V1149.7h-266.3c-16.7,0-31.3999-3.30005-43.5-9.9a97.5418,97.5418,0,0,1-30.8999-25.8,112.79175,112.79175,0,0,1-18.5-36,132.00226,132.00226,0,0,1-6.3-39.30005V928.4H2627m364.3-409.2h-108V1038.6001a141.624,141.624,0,0,0,6.7,42.19995,122.37589,122.37589,0,0,0,20.1001,39,104.60047,104.60047,0,0,0,33.8999,28.4c13.7,7.4,29.7,11,48.1001,11H3597c18.3999,0,34.3999-3.7,48.1001-11a104.60047,104.60047,0,0,0,33.8999-28.4,124.51189,124.51189,0,0,0,20.1001-39,141.12992,141.12992,0,0,0,6.69995-42.19995V918.8H3381v104.8h228.6001v10.19995q0,9.45007-5.1001,15c-3.3999,3.7-6.7,5.5-9.8999,5.5H3006.30005v-.8c-3.19995,0-6.3999-1.7-9.8999-5.1-3.39991-3.4-5.1001-8.3-5.1001-14.6V519.2Zm-136.3,0H2750.2v535.2q0,49.65,18.1001,93.4,18.15015,43.79993,48.5,75.69995a227.49042,227.49042,0,0,0,70.2,50.4,192.29361,192.29361,0,0,0,82.3999,18.5H3620c28.3999,0,55.8-6.19995,82.3999-18.5a231.56473,231.56473,0,0,0,70.2-50.4q30.29992-31.95008,48.5-75.69995,18.15015-43.79993,18.1001-93.4V757.2q0-49.65-18.1001-93.4-18.15013-43.8-48.5-75.7a227.49148,227.49148,0,0,0-70.2-50.4,193.769,193.769,0,0,0-82.3999-18.5H3045V624h562.3c20,0,37.80005,3.9,53.6001,11.8a125.53839,125.53839,0,0,1,39.80005,30.7,134.34239,134.34239,0,0,1,24.8,43,139.22412,139.22412,0,0,1,8.7,47.7v297.2a143.85326,143.85326,0,0,1-33.5,90.7,124.12078,124.12078,0,0,1-39.80005,30.69995c-15.8,7.9-33.6001,11.80005-53.6001,11.80005H2981.8999c-20,0-37.8-3.9-53.6001-11.80005a125.53934,125.53934,0,0,1-39.8-30.69995,134.34233,134.34233,0,0,1-24.80005-43,139.22408,139.22408,0,0,1-8.69995-47.7V519.2Zm-158.5,0h-298.7c-28.3999,0-55.8,6.2-82.3999,18.5a233.2825,233.2825,0,0,0-70.19995,50.4q-30.29994,31.95-48.5,75.7-18.15015,43.8-18.1001,93.4v297.20008q0,49.65,18.1001,93.4,18.15013,43.79992,48.5,75.69995a227.4905,227.4905,0,0,0,70.19995,50.4,192.29376,192.29376,0,0,0,82.3999,18.5h298.7v-104.8H2410.3999c-20,0-37.8-3.9-53.6001-11.80005a125.53934,125.53934,0,0,1-39.8-30.69995,134.34233,134.34233,0,0,1-24.80005-43,139.22407,139.22407,0,0,1-8.69995-47.7V757.2a143.8531,143.8531,0,0,1,33.5-90.7,124.1216,124.1216,0,0,1,39.8-30.7c15.80005-7.9,33.6001-11.8,53.6001-11.8H2696.5V519.2Zm-786.6,0H1606.4V624H1920.1001c20,0,36.9,2.8,50.8,8.3s25.2,13.3,33.9,23.3a91.314,91.314,0,0,1,18.9,35.5,160.42321,160.42321,0,0,1,5.9,44.1V1076.5a159.38143,159.38143,0,0,1-5.9,44.1,91.31289,91.31289,0,0,1-18.9,35.5c-8.69995,10-19.80005,17.69995-33.5,23.3-13.69995,5.5-30.5,8.30005-50.4,8.30005H1705.7002V782.5h-99.30005v510h303.5c38.4,0,71.30005-4.5,98.9-13.4s50.29993-23,68.20007-42.2q26.84987-28.79992,39.39991-74.1,12.59985-45.29993,12.60009-108.4V757.2q0-65.4-12.60009-110.7c-8.39991-30.2-21.6001-54.8-39.39991-73.7q-26.84985-28.35-68.19995-41-41.40051-12.6-98.90027-12.6ZM1333.7,519.2h-100.9q-56.70007,0-97.69995,12.6c-27.30005,8.4-50.1,22.1-68.2,41s-31.5,43.5-40.19995,73.7q-13.05,45.3-13,110.7v297.2q0,63,13,108.4Q1039.75,1208.1,1066.9,1236.9c18.1,19.2,40.9,33.2,68.2,42.2q40.95006,13.35,97.69995,13.4h100.9c38.4,0,71.30005-4.5,98.9-13.4s50.3-23,68.19995-42.2q26.85-28.79992,39.4-74.1,12.6-45.29993,12.6-108.4V757.2q0-65.4-12.6-110.7c-8.4-30.2-21.6-54.8-39.4-73.7q-26.85-28.35-68.19995-41-41.4-12.6-98.9-12.6Zm-111.8999,668.4c-20,0-36.80005-2.80005-50.4-8.30005-13.69995-5.5-24.8-13.3-33.5-23.3a91.31431,91.31431,0,0,1-18.9-35.5,160.423,160.423,0,0,1-5.9-44.1V735.2a159.38161,159.38161,0,0,1,5.9-44.1,91.31224,91.31224,0,0,1,18.9-35.5c8.7-10,20-17.7,33.9-23.3,13.9-5.5,30.9-8.3,50.80005-8.3h121.4c20,0,36.9,2.8,50.80005,8.3s25.19995,13.3,33.9,23.3a91.31382,91.31382,0,0,1,18.9,35.5,160.42321,160.42321,0,0,1,5.9,44.1v341.3a159.38143,159.38143,0,0,1-5.9,44.1,91.31274,91.31274,0,0,1-18.9,35.5c-8.7,10-19.80005,17.69995-33.5,23.3-13.7,5.5-30.5,8.30005-50.4,8.30005H1221.80005ZM666.8,519.2c-17.9,0-33.4,2.4-46.5,7.1A112.30958,112.30958,0,0,0,586,545.6a140.19147,140.19147,0,0,0-25.2,27.6,303.85951,303.85951,0,0,0-19.3,31.9l-23.6,47.3-23.6-47.3a231.81571,231.81571,0,0,0-18.5-31.9,136.13341,136.13341,0,0,0-25.6-27.6,118.14781,118.14781,0,0,0-34.7-19.3c-13.1-4.7-28.6-7.1-46.5-7.1s-33.6,2.4-47.3,7.1a119.44543,119.44543,0,0,0-61.5,46.9,161.58645,161.58645,0,0,0-16.6,31.9L0,1292.4H104.8l227-647.9c1.6-5.2,6.3-10,14.2-14.2s15.5-6.3,22.9-6.3a43.10841,43.10841,0,0,1,22.9,6.3c6.8,4.2,11.3,8.9,13.4,14.2L517.9,946.4,630.6,644.5c2.1-5.2,6.6-10,13.4-14.2a42.61347,42.61347,0,0,1,22.9-6.3c7.4,0,15,2.1,22.9,6.3s12.6,8.9,14.2,14.2l227,647.9h104.8L792.2,605.1a126.32549,126.32549,0,0,0-16.2-31.9,132.75891,132.75891,0,0,0-26-27.6,118.49625,118.49625,0,0,0-36.3-19.3c-13.9-4.8-29.5-7.1-46.9-7.1ZM2696.5,652.4H2420.6001c-18.3999,0-34.3999,3.7-48.1001,11a104.59975,104.59975,0,0,0-33.8999,28.4,124.51168,124.51168,0,0,0-20.1001,39,141.62409,141.62409,0,0,0-6.7,42.2v119.8H2636.6001v-104H2408v-11q0-9.45,5.1001-15c3.3999-3.7,6.69995-5.5,9.8999-5.5h273.5V652.4Zm-786.6,0H1606.4V757.2h275.1c6.30005,0,11.4,1.8,15.4,5.5,3.9,3.7,5.9,8.7,5.9,15v256.2c0,6.30005-2,11.30005-5.9,15s-9.1,5.5-15.4,5.5H1864.2c-13.1,0-19.69995-6.8-19.69995-20.5V782.5H1734.1v376.80005h176.6q27.6,0,45.30005-5.1c11.80005-3.4,21-9.1,27.6-16.9q9.9-11.85,13.8-30.30005c2.6-12.30005,3.9-27.69995,3.9-46.1v-310a182.9954,182.9954,0,0,0-3.9-38.6,78.279,78.279,0,0,0-14.19995-31.5c-6.80005-8.9-16.2-15.9-28-20.9s-26.9-7.5-45.30005-7.5ZM1333.7,652.4H1232.8999q-27.6,0-45.3,7.5c-11.80005,5-21.2,12-28,20.9a78.27749,78.27749,0,0,0-14.2,31.5,183.68189,183.68189,0,0,0-3.9,38.6V1060.7c0,18.4,1.3,33.80005,3.9,46.1q3.9,18.6,13.80005,30.30005c6.6,7.9,15.80005,13.5,27.6,16.9q17.70007,5.1,45.30005,5.1h102.5q27.6,0,45.3-5.1c11.80005-3.4,21-9.1,27.6-16.9q9.9-11.85,13.80005-30.30005c2.6-12.3,3.9-27.69995,3.9-46.1V750.9a182.99607,182.99607,0,0,0-3.9-38.6,78.27924,78.27924,0,0,0-14.19995-31.5c-6.80005-8.9-16.2-15.9-28-20.9-11.90015-5-27.00012-7.5-45.40015-7.5ZM1258,1054.4c-6.30005,0-10.4-1.8-12.19995-5.5C1244,1045.20007,1243,1040.20007,1243,1033.9V777.7c0-6.3.9-11.3,2.80005-15,1.80005-3.7,5.9-5.5,12.19995-5.5h50.4c6.30005,0,10.4,1.8,12.2,5.5,1.8,3.7,2.8,8.7,2.8,15v256.2c0,6.30005-.9,11.30005-2.8,15-1.80005,3.7-5.9,5.5-12.2,5.5Zm-591.2-402a22.4892,22.4892,0,0,0-11.4,3.5c-3.9,2.4-6.4,5.1-7.5,8.3l-130.1,358.6L387.8,664.2c-1.1-3.2-3.5-5.9-7.5-8.3a21.819,21.819,0,0,0-11.4-3.5c-3.7,0-7.6,1.2-11.8,3.5-4.2,2.4-6.8,5.1-7.9,8.3l-216,628.2H238L368.8,895.1l149,397.3,149-397.3,134.8,397.3H902.5l-216-628.2c-1.1-3.2-3.7-5.9-7.9-8.3a24.44419,24.44419,0,0,0-11.8-3.5Zm2930.2,0H3044.8999V757.2h549.7c3.19995,0,6.39991,1.8,9.89991,5.5q5.09985,5.55,5.10009,15v11H3381v104h324.8V773a141.62409,141.62409,0,0,0-6.69995-42.2A123.43205,123.43205,0,0,0,3679,691.8a104.60049,104.60049,0,0,0-33.8999-28.4C3631.3999,656.1,3615.3999,652.4,3597,652.4ZM2636.6001,918.8H2311.80005v119.8a141.624,141.624,0,0,0,6.7,42.19995,122.37589,122.37589,0,0,0,20.1001,39,104.60047,104.60047,0,0,0,33.8999,28.4c13.7,7.4,29.7,11,48.1001,11H2696.5V1054.3999H2423c-3.2,0-6.3999-1.8-9.8999-5.5q-5.09985-5.54992-5.1001-15v-10.2h228.6001V918.8Z" transform="translate(0 0)" style="fill:url(#Dégradé_sans_nom_11)"/></svg>