<?xml version="1.0" encoding="UTF-8" standalone="no"?>
<!-- Created with Inkscape (http://www.inkscape.org/) -->

<svg
   xmlns:dc="http://purl.org/dc/elements/1.1/"
   xmlns:cc="http://creativecommons.org/ns#"
   xmlns:rdf="http://www.w3.org/1999/02/22-rdf-syntax-ns#"
   xmlns:svg="http://www.w3.org/2000/svg"
   xmlns="http://www.w3.org/2000/svg"
   xmlns:xlink="http://www.w3.org/1999/xlink"
   xmlns:sodipodi="http://sodipodi.sourceforge.net/DTD/sodipodi-0.dtd"
   xmlns:inkscape="http://www.inkscape.org/namespaces/inkscape"
   id="svg2864"
   version="1.1"
   inkscape:version="0.47 r22583"
   width="986.23682"
   height="420.19293"
   sodipodi:docname="Logo Naruto.svg">
  <metadata
     id="metadata2870">
    <rdf:RDF>
      <cc:Work
         rdf:about="">
        <dc:format>image/svg+xml</dc:format>
        <dc:type
           rdf:resource="http://purl.org/dc/dcmitype/StillImage" />
      </cc:Work>
    </rdf:RDF>
  </metadata>
  <defs
     id="defs2868">
    <linearGradient
       id="linearGradient4061">
      <stop
         style="stop-color:#000000;stop-opacity:1;"
         offset="0"
         id="stop4063" />
      <stop
         style="stop-color:#00005c;stop-opacity:1;"
         offset="1"
         id="stop4065" />
    </linearGradient>
    <linearGradient
       id="linearGradient3674">
      <stop
         style="stop-color:#ffe100;stop-opacity:1;"
         offset="0"
         id="stop3676" />
      <stop
         style="stop-color:#dc2314;stop-opacity:1;"
         offset="1"
         id="stop3678" />
    </linearGradient>
    <linearGradient
       inkscape:collect="always"
       xlink:href="#linearGradient4061"
       id="linearGradient4075"
       x1="530.02441"
       y1="184.59485"
       x2="530"
       y2="487.63962"
       gradientUnits="userSpaceOnUse"
       gradientTransform="translate(-69.78125,-121.64172)" />
    <linearGradient
       inkscape:collect="always"
       xlink:href="#linearGradient3674"
       id="linearGradient4341"
       gradientUnits="userSpaceOnUse"
       x1="83.143379"
       y1="300.87646"
       x2="261.61111"
       y2="300.87646"
       gradientTransform="translate(-69.78125,-121.64172)" />
    <linearGradient
       inkscape:collect="always"
       xlink:href="#linearGradient3674"
       id="linearGradient4343"
       gradientUnits="userSpaceOnUse"
       x1="249.26578"
       y1="300.8811"
       x2="403.02097"
       y2="300.8811"
       gradientTransform="translate(-69.78125,-121.64172)" />
    <linearGradient
       inkscape:collect="always"
       xlink:href="#linearGradient3674"
       id="linearGradient4345"
       gradientUnits="userSpaceOnUse"
       x1="408.0249"
       y1="316.129"
       x2="651.62054"
       y2="316.129"
       gradientTransform="translate(-69.78125,-121.64172)" />
    <linearGradient
       inkscape:collect="always"
       xlink:href="#linearGradient3674"
       id="linearGradient4347"
       gradientUnits="userSpaceOnUse"
       x1="585.24725"
       y1="305.13492"
       x2="742.0885"
       y2="305.13492"
       gradientTransform="translate(-69.78125,-121.64172)" />
    <linearGradient
       inkscape:collect="always"
       xlink:href="#linearGradient3674"
       id="linearGradient4349"
       gradientUnits="userSpaceOnUse"
       x1="754.02338"
       y1="311.45743"
       x2="878.04388"
       y2="311.45743"
       gradientTransform="translate(-69.78125,-121.64172)" />
    <linearGradient
       inkscape:collect="always"
       xlink:href="#linearGradient3674"
       id="linearGradient4351"
       gradientUnits="userSpaceOnUse"
       x1="862.0484"
       y1="313.45859"
       x2="1031.2421"
       y2="313.45859"
       gradientTransform="translate(-69.78125,-121.64172)" />
  </defs>
  <g
     id="g4331"
     style="fill:#ec4b88;fill-opacity:1"
     transform="translate(-69.78125,-121.64172)">
    <path
       sodipodi:nodetypes="cssccsssccssss"
       id="path3861"
       d="m 950.8125,121.6875 c -24.71458,-0.30456 -49.26752,0.86854 -73.65625,4.7812 C 830.1271,134.01355 799.75118,140.80088 751.5,155 c -41.56315,12.23099 -82.9741,27.14918 -124.46115,42.03437 0,0 9.3322,16.77767 9.3322,16.77767 44.63469,-18.80838 83.45821,-28.5031 125.44145,-38.84329 50.85063,-12.52417 103.7785,-26.12551 156.125,-17.375 26.70956,4.46491 36.19866,17.75243 30.6875,36.96875 -0.92948,3.2409 -4.19576,10.17076 -5.39653,10.93291 0,0 55.16035,-1.13833 55.16035,-1.13833 2.61568,-1.61662 12.70178,-16.40955 17.29868,-25.91958 5.2318,-10.82344 5.8495,-27.24586 1.2813,-34.21875 -4.832,-7.37523 -16.1771,-14.6382 -29.4688,-18.84375 -9.73171,-3.07915 -14.19727,-3.41035 -36.6875,-3.6875 z"
       style="fill:#ec4b88;fill-opacity:1;stroke:none" />
    <path
       sodipodi:nodetypes="cccc"
       id="path3859"
       d="m 584.89223,213.52997 c 0,0 -8.23757,2.21401 -9.50309,3.62596 0,0 4.65701,6.2665 4.65701,6.2665 0,0 4.84608,-9.89246 4.84608,-9.89246 z"
       style="fill:#ec4b88;fill-opacity:1;stroke:none" />
    <path
       sodipodi:nodetypes="ccccc"
       id="path3855"
       d="m 681.32712,228.59656 c -7.7362,2.31054 -28.38118,8.01358 -28.38118,8.01358 0,0 1.53431,12.52844 1.53431,12.52844 9.29635,-2.34825 16.80054,-4.0349 24.56305,-6.40063 0,0 2.28382,-14.14139 2.28382,-14.14139 z"
       style="fill:#ec4b88;fill-opacity:1;stroke:none" />
    <path
       sodipodi:nodetypes="cccccc"
       id="path3853"
       d="m 769.49182,291.79764 c 0,0 -7.13104,4.99585 -8.42951,5.98173 0,0 -7.98944,28.71064 -7.98944,28.71064 9.72301,-4.30682 19.14597,-11.51378 27.11317,-18.33826 0,0 1.0866,-14.56298 1.0866,-14.56298 0,0 -11.78082,-1.79113 -11.78082,-1.79113 z"
       style="fill:#ec4b88;fill-opacity:1;stroke:none" />
    <path
       sodipodi:nodetypes="cccccc"
       id="path3851"
       d="m 744.90643,354.60529 c 0,0 -6.54605,19.31148 -6.54605,19.31148 0,0 -0.21872,10.06146 -0.21872,10.06146 0,0 38.88916,-19.72998 38.88916,-19.72998 0,0 1.17287,-27.48523 1.17287,-27.48523 -8.70816,5.41991 -22.77147,13.08572 -33.29726,17.84227 z"
       style="fill:#ec4b88;fill-opacity:1;stroke:none" />
    <path
       sodipodi:nodetypes="cccccc"
       id="path3849"
       d="m 536.738,335.35663 -6.95675,4.08335 21.37806,15.95534 c 0,0 25.0502,-0.19801 25.0502,-0.19801 0,0 -0.86448,-15.14839 -0.86448,-15.14839 -12.2493,0.83858 -38.60703,-4.69229 -38.60703,-4.69229 z"
       style="fill:#ec4b88;fill-opacity:1;stroke:none" />
    <path
       sodipodi:nodetypes="ccscccssccc"
       id="path3847"
       d="m 510.46119,429.13931 c -26.31026,8.55543 -53.88963,15.1067 -80.86744,21.14194 -44.8129,10.85496 -89.79703,14.10432 -105,7.59375 -8.19156,-3.50797 -14.8125,-16.52641 -14.8125,-21.79379 L 264.34375,447.5 261.375,454.0625 c -3.83274,8.48016 -3.78037,9.96729 0.59375,17.75 4.52767,8.05588 15.92073,13.77176 31.125,15.59375 22.40501,2.68488 79.38721,-2.87172 106.375,-10.375 l 121.50667,-40.39806 c 0,0 -10.51423,-7.49388 -10.51423,-7.49388 z"
       style="fill:#ec4b88;fill-opacity:1;stroke:none" />
    <path
       sodipodi:nodetypes="ccsssssssscc"
       id="path3778"
       d="m 249.78125,429.64205 c 0,0 -50.50373,12.18568 -50.50373,12.18568 -12.51949,12.9488 -23.6383,26.68818 -30.96502,43.10977 -13.61073,30.50612 3.75988,50.32047 48.6875,55.65625 26.90215,3.195 63.7428,0.25815 116.1875,-9.25 36.146,-6.55321 117.24524,-27.22915 136,-36.25 24.90095,-11.9771 54.43268,-23.67563 77.3125,-33 3.43569,-1.40017 -4.48849,-10.61673 -6.95354,-10.10356 -6.3079,1.31316 -8.7368,1.25489 -54.85896,13.72856 -53.17727,14.38172 -106.7953,28.31059 -161.78125,33.8125 -79.14358,7.91913 -101.88108,-20.05383 -69.42037,-62.04137 l -3.70463,-7.84783 z"
       style="fill:#ec4b88;fill-opacity:1;stroke:none" />
  </g>
  <path
     style="fill:url(#linearGradient4075);fill-opacity:1;stroke:none"
     d="m 184.26749,62.988542 c -12.52834,4.07355 -20.04749,16.26548 -27.30565,26.55478 -5.80245,7.69421 -11.82967,15.462808 -13.77945,25.063598 -4.29069,17.24079 -4.60173,35.121 -7.1024,52.63162 0.47831,8.65397 -1.54703,5.74535 -3.96872,-0.21174 -4.75749,-8.68592 -6.95256,-19.84202 -0.84378,-28.50701 4.05876,-7.75273 5.33334,-17.16975 1.25,-25.1875 -3.69565,-13.02884 -12.03817,-27.818638 -26.875,-29.374998 -7.39277,-0.66531 -13.03806,4.82581 -18.46875,8.71875 -9.55167,2.21098 -21.33965,-5.23729 -29.40625,2.90625 C 47.41542,106.22092 39.04618,119.75226 38.93677,135.076 c -2.79767,22.65639 -8.08854,45.08234 -7.41928,68.06879 -3.813613,33.3839 -18.895591,64.93589 -20.5625,98.625 3.746817,12.22906 10.112395,24.15169 18.84375,33.375 9.51589,4.63086 19.95512,-0.26278 29.5,-2.03125 10.85065,-3.71442 17.65914,-13.98223 20.375,-24.625 7.06457,-15.8883 8.6974,-33.55741 10.78125,-50.5625 12.31899,24.68993 27.51118,47.84644 41.28125,71.78125 13.77692,-10.42161 31.57182,-14.8197 47.25,-19.78125 4.58838,13.04983 18.33546,20.32936 31.03125,23.375 12.64193,1.79293 23.2863,-7.26499 29.1995,-17.62082 10.2778,-15.24603 14.01361,-33.87464 17.738,-51.41043 7.44002,-2.29066 14.31287,-6.11755 21.78125,-8.53125 -0.70637,22.87151 -1.16906,47.39809 10.5,67.75 0.92109,6.10638 6.90769,13.97457 13.65625,10.0625 13.1189,-12.58387 27.88391,-23.74906 37.21875,-39.5625 3.19888,15.37579 17.37274,25.9218 32.0625,29.15625 14.38828,4.2124 31.61342,-2.91338 36.90625,-17.34375 2.17129,-4.21458 3.39738,-8.7475 4.78125,-13.28125 24.40224,16.1876 49.64896,31.30663 77.43043,40.72292 24.3525,10.35783 47.89462,22.75493 72.63207,32.02708 12.71795,0.91537 28.78883,4.0565 38.5,-6.40625 6.29714,-7.23026 -0.0239,-19.52139 7.96875,-25.5625 3.89277,-2.7122 -1.96507,-6.59699 -4.875,-7.46875 -4.7136,-1.88651 -9.71929,-4.98106 -13.875,-6.96875 2.34459,-2.05299 4.18115,-5.77937 6.3125,-7.28125 8.33185,10.49008 21.63921,18.50657 35.4375,18.3125 16.0143,-0.62827 28.25918,-13.22655 37.3125,-25.09375 4.76963,-5.67681 7.1966,-13.5659 4,-20.59375 -3.69465,-7.30236 -4.46917,-15.15704 -4.09375,-23.21875 -0.96688,-9.72554 1.30663,-19.05052 5.32777,-27.78851 5.80984,-17.9765 9.35884,-36.64397 15.04653,-54.67992 1.08566,-3.79837 1.90313,-8.2928 3.0007,-11.71907 8.16168,5.39577 18.46596,5.65302 27.90625,4.5625 0.1365,44.51676 -7.56192,88.84902 -5.625,133.34375 2.98951,18.13109 21.68133,33.87032 40.5,28.9375 17.92494,-6.18198 26.89466,-25.41345 30.6875,-42.65625 3.71905,-17.07032 4.16268,-35.30001 6.3125,-52.125 1.46162,2.95023 7.16689,3.13999 5.37401,7.31198 -1.02864,20.98349 0.21106,44.78008 15.34866,60.77102 7.93718,11.32469 19.92523,22.01802 34.74505,21.11866 15.50568,0.28401 31.51104,-0.48711 46.21978,-5.57666 15.47157,-6.4384 25.42757,-20.71107 38.68676,-30.41752 12.48,-10.35458 23.1466,-22.61066 31.6658,-36.38605 12.5632,-15.39408 23.7876,-35.35871 19.4983,-56.07219 -3.0421,-22.18336 -1.6154,-46.29718 -14.0696,-65.87424 -5.0798,-8.79133 -13.1302,-14.8745 -19.2813,-22.78125 -8.6745,-9.87797 -22.26941,-12.511118 -34.81246,-13.593748 -8.32519,-0.78186 -16.19596,1.89122 -23.71875,4.781248 -9.2292,0.84525 -18.00657,-4.325998 -27.375,-2.499998 -14.26179,0.864158 -28.61905,9.080948 -34.1875,22.562498 -2.49113,-8.85452 -3.94249,-18.3007 -8.125,-26.437498 -6.47146,-8.92282 -18.80429,-8.43778 -28.75,-9.75 -24.96411,-1.30058 -49.9176,5.57703 -74.78125,2 -10.40063,-0.43645 -20.36757,5.88644 -25.0625,14.656248 -2.7831,-11.926498 -11.97357,-25.186518 -25.5625,-24.437498 -12.22179,1.31935 -21.29612,10.77318 -31.625,16.375 -15.10135,12.094418 -16.76141,32.921038 -19.17579,50.671928 -4.70009,24.17298 -16.23755,46.45988 -22.41796,70.35932 -1.5184,4.50888 -3.19926,8.93642 -5.46875,13.09375 -4.2843,-27.59934 2.15499,-55.2054 5.40625,-82.53125 1.51227,-10.1918 -5.12207,-18.54982 -11.28125,-25.78125 -4.90415,-5.3043 -7.19161,-12.15025 -10.40625,-18.3125 -10.72993,-14.786398 -38.11545,-14.062398 -45.48298,3.67341 -2.61074,5.06392 -5.46518,10.02125 -7.92327,15.17034 -6.53857,-12.66309 -15.36575,-25.120838 -27.5625,-32.687498 -5.81484,-2.80453 -13.04224,-2.44984 -17.0625,-8.28125 -5.68159,-5.5338 -13.45978,-9.01612 -21.5,-7.875 -20.84535,-2.15579 -42.60954,-12.7855 -63.4375,-4.4375 -30.55366,11.57394 -47.70496,46.225078 -43.59375,77.937498 0,0 0.84866,-4.6232 -5.71875,-31.375 -2.36717,-4.85417 -8.90745,-6.09157 -10.96875,-11 3.72065,-14.720198 -7.44468,-29.869668 -21.46875,-33.656248 -11.67968,-6.60526 -26.16133,0.26985 -33.625,10.125 -12.25662,12.01446 -29.44997,18.31538 -40.9375,31.187498 -8.09913,11.52635 -1.74354,26.25196 -6.51173,38.74639 -3.77656,14.22371 -11.12986,27.13251 -18.80077,39.56611 2.67365,-25.83946 4.52163,-51.96065 6.21875,-77.9375 -2.53631,-15.943848 -10.30096,-30.989138 -20.53125,-43.312498 -3.04739,-2.93833 -7.07076,-5.32552 -11.4375,-4.96875 z m 329,126.999998 c 0.65976,27.50497 1.7143,55.1334 5.96875,82.3125 -22.8041,-16.49147 -46.45704,-32.1504 -68.21875,-49.84375 22.00488,-10.22678 44.22996,-22.23841 60.625,-40.5 2.87005,-4.48522 0.86641,6.69594 1.625,8.03125 z"
     id="path4014"
     sodipodi:nodetypes="ccccccccccccccccccccccccccccccccccccccccccccccccccccccccccccccccccccccccccccccccccccccccccccccc" />
  <path
     style="fill:#000000;fill-opacity:1;stroke:none"
     d="m 173.3125,42.295782 c -12.52834,4.07355 -20.04749,16.26548 -27.30565,26.55478 -5.80245,7.69421 -11.82967,15.46281 -13.77945,25.0636 -4.29069,17.240788 -4.60173,35.120998 -7.1024,52.631618 0.47831,8.65397 -1.54703,5.74535 -3.96872,-0.21174 -4.75749,-8.68592 -6.95256,-19.84202 -0.84378,-28.50701 4.05876,-7.75273 5.33334,-17.16975 1.25,-25.187498 -3.69565,-13.02884 -12.03817,-27.81864 -26.875,-29.375 -7.39277,-0.66531 -13.03806,4.82581 -18.46875,8.71875 -9.55167,2.21098 -21.33965,-5.23729 -29.40625,2.90625 -10.35207,10.63863 -18.721306,24.16997 -18.830718,39.493708 -2.79767,22.65639 -8.088545,45.08234 -7.419282,68.06879 -3.813613,33.3839 -18.895591,64.93589 -20.5625,98.625 3.746817,12.22906 10.112395,24.15169 18.84375,33.375 9.515888,4.63086 19.95512,-0.26278 29.5,-2.03125 10.85065,-3.71442 17.65914,-13.98223 20.375,-24.625 7.06457,-15.8883 8.6974,-33.55741 10.78125,-50.5625 12.31899,24.68993 27.51118,47.84644 41.28125,71.78125 13.77692,-10.42161 31.57182,-14.8197 47.25,-19.78125 4.58838,13.04983 18.33546,20.32936 31.03125,23.375 12.64193,1.79293 23.2863,-7.26499 29.1995,-17.62082 10.2778,-15.24603 14.01361,-33.87464 17.738,-51.41043 7.44002,-2.29066 14.31287,-6.11755 21.78125,-8.53125 -0.70637,22.87151 -1.16906,47.39809 10.5,67.75 0.92109,6.10638 6.90769,13.97457 13.65625,10.0625 13.1189,-12.58387 27.88391,-23.74906 37.21875,-39.5625 3.19888,15.37579 17.37274,25.9218 32.0625,29.15625 14.38828,4.2124 31.61342,-2.91338 36.90625,-17.34375 2.17129,-4.21458 3.39738,-8.7475 4.78125,-13.28125 24.40224,16.1876 49.64896,31.30663 77.43043,40.72292 24.3525,10.35783 47.89462,22.75493 72.63207,32.02708 12.71795,0.91537 28.78883,4.0565 38.5,-6.40625 6.29714,-7.23026 -0.0239,-19.52139 7.96875,-25.5625 3.89277,-2.7122 -1.96507,-6.59699 -4.875,-7.46875 -4.7136,-1.88651 -9.71929,-4.98106 -13.875,-6.96875 2.34459,-2.05299 4.18115,-5.77937 6.3125,-7.28125 8.33185,10.49008 21.63921,18.50657 35.4375,18.3125 16.0143,-0.62827 28.25918,-13.22655 37.3125,-25.09375 4.76963,-5.67681 7.1966,-13.5659 4,-20.59375 -3.69465,-7.30236 -4.46917,-15.15704 -4.09375,-23.21875 -0.96688,-9.72554 1.30663,-19.05052 5.32777,-27.78851 5.80984,-17.9765 9.35884,-36.64397 15.04653,-54.67992 1.08566,-3.79837 1.90313,-8.2928 3.0007,-11.71907 8.16168,5.39577 18.46596,5.65302 27.90625,4.5625 0.1365,44.51676 -7.56192,88.84902 -5.625,133.34375 2.98951,18.13109 21.68133,33.87032 40.5,28.9375 17.92494,-6.18198 26.89466,-25.41345 30.6875,-42.65625 3.71905,-17.07032 4.16268,-35.30001 6.3125,-52.125 1.46162,2.95023 7.16689,3.13999 5.37401,7.31198 -1.02864,20.98349 0.21106,44.78008 15.34866,60.77102 7.93718,11.32469 19.92523,22.01802 34.74505,21.11866 15.50568,0.28401 31.51104,-0.48711 46.21978,-5.57666 15.47157,-6.4384 25.42757,-20.71107 38.68671,-30.41752 12.48004,-10.35458 23.14664,-22.61066 31.66584,-36.38605 12.5632,-15.39408 23.7876,-35.35871 19.4983,-56.07219 -3.0421,-22.18336 -1.6154,-46.29718 -14.0696,-65.87424 -5.0798,-8.79133 -13.1302,-14.874498 -19.2813,-22.781248 -8.6745,-9.87797 -22.2694,-12.51112 -34.81245,-13.59375 -8.32519,-0.78186 -16.19596,1.89122 -23.71875,4.78125 -9.2292,0.84525 -18.00657,-4.326 -27.375,-2.5 -14.26179,0.86416 -28.61905,9.08095 -34.1875,22.562498 -2.49113,-8.854518 -3.94249,-18.300698 -8.125,-26.437498 -6.47146,-8.92282 -18.80429,-8.43778 -28.75,-9.75 -24.96411,-1.30058 -49.9176,5.57703 -74.78125,2 -10.40063,-0.43645 -20.36757,5.88644 -25.0625,14.65625 -2.7831,-11.9265 -11.97357,-25.18652 -25.5625,-24.4375 -12.22179,1.31935 -21.29612,10.77318 -31.625,16.375 -15.10135,12.09442 -16.76141,32.921038 -19.17579,50.671928 -4.70009,24.17298 -16.23755,46.45988 -22.41796,70.35932 -1.5184,4.50888 -3.19926,8.93642 -5.46875,13.09375 -4.2843,-27.59934 2.15499,-55.2054 5.40625,-82.53125 1.51227,-10.1918 -5.12207,-18.54982 -11.28125,-25.781248 -4.90415,-5.3043 -7.19161,-12.15025 -10.40625,-18.3125 -10.72993,-14.7864 -38.11545,-14.0624 -45.48298,3.67341 -2.61074,5.06392 -5.46518,10.02125 -7.92327,15.170338 -6.53857,-12.663088 -15.36575,-25.120838 -27.5625,-32.687498 -5.81484,-2.80453 -13.04224,-2.44984 -17.0625,-8.28125 -5.68159,-5.5338 -13.45978,-9.01612 -21.5,-7.875 -20.84535,-2.15579 -42.60954,-12.7855 -63.4375,-4.4375 -30.55366,11.57394 -47.70496,46.22508 -43.59375,77.937498 0.71062,14.91666 5.00989,30.9185 3.40625,45.125 -1.68313,-11.00856 -1.94057,-23.79011 -3.10022,-35.46212 -1.32265,-13.73588 -2.18211,-27.76581 -6.02478,-41.037878 -2.36717,-4.85417 -8.90745,-6.09157 -10.96875,-11 3.72065,-14.7202 -7.44468,-29.86967 -21.46875,-33.65625 -11.67968,-6.60526 -26.16133,0.26985 -33.625,10.125 -12.25662,12.01446 -29.44997,18.31538 -40.9375,31.1875 -8.09913,11.526348 -1.74354,26.251958 -6.51173,38.746388 -3.77656,14.22371 -11.12986,27.13251 -18.80077,39.56611 2.67365,-25.83946 4.52163,-51.96065 6.21875,-77.937498 -2.53631,-15.94385 -10.30096,-30.98914 -20.53125,-43.3125 -3.04739,-2.93833 -7.07076,-5.32552 -11.4375,-4.96875 z m 226.90625,78.062498 c 0,-20 30,-20 30,0 0,23.95494 -30,20.31943 -30,0 z m 407.03125,19.625 c -2.86595,8.86501 -8.84782,18.0485 -13.84375,24.59375 0.0654,-6.78141 -0.2071,-13.5697 0.21875,-20.34375 4.66744,-0.47181 9.97123,-2.74955 13.625,-4.25 z m -304.9375,29.3125 c 0.65976,27.50497 1.7143,55.1334 5.96875,82.3125 -22.8041,-16.49147 -46.45704,-32.1504 -68.21875,-49.84375 22.00488,-10.22678 44.22996,-22.23841 60.625,-40.5 2.87005,-4.48522 0.86641,6.69594 1.625,8.03125 z m 407.90625,11.0625 c 0,24.94234 -39.10305,60 -50,60 -10,0 -10,-10 -10,-40 0,-30.18749 20,-50 40,-50 18.77108,0 20,5.05766 20,30 z"
     id="path4292"
     sodipodi:nodetypes="ccccccccccccccccccccccccccccccccccccccccccccccccccccccccccccccccccccccccccccccccccccccccccccczzcccccccccczzzz" />
  <path
     style="fill:#ffffff;fill-opacity:1;stroke:none"
     d="m 173.46875,50.202032 c -11.88647,7.126 -17.75279,20.78795 -26.875,30.78125 -10.51565,14.68286 -8.42215,33.722228 -11.96778,50.586028 -2.79443,20.70416 -2.00389,43.06995 -4.68847,62.91397 -7.53169,-8.23818 -4.35091,-20.38208 -9.2935,-29.87199 -4.32827,-13.07321 -14.94343,-25.53183 -11.8315,-40.00301 1.2455,-8.32727 9.54373,-14.77949 6.75,-23.71875 -2.2814,-6.521848 -3.92452,-13.404878 -7.0625,-19.468748 -3.68242,-4.81646 -8.9928,-9.6943 -15.21875,-10.3125 -7.11658,0.40985 -9.70906,9.33555 -17.0625,8.96875 -7.45533,0.96919 -14.87081,-0.93138 -22.3125,-1.1875 -8.48956,9.79862 -18.35957,20.6799 -17.375,34.593748 -2.63224,21.26044 -8.735566,42.31164 -7.375,63.96875 -2.824137,34.56919 -17.878233,67.09093 -21.375,101.625 1.844452,9.61391 8.883045,17.15852 12.59375,26.0625 3.26983,5.94367 10.55734,2.1096 15.625,1.9375 9.49396,-1.26324 21.47332,-5.76926 22.5625,-16.59375 4.21424,-9.75834 8.63522,-19.43362 9.75,-30.15625 1.86856,-12.83819 3.4867,-25.69656 5.125,-38.53125 -1.53716,-4.28292 4.44956,-2.26773 6.65625,-2.34375 2.17744,2.01719 2.29925,6.83941 4.375,9.5 11.19629,23.88755 25.70712,46.0227 39,68.8125 13.44029,-8.25247 29.01261,-11.76883 43.8125,-16.84375 7.99754,-18.36705 7.91394,-38.95461 13.90625,-57.9375 2.95216,9.6797 6.80219,21.20885 0.0312,30.3125 -4.92347,6.49284 -9.64155,14.5136 -7.09375,22.9375 0.12916,7.46856 1.57683,16.02699 8.84375,19.8125 7.41305,5.99279 18.76375,12.24861 27.9375,6.34375 14.3025,-10.58305 19.1258,-29.04473 24.21875,-45.1875 1.8825,-6.21552 1.82942,-13.33933 3.71875,-19.21875 6.21484,-2.55622 12.5032,-4.78507 18.5807,-7.63643 5.92248,-2.30021 11.90926,-4.77282 18.2943,-5.36357 1.08921,20.33827 -2.79988,41.67355 4.125,61.21875 2.5405,6.58819 5.71008,12.81728 8.375,19.40625 13.83955,-13.26765 29.6664,-25.73297 38.00076,-43.3743 4.23783,-14.75197 7.17943,-30.45385 3.34299,-45.6257 -0.89251,-4.68694 0.48694,-10.19966 3.59375,-13.34375 0.16892,8.34582 6.70553,14.0623 12.125,19.46875 1.97173,3.30684 -0.32193,7.26265 0.75,10.9375 0.47661,5.30792 -1.26544,11.95029 -7,13.375 -4.79072,4.39452 -1.06971,11.39016 -2.78125,16.90625 -0.41262,12.56075 7.93805,25.18679 20.40625,28.125 9.31549,4.52092 22.76046,5.76186 29.625,-3.5 7.19571,-8.01184 8.57166,-19.34014 12.0625,-28.90625 7.32857,3.95063 14.1237,8.97233 21.4375,13.15625 16.30205,11.24338 33.38746,21.01466 52.11386,27.4704 27.51518,11.29398 54.14634,24.83735 81.60489,36.2796 9.64015,0.76035 20.26593,2.42729 29.375,-1 7.58522,-5.87513 1.36397,-16.87044 6.8125,-23.8125 -50.38796,-24.62829 -94.01021,-60.2872 -140.02547,-92.10923 -6.22657,-5.03333 -14.1165,-9.08821 -18.31828,-16.10952 -1.28451,-6.87807 7.38988,-10.37865 12.46875,-12.59375 21.73499,-10.41267 43.34097,-23.20079 57.34375,-43.3125 6.03821,-5.84586 7.91084,-14.29197 7.03125,-22.4375 -0.0731,-13.15882 -5.49915,-25.773198 -14.34375,-35.406248 -5.54864,-8.44237 -13.22458,-17.64131 -24.3125,-17.25 -7.88652,-2.97299 -11.90689,-14.1921 -21.53125,-12.84375 -17.49763,-0.88965 -34.29934,-7.54418 -51.8125,-8.25 -18.62407,2.13038 -35.63763,14.61103 -43.60346,31.61318 -6.36356,12.29526 -9.24497,26.308888 -7.35725,40.163638 0.81263,16.51068 4.4477,32.93902 3.77321,49.47318 -0.28726,6.06539 -4.65795,9.91584 -9.25,12.90625 -1.21612,0.57937 0.0613,-4.89952 -0.8125,-6.90625 -0.45323,-2.4383 -5.22026,-1.34302 -6.0625,-4.65625 -1.62366,-6.17656 -0.61548,-12.89729 -1.86222,-19.26042 -2.06363,-18.63436 -2.57134,-37.7302 -5.98153,-56.052078 -3.33347,-6.02606 -12.33489,-7.91313 -13.21875,-15.34375 4.34012,-10.89639 -3.16383,-23.96758 -14.5625,-25.96875 -5.46115,-4.55553 -13.31887,-4.07013 -18.6875,0.375 -10.01387,8.4874 -19.27889,17.72726 -30.9375,24.09375 -7.45132,5.5254 -18.65835,10.02657 -19.5,20.593748 -0.85926,9.22129 1.74028,18.84458 -2.34375,27.5 -6.88135,25.25121 -21.91357,46.87336 -37.08053,67.85536 -3.63176,7.41095 -2.16659,1.79022 -1.12631,-3.31338 4.8241,-27.49384 5.51168,-55.50347 8.42868,-83.24395 0.0505,-9.90407 3.92896,-20.380518 -1.22184,-29.579278 -4.39437,-11.23886 -8.92928,-23.71324 -18.65625,-31.28125 -0.86106,-0.25522 -1.76378,-0.30929 -2.65625,-0.21875 z m 484.8125,15.15625 c -8.46247,2.31408 -15.14525,8.70544 -22.96875,12.5 -9.66082,6.04573 -15.0446,16.87807 -16.35237,28.011828 -3.3188,18.44192 -5.62453,37.22327 -13.62375,54.33075 -5.61849,13.27549 -8.81402,27.36545 -13.4663,40.92619 -3.99161,8.29295 -7.31653,18.06297 -14.65133,24.13748 -2.04195,-0.16338 -2.40598,-4.45226 -3.5,-6.03125 -2.73831,-10.38361 -2.42353,-21.51304 -3.21875,-32.25 -0.25139,-21.92924 5.11598,-43.40676 7.34375,-65.03125 -2.10818,-12.47873 -15.38746,-19.04757 -18.125,-31.218748 -2.83811,-6.73617 -9.59942,-12.33805 -17.25,-11.21875 -6.43754,-1.25045 -13.96547,1.42077 -16.09375,8.0625 -7.95445,12.10773 -13.84171,25.815038 -16.74567,39.999988 0.24318,40.69521 1.06102,81.57319 6.08942,121.96876 1.78017,12.11508 9.25932,22.62857 19.71875,28.8125 8.64245,5.31978 17.54746,10.56911 25.21875,17.03125 8.00108,3.68953 16.34925,-2.82901 19.65625,-9.84375 2.03615,-3.5404 8.52569,-7.22691 10.9375,-1.9375 7.41905,10.03458 19.1859,17.4791 31.84375,17.9375 13.23358,-1.94523 22.72403,-12.979 30.8415,-22.65742 4.14385,-4.6904 4.29687,-12.07077 0.25225,-16.74883 -4.07931,-10.76111 -1.38507,-22.56523 -2.9375,-33.6875 2.22244,-11.88853 9.31424,-22.33159 10.46875,-34.5 6.04744,-25.32462 16.46962,-49.90276 16.54833,-76.37383 0.11652,-0.74762 0.50851,5.13426 1.19609,7.3196 0.87256,8.05309 6.08667,16.08316 14.56808,17.27298 8.21492,2.09834 16.68138,0.20972 24.8125,-0.65625 1.08605,37.92207 -4.58903,75.61399 -5.3087,113.49437 -0.23029,13.5715 -3.97132,29.64019 5.90245,40.84938 6.6467,8.38489 19.40635,13.62948 29.09375,7.15625 12.06722,-7.77789 17.12674,-22.47063 20.82895,-35.60398 2.66518,-21.07058 4.68287,-42.33433 6.71715,-63.51802 -1.47851,-10.0853 8.3754,-16.53284 8.2664,-26.3155 2.17972,-13.45947 0.34783,-27.77477 1.46875,-40.90625 10.37442,-0.003 23.8362,-3.49928 26.75,-14.90625 2.21947,-9.04154 2.01884,-18.74294 -2,-27.281248 -3.24122,-5.70457 -0.8845,-15.94256 -8.6875,-18.03125 -16.16841,-4.63803 -33.49033,-3.44669 -50.08152,-1.90414 -13.94696,2.4422 -28.07633,2.4057 -42.10598,0.90414 -8.10892,-0.87193 -15.21786,4.13508 -18.79567,11.1505 -4.34425,8.24567 -11.71344,15.552718 -12.48558,25.193248 -0.22066,-10.86331 -0.002,-22.236338 -3.21875,-32.562498 -3.52204,-6.44841 -8.27645,-14.73751 -16.90625,-13.875 z m 244.375,18.96875 c -10.23343,0.11355 -19.87504,8.99909 -30.0625,4.15625 -12.92822,-3.29977 -28.50069,-1.90274 -38.625,7.34375 -5.92427,7.497638 -9.17616,16.730008 -13.25,25.312498 -4.4817,12.30282 -5.12548,26.21627 -13.46162,36.94888 -6.38542,10.30088 -13.56418,20.27722 -19.03838,31.08237 -2.48162,6.67889 -3.47372,14.61409 -0.9375,21.34375 1.40132,3.65438 5.36444,4.9555 8.3125,6.59375 1.50443,14.26814 -0.77481,29.16092 2.71875,43.25 4.19457,14.06421 14.42482,25.66919 25,35.375 7.18242,4.61684 16.7448,3.59422 25.06142,3.60979 15.64247,-1.01847 33.12451,-1.17123 45.28233,-12.48479 13.96585,-14.73682 31.95758,-25.59111 44.4429,-41.6479 6.7293,-11.74829 15.9525,-21.71411 22.9829,-33.13192 5.1321,-11.15958 8.0207,-23.77642 4.6679,-35.93893 -1.9507,-19.09143 -1.6077,-39.42583 -10.8124,-56.84375 -5.5673,-9.68583 -15.2421,-16.19424 -21.3126,-25.562498 -8.55825,-6.97375 -20.41334,-8.25026 -30.9687,-9.40625 z m -493.9375,27.843748 c 7.0359,1.50201 15.98157,3.20013 20.03125,9.71875 -2.2015,6.35313 -10.34503,7.96205 -15.875,10.1875 -5.92821,3.27937 -7.42699,0.57431 -6.58188,-5.34162 -0.14814,-5.00909 -0.28222,-10.02878 0.0506,-15.03338 0.79167,0.15625 1.58333,0.3125 2.375,0.46875 z m 488.625,40.65625 c 5.27713,-0.23299 6.16048,5.80123 6.07063,9.8036 1.00451,12.37665 3.72545,26.61333 -4.07063,37.41515 -8.60183,13.6857 -18.22741,27.67385 -31.8125,36.5625 -3.12409,1.54036 -8.75515,4.73668 -10.15625,-0.59375 -4.45409,-10.76533 -2.52396,-23.09522 -1.53125,-34.375 2.30753,-15.44689 7.72594,-30.56079 16,-43.71875 6.42498,-6.84551 17.25418,-3.24237 25.5,-5.09375 z"
     id="path4079" />
  <path
     style="fill:url(#linearGradient4341);fill-opacity:1;stroke:none"
     d="m 22.821653,296.99653 c -1.704502,-2.9196 -4.530191,-8.28499 -6.279309,-11.92311 l -3.180216,-6.61474 3.751832,-18.31501 c 2.063507,-10.07326 3.96836,-18.66535 4.233005,-19.09356 0.264645,-0.42821 1.345906,-3.99906 2.402802,-7.93522 4.733255,-17.62793 6.421283,-24.56803 7.217863,-29.67526 0.46988,-3.01262 1.62985,-8.17872 2.57773,-11.48022 1.09436,-3.81176 1.7234,-11.84014 1.7234,-21.99585 0,-11.67668 0.6809,-19.09089 2.52286,-27.47085 1.38758,-6.31276 2.74899,-13.39486 3.02537,-15.73801 3.25261,-27.576128 2.57582,-25.15505 9.42419,-33.713198 l 6.32894,-7.90904 7.11304,0.80031 c 3.91217,0.44018 10.20907,0.41349 13.99312,-0.0593 5.55177,-0.69365 7.6643,-1.64383 10.94202,-4.92155 l 4.06193,-4.06193 4.96804,2.76333 c 5.66099,3.14877 5.57021,2.9998 9.74319,15.98778 l 3.10478,9.663308 -4.26281,9.10501 c -3.85459,8.23307 -4.22068,9.93042 -3.82282,17.72416 0.38456,7.53299 1.24545,10.20648 6.83145,21.21513 5.95801,11.74179 8.12231,18.87811 10.61221,34.99144 0.60365,3.90655 2.19546,6.39218 7.35971,11.49227 3.6242,3.57919 6.83453,6.26253 7.13407,5.963 1.09065,-1.09064 3.42906,-27.86979 4.40417,-50.43603 0.59746,-13.82633 1.76585,-26.06432 2.90528,-30.43053 1.04824,-4.01683 1.9346,-9.7682 1.96966,-12.78082 0.14467,-12.429898 2.8438,-20.848588 9.56126,-29.821918 11.103,-14.83165 20.20711,-26.15255 21.03874,-26.16155 1.81402,-0.0196 11.0842,16.55546 14.22824,25.44014 l 3.37446,9.53581 -1.57404,16.894168 c -0.86573,9.29179 -2.70425,30.58791 -4.0856,47.3247 -1.38137,16.73679 -3.50896,34.81252 -4.72798,40.1683 -5.62932,24.73238 -7.53917,32.69738 -8.03103,33.49322 -0.29195,0.47239 -1.30787,5.18016 -2.2576,10.4617 -4.33586,24.11214 -7.31327,36.99121 -8.55418,37.00189 -2.53133,0.0218 -27.35721,8.37715 -32.13904,10.81667 l -4.76968,2.43331 -15.69337,-26.26636 c -8.63135,-14.44649 -17.68968,-31.193 -20.12963,-37.21449 -2.43995,-6.02147 -5.1787,-11.41858 -6.08611,-11.99354 -0.90741,-0.57498 -4.72309,-1.05381 -8.4793,-1.06406 l -6.82948,-0.0186 -0.71556,5.7818 c -5.5738,45.0372 -7.57097,55.8108 -11.3785,61.38072 -1.68271,2.46158 -3.36265,6.73595 -3.7332,9.49859 -0.60586,4.51705 -1.24901,5.3145 -6.38516,7.91719 -3.14129,1.5918 -9.00279,3.26658 -13.02555,3.7217 l -7.314102,0.8275 -3.099095,-5.30837 0,0 z"
     id="path2900" />
  <path
     style="fill:url(#linearGradient4343);fill-opacity:1;stroke:none"
     d="m 201.76274,298.74198 c -8.15206,-1.41635 -15.29498,-6.74631 -20.71246,-12.6848 0.3325,-8.20569 -4.33108,-17.83832 1.98609,-24.6057 3.42333,-6.00961 9.3701,-11.87936 7.47861,-19.81951 1.97576,-8.9594 -4.78984,-18.27173 -3.98609,-25.69841 3.88604,-8.23009 7.36593,-16.52757 12.95153,-23.53282 5.75371,-6.48221 9.57286,-13.54353 14.14323,-20.65784 5.14362,-7.66225 9.08049,-15.99036 12.37315,-24.39998 2.79984,-8.39875 7.03335,-17.23161 7.9767,-26.41014 2.02733,-8.4955 -4.05737,-21.492758 5.56895,-26.187958 5.25629,-3.74887 10.46747,-7.07344 15.60681,-10.54352 9.26924,-5.47962 16.90252,-13.36465 25.27636,-19.98065 4.74225,-5.11917 9.56666,-5.49813 15.14981,-0.50949 10.59638,1.73294 13.10681,9.94432 10.04582,19.29792 -0.38567,9.58824 10.63777,13.10272 14.70345,19.563368 0.62766,12.06677 2.37269,23.9507 3.04673,36.0178 1.1592,10.77961 2.18519,21.36421 3.09229,32.1969 -0.62322,5.87223 2.50508,9.60846 6.69751,11.17343 0.72228,10.5004 -5.92155,18.55381 -10.1951,27.04882 0.45456,10.18985 3.16745,20.15914 2.33184,30.37995 -2.50356,8.0446 -2.74043,16.70433 -5.92231,24.54755 -8.58417,11.38139 -18.33701,22.1131 -29.00634,31.58809 -3.6856,-8.44658 -8.34053,-17.3801 -8.31,-26.8042 -0.37055,-16.62123 -0.33047,-33.24796 -0.47258,-49.87205 -11.85763,-0.9175 -22.60235,4.68802 -33.43829,8.59874 -5.65067,4.54172 -17.64118,2.87949 -16.14295,13.16319 -1.15595,10.02304 -3.40517,19.91303 -7.29859,28.94723 -2.32013,7.60288 -5.83449,15.58755 -11.05879,21.98069 -3.31696,3.07509 -6.49705,9.08899 -11.88538,7.20339 z m 73.39187,-125.93619 c 4.76746,0.22041 0.86798,-6.64875 1.77953,-9.55683 0.31411,-4.91729 -0.48526,-13.94375 -5.64837,-5.84949 -0.7299,5.37547 -12.49814,17.94314 -1.55209,16.03153 1.81223,-0.15886 3.62017,-0.36688 5.42093,-0.62521 z"
     id="path3690" />
  <path
     style="fill:url(#linearGradient4345);fill-opacity:1;stroke:none"
     d="m 552.77889,330.32098 c -11.90114,-5.80782 -24.28176,-11.33002 -36.36746,-16.94341 -14.04495,-6.10542 -28.23425,-12.93115 -42.57737,-18.75155 -13.36566,-5.72952 -27.40363,-10.00506 -38.66916,-19.39215 -11.58633,-6.63485 -22.63756,-14.41626 -34.17975,-21.11446 -11.12286,-4.66646 -8.6378,9.81457 -12.19671,15.97869 -3.19008,11.30784 -9.59973,23.42457 -23.35975,18.52568 -7.98946,-2.89561 -16.63733,-4.30636 -20.64246,-13.17308 -3.85128,-6.96109 -1.46356,-15.82495 -2.23417,-23.65737 10.51452,-3.69894 9.65487,-14.15626 9.03751,-23.61444 3.38218,-10.43804 -8.21228,-12.17856 -10.61563,-20.07579 -4.49327,-5.33137 -0.67164,-14.41409 3.35583,-18.9423 12.93283,-5.49802 11.54429,-21.73905 9.8633,-33.52225 -1.11735,-14.48151 -2.57729,-28.79404 -3.68686,-43.32776 -0.26782,-10.26352 4.39762,-19.744558 8.64839,-28.626978 5.2124,-10.42764 13.58861,-18.52197 24.595,-22.20345 11.264,-7.78911 25.50135,-2.50357 37.4492,0.34605 10.34943,1.89344 20.86286,3.36213 31.46221,4.35781 5.82638,5.28283 10.6223,12.89479 19.3324,12.74904 10.41746,0.72178 13.79045,12.35253 20.0569,18.62344 7.88336,8.698448 10.89807,20.823538 9.75437,32.427148 0.88039,5.59521 -1.01069,9.90154 -5.32227,13.51977 -6.85854,8.04441 -12.61911,17.22946 -22.24359,22.51555 -10.24661,8.88283 -23.02094,13.74751 -34.66289,20.57321 -10.15259,2.70703 -20.83704,15.23577 -10.45973,24.1356 7.61866,7.83354 17.03449,13.94972 26.08213,20.15588 17.67188,13.00715 35.53542,25.28311 53.38738,37.89853 15.01203,11.06882 29.81965,21.81935 46.32332,30.66142 9.16326,4.96433 17.60726,10.87129 26.93025,15.13998 -1.96633,5.0881 1.38899,15.53115 -3.73951,16.84839 -8.41922,-0.34042 -17.09793,0.75119 -25.32088,-1.1112 z M 404.27791,140.60691 c 10.58089,-2.87711 22.46406,-4.99941 29.36324,-14.28086 7.21904,-11.7608 -15.33489,-18.63822 -24.41731,-20.26719 -6.79133,-2.21016 -10.62984,2.59306 -8.9019,8.87727 0.0865,8.86946 -0.26349,17.76903 0.45646,26.61249 l 1.21627,-0.27949 2.28324,-0.66222 0,0 z"
     id="path3700" />
  <path
     style="fill:url(#linearGradient4347);fill-opacity:1;stroke:none"
     d="m 619.72605,295.74523 c -8.79113,-3.31531 -18.41081,-7.10904 -23.42295,-15.59162 -3.13846,-7.43468 -16.19597,-6.13726 -19.31887,0.40406 -4.96745,6.66484 -10.63472,15.3192 -17.66278,5.63119 -7.38583,-5.30018 -15.63698,-9.14119 -23.14549,-14.40965 -6.75541,-5.82142 -13.45638,-12.31911 -13.82101,-21.64245 -2.98726,-10.39053 -2.85011,-21.44602 -3.96195,-32.2466 -1.19492,-30.74161 -3.31348,-61.49568 -2.75726,-92.27286 2.5542,-7.18134 5.50116,-14.54877 8.30322,-21.79595 2.55919,-6.073328 7.28175,-11.554338 10.16095,-17.268958 2.37213,-2.34362 8.2618,-0.23548 11.85858,-0.95157 7.95489,0.75708 8.60657,12.37889 13.52267,17.867858 3.79202,8.08216 14.95922,13.79327 12.06886,23.74334 -2.16612,12.85202 -4.91911,25.68977 -5.60246,38.6876 -2.42306,15.23325 -1.69021,30.96203 0.51433,46.15179 -0.64938,6.95215 4.26987,18.2312 9.74851,20.18677 6.63319,-2.40544 11.93024,-7.86494 13.99653,-14.90603 6.85755,-10.04265 10.47605,-21.64931 13.14974,-33.39625 1.53383,-7.05789 4.86478,-13.17792 7.13761,-20.10091 3.50378,-9.5212 6.88578,-19.1599 9.57619,-28.80429 1.67226,-8.59241 2.59235,-16.95497 4.07804,-25.64178 2.55175,-8.97341 3.61415,-20.258198 12.93537,-24.879448 5.02051,-5.14433 12.01691,-6.96849 17.65442,-11.34777 8.09784,-6.29826 12.46011,4.57815 15.92477,10.23019 2.64173,20.787478 2.33547,42.173268 -1.75842,62.777568 -1.77823,8.21435 -4.79126,15.94343 -7.17926,23.90075 -2.2409,8.52437 -4.37132,17.47025 -6.59411,26.22149 -1.88502,8.45741 -4.9419,16.62442 -8.18919,24.38287 -3.77804,7.47467 -0.46919,16.64935 -1.01174,24.81751 0.0937,8.23958 0.0406,17.08424 5.38011,23.69124 0.2465,7.19759 -9.55868,12.60452 -13.41197,18.87798 -5.60171,2.89845 -11.58144,8.50408 -18.17244,7.68393 z"
     id="path3710" />
  <path
     style="fill:url(#linearGradient4349);fill-opacity:1;stroke:none"
     d="m 733.53623,299.30952 c -6.77866,-3.81403 -13.60569,-10.19039 -14.62014,-18.10561 -0.15882,-14.38573 0.38987,-28.78581 1.53898,-43.0825 0.1597,-13.34297 1.86803,-26.61342 1.97339,-39.95877 1.99228,-11.28845 1.33107,-22.91342 2.53743,-34.31941 0.1782,-9.3954 0.64812,-18.88719 -0.50797,-28.22185 -9.43105,-1.38782 -18.90287,3.74948 -28.23188,0.41721 -10.11668,0.3931 -10.92515,-11.62949 -11.52143,-19.12908 -2.51582,-8.41317 4.25754,-14.73407 7.7504,-21.462748 4.2696,-5.53963 7.22866,-15.59369 15.93336,-13.74503 10.35789,-0.0544 20.7743,1.14932 31.09784,0.7456 12.60067,-2.5457 25.42578,-3.39523 38.26993,-2.96771 7.96701,-0.4402 15.86747,0.57968 23.41269,3.14198 1.48578,5.92052 2.71912,11.64601 4.57742,17.413868 4.29118,6.84056 1.5874,14.69025 0.47077,21.8475 -2.76618,7.50026 -13.77071,7.60713 -20.65163,9.24286 -6.31862,-0.85458 -6.65304,3.19119 -6.07906,7.90506 -0.16592,10.77769 0.46623,21.62474 -0.60861,32.34626 -0.28662,7.10551 -1.30935,13.79904 -6.37329,19.23246 -3.75527,7.06664 -1.52062,16.01502 -3.35759,23.78636 -1.43964,12.88948 -3.2537,25.7643 -3.83868,38.72642 -2.15454,6.37334 -0.16876,14.35874 -4.26363,20.04488 -2.13854,7.9724 -5.66009,15.06835 -11.22797,21.1378 -3.16975,4.57564 -11.02433,6.92233 -16.28033,5.00445 z"
     id="path3720" />
  <path
     style="fill:url(#linearGradient4351);fill-opacity:1;stroke:none"
     d="m 833.38456,292.9385 c -3.34527,-0.11775 -6.53039,-0.56301 -8.4191,-3.65935 -6.58854,-6.68927 -12.96066,-13.67232 -17.11797,-22.07718 -4.86096,-6.8033 -5.63692,-15.14752 -5.28302,-23.54964 -0.54767,-10.02742 0.11933,-20.24138 -1.7044,-30.13388 -2.7197,-3.2647 -10.34697,-3.29951 -8.59292,-9.0049 -0.1597,-6.20559 -0.51553,-12.56219 4.09342,-17.37159 6.61003,-11.16605 13.34299,-22.02485 20.22298,-33.0559 5.40334,-7.73937 5.28901,-17.37245 8.16238,-26.222 2.83359,-9.72459 8.66475,-18.1374 12.5525,-27.26431 5.63705,-5.473158 14.43364,-7.654428 22.23717,-7.427248 9.83527,-2.20464 18.43749,6.833738 27.86975,1.11992 7.91802,-1.99235 16.12093,-6.38425 24.14947,-2.47656 8.31126,1.44289 17.37726,2.63547 21.58343,10.911748 5.3793,7.94425 14.3247,13.29208 18.1739,22.16388 2.5986,9.12431 6.0244,18.13542 6.4971,27.6187 0.8454,9.5626 1.1028,19.32479 2.4694,28.89842 3.4756,8.56452 -1.3238,17.00814 -3.2018,25.17253 -2.5928,8.16585 -10.1359,13.77666 -14.4419,20.78815 -4.1759,6.33157 -8.1416,12.58834 -12.2852,18.84981 -15.08022,13.21265 -30.24216,26.39005 -45.27441,39.69378 -7.14572,4.77162 -16.73112,5.69281 -25.30232,6.72348 -8.78965,0.21493 -17.61322,1.34213 -26.38846,0.30214 z m 27.04697,-47.9195 c 8.66683,-1.0762 16.36531,-5.91117 21.91513,-12.83867 8.30908,-9.06679 16.61373,-18.37669 22.09968,-29.45121 4.98979,-5.46482 6.73563,-12.75695 5.88166,-20.29494 0.23123,-10.04709 0.12664,-20.14759 -2.84866,-29.83913 -2.95636,-7.04047 -13.1883,-5.87414 -19.57948,-4.96472 -8.55818,-0.32486 -19.87519,1.0143 -22.95563,10.53881 -4.5859,9.21187 -10.0024,18.02411 -12.04094,28.2989 -2.96789,9.43606 -2.9877,19.46035 -4.63341,29.08913 1.33848,7.77108 -0.0532,16.53521 3.75401,23.58208 3.03589,1.86763 3.61511,8.84267 8.40764,5.87975 z"
     id="path3730" />
  <path
     style="fill:#ff0000;fill-opacity:1;stroke:none"
     d="m 860,332.19293 c 0,0 -15,0 -15,0 -14.77977,17.45491 -41.61383,58.63941 -41.61383,58.63941 0,0 16.61383,0.36059 16.61383,0.36059 0,0 21,-31 21,-31 0,0 18,13 18,13 0,0 14,-12 14,-12 -5,-6 -14,-12 -25,-14 0,0 12,-15 12,-15 z m -152,2 c 0,0 -9,13 -9,13 0,0 -30,0 -30,0 0,0 -7,10 -7,10 3.48978,0 17.37775,0 24,0 4,0 4.40613,3.45919 3,5 -7.54368,8.26623 -18,20 -38,20 0,0 5,9 5,9 17,0 31.89092,-12.7017 39.1694,-19.46704 C 702.44788,364.96055 707,358.19293 707,358.19293 c 0,0 27,0 27,0 0,0 8,-11 8,-11 0,0 -25,0 -25,0 0,0 9,-13 9,-13 l -18,0 z m 72,1 c -8.41076,18.4525 -36,51 -36,51 0,0 8,5 8,5 17,-3 47,-20 59,-30 0,0 -6,-9 -6,-9 0,0 -24.43166,19 -33,19.00003 0,0 23,-36 23,-36 0,0 -15,0 -15,0 l 0,-3e-5 z m -5,1 c 0,0 -15,0 -15,0 -2,8 -30,45 -47,49 0,0 8,6 8,6 16.42619,-7.0943 46.59375,-38.22785 54,-55 z m -156,16 c 0,0 -7,12 -7,12 0,0 34,0 34,0 0,0 8,-12 8,-12 0,0 -35,0 -35,0 z m 272,0 c 0,0 -7,12 -7,12 0,0 36,0 36,0 0,0 7,-12 7,-12 l -36,0 z"
     id="path3810"
     sodipodi:nodetypes="cccccccccccccsscczcccccccccccccccccccccccccccccc" />
</svg>
