<svg id="Layer_1" data-name="Layer 1" xmlns="http://www.w3.org/2000/svg" viewBox="0 0 3840 549.20001"><path d="M47.7,69.5V260.4H0V2.7H40.7L234,190.4V2.7h47.1V260.4H243.8Z" transform="translate(0 0)" style="fill:#fff"/><path d="M526,69.5V260.4H478.3V2.7H519L712.3,190.4V2.7h47.1V260.4H722.1Z" transform="translate(0 0)" style="fill:#fff"/><path d="M1517.4,69.5V260.4h-47.69995V2.7H1510.4l193.2,187.7V2.7h47.1V260.4H1713.5Z" transform="translate(0 0)" style="fill:#fff"/><path d="M394.7,2.7h8.9V260.4H355.9V2.7Z" transform="translate(0 0)" style="fill:#fff"/><path d="M1084.30005,2.7h8.80005V47.1h-115V260.4h-49.6V47.1h-115V2.7Z" transform="translate(0 0)" style="fill:#fff"/><path d="M1390,2.7h8.9V47.1H1194.4v57.8h158.2v44.3H1194.4V216h204.5v44.4H1147.20007V2.7C1149.9,2.7,1390,2.7,1390,2.7Z" transform="translate(0 0)" style="fill:#fff"/><path d="M2094.30005,40.4C2075.6001,15.8,2048,2.7,2014.6001,2.7h-191.2V260.4h191.2c33.3999,0,61-13.1,79.69995-37.7,17.3999-22.9,26.7-54.4,26.7-91.3C2121,94.8,2111.7,63.2,2094.30005,40.4ZM2016,216H1869.4V47H2016c45.8,0,62.1001,45.6,62.1001,84.5C2078.2,170.5,2061.80005,216,2016,216Z" transform="translate(0 0)" style="fill:#fff"/><path d="M2432.8999,2.7H2225a54.82038,54.82038,0,0,0-54.6001,54.7V205.8A54.73468,54.73468,0,0,0,2225,260.4h207.8999a54.82034,54.82034,0,0,0,54.7-54.6V57.4A54.90585,54.90585,0,0,0,2432.8999,2.7Zm8.90015,202.8a10.69145,10.69145,0,0,1-10.69995,10.6H2226.80005a10.69145,10.69145,0,0,1-10.69995-10.6V57.7a10.69144,10.69144,0,0,1,10.69995-10.6H2431.1001a10.69144,10.69144,0,0,1,10.69995,10.6Z" transform="translate(0 0)" style="fill:#fff"/><path d="M2432.8999,291.5H2225a54.75588,54.75588,0,0,0-54.6001,54.7V494.6A54.7347,54.7347,0,0,0,2225,549.2h207.8999a54.82032,54.82032,0,0,0,54.7-54.6V346.1A54.82018,54.82018,0,0,0,2432.8999,291.5Zm8.90015,202.7a10.71215,10.71215,0,0,1-10.69995,10.7H2226.80005a10.71213,10.71213,0,0,1-10.69995-10.7V346.4a10.62711,10.62711,0,0,1,10.69995-10.6H2431.1001a10.62711,10.62711,0,0,1,10.69995,10.6Z" transform="translate(0 0)" style="fill:#929497"/><path d="M3299.1001,440.4C3348.6001,460,3453,475.8,3534.5,475.8c89.2,0,126.2-30.7,126.2-69.1,0-34.5-34.30005-54.8-132.8999-90.9-131.69995-48.7-228.3-87-228.3-173.5,0-89.6,116.3-142.3,293.5-142.3,95.1001,0,127.8999,6.1,188.3,17.1l.3999,85c-59.30005-11.2-111.8999-30.7-193.7-30.7-87.6001,0-124.8999,27.8-124.8999,56.5,0,41.6,57.3999,61.5,158.3999,97.5,140.3,50.2,218.5,89,218.5,173.7,0,87.2-97.8,150.1-318.3999,150.1-90.6001,0-153-6-222.5-17.1Z" transform="translate(0 0)" style="fill:#fff"/><path d="M3111.3999,509.6C3059.5,533.1,2961.2,548,2875.3999,548H2547.2V1.2H2875.3999C2961.2998,1.2,3059.5,16.3,3111.5,39.8c126.3,57,167.6001,148.3,167.6001,234.9C3279,361.2,3238.2,452.4,3111.3999,509.6ZM2829.6001,75.2h-105V472.6h105c161.19995,0,262.8-68.9,262.8-197.9C3092.3999,145.7,2990.7,75.2,2829.6001,75.2Z" transform="translate(0 0)" style="fill:#fff"/></svg>