<?xml version="1.0" encoding="utf-8"?>
<!DOCTYPE svg PUBLIC "-//W3C//DTD SVG 20010904//EN" "http://www.w3.org/TR/2001/REC-SVG-20010904/DTD/svg10.dtd">
<svg version="1.0" xmlns="http://www.w3.org/2000/svg" width="2414px" height="720px" viewBox="0 0 2414 720" preserveAspectRatio="xMidYMid meet">
   <defs>
      <linearGradient id="lg0" gradientUnits="userSpaceOnUse" x1="23.653687%" y1="75.97222%" x2="45.277546%" y2="75.97222%">
         <stop offset="0%" style="stop-color:rgb(204,0,75);"></stop>
         <stop offset="100%" style="stop-color:rgb(248,0,54);"></stop>
      </linearGradient>
      <linearGradient id="lg1" gradientUnits="userSpaceOnUse" x1="48.715824%" y1="24.027779%" x2="70.33968%" y2="24.027779%">
         <stop offset="0%" style="stop-color:rgb(252,0,52);"></stop>
         <stop offset="100%" style="stop-color:rgb(255,43,54);"></stop>
      </linearGradient>
      <linearGradient id="lg2" gradientUnits="userSpaceOnUse" x1="67.31566%" y1="33.333332%" x2="89.76802%" y2="33.333332%">
         <stop offset="0%" style="stop-color:rgb(255,35,53);"></stop>
         <stop offset="100%" style="stop-color:rgb(255,104,59);"></stop>
      </linearGradient>
      <linearGradient id="lg3" gradientUnits="userSpaceOnUse" x1="16.528584%" y1="23.88889%" x2="39.975143%" y2="23.88889%">
         <stop offset="0%" style="stop-color:rgb(186,0,83);"></stop>
         <stop offset="100%" style="stop-color:rgb(239,0,59);"></stop>
      </linearGradient>
      <linearGradient id="lg4" gradientUnits="userSpaceOnUse" x1="55.840927%" y1="75.97222%" x2="79.28749%" y2="75.97222%">
         <stop offset="0%" style="stop-color:rgb(255,7,52);"></stop>
         <stop offset="100%" style="stop-color:rgb(255,71,56);"></stop>
      </linearGradient>
      <linearGradient id="lg5" gradientUnits="userSpaceOnUse" x1="7.0422535%" y1="75.97222%" x2="31.02734%" y2="75.97222%">
         <stop offset="0%" style="stop-color:rgb(157,0,96);"></stop>
         <stop offset="100%" style="stop-color:rgb(221,0,67);"></stop>
      </linearGradient>
   </defs>
 <g fill="#b20057">
  <path fill="url(#lg5)" d="M170.9 709.4 c7.9 -5.3 39.4 -26.2 70.1 -46.5 l55.8 -36.9 91.3 -0.2 91.4 -0.3 5.7 -2.7 c8 -3.7 12.6 -9 22.2 -25.3 l8.3 -14 -94.6 -0.5 c-86.2 -0.5 -95.1 -0.7 -100.6 -2.3 -15.9 -4.7 -25.4 -11.6 -30.8 -22.6 -3 -6.2 -3.2 -7.2 -3.2 -17.1 0.1 -14.7 1.8 -18.9 23.5 -56.7 23.8 -41.3 27.2 -46.6 38.3 -58 21.5 -22.2 49.8 -38.7 81.2 -47.1 l10 -2.6 94.8 -0.4 94.7 -0.3 0 43.3 0 43.3 -3.8 2.5 -3.7 2.5 -89.6 0.5 -89.5 0.5 -7.8 3.9 c-10.8 5.3 -17.5 12.3 -25.1 26.1 -3.3 6 -6.1 11.3 -6.3 11.7 -0.2 0.4 42.1 0.8 94 0.8 103.3 0 100.7 -0.1 112.8 6 7.7 3.9 12.5 8.2 16.1 14.4 2.8 5 2.9 5.3 2.9 20.4 0 13.7 -0.2 15.8 -2.3 21 -3 7.2 -40.3 72.4 -46.2 80.8 -20.8 29.1 -59.5 53.5 -99.3 62.6 l-9.7 2.2 -157.5 0.3 -157.5 0.3 14.4 -9.6z"/>
  <path fill="url(#lg0)" d="M565 718.6 c0 -1.1 62.2 -108.2 63 -108.4 0.7 -0.3 1 18.7 1 54.2 l0 54.6 -32 0 c-17.6 0 -32 -0.2 -32 -0.4z"/>
  <path d="M7.3 333.3 c3.4 -6 48.1 -83.1 99.2 -171.6 l92.9 -160.7 49.7 0 49.7 0 0.6 3.2 c0.3 1.8 8.9 50.3 19.2 107.8 10.2 57.5 18.8 104.7 19 104.9 0.2 0.2 0.6 0.2 0.8 0 0.2 -0.2 28.3 -48.8 62.4 -107.9 l62 -107.5 53.1 -0.3 c29.2 -0.1 53.1 -0.1 53.1 0.1 0 0.2 -44.2 77.3 -98.3 171.3 l-98.3 170.9 -54.1 0.3 -54.1 0.2 -0.6 -2.7 c-1.2 -6.1 -36.6 -200.7 -36.6 -201.5 0 -0.4 -0.3 -0.8 -0.8 -0.8 -0.4 0 -27.3 46.1 -59.7 102.5 l-59 102.4 -53.2 0.1 -53.2 0 6.2 -10.7z"/>
  <path fill="url(#lg3)" d="M393 343.6 c0 -0.1 44.2 -77.2 98.3 -171.2 l98.3 -170.9 19.7 -0.3 19.7 -0.2 0 60 0 60 -4.4 7.2 -4.5 7.3 4.5 0.3 4.4 0.3 0 35.4 0 35.5 -24.6 0.2 -24.6 0.3 -12.8 22 -12.9 22 37.5 0.3 37.4 0.2 0 46 0 46 -118 0 c-64.9 0 -118 -0.2 -118 -0.4z"/>
 </g>
 <g fill="#f1063a">
  <path fill="url(#lg0)" d="M626 665.6 l0 -53.3 67.8 -117.9 67.8 -117.9 147 -0.3 c129.5 -0.2 147.7 -0.1 153.9 1.3 15 3.3 26.5 11.3 32.1 22.2 2.7 5.4 2.9 6.5 2.9 17.3 -0.1 10.5 -0.3 12.2 -3.2 19.2 -3.2 8.1 -57.3 102.6 -65.1 113.8 -5.6 7.9 -18.2 21.2 -27.7 29 -19.7 16.1 -45.4 29 -70.5 35.3 -8.3 2 -11 2.1 -104.9 2.6 l-96.3 0.6 -29.4 50.5 -29.3 50.5 -22.5 0.3 -22.6 0.2 0 -53.4z m304.5 -143.9 c8.2 -3.8 13.5 -9.3 20.9 -21.7 8.7 -14.3 9.6 -16.4 9.6 -20.5 0 -5.1 -1.5 -7.4 -6.3 -9.6 -4 -1.8 -7.6 -1.9 -71.4 -1.9 l-67.1 0 -15.9 27.2 c-8.7 15 -15.9 27.8 -16.1 28.5 -0.3 1.1 11.9 1.3 70 1.1 l70.3 -0.3 6 -2.8z"/>
  <path d="M964.8 698.7 c6.4 -11.1 51.1 -88.3 99.1 -171.5 l87.5 -151.2 192 0 192.1 0 -48 31.8 c-26.4 17.4 -57.7 38.1 -69.6 46 l-21.5 14.2 -95 0 -94.9 0 -12 20.7 c-6.6 11.3 -12.1 21 -12.3 21.4 -0.2 0.5 33 0.9 74 0.9 l74.3 0 -53.5 35.5 -53.5 35.5 -41.5 0 -41.5 0 -12.6 21.8 -12.7 21.7 129.5 0.3 c102.9 0.2 129.4 0.5 129 1.5 -0.3 0.6 -12.2 21.5 -26.4 46.2 l-26 45 -184.1 0.3 -184.1 0.2 11.7 -20.3z"/>
  <path fill="url(#lg4)" d="M1342 718.6 c0 -0.2 44.5 -77.3 98.8 -171.2 l98.8 -170.9 78.2 -0.3 78.2 -0.2 0 46 0 46 -50.4 0 -50.4 0 -12.1 20.6 c-6.7 11.3 -12.1 21 -12.1 21.5 0 0.5 26 0.9 62.5 0.9 l62.5 0 0 7.8 -0.1 7.7 -41.6 27.5 -41.7 27.5 -41.9 0.5 -42 0.5 -11.9 20.5 c-6.6 11.3 -12.2 21.1 -12.5 21.8 -0.4 0.9 19.1 1.2 95.6 1.2 l96.1 0 0 46.5 0 46.5 -177 0 c-97.3 0 -177 -0.2 -177 -0.4z"/>
  <path d="M626.1 552.5 l0.1 -21 2.1 4.5 c2.9 6.2 3.5 18.7 1.3 27.8 -3.1 12.3 -3.6 10.7 -3.5 -11.3z"/>
  <path fill="url(#lg5)" d="M626 420.1 l0 -44.1 66.8 0 66.7 0 -24.5 16.3 c-41.7 27.6 -106.4 70.3 -107.7 71.1 -1 0.6 -1.3 -8.4 -1.3 -43.3z"/>
  <path fill="url(#lg3)" d="M626 298 l0 -46 93.6 0 c56.8 0 93.4 0.4 93.2 0.9 -0.1 0.5 -12 21.2 -26.3 46 l-26 45.1 -67.2 0 -67.3 0 0 -46z"/>
  <path d="M792.8 323.7 c6.4 -11.1 51 -88.3 99.1 -171.5 l87.5 -151.2 191.8 0 c105.5 0 191.8 0.2 191.8 0.4 0 0.2 -31.2 21 -69.2 46.2 l-69.3 45.9 -95.8 0.5 -95.9 0.5 -11.9 20.3 c-6.5 11.1 -11.9 20.5 -11.9 20.7 0 0.3 33.6 0.6 74.7 0.7 l74.7 0.3 -53.1 35.3 -53.1 35.2 -41.9 0 -41.8 0 -12.8 22 c-7 12 -12.7 22.2 -12.7 22.5 0 0.2 58.2 0.6 129.4 0.7 l129.4 0.3 -26.3 45.5 -26.2 45.5 -184.1 0.3 -184.1 0.2 11.7 -20.3z"/>
  <path fill="url(#lg1)" d="M1170 343.6 c0 -0.2 44.5 -77.3 98.8 -171.2 l98.8 -170.9 147.4 0 c137.9 0 147.9 0.1 154 1.8 9.1 2.5 18.1 7 22.9 11.7 l4.1 4 0 25.1 0 25.1 -60.1 103.7 c-44.7 77.1 -61.9 105.9 -67.1 112.5 -17.6 21.8 -47.1 41.8 -76.7 51.6 -21.9 7.4 -12.7 7 -175.7 7 -80.5 0 -146.4 -0.2 -146.4 -0.4z m309 -95.3 c3.6 -1.8 8.3 -5.1 10.6 -7.5 6.2 -6.5 74.3 -125.6 75.7 -132.5 1.4 -6.8 0.3 -10.3 -4.3 -12.5 -3.2 -1.7 -8.8 -1.8 -71.5 -1.8 l-68 0 -42 73.2 c-23.1 40.2 -43.5 75.8 -45.3 79 l-3.3 5.9 70.8 -0.3 70.8 -0.3 6.5 -3.2z"/>
  <path fill="url(#lg2)" d="M1620.4 341.3 c8.6 -16 73.5 -126.8 74.4 -127.1 0.9 -0.3 1.2 12.3 1.2 53.8 l0 54.2 -6.2 10.9 -6.2 10.9 -32.3 0 -32.4 0 1.5 -2.7z"/>
  <path fill="url(#lg3)" d="M626 171.5 l0 -35.5 72.3 0 72.2 0 -53.4 35.5 -53.5 35.5 -18.8 0 -18.8 0 0 -35.5z"/>
  <path fill="url(#lg3)" d="M626 63.3 l0 -62.3 174.7 0 174.8 0 -17 11.3 c-9.4 6.3 -40.9 27.2 -70.1 46.5 l-53.2 35.2 -95.3 0 -95.4 0 -8.3 14.3 c-4.5 7.8 -8.7 14.9 -9.2 15.7 -0.6 1 -1 -20.1 -1 -60.7z"/>
 </g>
 <g fill="#ff5039">
  <path fill="url(#lg4)" d="M1693 672.5 l0 -46.5 35 0 35 0 -2.7 4.8 c-1.6 2.7 -13.6 23.6 -26.8 46.5 l-24 41.7 -8.2 0 -8.3 0 0 -46.5z"/>
  <path d="M1730.7 717.7 c0.4 -0.8 45.1 -78 99.2 -171.5 l98.4 -170.2 147.1 0 c159.5 0 154.1 -0.1 166 5.5 7.7 3.6 15 10.5 18.3 17.3 2.6 5.3 2.8 6.6 2.8 17.2 -0.1 10.4 -0.4 12.2 -3.1 19 -3.2 8.1 -117.7 208.2 -125.2 219 -6.4 9.1 -23 25.2 -34.2 33.2 -24.6 17.4 -51.4 28.1 -77.1 30.8 -6.5 0.6 -60.8 1 -151.6 1 -118.1 0 -141.3 -0.2 -140.6 -1.3z m307.7 -94.6 c11.1 -5.5 12.7 -7.9 50.7 -74.1 19.3 -33.8 35.8 -62.9 36.6 -64.7 3 -7.3 0.9 -12.6 -6 -15.2 -1.9 -0.8 -25 -1.1 -70.5 -1.1 l-67.7 0 -42 73.2 c-23.1 40.2 -43.5 75.8 -45.3 79 l-3.3 5.9 71.3 -0.3 71.3 -0.3 4.9 -2.4z"/>
  <path d="M2163 718.4 c0 -0.3 6.3 -9.2 14 -19.9 7.7 -10.6 14 -19.6 14 -19.9 0 -0.3 -4.3 -0.6 -9.5 -0.6 -5.2 0 -9.5 -0.3 -9.5 -0.8 0 -0.4 0.7 -1.8 1.6 -3 1.5 -2.2 2 -2.2 22 -2.2 l20.5 0 -1.6 3 c-1.5 2.9 -1.8 3 -8.8 3 l-7.2 0.1 -14.8 20.4 c-13.5 18.7 -15 20.5 -17.7 20.5 -1.7 0 -3 -0.3 -3 -0.6z"/>
  <path d="M2200.2 718.2 c0.2 -0.4 6.2 -11 13.3 -23.5 l13 -22.7 6.3 0 6.4 0 -0.6 2.8 c-1.5 6.6 -5.5 31.6 -5.2 32 0.2 0.2 4.6 -4.1 9.7 -9.5 5.2 -5.4 12.8 -13.3 16.9 -17.6 l7.5 -7.8 5.2 0.3 5.2 0.3 -13.3 23 c-12.6 21.9 -13.4 23 -16.4 23.3 -1.8 0.2 -3.2 0 -3.2 -0.4 0 -0.4 4.5 -8.4 9.9 -17.8 5.5 -9.4 10.3 -18 10.7 -19.1 0.3 -1.1 -8 6.9 -18.6 17.8 -14.5 14.9 -19.8 19.7 -21.6 19.7 -1.3 0 -2.4 -0.3 -2.4 -0.7 0 -0.5 1.6 -9.1 3.5 -19.2 1.9 -10.2 3.3 -18.6 3.1 -18.9 -0.4 -0.4 -1.8 1.8 -15.1 25.1 -7.7 13.3 -8.1 13.7 -11.3 13.7 -1.9 0 -3.2 -0.3 -3 -0.8z"/>
  <path fill="url(#lg4)" d="M1693 519.6 l0 -8.6 12.7 0 c7.3 0 12.3 0.4 11.8 0.9 -0.9 0.8 -20.4 13.8 -23.2 15.5 -1 0.5 -1.3 -1.3 -1.3 -7.8z"/>
  <path fill="url(#lg4)" d="M1693 422 l0 -46 115.2 0 c68.7 0 114.8 0.4 114.2 0.9 -0.5 0.5 -14.2 9.7 -30.4 20.3 -16.2 10.7 -47 31 -68.3 45.1 l-38.8 25.7 -46 0 -45.9 0 0 -46z"/>
  <path fill="url(#lg2)" d="M1891.5 342.6 c-15.9 -5.1 -22.1 -17.4 -16.6 -33 1 -2.9 22.4 -40.8 47.5 -84.1 25 -43.4 45.4 -79.1 45.1 -79.3 -0.3 -0.3 -16.1 9.9 -35.3 22.6 l-34.7 23.2 -63.5 0 -63.5 0 -7.2 13 -7.1 13 50.6 0.2 50.6 0.3 -32 21.2 -32.1 21.3 -31.2 0.2 -31.3 0.3 -18.9 33 -18.9 33 0 -56 0 -56 22.9 -39.5 22.8 -39.5 201.4 -0.3 c129.6 -0.1 203.7 0.1 207.9 0.8 8.8 1.3 16.7 5.5 20.4 10.8 3.7 5.3 4.6 13.7 2.2 20.8 -2.5 7.4 -76.2 134.5 -82 141.5 -10.4 12.3 -27.3 23.6 -44.9 29.8 l-10.2 3.6 -69 0.2 c-53.9 0.2 -69.9 -0.1 -73 -1.1z m144.8 -56 c1.8 -0.7 4.4 -2.6 5.9 -4.1 3.4 -3.4 46.7 -78.5 47.4 -82.3 0.4 -1.9 -0.1 -3.5 -1.4 -5.2 l-2 -2.5 -32.8 -0.3 c-28.5 -0.2 -33.4 -0.1 -38.1 1.4 -10.3 3.2 -13 6.8 -35.2 45.2 -11 19.1 -20.4 36 -21 37.5 -1.6 4.2 -1.3 7.5 0.9 9.7 1.9 1.9 3.3 2 37.5 2 27.7 0 36.3 -0.3 38.8 -1.4z"/>
  <path d="M2098.2 343.2 c0.2 -0.5 27.1 -47.3 59.8 -104 l59.5 -103.2 87 0.3 c80.8 0.2 87.4 0.4 92.3 2 6.1 2.1 13.2 8.1 15.6 13.1 2 4.2 2.1 15.9 0.2 21.3 -1.8 5.1 -26.5 47 -32.8 55.5 -10 13.6 -22.4 22.1 -37.4 25.6 l-7.9 1.9 4.5 0.7 c6.3 1.1 12.6 4 13.9 6.4 1.9 3.5 1.2 10.4 -1.5 16.2 -1.4 3 -10.3 18.9 -19.7 35.2 l-17.2 29.8 -32.3 0 c-17.8 0 -32.1 -0.3 -31.9 -0.7 0.2 -0.5 7.9 -13.7 17.1 -29.4 9.1 -15.7 16.6 -29.1 16.6 -29.8 0 -0.8 -11 -1.1 -43.2 -0.9 l-43.3 0.3 -17.5 30.2 -17.5 30.2 -32.3 0.1 c-17.8 0 -32.2 -0.4 -32 -0.8z m216.7 -118.5 c4.7 -2.6 7.4 -5.7 12.6 -14.8 5.3 -9.1 5.7 -12.8 1.9 -15.8 -2.6 -2 -3.7 -2.1 -40.8 -2.1 l-38.1 0 -9.8 16.9 c-5.3 9.2 -9.7 17.1 -9.7 17.5 0 0.4 18.1 0.6 40.3 0.4 36.8 -0.3 40.5 -0.5 43.6 -2.1z"/>
  <path fill="url(#lg1)" d="M1692.8 44 l-0.3 -28.9 2.2 2.7 c10.1 12.2 11 30.4 2.3 49 -1.6 3.4 -3.1 6.2 -3.4 6.2 -0.3 0 -0.7 -13 -0.8 -29z"/>
 </g>
</svg>