<?xml version="1.0" encoding="UTF-8" standalone="no"?>
<svg
   version="1.0"
   width="3460px"
   height="720px"
   viewBox="0 0 3460 720"
   preserveAspectRatio="xMidYMid meet"
   id="svg42"
   sodipodi:docname="neogeo64.svg"
   inkscape:version="1.2 (dc2aedaf03, 2022-05-15)"
   xmlns:inkscape="http://www.inkscape.org/namespaces/inkscape"
   xmlns:sodipodi="http://sodipodi.sourceforge.net/DTD/sodipodi-0.dtd"
   xmlns="http://www.w3.org/2000/svg"
   xmlns:svg="http://www.w3.org/2000/svg">
  <defs
     id="defs46" />
  <sodipodi:namedview
     id="namedview44"
     pagecolor="#ffffff"
     bordercolor="#000000"
     borderopacity="0.25"
     inkscape:showpageshadow="2"
     inkscape:pageopacity="0.0"
     inkscape:pagecheckerboard="0"
     inkscape:deskcolor="#d1d1d1"
     showgrid="false"
     inkscape:zoom="0.36965318"
     inkscape:cx="1728.6474"
     inkscape:cy="359.79672"
     inkscape:window-width="1920"
     inkscape:window-height="1017"
     inkscape:window-x="-8"
     inkscape:window-y="-8"
     inkscape:window-maximized="1"
     inkscape:current-layer="svg42" />
  <g
     fill="#000000"
     id="g8">
    <path
       d="M1317 718 c-18.4 -0.8 -31.9 -3.2 -45.7 -8.1 -14.9 -5.3 -22.1 -9.6 -32 -19.2 l-6.2 -6 -6.4 5.9 c-11.5 10.5 -30.3 18.6 -56.1 24.2 l-12.1 2.6 -123.5 0.4 c-88.5 0.2 -125.7 0 -131.4 -0.8 -15.1 -2.2 -30.9 -7.7 -40.2 -14 -2.5 -1.6 -4.7 -3 -4.9 -3 -0.2 0 -0.9 1.7 -1.5 3.8 -1.3 3.9 -4.6 8.9 -8.3 12.2 -2 1.9 -3.7 2 -46.6 2 -60.8 0 -192.2 -1.8 -227.5 -3 -17.6 -0.7 -32 -1.7 -36.5 -2.6 -9.8 -1.9 -21 -7.4 -26.9 -13.1 l-4.7 -4.5 -6.2 0.7 c-3.5 0.4 -9.8 2.2 -14.4 4.1 -11.2 4.7 -27.7 9 -44.9 11.6 -19.3 2.9 -60.8 3.1 -79.4 0.4 -21.2 -3.1 -35.2 -9.9 -46.7 -22.5 -6.9 -7.5 -14.2 -21.3 -15.9 -30.1 -1.9 -9.3 -2.4 -10 -7.4 -10 -2.4 0 -4.8 0.6 -5.4 1.3 -0.6 0.6 -6.4 14.5 -13.1 30.7 l-12 29.5 -104.5 0.3 c-57.5 0.1 -104.6 -0.2 -104.6 -0.6 0 -0.5 3.8 -10.7 8.4 -22.8 l8.4 -21.9 -33.5 -0.3 c-33 -0.2 -33.4 -0.3 -32.8 -2.2 0.4 -1.1 3.9 -8.9 7.9 -17.3 7 -14.6 22.3 -46.8 43.1 -90.7 5.4 -11.3 19.9 -41.9 32.2 -68 12.4 -26.1 24.7 -52 27.3 -57.5 2.6 -5.5 8.6 -18.1 13.3 -28 21.5 -45.5 19.6 -40.7 19 -48.3 l-0.5 -6.7 7.5 -15.5 c4.1 -8.5 12.7 -26.3 19.2 -39.5 10.4 -21.3 22.5 -46.1 55 -113 5.1 -10.4 14.1 -28.9 20 -41 5.9 -12.1 14 -28.7 18 -37 4 -8.2 13 -26.7 19.9 -41 7 -14.3 16.4 -33.5 20.8 -42.8 l8.1 -16.7 114.3 0 114.3 0 -2.8 6.3 c-1.6 3.4 -6.1 13.1 -10 21.5 -3.9 8.5 -7.1 15.8 -7.1 16.3 0 0.6 8.5 0.8 20.7 0.7 l20.7 -0.3 11.2 -22 11.3 -22 202.5 -0.3 202.5 -0.2 7.3 22.2 7.3 22.3 18.5 0.5 c17.3 0.5 18.7 0.4 21.6 -1.5 1.7 -1.1 14.3 -11.1 28 -22.3 l24.9 -20.2 268.5 0 c174.4 0 271.7 0.4 277.5 1 25 2.8 44.8 11.2 58.3 24.6 6.8 6.8 7.5 7.2 10.8 6.7 2 -0.3 5.3 -2.2 7.9 -4.6 14.5 -12.6 41.4 -23.2 68 -26.7 6.7 -0.8 96.5 -1 357.5 -0.8 l348.5 0.3 8.5 2.4 c20.1 5.5 35.1 15.3 46.5 30.1 4.4 5.8 10.4 16.9 12.4 23.2 l1.3 3.8 9.7 0 9.7 0 8.8 -7 c28.6 -23 59.5 -37.9 97.6 -47.1 25.6 -6.2 1.3 -5.9 382.3 -5.9 191.8 0 348.7 0.4 348.7 0.8 0 0.5 -3.6 10 -8 21.3 -4.4 11.2 -8 21 -8 21.6 0 1 6.4 1.3 26.9 1.5 l26.9 0.3 -16.2 43.5 c-9 23.9 -20.4 54.8 -25.5 68.5 -37.7 101.4 -60.4 162.3 -80.1 215.5 -12.6 33.8 -33 89 -45.5 122.5 -12.5 33.6 -32 86.2 -43.5 117 -11.4 30.8 -24.9 67.1 -30 80.8 l-9.2 24.7 -119.5 0 c-65.7 0 -119.2 -0.4 -118.9 -0.8 1.1 -1.8 19.6 -46.3 19.6 -47.2 0 -0.6 -11.6 -1 -31.6 -1 -24.9 0 -31.5 -0.3 -31.1 -1.2 0.2 -0.7 7 -17.3 15 -36.8 23.1 -56.4 28.7 -70.3 28.7 -71.2 0 -0.4 -4.2 -0.8 -9.2 -0.8 -20.4 0 -42.1 -5.7 -57.4 -15 -5.5 -3.3 -7.5 -4 -11.8 -4 l-5.1 0 -3.8 12.8 c-25.5 84.8 -76.5 143.9 -138.7 160.8 -15.7 4.2 -20.3 4.4 -115.3 4.4 -98.6 0 -101.3 -0.1 -117.9 -5.4 -25.8 -8.2 -50.7 -29.7 -63.2 -54.3 -2.4 -4.8 -2.9 -5.3 -6 -5.3 -2.9 0 -4.1 0.9 -9.4 7.3 -16.9 20.3 -35 35.1 -55 45.1 -10.1 5.1 -26.1 10.2 -35.5 11.5 -11 1.5 -244.4 1.5 -259.2 0 -23.6 -2.4 -43.4 -11.3 -51.2 -23 -2.4 -3.6 -2.9 -3.9 -7.3 -3.9 l-4.8 0 -2.2 9.1 c-2.5 10.1 -5.9 15.1 -11.7 17.5 -2.7 1.2 -24.9 1.4 -124.5 1.4 -124.4 0 -140.6 -0.4 -161.8 -4 -25.9 -4.4 -49.4 -13.4 -60.5 -23.2 -4.1 -3.6 -4.8 -3.9 -8.4 -3.3 -2.6 0.4 -6.1 2.4 -10.1 5.5 -13.8 11.1 -32 19.1 -52.9 23.1 -6.7 1.3 -245.4 2.1 -271.1 0.9z"
       id="path2" />
    <path
       d="M3329 637 l0 -32 -16 0 -16 0 0 -3.5 0 -3.5 32 0 32 0 0 3.5 0 3.5 -13 0 -13 0 0 32 0 32 -3 0 -3 0 0 -32z"
       id="path4" />
    <path
       d="M3375 633.5 l0 -35.5 2.8 0 c2.7 0 3.2 1 15.8 29.7 7.2 16.3 13.8 30.2 14.7 30.7 1.2 0.8 2 0.7 3.1 -0.4 0.8 -0.8 7.2 -14.7 14.2 -30.7 l12.8 -29.3 3.3 0 3.3 0 0 35.5 0 35.5 -3.5 0 -3.5 0 0 -28.1 c0 -15.4 -0.4 -27.8 -0.8 -27.5 -0.5 0.3 -6.2 12.9 -12.8 28.1 l-11.9 27.6 -2.9 -0.3 c-2.9 -0.3 -3.5 -1.3 -15.2 -27.1 -6.7 -14.8 -12.5 -27.1 -12.8 -27.4 -0.3 -0.4 -0.6 11.8 -0.6 27 l0 27.7 -3 0 -3 0 0 -35.5z"
       id="path6" />
  </g>
  <g
     fill="#ffffff"
     id="g40">
    <path
       d="M877 622.9 c-29.1 -1 -37.5 -3.3 -45.7 -12.2 -8 -8.7 -9.3 -22.3 -3.9 -39.4 4.3 -13.4 72 -147 89.6 -176.8 14.3 -24.1 35.8 -37.2 66.5 -40.5 6.7 -0.7 47.6 -1 124 -0.8 104.2 0.3 114.5 0.5 119.8 2.1 22.6 6.7 32.8 21 32.8 45.8 0 5.9 -0.6 13.4 -1.5 17 -1 4.2 -12.8 29.9 -35.2 76.4 -31.7 66 -34 70.5 -40.4 78 -10.8 12.8 -26 27.8 -32.9 32.5 -8.7 5.8 -21.6 11.6 -32.5 14.6 -8.9 2.4 -10.3 2.4 -65.1 3.4 -63.4 1.1 -145 1.1 -175.5 -0.1z m183.4 -71.8 c1.5 -1.4 6.7 -10.4 11.7 -20 15.3 -29.5 32.7 -61.8 42.2 -78.4 6.9 -12.2 9.1 -17 9.5 -20.6 0.8 -8.5 3.1 -8.1 -45.6 -8.1 -31 0.1 -43.5 0.4 -45.5 1.3 -2.2 1 -8.8 12.2 -35.8 60.7 -18.2 32.7 -33.5 60.5 -34 61.8 -0.6 1.5 -0.5 3 0.2 4.3 1 1.9 2.2 1.9 47.9 1.7 l46.8 -0.3 2.6 -2.4z"
       id="path10" />
    <path
       d="M1279.5 622.9 c-28.9 -1 -39.7 -3.6 -47.8 -11.4 -5.3 -5.1 -7.1 -9.8 -7.5 -19.6 -0.7 -14.9 2 -21.6 27.9 -70.9 26.7 -50.9 50.2 -94.1 64.2 -118 17 -28.9 32 -40.1 63.7 -47.6 7 -1.7 17.9 -1.8 155.5 -2.1 102.7 -0.3 149.5 0 153 0.7 2.7 0.6 6 2 7.2 3.2 4.5 4.2 3.6 7 -14.3 43.2 l-16.5 33.6 -120.2 0 c-68.6 0 -121.9 0.4 -124.1 1 -2.2 0.5 -5.1 1.7 -6.5 2.8 -3.9 2.8 -28.1 40.9 -41.6 65.2 -12.7 23.2 -15.7 37.9 -9 44.6 l2.4 2.4 62.1 0 c65.8 0 65.1 0.1 69.1 -4.6 0.9 -1.1 9.2 -18.4 18.5 -38.6 l16.9 -36.8 61.7 0 c34 0 61.8 0.3 61.8 0.6 0 0.4 -7.1 14.7 -15.9 31.8 -8.7 17.1 -19.6 38.5 -24.2 47.6 l-8.2 16.5 -18.1 18 c-19.5 19.5 -24.8 23.3 -42.1 30.2 -18 7.2 -18.2 7.2 -83.2 8.3 -66.2 1.1 -153.3 1 -184.8 -0.1z"
       id="path12" />
    <path
       d="M2056.5 623 c-20.6 -0.8 -25.3 -1.3 -33 -3.7 -12.5 -4 -19.3 -12 -20.9 -24.8 -0.9 -6.4 1.4 -19 4.9 -28 4.1 -10.4 59.5 -120.3 75.1 -149 7.5 -13.7 15.6 -27.7 17.9 -31.1 10.8 -15 25.9 -24.6 48.6 -30.6 8.4 -2.2 8.5 -2.2 122.9 -2.6 119 -0.3 127.1 -0.1 138.6 3.8 20.9 7.2 30.9 26.9 27.4 54.1 -1.5 11.3 -1.9 12.3 -15.7 40.9 -6 12.4 -20.6 42.5 -32.3 67 -16.8 35 -22.5 45.9 -26.6 51 -8.5 10.6 -25 27.5 -31.7 32.6 -7.9 6 -23.7 13.6 -35.1 16.9 -8.9 2.5 -9.1 2.5 -65 3.5 -61.8 1.1 -145.5 1.1 -175.1 0z m179 -70.6 c2.8 -1.3 4.6 -4.1 11.6 -17.2 18.6 -35.3 32.7 -61.8 43.1 -80.3 9 -16.2 10.9 -20.4 11 -24 0.1 -7.2 1.9 -7 -47.4 -6.7 -42.2 0.3 -43.8 0.4 -45.7 2.3 -3.6 3.5 -68.1 120.8 -68.1 123.7 0 1.4 0.6 2.9 1.3 3.1 0.6 0.3 21.4 0.6 46 0.6 38.8 0.1 45.3 -0.1 48.2 -1.5z"
       id="path14" />
    <path
       d="M3062 623 c-23.9 -0.4 -48.3 -0.8 -54.2 -0.9 -6 0 -10.8 -0.5 -10.8 -1 0 -0.8 9.1 -23 53.7 -131.1 5.8 -14 10.7 -25.9 10.9 -26.5 0.3 -0.7 -26.9 -0.9 -80.6 -0.7 -80 0.2 -81.1 0.2 -87.2 -1.9 -12.4 -4.1 -23.9 -13.2 -28.7 -22.7 -7.5 -14.6 -6.7 -31.8 2.6 -55.2 12.6 -31.9 77.3 -154.9 160.4 -304.7 l18.4 -33.3 62.2 0 c34.3 0 62.3 0.4 62.3 0.8 0 0.5 -21.4 39.3 -47.6 86.3 -26.2 47 -56.6 101.6 -67.6 121.4 -11 19.8 -20.7 36.7 -21.4 37.6 -2.2 2.5 -1.7 6.6 0.9 8.1 1.6 1 12.5 1.4 44.3 1.6 l42.1 0.4 21 -52.4 c11.5 -28.7 34.6 -86.4 51.3 -128.1 l30.4 -75.7 63.3 0 c52.4 0 63.3 0.2 63.3 1.3 0 0.8 -4.4 13.3 -9.9 27.8 -5.4 14.5 -18.4 49.4 -28.9 77.4 -36.9 98.9 -158.6 425.3 -167.2 448.5 l-8.8 23.5 -15.3 0.1 c-8.5 0 -35 -0.3 -58.9 -0.6z"
       id="path16" />
    <path
       d="M74.4 612.8 c2.4 -5.1 13.1 -27.7 23.8 -50.3 10.8 -22.5 28 -58.8 38.3 -80.5 53.5 -112.7 49.4 -104.7 58.2 -113.2 6.1 -5.9 15 -11.3 23.3 -14 6.2 -2 8.2 -2.1 39.7 -2 18.2 0.1 35.5 0.7 38.3 1.2 16 3 24.4 10.8 36.7 34 7.8 14.6 36.8 73.4 45.5 92 3.3 7 4.1 8.1 4.8 6.5 0.9 -2.3 37 -88.3 48.8 -116.2 l7.7 -18.3 53.2 0 c29.3 0 53.3 0.2 53.3 0.4 0 0.2 -6.7 16.5 -14.9 36.3 -8.2 19.7 -27.8 66.9 -43.6 104.8 -15.8 38 -31.2 74.9 -34.2 82.2 -6.6 15.7 -11.8 22.1 -24.6 30.7 -14.5 9.6 -28.4 14.1 -47.8 15.2 -24.1 1.5 -48.2 -4.5 -64.4 -16.1 -12.2 -8.6 -12.7 -9.5 -42.5 -72.4 -15.1 -31.9 -27.7 -58 -28 -58.1 -0.3 0 -2.5 5.1 -5 11.3 -2.5 6.1 -15.8 39.1 -29.6 73.2 l-25.1 62 -58.1 0.3 -58.1 0.2 4.3 -9.2z"
       id="path18" />
    <path
       d="M520.5 620.9 c-29.1 -1.1 -35.5 -2.8 -42.8 -10.8 -4.5 -4.9 -6 -10.2 -5.9 -20.8 0.1 -12.7 5 -30 13.1 -46.1 1.6 -3.1 6.9 -15.6 11.9 -27.7 22.8 -55.6 44.6 -104 55.8 -123.8 10.9 -19.3 25.1 -30.3 46.4 -36 l8.5 -2.2 140.6 0 c135 0 140.8 0.1 142.7 1.8 1.1 1 2.4 3.5 2.9 5.5 0.9 3.5 0.2 5.1 -12.3 29.7 -9.7 19.1 -14.2 26.7 -16.6 28.7 l-3.3 2.7 -97.5 -0.9 -97.5 -0.9 -7.2 4.1 c-7.9 4.5 -13.6 9.6 -16 14.2 -2 3.9 -2 9.9 0.1 13.1 l1.6 2.5 98 0 c96.7 0 98 0 100 2 1.5 1.5 2 3.3 2 7.4 0 4.6 -1.2 8.1 -9 25.2 -4.9 10.9 -9.9 20.8 -11 21.9 -2 2 -3.2 2 -109.2 2.5 l-107.2 0.5 -4.2 5.1 c-7.9 9.8 -8 19.5 -0.2 28 l4.1 4.4 94.3 0 94.3 0 2.6 2.3 c1.4 1.2 2.6 3.1 2.7 4.2 0.1 2.3 -22.2 49 -26.4 55.3 -1.6 2.3 -3.9 4.8 -5.1 5.6 -4.3 2.7 -197.3 4.6 -250.2 2.5z"
       id="path20" />
    <path
       d="M1688.5 620.9 c-30.5 -1.2 -36.1 -2.4 -43.1 -9.5 -11 -10.9 -9.7 -32.8 3.7 -63.4 2.8 -6.3 10.6 -24.8 17.4 -41 30.5 -73.2 48.5 -111.9 59.1 -126.6 10.5 -14.8 27.5 -24.5 48.2 -27.4 5.4 -0.8 49.4 -1 145 -0.8 l137.4 0.3 1.9 2.3 c4.5 5.6 4.1 6.8 -10.8 35.7 -11.5 22.5 -14.3 27.2 -17 28.8 -3.2 1.8 -6.2 1.9 -100 0.9 l-96.7 -1 -5.6 2.8 c-16.1 8.1 -23.2 18.9 -18.5 28 l1.5 3 98.5 0.2 c111.1 0.3 101.4 -0.5 102.2 8.5 0.4 4.2 -0.3 6.5 -6 19.3 -9.4 21 -12.7 27.7 -14.6 29.4 -1.4 1.3 -15.2 1.6 -108.9 2.2 l-107.3 0.7 -2.9 3.4 c-9.3 10.5 -9.3 21.9 -0.2 31.1 l3.5 3.4 93.6 -0.3 c88.2 -0.4 93.8 -0.3 96.4 1.4 1.5 0.9 2.9 2.7 3.2 4 0.6 2.1 -5.4 15.3 -22.6 50.3 -1.7 3.4 -4.7 7.7 -6.7 9.6 l-3.7 3.5 -70.5 1.2 c-76.1 1.2 -146.1 1.2 -176.5 0z"
       id="path22" />
    <path
       d="M2482.5 620.5 c-2.7 -0.8 -8.7 -3.3 -13.3 -5.5 -15.1 -7.5 -25.4 -19.7 -30.8 -36.5 -4.5 -13.9 -4.4 -37.8 0.2 -56 1.2 -4.6 39.3 -104.6 71.9 -188.5 1.8 -4.7 13.5 -35 26 -67.5 12.5 -32.4 30.5 -79.1 40 -103.8 18.8 -48.6 20.6 -52.3 35.1 -69.7 23.2 -27.8 49.9 -42.9 83.4 -47 5.3 -0.6 51 -1 124.8 -1 l116.3 0 2.6 2.6 c2.2 2.2 2.5 3.2 2.1 7.3 -0.3 2.6 -2.1 8.1 -4 12.1 -2 4.1 -15 35.3 -28.9 69.2 l-25.4 61.8 -90.6 0 -90.5 0 -5.2 2.6 c-6.4 3.2 -9.6 6.9 -13.9 16.2 -5.4 11.6 -11.5 30.7 -10.7 33.7 1.5 6.1 0.5 5.9 61.4 6.5 61.9 0.6 59.9 0.4 75.8 8 18.3 8.7 29.4 20.9 35.8 39.5 2.7 7.7 2.8 8.8 2.8 27 0 22 -0.7 25.7 -11.9 61.5 -26.4 84.3 -45.3 127.4 -72 164.2 -3.3 4.6 -11.8 14.2 -19 21.4 -19.7 19.8 -38.7 31.7 -64 39.9 l-10.6 3.5 -91.2 -0.1 c-73.9 -0.1 -92.1 -0.3 -96.2 -1.4z m188.5 -163.4 c19.4 -1 21.8 -2.1 26.7 -12.9 1.9 -4.2 6.6 -14 10.4 -21.7 5.5 -11.3 6.9 -15 6.9 -18.7 0 -3.9 -0.5 -5 -2.7 -6.8 -2.7 -2.1 -3 -2.1 -48.3 -1.8 -38.1 0.2 -46 0.5 -48.3 1.8 -2.2 1.2 -4.4 4.9 -9.8 16.3 -14.2 30.2 -16.4 37.6 -12.6 41.4 1.6 1.6 4.6 1.9 27 2.3 13.9 0.3 27.7 0.6 30.7 0.7 3 0.1 12 -0.2 20 -0.6z"
       id="path24" />
    <path
       d="M1716 312.3 c-24.1 -0.6 -47.8 -2.3 -52.6 -3.8 -6.3 -1.8 -12.4 -6.2 -15.3 -10.8 -7.4 -12 -3.9 -34.4 9.5 -61.1 3.1 -6.1 9.1 -19 13.4 -28.6 22.2 -50.1 47.2 -101.6 58.7 -121 14.7 -25 33.3 -37.3 61.8 -41 6.6 -0.8 48.7 -1 156.1 -0.8 143 0.3 147.3 0.4 149.3 2.2 1.1 1 2.5 3.5 3.1 5.5 0.9 3.4 0.5 4.5 -11.2 25.6 -6.6 12.1 -13.2 23.9 -14.5 26.2 -1.3 2.3 -3.7 5.2 -5.4 6.4 l-3.1 2.2 -105.4 -0.8 -105.4 -0.7 -7.5 3.7 c-8.6 4.3 -16.6 11 -18.5 15.5 -0.7 1.7 -1 4.8 -0.7 7.2 1.1 8 -8.8 7.3 109.2 7.3 l105.4 0 2.2 2.1 c1.3 1.3 2.3 3.9 2.6 6.6 0.5 4 -0.4 6.1 -10.1 25.6 -6.5 12.9 -11.5 21.7 -12.8 22.6 -1.9 1.2 -20.4 1.5 -117.3 2.1 l-115 0.7 -3.7 3.6 c-9.4 9 -10 19.7 -1.6 28.8 l4.1 4.4 102.1 0 c90.7 0 102.4 0.2 104.4 1.6 5.3 3.7 5.3 3.6 -9.8 32.3 -9.7 18.5 -15.3 28 -18 30.6 l-3.8 3.7 -74.9 1.4 c-66.3 1.2 -145.1 1.5 -175.3 0.7z"
       id="path26" />
    <path
       d="M308 309 c-8 -0.4 -30 -1.3 -49 -2 -19 -0.7 -36.6 -1.5 -39.1 -1.9 l-4.7 -0.6 15.1 -31 c8.2 -17 35.8 -74.2 61.4 -127 25.5 -52.8 47.1 -97 47.9 -98.3 l1.5 -2.2 64.2 0.2 c56.4 0.3 64.2 0.5 64 1.8 -0.1 0.8 -9.4 22.9 -20.7 49 l-20.5 47.5 2.9 0.8 c1.5 0.4 33.1 0.6 70.1 0.5 l67.3 -0.3 8.7 -19.5 c4.8 -10.7 14.8 -33 22.2 -49.5 l13.5 -30 64.6 -0.3 c54.2 -0.2 64.6 0 64.6 1.2 0 0.7 -2.3 6 -5.1 11.7 -2.8 5.7 -10.9 22.3 -17.9 36.9 -7 14.6 -28.4 58.7 -47.4 98 -19.1 39.3 -39.5 81.5 -45.4 93.7 l-10.7 22.3 -65.3 0 -65.3 0 1.5 -2.7 c0.7 -1.6 11.4 -24.6 23.6 -51.3 12.2 -26.7 22.4 -48.8 22.7 -49.2 0.2 -0.5 -31.2 -0.8 -69.9 -0.8 l-70.4 0 -25.4 52 -25.5 52 -9.5 -0.2 c-5.2 0 -16 -0.4 -24 -0.8z"
       id="path28" />
    <path
       d="M728 309.4 c0 -0.4 9.8 -20.1 21.9 -43.8 12 -23.7 29.8 -59 39.6 -78.5 9.7 -19.4 18 -34.9 18.5 -34.5 1.5 1.6 32 60.1 32 61.4 0 1 -12.4 25.6 -17 33.5 -1 1.7 -5.6 10.4 -10.3 19.5 -4.7 9.1 -11.7 22.4 -15.5 29.5 l-7 13 -31.1 0.3 c-17.1 0.1 -31.1 -0.1 -31.1 -0.4z"
       id="path30"
       style="fill:#000000" />
    <path
       d="M850 295.8 c3.7 -7.9 13.6 -28.5 22 -45.8 9.3 -19.2 15.3 -32.7 15.3 -34.5 0 -1.8 -15 -36.2 -37.1 -85.5 -20.4 -45.3 -36.8 -82.8 -36.4 -83.2 0.5 -0.5 32.7 -0.7 71.7 -0.6 l70.8 0.3 2.4 7.5 c1.3 4.1 8.5 26 15.9 48.6 7.4 22.7 13.4 41.7 13.4 42.3 0 2.3 -7.1 7.9 72.8 -57.1 l51.3 -41.8 71 0 c39 0 70.9 0.4 70.9 0.8 0 0.5 -51.4 37.4 -114.3 82 -62.9 44.7 -115 82 -115.9 82.9 -0.8 1 -12.5 23.5 -25.9 50.1 l-24.4 48.2 -65.2 0 -65.2 0 6.9 -14.2z"
       id="path32" />
    <path
       d="M1096.6 298.8 c3.7 -6.2 7.6 -12.9 8.7 -14.9 1.7 -2.9 6.5 -6.3 24.6 -17.2 12.3 -7.5 22.6 -13.5 22.8 -13.3 0.2 0.1 -5.2 12.9 -11.9 28.4 l-12.3 28.2 -19.2 0 -19.2 0 6.5 -11.2z"
       id="path34"
       style="fill:#000000" />
    <path
       d="M1181 309.5 c0 -0.2 15.8 -32.5 35.1 -71.7 19.3 -39.2 43 -87.5 52.7 -107.3 9.7 -19.8 23.1 -46.8 29.7 -60 l12 -24 122 -0.9 c124.7 -0.9 211.3 0 220.3 2.3 15 3.9 22.9 12.3 23.9 25.5 0.6 7.1 -1.8 18.4 -4.9 23.6 -1.1 1.9 -9.6 19.6 -18.8 39.2 -18.4 39.2 -23.9 48.6 -36.5 61.7 -12.2 12.8 -22.8 19.7 -36.9 24 -6.8 2.1 -7.7 2.1 -118 2.1 l-111.1 0 -20.4 43 -20.5 43 -64.3 0 c-35.4 0 -64.3 -0.2 -64.3 -0.5z m331.7 -157.7 c3 -1.1 7.1 -3.8 9.7 -6.2 11.2 -10.9 12.2 -23.1 2.4 -27.6 -4.1 -1.9 -7 -2 -60.9 -2 l-56.6 0 -10.1 18.3 c-5.6 10.1 -10.2 18.6 -10.2 19 0 0.7 107 1.5 115.5 0.8 2.8 -0.2 7.3 -1.2 10.2 -2.3z"
       id="path36" />
    <path
       d="M2035.2 267.3 c11.6 -23.6 33.3 -67.8 48.3 -98.3 14.9 -30.5 34.7 -70.9 44 -89.7 l16.8 -34.3 160.1 0 c170.1 0 167.7 -0.1 182.1 4.6 21.6 7.1 31.9 21.6 28.6 40 -1.6 8.5 -11.9 35.4 -19.6 50.9 -25.5 51.5 -60.7 80.2 -104.9 85.6 -10.6 1.3 -23.9 0.5 -33.8 -2 -4.2 -1.1 -6.4 -1.3 -5.6 -0.6 6.8 6.1 73.9 61.9 83.6 69.5 7.5 6 8.2 6.8 8.2 10.2 0 7.4 7.8 6.8 -82.4 6.8 l-81.1 0 -14 -13.2 c-7.7 -7.2 -28.3 -26.6 -45.7 -43 l-31.7 -29.8 -4.3 7.7 c-2.4 4.3 -12.9 23.6 -23.4 42.8 l-19.1 35 -63.6 0.3 -63.6 0.2 21.1 -42.7z m300.5 -114.9 c6.3 -1.7 15.1 -9.4 18.2 -15.7 2.3 -4.7 2.7 -11.6 1 -14.9 -0.6 -1.1 -2.9 -2.8 -5.2 -3.9 -4 -1.7 -7.4 -1.9 -60.9 -1.9 l-56.6 0 -10.5 18.8 -10.4 18.7 55.6 0.5 c60.1 0.5 61.1 0.5 68.8 -1.6z"
       id="path38" />
  </g>
</svg>
