<?xml version="1.0" encoding="utf-8"?>
<!DOCTYPE svg PUBLIC "-//W3C//DTD SVG 20010904//EN" "http://www.w3.org/TR/2001/REC-SVG-20010904/DTD/svg10.dtd">
<svg version="1.0" xmlns="http://www.w3.org/2000/svg" width="999px" height="297px" viewBox="0 0 999 297" preserveAspectRatio="xMidYMid meet">
 <g fill="#ffffff">
  <path d="M3.1 295.1 c-1.1 -0.7 -1.5 -7.1 -1.7 -34.8 -0.2 -18.6 -0.1 -35 0.2 -36.5 l0.6 -2.8 497.3 0 c452.5 0 497.3 0.1 497.9 1.6 0.3 0.9 0.6 17 0.6 35.9 0 29.9 -0.2 34.6 -1.6 35.9 -1.4 1.5 -47.9 1.6 -496.7 1.6 -285.9 0 -495.8 -0.4 -496.6 -0.9z m99.9 -15.3 c3.4 -1.8 5.1 -3.4 6.9 -7.1 2.2 -4.4 2.3 -5.2 1.1 -9 -1.8 -6.1 -5.7 -9.2 -14.2 -11.2 -10.5 -2.5 -13.2 -4.2 -12.1 -7.3 0.3 -0.8 2 -2 3.7 -2.7 3.3 -1.4 6.2 -0.7 10.2 2.4 2 1.6 3 1.7 6.4 0.9 10.3 -2.6 -1 -13.1 -14.3 -13.1 -12.4 0 -20.2 9 -16.2 19 1.9 4.8 6.3 7.5 15 9.3 7.6 1.6 10.5 3.4 10.5 6.4 0 6.8 -11.9 8 -17.9 1.9 -1.9 -2 -3 -2.4 -5.5 -1.9 -4.9 1 -6.1 2.8 -4.2 6.3 4.3 8.3 19.8 11.4 30.6 6.1z m113.5 1.2 c7.6 -2.9 12.6 -11 13.1 -21.4 0.9 -16.3 -7 -26.5 -20.7 -26.8 -13.1 -0.3 -22.3 11 -21.4 26.3 1.1 17.9 14.1 27.7 29 21.9z m99.5 1 c1.6 -0.9 1.7 -1.9 1.3 -8.8 -0.7 -10.2 0.2 -11.2 9.7 -11.2 6.1 0 6.9 -0.2 7.5 -2.1 0.4 -1.1 0.4 -3.1 0.1 -4.5 -0.6 -2.3 -1 -2.4 -8.1 -2.4 -6.5 0 -7.6 -0.3 -8.6 -2.1 -0.6 -1.2 -0.8 -3.6 -0.4 -5.5 0.7 -4.2 3 -4.9 13.1 -4.1 6.6 0.6 7.4 0.5 8.4 -1.3 1.1 -2.1 0.4 -7 -1.1 -7.1 -0.5 0 -7.2 0 -14.9 0 -7.7 0 -14.4 0 -15 0 -1.6 0.1 -1.3 48.8 0.3 49.4 2.1 0.9 5.7 0.7 7.7 -0.3z m117.4 0.4 c1.4 -0.5 1.6 -3.2 1.6 -19.4 0 -21.5 0.4 -22.7 6.7 -21.5 2.1 0.4 4 0.2 4.9 -0.6 1.6 -1.3 1.9 -6.5 0.3 -7.4 -0.8 -0.5 -26.5 -0.9 -34.6 -0.6 -1.9 0.1 -1.7 7.7 0.1 8.4 0.8 0.3 3 0.3 4.9 0 6.3 -1 6.7 0.3 6.7 21.7 0 14.1 0.3 19 1.3 19.3 1.8 0.8 6.3 0.8 8.1 0.1z m110.8 -0.7 c0.7 -0.8 2.8 -7.5 4.7 -15 1.8 -7.5 3.7 -13.7 4.1 -13.7 0.7 0 1 0.9 5.6 18 1.5 5.8 3.2 10.8 3.8 11.2 0.5 0.3 2.4 0.6 4.3 0.6 3.8 0 7.3 -2.7 7.3 -5.5 0 -1 2.5 -10.8 5.5 -21.8 3 -11 5.5 -20.5 5.5 -21.2 0 -1.6 -3.6 -2.6 -6.5 -1.9 -1.9 0.5 -2.8 1.8 -3.9 5.9 -4.6 17.1 -6.7 24.1 -7 24.4 -0.2 0.2 -2.2 -6.2 -4.4 -14.3 -2.3 -8 -4.3 -14.8 -4.5 -15.1 -0.3 -0.2 -2 -0.6 -3.8 -0.9 -5.4 -0.9 -6.7 1 -9.5 12.6 -3.2 14 -4.4 18.3 -5 17.7 -0.3 -0.2 -1.8 -5.6 -3.4 -11.8 -4.6 -17.8 -4.4 -17.2 -7.3 -18.2 -1.6 -0.5 -3.9 -0.6 -5.3 -0.3 -3.2 0.8 -3.1 2 1.5 18.6 1.7 6.3 4.3 15.8 5.7 21 1.4 5.2 3 9.8 3.7 10.2 1.9 1.2 7.4 0.9 8.9 -0.5z m116.8 0.3 c1.1 -0.6 2.2 -2.6 2.6 -4.5 0.8 -4.7 3.7 -6.5 10.1 -6.5 7.6 0 9.9 1.2 10.7 5.4 0.9 4.6 3 6.6 7 6.6 6.3 0 6.3 -0.8 -2.2 -25.9 -4.3 -12.7 -8.1 -23.3 -8.4 -23.7 -1.2 -1.1 -9.8 -1.1 -11.2 0 -2.3 1.8 -16.7 46.8 -15.4 48.3 1.3 1.6 4.2 1.7 6.8 0.3z m121.7 -0.2 c0.4 -0.7 0.8 -5 0.8 -9.6 0 -8.5 0.7 -10.1 4.7 -10.2 4.8 0 6.4 1.8 9.8 10.7 1.8 4.8 3.8 9.1 4.4 9.5 2.5 1.7 9.6 0.6 9.6 -1.5 0 -0.7 -1.6 -5.1 -3.6 -9.9 l-3.6 -8.8 3 -2.8 c7.8 -7.3 6 -20.9 -3.3 -24.8 -3.2 -1.3 -29 -2.3 -30.1 -1.1 -0.8 0.8 -0.7 47.4 0.1 48.7 0.9 1.4 7.2 1.2 8.2 -0.2z m141.6 0.3 c1.2 -0.1 0.8 -7.9 -0.5 -8.4 -0.7 -0.2 -5.1 -0.2 -9.9 0.1 -9.8 0.5 -11.9 -0.6 -11.9 -6.3 0 -5.3 2.3 -6.8 9.6 -6.2 3.4 0.2 6.6 0.2 7.2 -0.2 1.6 -1.1 2.4 -4.9 1.3 -7 -1 -1.8 -1.8 -1.9 -7.9 -1.4 -7.8 0.6 -10.2 -0.7 -10.2 -5.7 0 -5.2 2.3 -6.3 12.1 -5.8 9.2 0.6 10.9 0 10.9 -3.6 0 -4.6 -1 -4.8 -16.1 -4.8 -7.9 0.1 -15 0.1 -15.6 0.1 -1.6 0.1 -1.9 48.7 -0.3 49.3 0.8 0.2 27.6 0.1 31.3 -0.1z"/>
  <path d="M202.7 270.3 c-5.9 -6.3 -5.6 -20.7 0.6 -25.9 2.4 -2.1 3.8 -2.5 6.5 -2 4.7 0.7 6 2 7.7 7.9 1.8 6 1.9 8.9 0.4 14.1 -2.3 8.4 -9.9 11.3 -15.2 5.9z"/>
  <path d="M670.2 262.1 c-1.2 -0.7 -1 -2.1 0.9 -8 1.3 -3.9 2.6 -7.1 3 -7.1 0.4 0 1.7 3.2 2.9 7.1 1.7 5.8 1.9 7.4 0.8 8 -1.7 1.1 -5.9 1.1 -7.6 0z"/>
  <path d="M784.5 252.3 c-1.3 -1.2 -1.6 -2.7 -1.2 -5.6 0.6 -4.5 1.9 -5.7 6.2 -5.7 9.1 0 14.4 4.4 11.2 9.3 -2.5 3.8 -13.1 5.1 -16.2 2z"/>
  <path d="M100 203.3 c-28.8 -2.7 -52.3 -13.8 -69.9 -32.9 -7.5 -8.2 -10.6 -12.5 -15.6 -21.9 -10.4 -19.6 -13.9 -42.5 -9.6 -63.7 7.1 -35.5 32.2 -63.9 65.8 -74.6 19.9 -6.3 33.9 -7.8 45.6 -4.7 3.2 0.8 6.7 1.5 7.7 1.5 2.7 0 19.2 5.5 24.3 8.2 34.4 17.3 57.5 54.8 56.4 91.3 -0.6 17.8 -6.7 37.5 -16.2 52.1 -5.5 8.3 -20.7 23.3 -29.2 28.7 -8.3 5.3 -17 9.2 -26.3 11.7 -11.5 3.1 -25.9 5 -33 4.3z m20.1 -51.4 c7.7 -2.2 18.8 -9.6 23.7 -15.8 4.3 -5.4 8.9 -15.3 10.1 -21.6 4.4 -24.4 -8 -47 -31 -56.7 -6.8 -2.8 -8.1 -3 -19.9 -3.1 l-12.7 -0.1 -8.6 4.3 c-18.6 9.2 -28.8 25.3 -28.7 45.4 0.1 16.7 8.9 32.5 23.3 41.8 5.7 3.7 15.3 7.4 21.2 8.2 5.3 0.7 15.8 -0.4 22.6 -2.4z"/>
  <path d="M302.5 200.5 c-31.9 -6.7 -57.2 -26.3 -71.5 -55.3 -4.6 -9.5 -6.7 -16.6 -9 -30.6 -1.6 -10.3 -1.6 -11.5 0 -22.5 1 -6.4 2.5 -14.3 3.5 -17.6 2.1 -7.1 8 -19.5 12.6 -26.2 14.7 -21.7 39.3 -37.9 63.9 -42.1 18.6 -3.1 22.5 -3.2 39 0 30.6 5.7 57.6 26.3 71.1 54.1 2 4.1 2.1 4.9 0.9 5.7 -0.9 0.5 -14 0.8 -30 0.7 l-28.5 -0.2 -6 -3.8 c-8.3 -5.2 -16.2 -7.5 -26.5 -7.5 -9.8 0 -15.6 1.4 -24.2 6 -16.8 8.9 -26.4 24.7 -26.6 43.8 -0.3 20.1 11 37.2 30.6 46.3 5.7 2.6 8.2 3.1 16.6 3.5 5.9 0.3 12.2 -0.1 15.5 -0.8 8 -1.7 18.2 -7.4 24.1 -13.3 l5 -5.2 24.2 -0.3 c25.1 -0.3 28.8 0 28.8 2.1 0 2 -6.7 15.4 -10.7 21.5 -7.6 11.4 -21.6 24.3 -34.3 31.4 -12.7 7.1 -35.7 12.9 -50.6 12.7 -3.8 0 -11.8 -1.1 -17.9 -2.4z"/>
  <path d="M522 201.4 c-27.5 -2.2 -52.7 -15.8 -70.6 -37.9 -20.5 -25.4 -26.5 -61 -15.5 -92.7 10.4 -30 37.4 -55.3 67.7 -63.3 9.4 -2.5 21.4 -4.5 27.4 -4.5 9.8 0 28.2 4 39.2 8.4 28.5 11.5 52.3 39.8 58.3 69.1 4 20.1 4.2 28.5 0.5 30.5 -1.3 0.7 -25.8 1 -74.1 1 -42.9 -0.1 -72.5 0.2 -73.1 0.8 -1.1 1.1 2.1 10.6 5.6 16.6 3.4 5.8 12.9 14.4 20.1 18.2 19.4 10.2 44.4 5.9 60.5 -10.5 l6.5 -6.6 24.5 -0.3 c13.5 -0.1 25.1 0.2 25.9 0.7 1.7 1.1 0.4 5.5 -5 16.4 -12.3 25 -36.9 44.5 -64.4 51.1 -9.8 2.4 -24.5 3.7 -33.5 3z m50.3 -124.4 c1.9 0 0.3 -3.2 -3.9 -7.9 -14.6 -16.3 -41.4 -21 -60.9 -10.7 -9.5 5 -19.9 15.5 -18.2 18.3 0.4 0.6 67.1 0.8 83 0.3z"/>
  <path d="M724.5 200.4 c-2.7 -0.7 -6.1 -1.4 -7.5 -1.4 -4.7 0 -22 -6.7 -30.2 -11.6 -9.4 -5.7 -24.1 -19.2 -30.3 -27.9 -9.5 -13.4 -15.4 -29.1 -17.5 -46.5 -1 -9 -1 -12.2 0.5 -22.4 3.2 -23.2 12.3 -41.5 28.4 -57.6 36.4 -36.3 93.5 -40 133.6 -8.7 2.8 2.2 5.4 4.5 5.8 5.3 0.4 0.8 1.6 1.4 2.7 1.4 1.7 0 1.9 -1.1 2.2 -13.5 0.2 -10.7 0.6 -13.8 1.8 -14.5 0.8 -0.5 11.9 -1 24.7 -1 20.1 0 23.4 0.2 24.8 1.6 1.4 1.4 1.6 4 1.3 19 -0.4 19.2 0 20.2 5 14.2 13.9 -16.9 27 -26.6 41.2 -30.3 14.8 -3.8 34 -2.3 51.5 4.2 9.1 3.4 12.9 5.9 18.7 12 7.8 8.4 11.5 17.6 13.8 34.3 0.6 4.7 1.5 10.1 1.9 12 0.8 4.2 -0.3 98 -1.4 116.2 -0.4 7 -1.2 13.4 -1.9 14.2 -1.6 2.2 -48.4 2.6 -49.7 0.5 -1.1 -1.7 -1.1 -52.3 0.1 -89.4 l0.8 -28 -2.8 -6.2 c-7.5 -16.3 -18.2 -23.2 -36.9 -23.7 -18.9 -0.4 -29.7 5.6 -37.6 21.4 -3.2 6.3 -3.2 6.3 -4.3 81.2 -0.4 24.5 -1.1 45 -1.5 45.5 -0.5 0.4 -11.6 0.9 -24.7 1.1 -21.3 0.3 -23.9 0.1 -25.5 -1.4 -1.4 -1.5 -1.6 -3.5 -1.3 -14 0.1 -6.7 -0.1 -12.6 -0.5 -13 -0.4 -0.4 -2 0.2 -3.5 1.4 -18.5 15 -30.1 20.4 -55.2 25.7 -9 1.8 -19.7 1.8 -26.5 -0.1z m26.5 -49.5 c27.6 -6.3 44.7 -36.8 36.1 -64 -8 -25.3 -34.8 -39.6 -61.3 -32.8 -17 4.3 -30.5 17.6 -36.1 35.4 -2.3 7.4 -1.7 23.3 1.2 30.7 2.6 6.8 9.3 16.2 14.7 20.7 3.8 3.1 14.2 8.6 19.3 10.1 3.8 1.2 20.9 1.1 26.1 -0.1z"/>
 </g>
</svg>