<?xml version="1.0" encoding="utf-8"?>
<!DOCTYPE svg PUBLIC "-//W3C//DTD SVG 20010904//EN" "http://www.w3.org/TR/2001/REC-SVG-20010904/DTD/svg10.dtd">
<svg version="1.0" xmlns="http://www.w3.org/2000/svg" width="2871px" height="950px" viewBox="0 0 2871 950" preserveAspectRatio="xMidYMid meet">
 <g fill="#ffffff">
  <path d="M2050 948 c-37 -2.4 -72.8 -12.4 -102.7 -28.6 -32.2 -17.5 -69.5 -49.8 -96.8 -83.9 -13.7 -17.1 -29.3 -43.1 -38 -63.5 -10.8 -25.3 -20.5 -60.5 -23.5 -86 -0.6 -5.2 -1.4 -23.7 -1.7 -41.1 -1 -56.3 1.9 -78.2 15.8 -118.5 14.4 -42 37.9 -83 68.1 -118.9 10.8 -12.9 37.7 -38.8 49 -47.3 25.9 -19.4 57.9 -35.1 85 -41.7 21.1 -5.1 31.1 -6 73.3 -6 36 0 40.2 0.2 54.5 2.4 44.2 6.7 77.6 19.3 128 48.4 l16.5 9.5 0.3 61.9 0.2 62 -12.7 0.6 c-18.3 0.9 -23.6 -0.6 -24.8 -7 -1.8 -9.7 -16.2 -50 -23.6 -66.1 -18.4 -39.9 -53.9 -72.7 -91.4 -84.5 -11.5 -3.6 -21.1 -4.7 -41.8 -4.7 -63 0 -100.7 17.2 -128.6 58.7 -17.5 26.1 -27.3 61.9 -32.1 116.3 -2.1 25.4 -3.3 126 -2.1 185.8 1.2 59.2 1.7 68.4 5.2 90.6 4.4 27.1 10.7 48.3 20.4 68.1 18 36.6 47.1 59.1 88 68.1 9.9 2.1 39.4 2.9 55.1 1.5 31.9 -3 46.1 -8.9 64 -26.6 9.1 -9 10.6 -11.1 15.2 -20.5 10.8 -22.1 12.3 -33.1 12.9 -94.7 l0.5 -47.3 -46.1 0 -46.1 0 0 -11 0 -11 112.6 0 112.6 0 -0.6 5.8 c-0.3 3.1 -0.8 10 -1.1 15.2 -2.7 41.6 -9.1 70 -22 96.5 -15.4 31.9 -36.4 56.1 -66.5 76.7 -23.2 16 -48.2 27.2 -76.3 34.4 -23.8 6 -63.8 8.6 -98.7 6.4z"/>
  <path d="M775 643 l0 -294 -45 0 -45 0 0 -11.5 0 -11.5 117.9 0 117.9 0 1.6 4.8 c0.8 2.6 29.2 94.7 63.1 204.7 33.9 110 61.8 200.2 62.1 200.4 0.6 0.6 -0.7 4.4 67.5 -207.3 l65.3 -202.6 70.3 0 70.3 0 0 293 0 293 42.5 0 42.5 0 0 12.5 0 12.5 -100.3 0 -100.4 0 -0.6 -60.7 c-0.4 -33.5 -0.8 -146.5 -0.8 -251.3 -0.1 -104.8 -0.5 -205.7 -0.8 -224.3 l-0.6 -33.8 -91.5 285.1 -91.5 285 -16 0 -16 0 -89.9 -282.8 c-49.4 -155.5 -90.5 -284 -91.2 -285.7 -1 -2.4 -1.3 50.6 -1.3 282.8 l-0.1 285.7 -15 0 -15 0 0 -294z"/>
  <path d="M1445 924.5 l0 -12.5 42.5 0 42.5 0 0 -293 0 -293 103 0 103 0 0 11.5 0 11.5 -45 0 -45 0 0 281.5 0 281.5 45 0 45 0 0 12.5 0 12.5 -145.5 0 -145.5 0 0 -12.5z"/>
  <path d="M2337 934.8 c0.6 -1.3 51.6 -141.7 113.4 -312.1 61.8 -170.4 112.6 -309.9 112.8 -310.1 0.1 -0.1 7.1 0 15.5 0.2 l15.2 0.4 3 7.7 c12.7 33 152 430.8 194.2 554.8 l12.4 36.3 33.3 0 33.2 0 0 12.5 0 12.5 -88.8 0 -88.9 0 -1 -2.2 c-0.5 -1.3 -15.3 -42.7 -32.9 -92.1 l-31.9 -89.9 -98.5 0.7 c-54.2 0.4 -98.8 1 -99.1 1.4 -0.4 0.3 -14.9 40.7 -32.2 89.6 -17.4 49 -31.9 89.8 -32.2 90.8 -0.6 1.5 -2.3 1.7 -14.6 1.7 l-13.9 0 1 -2.2z m263.8 -208.4 c7.9 -0.3 14.2 -0.9 14 -1.3 -0.2 -0.4 -18.9 -56.4 -41.7 -124.5 -22.7 -68.1 -41.7 -123.4 -42.1 -122.9 -0.4 0.4 -20.9 56.4 -45.5 124.3 -24.6 67.9 -45 124.1 -45.3 124.9 -0.4 1.1 11.4 1.2 72.9 0.7 40.4 -0.4 79.8 -0.9 87.7 -1.2z"/>
  <path d="M1 709 l0 -225 161 0 161 0 0 32 0 32 32 0 32 0 0 64 0 64 -32 0 -32 0 0 32 0 32 -96.7 0.2 -96.8 0.3 -0.3 96.8 -0.2 96.7 -64 0 -64 0 0 -225z m258.5 -33.2 c0.3 -1.3 0.4 -30.6 0.3 -65.3 l-0.3 -63 -65.2 -0.3 -65.3 -0.2 0 64.8 c0 35.7 0.3 65.2 0.7 65.5 0.3 0.4 29.6 0.7 64.9 0.7 l64.4 0 0.5 -2.2z"/>
  <path d="M582 902 l0 -32 -32 0 -32 0 0 -128.5 0 -128.5 63.5 0 63.5 0 0 129 0 129 32.5 0 32.5 0 0 31.5 0 31.5 -64 0 -64 0 0 -32z"/>
  <path d="M518 515.5 l0 -31.5 63.5 0 63.5 0 0 31.5 0 31.5 -63.5 0 -63.5 0 0 -31.5z"/>
  <path d="M1617.5 257.5 c-3.8 -1.5 -10.3 -3.1 -14.4 -3.6 -4.1 -0.5 -10.7 -1.9 -14.5 -3.1 -3.9 -1.1 -8.6 -2.3 -10.5 -2.5 -12 -1.4 -23.6 -9 -30.8 -20.3 -5.4 -8.5 -14.2 -19.5 -18.1 -22.5 -11.6 -8.9 -16.2 -25.7 -11.2 -40.6 1.2 -3.4 3 -7.4 4.2 -8.9 1.6 -2.3 1.9 -3.7 1.4 -7.6 -0.4 -2.7 -0.9 -8.8 -1.2 -13.5 -0.5 -7.5 -0.3 -9.3 1.7 -14 1.2 -3 3.7 -7.3 5.6 -9.6 1.8 -2.3 3.3 -4.6 3.3 -5.1 0 -0.5 -1.7 -1.2 -3.9 -1.6 -2.1 -0.3 -4.4 -1.3 -5.1 -2.1 -0.7 -0.8 -2.5 -1.5 -4.1 -1.5 -1.6 0 -3.8 -1 -5.1 -2.3 -1.3 -1.2 -3.9 -3 -6 -3.9 -2 -0.9 -3.9 -2.5 -4.2 -3.5 -0.3 -1 -1.6 -2.3 -2.8 -2.8 -1.3 -0.6 -2.8 -2 -3.4 -3.3 -0.6 -1.3 -2.3 -3.6 -3.8 -5.1 -1.4 -1.5 -2.6 -3.4 -2.6 -4.2 0 -0.8 -0.9 -2.2 -2 -3.2 -1.2 -1 -2 -2.9 -2 -4.7 0 -1.7 -0.7 -4.2 -1.6 -5.5 -1.5 -2.3 -1.5 -2.7 0 -4.9 0.8 -1.4 2.4 -2.7 3.4 -3 1 -0.4 2.8 -1.9 4 -3.5 1.1 -1.6 3.3 -3.2 4.8 -3.5 1.6 -0.4 3.9 -1.8 5.2 -3.2 1.4 -1.3 3 -2.4 3.7 -2.4 0.7 0 1.8 -0.7 2.5 -1.5 0.7 -0.8 3.1 -2 5.4 -2.6 2.2 -0.6 4.4 -1.6 4.8 -2.2 0.3 -0.6 2.6 -1.2 5 -1.4 2.3 -0.2 7.9 -0.8 12.2 -1.4 5.7 -0.8 8.6 -0.8 10.4 0.1 1.3 0.6 3.3 0.8 4.3 0.5 2.6 -0.8 10.7 3.6 15.7 8.6 2.3 2.3 4.2 4.6 4.2 5.1 0 0.4 0.7 0.8 1.5 0.8 1.3 0 1.8 -2.8 1.5 -7.2 0 -0.2 0.7 -2.7 1.6 -5.7 1.8 -6.2 5.3 -12.1 7.2 -12.1 0.7 0 2.1 -1.3 3 -3 0.9 -1.6 3.6 -3.9 5.9 -5 2.3 -1 4.4 -2.4 4.8 -3 0.3 -0.5 1.6 -1 2.7 -1 1.2 0 3.2 -1 4.4 -2.1 1.3 -1.2 3.6 -2.1 5.1 -2.1 1.5 0 4.1 -0.7 5.6 -1.5 1.6 -0.8 4.1 -1.4 5.5 -1.3 1.5 0.1 3.2 0.1 3.7 0 1.1 -0.3 9.6 -0.9 13 -0.9 13.9 -0.1 15.1 0.2 15.7 4.9 0.2 1.4 1.2 3.7 2.2 5.3 1 1.5 1.6 3.6 1.3 4.8 -0.3 1.1 -0.1 3.3 0.4 4.8 0.6 1.7 0.6 3.7 0.1 5.2 -0.6 1.4 -0.6 3.4 -0.1 4.7 0.6 1.5 0.5 3.1 -0.3 4.5 -0.6 1.2 -1.1 3.5 -1 5 0.2 1.6 -0.7 4.4 -1.8 6.2 -1.1 1.8 -2 4.2 -2 5.4 0 1.2 -1.1 3.3 -2.5 4.7 -1.4 1.4 -2.5 3.2 -2.5 4 0 0.9 -1.3 2.9 -3 4.6 -1.6 1.6 -3 3.1 -3 3.3 0 0.2 1.9 0.9 4.3 1.6 11.4 3 21.1 10.8 25.5 20.4 4.9 10.8 3.8 9.5 12.5 13.7 6.1 2.8 14.5 11 17.5 17 4.2 8.5 5.1 22.2 1.9 28.3 -0.6 1.2 -1 8.7 -0.9 19.4 0.1 13.2 -0.2 18.6 -1.4 22.7 -1.6 5.5 -8.2 16.4 -11.3 18.7 -0.9 0.6 -3.8 3.9 -6.3 7.3 -2.6 3.3 -7.1 8.3 -10.1 11.1 -3 2.7 -6.2 6.3 -7 7.9 -3.3 6.3 -10.7 13.3 -18 16.9 -5.8 2.9 -8.7 3.6 -15.2 4.1 -7 0.4 -8.9 0.1 -15 -2.1z m19.3 -9 c6.5 -2 13.9 -7.8 18.1 -14.4 2.7 -4.2 3.1 -5.4 2.1 -6.6 -1.6 -2 -9.8 -2 -17.3 0 -9.5 2.5 -23.5 10.4 -25.7 14.5 -0.9 1.7 -0.5 2.2 3 4 3.8 1.9 9.7 3.7 13.1 3.9 0.8 0.1 3.8 -0.6 6.7 -1.4z m-46.4 -12.4 c5.1 -2.9 5.5 -4.4 2.1 -10.9 -3.9 -7.4 -10 -13.4 -17.8 -17.2 -10.1 -5 -16.6 -5.2 -20.7 -0.8 -1.6 1.7 -1.9 3 -1.4 5.3 2.3 10.8 12.8 21.4 24.7 25 4.7 1.5 8.8 1 13.1 -1.4z m37.9 -21.7 c9.3 -3.2 18.7 -14.5 18.7 -22.5 0 -4.9 -4.2 -13.2 -8.1 -16.1 -11.6 -8.7 -22.4 -8.3 -33.3 1.3 -3.9 3.4 -8.6 12 -8.6 15.7 0 8 6.2 17 14.4 20.8 6 2.8 10.5 3 16.9 0.8z m45.5 -4.5 c4.4 -1.7 11.9 -9.8 14.8 -16.2 5 -10.7 3 -22.9 -5.1 -30.7 l-3.4 -3.3 -3.5 2.7 c-10 7.6 -17.7 26.5 -15.6 37.8 1.1 5.6 1.5 6.4 4.3 9.6 2.1 2.2 2.7 2.2 8.5 0.1z m-132.4 -19.2 c-0.2 -11.1 -5.9 -30.4 -8.8 -29.4 -2.3 0.8 -6.6 10.9 -6.6 15.7 0 5.9 4.7 15.6 9.7 20 4.7 4.2 5.8 3 5.7 -6.3z m39.4 -11.3 c8 -4 13.7 -11.9 16.2 -22.1 1 -4.5 1 -6 -0.5 -10.8 -3 -9.4 -12 -17.5 -19.5 -17.5 -7.5 0 -18 8.4 -22.3 17.8 -3 6.5 -2.9 16.2 0.1 21.7 3.1 5.7 5.4 8.2 10.4 11 5.5 3.2 9.1 3.1 15.6 -0.1z m70.6 -24.8 c5.2 -3 9.5 -9.5 10.3 -15.5 1.1 -8.4 -8.5 -21.8 -19.3 -26.8 -9.4 -4.3 -19.3 -2.6 -25.6 4.4 -3.4 3.7 -6 11.3 -5.3 15.2 1.7 9.4 11.1 20.2 20.8 24.1 6.7 2.6 13 2.2 19.1 -1.4z m39.7 -8.8 c2.8 -10.7 -4.1 -24.2 -15.3 -29.9 -5.2 -2.7 -6.1 -1.4 -4.1 5.5 3 10.1 14.2 28.6 17.3 28.6 0.5 0 1.4 -1.9 2.1 -4.2z m-150.3 -14.1 c5.5 -8.1 14.7 -24.6 14 -25.3 -0.9 -0.8 -10.3 4.8 -14.2 8.4 -5 4.8 -8.6 12.4 -8.6 18.4 0 9.8 1.1 9.6 8.8 -1.5z m53.9 -19.7 c7.5 -2.6 15.3 -7.9 17.6 -11.9 l1.8 -3.2 -3 -2.8 c-3.9 -3.6 -10.6 -5.5 -17.6 -4.9 -4.4 0.4 -6.8 1.3 -11.3 4.4 -7.1 4.9 -12.7 12.7 -11 15.4 3.2 5 13.9 6.4 23.5 3z m63.1 -15.1 c-6.5 -11.7 -21.6 -17.6 -32.8 -12.8 l-3.4 1.5 9.4 4.7 c10.3 5 24.4 10.6 27.3 10.7 1.7 0 1.6 -0.3 -0.5 -4.1z m-106.8 -4.9 c4.8 -3.1 8.2 -7 9.4 -10.8 0.7 -2 0.1 -2.5 -5.1 -4.8 -6.7 -3 -28.2 -9.1 -35.4 -10 l-5 -0.7 0.3 -3.6 0.3 -3.6 8.5 0.3 c10.7 0.4 25.5 2.7 34.3 5.3 7.2 2.1 8.4 1.9 9.6 -1.5 1.1 -2.8 -1.8 -8.5 -6.8 -13.5 -3.5 -3.5 -4.5 -3.9 -10.8 -4.5 -7.6 -0.8 -20 0.2 -20.9 1.5 -0.3 0.5 -2.1 0.9 -4 0.9 -2.4 0 -3.4 0.5 -3.4 1.5 0 1.1 -1.1 1.5 -4 1.5 -3.2 0 -4 0.4 -4 1.9 0 1.5 -1 2 -5 2.5 -4.4 0.6 -5 1 -5 3 0 1.6 -0.7 2.6 -2.1 2.9 -1.5 0.4 -2 1.1 -1.5 2.2 0.3 0.9 0.6 2.7 0.6 4 0 1.5 0.7 2.6 2 3 1.4 0.4 2 1.5 2 3.4 0 2 0.7 3.1 2.5 3.9 1.5 0.7 2.5 2 2.5 3.2 0 1.4 1 2.4 3 3.1 1.8 0.7 3 1.8 3 2.9 0 1.8 2.6 3 6.8 3 1.5 0 2.2 0.6 2.2 2 0 1.7 0.7 2 4.5 2 2.5 0 4.5 0.5 4.5 1 0 0.6 2.7 1 6.2 1 5.1 0 6.9 -0.5 10.8 -3z m72.6 -22.1 c3.2 -0.8 4.4 -1.6 4.4 -3 0 -1.2 1.3 -2.4 3.5 -3.3 2.4 -1 3.5 -2.2 3.5 -3.5 0 -1.1 1.1 -2.8 2.5 -3.7 1.5 -1 2.5 -2.6 2.5 -4 0 -1.3 0.9 -3.3 2 -4.4 1.1 -1.1 2 -3.2 2 -4.6 0 -1.4 0.5 -3.5 1.1 -4.6 0.8 -1.5 0.8 -5.1 -0.1 -13.3 l-1.2 -11.3 -4.9 -0.4 c-2.7 -0.1 -5.6 0.2 -6.4 0.9 -0.9 0.6 -5.2 1.4 -9.6 1.8 -4.3 0.4 -8.2 1.1 -8.5 1.6 -0.3 0.5 -1.7 0.9 -3.2 0.9 -1.6 0 -3.2 0.8 -4 2 -0.7 1.1 -2.3 2 -3.7 2 -1.4 0 -2.9 0.8 -3.5 2 -0.6 1.1 -2.1 2 -3.4 2 -1.7 0 -2.7 0.9 -3.6 3 -0.8 1.9 -2 3 -3.2 3 -2.1 0 -4.1 3.9 -5.3 10.1 -0.8 4.4 2.2 12.1 5.3 13.8 1.7 0.9 2.3 0.5 4.5 -2.8 4.5 -6.7 14.7 -18 22.5 -24.6 6 -5.2 8.2 -6.5 10.9 -6.5 3.1 0 3.3 0.2 3.3 3.4 0 2.7 -1.2 4.7 -6.6 10.7 -8.2 9.1 -14.2 17 -17.7 23 -2.7 4.5 -2.7 4.6 -0.8 6.3 2.1 1.9 8.5 4.5 11.4 4.6 1 0 3.8 -0.5 6.3 -1.1z"/>
 </g>
 <g fill="#bc1142">
  <path d="M1620.9 251.6 c-7 -1.9 -11.4 -4.8 -11.7 -7.8 -1.1 -9.1 29.2 -23.3 45 -21.2 8.6 1.2 9.5 6.1 2.9 15.8 -8.2 11.9 -22.2 17 -36.2 13.2z"/>
  <path d="M1574.3 240.6 c-13.4 -4.4 -23.6 -15.6 -25 -27.7 -0.7 -6 0.8 -9.3 5 -11 11.2 -4.7 31.8 4.4 39.5 17.4 6.2 10.3 6 16.2 -0.4 19.9 -4.2 2.4 -13.8 3.1 -19.1 1.4z"/>
  <path d="M1615.9 218.9 c-17.4 -2.6 -27.1 -20.7 -19.4 -36.5 4.5 -9.2 13.2 -15.1 23.8 -16.1 16.8 -1.5 29.9 9.8 29.8 25.7 0 7.7 -2.6 13.4 -8.7 19 -7.1 6.5 -16 9.3 -25.5 7.9z"/>
  <path d="M1662.2 212.8 c-9.5 -10.2 -4.8 -37.1 9 -51 4 -4.1 5.3 -4.8 8.6 -4.8 4.7 0 8.9 4 12.4 11.5 3.5 7.8 3.3 19.9 -0.6 28.3 -6.4 13.8 -23 22.8 -29.4 16z"/>
  <path d="M1537.5 203.4 c-4.9 -2.5 -8.4 -6.5 -11.7 -13.1 -4.1 -8.4 -4.3 -17.8 -0.4 -25.7 4.9 -10.1 8.9 -10.9 13 -2.8 3.9 7.7 5.9 17.7 6 28.9 0.1 9 -0.1 10.5 -1.9 12.3 -1.9 1.8 -2.2 1.9 -5 0.4z"/>
  <path d="M1562.2 182.5 c-4.9 -2.8 -7.3 -5.3 -10.5 -11 -1.8 -3.3 -2.2 -5.5 -2.2 -13.5 0 -8.4 0.3 -10.2 2.8 -15.2 9.1 -18.4 30 -22.8 41.9 -8.8 15.8 18.3 1.9 51 -21.6 51 -4.6 0 -7.1 -0.6 -10.4 -2.5z"/>
  <path d="M1629.3 158.9 c-11.5 -4.4 -20.2 -16 -21 -27.8 -0.4 -5.8 -0.1 -7.3 2.4 -12.1 10.3 -20 41.4 -15.4 52.1 7.8 3.4 7.6 2.9 16.9 -1.3 23.8 -6 9.7 -19.6 13.2 -32.2 8.3z"/>
  <path d="M1682.9 150.1 c-5.6 -5.8 -13.4 -21 -15.1 -29.3 -1.3 -6.4 -0.1 -10.8 2.9 -10.8 3.3 0 11.9 4.7 15.6 8.5 6.3 6.4 8.2 11.7 8.2 22 0 9.7 -1.7 14.5 -5.2 14.5 -0.9 0 -3.8 -2.2 -6.4 -4.9z"/>
  <path d="M1529.9 143.3 c-2 -6.1 -1.5 -16 1.1 -22 3.9 -9.2 15.7 -18 24.6 -18.6 3.6 -0.2 3.9 0 3.7 2.3 -0.9 9 -22.4 42 -27.3 42 -0.5 0 -1.4 -1.7 -2.1 -3.7z"/>
  <path d="M1577.5 117.1 c-10.6 -2.7 -13.1 -8.6 -7.5 -17.4 5.5 -8.7 14.8 -13.9 25 -14.1 22 -0.3 29.6 13.8 13.1 24.4 -9 5.7 -23.1 9 -30.6 7.1z"/>
  <path d="M1648.5 101.9 c-11 -3.7 -28.5 -12.1 -31.1 -15 -1.8 -2 -1.8 -2.1 0.1 -3.5 3.8 -2.8 12.5 -4.7 19.5 -4.2 7.8 0.6 15.4 4.2 20.2 9.7 3.6 4.1 8.2 13.6 7.3 15.1 -1.1 1.8 -6.8 1 -16 -2.1z"/>
 </g>
 <g fill="#75a928">
  <path d="M1541.4 99.5 c0.5 -1.4 -0.3 -1.5 -5.4 -0.9 -5.3 0.6 -6 0.5 -5.4 -1 0.5 -1.4 -0.2 -1.6 -5.2 -1.6 -4.5 0 -5.5 -0.3 -4.6 -1.2 2 -2 1.4 -2.5 -3.8 -3.2 -2.7 -0.4 -5.2 -1.1 -5.5 -1.6 -0.3 -0.6 -0.1 -1 0.4 -1 2.6 0 0.7 -1.9 -3.5 -3.5 -4 -1.5 -4.3 -1.8 -2.8 -3 1.6 -1.1 1.4 -1.5 -2.6 -3.5 -4.2 -2.1 -4.3 -2.3 -2.4 -3.7 1 -0.9 1.5 -1.7 0.9 -1.9 -0.5 -0.2 -2.6 -1.4 -4.5 -2.5 -3.4 -2.1 -3.4 -2.2 -1.2 -3 1.9 -0.7 2.1 -1.2 1.2 -2.9 -0.6 -1.1 -2 -2.6 -3 -3.3 -2.9 -1.7 -2.5 -2.3 2.5 -3.7 4.7 -1.3 5.2 -1.9 3.4 -3.7 -0.8 -0.8 -0.1 -1.4 2.7 -2.2 2.2 -0.6 4.9 -1.1 6.2 -1.1 2.4 0 2.8 -1 1 -2.8 -0.9 -0.9 0 -1.2 4 -1.2 5.3 0 6.6 -1.1 3.5 -3 -1.4 -0.8 -0.6 -1 3.7 -0.8 4.7 0.1 5.5 -0.1 5.3 -1.6 -0.1 -1.5 0.4 -1.7 3 -1.1 5.4 1.2 6.2 1.1 6.1 -0.7 -0.2 -2.1 0.3 -2.2 3.6 -0.3 3.3 1.9 5 1.9 5 0 0 -1.9 0.3 -1.9 5 0.5 4.7 2.4 4.8 2.4 5.2 0.4 0.2 -1.3 1.2 -1 5.2 1.8 5.1 3.5 11.2 11.2 12.2 15.4 0.8 3.3 -0.3 8.4 -2.4 11.1 l-1.7 2.2 -9.2 -2.9 c-13.3 -4.1 -38 -7.7 -39.9 -5.7 -0.4 0.4 0.4 0.7 1.9 0.7 4.3 0 29.2 6.7 37.2 10.1 8 3.3 8.3 3.6 6.3 10.1 -1.6 5.4 -7.4 11 -15.1 14.7 -7.4 3.5 -8.1 3.7 -7.3 1.6z"/>
  <path d="M1608.6 72.5 c-2.2 -0.8 -5.3 -2.7 -6.9 -4.3 l-3 -3 3.9 -6.4 c4.6 -7.7 10.8 -15.9 17.8 -23.6 7.9 -8.8 8.8 -10.1 4.6 -7.2 -5.7 4 -21.2 20 -26.4 27.3 -2.6 3.7 -5.5 6.7 -6.4 6.7 -3.6 0 -8 -3.8 -9.7 -8.4 -3 -7.9 0.1 -25 4.4 -23.9 1.3 0.3 2.2 -0.7 3.6 -3.6 1.7 -3.8 3.5 -5.4 3.5 -3.1 0 2.1 1.9 0.8 4 -2.7 2 -3.4 2.3 -3.5 3.2 -1.9 1 1.7 1.3 1.6 4.4 -2 2.4 -2.8 3.3 -3.4 3.4 -2.1 0 2.3 0.9 2.1 5 -1.3 4 -3.5 5 -3.7 4.3 -1 -0.7 2.6 -0.2 2.5 4.4 -0.6 3.7 -2.5 3.8 -2.5 4.1 -0.5 0.3 1.9 0.4 1.9 4.9 -0.5 5.4 -2.8 7.5 -3.1 6.6 -0.7 -0.7 1.7 0.8 1.6 7.4 -0.3 2.2 -0.6 2.3 -0.5 1.6 4.1 -0.6 4.8 -0.6 4.8 2 4.1 2.5 -0.6 2.6 -0.5 1.6 2.4 -0.6 1.6 -1.5 3.3 -2 3.6 -0.5 0.3 -0.9 1.2 -0.9 2 0 1.1 0.6 1.3 2 0.9 2.4 -0.8 2.6 0.9 0.5 4.5 -1.9 3.3 -1.9 5.1 0 4.4 2.1 -0.8 1.9 0.1 -1 4.4 -2.4 3.6 -2.5 3.7 -0.5 4.2 1.8 0.5 1.6 0.9 -2 4.8 -4.5 4.9 -4.7 5.2 -2.2 5.2 1.2 0.1 0.4 1.3 -2.8 4 -2.5 2.2 -3.9 4 -3.2 4 2.7 0 0.9 2.2 -3.3 4.1 -3.1 1.4 -4.5 2.6 -4.3 3.7 0.6 3.6 -14.9 5.5 -22.6 2.7z"/>
 </g>
</svg>