<?xml version="1.0" encoding="utf-8"?>
<!DOCTYPE svg PUBLIC "-//W3C//DTD SVG 20010904//EN" "http://www.w3.org/TR/2001/REC-SVG-20010904/DTD/svg10.dtd">
<svg version="1.0" xmlns="http://www.w3.org/2000/svg" width="1811px" height="1056px" viewBox="0 0 1811 1056" preserveAspectRatio="xMidYMid meet">
 <g fill="#000000">
  <path d="M264.1 1054.2 l-3.4 -1.9 -1.9 -3.4 -1.8 -3.4 0 -17.2 0 -17.3 -17.3 0 -17.2 0 -3.4 -1.8 -3.4 -1.9 -1.9 -3.4 -1.8 -3.4 0 -115 0 -115 1.8 -3.4 1.9 -3.4 3.4 -1.9 3.4 -1.8 17.2 0 17.3 0 0 -17.3 0 -17.2 1.8 -3.4 1.9 -3.4 3.4 -1.9 3.4 -1.8 92.5 0 92.5 0 3.4 1.8 3.4 1.9 1.9 3.4 1.8 3.4 0 17.2 0 17.3 17.3 0 17.2 0 3.4 1.8 3.4 1.9 1.9 3.4 1.8 3.4 0 25 0 25 -1.8 3.4 -1.9 3.4 -3.4 1.9 -3.4 1.8 -47.5 0 -47.5 0 -3.4 -1.8 -3.4 -1.9 -1.9 -3.4 -1.8 -3.4 0 -17.2 0 -17.3 -32 0 -32 0 0 99.5 0 99.5 32 0 32 0 0 -17.3 0 -17.2 1.8 -3.4 1.9 -3.4 3.4 -1.9 3.4 -1.8 47.5 0 47.5 0 3.4 1.8 3.4 1.9 1.9 3.4 1.8 3.4 0 25 0 25 -1.8 3.4 -1.9 3.4 -3.4 1.9 -3.4 1.8 -17.2 0 -17.3 0 0 17.3 0 17.2 -1.8 3.4 -1.9 3.4 -3.4 1.9 -3.4 1.8 -92.5 0 -92.5 0 -3.4 -1.8z"/>
  <path d="M624.1 1054.2 l-3.4 -1.9 -1.9 -3.4 -1.8 -3.4 0 -129.7 0 -129.8 -17.3 0 -17.2 0 -3.4 -1.8 -3.4 -1.9 -1.9 -3.4 -1.8 -3.4 0 -25 0 -25 1.8 -3.4 1.9 -3.4 3.4 -1.9 3.4 -1.8 70 0 70 0 3.4 1.8 3.4 1.9 1.9 3.4 1.8 3.4 0 160 0 160 -1.8 3.4 -1.9 3.4 -3.4 1.9 -3.4 1.8 -47.5 0 -47.5 0 -3.4 -1.8z"/>
  <path d="M804.1 1054.2 l-3.4 -1.9 -1.9 -3.4 -1.8 -3.4 0 -115 0 -115 1.8 -3.4 1.9 -3.4 3.4 -1.9 3.4 -1.8 47.5 0 47.5 0 3.4 1.8 3.4 1.9 1.9 3.4 1.8 3.4 0 115 0 115 -1.8 3.4 -1.9 3.4 -3.4 1.9 -3.4 1.8 -47.5 0 -47.5 0 -3.4 -1.8z"/>
  <path d="M1029.1 1054.2 l-3.4 -1.9 -1.9 -3.4 -1.8 -3.4 0 -17.2 0 -17.3 -17.3 0 -17.2 0 -3.4 -1.8 -3.4 -1.9 -1.9 -3.4 -1.8 -3.4 0 -70 0 -70 1.8 -3.4 1.9 -3.4 3.4 -1.9 3.4 -1.8 17.2 0 17.3 0 0 -17.3 0 -17.2 1.8 -3.4 1.9 -3.4 3.4 -1.9 3.4 -1.8 92.5 0 92.5 0 3.4 1.8 3.4 1.9 1.9 3.4 1.8 3.4 0 17.2 0 17.3 17.3 0 17.2 0 3.4 1.8 3.4 1.9 1.9 3.4 1.8 3.4 0 25 0 25 -1.8 3.4 -1.9 3.4 -3.4 1.9 -3.4 1.8 -47.5 0 -47.5 0 -3.4 -1.8 -3.4 -1.9 -1.9 -3.4 -1.8 -3.4 0 -17.2 0 -17.3 -32 0 -32 0 0 54.5 0 54.5 84.8 0 84.7 0 3.4 1.8 3.4 1.9 1.9 3.4 1.8 3.4 0 25 0 25 -1.8 3.4 -1.9 3.4 -3.4 1.9 -3.4 1.8 -115 0 -115 0 -3.4 -1.8z"/>
  <path d="M1344.1 1054.2 l-3.4 -1.9 -1.9 -3.4 -1.8 -3.4 0 -160 0 -160 1.8 -3.4 1.9 -3.4 3.4 -1.9 3.4 -1.8 47.5 0 47.5 0 3.4 1.8 3.4 1.9 1.9 3.4 1.8 3.4 0 84.7 0 84.8 9.5 0 9.5 0 0 -17.3 0 -17.2 1.8 -3.4 1.9 -3.4 3.4 -1.9 3.4 -1.8 17.2 0 17.3 0 0 -17.3 0 -17.2 1.8 -3.4 1.9 -3.4 3.4 -1.9 3.4 -1.8 47.5 0 47.5 0 3.4 1.8 3.4 1.9 1.9 3.4 1.8 3.4 0 25 0 25 -1.8 3.4 -1.9 3.4 -3.4 1.9 -3.4 1.8 -17.2 0 -17.3 0 0 17.3 0 17.2 -1.8 3.4 -1.9 3.4 -3.4 1.9 -3.4 1.8 -17.2 0 -17.3 0 0 9.5 0 9.5 17.3 0 17.2 0 3.4 1.8 3.4 1.9 1.9 3.4 1.8 3.4 0 17.2 0 17.3 17.3 0 17.2 0 3.4 1.8 3.4 1.9 1.9 3.4 1.8 3.4 0 25 0 25 -1.8 3.4 -1.9 3.4 -3.4 1.9 -3.4 1.8 -47.5 0 -47.5 0 -3.4 -1.8 -3.4 -1.9 -1.9 -3.4 -1.8 -3.4 0 -17.2 0 -17.3 -17.3 0 -17.2 0 -3.4 -1.8 -3.4 -1.9 -1.9 -3.4 -1.8 -3.4 0 -17.2 0 -17.3 -9.5 0 -9.5 0 0 39.8 0 39.7 -1.8 3.4 -1.9 3.4 -3.4 1.9 -3.4 1.8 -47.5 0 -47.5 0 -3.4 -1.8z"/>
  <path d="M1628.2 792.3 l-3.3 -1.6 -2 -2.8 -2 -2.9 -0.6 -3.5 -0.6 -3.5 -9.3 0 -9.3 0 -2.4 -0.9 c-1.3 -0.5 -3.7 -2.1 -5.2 -3.5 l-2.7 -2.5 -0.5 -4 -0.6 -4.1 -1.9 0 c-1.1 0 -3.5 -0.7 -5.4 -1.6 l-3.5 -1.7 -1.1 -2.1 c-0.7 -1.1 -1.4 -3.7 -1.7 -5.6 l-0.6 -3.4 -3.1 -0.6 c-1.7 -0.4 -4.5 -1.3 -6.2 -2.1 l-3.2 -1.4 -1.5 -3.1 -1.5 -3.2 0 -107.1 0 -107.1 -2.9 0 -2.8 0 -0.7 3.9 -0.6 3.8 -2.6 2.7 -2.7 2.6 -3.8 0.6 -3.9 0.7 0 2.6 0 2.6 -1.8 3.4 -1.9 3.4 -3.4 1.9 -3.4 1.8 -2.7 0 -2.8 0 0 2.1 c0 1.2 -0.7 3.6 -1.6 5.4 l-1.6 3.3 -3.3 1.6 -3.3 1.6 -9.7 0 -9.6 0 -2.7 -1.4 c-1.5 -0.8 -3.6 -2.5 -4.7 -3.8 l-2 -2.3 -0.3 -10.2 -0.4 -10.1 1.7 -3.5 1.7 -3.5 3.3 -1.6 3.3 -1.6 2.6 0 2.6 0 0 -2.8 0 -2.7 1.8 -3.4 1.9 -3.4 3.4 -1.9 3.4 -1.8 2.2 0 2.3 0 0 -2.1 c0 -1.2 0.7 -3.6 1.6 -5.4 l1.6 -3.3 3.3 -1.6 3.3 -1.6 2.6 0 2.6 0 0 -3 0 -3 -32.3 0 -32.2 0 -3.4 -1.8 -3.4 -1.9 -1.9 -3.4 -1.8 -3.4 0 -9.2 0 -9.2 1 -2.6 1 -2.6 2.6 -2.4 2.7 -2.5 33.9 0 33.9 0 -0.3 -3.2 -0.3 -3.3 -2.5 -0.3 c-1.4 -0.2 -3.7 -0.8 -5.2 -1.3 l-2.7 -1.1 -1.6 -2.4 c-0.8 -1.3 -1.9 -4.1 -2.3 -6.1 l-0.8 -3.8 -4.1 -0.8 -4.1 -0.8 -2.6 -2.6 -2.6 -2.6 -0.6 -3.8 -0.7 -3.9 -2.1 0 -2.1 0 -3.4 -1.8 -3.4 -1.9 -1.9 -3.4 -1.8 -3.4 0 -9.5 0 -9.5 1.8 -3.4 1.9 -3.4 3.4 -1.9 3.4 -1.8 9.3 0 9.4 0 3.2 1.5 3.1 1.5 1.4 3.2 c0.8 1.7 1.7 4.5 2 6.2 l0.7 3 3 0.7 c1.7 0.3 4.5 1.2 6.2 2 l3.2 1.4 1.5 3.1 c0.8 1.8 1.5 4.1 1.5 5.3 l0 2.1 2.1 0 c1.2 0 3.5 0.7 5.3 1.5 l3.1 1.5 1.4 3.2 c0.8 1.7 1.7 4.5 2 6.2 l0.7 3.1 2.7 0.3 2.7 0.3 0 -32.6 0 -32.7 1.6 -3.3 1.6 -3.4 2.4 -1.6 2.5 -1.6 10.7 0 c5.9 0 11.5 0 12.4 0.1 l1.6 0 3.1 3 3 3.1 0.1 33.6 0 33.6 0.6 0.8 0.5 0.9 2.5 0 2.4 0 0.1 -0.7 c0.1 -0.5 0.3 -2.2 0.5 -3.9 l0.2 -3.2 1.7 -2.5 1.6 -2.5 3.4 -1.6 c1.8 -0.9 4.2 -1.6 5.4 -1.6 l2.1 0 0 -2.1 c0 -1.2 0.7 -3.6 1.6 -5.4 l1.6 -3.3 3.3 -1.6 3.3 -1.6 2.6 0 2.6 0 0 -2.8 0 -2.7 1.8 -3.4 1.9 -3.4 3.4 -1.9 3.4 -1.8 9.5 0 9.5 0 3.4 1.8 3.4 1.9 1.9 3.4 1.8 3.4 0 9.5 0 9.5 -1.8 3.4 -1.9 3.4 -3.4 1.9 -3.4 1.8 -2.6 0 -2.6 0 -0.7 3.8 -0.6 3.9 -2.4 2.6 -2.4 2.6 -2.9 0.6 c-1.5 0.4 -3.4 0.8 -4 1.1 l-1.3 0.3 0 2.6 0 2.5 47.3 0 47.2 0 2.8 1.8 c1.5 1 3.6 2.8 4.7 4 l2 2.1 0.8 3.8 0.8 3.8 11.1 0.3 11.2 0.3 3.1 3 3 3.1 0.6 3.9 0.7 3.9 1.9 0 c1.1 0 3.5 0.7 5.3 1.6 l3.3 1.6 1.6 3.3 1.6 3.3 0 2.6 0 2.6 2.8 0 2.7 0 3.4 1.8 3.4 1.9 1.9 3.4 1.8 3.4 0 121.9 0 121.9 -2 3.2 -2 3.3 -3.4 1.6 -3.4 1.6 -2.6 0 -2.6 0 0 2.6 0 2.6 -1.6 3.3 -1.6 3.3 -3.3 1.6 c-1.8 0.9 -4.2 1.6 -5.4 1.6 l-2.1 0 0 2.6 0 2.7 -2 3.2 -2 3.3 -3.4 1.6 -3.4 1.6 -9.5 0 -9.4 0 -0.6 3.5 -0.6 3.5 -2 2.9 -2.1 2.9 -3.4 1.6 -3.4 1.6 -53.4 0 -53.3 0 -3.3 -1.7z m96.8 -40.6 l0 -2.2 1.8 -3.4 1.9 -3.4 3.4 -1.9 3.4 -1.8 9.6 0 9.6 0 0.7 -3.9 0.6 -3.9 3.1 -3.1 3.1 -3.1 3.9 -0.6 3.9 -0.7 0 -47.3 0 -47.4 -9.9 0 -9.8 0 -0.7 4 -0.6 3.9 -3.7 2.8 -3.6 2.8 -55.1 0.3 -55.1 0.3 -2.3 -0.6 -2.3 -0.6 -3 -2.8 -3 -2.9 -0.6 -3.6 -0.6 -3.6 -10.3 0 -10.4 0 0.2 47.2 0.3 47.2 4.3 0.9 4.2 0.8 0 1 0 0.9 1.3 0 1.2 0 1.7 3.8 c0.9 2 1.8 4.6 2 5.7 l0.3 2 11 0.5 11 0.5 2.7 1.8 2.6 1.8 1.6 3.4 c0.9 1.8 1.6 4.2 1.6 5.4 l0 2.1 40 0 40 0 0 -2.3z m-60 -158.2 l0 -10.5 -2.5 0 -2.6 0 -2.9 -1.5 -3 -1.5 -1.5 -3 -1.5 -2.9 0 -40.1 0 -40.2 1.6 -3.3 1.6 -3.3 3.3 -1.6 c1.8 -0.9 4.2 -1.6 5.4 -1.6 l2.1 0 0 -3 0 -3 -9.9 0 -9.8 0 -0.6 3.5 -0.6 3.5 -2 2.9 -2.1 2.9 -3.4 1.6 -3.4 1.6 -9.5 0 -9.4 0 -0.7 3.9 -0.6 3.8 -2.6 2.6 -2.6 2.6 -4.1 0.8 -4.2 0.9 -0.3 40.2 -0.2 40.2 17.8 0 17.7 0 3.4 1.8 3.4 1.9 1.9 3.4 1.8 3.4 0 2.2 0 2.3 10 0 10 0 0 -10.5z m60 8.2 l0 -2.2 1.8 -3.4 1.9 -3.4 3.4 -1.9 3.4 -1.8 17.2 0 17.3 0 0 -40.5 0 -40.5 -2.7 0 -2.8 0 -3.1 -1.9 -3.1 -1.9 -1.6 -3.5 c-0.9 -1.9 -1.7 -4.2 -1.7 -5.1 l0 -1.6 -9.8 0 -9.7 0 -3.4 -1.8 -3.4 -1.9 -1.9 -3.4 -1.8 -3.4 0 -2.7 0 -2.8 -9.9 0 -10 0 -0.6 2 -0.6 2 0.6 1 c0.3 0.5 1.3 1 2.2 1 0.8 0 3 0.7 4.9 1.6 l3.4 1.6 2 3.3 2 3.2 0 39.8 0 39.7 -1.6 3.4 -1.7 3.5 -2.8 1.4 -2.8 1.5 -2.4 0 -2.5 0 -0.6 1.6 c-0.3 0.9 -0.6 5.3 -0.6 9.8 l0 8.3 0.7 0.6 0.6 0.7 9.9 0 9.8 0 0 -2.3z m-149 -120.2 c0 -1.4 0.6 -4 1.4 -5.9 l1.4 -3.3 3.5 -1.6 c1.9 -0.9 4.4 -1.7 5.6 -1.7 l2.1 0 0 -2.5 0 -2.5 -10 0 -10 0 0 10 0 10 3 0 3 0 0 -2.5z"/>
  <path d="M804.1 784.2 l-3.4 -1.9 -1.9 -3.4 -1.8 -3.4 0 -25 0 -25 1.8 -3.4 1.9 -3.4 3.4 -1.9 3.4 -1.8 47.5 0 47.5 0 3.4 1.8 3.4 1.9 1.9 3.4 1.8 3.4 0 25 0 25 -1.8 3.4 -1.9 3.4 -3.4 1.9 -3.4 1.8 -47.5 0 -47.5 0 -3.4 -1.8z"/>
  <path d="M89.1 709.2 l-3.4 -1.9 -1.9 -3.4 -1.8 -3.4 0 -19.2 0 -19.3 -2.8 0 -2.7 0 -3.4 -1.8 -3.4 -1.9 -1.9 -3.4 -1.8 -3.4 0 -10.7 0 -10.8 -2.8 0 -2.7 0 -3.4 -1.8 -3.4 -1.9 -1.9 -3.4 -1.8 -3.4 0 -11.2 0 -11.3 -3.3 0 -3.2 0 -3.4 -1.8 -3.4 -1.9 -1.9 -3.4 -1.8 -3.4 0 -10.7 0 -10.8 -2.8 0 -2.7 0 -3.4 -1.8 -3.4 -1.9 -1.9 -3.4 -1.8 -3.4 0 -2.6 0 -2.6 -3.5 -0.6 -3.5 -0.6 -2.9 -2 -2.9 -2.1 -1.6 -3.4 -1.6 -3.4 0 -26.4 0 -26.3 1.8 -3.4 1.9 -3.4 3.4 -1.9 3.4 -1.8 27.2 0 27.3 0 0 -51.8 0 -51.7 1.8 -3.4 1.9 -3.4 3.4 -1.9 3.4 -1.8 2.7 0 2.8 0 0 -2.8 0 -2.7 1.8 -3.4 1.9 -3.4 3.4 -1.9 3.4 -1.8 19 0 19 0 3.4 1.8 3.4 1.9 1.9 3.4 1.8 3.4 0 2.7 0 2.8 2.8 0 2.7 0 3.4 1.8 3.4 1.9 1.9 3.4 1.8 3.4 0 27.2 0 27.3 10.8 0 10.7 0 3.4 1.8 3.4 1.9 1.9 3.4 1.8 3.4 0 2.7 0 2.8 19.3 0 19.2 0 3.4 1.8 3.4 1.9 1.9 3.4 1.8 3.4 0 2.7 0 2.8 10.6 0 10.6 0 3.4 1.6 3.4 1.6 2.1 3 2.1 2.9 0.5 3.9 0.6 4 2.6 0 2.6 0 3.4 1.8 3.4 1.9 1.9 3.4 1.8 3.4 0 2.7 0 2.8 2.8 0 2.7 0 3.4 1.8 3.4 1.9 1.9 3.4 1.8 3.4 0 51.5 0 51.5 -1.8 3.4 -1.9 3.4 -3.4 1.9 -3.4 1.8 -2.7 0 -2.8 0 0 18.8 0 18.7 -1.8 3.4 -1.9 3.4 -3.4 1.9 -3.4 1.8 -2.7 0 -2.8 0 0 19.3 0 19.2 -1.8 3.4 -1.9 3.4 -3.4 1.9 -3.4 1.8 -84 0 -84 0 -3.4 -1.8z m138.9 -50.8 l0 -10.6 1.6 -3.4 1.6 -3.4 3 -2.1 2.9 -2.1 3.9 -0.5 4 -0.6 0 -18.4 0 -18.5 1.6 -3.4 1.6 -3.4 2.9 -2.1 2.9 -2 3.5 -0.6 3.5 -0.6 0 -35.2 0 -35.3 -3.5 -0.4 -3.5 -0.4 0 11.6 0 11.5 -1.8 3.4 -1.9 3.4 -3.4 1.9 -3.4 1.9 -11 -0.3 -11 -0.3 -3.1 -2.2 -3.2 -2.3 -1.6 -3.4 -1.6 -3.4 0 -26.6 0 -26.6 -3 0 -3 0 0 18.8 0 18.7 -1.8 3.4 -1.9 3.4 -3.4 1.9 -3.4 1.8 -11 0 -11 0 -3.4 -1.8 -3.4 -1.9 -1.9 -3.4 -1.8 -3.4 0 -27.2 0 -27.3 -3 0 -3 0 0 27.3 0 27.2 -1.8 3.4 -1.9 3.4 -3.4 1.9 -3.4 1.8 -10.5 0 -10.5 0 -3.4 -1.8 -3.4 -1.9 -1.9 -3.4 -1.8 -3.4 0 -67.7 0 -67.8 -3.5 0 -3.5 0 0 92.3 0 92.2 -1.8 3.4 -1.9 3.4 -3.4 1.9 -3.4 1.8 -2.7 0 -2.8 0 0 11.5 0 11.5 2.8 0 2.7 0 3.4 1.8 3.4 1.9 1.9 3.4 1.8 3.4 0 10.7 0 10.8 2.8 0 2.7 0 3.4 1.8 3.4 1.9 1.9 3.4 1.8 3.4 0 11.2 0 11.3 52 0 52 0 0 -10.6z m-162 -122.9 l0 -3.5 -2.4 0 c-1.3 0 -3 -0.2 -3.8 -0.5 l-1.4 -0.5 0.4 4 0.4 4 3.4 0 3.4 0 0 -3.5z m-15.8 -16 l-0.4 -3.5 -3.4 0 -3.4 0 0 2.9 0 3 3.3 0.4 c1.7 0.2 3.4 0.5 3.7 0.5 l0.6 0.2 -0.4 -3.5z"/>
  <path d="M804.1 689.2 l-3.4 -1.9 -1.9 -3.4 -1.8 -3.4 0 -17.2 0 -17.3 -17.3 0 -17.2 0 -3.4 -1.8 -3.4 -1.9 -1.9 -3.4 -1.8 -3.4 0 -47.5 0 -47.5 1.8 -3.4 1.9 -3.4 3.4 -1.9 3.4 -1.8 39.7 0 39.8 0 0 -9.5 0 -9.5 -17.3 0 -17.2 0 -3.4 -1.8 -3.4 -1.9 -1.9 -3.4 -1.8 -3.4 0 -17.2 0 -17.3 -17.3 0 -17.2 0 -3.4 -1.8 -3.4 -1.9 -1.9 -3.4 -1.8 -3.4 0 -25 0 -25 1.8 -3.4 1.9 -3.4 3.4 -1.9 3.4 -1.8 17.2 0 17.3 0 0 -17.3 0 -17.2 1.8 -3.4 1.9 -3.4 3.4 -1.9 3.4 -1.8 92.5 0 92.5 0 3.4 1.8 3.4 1.9 1.9 3.4 1.8 3.4 0 17.2 0 17.3 17.3 0 17.2 0 3.4 1.8 3.4 1.9 1.9 3.4 1.8 3.4 0 25 0 25 -1.8 3.4 -1.9 3.4 -3.4 1.9 -3.4 1.8 -17.2 0 -17.3 0 0 17.3 0 17.2 -1.8 3.4 -1.9 3.4 -3.4 1.9 -3.4 1.8 -17.2 0 -17.3 0 0 9.5 0 9.5 17.3 0 17.2 0 3.4 1.8 3.4 1.9 1.9 3.4 1.8 3.4 0 17.2 0 17.3 9.5 0 9.5 0 0 -17.3 0 -17.2 1.8 -3.4 1.9 -3.4 3.4 -1.9 3.4 -1.8 25 0 25 0 3.4 1.8 3.4 1.9 1.9 3.4 1.8 3.4 0 25 0 25 -1.8 3.4 -1.9 3.4 -3.4 1.9 -3.4 1.8 -17.2 0 -17.3 0 0 9.5 0 9.5 17.3 0 17.2 0 3.4 1.8 3.4 1.9 1.9 3.4 1.8 3.4 0 25 0 25 -1.8 3.4 -1.9 3.4 -3.4 1.9 -3.4 1.8 -47.5 0 -47.5 0 -3.4 -1.8 -3.4 -1.9 -1.9 -3.4 -1.8 -3.4 0 -17.2 0 -17.3 -9.5 0 -9.5 0 0 17.3 0 17.2 -1.8 3.4 -1.9 3.4 -3.4 1.9 -3.4 1.8 -70 0 -70 0 -3.4 -1.8z m127.9 -78.7 l0 -9.5 -17.3 0 -17.2 0 -3.4 -1.8 -3.4 -1.9 -1.9 -3.4 -1.8 -3.4 0 -17.2 0 -17.3 -9.5 0 -9.5 0 0 32 0 32 32 0 32 0 0 -9.5z m-45 -142.8 l0 -17.2 1.8 -3.4 1.9 -3.4 3.4 -1.9 3.4 -1.8 17.2 0 17.3 0 0 -9.5 0 -9.5 -32 0 -32 0 0 32 0 32 9.5 0 9.5 0 0 -17.3z"/>
  <path d="M174.1 339.2 l-3.4 -1.9 -1.9 -3.4 -1.8 -3.4 0 -160 0 -160 1.8 -3.4 1.9 -3.4 3.4 -1.9 3.4 -1.8 115 0 115 0 3.4 1.8 3.4 1.9 1.9 3.4 1.8 3.4 0 17.2 0 17.3 17.3 0 17.2 0 3.4 1.8 3.4 1.9 1.9 3.4 1.8 3.4 0 47.5 0 47.5 -1.8 3.4 -1.9 3.4 -3.4 1.9 -3.4 1.8 -17.2 0 -17.3 0 0 17.3 0 17.2 -1.8 3.4 -1.9 3.4 -3.4 1.9 -3.4 1.8 -62.2 0 -62.3 0 0 62.3 0 62.2 -1.8 3.4 -1.9 3.4 -3.4 1.9 -3.4 1.8 -47.5 0 -47.5 0 -3.4 -1.8z m172.9 -236.2 l0 -32 -32 0 -32 0 0 32 0 32 32 0 32 0 0 -32z"/>
  <path d="M579.1 339.2 l-3.4 -1.9 -1.9 -3.4 -1.8 -3.4 0 -17.2 0 -17.3 -17.3 0 -17.2 0 -3.4 -1.8 -3.4 -1.9 -1.9 -3.4 -1.8 -3.4 0 -70 0 -70 1.8 -3.4 1.9 -3.4 3.4 -1.9 3.4 -1.8 17.2 0 17.3 0 0 -17.3 0 -17.2 1.8 -3.4 1.9 -3.4 3.4 -1.9 3.4 -1.8 92.5 0 92.5 0 3.4 1.8 3.4 1.9 1.9 3.4 1.8 3.4 0 17.2 0 17.3 17.3 0 17.2 0 3.4 1.8 3.4 1.9 1.9 3.4 1.8 3.4 0 70 0 70 -1.8 3.4 -1.9 3.4 -3.4 1.9 -3.4 1.8 -17.2 0 -17.3 0 0 17.3 0 17.2 -1.8 3.4 -1.9 3.4 -3.4 1.9 -3.4 1.8 -92.5 0 -92.5 0 -3.4 -1.8z m127.9 -123.7 l0 -54.5 -32 0 -32 0 0 54.5 0 54.5 32 0 32 0 0 -54.5z"/>
  <path d="M894.1 339.2 l-3.4 -1.9 -1.9 -3.4 -1.8 -3.4 0 -115 0 -115 1.8 -3.4 1.9 -3.4 3.4 -1.9 3.4 -1.8 47.5 0 47.5 0 3.4 1.8 3.4 1.9 1.9 3.4 1.8 3.4 0 115 0 115 -1.8 3.4 -1.9 3.4 -3.4 1.9 -3.4 1.8 -47.5 0 -47.5 0 -3.4 -1.8z"/>
  <path d="M1074.1 339.2 l-3.4 -1.9 -1.9 -3.4 -1.8 -3.4 0 -115 0 -115 1.8 -3.4 1.9 -3.4 3.4 -1.9 3.4 -1.8 47.5 0 47.5 0 3.4 1.8 3.4 1.9 1.9 3.4 1.8 3.4 0 17.2 0 17.3 9.5 0 9.5 0 0 -17.3 0 -17.2 1.8 -3.4 1.9 -3.4 3.4 -1.9 3.4 -1.8 47.5 0 47.5 0 3.4 1.8 3.4 1.9 1.9 3.4 1.8 3.4 0 17.2 0 17.3 17.3 0 17.2 0 3.4 1.8 3.4 1.9 1.9 3.4 1.8 3.4 0 92.5 0 92.5 -1.8 3.4 -1.9 3.4 -3.4 1.9 -3.4 1.8 -47.5 0 -47.5 0 -3.4 -1.8 -3.4 -1.9 -1.9 -3.4 -1.8 -3.4 0 -84.7 0 -84.8 -9.5 0 -9.5 0 0 17.3 0 17.2 -1.8 3.4 -1.9 3.4 -3.4 1.9 -3.4 1.8 -17.2 0 -17.3 0 0 62.3 0 62.2 -1.8 3.4 -1.9 3.4 -3.4 1.9 -3.4 1.8 -47.5 0 -47.5 0 -3.4 -1.8z"/>
  <path d="M1524.1 339.2 l-3.4 -1.9 -1.9 -3.4 -1.8 -3.4 0 -17.2 0 -17.3 -17.3 0 -17.2 0 -3.4 -1.8 -3.4 -1.9 -1.9 -3.4 -1.8 -3.4 0 -62.2 0 -62.3 -17.3 0 -17.2 0 -3.4 -1.8 -3.4 -1.9 -1.9 -3.4 -1.8 -3.4 0 -25 0 -25 1.8 -3.4 1.9 -3.4 3.4 -1.9 3.4 -1.8 17.2 0 17.3 0 0 -39.8 0 -39.7 1.8 -3.4 1.9 -3.4 3.4 -1.9 3.4 -1.8 47.5 0 47.5 0 3.4 1.8 3.4 1.9 1.9 3.4 1.8 3.4 0 39.7 0 39.8 39.8 0 39.7 0 3.4 1.8 3.4 1.9 1.9 3.4 1.8 3.4 0 25 0 25 -1.8 3.4 -1.9 3.4 -3.4 1.9 -3.4 1.8 -39.7 0 -39.8 0 0 54.5 0 54.5 39.8 0 39.7 0 3.4 1.8 3.4 1.9 1.9 3.4 1.8 3.4 0 25 0 25 -1.8 3.4 -1.9 3.4 -3.4 1.9 -3.4 1.8 -70 0 -70 0 -3.4 -1.8z"/>
  <path d="M894.1 69.2 l-3.4 -1.9 -1.9 -3.4 -1.8 -3.4 0 -25 0 -25 1.8 -3.4 1.9 -3.4 3.4 -1.9 3.4 -1.8 47.5 0 47.5 0 3.4 1.8 3.4 1.9 1.9 3.4 1.8 3.4 0 25 0 25 -1.8 3.4 -1.9 3.4 -3.4 1.9 -3.4 1.8 -47.5 0 -47.5 0 -3.4 -1.8z"/>
 </g>
 <g fill="#ffc866">
  <path d="M270 1020.5 l0 -22.5 -22.5 0 -22.5 0 0 -112.5 0 -112.5 22.5 0 22.5 0 0 -22.5 0 -22.5 90 0 90 0 0 22.5 0 22.5 22.5 0 22.5 0 0 22.5 0 22.5 -45 0 -45 0 0 -22.5 0 -22.5 -45 0 -45 0 0 112.5 0 112.5 45 0 45 0 0 -22.5 0 -22.5 45 0 45 0 0 22.5 0 22.5 -22.5 0 -22.5 0 0 22.5 0 22.5 -90 0 -90 0 0 -22.5z"/>
  <path d="M630 908 l0 -135 -22.5 0 -22.5 0 0 -22.5 0 -22.5 67.5 0 67.5 0 0 157.5 0 157.5 -45 0 -45 0 0 -135z"/>
  <path d="M810 930.5 l0 -112.5 45 0 45 0 0 112.5 0 112.5 -45 0 -45 0 0 -112.5z"/>
  <path d="M1035 1020.5 l0 -22.5 -22.5 0 -22.5 0 0 -67.5 0 -67.5 22.5 0 22.5 0 0 -22.5 0 -22.5 90 0 90 0 0 22.5 0 22.5 22.5 0 22.5 0 0 22.5 0 22.5 -45 0 -45 0 0 -22.5 0 -22.5 -45 0 -45 0 0 67.5 0 67.5 90 0 90 0 0 22.5 0 22.5 -112.5 0 -112.5 0 0 -22.5z"/>
  <path d="M1350 885.5 l0 -157.5 45 0 45 0 0 90 0 90 22.5 0 22.5 0 0 -22.5 0 -22.5 22.5 0 22.5 0 0 -22.5 0 -22.5 45 0 45 0 0 22.5 0 22.5 -22.5 0 -22.5 0 0 22.5 0 22.5 -22.5 0 -22.5 0 0 22 0 22 22.5 0 22.5 0 0 23 0 23 22.5 0 22.5 0 0 22.5 0 22.5 -45 0 -45 0 0 -22.5 0 -22.5 -22.5 0 -22.5 0 0 -22.5 0 -22.5 -22.5 0 -22.5 0 0 45 0 45 -45 0 -45 0 0 -157.5z"/>
  <path d="M1632.7 781.3 l-0.7 -0.6 0 -6.8 0 -6.8 -14.7 -0.3 -14.8 -0.3 -0.3 -7.2 -0.3 -7.3 -7.4 0 -7.5 0 0 -7.5 0 -7.5 -7.5 0 -7.5 0 0 -120.5 0 -120.5 7.5 0 7.5 0 0 -7.5 0 -7.5 7.5 0 7.5 0 0 -7.5 0 -7.5 15 0 15 0 0 -7.5 0 -7.5 53 0 53 0 0 7.5 0 7.5 15 0 15 0 0 7.5 0 7.5 7.5 0 7.5 0 0 7.5 0 7.5 7.5 0 7.5 0 -0.2 120.3 -0.3 120.2 -7.2 0.3 -7.2 0.3 -0.3 7.2 -0.3 7.2 -7.2 0.3 -7.2 0.3 -0.3 7.2 -0.3 7.2 -14.7 0.3 -14.7 0.3 -0.3 7.2 -0.3 7.2 -52.1 0.3 -52 0.2 -0.7 -0.7z m104.3 -22.8 l0 -7.4 14.8 -0.3 14.7 -0.3 0.3 -7.2 0.3 -7.3 7.4 0 7.5 0 0 -59.5 0 -59.5 -22 0 -21.9 0 -0.3 7.3 -0.3 7.2 -52.7 0.3 -52.8 0.2 0 -7.5 0 -7.5 -22 0 -22 0 0 59.5 0 59.5 7.5 0 7.5 0 0 7.5 0 7.5 15 0 15 0 0 7.5 0 7.5 52 0 52 0 0 -7.5z m-60 -164.5 l0 -22 -7.5 0 -7.5 0 0 -38 0 -38 7.5 0 7.5 0 0 -14.5 0 -14.5 -22 0 -22 0 0 7.5 0 7.5 -15 0 -15 0 0 7.5 0 7.5 -7.5 0 -7.5 0 0 52 0 52 22.5 0 22.5 0 0 7.5 0 7.5 22 0 22 0 0 -22z m60 14.5 l0 -7.5 22.5 0 22.5 0 0 -52 0 -52 -7.5 0 -7.5 0 0 -7.5 0 -7.5 -15 0 -15 0 0 -7.5 0 -7.5 -22 0 -22 0 0 14.5 0 14.5 7.5 0 7.5 0 0 38 0 38 -7.5 0 -7.5 0 0 22 0 22 22 0 22 0 0 -7.5z m-45 -74.5 l0 -37 -7 0 -7 0 0 37 0 37 7 0 7 0 0 -37z"/>
  <path d="M810 750.5 l0 -22.5 45 0 45 0 0 22.5 0 22.5 -45 0 -45 0 0 -22.5z"/>
  <path d="M95 674 l0 -24 -8 0 -8 0 0 -16.5 0 -16.5 -8.5 0 -8.5 0 0 -16 0 -15.9 -7.7 -0.3 -7.8 -0.3 -0.3 -16.2 -0.2 -16.3 -8 0 -8 0 0 -8 0 -8 -8 0 -8 0 0 -25 0 -25 24.3 0.2 24.2 0.3 0.3 8.3 0.3 8.2 7.9 0 8 0 0 -65 0 -65 8 0 7.9 0 0.3 -8.2 0.3 -8.3 0.8 0.3 c0.4 0.1 7.7 0.2 16.2 0.2 l15.5 0 0 8 0 8 8 0 8 0 0 32.5 0 32.5 16.5 0 16.5 0 0 8 0 8 24 0 24 0 0 8 0 8 16.5 0 16.5 0 0 8 0 8 8 0 8 0 0 8.5 0 8.5 8 0 8 0 0 49 0 49 -8 0 -8 0 0 24.5 0 24.5 -8 0 -8 0 0 24 0 24 -81.5 0 -81.5 0 0 -24z m146 -9 l0 -16 8 0 8 0 0.2 -24.2 0.3 -24.3 8.3 -0.3 8.2 -0.3 -0.2 -48.2 -0.3 -48.2 -8.2 -0.3 -8.3 -0.3 0 -7.9 0 -8 -7.5 0 -7.5 0 0 24.5 0 24.5 -8.5 0 -8.5 0 0 -32.5 0 -32.5 -16 0 -16 0 -0.2 24.3 -0.3 24.2 -8 0 -8 0 -0.3 -32.2 -0.2 -32.3 -16 0 -16 0 0 32.5 0 32.6 -8.2 -0.3 -8.3 -0.3 -0.3 -73.3 -0.2 -73.3 -15.8 0.3 -15.7 0.3 -0.3 97.3 -0.2 97.2 -8 0 -8 0 0 -24 0 -23.9 -8.2 -0.3 -8.3 -0.3 -0.3 -8.3 -0.3 -8.3 -15.7 0.3 -15.7 0.3 -0.3 15.8 -0.3 15.7 8.6 0 8.5 0 0 8 0 7.9 7.8 0.3 7.7 0.3 0.3 16.3 0.2 16.2 8 0 8 0 0 16 0 15.9 8.3 0.3 8.2 0.3 0.3 16.3 0.2 16.2 8 0 8 0 0 16 0 16 64.5 0 64.5 0 0 -16z"/>
  <path d="M810 655.5 l0 -22.5 -22.5 0 -22.5 0 0 -45 0 -45 45 0 45 0 0 -22 0 -22 -22.5 0 -22.5 0 0 -23 0 -23 -22.5 0 -22.5 0 0 -22.5 0 -22.5 22.5 0 22.5 0 0 -22.5 0 -22.5 90 0 90 0 0 22.5 0 22.5 22.5 0 22.5 0 0 22.5 0 22.5 -22.5 0 -22.5 0 0 23 0 23 -22.5 0 -22.5 0 0 22 0 22 22.5 0 22.5 0 0 22.5 0 22.5 22.5 0 22.5 0 0 -22.5 0 -22.5 22.5 0 22.5 0 0 22.5 0 22.5 -22.5 0 -22.5 0 0 22.5 0 22.5 22.5 0 22.5 0 0 22.5 0 22.5 -45 0 -45 0 0 -22.5 0 -22.5 -22.5 0 -22.5 0 0 22.5 0 22.5 -67.5 0 -67.5 0 0 -22.5z m135 -45 l0 -22.5 -22.5 0 -22.5 0 0 -22.5 0 -22.5 -22.5 0 -22.5 0 0 45 0 45 45 0 45 0 0 -22.5z m-45 -135 l0 -22.5 22.5 0 22.5 0 0 -22.5 0 -22.5 -45 0 -45 0 0 45 0 45 22.5 0 22.5 0 0 -22.5z"/>
  <path d="M1497 549 l0 -8 7.5 0 7.5 0 0 -7.5 0 -7.5 7.5 0 7.5 0 0 -7.5 0 -7.5 7.5 0 7.5 0 0 -7.5 0 -7.5 8 0 8 0 0 8 0 8 -7.5 0 -7.5 0 0 7.5 0 7.5 -7.5 0 -7.5 0 0 7.5 0 7.5 -7.5 0 -7.4 0 -0.3 7.3 -0.3 7.2 -7.7 0.3 -7.8 0.3 0 -8.1z"/>
  <path d="M1467 474 l0 -8 45.5 0 45.5 0 0 8 0 8 -45.5 0 -45.5 0 0 -8z"/>
  <path d="M1542 444.5 l0 -7.5 -7.5 0 -7.5 0 0 -7.5 0 -7.5 -7.5 0 -7.5 0 0 -7.5 0 -7.5 -7.5 0 -7.5 0 0 -8 0 -8 8 0 8 0 0 7.5 0 7.5 7.5 0 7.5 0 0 7.5 0 7.5 7.5 0 7.5 0 0 7.5 0 7.5 7.5 0 7.5 0 0 8 0 8 -8 0 -8 0 0 -7.5z"/>
  <path d="M1572 406.5 l0 -45.5 8 0 8 0 0 45.5 0 45.5 -8 0 -8 0 0 -45.5z"/>
  <path d="M1602 444 l0 -8 7.5 0 7.5 0 0 -7.5 0 -7.5 7.5 0 7.5 0 0 -7.5 0 -7.5 7.5 0 7.5 0 0 -7.5 0 -7.5 8 0 8 0 0 8 0 8 -7.5 0 -7.5 0 0 7.5 0 7.5 -7.5 0 -7.5 0 0 7.5 0 7.5 -7.5 0 -7.5 0 0 7.5 0 7.5 -8 0 -8 0 0 -8z"/>
  <path d="M180 170.5 l0 -157.5 112.5 0 112.5 0 0 22.5 0 22.5 22.5 0 22.5 0 0 45 0 45 -22.5 0 -22.5 0 0 22.5 0 22.5 -67.5 0 -67.5 0 0 67.5 0 67.5 -45 0 -45 0 0 -157.5z m180 -67.5 l0 -45 -45 0 -45 0 0 45 0 45 45 0 45 0 0 -45z"/>
  <path d="M585 305.5 l0 -22.5 -22.5 0 -22.5 0 0 -67.5 0 -67.5 22.5 0 22.5 0 0 -22.5 0 -22.5 90 0 90 0 0 22.5 0 22.5 22.5 0 22.5 0 0 67.5 0 67.5 -22.5 0 -22.5 0 0 22.5 0 22.5 -90 0 -90 0 0 -22.5z m135 -90 l0 -67.5 -45 0 -45 0 0 67.5 0 67.5 45 0 45 0 0 -67.5z"/>
  <path d="M900 215.5 l0 -112.5 45 0 45 0 0 112.5 0 112.5 -45 0 -45 0 0 -112.5z"/>
  <path d="M1080 215.5 l0 -112.5 45 0 45 0 0 22.5 0 22.5 22.5 0 22.5 0 0 -22.5 0 -22.5 45 0 45 0 0 22.5 0 22.5 22.5 0 22.5 0 0 90 0 90 -45 0 -45 0 0 -90 0 -90 -22 0 -22 0 0 22.5 0 22.5 -23 0 -23 0 0 67.5 0 67.5 -45 0 -45 0 0 -112.5z"/>
  <path d="M1530 305.5 l0 -22.5 -22.5 0 -22.5 0 0 -67.5 0 -67.5 -22.5 0 -22.5 0 0 -22.5 0 -22.5 22.5 0 22.5 0 0 -45 0 -45 45 0 45 0 0 45 0 45 45 0 45 0 0 22.5 0 22.5 -45 0 -45 0 0 67.5 0 67.5 45 0 45 0 0 22.5 0 22.5 -67.5 0 -67.5 0 0 -22.5z"/>
  <path d="M900 35.5 l0 -22.5 45 0 45 0 0 22.5 0 22.5 -45 0 -45 0 0 -22.5z"/>
 </g>
</svg>