<?xml version="1.0" encoding="utf-8"?>
<!DOCTYPE svg PUBLIC "-//W3C//DTD SVG 20010904//EN" "http://www.w3.org/TR/2001/REC-SVG-20010904/DTD/svg10.dtd">
<svg version="1.0" xmlns="http://www.w3.org/2000/svg" width="1200px" height="391px" viewBox="0 0 1200 391" preserveAspectRatio="xMidYMid meet">
 <g fill="#ed1c24">
  <path d="M375.7 387.6 c-2.7 -0.8 -5.8 -2.3 -7 -3.4 l-2 -2.1 37.8 -102.1 c20.8 -56.1 37.6 -102.2 37.4 -102.5 -0.2 -0.2 -4 1.4 -8.4 3.6 -9.9 4.8 -17.8 6.9 -27.2 7.1 l-7.3 0.1 -1.9 5.1 c-16.7 44.6 -25.3 66.3 -29.4 73.9 -8.9 16.9 -33.2 30 -64.2 34.8 -12.1 1.9 -36.5 1.6 -44.9 -0.4 -16.1 -4 -28.6 -13.3 -32.1 -23.7 -3.3 -9.8 -2.1 -15.5 8.7 -42.5 19.8 -49.5 28.1 -66.8 35.9 -74.6 25.5 -25.6 90.5 -34 119.2 -15.5 2.9 1.8 7.5 5.8 10.3 8.9 7.3 7.8 10.1 9 19.1 8.5 9.3 -0.6 19.2 -5.3 30.7 -14.6 4.4 -3.6 9.7 -7.2 11.6 -7.9 4.7 -1.7 16.3 -1.6 20.4 0.1 4.9 2.1 5.6 3.8 3.8 10.8 -0.8 3.2 -1.2 6.1 -0.9 6.4 0.2 0.3 3.3 -1.7 6.8 -4.3 21.9 -16.5 61.2 -23.2 81.6 -13.8 8.6 3.9 12.9 7.9 16.5 15.3 3.1 6.3 3.3 7.2 3.2 17.2 -0.1 8.9 -0.6 12.3 -3.7 22.5 -7.9 27 -19.2 53.4 -29.4 69 -7.3 11.1 -22.2 25.2 -31.9 30.2 -13.4 7 -21.4 8.8 -38.9 8.7 -15 0 -15.5 -0.1 -32 -4.9 -1.8 -0.5 -3.3 3 -16.9 40.2 -8.2 22.4 -15.4 41.6 -16 42.5 -1.6 2.7 -9.6 6.5 -16 7.7 -8 1.5 -27 1.3 -32.9 -0.3z m-70.4 -108.9 c2.5 -1.5 5.5 -4 6.6 -5.6 2.6 -3.6 38.8 -98.4 39.7 -103.8 0.8 -5.1 -1.4 -9.6 -5.6 -11.3 -4.3 -1.8 -15.5 -0.8 -20.5 1.8 -8.1 4.1 -8.6 5.1 -28.1 56.4 -10.2 26.5 -19 50.2 -19.5 52.5 -0.9 3.3 -0.8 4.8 0.6 7.6 2.2 4.8 4.7 5.7 14.1 5.4 6.6 -0.3 8.9 -0.8 12.7 -3z m184.5 0.8 c4.5 -1.9 10.5 -7.6 13.6 -13 1.3 -2.2 9.4 -23.3 18.1 -46.9 17.2 -47.3 18.2 -51.1 13.5 -56.1 -2 -2.1 -3.2 -2.5 -8 -2.5 -9.7 0 -17.3 3.9 -23.2 11.9 -3.3 4.6 -41.1 103.1 -40 104.3 1.4 1.4 11.8 3.7 17 3.7 2.9 0.1 6.9 -0.6 9 -1.4z"/>
  <path d="M929.1 388 c-4.7 -1.1 -8 -3 -8.6 -5 -0.3 -0.9 7.1 -22.3 16.5 -47.5 9.3 -25.2 17 -46.2 17 -46.7 0 -0.4 -3.2 0.9 -7.1 2.8 -8.2 4.1 -22.6 8 -33.2 9 -9.1 0.8 -17.1 -1.3 -22.2 -5.8 -4.4 -3.8 -6.1 -7 -7 -12.9 l-0.7 -4.7 -7.1 5.4 c-19.8 14.9 -49.4 23.1 -70.3 19.5 -14.1 -2.5 -25.9 -11 -29.9 -21.5 l-1.7 -4.4 -5.2 3.2 c-22.4 14.4 -56.3 23.7 -85.6 23.6 -45.1 -0.2 -74.9 -26.8 -75 -67.1 0 -9.1 2 -21.9 4.7 -30.4 5.5 -17.3 41.2 -114.7 44.9 -122.5 7.1 -14.9 16.5 -28.2 28.3 -40 26.2 -26 57 -39 96.7 -40.7 30.4 -1.2 57.6 5.3 71.2 17.2 10.8 9.4 12.3 18.9 5.9 37.7 -3.7 11 -9.7 23.9 -12.6 27.2 -2.4 2.7 -6.9 4.7 -24.4 11 -8.9 3.3 -17.5 5.8 -19.8 5.8 -4.6 0 -8.7 -2.4 -10.7 -6.5 -1.1 -2.4 -0.7 -4 5.7 -18.9 7.1 -16.8 12.1 -31.3 12.1 -35 0 -3.2 -6.9 -9.3 -13.1 -11.6 -8 -2.9 -16.3 -3.6 -26.4 -2.2 -15.6 2.2 -26.7 9.7 -32.1 21.4 -2.7 6 -60.4 165.4 -63 174.1 -1.2 3.9 -1.8 9.4 -1.8 15.5 -0.1 8.8 0.2 10.1 3.2 16.2 9.7 19.8 32.1 24 64.9 12.3 11.6 -4.2 22.5 -10.3 29.7 -16.7 5.3 -4.7 5.6 -5.2 10.2 -19.1 9.8 -29.5 17.5 -45.9 28.2 -60.4 14.2 -19 30.5 -29.7 52 -33.9 17.3 -3.3 36.3 0 44.9 7.8 l2.1 2 4.9 -5 c5.8 -6 10.7 -7.7 20.3 -6.9 12.4 1 22.8 6.6 26.4 14.1 3 6.3 2.2 9.9 -10 42.8 -22.3 60.4 -26.4 72 -26.4 75.4 0 5.2 2.8 7.4 9.5 7.4 10.6 0 25.8 -8.4 30.8 -17.2 1.4 -2.4 11.4 -28.4 22.2 -57.8 14.4 -39 20.3 -54.1 22.1 -55.7 3.5 -3.2 9.6 -4.5 18.6 -4.1 6.7 0.3 8.1 0.7 10.3 2.8 l2.4 2.5 -1.8 7.3 c-1.1 3.9 -1.7 7.2 -1.4 7.2 0.2 0 3.2 -2.3 6.6 -5.1 15.1 -12.3 41.3 -19.9 63.6 -18.6 17.7 1.1 29.6 7.4 35.6 19.2 2.8 5.5 3 6.5 2.9 16.9 0 9.7 -0.5 12.6 -3.6 23.1 -19.5 65.3 -42.9 96.6 -79.3 106.1 -10.6 2.7 -32.3 2.5 -43 -0.5 -4.4 -1.3 -8.9 -2.5 -10 -2.8 -1.8 -0.4 -3.5 3.8 -17.4 41.8 -14.9 40.5 -15.6 42.2 -19 44.4 -6 3.9 -14.5 5.5 -28.7 5.4 -7.1 -0.1 -14.4 -0.5 -16.3 -0.9z m112.1 -108.2 c4.9 -1.4 12 -7.6 15.2 -13.1 3.1 -5.3 32.4 -85.2 33.8 -92.1 2.1 -10.9 -3.4 -15.8 -15.3 -13.6 -8.4 1.6 -15.8 7.3 -20.1 15.5 -1.2 2.2 -10.4 25.6 -20.4 52 -20.3 53.7 -19.4 48.9 -9.4 51.1 7.2 1.6 11.4 1.7 16.2 0.2z m-189.8 -3.3 c4.4 -1.9 10.8 -7.5 13.6 -11.9 1.1 -1.8 10.1 -24.6 20 -50.5 17.4 -45.9 17.9 -47.4 16.5 -50.2 -3.1 -5.8 -14.6 -8.6 -22.8 -5.5 -5.3 2 -11.8 8.5 -15.1 15.1 -5.2 10.5 -33 88 -33.4 93.2 -0.5 5.8 1.2 9.7 5.1 11.3 2.9 1.3 11.4 0.4 16.1 -1.5z"/>
  <path d="M13 313.1 c-7.7 -1.5 -12 -3.7 -12 -6.3 0.1 -1.3 23.1 -65.3 51.4 -142.3 l51.2 -140 -39.5 -0.5 c-21.8 -0.3 -40.4 -0.9 -41.4 -1.4 -5.1 -2.4 -3.9 -11.6 2.3 -17.8 l3.8 -3.9 108.9 0.3 108.8 0.3 8 2.8 c24.7 8.7 35.2 28.4 28.6 53.8 -2.9 11 -36.2 102.2 -40.6 110.9 -12.7 25.4 -31.8 44.3 -53.1 52.8 -19.2 7.7 -47.6 13.9 -77.8 17 l-16.8 1.7 -12 31.5 c-6.6 17.3 -12.7 32.3 -13.6 33.4 -2.2 2.4 -6.6 4.6 -12.7 6.3 -5.8 1.7 -36.5 2.6 -43.5 1.4z m101 -100.6 c15.4 -2.7 25.7 -7.1 37.8 -16.1 8 -6 17.8 -17.6 22.1 -26.3 1.6 -3.1 12.2 -31.5 23.7 -63.1 19.9 -54.8 20.9 -57.8 20.9 -64.7 0 -8.6 -1.7 -11.6 -9 -15.2 -4.4 -2.3 -6.3 -2.5 -21.6 -2.9 l-16.7 -0.5 -0.7 2.4 c-1.3 4.2 -29.9 84.2 -45 125.9 -8.1 22.3 -16.4 45.3 -18.6 51.3 -2.5 7 -3.4 10.7 -2.6 10.7 0.7 0 5 -0.7 9.7 -1.5z"/>
  <path d="M1176.7 169.8 c-5 -1.3 -9.9 -6.3 -11.6 -11.7 -3.1 -10.4 3.6 -21.4 13.7 -22.8 11.9 -1.6 20.5 5.6 20.5 17.2 0 8.4 -5.2 15.3 -13.1 17.5 -4.3 1.1 -4.4 1.1 -9.5 -0.2z m13 -3.8 c4.3 -2.6 6.4 -7.1 6.4 -13.7 0 -17.9 -23.5 -21.2 -28.2 -4 -2 7.3 1.7 16.3 7.6 18.7 3.7 1.6 10.9 1.1 14.2 -1z"/>
  <path d="M1175 153 l0 -10 4.4 0 c5.7 0 9.3 1.4 10.1 3.9 0.8 2.6 -0.9 5.8 -3.5 6.6 -1.9 0.6 -1.9 0.7 0.5 4.3 2.7 3.9 3.1 5.2 1.6 5.2 -0.5 0 -2.1 -2 -3.5 -4.5 -1.7 -2.9 -3.4 -4.5 -4.6 -4.5 -1.7 0 -2 0.7 -2 4.5 0 3.3 -0.4 4.5 -1.5 4.5 -1.2 0 -1.5 -1.8 -1.5 -10z m11.8 -3.9 c0.4 -2.9 -1.2 -4.1 -5.5 -4.1 -3.1 0 -3.3 0.2 -3.3 3.6 l0 3.5 4.3 -0.3 c3.6 -0.3 4.3 -0.7 4.5 -2.7z"/>
 </g>
</svg>