<svg id="Layer_1" data-name="Layer 1" xmlns="http://www.w3.org/2000/svg" viewBox="0 0 3839.08054 877.59998"><path d="M2966.1001,180.1H2647.80005c-98.19995,0-146.3,60.5-146.3,139.3V558.7c0,48.7-23.1001,83.8-71.8999,83.8H2151.30005a3.5851,3.5851,0,0,0-3.6001,3.6v48.1a3.60828,3.60828,0,0,0,3.69995,3.6H2466.5c98.2,0,146.3-60.3,146.3-139.1V319.3c0-48.8,23.1001-83.9,71.8999-83.9h281.6001a3.52358,3.52358,0,0,0,3.6001-3.6v-48a3.91317,3.91317,0,0,0-3.8-3.7" transform="translate(-0.0198 0)" style="fill:#fff"/><path d="M2029.1,180.2H1416.80005a3.585,3.585,0,0,0-3.6,3.6v48.1a3.585,3.585,0,0,0,3.6,3.6h575.5c48.80005,0,71.8999,35.1,71.8999,83.9,0,48.7-23.1,83.8-71.9,83.8H1537.09985c-70.7,0-123.9,59.4-123.9,138.2v152.9a3.585,3.585,0,0,0,3.6,3.6h103.80005a3.585,3.585,0,0,0,3.6-3.6V541.3c0-48.8,28.1-82.8,68.4-82.8h436.4c98.20007,0,146.29992-60.3,146.29992-139.1.00025-78.7-47.99975-139.2-146.19982-139.2" transform="translate(-0.0198 0)" style="fill:#fff"/><path d="M3793.5,432.6a4.10356,4.10356,0,0,1,0-5.8c30.3999-25.2,45.5-63.3,45.5-107.4,0-78.7-48.1001-139.3-146.3-139.3H3080.3999a3.58512,3.58512,0,0,0-3.6001,3.6v48a3.64985,3.64985,0,0,0,3.6001,3.6h575.5c48.80005,0,71.8999,35.1,71.8999,83.9,0,48.7-23.10009,83.8-71.8999,83.8H3655.2l-574.80005.1a3.58512,3.58512,0,0,0-3.6001,3.6v48.1a3.64986,3.64986,0,0,0,3.6001,3.6H3656c63.5.5,71.8,62.3,71.8,93.9l.1001,6.3c0,48.8-23.1001,83.9-71.89991,83.9h-575.5a3.58509,3.58509,0,0,0-3.60009,3.6v48a3.64981,3.64981,0,0,0,3.60009,3.6h612.30005c98.19995,0,146.3-65.2,146.3-139.3v-6.2C3839,505.3,3823.80005,460.2,3793.5,432.6" transform="translate(-0.0198 0)" style="fill:#fff"/><path d="M21.3,638.5C-19,668.8-4.2,721.4,84.1,746.7c94.8,31.7,191,38,281.3,22.9,5.9-.9,12.3-2.1,18-3.1v-96.3l-90.3,33.2c-33.3,12.2-82.3,14.7-109.3,5.7s-22-26.1,11.4-38.3l188.2-68.4V495L121.8,589.4C121.9,589.4,58.5,610.5,21.3,638.5Z" transform="translate(-0.0198 0)" style="fill:#fff"/><path d="M1036.5,575.4C960.1,546,862.8,536,783.3,544.9s-136,29.2-136,29.2L636,578V689.3l195.7-70C865,607.1,914,604.5,941,613.6c27,9,22,26.1-11.4,38.3L636.1,757.9V865.1l398.9-145.4s53.69995-20,75.5-48C1132.30005,643.7,1122.7,603,1036.5,575.4Z" transform="translate(-0.0198 0)" style="fill:#fff"/><path d="M674,214.8V489.1c113.7,55.7,203.3-.1,203.3-147.3,0-151-52.3-218.1-206.9-271.9C609.5,49.1,496.5,14.7,418.9,0V818.8l182.5,58.8V190.8c0-32.2,14.1-53.7,36.9-46.2C668.2,153.1,674,182.7,674,214.8Z" transform="translate(-0.0198 0)" style="fill:#fff"/></svg>