<?xml version="1.0" encoding="utf-8"?>
<!DOCTYPE svg PUBLIC "-//W3C//DTD SVG 20010904//EN" "http://www.w3.org/TR/2001/REC-SVG-20010904/DTD/svg10.dtd">
<svg version="1.0" xmlns="http://www.w3.org/2000/svg" width="1983px" height="720px" viewBox="0 0 1983 720" preserveAspectRatio="xMidYMid meet">
 <g fill="#ffffff">
  <path d="M227.1 718.4 c-19.8 -2.8 -34.7 -16 -39.7 -35.1 -1.7 -6.5 -1.8 -21.3 -0.3 -26.2 5.9 -18.8 18.2 -30.9 36.2 -35.7 6.3 -1.7 17.7 -1.8 24.9 -0.3 6.4 1.3 18.7 7 21.2 9.8 1.8 2 1.7 2.1 -2.9 7.5 l-4.7 5.6 -4.2 -2.9 c-16.8 -11.3 -38.3 -8.6 -48.5 6.3 -13.2 19.1 -6.9 46 12.8 54.9 8.7 4 25.7 2.7 34.9 -2.6 l3.2 -1.9 0 -9.9 0 -9.9 -12 0 -12 0 0 -6.5 0 -6.5 19.5 0 19.5 0 0 19.8 c0 22.6 0.8 20.7 -10.3 26.7 -12.3 6.6 -24.3 8.8 -37.6 6.9z"/>
  <path d="M841.5 718.8 c-26.1 -3.4 -43.5 -23 -43.5 -49.1 0 -14.8 4.3 -25.2 14.4 -35.2 19.5 -19.5 52.1 -19.5 71.1 0 15.5 15.8 18.7 37.4 8.5 58 -8.7 17.9 -30 28.9 -50.5 26.3z m20.2 -16.9 c25.9 -11 26 -52.8 0.2 -64.4 -19.6 -8.8 -40.2 0.6 -46.4 21.3 -5.9 19.4 5.9 41.2 24.5 45.3 5.4 1.2 16.3 0.1 21.7 -2.2z"/>
  <path d="M999.1 718.4 c-24.8 -3.5 -41.1 -22.8 -41.1 -48.4 0 -14.5 4.6 -25.8 14.6 -35.7 11.9 -12 29.7 -16.9 47.6 -13.2 6.4 1.3 18.7 7 21.2 9.8 1.8 2 1.7 2.1 -2.9 7.5 l-4.7 5.6 -4.2 -2.9 c-7 -4.8 -13.2 -6.6 -22.6 -6.6 -7.3 0 -9.3 0.4 -14.2 2.8 -11.2 5.5 -18.8 18.5 -18.8 32.1 0 14.7 7.7 27.4 19.9 33 8.7 3.9 25.7 2.6 34.9 -2.7 l3.2 -1.9 0 -9.9 0 -9.9 -12.5 0 -12.5 0 0 -6.5 0 -6.5 20 0 20 0 0 19.9 0 19.9 -3.2 2.4 c-11.9 9.1 -29.2 13.4 -44.7 11.2z"/>
  <path d="M30.3 718 c-2.8 -0.5 -7.6 -1.9 -10.7 -3 -6.2 -2.4 -17.9 -9.8 -17.4 -11.1 0.2 -0.5 2.1 -3.1 4.3 -5.8 l3.9 -5 3.2 2.4 c1.7 1.3 6 3.9 9.5 5.7 6 3 7 3.2 17 3.3 9.9 0 10.8 -0.2 14 -2.6 7 -5.3 6.9 -15 -0.1 -19.3 -4.6 -2.9 -7.7 -4 -18.5 -6.6 -21.4 -5.3 -30.5 -13.5 -30.5 -27.5 0 -9.6 4.3 -17.5 12.1 -22.6 11.6 -7.4 28.3 -7.6 43.9 -0.6 4 1.8 10 5.9 10 6.8 0 0.4 -1.7 3.2 -3.7 6.1 l-3.8 5.4 -5.5 -3.4 c-17 -10.1 -35 -7.6 -37.6 5.3 -0.7 3.9 2.8 9.4 7.7 11.8 2 1 9.1 3.3 15.8 5.2 14.7 4.2 20.6 7.1 25.4 12.4 4.3 4.8 6.1 10.7 5.4 18.2 -0.9 10.4 -7.7 19.3 -17.6 23 -6.4 2.3 -19.1 3.2 -26.8 1.9z"/>
  <path d="M1462 718.4 c-10 -1.8 -21.9 -6.9 -27.8 -11.9 l-3.2 -2.7 4.6 -5.3 4.5 -5.4 4.8 3.4 c8.8 6.3 13.5 7.9 24.6 7.9 8.1 0.1 10.6 -0.3 13.1 -1.8 6.6 -4 8.4 -12.1 3.9 -17.4 -2.4 -2.9 -8.6 -5.8 -17.5 -8.2 -10.6 -2.8 -12.8 -3.5 -17.9 -5.7 -11.8 -5.1 -16.1 -11.3 -16.1 -23 0.1 -15.2 9 -24.6 25.9 -27.5 5.6 -1 8.6 -0.9 14.8 0.1 7.3 1.2 19.3 6 23.7 9.3 1.8 1.4 1.8 1.7 -1.5 6.4 -1.9 2.6 -3.7 5.2 -4 5.7 -0.3 0.5 -3.1 -0.5 -6.1 -2.2 -11.1 -6.3 -22.6 -7.8 -30.3 -4.1 -9.6 4.6 -10 16.2 -0.7 20.9 2.1 1.1 9.6 3.6 16.6 5.6 13.8 3.8 18.5 5.9 23.6 10.2 4.8 4 7 9.5 7 17.8 0 16.8 -11.2 27 -30.8 27.9 -4.8 0.3 -9.8 0.3 -11.2 0z"/>
  <path d="M1640 718.1 c-7.4 -1.4 -15.9 -4.8 -22.1 -8.8 -3.2 -2.1 -6 -4.3 -6.3 -4.8 -0.2 -0.6 1.6 -3.4 4.1 -6.3 l4.4 -5.1 4.8 3.4 c8.8 6.4 13.5 7.9 24.6 7.9 11.3 0.1 14 -0.9 17.6 -6.7 2.5 -4 2 -9.9 -1.1 -13.2 -1.2 -1.3 -4.5 -3.2 -7.4 -4.3 -4.7 -1.8 -7.9 -2.8 -18.1 -5.4 -17.8 -4.6 -25.8 -12.9 -25.8 -26.7 0 -7.8 1.8 -12.4 6.7 -17.9 10.1 -11.2 31.6 -13.2 49.1 -4.6 11.5 5.6 11.4 5.4 6.9 11.6 -2.1 2.9 -3.9 5.4 -4 5.6 -0.1 0.2 -3.3 -1.2 -7 -3.2 -8.4 -4.2 -13.4 -5.6 -19.9 -5.6 -10.1 0.1 -16.5 5.3 -16.5 13.6 0 2.9 0.7 4.4 3.4 6.9 3.4 3.2 8.5 5.1 25.5 9.6 10.7 2.8 19.5 8.5 22.8 14.8 1.8 3.4 2.3 6.1 2.3 11.6 0 16.8 -11.5 27.1 -31.5 28 -4.4 0.2 -10 0 -12.5 -0.4z"/>
  <path d="M97 670 l0 -48 35 0 35 0 0 6.5 0 6.5 -27.2 0.2 -27.3 0.3 -0.3 13.3 -0.3 13.2 24.6 0 24.5 0 0 7 0 7 -24.5 0 -24.6 0 0.3 13.8 0.3 13.7 27.8 0.3 27.7 0.2 0 7 0 7 -35.5 0 -35.5 0 0 -48z"/>
  <path d="M292 716.5 c0 -0.8 0.4 -2.3 1 -3.3 0.5 -0.9 4.5 -9.8 8.8 -19.7 4.3 -9.9 13.2 -30.3 19.8 -45.2 l11.9 -27.3 7.1 0 c4.6 0 7.5 0.5 8.1 1.3 0.5 0.6 2.4 4.8 4.3 9.2 1.8 4.4 4.3 10.3 5.6 13 1.2 2.8 3.1 7 4.2 9.5 1.1 2.5 4.3 9.9 7.2 16.5 2.9 6.6 6.3 14.4 7.6 17.3 1.3 2.9 2.4 5.5 2.4 5.7 0 0.3 0.9 2.4 1.9 4.8 5.3 11.4 8.1 18.1 8.1 18.8 0 0.5 -3.5 0.9 -7.8 0.9 l-7.9 0 -4.9 -11.7 -4.9 -11.8 -23.8 -0.3 -23.7 -0.2 -1 2.5 c-0.5 1.4 -1.8 4.5 -2.9 6.9 -1.1 2.4 -2.9 6.5 -3.9 9.2 l-2 4.9 -7.6 0.3 c-6.3 0.2 -7.6 0 -7.6 -1.3z m66 -37.5 c0 -0.6 -0.4 -1.8 -1 -2.8 -0.5 -0.9 -4.2 -9.1 -8 -18.2 -3.9 -9.1 -7.5 -16.9 -8 -17.4 -0.6 -0.6 -1.6 0.6 -2.6 3 -2 4.9 -4 9.5 -10.2 24 -1.7 3.8 -3.6 8.2 -4.1 9.7 l-1.1 2.7 17.5 0 c11.2 0 17.5 -0.4 17.5 -1z"/>
  <path d="M481.4 714.3 c-0.9 -2.1 -3.6 -8.7 -6.1 -14.8 -2.5 -6 -5 -12.3 -5.8 -14 -4.6 -10.7 -6.7 -15.9 -9.5 -23 -1.8 -4.4 -4 -9.8 -5 -12 -2.8 -6.2 -11 -26.8 -11 -27.7 0 -0.4 3.7 -0.8 8.3 -0.8 l8.3 0 6.1 15.8 c19 48.9 22.8 58.2 23.6 57.9 0.5 -0.1 2.5 -4.3 4.4 -9.2 1.9 -5 3.8 -9.9 4.3 -11 0.7 -1.7 6.4 -16.2 17.9 -46 l2.7 -7 8.2 -0.3 c4.8 -0.2 8.2 0.1 8.2 0.7 0 0.5 -2.5 6.9 -5.6 14.2 -3.1 7.3 -6.9 16.7 -8.6 20.9 -1.6 4.1 -3.8 9.3 -4.8 11.5 -1 2.2 -3.7 8.7 -6 14.5 -2.3 5.8 -4.8 12.1 -5.7 14 -0.8 1.9 -1.9 4.4 -2.3 5.5 -0.4 1.1 -1.5 3.6 -2.3 5.5 -0.9 1.9 -2 4.8 -2.6 6.3 -1 2.6 -1.3 2.7 -8.1 2.7 l-7 0 -1.6 -3.7z"/>
  <path d="M556 670 l0 -48 8 0 8 0 0 48 0 48 -8 0 -8 0 0 -48z"/>
  <path d="M600 670.1 l0 -48.1 22.3 0 c24 0 28.4 0.7 38.6 5.6 6.8 3.4 16.7 13.1 20 19.7 13.6 28 -0.7 60 -30.5 68.3 -4.3 1.2 -12 1.8 -28.1 2.1 l-22.3 0.6 0 -48.2z m47.5 31.4 c10.9 -3.8 17.8 -11.1 21 -22.1 4.8 -16.4 -2.5 -33.3 -17.5 -40.3 -5 -2.4 -6.8 -2.6 -20.7 -2.9 l-15.3 -0.3 0 33.4 c0 18.3 0.3 33.7 0.8 34.1 1.4 1.5 26.4 0 31.7 -1.9z"/>
  <path d="M709 670 l0 -48 35 0 35 0 0 6.5 0 6.5 -27.2 0.2 -27.3 0.3 -0.3 13.3 -0.3 13.2 24.6 0 24.5 0 0 7 0 7 -24.5 0 -24.6 0 0.3 13.8 0.3 13.7 27.8 0.3 27.7 0.2 0 7 0 7 -35.5 0 -35.5 0 0 -48z"/>
  <path d="M1068.5 705.8 c2.9 -6.8 9.4 -21.7 14.5 -33.3 5 -11.5 12.1 -27.9 15.8 -36.3 l6.6 -15.3 7.5 0.3 7.5 0.3 3.8 8.5 c2 4.7 4.6 10.5 5.7 13 1.1 2.5 4.5 10.4 7.6 17.5 3.1 7.2 6.3 14.4 7 16 4.3 9.4 17.5 40.1 17.5 40.7 0 0.5 -3.5 0.8 -7.8 0.8 l-7.9 0 -4.9 -11.7 -4.9 -11.8 -23.9 0 -23.8 0 -5 11.8 -5.1 11.7 -7.7 0 -7.8 0 5.3 -12.2z m61.1 -27.5 c-4.4 -11.6 -16.3 -38.2 -17 -38 -0.8 0.3 -17.6 37.9 -17.6 39.4 0 0.1 7.9 0.3 17.6 0.3 16.4 0 17.6 -0.1 17 -1.7z"/>
  <path d="M1181 670 l0 -48 8.8 0 8.7 0 14.4 22.5 c7.9 12.4 14.9 22.5 15.6 22.5 0.7 0 1.5 -0.6 1.8 -1.3 0.3 -0.8 6.7 -10.9 14.2 -22.5 l13.8 -21.2 8.3 0 8.4 0 0 48 0 48 -7.5 0 -7.5 0 0 -35 c0 -19.2 -0.4 -35 -0.8 -35 -0.5 0 -7.5 9.9 -15.5 22 -8.1 12.1 -15.1 22 -15.6 22 -0.5 0 -7.5 -9.9 -15.5 -22 -8.1 -12.1 -15.1 -21.8 -15.6 -21.5 -0.6 0.4 -1 14.4 -1 35.1 l0 34.4 -7.5 0 -7.5 0 0 -48z"/>
  <path d="M1302.7 717.3 c-0.4 -0.3 -0.7 -21.9 -0.7 -48 l0 -47.3 35.5 0 35.5 0 0 6.5 0 6.5 -27.5 0 -27.5 0 0 13.5 0 13.5 24 0 24 0 0 7 0 7 -24 0 -24 0 0 14 0 14 27.5 0 27.5 0 0 7 0 7 -34.8 0 c-19.2 0 -35.2 -0.3 -35.5 -0.7z"/>
  <path d="M1551 698.9 l0 -19 -4.7 -7.2 c-2.6 -4 -11.1 -17 -18.9 -28.9 l-14.3 -21.8 9.2 0 9.2 0.1 13 20.6 c7.2 11.4 13.5 20.8 14.1 21 0.6 0.2 7.1 -9.1 14.5 -20.7 l13.4 -21 8.8 0 c6.8 0 8.6 0.3 8.1 1.3 -0.5 0.6 -9 13.7 -19.1 28.9 l-18.3 27.7 0 19 0 19.1 -7.5 0 -7.5 0 0 -19.1z"/>
  <path d="M1728 677 l0 -41 -15.5 0 -15.5 0 0 -7 0 -7 39 0 39 0 0 7 0 7 -15.5 0 -15.5 0 0 41 0 41 -8 0 -8 0 0 -41z"/>
  <path d="M1794.7 717.3 c-0.4 -0.3 -0.7 -21.9 -0.7 -48 l0 -47.3 35.5 0 35.5 0 0 6.5 0 6.5 -27.5 0 -27.5 0 0 13.5 0 13.5 24.5 0 24.5 0 0 7 0 7 -24.5 0 -24.5 0 0 14 0 14 28 0 28.1 0 -0.3 6.8 -0.3 6.7 -35.1 0.3 c-19.3 0.1 -35.3 -0.1 -35.7 -0.5z"/>
  <path d="M1887 670 l0 -48.1 9.1 0.3 9.1 0.3 7.4 11.5 c4.1 6.3 10.6 16.5 14.5 22.7 4 6.2 7.5 11.1 7.8 10.8 0.4 -0.2 7.2 -10.5 15.1 -22.9 l14.5 -22.6 8.8 0 8.7 0 0 48 0 48 -8 0 -8 0 0 -35 c0 -19.2 -0.3 -35 -0.7 -35 -0.5 0.1 -7.5 10.2 -15.7 22.6 -8.2 12.4 -15.2 22.1 -15.6 21.7 -0.4 -0.4 -7.1 -10.3 -14.8 -22 -7.8 -11.6 -14.6 -21.4 -15.2 -21.8 -0.7 -0.4 -1 10.3 -1 34.4 l0 35.1 -8 0 -8 0 0 -48z"/>
  <path d="M1 427.5 l0 -126.5 18.5 0 18.5 0 -6 -11.7 c-5.9 -11.7 -14.8 -37.1 -16.9 -48.3 -0.5 -3 -1.6 -8.4 -2.3 -12 -1.8 -9.1 -1.7 -48.8 0.1 -60.5 7.7 -50.2 33.2 -94.4 71.7 -124.5 23.5 -18.5 49.5 -30.7 79.4 -37.4 12.9 -3 23.3 -4.4 41.5 -5.6 20.1 -1.4 719.7 -1.3 734.1 0.1 27.7 2.6 50.4 13 68.9 31.4 15.9 15.8 25.4 33.7 30.4 57 l1.7 8 28 0.3 28.1 0.2 0.6 -14.7 c0.7 -17.1 2.8 -26.9 8.4 -38.1 9.3 -18.9 25.7 -33.2 46 -40.3 13.2 -4.6 20.3 -4.9 129.3 -4.9 l102.5 0 28.5 37.2 c74.6 97.3 86.2 112.3 87.3 112.6 0.7 0.1 6 -5.9 11.8 -13.5 28.9 -37.6 86.2 -112.3 94.7 -123.5 l9.7 -12.7 182.8 -0.1 c100.5 0 182.7 0.3 182.7 0.6 0 0.3 -1.9 2.9 -4.2 5.8 -2.4 2.9 -8.1 10.4 -12.8 16.6 -4.7 6.2 -8.9 11.8 -9.5 12.4 -0.5 0.6 -3.9 4.9 -7.5 9.6 -3.5 4.7 -8.7 11.4 -11.4 15 -2.8 3.6 -9.6 12.4 -15.1 19.6 -12.7 16.6 -13.5 17.7 -22.5 29.4 -4.1 5.4 -8.6 11.2 -10 13 -1.4 1.8 -8.1 10.6 -15 19.5 -6.9 9 -16.3 21.4 -21 27.5 -4.7 6.2 -8.9 11.8 -9.5 12.4 -0.5 0.6 -3.1 3.8 -5.6 7.1 -30.3 39.6 -39.8 51.9 -48.3 63 -5.5 7.2 -20.2 26.3 -32.6 42.5 -12.4 16.2 -27.3 35.6 -33 43 -5.7 7.4 -15.4 20 -21.4 28 -6.1 8 -11.5 15 -12.1 15.6 -0.5 0.6 -4.8 6.2 -9.5 12.4 -4.7 6.2 -11.2 14.7 -14.5 18.9 -3.3 4.3 -9.9 12.9 -14.7 19.2 -17.8 23.2 -64.2 83.7 -71.7 93.4 -4.3 5.5 -11.1 14.4 -15.2 19.7 l-7.4 9.8 -107.7 0 -107.8 0 0 -15.5 c0 -13.2 -0.3 -16.2 -2.1 -21 -2.9 -7.8 -11.4 -16.4 -19.4 -19.6 l-6 -2.4 -214.5 0 -214.5 0 -6.7 3.3 c-8.2 4 -14.8 11.1 -17.9 19 -1.8 4.6 -2.2 8.5 -2.7 21 l-0.5 15.2 -125.8 0 -125.9 0 -0.2 -29.2 -0.3 -29.3 -31 -0.3 -31 -0.2 -5 4.6 c-2.7 2.5 -7.7 6.6 -11 9 -3.3 2.5 -6.7 5.1 -7.5 5.8 -0.9 0.7 -6.3 4.1 -12 7.6 -16.7 10.1 -33.3 17.2 -53 22.8 -16.5 4.6 -21.7 5.5 -45.6 8.2 -5.8 0.6 -80.4 1 -208.2 1 l-199.2 0 0 -126.5z m412.5 79.3 c43.1 -7.4 74.1 -22.5 100 -48.7 l8 -8.1 64.2 0 64.3 0 0.2 29.3 0.3 29.2 80.6 0.3 80.7 0.2 0.4 -16.2 c0.3 -15.1 0.5 -16.7 3 -21.9 3.6 -7.9 8.9 -13.3 16.6 -17.1 l6.7 -3.3 261 0 261 0 5.6 2.6 c10.9 5.2 17.7 13.8 19.8 25.3 0.6 3.3 1.1 11.3 1.1 17.8 l0 11.8 73.3 0 73.2 -0.1 27.7 -36.2 c15.2 -19.9 47.3 -61.8 71.4 -93.2 24 -31.3 57 -74.3 73.2 -95.5 16.3 -21.2 32.9 -42.8 36.9 -48 4 -5.2 17.7 -23 30.3 -39.5 12.7 -16.5 27.5 -35.8 33 -43 25.6 -33.3 39.2 -51.1 47.5 -61.9 5 -6.5 11 -14.4 13.5 -17.6 14.1 -18.2 20 -25.9 20 -26.4 0 -0.3 -55.8 -0.6 -123.9 -0.6 l-124 0 -25.8 33.6 c-23.2 30.2 -32.9 42.8 -62.2 81.1 -4.7 6.1 -17.4 22.6 -28.1 36.7 -19.2 25.1 -19.6 25.5 -23.2 25.5 -3.6 0.1 -3.8 -0.1 -25 -27.7 -11.7 -15.2 -33.9 -44.1 -49.3 -64.2 -15.4 -20.1 -36.3 -47.4 -46.5 -60.7 l-18.5 -24.2 -92.6 -0.1 c-101.9 0 -98 -0.2 -108.1 6.2 -6.1 3.9 -10.5 8.8 -13.7 15.8 l-2.6 5.5 -0.5 34.5 -0.5 34.5 -73.1 0.3 -73.2 0.2 -0.5 -20.7 c-0.6 -23.1 -1.5 -27.8 -7.5 -40.3 -5.4 -11 -17.7 -23.1 -29.2 -28.8 -16.1 -7.9 19.3 -7.2 -388.3 -7.2 -354.7 0 -365.6 0.1 -378.2 1.9 -39.5 5.8 -68.9 20.3 -93.8 46 -20.5 21.3 -33.3 45.6 -39.8 76.2 -3.3 15 -3.3 41.8 0 56.9 9 42.1 31.6 75.8 65.6 98 7.8 5.1 25.3 14 27.4 14 0.6 0 1.1 1.8 1.1 4 l0 4 -53.5 0 -53.5 0 0 80.3 c0 44.2 0.3 80.7 0.7 81.1 0.4 0.4 81.1 0.5 179.3 0.3 154.8 -0.4 179.7 -0.6 187.5 -1.9z"/>
 </g>
 <g fill="#ffe850">
  <path d="M83 427.5 l0 -44.5 155.8 -0.2 155.7 -0.3 4.7 -2.2 c6.6 -3 13.5 -9.7 17.1 -16.8 2.8 -5.3 3.2 -6.9 3.2 -14.5 0 -7.2 -0.4 -9.3 -2.7 -14 -3.5 -7.1 -9.7 -13.3 -16.7 -16.8 l-5.6 -2.7 -99.5 -0.6 c-109.4 -0.6 -106.8 -0.5 -126.4 -7 -17.2 -5.7 -30.3 -13.6 -42.8 -25.7 -24.6 -23.8 -36.4 -58.2 -32.9 -95.7 2.2 -23.2 9.4 -42.4 22 -59.2 16 -21.3 38.5 -35.2 67.2 -41.5 l10.4 -2.3 150.7 0 150.6 0 4.6 3.2 4.6 3.3 0 -3.5 0 -3.5 218.8 0 218.8 0 5.3 2.6 c6.4 3.2 10.6 8.6 12.1 15.7 0.7 3.4 1 15.5 0.8 34.2 l-0.3 29 -91.7 0.3 -91.8 0.2 0 153.5 0 153.5 -44 0 -44 0 0 -153.5 0 -153.5 -238.7 0.2 -238.8 0.3 -5.5 2.6 c-13.8 6.6 -21.3 21.4 -17.5 34.5 2.8 9.7 8 16.1 16.5 20.6 l4.5 2.3 101 0.5 c91.9 0.5 101.9 0.8 110.5 2.4 52 9.9 87.2 41.3 99.5 88.6 3.6 13.9 4.5 38.4 2.1 53.2 -5.9 36 -25.3 64.6 -56.1 83 -15.4 9.2 -34.1 15.1 -57 17.7 -6 0.7 -62.3 1.1 -166.7 1.1 l-157.8 0 0 -44.5z"/>
  <path d="M1476.7 465.3 c-3 -3.8 -21.1 -27.3 -40.3 -52.3 -38.2 -49.9 -95 -124 -157.6 -205.5 -89.2 -116.2 -90.8 -118.3 -90.8 -121.4 l0 -3.1 67.9 0 68 0 11.4 14.8 c6.2 8.1 21.2 27.5 33.2 43.2 12 15.7 31.4 40.9 43 56 11.6 15.1 34.6 45.1 51 66.5 16.4 21.5 31.5 41.1 33.5 43.7 l3.7 4.7 8.4 -11.1 c4.6 -6 19 -24.8 31.9 -41.6 25.2 -32.8 110.3 -143.7 118 -153.7 2.5 -3.3 7.4 -9.7 10.9 -14.3 l6.3 -8.2 67.9 0 67.9 0 0 3.4 c0 2.8 -3.7 8.1 -24.2 34.9 -13.4 17.3 -36.4 47.3 -51.3 66.7 -14.8 19.4 -31.3 40.8 -36.5 47.5 -5.2 6.8 -20.1 26.1 -33 43 -12.9 16.9 -28.9 37.8 -35.5 46.4 -6.7 8.6 -27.8 36.1 -47 61.1 -19.2 25 -41.9 54.6 -50.4 65.8 l-15.6 20.2 -17.7 0 -17.7 0 -5.4 -6.7z"/>
  <path d="M908 293.5 l0 -44.5 185.5 0 185.5 0 0 44.5 0 44.5 -185.5 0 -185.5 0 0 -44.5z"/>
 </g>
 <g fill="#000000">
  <path d="M43.7 511.4 c-0.4 -0.4 -0.7 -38.2 -0.7 -84.1 l0 -83.3 53.5 0 c35 0 53.5 -0.3 53.5 -1 0 -0.5 -0.5 -1 -1.1 -1 -2.1 0 -19.6 -8.9 -27.4 -14 -34 -22.2 -56.6 -55.9 -65.6 -98 -2 -9 -2.3 -13.5 -2.3 -31.5 0 -18 0.3 -22.5 2.3 -31.4 6.6 -30.7 19.3 -54.9 39.8 -76.2 24.9 -25.7 54.3 -40.2 93.8 -46 12.6 -1.8 23.6 -1.9 381.2 -1.9 411 0 375.2 -0.7 391.3 7.2 11.5 5.7 23.8 17.8 29.2 28.8 6 12.5 6.9 17.2 7.5 40.3 l0.5 20.7 70.2 -0.2 70.1 -0.3 0.5 -34.5 0.5 -34.5 2.6 -5.5 c3.2 -7 7.6 -11.9 13.7 -15.8 10.1 -6.4 5.9 -6.2 111.1 -6.2 l95.6 0.1 18.5 24.2 c10.2 13.3 31.1 40.6 46.5 60.7 15.4 20.1 37.6 49 49.3 64.3 11.8 15.2 21.6 27.7 22 27.6 0.4 0 9.5 -11.5 20.2 -25.5 10.7 -14.1 23.4 -30.6 28.1 -36.7 29.3 -38.3 39 -50.9 62.2 -81.1 l25.8 -33.6 129.6 0 c103.5 0 129.4 0.3 128.6 1.2 -7.2 9.5 -20.8 27.3 -24.3 31.8 -2.5 3.2 -8.5 11.1 -13.5 17.6 -8.3 10.8 -21.9 28.6 -47.5 61.9 -5.5 7.2 -20.3 26.5 -33 43 -12.6 16.5 -26.3 34.3 -30.3 39.5 -4 5.2 -20.6 26.8 -36.9 48 -16.2 21.2 -49.2 64.2 -73.2 95.5 -24.1 31.4 -56.2 73.3 -71.4 93.2 l-27.7 36.2 -76.2 0.1 -76.3 0 0 -11.8 c0 -6.5 -0.5 -14.5 -1.1 -17.8 -2.1 -11.5 -8.9 -20.1 -19.8 -25.3 l-5.6 -2.6 -258 0 -258 0 -6.7 3.3 c-7.7 3.8 -13 9.2 -16.6 17.1 -2.5 5.2 -2.7 6.8 -3 21.9 l-0.4 16.2 -83.7 -0.2 -83.6 -0.3 -0.3 -29.2 -0.2 -29.3 -61.3 0 -61.2 0 -8 8.1 c-21.1 21.3 -49.8 37.4 -79.1 44.4 -26.1 6.1 -12.9 5.8 -211.4 6.2 -99.9 0.2 -181.9 0.1 -182.3 -0.3z m360.8 -43.5 c22.9 -2.6 41.6 -8.5 57 -17.7 38 -22.6 58.9 -61.6 57.2 -106.2 -2.1 -51.7 -34.1 -92.4 -85.2 -108.3 -19.8 -6.2 -17.6 -6.1 -128 -6.7 l-101 -0.5 -4.5 -2.3 c-12.3 -6.4 -18.9 -19 -17.7 -33.4 1.1 -12.6 7.7 -22.5 18.7 -27.7 l5.5 -2.6 241.8 -0.3 241.7 -0.2 0 153.5 0 153.5 41 0 41 0 0 -153.5 0 -153.5 91.8 -0.2 91.7 -0.3 0.3 -26 c0.2 -16.5 -0.1 -27.9 -0.8 -31.2 -1.5 -7.1 -5.7 -12.5 -12.1 -15.7 l-5.3 -2.6 -215.8 0 -215.8 0 0 8.8 0 8.7 -1.9 -4.1 c-2.3 -5 -9.3 -11.1 -14.2 -12.4 -2.5 -0.7 -53.5 -0.9 -149.6 -0.7 l-145.8 0.3 -9.9 2.2 c-28.6 6.6 -50.8 20.4 -66.7 41.5 -25.3 33.6 -29.6 81.1 -10.6 119.5 13 26.3 35.4 45.5 64.3 55.1 19.6 6.5 17 6.4 126.4 7 l99.5 0.6 5.6 2.7 c7 3.5 13.2 9.7 16.7 16.8 2.5 5 2.7 6.5 2.7 17 0 11 -0.1 11.8 -3.2 17.5 -3.6 7.1 -10.5 13.8 -17.1 16.8 l-4.7 2.2 -155.7 0.3 -155.8 0.2 0 41.5 0 41.5 154.8 0 c102.3 0 157.7 -0.4 163.7 -1.1z m1125.6 -19.1 c8.5 -11.2 31.2 -40.8 50.4 -65.8 19.2 -25 40.3 -52.5 47 -61.1 6.6 -8.6 22.6 -29.5 35.5 -46.4 12.9 -16.9 27.8 -36.2 33 -43 5.2 -6.7 21.7 -28.1 36.5 -47.5 14.9 -19.4 37.9 -49.4 51.3 -66.8 l24.4 -31.7 -64.9 -0.3 -64.8 -0.2 -2.9 3.5 c-1.6 2 -6.7 8.7 -11.4 14.8 -7.6 9.9 -45.3 59 -121.2 157.9 -12.9 16.8 -27.8 36.3 -33 43.2 -5.2 6.9 -9.8 12.5 -10.2 12.6 -0.8 0 -2.3 -2 -46.8 -60 -18.3 -23.9 -40.6 -52.9 -49.5 -64.5 -8.9 -11.5 -26 -33.8 -38 -49.5 -12 -15.7 -27 -35.1 -33.2 -43.2 l-11.4 -14.8 -65 0 -65 0 9.4 12.3 c9.1 11.8 47.4 61.8 83.7 109.1 9.6 12.5 26 33.9 36.4 47.4 41.9 54.6 86 112.1 119 155.2 19.2 25 37.3 48.5 40.3 52.3 l5.4 6.7 14.7 0 14.7 0 15.6 -20.2z m-254.1 -155.3 l0 -41.5 -182.5 0 -182.5 0 0 41.5 0 41.5 182.5 0 182.5 0 0 -41.5z"/>
 </g>
</svg>