<?xml version="1.0" encoding="UTF-8" standalone="no"?>
<svg
   version="1.1"
   id="svg8"
   sodipodi:docname="setup.svg"
   width="264"
   height="36"
   inkscape:version="1.1.2 (0a00cf5339, 2022-02-04, custom)"
   inkscape:export-filename="C:\Users\miche\Desktop\setup.png"
   inkscape:export-xdpi="1920"
   inkscape:export-ydpi="1920"
   xmlns:inkscape="http://www.inkscape.org/namespaces/inkscape"
   xmlns:sodipodi="http://sodipodi.sourceforge.net/DTD/sodipodi-0.dtd"
   xmlns="http://www.w3.org/2000/svg"
   xmlns:svg="http://www.w3.org/2000/svg">
  <defs
     id="defs12" />
  <sodipodi:namedview
     id="namedview10"
     pagecolor="#ffffff"
     bordercolor="#666666"
     borderopacity="1.0"
     inkscape:pageshadow="2"
     inkscape:pageopacity="0.0"
     inkscape:pagecheckerboard="0"
     showgrid="false"
     inkscape:zoom="3.5633333"
     inkscape:cx="150"
     inkscape:cy="74.929841"
     inkscape:window-width="1920"
     inkscape:window-height="1017"
     inkscape:window-x="-8"
     inkscape:window-y="-8"
     inkscape:window-maximized="1"
     inkscape:current-layer="svg8" />
  <path
     d="m 35.518,34.583 3.031,-8.988 c 3.032,0.835 5.81,1.253 8.336,1.253 2.526,0 4.565,-0.109 6.117,-0.327 l 0.433,-2.724 -4.493,-0.435 c -3.428,-0.327 -5.858,-1.108 -7.289,-2.343 -1.42,-1.235 -2.129,-2.978 -2.129,-5.23 0,-0.981 0.108,-2.07 0.325,-3.268 0.83,-4.649 2.333,-7.845 4.51,-9.588 2.189,-1.743 5.576,-2.615 10.159,-2.615 4.583,0 8.624,0.454 12.125,1.362 l -2.815,8.716 C 60.689,9.851 58.162,9.579 56.25,9.579 c -1.913,0 -3.537,0.091 -4.872,0.272 l -0.433,2.67 3.627,0.381 c 3.681,0.4 6.297,1.283 7.849,2.651 1.551,1.357 2.327,3.178 2.327,5.466 0,2.324 -0.505,4.721 -1.515,7.19 -0.506,1.272 -1.06,2.337 -1.66,3.197 -0.59,0.847 -1.348,1.567 -2.274,2.161 -0.915,0.604 -1.75,1.058 -2.508,1.361 -0.758,0.314 -1.714,0.546 -2.869,0.691 C 52.226,35.872 50.151,36 47.697,36 43.223,36 39.163,35.528 35.518,34.583 Z M 91.813,14.427 90.406,22.326 H 80.121 l -0.704,4.14 H 92.03 l -1.516,8.717 H 67.617 L 73.571,1.135 H 96.198 L 93.383,9.851 H 82.286 l -0.758,4.576 z m 33.182,-13.292 -1.57,8.716 h -7.47 l -4.384,25.332 H 101.286 L 105.67,9.851 h -7.415 l 1.569,-8.716 z m 27.065,0 -1.57,8.716 h -7.47 l -4.385,25.332 h -10.284 l 4.384,-25.332 h -7.416 l 1.57,-8.716 z m 8.227,34.048 h -10.284 l 5.954,-34.048 h 10.285 z m 34.968,0 h -9.689 l -5.521,-12.094 c -0.145,-0.255 -0.217,-0.612 -0.217,-1.072 0,-0.448 0.036,-0.962 0.108,-1.543 h -0.433 l -2.544,14.709 h -10.284 l 5.954,-34.048 h 9.689 l 5.521,12.094 c 0.109,0.254 0.163,0.612 0.163,1.071 0,0.449 -0.036,0.962 -0.108,1.544 h 0.433 l 2.598,-14.709 h 10.284 z m 25.279,-10.024 0.27,-1.471 h -2.598 l 1.462,-8.334 h 12.395 L 228.87,33.548 C 224.467,35.183 220.047,36 215.608,36 c -4.439,0 -7.645,-0.89 -9.617,-2.67 -1.961,-1.779 -2.941,-4.521 -2.941,-8.225 0,-1.562 0.252,-3.868 0.758,-6.919 1.082,-6.32 2.995,-10.878 5.737,-13.673 2.743,-2.797 7.29,-4.195 13.641,-4.195 1.335,0 3.037,0.145 5.106,0.436 2.081,0.29 3.609,0.617 4.583,0.98 l -2.977,8.335 c -2.706,-0.508 -5.191,-0.763 -7.452,-0.763 -2.25,0 -3.861,0.182 -4.835,0.545 -0.975,0.363 -1.552,1.09 -1.732,2.18 l -2.653,15.416 h 3.41 c 1.227,0 2.135,-0.132 2.725,-0.4 0.601,-0.278 0.992,-0.908 1.173,-1.888 z m 12.341,9.424 3.032,-8.988 c 3.031,0.835 5.81,1.253 8.336,1.253 2.526,0 4.565,-0.109 6.116,-0.327 l 0.433,-2.724 -4.492,-0.435 c -3.429,-0.327 -5.859,-1.108 -7.29,-2.343 -1.42,-1.235 -2.129,-2.978 -2.129,-5.23 0,-0.981 0.108,-2.07 0.325,-3.268 0.83,-4.649 2.333,-7.845 4.511,-9.588 2.188,-1.743 5.575,-2.615 10.158,-2.615 4.583,0 8.625,0.454 12.125,1.362 l -2.815,8.716 c -3.139,-0.545 -5.665,-0.817 -7.578,-0.817 -1.913,0 -3.536,0.091 -4.872,0.272 l -0.433,2.67 3.627,0.381 c 3.681,0.4 6.297,1.283 7.849,2.651 1.552,1.357 2.327,3.178 2.327,5.466 0,2.324 -0.505,4.721 -1.515,7.19 -0.505,1.272 -1.059,2.337 -1.66,3.197 -0.59,0.847 -1.348,1.567 -2.274,2.161 -0.914,0.604 -1.75,1.058 -2.508,1.361 -0.757,0.314 -1.714,0.546 -2.868,0.691 -1.697,0.253 -3.772,0.381 -6.225,0.381 -4.475,0 -8.535,-0.472 -12.18,-1.417 z"
     style="white-space:pre;fill:#ffffff"
     id="path2" />
  <path
     d="M 26.074,24.253 V 21.106 L 23.236,20.057 C 22.989,19.095 22.659,18.19 22.168,17.354 l 0.029,-0.004 1.349,-2.831 -2.204,-2.224 -2.81,1.348 -0.003,0.004 C 17.7,13.153 16.8,12.84 15.846,12.591 L 14.804,9.706 h -3.128 l -1.041,2.885 C 9.678,12.84 8.778,13.187 7.95,13.681 L 7.944,13.659 5.132,12.302 2.921,14.523 4.26,17.352 4.264,17.356 C 3.773,18.19 3.287,19.097 3.04,20.059 L 0,21.106 v 3.147 l 3.04,1.049 c 0.247,0.961 0.681,1.869 1.171,2.702 l 0.022,0.004 -1.324,2.831 2.217,2.226 2.817,-1.347 0.005,-0.003 c 0.828,0.492 1.73,0.953 2.685,1.201 l 1.043,3.033 h 3.128 l 1.042,-3.033 c 0.956,-0.248 1.856,-0.67 2.684,-1.164 l 0.006,-0.014 2.813,1.336 2.21,-2.23 -1.339,-2.834 -0.003,-0.004 c 0.49,-0.835 0.772,-1.743 1.019,-2.704 z M 13.24,27.925 c -2.878,0 -5.213,-2.348 -5.213,-5.245 0,-2.896 2.335,-5.246 5.213,-5.246 2.88,0 5.213,2.35 5.213,5.246 0,2.897 -2.333,5.245 -5.213,5.245 z"
     style="fill:#ffffff"
     id="path4" />
  <path
     d="M 36.07,5.237 35.386,3.576 33.616,3.664 C 33.277,3.21 32.884,2.815 32.444,2.483 L 32.445,2.479 32.539,0.69 30.888,0 29.696,1.331 V 1.334 C 29.151,1.257 28.591,1.251 28.034,1.331 L 26.841,0 25.19,0.688 25.282,2.477 c -0.449,0.341 -0.841,0.742 -1.173,1.185 l -0.001,-10e-4 -1.779,-0.092 -0.682,1.66 1.32,1.199 0.004,0.002 c -0.063,0.514 -0.09,1.115 -0.011,1.677 l -1.332,1.203 0.684,1.662 1.787,-0.097 c 0.339,0.454 0.741,0.847 1.181,1.179 v 0.004 l -0.09,1.788 1.81,0.688 1.35,-1.331 V 13.2 c 0.35,0.065 0.947,0.081 1.504,0.003 l 1.114,1.331 1.611,-0.688 -0.112,-1.788 c 0.451,-0.341 0.834,-0.743 1.164,-1.186 l -0.002,10e-4 1.775,0.092 L 36.087,9.303 34.764,8.105 34.76,8.103 C 34.838,7.554 34.834,6.994 34.757,6.434 Z m -6.066,4.8 c -1.519,0.631 -3.26,-0.094 -3.89,-1.624 -0.63,-1.529 0.092,-3.281 1.611,-3.915 1.521,-0.633 3.262,0.092 3.892,1.622 0.628,1.531 -0.094,3.283 -1.613,3.917 z"
     style="fill:#ffffff"
     id="path6" />
</svg>
