<?xml version="1.0" encoding="utf-8"?>
<!DOCTYPE svg PUBLIC "-//W3C//DTD SVG 20010904//EN" "http://www.w3.org/TR/2001/REC-SVG-20010904/DTD/svg10.dtd">
<svg version="1.0" xmlns="http://www.w3.org/2000/svg" width="1160px" height="450px" viewBox="0 0 1160 450" preserveAspectRatio="xMidYMid meet">
   <defs>
      <linearGradient id="lg0" gradientUnits="userSpaceOnUse" x1="49.956898%" y1="0.0%" x2="49.956898%" y2="99.44444%">
         <stop offset="0%" style="stop-color:rgb(0,0,0);"></stop>
         <stop offset="1%" style="stop-color:rgb(26,134,167);"></stop>
         <stop offset="9%" style="stop-color:rgb(30,139,171);"></stop>
         <stop offset="10%" style="stop-color:rgb(35,143,175);"></stop>
         <stop offset="100%" style="stop-color:rgb(72,201,230);"></stop>
      </linearGradient>
   </defs>
 <g fill="#b83b0a">
  <path d="M0 225 l0 -225 580 0 580 0 0 225 0 225 -580 0 -580 0 0 -225z"/>
 </g>
 <g fill="#ff640d">
  <path d="M0 225 l0 -225 580 0 580 0 0 225 0 225 -580 0 -580 0 0 -225z m201.40 160 l0.10 -24.80 -19.35 -19.35 c-10.65 -10.65 -19.55 -19.35 -19.75 -19.35 -0.55 0 -0.50 0.20 0.40 3.40 1.05 3.60 0.70 9.55 -0.75 12.80 -0.55 1.30 -2.30 3.55 -3.85 5.05 -2.60 2.50 -3.10 3.75 -1.45 3.75 1.30 0 5.70 4.55 7.05 7.35 1.85 3.75 2.25 10.20 0.95 14.20 -2 6.05 -5.85 9.85 -12.10 12 -1.60 0.50 -3.35 1.25 -3.90 1.60 -0.75 0.45 -6.10 0.65 -19.50 0.85 l-18.50 0.25 13.50 13.60 13.50 13.60 31.75 -0.10 31.75 -0.10 0.15 -24.75z m147.35 -8.25 l0 -33 -15.40 -15.25 c-8.45 -8.40 -15.70 -15.30 -16.10 -15.40 -0.65 -0.15 -0.75 2.65 -0.75 22.25 0 14.10 -0.20 22.65 -0.50 22.95 -0.25 0.25 -0.95 2.25 -1.50 4.40 -0.55 2.10 -1.60 5.05 -2.35 6.45 -1.80 3.40 -6.80 8.30 -9.90 9.75 -1.40 0.65 -3.60 1.75 -5 2.45 -1.80 0.95 -3.55 1.35 -6.25 1.50 -5.90 0.35 -14.25 -0.55 -18.45 -2 -2.05 -0.75 -3.95 -1.20 -4.20 -1 -0.25 0.15 6.25 7 14.45 15.20 l14.95 14.95 25.50 -0.10 25.50 -0.15 0 -33z m147.75 10.55 c0 -13.80 -0.20 -22.80 -0.45 -22.90 -0.30 -0.05 -12.30 -11.90 -26.75 -26.25 -14.40 -14.40 -26.35 -26.15 -26.50 -26.15 -0.15 0 -0.30 15.60 -0.30 34.70 l0 34.70 -8.70 0.20 c-4.80 0.05 -8.90 0.30 -9.05 0.50 -0.20 0.20 5.80 6.55 13.30 14.10 l13.70 13.80 22.40 0 22.35 0 0 -22.70z m147.50 8 l-0.05 -14.50 -34.35 -34.15 c-18.90 -18.75 -34.50 -34.15 -34.65 -34.15 -0.60 0 -1 17.85 -0.85 35.50 l0.15 17.25 15.65 0.15 15.60 0.10 0 7.95 c0 5.95 -0.15 8.05 -0.65 8.45 -0.45 0.40 -7.95 0.60 -23.70 0.70 -12.70 0.10 -23.25 0.35 -23.45 0.55 -0.25 0.20 5.55 6.35 12.80 13.60 l13.25 13.25 30.15 -0.10 30.20 -0.15 -0.10 -14.45z m147.90 -9.05 l0.10 -23.50 -17.25 -17.25 c-9.50 -9.50 -17.40 -17.35 -17.50 -17.45 -0.10 -0.10 -0.55 -0.05 -0.95 0.10 -0.60 0.25 -0.45 1.05 0.85 4.70 1.30 3.75 1.55 5.35 1.75 10.75 0.40 10.65 -1.05 17.10 -5.20 23.40 -2.70 4.10 -3.30 4.75 -6.70 7.50 -3.20 2.60 -7.45 4.65 -12.05 5.75 -1.75 0.45 -3.65 1.05 -4.20 1.35 -0.70 0.45 -5.60 0.65 -16 0.80 -8.25 0.10 -15.30 0.25 -15.70 0.40 -0.50 0.15 4 4.95 12.75 13.70 l13.45 13.50 33.25 -0.10 33.25 -0.15 0.15 -23.50z m147.60 1.05 c0 -13.80 -0.20 -22.80 -0.45 -22.90 -0.30 -0.05 -12.20 -11.80 -26.45 -26 -14.30 -14.25 -26.30 -25.90 -26.70 -25.90 -0.55 0 -0.65 5.85 -0.50 34.50 l0.10 34.50 -1.10 0.20 c-0.65 0.15 -4.35 0.35 -8.20 0.45 -3.90 0.10 -7.30 0.35 -7.55 0.50 -0.25 0.15 5.50 6.40 12.80 13.85 l13.30 13.50 22.40 0 22.35 0 0 -22.70z m147.65 -10.50 l0.10 -32.95 -15.75 -15.70 c-8.65 -8.60 -16 -15.65 -16.35 -15.65 -0.45 0 -0.65 1.90 -0.75 7.30 l-0.15 7.30 -10.20 -0.10 c-7.05 0 -10.35 0.15 -10.85 0.55 -0.80 0.65 -0.95 1.65 -0.20 1.20 0.35 -0.20 0.50 8.60 0.50 26.05 0 24.50 -0.05 26.40 -0.85 27 -0.65 0.50 -3 0.65 -8.75 0.70 -4.35 0 -7.90 0.15 -7.90 0.35 0 0.20 5.90 6.35 13.15 13.70 l13.10 13.30 22.40 -0.05 22.40 -0.05 0.10 -32.95z m-943.65 -11.05 c3.35 -1.75 4.75 -5.45 3.25 -8.75 -1.50 -3.40 -2.50 -3.75 -10.95 -3.90 -4.35 -0.10 -7.60 0 -7.90 0.30 -0.50 0.50 -0.95 10.55 -0.55 12.15 0.25 0.85 0.85 0.95 7.50 0.95 5.40 0 7.55 -0.20 8.65 -0.75z m146.25 -0.20 c2.60 -1.20 4.90 -3.70 6.35 -6.80 1.05 -2.30 1.15 -3.30 1.30 -12.70 l0.20 -10.20 -11.40 -11.40 c-6.30 -6.30 -11.65 -11.45 -12 -11.45 -1.05 0 -1.70 37.30 -0.70 42.45 1 5.35 3.30 8.30 7.65 10 3.25 1.25 6.05 1.30 8.60 0.10z m439.60 -0.65 c1.70 -0.40 3.15 -1.35 5.70 -3.75 4.70 -4.45 5.55 -6.75 5.50 -14.95 0 -5.65 -0.10 -6.35 -1.45 -9.30 -1.75 -3.85 -5 -6.90 -9.05 -8.45 -2.25 -0.90 -3.90 -1.10 -8.55 -1.15 l-5.75 -0.05 -0.15 19.15 -0.10 19.10 5.75 0 c3.20 0 6.85 -0.25 8.10 -0.60z m284.15 -27.20 c0 -6.35 0.15 -9.65 0.50 -9.45 0.30 0.15 0.50 0.10 0.50 -0.15 0 -0.90 -2.20 -1.10 -11.60 -1.10 -7.15 0 -9.40 0.15 -9.40 0.60 0 0.70 18.95 19.90 19.60 19.90 0.25 0 0.40 -4.40 0.40 -9.80z m-869.45 -0.70 c1.20 -1.40 1.45 -2.20 1.45 -4.30 0 -3.15 -1.25 -4.95 -3.90 -5.70 -2.70 -0.75 -13.35 -0.65 -13.95 0.15 -0.60 0.70 -0.55 10.35 0.05 11.30 0.30 0.45 2.15 0.60 7.65 0.45 l7.25 -0.15 1.45 -1.75z"/>
 </g>
 <g fill="#299cbb">
  <path fill="url(#lg0)" d="M0 225 l0 -225 580 0 580 0 0 225 0 225 -580 0 -580 0 0 -225z m201.25 121.50 l0 -63.25 -63.75 0 -63.75 0 -0.15 62.75 c-0.05 34.50 0 63.05 0.15 63.40 0.15 0.50 13.20 0.60 63.85 0.50 l63.65 -0.15 0 -63.25z m147.65 -0.15 l0.10 -63.35 -63.85 0.10 -63.90 0.15 -0.15 62.75 c-0.05 34.50 0 63.05 0.15 63.40 0.15 0.50 13.20 0.60 63.85 0.50 l63.65 -0.15 0.15 -63.40z m147.60 0.15 l0 -63.50 -63.60 0.10 -63.65 0.15 -0.15 62.75 c-0.05 34.50 0 63.05 0.15 63.40 0.15 0.45 13.40 0.60 63.75 0.60 l63.50 0 0 -63.50z m147.60 63.15 c0.10 -0.25 0.10 -28.80 0 -63.50 l-0.10 -63.15 -63.15 0 c-48.45 0 -63.30 0.15 -63.75 0.60 -0.45 0.45 -0.60 15.15 -0.60 63.15 0 34.45 0.15 62.75 0.35 62.90 0.45 0.50 127.05 0.45 127.25 0z m147.80 -63.30 l0.10 -63.35 -63.85 0.10 -63.90 0.15 -0.10 62.65 c-0.05 34.40 0 62.95 0.15 63.35 0.25 0.65 7.80 0.75 63.90 0.65 l63.55 -0.15 0.15 -63.40z m147.60 0.15 l0 -63.50 -63.60 0.10 -63.65 0.15 -0.15 62.75 c-0.05 34.50 0 63.05 0.15 63.40 0.15 0.45 13.40 0.60 63.75 0.60 l63.50 0 0 -63.50z m147.70 0.50 c0.15 -34.50 0.10 -63.05 -0.10 -63.40 -0.35 -0.50 -13.45 -0.60 -63.90 -0.50 l-63.45 0.15 -0.15 62.75 c-0.05 34.50 0 63.05 0.15 63.40 0.15 0.50 13.20 0.60 63.70 0.50 l63.50 -0.15 0.25 -62.75z"/>
 </g>
 <g fill="#43c1de">
  <path fill="url(#lg0)" d="M0 365.50 l0 -84.45 35.90 -0.15 c19.70 -0.10 35.90 -0.15 35.95 -0.10 0.05 0 -0.10 0.85 -0.40 1.90 -0.40 1.40 -0.40 2.05 0.05 2.30 1 0.65 1.45 17.55 1.75 71.25 0.15 29.15 0.45 53.15 0.65 53.35 0.25 0.25 28.95 0.35 63.90 0.30 l63.45 -0.15 0.15 -51.15 c0.05 -33.80 0.25 -51.05 0.60 -50.85 0.35 0.20 0.50 -3.05 0.50 -9.25 0 -6.25 0.15 -9.45 0.50 -9.25 0.50 0.30 0.65 -1.50 0.50 -5.60 -0.10 -2.55 -0.10 -2.55 7.75 -2.85 3.05 -0.10 6.05 -0.25 6.75 -0.35 1.20 -0.20 1.25 -0.10 1.15 2.20 -0.05 1.30 0.15 2.25 0.40 2.05 0.25 -0.15 0.45 0.65 0.45 1.75 0 1.15 0.20 2.05 0.50 2.05 0.35 0 0.55 20.80 0.60 60.65 l0.15 60.60 63.75 0 63.75 0 0.25 -58.50 c0.15 -32.15 0.35 -58.25 0.45 -58 0.35 1.10 1.20 -3.20 1.35 -6.90 0.05 -2.15 0.25 -4.25 0.40 -4.65 0.20 -0.55 1.60 -0.70 6.65 -0.70 3.50 0 6.75 -0.20 7.10 -0.45 1.40 -0.90 2.45 0.25 2.40 2.55 0 1.35 0.20 2.10 0.60 2 0.30 -0.05 0.60 -0.05 0.65 0 0.05 0.10 0.25 28.15 0.40 62.40 l0.25 62.25 63.65 0.15 63.60 0.10 0.10 -63.60 c0 -35 0.05 -64 0 -64.45 -0.05 -0.65 0.95 -0.80 7.15 -0.90 3.95 -0.05 7.90 -0.30 8.75 -0.55 1.25 -0.35 1.60 -0.25 2 0.55 0.40 0.65 0.35 1.25 0 2 -0.35 0.55 -0.45 1.80 -0.25 2.85 0.20 1 0.45 4.10 0.60 6.85 0.15 2.75 0.45 5.25 0.65 5.50 0.20 0.30 0.45 9.40 0.50 20.25 0.10 10.85 0.25 35.85 0.45 55.50 l0.30 35.75 63.65 0 63.65 0 -0.05 -43.40 c0 -29.30 0.15 -43.30 0.50 -43.10 0.35 0.20 0.50 -2.60 0.55 -8.35 0.10 -19 0.40 -23.35 1.75 -26 0.45 -0.90 0.60 -1.70 0.30 -2.05 -0.25 -0.35 -0.50 -1.65 -0.55 -2.90 -0.15 -2.85 0.10 -2.95 7.20 -2.95 2.75 0 5.75 -0.20 6.65 -0.45 1.40 -0.45 1.60 -0.35 1.60 0.50 0 0.85 0.15 0.90 1 0.45 0.75 -0.40 1 -0.40 1 0.10 -0.05 59.60 0.10 127.10 0.30 127.65 0.25 0.65 7.75 0.75 63.70 0.75 36.55 0 63.55 -0.20 63.70 -0.45 0.15 -0.25 0.30 -24 0.30 -52.75 0 -34.15 0.20 -52.25 0.50 -52.05 0.30 0.20 0.50 -2.05 0.55 -6.10 0.05 -6.20 0.35 -14.40 0.45 -14.40 0.05 0 0.20 -0.65 0.30 -1.50 0.15 -0.80 0.30 -1.50 0.35 -1.55 0.05 -0.05 3.65 -0.20 8 -0.30 l7.85 -0.20 0 2.95 c0 2.40 0.15 2.90 0.75 2.65 0.95 -0.35 0.85 -6.30 1.20 64.95 l0.30 58.50 63.65 0.15 63.60 0.10 0 -56.55 c0 -50.25 0.10 -56.50 0.75 -55.95 0.65 0.55 0.75 0.10 0.75 -3.65 0 -3.15 0.20 -4.40 0.75 -4.85 0.85 -0.70 1.05 -4.50 0.25 -4.50 -0.25 0 -0.50 -0.65 -0.50 -1.50 0 -1.75 0.35 -1.85 9.90 -2.20 l6.65 -0.25 -0.35 1.10 c-0.55 1.65 -0.35 5.90 0.35 7.60 0.85 2.10 1 9.70 1.40 68.75 l0.30 51.75 63.50 0.15 c59.25 0.10 63.55 0.05 64.15 -0.75 0.45 -0.65 0.60 -7.75 0.60 -31.55 0 -16.85 -0.15 -30.55 -0.35 -30.45 -0.55 0.35 -0.20 -48.70 0.35 -49.90 0.45 -1 1 -6.45 1.20 -12.15 0.10 -2.10 0.35 -3.35 0.85 -3.65 0.40 -0.25 15.70 -0.45 35.35 -0.45 l34.60 0 0 84.50 0 84.50 -580 0 -580 0 0 -84.50z"/>
  <path d="M112.45 253.80 c-0.10 -0.15 -2.35 -0.50 -4.95 -0.75 -5.80 -0.65 -11.75 -1.70 -15.75 -2.80 -7.90 -2.10 -16.60 -5.35 -16.40 -6.15 0.05 -0.30 -0.70 -0.85 -1.75 -1.25 -5.75 -2.30 -14.60 -7.15 -20.65 -11.30 -5.70 -3.90 -12.45 -9.75 -12.45 -10.75 0 -0.95 1.85 -3.35 7.50 -9.80 1.85 -2.05 6.90 -8.15 11.25 -13.50 10.45 -12.85 15.20 -18.20 16.35 -18.40 0.50 -0.10 2.85 1.30 5.55 3.30 16.50 12.35 33.40 18.85 46.75 17.90 10.35 -0.75 16.60 -4.85 16.60 -11.05 0 -1.55 -0.40 -2.25 -2.60 -4.45 -2.95 -2.90 -5.90 -4.45 -15.65 -8.30 -3.55 -1.40 -6.95 -2.75 -7.50 -2.95 -0.55 -0.25 -1.80 -0.75 -2.75 -1.05 -1.60 -0.60 -3.60 -1.40 -6.25 -2.55 -1.30 -0.50 -3.20 -1.30 -12.85 -5.20 -9.15 -3.75 -13.45 -5.85 -19.35 -9.50 -13.05 -8.10 -21.20 -19.70 -24.30 -34.55 -0.40 -1.85 -0.95 -3.50 -1.30 -3.75 -0.40 -0.25 -0.50 -1.30 -0.30 -3.40 0.15 -1.70 0.05 -3.05 -0.20 -3.05 -0.50 0 -0.60 -8.15 -0.10 -8.65 0.20 -0.20 0.30 -1.65 0.30 -3.25 l-0.05 -2.85 0.40 2.50 0.35 2.50 0.05 -2.15 c0.20 -5.30 2.75 -13.45 6.40 -20.70 2.60 -5.15 6.15 -9.70 11.75 -15.20 7.90 -7.60 16.85 -13.35 24.95 -15.95 1.50 -0.50 3.45 -1.15 4.25 -1.50 0.85 -0.35 2.50 -0.90 3.75 -1.25 1.25 -0.35 2.75 -0.80 3.40 -1.05 0.65 -0.25 1.70 -0.45 2.40 -0.45 0.70 0 2 -0.30 2.85 -0.70 2.25 -1 4.85 -1.30 15.10 -1.65 11.25 -0.35 18.35 0.55 29 3.65 2.50 0.70 5 1.40 5.65 1.55 0.60 0.15 1.25 0.45 1.40 0.70 0.15 0.25 0.60 0.45 1 0.45 1.95 0 15.95 7.35 23.20 12.20 5.90 3.90 13.75 10.15 14.70 11.75 0.45 0.70 0.55 0.50 -22.20 28.80 -0.95 1.20 -3.20 4 -4.95 6.20 -1.75 2.25 -3.40 4.05 -3.70 4.05 -0.25 0 -1.60 -1 -3 -2.20 -5.25 -4.45 -13.65 -9.15 -20.35 -11.35 -11.35 -3.70 -24.70 -3.90 -31.45 -0.50 -3 1.55 -5.05 4.20 -5.05 6.60 0 5.20 2.80 7.15 19.75 13.95 4.95 1.95 9.45 3.80 10 4.05 0.55 0.20 6.95 2.80 14.25 5.70 19.30 7.75 25.70 11.45 33.80 19.45 6.65 6.60 10.45 12.90 13.40 22.30 1.15 3.55 2.35 11.55 2.30 14.90 0 0.75 0.20 1.05 0.60 0.80 0.85 -0.55 0.05 11.75 -1.10 16.30 -2.20 8.90 -2.40 9.45 -5.90 16.25 -0.45 0.85 -1.50 2.20 -2.45 3.10 -0.90 0.85 -2.80 3.10 -4.20 5 -3.60 4.70 -5.50 6.70 -10.70 10.85 -11.80 9.55 -21.20 14.25 -33 16.60 -2.90 0.55 -10.85 1.65 -12.40 1.70 -0.25 0 -0.25 0.25 -0.10 0.50 0.30 0.50 -22.80 0.75 -23.30 0.30z"/>
  <path d="M622.75 253.45 c-11.20 -1.60 -15.45 -2.55 -22.10 -4.75 -6 -2.05 -12.90 -5.10 -12.45 -5.55 0.15 -0.20 -1.90 -1.50 -4.60 -2.90 -18.60 -9.75 -34.70 -26.40 -44.95 -46.55 -3.80 -7.45 -7.75 -18.85 -9.15 -26.45 -1 -5.50 -2 -15.95 -2 -20.75 0 -6 1.15 -16.50 2.55 -22.85 4.20 -19.50 15 -38.75 29.80 -53.20 7.55 -7.35 16.45 -13.85 25 -18.10 4.60 -2.35 11.70 -5.30 14.90 -6.20 1.40 -0.40 2.95 -0.90 3.50 -1.10 2.25 -0.90 4.65 -1.55 5.90 -1.55 0.70 0 1.45 -0.20 1.60 -0.50 0.15 -0.25 1.10 -0.50 2.05 -0.50 1 0 2.25 -0.25 2.85 -0.60 2.65 -1.50 23.45 -2.40 31.35 -1.45 15.80 2 29.25 6.50 41.50 13.95 13.50 8.20 23.15 16.65 31.10 27.15 5.05 6.65 4.95 6.10 1.35 8.30 -1.65 1.05 -7.20 4.65 -12.25 8.05 -5.10 3.35 -9.35 6.10 -9.45 6.10 -0.10 0 -3.05 1.85 -6.60 4.10 -3.50 2.20 -8.20 5.15 -10.40 6.55 -2.20 1.35 -5.90 3.70 -8.15 5.25 l-4.20 2.80 -3.80 -4.05 c-5.55 -5.85 -10.15 -8.85 -19.35 -12.65 -3.30 -1.35 -20.20 -1 -23.20 0.50 -0.45 0.20 -1.70 0.65 -2.80 1 -10.25 3.05 -19.40 11.50 -24.30 22.30 -1.65 3.65 -3.50 10.20 -2.90 10.20 0.65 0 0.55 1.90 -0.15 3.15 -0.55 1 -0.65 6.50 -0.20 9.35 1.55 9.35 7.50 20.15 14.40 25.90 8.10 6.80 17.90 10.05 30.15 10.10 4.55 0 6.05 -0.20 8.75 -1.20 7.90 -2.85 14.35 -7.05 19.35 -12.60 1.85 -2.05 3.60 -3.70 3.90 -3.70 0.25 0 3.75 2.05 7.75 4.55 4 2.55 11.65 7.35 17 10.70 5.35 3.35 12.80 8.10 16.50 10.55 3.70 2.45 7 4.55 7.25 4.70 1.30 0.65 4.60 2.95 5.10 3.55 1.45 1.75 -14.30 19.35 -23.25 26.05 -12.10 9.05 -25.90 15.95 -38.10 18.95 -3.85 1 -11.85 2.45 -13.25 2.45 -2.10 0 -3.80 0.55 -3.45 1.05 0.35 0.55 -18.50 0.50 -22.55 -0.10z"/>
  <path d="M222.15 249 c-1.60 -0.65 -1.70 -1.70 -1.45 -11.25 0.15 -4.65 0.40 -49.80 0.60 -100.30 l0.35 -91.85 31.05 -0.20 c17.10 -0.10 31.10 -0.20 31.10 -0.20 0.10 0.05 0.35 201.30 0.25 202.20 -0.05 0.45 -6.75 0.65 -31.40 0.70 l-31.40 0.15 31.50 0.25 c17.35 0.15 30.55 0.40 29.35 0.65 -2.95 0.50 -58.60 0.35 -59.95 -0.15z"/>
  <path d="M298.05 248.65 c-1.05 -0.90 -1.10 -1.05 -0.55 -4.40 0.30 -1.95 0.75 -4.30 1 -5.25 0.25 -0.95 0.80 -4.20 1.25 -7.25 0.45 -3 1.35 -9 2.05 -13.25 0.70 -4.25 1.45 -9.10 1.60 -10.75 0.40 -3.25 0.90 -4.45 1.65 -4 0.25 0.20 0.45 -0.40 0.45 -1.30 0 -1.60 0.40 -4.40 2.80 -18.70 0.75 -4.40 1.50 -9.10 1.70 -10.50 0.45 -3.05 1.80 -11.85 2.50 -16.25 0.30 -1.80 0.75 -4.60 1 -6.25 0.25 -1.65 0.55 -3.80 0.75 -4.75 0.65 -3.80 1.30 -7.60 2.50 -15.25 0.70 -4.40 1.45 -9.10 1.75 -10.50 0.25 -1.35 0.60 -3.30 0.75 -4.25 0.30 -2.20 1.10 -6.95 1.75 -10.50 0.30 -1.50 0.70 -4.10 1 -5.75 0.25 -1.65 0.70 -4.25 0.95 -5.75 0.90 -4.75 2.05 -12.05 2.85 -17.75 0.40 -3 1 -6.20 1.25 -7.05 0.25 -0.85 0.45 -2.15 0.45 -2.90 0 -0.75 0.20 -2.30 0.45 -3.45 0.30 -1.15 1 -5.50 1.60 -9.70 l1.10 -7.55 4.55 -0.35 c2.50 -0.15 15.80 -0.25 29.55 -0.15 l25 0.15 1.90 7.50 c1.05 4.15 2.45 9.75 3.10 12.50 0.70 2.75 2.20 8.85 3.40 13.50 6.85 26.50 8.55 33.05 9.90 38.50 0.80 3.30 1.65 6.70 1.90 7.50 0.50 1.55 1.90 7.85 2.15 9.40 0.40 2.55 1.35 0.20 3.50 -8.40 1.30 -5.20 4.05 -16.35 6.15 -24.75 2.10 -8.40 4.70 -18.85 5.80 -23.25 1.05 -4.40 2.40 -9.45 2.95 -11.25 0.50 -1.80 1.20 -4.25 1.50 -5.50 0.30 -1.25 0.75 -2.90 1 -3.75 0.20 -0.80 0.70 -2.75 1.05 -4.25 0.30 -1.50 0.90 -3.95 1.30 -5.35 l0.70 -2.65 29.45 0 29.45 0 0.25 1.65 c0.50 3.05 1.80 11.60 2.35 15.35 0.30 2.05 0.65 4.20 0.75 4.75 0.15 0.55 0.45 2.35 0.70 4 0.25 1.65 0.75 5.05 1.20 7.50 0.40 2.50 1.10 6.85 1.55 9.75 0.40 2.90 1 6.40 1.25 7.75 0.45 2.45 0.70 4.25 2.30 15 1 7 1.75 10.20 1.35 6 -0.15 -1.65 -0.10 -2.85 0.10 -2.65 0.20 0.20 0.45 2.45 0.50 5 0.05 2.55 0.40 6.10 0.70 7.90 0.55 3.20 1.20 6.75 2.05 11.75 0.75 4.15 1.65 9.90 1.75 11.25 0.05 0.70 0.35 2.15 0.65 3.25 0.30 1.10 0.65 3.45 0.85 5.25 0.15 1.80 0.50 3.95 0.75 4.75 0.25 0.85 0.85 4 1.30 7 0.45 3.05 1.05 6.65 1.25 8 0.80 4.70 2 12.10 3.20 20 0.85 5.60 1.45 9.55 2.20 14 2.25 13.55 3.20 19.45 3.60 22.25 0.25 1.80 0.70 4.60 0.95 6.25 0.30 1.65 0.65 4.20 0.80 5.65 l0.30 2.60 -2.15 0.05 c-1.20 0 -15.35 0 -31.45 -0.05 -22.10 -0.05 -29.40 -0.20 -29.80 -0.65 -0.30 -0.35 -0.95 -3.50 -1.45 -7.10 -0.45 -3.55 -1 -7.55 -1.20 -8.85 -0.25 -1.45 -0.20 -2.45 0.10 -2.55 0.45 -0.15 0.05 -3.20 -1.65 -14.10 -0.60 -3.60 -1.50 -9.50 -2.05 -13.25 -1.45 -9.65 -2.15 -14.40 -2.95 -19.50 -0.35 -2.05 -0.85 -5.90 -1.20 -8.50 -0.45 -3.65 -0.75 -4.80 -1.35 -4.90 -0.60 -0.10 -0.90 0.40 -1.10 2 -0.20 1.20 -0.55 3.05 -0.80 4.15 -0.25 1.10 -0.80 3.90 -1.25 6.25 -0.50 2.35 -1.15 5.60 -1.55 7.25 -1.30 5.70 -3.35 15 -4.05 18.75 -0.40 2.05 -0.90 4.75 -1.20 6 -0.30 1.25 -0.70 3.40 -0.95 4.75 -0.40 2.15 -1.15 5.60 -3.55 16.75 -0.20 0.95 -0.85 4 -1.45 6.75 -0.60 2.75 -1.35 5.20 -1.70 5.50 -0.40 0.30 -8.10 0.45 -22.45 0.35 -21.10 -0.10 -21.85 -0.15 -22.15 -1.10 -0.30 -0.95 -1.05 -4.75 -1.60 -8 -0.15 -0.95 -0.55 -1.95 -0.90 -2.25 -0.75 -0.60 -2.30 -8.15 -1.95 -9.55 0.15 -0.50 -0.35 -3.40 -1.05 -6.45 -0.70 -3 -1.70 -7.85 -2.30 -10.75 -0.55 -2.90 -1.20 -5.95 -1.45 -6.80 -0.30 -0.85 -0.50 -1.95 -0.50 -2.45 0 -0.50 -0.20 -1.60 -0.45 -2.45 -0.25 -0.85 -0.70 -2.80 -1.05 -4.30 -0.30 -1.50 -0.75 -3.55 -0.95 -4.50 -0.25 -0.95 -0.95 -4 -1.55 -6.75 -0.60 -2.75 -1.30 -5.65 -1.55 -6.45 -0.25 -0.80 -0.45 -2 -0.45 -2.60 0 -1.35 -0.75 -1.55 -1.75 -0.50 -0.95 0.95 -1.35 2.80 -3.25 15.40 -0.25 1.75 -0.60 4 -0.75 5.05 -0.20 1.30 -0.15 1.85 0.20 1.60 0.55 -0.30 0.30 3 -0.50 6.25 -0.20 0.95 -0.55 3.50 -0.75 5.60 -0.20 2.15 -0.45 3.80 -0.65 3.70 -0.15 -0.10 -0.35 1.40 -0.45 3.35 -0.05 2.05 -0.40 3.70 -0.70 3.90 -0.35 0.25 -0.55 1.35 -0.45 2.90 0.05 1.50 -0.15 2.95 -0.60 3.65 -0.40 0.65 -1.10 3.85 -1.60 7.15 -1.60 11.35 -1.75 12.50 -2.20 14.65 -0.25 1.15 -0.60 2.30 -0.80 2.50 -0.15 0.20 -14 0.40 -30.70 0.50 -28.65 0.15 -30.45 0.10 -31.50 -0.75z"/>
  <path d="M739.30 248.85 c-0.75 -0.55 -0.80 -7.45 -0.75 -98.85 0.05 -54.05 0.20 -99.60 0.40 -101.25 l0.30 -3 31.05 -0.15 31.05 -0.10 0.30 59.85 c0.35 74.15 -0.05 143.25 -0.85 143.75 -0.30 0.20 -14.05 0.35 -30.60 0.35 -22.95 0 -30.25 -0.10 -30.90 -0.60z"/>
  <path d="M863 249.15 c-0.70 -0.15 -1.40 -0.50 -1.60 -0.80 -0.50 -0.85 -0.35 -10.35 0.15 -10.35 0.25 0 0.30 -30 0.15 -69.85 l-0.30 -69.90 -21.45 -0.15 -21.45 -0.10 0 -26.05 c0 -17.20 0.15 -25.90 0.50 -25.70 0.30 0.15 0.50 0.05 0.50 -0.20 0 -0.40 27.05 -0.55 90.15 -0.55 l90.15 0 1.05 2.15 c0.60 1.15 3.15 5.70 5.75 10.15 2.55 4.40 7.90 14.05 11.90 21.35 4 7.35 7.50 13.30 7.75 13.30 0.30 0.05 2.75 -3.80 5.50 -8.50 11.90 -20.40 13.95 -23.95 16.15 -27.95 1.25 -2.35 3.10 -5.60 4.10 -7.25 l1.85 -3 4.95 -0.30 c2.70 -0.20 17.50 -0.35 32.85 -0.40 25.70 -0.05 27.85 0 27.85 0.80 0 0.45 -0.30 1.20 -0.65 1.60 -0.65 0.75 -8.85 14.85 -14.75 25.30 -7.15 12.75 -14.85 26.15 -15.60 27.25 -0.75 1.10 -6.50 11.10 -13.65 23.75 -1.35 2.50 -5.50 9.70 -9.20 16.05 l-6.70 11.55 0.10 30.45 c0.15 43 -0.05 65.85 -0.65 66.60 -0.60 0.70 -1.60 0.80 -1.15 0.10 0.20 -0.30 -10.40 -0.55 -30.85 -0.60 l-31.15 -0.15 -0.25 -48 -0.25 -48 -4.20 -7 c-2.35 -3.85 -5.75 -9.45 -7.60 -12.50 -1.90 -3 -6.95 -11.45 -11.25 -18.75 -4.35 -7.30 -8.20 -13.65 -8.60 -14.15 -0.70 -0.80 -2.10 -0.85 -19.05 -0.75 l-18.30 0.15 -0.25 75 c-0.15 41.25 -0.30 74.80 -0.40 74.50 -0.05 -0.25 -0.35 -0.15 -0.60 0.25 -0.40 0.65 -4.35 0.75 -30.35 0.80 -16.45 0.05 -30.45 -0.05 -31.15 -0.15z"/>
 </g>
 <g fill="#ffffff">
  <path d="M280.25 382.50 c-7.50 -0.70 -13.95 -3.75 -18.60 -8.65 -3.10 -3.25 -4.90 -6.70 -6.20 -11.75 -0.85 -3.45 -0.95 -5.65 -0.95 -27.20 l0 -23.40 9.15 0.10 9.10 0.15 0.25 22.25 c0.30 23.70 0.30 23.65 2.90 27.60 2.30 3.50 8.85 5.70 12.85 4.40 2.70 -0.90 5.95 -4.05 7.30 -7.15 1.20 -2.60 1.20 -2.65 1.35 -24.95 l0.15 -22.40 8.95 0 9 0 0 23.65 c0 21.95 -0.05 23.95 -1 27.55 -0.55 2.15 -1.60 5.05 -2.35 6.45 -1.80 3.40 -6.80 8.30 -9.90 9.75 -1.40 0.65 -3.60 1.75 -5 2.50 -2.15 1.10 -3.20 1.30 -7.75 1.40 -2.90 0.05 -7.05 -0.05 -9.25 -0.30z"/>
  <path d="M109.50 346.50 l0 -35 18.30 0 c17.20 0 18.55 0.05 21.90 1.05 3.65 1.10 7.75 3.45 9.65 5.50 0.60 0.65 1.70 2.55 2.50 4.20 1.25 2.65 1.40 3.55 1.40 8 -0.05 6.20 -1 8.65 -5.05 12.50 -2.60 2.50 -3.10 3.75 -1.45 3.75 1.30 0 5.70 4.55 7.05 7.35 1.85 3.75 2.25 10.20 0.95 14.20 -2.05 6.30 -5.85 9.90 -12.80 12.25 -3.50 1.20 -3.75 1.20 -23 1.20 l-19.45 0 0 -35z m34 19.25 c3.35 -1.75 4.75 -5.45 3.25 -8.75 -1.50 -3.40 -2.50 -3.75 -10.95 -3.90 -4.35 -0.10 -7.60 0 -7.90 0.30 -0.50 0.50 -0.95 10.55 -0.55 12.15 0.25 0.85 0.85 0.95 7.50 0.95 5.40 0 7.55 -0.20 8.65 -0.75z m0.55 -28.75 c1.20 -1.40 1.45 -2.20 1.45 -4.30 0 -3.15 -1.25 -4.95 -3.90 -5.70 -2.70 -0.75 -13.35 -0.65 -13.95 0.15 -0.60 0.70 -0.55 10.35 0.05 11.30 0.30 0.45 2.15 0.60 7.65 0.45 l7.25 -0.15 1.45 -1.75z"/>
  <path d="M423.50 346.50 l0 -35 9.40 0.10 9.35 0.15 0.15 34.90 0.20 34.85 -9.55 0 -9.55 0 0 -35z"/>
  <path d="M555.20 380.40 c0.15 -0.65 0.30 -16.40 0.30 -35 l0 -33.90 9.25 0 9.25 0 0.10 26.90 0.15 26.85 15.65 0.15 15.60 0.10 0 8 0 8 -25.30 0 -25.30 0 0.30 -1.10z"/>
  <path d="M697 346.50 l0 -35 17.05 0 c15.70 0 17.40 0.10 20.65 1 11.55 3.30 18.80 9.95 22.45 20.50 1.25 3.60 1.55 5.25 1.75 10.60 0.40 10.65 -1.05 17.10 -5.20 23.40 -2.70 4.10 -3.30 4.75 -6.70 7.50 -3.30 2.70 -7.50 4.65 -12.80 6 -3.55 0.90 -5.65 1 -20.55 1 l-16.65 0 0 -35z m32.35 18.40 c1.70 -0.40 3.15 -1.35 5.70 -3.75 4.75 -4.50 5.60 -6.85 5.60 -14.90 0 -5.60 -0.10 -6.20 -1.50 -9.25 -1.80 -3.95 -5.05 -7 -9.10 -8.55 -2.25 -0.90 -3.90 -1.10 -8.55 -1.15 l-5.75 -0.05 -0.15 19.15 -0.10 19.10 5.75 0 c3.20 0 6.85 -0.25 8.10 -0.60z"/>
  <path d="M866.50 346.50 l0 -35 9.20 0 c9.10 0 9.20 0 9.50 1.15 0.15 0.60 0.30 16.35 0.30 35 l0 33.85 -9.50 0 -9.50 0 0 -35z"/>
  <path d="M1014.40 354.55 l0.15 -26.95 -1.30 -0.30 c-0.75 -0.20 -5.65 -0.30 -10.90 -0.30 l-9.60 0.10 -0.15 -7.80 -0.15 -7.80 31.05 0 31.05 0 -0.15 7.80 -0.15 7.80 -10.20 -0.10 c-7.05 0 -10.35 0.15 -10.85 0.55 -0.60 0.50 -0.70 5 -0.70 27.25 l0 26.70 -9.10 0 -9.15 0 0.15 -26.95z"/>
  <path d="M114 253 c-1.25 -0.25 -4.30 -0.65 -6.85 -0.95 -9.10 -0.95 -25.30 -5.45 -34.60 -9.65 -5.65 -2.55 -6.70 -3.05 -11.50 -5.80 -9.15 -5.30 -20.55 -14 -20.55 -15.80 0 -0.95 1.85 -3.35 7.50 -9.80 1.85 -2.05 6.90 -8.15 11.25 -13.50 10.45 -12.85 15.20 -18.20 16.35 -18.40 0.50 -0.10 2.85 1.30 5.55 3.30 16.50 12.35 33.40 18.85 46.75 17.90 10.35 -0.75 16.60 -4.85 16.60 -11.05 0 -1.55 -0.40 -2.25 -2.60 -4.45 -2.95 -2.90 -5.90 -4.45 -15.65 -8.30 -3.55 -1.40 -6.95 -2.75 -7.50 -2.95 -0.55 -0.25 -1.80 -0.75 -2.75 -1.05 -1.60 -0.60 -3.60 -1.40 -6.25 -2.55 -1.30 -0.50 -3.20 -1.30 -12.85 -5.20 -9.15 -3.75 -13.45 -5.85 -19.35 -9.50 -11.20 -6.95 -18.55 -16.10 -22.45 -28 -2.35 -7 -2.75 -10.15 -2.75 -20.75 -0.05 -11 0.55 -14.60 3.40 -21.70 3.95 -9.85 7.20 -14.70 14.80 -22.10 7.90 -7.60 16.85 -13.35 24.95 -15.95 1.50 -0.50 3.45 -1.15 4.25 -1.50 0.85 -0.35 2.50 -0.90 3.75 -1.25 1.25 -0.35 2.75 -0.80 3.40 -1.05 0.65 -0.25 1.70 -0.45 2.40 -0.45 0.70 0 2 -0.30 2.85 -0.70 2.25 -1 4.85 -1.30 15.10 -1.65 11.25 -0.35 18.35 0.55 29 3.65 2.50 0.70 5 1.40 5.65 1.55 0.60 0.15 1.25 0.45 1.40 0.70 0.15 0.25 0.60 0.45 1 0.45 1.95 0 15.95 7.35 23.20 12.20 5.90 3.90 13.75 10.15 14.70 11.75 0.45 0.70 0.55 0.50 -22.20 28.80 -0.95 1.20 -3.20 4 -4.95 6.20 -1.75 2.25 -3.40 4.05 -3.70 4.05 -0.25 0 -1.60 -1 -3 -2.20 -5.25 -4.45 -13.65 -9.15 -20.35 -11.35 -11.35 -3.70 -24.70 -3.90 -31.45 -0.50 -3 1.55 -5.05 4.20 -5.05 6.60 0 5.20 2.80 7.15 19.75 13.95 4.95 1.95 9.45 3.80 10 4.05 0.55 0.20 6.95 2.80 14.25 5.70 19.30 7.75 25.70 11.45 33.80 19.45 12 11.90 16.80 26.15 15.40 45.80 -0.90 12.50 -5.55 23.75 -14.50 35.05 -4.60 5.80 -15.45 14.40 -23.45 18.60 -8.55 4.45 -14.65 6.35 -26 7.90 -4.70 0.70 -23.95 1 -26.75 0.45z"/>
  <path d="M628.75 253.30 c-0.25 -0.10 -2.50 -0.45 -5 -0.75 -6.75 -0.90 -16.50 -2.75 -18.50 -3.60 -0.55 -0.20 -3.40 -1.20 -6.35 -2.15 -16.65 -5.50 -32.60 -16.15 -44.20 -29.45 -9.35 -10.75 -17.20 -23.90 -20.90 -34.90 -3.65 -10.95 -4.35 -14.15 -5.55 -24.70 -0.95 -8.25 -0.95 -14.25 0 -22.60 2.30 -20.70 9.65 -38.30 23.05 -55.40 6.30 -8.05 17.15 -17.65 26.70 -23.60 6.05 -3.75 16.20 -8.40 21.75 -10 1.40 -0.40 2.95 -0.90 3.50 -1.10 2.25 -0.90 4.65 -1.55 5.90 -1.55 0.70 0 1.45 -0.25 1.60 -0.50 0.15 -0.30 1.10 -0.50 2.05 -0.50 1 0 2.25 -0.25 2.85 -0.60 2.65 -1.50 23.45 -2.40 31.35 -1.45 15.80 2 29.25 6.50 41.50 13.95 13.50 8.20 23.15 16.65 31.10 27.15 5.05 6.65 4.95 6.10 1.35 8.30 -1.65 1.05 -7.20 4.65 -12.25 8.05 -5.10 3.35 -9.35 6.10 -9.45 6.10 -0.10 0 -3.05 1.85 -6.60 4.10 -3.50 2.20 -8.20 5.15 -10.40 6.55 -2.20 1.35 -5.90 3.70 -8.15 5.25 l-4.20 2.80 -3.80 -4.05 c-5.55 -5.85 -10.15 -8.85 -19.35 -12.65 -3.30 -1.35 -20.20 -1 -23.20 0.50 -0.45 0.20 -1.70 0.65 -2.80 1 -15.85 4.75 -27.85 21.35 -27.80 38.45 0 2.90 0.15 5.85 0.25 6.55 1.70 9.70 7.50 20.15 14.40 25.90 8.10 6.80 17.90 10.05 30.15 10.10 4.55 0 6.05 -0.20 8.75 -1.20 7.90 -2.85 14.35 -7.05 19.35 -12.60 1.85 -2.05 3.60 -3.70 3.90 -3.70 0.25 0 3.75 2.05 7.75 4.55 4 2.55 11.65 7.35 17 10.70 5.35 3.35 12.80 8.10 16.50 10.55 3.70 2.45 7 4.55 7.25 4.70 1.30 0.65 4.60 2.95 5.10 3.55 1.45 1.75 -14.30 19.35 -23.25 26.05 -19.75 14.80 -39.20 21.65 -62.60 22.20 -4.55 0.05 -8.45 0.10 -8.75 0z"/>
  <path d="M329.25 248 c-30.60 -0.25 -31 -0.25 -30.90 -1.25 0.10 -1.45 0.80 -5.80 3.10 -19.75 1.10 -6.75 2.25 -13.80 2.55 -15.75 0.30 -1.90 0.75 -4.75 1 -6.25 0.25 -1.50 0.85 -5.35 1.30 -8.50 0.45 -3.15 1.35 -9 2.05 -13 0.65 -4 1.40 -8.60 1.65 -10.25 0.65 -4.30 1.85 -11.95 2.50 -16 0.30 -1.90 0.75 -4.85 1 -6.50 0.55 -3.75 1.35 -8.50 1.70 -10.50 0.15 -0.80 0.85 -5.10 1.55 -9.50 0.70 -4.40 1.45 -9.10 1.75 -10.50 0.25 -1.35 0.60 -3.30 0.75 -4.25 0.30 -2.20 1.10 -6.95 1.75 -10.50 0.30 -1.50 0.70 -4.10 1 -5.75 0.25 -1.65 0.70 -4.25 0.95 -5.75 0.90 -4.75 2.05 -12.05 2.85 -17.75 0.40 -3 1 -6.20 1.25 -7.05 0.25 -0.85 0.45 -2.15 0.45 -2.90 0 -0.75 0.20 -2.30 0.45 -3.45 0.30 -1.15 1 -5.50 1.60 -9.70 l1.10 -7.55 4.55 -0.35 c2.50 -0.15 15.80 -0.25 29.55 -0.15 l25 0.15 1.90 7.50 c1.05 4.15 2.45 9.75 3.10 12.50 0.70 2.75 2.20 8.85 3.40 13.50 6.85 26.50 8.55 33.05 9.90 38.50 0.80 3.30 1.65 6.70 1.90 7.50 0.50 1.55 1.90 7.85 2.15 9.40 0.40 2.55 1.35 0.20 3.50 -8.40 1.30 -5.20 4.05 -16.35 6.15 -24.75 2.10 -8.40 4.70 -18.85 5.80 -23.25 1.05 -4.40 2.40 -9.45 2.95 -11.25 0.50 -1.80 1.20 -4.25 1.50 -5.50 0.30 -1.25 0.75 -2.90 1 -3.75 0.20 -0.80 0.70 -2.75 1.05 -4.25 0.30 -1.50 0.90 -3.95 1.30 -5.35 l0.70 -2.65 29.45 0 29.45 0 0.25 1.60 c0.50 3.10 1.80 11.65 2.35 15.40 0.30 2.05 0.65 4.20 0.75 4.75 0.15 0.55 0.45 2.35 0.70 4 0.25 1.65 0.75 5.05 1.20 7.50 0.40 2.50 1.10 6.85 1.55 9.75 0.40 2.90 1 6.40 1.25 7.75 0.25 1.40 0.70 4.10 0.95 6 0.55 3.75 1.70 11.35 2.60 17 0.30 1.95 0.70 4.40 0.95 5.50 0.25 1.10 0.70 3.70 1 5.75 0.30 2.05 0.75 4.65 1 5.75 0.25 1.10 0.70 3.70 1 5.75 0.30 2.05 0.80 4.90 1.05 6.30 0.25 1.40 0.45 2.75 0.40 3 -0.10 0.25 0.10 1.35 0.40 2.45 0.30 1.10 0.70 3.45 0.90 5.25 0.15 1.80 0.50 3.95 0.75 4.75 0.25 0.85 0.85 4 1.30 7 0.45 3.05 1.05 6.65 1.25 8 0.90 5.25 1.85 11.10 3.20 20 0.85 5.60 1.45 9.55 2.20 14 2.25 13.55 3.20 19.45 3.60 22.25 0.25 1.80 0.65 4.50 0.90 6 0.30 1.50 0.65 3.80 0.85 5.15 l0.35 2.35 -31.45 -0.10 -31.45 -0.15 -0.35 -2.75 c-0.65 -5.05 -1.85 -13.20 -2.90 -19.75 -1.95 -12.15 -2.60 -16.10 -3.55 -22.75 -1.45 -9.65 -2.15 -14.40 -2.95 -19.50 -0.35 -2.05 -0.85 -5.90 -1.20 -8.50 -0.45 -3.65 -0.75 -4.80 -1.35 -4.90 -0.60 -0.10 -0.90 0.40 -1.10 2 -0.20 1.20 -0.55 3.05 -0.80 4.15 -0.25 1.10 -0.80 3.90 -1.25 6.25 -0.50 2.35 -1.15 5.60 -1.55 7.25 -1.30 5.70 -3.35 15 -4.05 18.75 -0.40 2.05 -0.90 4.75 -1.20 6 -0.30 1.25 -0.70 3.40 -0.95 4.75 -0.40 2.15 -1.15 5.60 -3.55 16.75 -0.20 0.95 -0.85 4 -1.45 6.75 -0.60 2.70 -1.25 5.15 -1.50 5.40 -0.20 0.20 -10.30 0.40 -22.35 0.35 -16.65 0 -22 -0.20 -22.30 -0.65 -0.20 -0.35 -0.50 -1.60 -0.70 -2.85 -0.15 -1.25 -0.50 -2.90 -0.70 -3.75 -0.25 -0.80 -0.90 -3.85 -1.45 -6.75 -1.25 -6.30 -2.80 -13.65 -3.80 -17.75 -0.40 -1.65 -1.05 -4.90 -1.50 -7.25 -0.45 -2.35 -1 -4.95 -1.30 -5.80 -0.25 -0.85 -0.45 -1.95 -0.45 -2.45 0 -0.50 -0.20 -1.60 -0.45 -2.45 -0.25 -0.85 -0.70 -2.80 -1.05 -4.30 -0.30 -1.50 -0.75 -3.55 -0.95 -4.50 -0.25 -0.95 -0.95 -4 -1.55 -6.75 -0.60 -2.75 -1.30 -5.65 -1.55 -6.50 -0.20 -0.80 -0.55 -2.70 -0.75 -4.10 -0.25 -2.05 -0.55 -2.65 -1.20 -2.65 -0.70 0 -0.90 0.65 -1.20 3.40 -0.15 1.85 -0.50 4.60 -0.80 6.10 -0.25 1.50 -0.70 4.35 -0.95 6.25 -0.30 1.95 -0.75 4.85 -1.05 6.50 -0.25 1.65 -0.70 4.45 -1 6.25 -0.30 1.80 -0.85 5.95 -1.30 9.25 -0.45 3.30 -1 7.25 -1.25 8.75 -0.20 1.50 -0.65 4.80 -0.95 7.25 -0.30 2.50 -0.75 5.95 -1.05 7.75 -0.25 1.80 -0.70 4.65 -0.95 6.40 -1.10 7.15 -1.65 10.35 -1.95 10.60 -0.15 0.15 -14.25 0.15 -31.30 0z"/>
  <path d="M221.50 146.80 l0 -101.20 31.15 -0.20 c17.10 -0.10 31.15 -0.20 31.15 -0.20 0.10 0.05 0.35 201.30 0.25 202.20 -0.05 0.45 -6.65 0.60 -31.30 0.60 l-31.25 0 0 -101.20z"/>
  <path d="M739.50 247.90 c0 -0.10 0 -45.60 0 -101.15 l-0.05 -101 31.05 -0.15 31 -0.10 0 101.25 0 101.25 -31 0 c-17.05 0 -31 -0.05 -31 -0.10z"/>
  <path d="M861.90 173.15 l-0.15 -74.90 -21.10 -0.15 -21.15 -0.10 0 -26.25 0 -26.25 90.15 0 90.15 0 1.05 2.15 c0.60 1.15 3.15 5.70 5.75 10.15 2.55 4.40 7.90 14.05 11.90 21.35 4 7.35 7.50 13.30 7.75 13.30 0.30 0.05 2.75 -3.80 5.50 -8.50 11.90 -20.40 13.95 -23.95 16.15 -27.95 1.25 -2.35 3.10 -5.60 4.10 -7.25 l1.85 -3 4.95 -0.30 c2.70 -0.20 17.50 -0.35 32.85 -0.40 25.70 -0.05 27.85 0 27.85 0.80 0 0.45 -0.30 1.20 -0.65 1.60 -0.70 0.80 -7.20 11.95 -13.45 23.05 -11.50 20.35 -14.85 26.15 -16.90 29.50 -1.25 2.05 -4.35 7.35 -6.85 11.75 -10.85 19.15 -13.60 24 -18.35 32 l-5.05 8.50 -0.25 47.75 -0.25 47.75 -31.15 0 -31.15 0 0.05 -47.25 0 -47.30 -4.60 -7.70 c-2.50 -4.25 -6.10 -10.20 -7.95 -13.25 -1.85 -3 -6.80 -11.25 -11 -18.25 -4.15 -7 -8.05 -13.50 -8.65 -14.40 l-1.05 -1.60 -18.75 0.10 -18.75 0.15 -0.15 74.90 -0.10 74.85 -31.25 0 -31.25 0 -0.10 -74.85z"/>
  <path d="M1129.80 56.75 c-0.15 -0.45 -0.30 -2.75 -0.30 -5.05 0 -4.15 0 -4.20 -1.25 -4.20 -0.70 0 -1.25 -0.20 -1.25 -0.40 0 -1.10 1.45 -1.60 4.60 -1.60 3.05 0 3.40 0.10 3.40 1 0 0.80 -0.35 1 -1.50 1 l-1.45 0 -0.15 4.85 c-0.15 4.05 -0.30 4.90 -0.95 5.05 -0.45 0.10 -0.95 -0.20 -1.15 -0.65z"/>
  <path d="M1136.50 52.10 l0 -5.35 1.55 -0.70 c0.80 -0.35 1.60 -0.55 1.70 -0.45 0.50 0.50 2.75 6 2.75 6.70 0 1.75 1.30 0.15 2.65 -3.20 1.35 -3.30 1.60 -3.60 2.90 -3.60 1.80 0 2.05 0.80 1.85 7 -0.15 4.35 -0.25 4.75 -1.15 4.75 -0.90 0 -1 -0.35 -1 -2.90 0 -2.30 -0.15 -2.85 -0.85 -2.85 -0.55 0 -1.10 0.90 -1.70 2.80 -1.35 4.40 -3 4.20 -4.35 -0.55 -0.45 -1.55 -1 -2.55 -1.55 -2.65 -0.65 -0.15 -0.80 0.35 -0.80 3.10 0 2.95 -0.10 3.30 -1 3.30 -0.95 0 -1 -0.35 -1 -5.40z"/>
 </g>
</svg>