<?xml version="1.0" encoding="UTF-8" standalone="no"?>
<!-- Creator: CorelDRAW -->

<svg
   xml:space="preserve"
   width="356.05701"
   height="67.733704"
   style="clip-rule:evenodd;fill-rule:evenodd;image-rendering:optimizeQuality;shape-rendering:geometricPrecision;text-rendering:geometricPrecision"
   viewBox="0 0 356.05701 67.72962"
   version="1.1"
   id="svg21"
   sodipodi:docname="sunfoft.svg"
   inkscape:version="1.2 (dc2aedaf03, 2022-05-15)"
   xmlns:inkscape="http://www.inkscape.org/namespaces/inkscape"
   xmlns:sodipodi="http://sodipodi.sourceforge.net/DTD/sodipodi-0.dtd"
   xmlns="http://www.w3.org/2000/svg"
   xmlns:svg="http://www.w3.org/2000/svg"><sodipodi:namedview
   id="namedview23"
   pagecolor="#ffffff"
   bordercolor="#000000"
   borderopacity="0.25"
   inkscape:showpageshadow="2"
   inkscape:pageopacity="0.0"
   inkscape:pagecheckerboard="0"
   inkscape:deskcolor="#d1d1d1"
   showgrid="false"
   inkscape:zoom="3.5926966"
   inkscape:cx="191.0821"
   inkscape:cy="33.95778"
   inkscape:window-width="1920"
   inkscape:window-height="1017"
   inkscape:window-x="-8"
   inkscape:window-y="-8"
   inkscape:window-maximized="1"
   inkscape:current-layer="Capa_x0020_1" />
 <defs
   id="defs4">
  <style
   type="text/css"
   id="style2">
   <![CDATA[
    .str0 {stroke:#014898;stroke-width:0.899998}
    .fil0 {fill:none}
    .fil1 {fill:#014898}
    .fil2 {fill:#014898;fill-rule:nonzero}
   ]]>
  </style>
 </defs>
 <g
   id="Capa_x0020_1"
   inkscape:label="Capa 1"
   inkscape:groupmode="layer"
   transform="translate(0.0803019,-0.13315401)">
  <metadata
   id="CorelCorpID_0Corel-Layer" />
  <g
   id="_46843752">
   <rect
   id="_46757368"
   class="fil0"
   x="-0.080301903"
   y="0.13110401"
   width="356.05701"
   height="67.733704" />
   <g
   id="g17">
    <path
   id="_48001888"
   class="fil1"
   d="M 60.5503,4.76101 H 34.0547 c -24.4972,4.51889 5.39999,43.3912 -3.89881,43.9357 l -24.5562,0.03661 0.00236,13.9618 34.631,-0.03425 c 23.5854,-3.25275 -7.65943,-42.4003 4.27794,-42.946 10.5579,0.245669 16.0393,0.02126 16.0393,0.02126 V 4.76093 Z"
   style="fill:#00aad4" />
    <path
   id="_47451944"
   class="fil1"
   d="M 78.5561,4.76692 63.5573,4.76101 63.54549,51.61761 c -0.04134,7.60746 8.42124,11.5925 20.5511,11.6197 14.1342,-0.06142 21.4063,-2.906689 21.411,-11.545299 L 105.53599,4.76101 H 91.547035 l -0.05079,38.8806 c -0.01299,2.14251 -1.10433,3.056691 -2.97637,3.04251 l -6.01416,0.0012 c -2.76968,0.01063 -4.00038,-1.06653 -3.9933,-3.01889 l 0.0437,-38.8994999 z"
   style="fill:#00aad4" />
    <path
   id="_48536336"
   class="fil1"
   d="m 215.305,4.76101 h -26.4956 c -24.4972,4.51889 5.39999,43.3912 -3.89881,43.9357 l -24.5562,0.03661 0.002,13.9618 34.631,-0.03425 c 23.5854,-3.25275 -7.65943,-42.4003 4.27794,-42.946 10.5579,0.245669 16.0393,0.02126 16.0393,0.02126 V 4.76093 Z"
   style="fill:#00aad4" />
    <path
   id="_47587320"
   class="fil1"
   d="M 124.528,4.76101 110.5331,4.75865 v 57.968398 l 13.9889,-0.01063 v -25.9736 c -0.005,-8.3988 8.99526,25.9181 17.9941,25.9783 h 13.9889 l -0.007,-57.9589001 -13.9842,0.00118 -0.0165,25.9830001 C 142.4843,39.656618 131.767,4.7101979 124.528,4.7609979 Z"
   style="fill:#00aad4" />
    <path
   id="_4167544"
   class="fil1"
   d="m 226.836,4.82597 h 24.1866 c 5.17322,0 9.40274,3.01889 9.40274,6.70865 v 44.4672 c 0,3.68976 -4.22952,6.70865 -9.40274,6.70865 H 226.836 c -5.17322,0 -9.40274,-3.01889 -9.40274,-6.70865 v -44.4672 c 0,-3.68976 4.22952,-6.70865 9.40274,-6.70865 z m 9.06494,15.2232 h 5.08463 c 2.45433,0 4.46101,2.20511 4.46101,4.90511 v 18.6425 c 0,2.69999 -2.00669,4.90511 -4.46101,4.90511 h -5.08463 c -2.45433,0 -4.46101,-2.20511 -4.46101,-4.90511 v -18.6425 c 0,-2.69999 2.00669,-4.90511 4.46101,-4.90511 z"
   style="fill:#00aad4" />
    <path
   id="_48324760"
   class="fil1"
   d="m 263.429,16.7539 c 0.006,-6.35314 5.07637,-11.9929 12.998,-11.9905 l 15.9897,-0.00236 v 15.981498 l -13.9925,0.0035 -0.002,9.00116 13.9949,-0.0012 v 14.987 l -13.9925,0.0024 v 17.9905 h -14.9893 l -0.006,-45.9719 z"
   style="fill:#00aad4" />
    <polygon
   id="_49004288"
   class="fil1"
   points="307.398,18.7417 307.406,62.7247 322.397,62.7247 322.397,18.75 332.391,18.7535 332.391,4.76219 297.414,4.76219 297.402,18.7417 "
   style="fill:#00aad4" />
    <circle
   id="_48318880"
   class="fil0 str0"
   cx="344.32401"
   cy="10.9559"
   r="6.0755801" />
    <path
   id="_47532632"
   class="fil2"
   d="m 347.567,14.3858 h -0.98386 l -0.64606,-1.8307 c -0.11457,-0.323621 -0.3059,-0.589369 -0.57401,-0.79488 -0.26929,-0.20433 -0.57874,-0.308267 -0.92716,-0.308267 h -1.67952 v 2.93385 h -0.90945 v -6.85983 h 3.03779 c 0.53031,0 0.96377,0.050787 1.30039,0.154724 0.33661,0.101575 0.61181,0.318897 0.82441,0.649605 0.21259,0.330708 0.31771,0.702754 0.31771,1.1185 0,0.474802 -0.13701,0.870471 -0.4122,1.18819 -0.2752,0.320078 -0.64961,0.525589 -1.12795,0.62244 v 0.02008 c 0.47834,0.151181 0.84212,0.564566 1.09134,1.23897 l 0.68858,1.86732 z m -4.81062,-3.74881 h 2.0244 c 0.56575,0 0.97441,-0.0874 1.22834,-0.266929 0.2563,-0.177165 0.38268,-0.484251 0.38268,-0.921258 0,-0.779526 -0.48898,-1.16929 -1.47047,-1.16929 h -2.16496 v 2.35748 z" />
   </g>
  </g>
 </g>
</svg>
