<?xml version="1.0" encoding="UTF-8" standalone="no"?>
<svg
   version="1.1"
   x="0px"
   y="0px"
   viewBox="0 0 2242 698"
   style="enable-background:new 0 0 2242 698;"
   width="2242"
   height="698"
   xml:space="preserve"
   id="svg19"
   sodipodi:docname="Super_Smash_Bros_2018_logo.svg"
   inkscape:version="1.2 (dc2aedaf03, 2022-05-15)"
   xmlns:inkscape="http://www.inkscape.org/namespaces/inkscape"
   xmlns:sodipodi="http://sodipodi.sourceforge.net/DTD/sodipodi-0.dtd"
   xmlns="http://www.w3.org/2000/svg"
   xmlns:svg="http://www.w3.org/2000/svg"><defs
   id="defs23" /><sodipodi:namedview
   id="namedview21"
   pagecolor="#ffffff"
   bordercolor="#000000"
   borderopacity="0.25"
   inkscape:showpageshadow="2"
   inkscape:pageopacity="0.0"
   inkscape:pagecheckerboard="0"
   inkscape:deskcolor="#d1d1d1"
   showgrid="false"
   inkscape:zoom="0.57047279"
   inkscape:cx="1036.8593"
   inkscape:cy="348.83346"
   inkscape:window-width="1920"
   inkscape:window-height="1017"
   inkscape:window-x="-8"
   inkscape:window-y="-8"
   inkscape:window-maximized="1"
   inkscape:current-layer="svg19" />
<style
   type="text/css"
   id="style2">
	.st0{fill:none;}
</style>
<g
   id="キラリン"
   style="fill:#f9f9f9">
	<path
   d="M928.3225,36.3355c10.0997,0.3127,21.0508,2.3464,21.0508,17.0544v133.3447c0,13.6384-1.9132,23.8984-5.0386,31.6134   h23.6179c1.9487-9.5681,2.855-20.0717,2.855-31.3588V53.9932c0-14.6675,12.7313-15.9503,22.6901-15.6421   c2.532,0.0785,3.4214-1.4418,3.4214-4.0163c0-3.5165-1.1598-4.5567-3.324-4.6262l-65.3719-2.0942   c-2.2017-0.0705-3.3824,0.9035-3.3824,4.4526c0,2.598,0.9054,4.1884,3.4819,4.268L928.3225,36.3355z M777.4146,31.8268   c10.4762,0.3242,23.0575,2.8221,23.0575,17.7989v135.5995c0,11.8639,1.4548,22.9854,4.3527,33.1228h65.245   c-5.0256-9.2854-8.0891-21.3124-8.0891-35.985V51.3967c0-14.8617,12.3498-16.5711,22.5745-16.255   c2.5995,0.0805,3.5129-1.4594,3.5129-4.0679c0-3.5636-1.1907-4.6177-3.4124-4.6887l-107.3441-3.44   c-2.2836-0.073-3.5089,0.918-3.5089,4.5331c0,2.646,0.9393,4.266,3.6118,4.349L777.4146,31.8268z M942.4236,222.4754   c-9.0844,17.2831-25.1976,19.0271-36.7595,18.9706c-12.5938-0.0615-24.8182-6.4948-33.1172-18.9706h-66.4418   c11.317,33.8712,39.64,55.7345,84.5131,55.7455c44.9706,0.011,68.037-21.2449,76.4161-55.7455h-24.6102H942.4236z    M1005.0555,38.4432c10.5322,0,23.2155,1.773,23.2155,17.185V218.348h61.5817v-42.6904   c56.822,17.8954,109.8862-17.4487,109.8862-77.9984c0-49.5974-45.0166-68.3313-84.4933-68.3313l-110.2921,0.003   c-2.2927,0-3.5219,1.0576-3.5219,4.7653c0,2.7146,0.9433,4.3465,3.6238,4.3465V38.4432z M1141.4675,99.4702   c0,38.651-14.177,57.496-36.4512,60.2051c-1.1877,0.1446-14.7484-0.8815-15.1638-4.6737V41.4319   C1124.5344,41.4319,1141.4675,62.4947,1141.4675,99.4702L1141.4675,99.4702z M1113.0676,268.8634   c-10.5322,0-23.2155-1.776-23.2155-17.188v-29.2h-61.5817v29.2c0,15.412-12.6833,17.188-23.2155,17.188   c-2.6805,0-3.6243,1.6324-3.6243,4.3465c0,3.7077,1.2288,4.7653,3.5219,4.7653l108.2169-0.003   c2.2926,0,3.5219-1.0546,3.5219-4.7623C1116.6914,270.4954,1115.7482,268.8634,1113.0676,268.8634L1113.0676,268.8634z    M1643.7443,270.6049c-11.2876,0.2376-28.827-6.3532-39.1986-23.5963c-2.182-3.6281-6.6698-12.8975-11.9873-24.5333h-64.7437   c4.7632,11.9284,8.3375,20.9287,8.3375,20.9287c6.7533,17.2456,22.8655,31.2727,43.3563,35.3376   c12.3229,2.4444,56.0442,1.3138,63.8707,0.6809c2.9575-0.4638,3.1901-2.611,3.5914-4.6242   c0.3409-1.7075-0.6804-4.246-3.2269-4.1924L1643.7443,270.6049z M1494.5404,268.4386   c-9.5088,0.0611-20.1439-1.6375-20.0494-17.0244v-28.9393h-62.4895v29.8909c-0.022,14.8887-10.6616,16.6692-19.2786,16.7242   c-2.1802,0.014-2.946,1.5744-2.9456,4.1609c0.0005,3.5311,0.9983,4.5362,2.8621,4.5331l101.9231-0.1721   c2.0812-0.0035,3.2069-1.0686,3.2369-4.8083c0.022-2.7391-0.8239-4.3811-3.2589-4.3656L1494.5404,268.4386z M1395.1265,32.2251   c8.7725-1.1897,16.8976-0.8645,16.8751,14.525V218.348h62.4895v-66.899l3.8452-0.2597c7.9436-0.5368,20.407,2.3354,25.906,13.3418   c1.7332,3.469,13.2231,32.0492,21.9236,53.8173h64.5156c-11.0195-24.3687-24.6996-56.765-29.1313-70.7817   c33.988-18.828,38.2092-47.5732,38.2092-73.6189c0-49.9701-30.5287-73.5123-95.5171-65.0074l-111.5958,14.2768   c-1.8998,0.2672-2.916,1.4558-2.9155,5.121c0.0005,2.6821,3.1759,4.1884,5.3955,3.8878V32.2251z M1478.0704,25.4166l7.4271-0.9886   c15.3079-2.0377,53.8779,2.585,53.3835,47.8173c-0.4104,37.5594-16.2047,60.2441-38.5712,61.9376   c-13.6827,1.0361-25.1256-2.544-25.819-12.1396v-91.889c0.0215-3.4515,0.8749-4.3775,3.5789-4.7378L1478.0704,25.4166z    M1191.5471,38.6233c11.1211,0,23.5045,0.9285,23.5045,15.5931v164.1316h61.0858v-68.8121   c0.4594-0.046,0.9988-0.0766,1.6571-0.0845c5.496-0.064,21.0508-1.3993,29.7808,2.1277   c14.5779,5.8889,21.4108,27.7006,24.6172,40.381c0.5483,2.1698,1.3042,2.639,2.728,2.6505l2.5975-0.0295   c1.2572-0.0971,1.7373-1.0046,1.7373-2.536V89.8481c0-1.5484,0.069-3.0428-1.7047-2.9987l-3.1274,0.0775   c-1.0664,0.0265-1.5613,0.794-2.0381,2.599c-1.4478,5.4827-8.4761,37.1401-26.0344,45.1793   c-4.8606,2.2253-24.4147,4.1079-28.5575,4.1834c-0.6299,0.0115-1.1792,0.0445-1.6556,0.056V41.3544   c0-0.9966,0.2734-1.2923,1.2268-1.3208l37.2069-0.9651c14.5154-0.3777,29.7858,6.5603,35.6443,13.2862   c9.7168,11.155,18.2123,35.201,19.3081,38.8526c0.4448,1.4864,1.4902,1.5924,2.3436,1.4153l3.0383-1.0706   c1.1749-0.4993,0.8539-2.488,0.6414-3.7967l-6.7833-58.2104c0-3.8998-1.2352-5.8484-6.9153-5.6668l-171.4474,5.3191   c-2.4155,0.077-3.7098,1.1217-3.7098,4.6367c0,2.5735,0.6075,4.7898,4.8567,4.7898L1191.5471,38.6233z M1381.8843,201.2525   c-1.0992-0.2471-3.1329-0.3962-4.3956,2.7546c-0.7294,1.8181-3.4534,7.6314-6.9653,14.3409h11.4645   c0.8513-4.7483,1.6593-9.0978,2.3691-12.7549C1385.0269,202.4127,1383.1906,201.5427,1381.8843,201.2525L1381.8843,201.2525z    M1356.8286,240.693c-5.4835,6.7304-19.425,22.1989-35.8431,22.7438c-3.6184,0.1196-25.3915,0.8855-30.952,0.1391   c-11.0966-1.4959-13.8961-4.347-13.8961-19.1257v-21.9748h-61.0858v30.1586c0,14.6645-13.4271,16.3735-24.5432,16.3895   c-2.824,0.004-3.8174,1.5529-3.8174,4.1264c0,3.5155,1.2944,5.0164,3.7098,5.0154l179.976-0.0445   c1.8756-0.0005,2.7645-2.0042,3.0068-4.0884c1.4618-13.1872,4.8396-34.3285,7.8712-51.5565h-12.9342   c-3.6814,6.7624-7.8806,13.7865-11.4921,18.2176L1356.8286,240.693z"
   id="path4"
   style="fill:#f9f9f9" />
	<path
   d="M1631.4474,528.8088c8.7604,20.5569,22.4475,38.4944,39.5575,52.3669v-52.3669H1631.4474z M1671.005,369.9002   c-30.7317,24.914-50.3977,62.9716-50.3977,105.634c0,9.1203,0.9154,18.0205,2.627,26.6335h47.7708V369.9002z M1889.536,502.1678   c1.7107-8.613,2.627-17.5127,2.627-26.6335c0-75.0507-60.7972-135.8941-135.7821-135.8941c-5.634,0-11.1775,0.3887-16.6295,1.0536   v161.4741H1889.536z M1739.7513,610.3898c5.452,0.6669,10.9956,1.0526,16.6295,1.0526c56.0917,0,104.234-34.0558,124.9456-82.6336   h-141.5751V610.3898z"
   id="path6"
   style="fill:#f9f9f9" />
	<path
   d="M2188.7563,334.1799h-38.5718v9.7412c0.6895-0.0811,1.4602-0.1216,2.312-0.1216h11.1331v32.9387   c0,0.4473-0.0605,0.9141-0.1812,1.4008h10.95c-0.0815-0.5273-0.1216-1.0146-0.1216-1.4614v-32.8781h12.0469   c0.9324,0,1.7427,0.0815,2.4331,0.2431v-9.8633L2188.7563,334.1799z M2241.9399,376.7382v-42.5583h-12.6548l-10.3425,29.2245   l-9.9778-29.2245h-12.6548v42.5583c0,0.4473-0.021,0.9141-0.0605,1.4008h10.3428c-0.0825-0.5273-0.1221-1.0146-0.1221-1.4614   v-19.7875l7.4226,21.2489h10.0989l7.7876-21.1273v19.666c0,0.4868-0.021,0.9746-0.061,1.4614H2242   c-0.041-0.4868-0.0605-0.9536-0.0605-1.4008L2241.9399,376.7382z"
   id="path8"
   style="fill:#f9f9f9" />
	<path
   class="st0"
   d="M632.5706,222.4754h6.6088v-4.1274"
   id="path10"
   style="fill:#f9f9f9" />
	<path
   d="M694.9366,106.6279c-29.1523-11.6658-48.0491-23.2315-58.1838-35.2495l-2.1447,75.3754   c10.5381,6.912,22.7209,13.675,36.65,20.4729c32.0929,15.6636,49.6178,32.8571,52.2668,51.1213h46.2108   c0.6979-4.1664,1.0428-8.527,0.9963-13.0846c-0.4329-42.3622-25.9219-78.7359-75.7952-98.6349L694.9366,106.6279z    M632.5706,145.4025V65.595c-3.5144-5.7994-5.0986-11.7218-4.9056-17.8264c0.2014-6.3662,1.8477-11.8679,4.9056-16.3495V1.9529   c-33.5092,6.4257-52.3918,28.265-52.0529,58.427c0.3969,35.3176,16.4701,61.1291,52.0529,85.022V145.4025z M638.0546,25.6142   c8.6915-6.7284,22.796-9.2104,42.2325-6.1566c30.0488,4.7213,67.3112,35.3626,79.7045,71.5822   c0.7059,2.0632,1.2878,3.8447,2.972,3.9848c0.5564,0.0465,2.595-0.2967,3.3449-0.7089c1.1163-0.6139,0.8849-1.3808,0.2734-4.349   c-2.9349-14.2458-7.2817-50.5504-8.7109-64.0353c-0.4554-4.0399-1.6398-5.7458-3.8623-6.1881   c-2.3336-0.4643-4.5142,0.3742-6.1954,0.4438c-2.808,0.2101-4.6252,0.3097-8.3676-0.2887   c-2.0297-0.3237-3.8773-0.9991-5.6455-1.6224c-11.371-4.9039-37.9509-13.4548-52.6252-15.9118   c-15.7892-2.6435-29.9957-3.0078-42.4191-1.4043l-0.7014,24.6539V25.6142z M559.9148,172.2111   c4.2413,11.5172,8.4661,29.0829,12.1384,46.1369h33.8925c-12.2123-11.8949-24.5502-27.6421-36.2226-48.4973   c-2.0107-3.5926-2.3106-4.9359-5.0527-5.0379c-0.7873-0.0255-1.8997,0.3782-3.014,0.7805c-1.8392,0.826-2.89,1.681-2.5461,3.9203   c0.1365,0.8935,0.6669,1.8036,0.8049,2.6981L559.9148,172.2111z M723.8645,222.4754c0.009,0.3992,0.0229,0.798,0.0179,1.1982   c-0.2914,23.0124-22.0696,35.2105-53.5615,29.5437c-8.902-1.6019-19.5676-4.6962-31.142-10.6212v38.4784   c10.2502,0.7734,20.5593,0.9875,31.4949,0.9875c47.6077-0.001,89.1963-20.5529,98.2382-59.5867L723.8645,222.4754   L723.8645,222.4754z M632.5706,238.9494c-7.1978-4.2605-14.6689-9.6526-22.2266-16.4741h-37.4105   c3.5384,16.7357,6.4949,32.4524,8.35,40.8067c0.9424,3.5781,6.3874,8.3054,12.2039,9.9113   c13.821,3.8172,26.4994,6.0365,39.0832,7.3013L632.5706,238.9494L632.5706,238.9494z M158.4704,452.1191   c-58.0423-17.095-79.9414-35.7639-78.9731-61.0131c1.0108-26.3629,21.4682-44.0706,65.1111-44.3653   c32.3553-0.2166,79.1961,31.5128,95.7392,76.3304c0.9053,3.0613,1.7497,4.8093,4.0428,4.7338   c0.7589-0.025,1.8787-0.5083,2.999-0.9846c1.8807-0.5038,2.2231-1.3998,2.1356-3.1619c-0.0415-0.878-0.083-1.758-0.127-2.646   c-4.4432-21.373-11.3865-64.5976-13.3112-81.7126c-0.6114-5.11-1.4437-6.8155-4.4492-6.8065c-1.1303,0-2.6155,0.4258-4.8626,0.8675   c-3.7418,0.857-9.0374,1.3078-13.9795,1.3213c-2.6705,0.009-4.9611,0.0165-7.2762-0.4092   c-14.7644-3.8452-42.9834-9.0138-61.1443-9.0138c-74.7878,0-118.8781,39.7006-121.8011,99.2383   c-3.1324,63.8347,32.1588,95.1179,106.1063,120.04c45.317,15.2178,67.9216,41.7873,67.5276,67.9896   c-0.4519,29.8439-24.2192,50.8251-62.4625,54.9406c-29.1934,3.1458-85.9574-23.923-122.189-96.3412   c-1.3303-3.5886-2.4506-5.6257-5.425-5.5347c-0.8524,0.0311-2.0616,0.5889-3.2719,1.1447c-1.9961,1.1057-3.1394,2.1838-2.8,4.7768   l0.8304,3.0978c9.1994,27.4329,18.1058,86.0396,22.1811,106.8482c1.0013,4.272,3.1614,7.3903,9.5418,9.6716   c23.8843,10.7798,63.6843,6.5944,97.0184,2.7241c88.3125-10.2194,130.78-54.7549,130.9895-121.6879   c0.199-63.9512-37.6449-101.1254-102.1505-120.0484L158.4704,452.1191z M849.9628,421.106   c-43.7958-15.2764-59.9254-30.2556-59.2225-48.6869c0.7409-19.4973,16.0072-30.0991,49.4783-30.0991   c25.9894,0,61.1962,29.3991,73.941,63.7166c0.6849,2.3359,1.3423,3.6731,3.2054,3.7202c0.6244,0.0185,1.5438-0.2902,2.4641-0.5909   c1.5412-0.2897,1.8417-0.9445,1.7977-2.2693c-0.0195-0.6574-0.0325-1.3193-0.055-1.9846   c-3.2549-16.263-8.758-51.5355-10.0667-64.8247c-0.4169-3.9843-1.0818-5.3326-3.5619-5.4292   c-0.9358-0.034-2.1611,0.2457-4.0182,0.5018c-3.0779,0.5438-7.4097,0.7009-11.4345,0.5373   c-2.1686-0.0881-4.0303-0.1646-5.8965-0.5718c-11.8454-3.4695-32.0994-8.3779-46.3749-9.1073   c-56.8665-3.0663-88.7219,24.2706-90.3865,67.791c-1.7342,45.3854,23.2089,69.8482,76.8665,91.4813   c33.982,13.6945,50.9995,33.5776,50.3071,51.6855c-0.7769,20.3899-19.0217,32.8492-47.3206,32.7861   c-21.0948-0.0425-61.0508-22.9359-82.1431-70.8467c-0.7109-2.3619-1.3887-3.7182-3.5529-3.7632   c-0.6204-0.014-1.5397,0.3057-2.4491,0.6159c-1.5217,0.6429-2.4266,1.2952-2.3621,2.9777l0.3925,2.0252   c4.7242,17.9514,10.0972,52.273,11.543,65.3691c0.416,2.6885,1.7352,4.7142,6.1379,6.4007   c16.4276,7.7875,45.4145,14.4964,69.2928,14.4809c66.0433-0.126,100.2684-27.2148,102.0441-73.8311   c1.7492-45.7076-28.1591-74.5363-78.6262-92.0851L849.9628,421.106z M599.3943,590.4517   c-21.5852-2.6641-30.1192-7.9977-30.0547-18.1495c0.016-2.533,0.6749-5.8519,1.9601-9.2234   c3.7794-11.7808,7.5532-23.5087,11.3305-35.1899c18.1573-1.3123,33.3342-2.548,49.9402-3.7112v-15.9438   c-15.0749,0.9721-28.2375,2.0027-44.7567,3.0898c10.5681-32.4664,17.8283-55.6424,28.3825-87.4014   c5.879,17.4281,11.085,31.9571,16.3746,46.7272V324.2837c-5.4201,0.3567-7.7051,2.5735-9.4664,7.7515   c-25.1916,75.2003-50.4302,152.2326-75.6872,231.5759c-5.0751,16.1514-14.7025,27.2133-31.5469,34.2834   c-0.2684-0.0676-0.5504-0.1116-0.8424-0.1411c-15.4263-0.3032-19.1836-1.5879-19.1271-11.6288v-231.813   c0.0615-10.0308,5.1101-11.9359,20.5449-14.2583c1.6507-0.3812,3.0344-1.1252,3.0519-4.4341   c0.018-3.3089-0.8033-3.5276-3.2829-3.5171c-23.4979,0.0756-52.0399-0.092-75.5362,0c-5.2306,0.0175-5.8029,3.1934-6.9278,7.4053   c-15.1148,61.749-27.7046,118.7556-42.803,183.4869c-17.5544-61.1191-32.5983-117.8161-50.1747-182.6534   c-1.0893-4.0193-2.1656-8.2528-6.0199-8.2393c-23.9568,0.1146-47.9076-0.1255-71.8634,0c-2.4776,0.0115-3.3059,1.4274-3.3234,5.235   c-0.0125,3.8132,1.3532,4.6407,3.0085,5.0439c15.4043,3.6511,22.0322,14.7686,21.9456,34.314   c-0.3179,74.1257,0.3229,151.5293,0,225.6854c-0.075,17.8994-7.7506,31.9451-23.1389,39.7672   c-1.6537,0.8095-3.0275,1.9777-3.0395,5.7819c-0.014,3.8122,0.8063,4.4611,3.2744,3.8668   c20.8564-4.9844,46.6613-9.9433,67.5446-14.5255c2.4701-0.5403,3.3034-1.5309,3.3184-5.1835   c0.0175-3.6516-1.3488-4.1699-2.9975-4.2274c-15.1018-0.8-26.0324-10.277-26.0324-28.5026V410.5374   c0-2.4824,1.0368-3.7412,1.5872-3.7597c0.5489-0.0205,1.3718,1.1867,1.9062,3.2289   c20.7433,79.3022,36.5161,132.8884,57.2099,206.6693c2.9695,9.8312,4.8867,11.0679,12.5883,9.7837   c7.4232-1.2302,10.1827-2.4764,12.7177-13.8351c17.1685-75.9142,34.352-149.6987,51.5359-221.6211   c0.2795-1.5389,2.4871-1.6255,2.4791-0.1031v201.9511c-0.0505,9.9142-5.0281,13.1701-19.0761,17.1639   c-1.6567,0.6334-3.036,1.606-3.0555,5.0715c-0.016,3.47,0.8024,4.1124,3.2815,3.7332   c29.1788-4.4485,58.3762-8.5229,87.5971-12.2411c0.7974,0.3457,2.0222,0.2961,3.8203,0.0985   c25.5081-2.8261,56.5011-5.4441,82.0336-7.8641c3.8153-0.3607,5.0881-0.8339,5.1106-4.0563   c0.0195-2.8642-0.9328-3.8517-3.7888-4.305L599.3943,590.4517z M1139.4459,570.3064   c-16.3712-2.4119-21.0409-4.1414-21.0613-13.0696c-0.1245-68.7451-0.238-137.4936-0.3615-206.2391   c-0.0135-8.9242,4.6398-10.5657,20.9353-12.5323c1.7462-0.3277,3.2015-0.9881,3.197-3.9713   c-0.007-2.9818-0.8859-3.8127-3.5013-3.8167c-32.1113-0.0215-61.6193,0.004-93.7335,0c-2.6161-0.003-3.4919,0.787-3.4889,3.7507   c0.002,2.9607,1.4523,3.6196,3.2029,3.9513c14.8445,1.648,19.5061,3.9603,19.5116,12.5203   c0.028,30.2961,0.0475,60.5933,0.0765,90.8919c-22.5546-0.1016-37.2899-0.1226-59.838-0.0621   c0.01-30.2811,0.019-60.5642,0.0325-90.8459c0.0045-8.556,4.6582-10.8658,19.5056-12.5098   c1.7451-0.3282,3.2034-0.9896,3.1998-3.9488c-0.002-2.9608-0.8743-3.7477-3.4904-3.7477c-32.1134,0.004-61.6192-0.018-93.7335,0   c-2.6205,0.004-3.4919,0.823-3.4994,3.7992c-0.007,2.9767,1.4482,3.6336,3.1924,3.9658   c16.2951,1.9662,20.9633,3.6046,20.9438,12.5138c-0.0889,68.6495-0.1824,137.2945-0.2689,205.9389   c-0.0155,8.9208-4.6841,10.6277-21.0553,12.9701c-1.7487,0.3752-3.217,1.0696-3.2214,4.0449   c-0.006,2.9737,0.8684,3.6146,3.4984,3.5541c32.2413-0.7514,61.8892-1.1437,94.1359-1.1857c2.6365,0,3.5093-0.6578,3.5093-3.6221   c-0.0031-2.9562-1.4608-3.6176-3.2164-3.9438c-14.9004-1.6214-19.5856-3.8763-19.5751-12.4442   c0.0155-32.4729,0.0255-64.9483,0.0325-97.4218c22.5596-0.07,37.2999-0.0445,59.8571,0.072   c0.0284,32.4944,0.0515,64.9834,0.079,97.4743c0.0085,8.5755-4.6613,10.8123-19.5691,12.3762   c-1.7538,0.3217-3.2189,0.973-3.2139,3.9302c0.0024,2.9662,0.8778,3.6262,3.5094,3.6386   c32.2517,0.1746,61.891,0.6969,94.1339,1.5789c2.6295,0.0726,3.5029-0.5638,3.4944-3.5486   c-0.0045-2.9757-1.4673-3.6807-3.2203-4.0614L1139.4459,570.3064z M761.2209,577.8898   c-13.3547-0.9161-22.5645-5.4767-26.0169-14.2013c-30.1547-75.4794-60.213-152.4693-90.2076-231.7079   c-1.4662-3.7817-3.0905-5.9735-5.817-7.0111v164.2112c2.0591,5.8179,4.1728,11.8484,6.3828,18.2636   c-2.1831,0.1241-4.3047,0.2491-6.3828,0.3757v15.9043c3.7843-0.2536,7.6651-0.5043,11.6954-0.7509   c5.8359,16.8734,11.6719,33.6626,17.5134,50.3693c0.6204,1.3483,0.6144,2.4004,0.6104,3.454   c-0.023,4.1979-4.4802,5.5698-16.5746,8.2853c-4.4537,1.0647-5.1001,2.527-5.1171,5.3431   c-0.016,2.4609,0.9388,3.4405,3.7938,3.1999c36.5716-3.0228,73.1626-5.6413,109.7622-7.8601   c2.873-0.1766,3.5084-1.2362,3.5249-4.302c0.013-2.3909-0.6204-3.3745-3.1664-3.5731L761.2209,577.8898z"
   id="path12"
   style="fill:#f9f9f9" />
	<ellipse
   cx="2186.4033"
   cy="674.3705"
   rx="23.4798"
   ry="23.4977"
   id="ellipse14"
   style="fill:#f9f9f9" />
	<path
   d="M2027.921,450.7048c-57.6587-21.8417-78.3832-41.0729-78.0697-64.7002c0.3269-24.6313,18.8087-40.8623,61.0682-40.4601   c33.2131,0.3152,89.8558,34.0518,105.3595,81.9983c0.8157,3.3074,1.6599,5.2185,4.3259,5.3436   c0.884,0.045,2.2344-0.3672,3.574-0.7715c2.2456-0.3667,2.7065-1.2828,2.7451-3.1578c0.0181-0.9391,0.0339-1.8771,0.0544-2.8181   c-3.5581-22.9644-8.335-68.8466-9.2607-86.8636c-0.3169-5.3776-1.1479-7.1636-4.6013-7.1737   c-1.2908-0.006-3.0215,0.4308-5.6101,0.8725c-4.3069,0.867-10.2883,1.2878-15.8064,1.2662c-2.9585-0.017-5.4861-0.025-8.002-0.4803   c-15.7373-3.9963-55.1847-9.2274-73.5925-9.2274c-70.649,0-108.0549,35.5992-109.3712,89.0809   c-1.4137,57.4634,29.6787,90.3401,99.5969,125.1273c47.0182,23.3516,72.4064,55.5353,72.8129,82.9803   c0.4626,31.3348-24.8162,46.8323-64.4597,40.7498c-28.7208-4.397-83.0319-44.7256-99.965-112.1088   c-0.4099-3.2199-0.9697-5.0829-3.6304-5.3591c-0.7539-0.0781-1.9431,0.2476-3.1318,0.5768   c-1.9932,0.6919-3.2264,1.4694-3.4829,3.6971c-0.103,0.891,0.1689,1.8256,0.0635,2.7226   c2.2191,24.3842,1.9171,71.6868,1.0408,89.9689c-0.0355,3.7832,1.2034,6.8295,6.3909,10.0104   c19.347,14.0972,66.7357,30.5652,99.2826,35.9359c94.8882,15.6696,144.0798-20.2303,141.7485-94.4946   c-2.21-70.396-48.3708-116.0191-119.079-142.7166L2027.921,450.7048z M1654.6718,602.1194c-6.8613,0-17.8193-5.5007-30.827-26.663   c-18.0634-29.4812-55.5992-92.8711-64.0398-116.2247c27.2032-7.8946,40.3369-28.4971,40.3369-64.8988   c0-40.1784-30.3323-63.6561-77.8633-63.6561h-117.8867c-1.8743,0-3.7529,1.5009-3.7529,4.5947   c0,3.0898,1.5653,3.7767,3.4399,4.1189c17.511,2.0627,22.5171,3.7767,22.5171,13.0486v215.7827   c0,9.2709-5.0061,10.6862-22.5171,11.6913c-1.8746,0.2341-3.4399,0.83-3.4399,3.9183c0,3.0898,0.9414,3.8337,3.7529,4.0008   l103.5028,6.2191c2.8145,0.1716,3.7507-0.4587,3.7507-3.5496c0-3.0878-1.5621-3.8708-3.4379-4.3305   c-15.9487-2.6741-20.9484-5.3786-20.9484-14.3074v-106.483c0,0,13.2136-1.1011,20.0914,13.3517   c13.4116,28.1874,33.8961,65.5787,49.2893,92.8276c12.4099,22.0649,38.3613,34.6552,69.1234,37.4484   c11.8584,1.0781,16.0487,1.0521,26.7743,0.3907c1.9003-0.1561,4.7007-0.7554,5.3367-3.7286   c0.6329-2.9667-1.3148-3.5511-3.2015-3.5511L1654.6718,602.1194z M1510.3987,448.5891c-13.1351,0-23.14-2.7461-23.14-14.0782   V344.542c0,0,8.1306-0.6874,17.1981-0.6874c20.9512,0,38.1467,19.9181,38.1467,49.7915c0,33.6531-13.1351,54.9425-32.2048,54.9425   V448.5891z M1348.2657,452.6264c-1.3407-0.0915-3.3361-0.4283-3.3361-0.4283s2.7686-0.3367,3.328-0.3087   c27.1117,0.2782,46.5128-25.7,46.3513-59.167c-0.2-40.3855-28.535-62.0897-72.7692-62.0451h-109.7222   c-1.7488-0.003-3.4919,0.845-3.4844,3.8282c0.0105,2.9852,1.4688,3.6521,3.2084,3.9848   c16.3052,2.0242,21.2518,3.6992,21.2719,12.6819c0.1864,69.2043-0.1844,138.4066,0,207.6104   c0.028,8.9872-4.3702,10.4741-20.7269,11.962c-1.7487,0.2806-3.2079,0.9065-3.2029,3.8857   c0.0065,2.9867,0.8873,3.6746,3.5129,3.7582c38.2833,1.1832,76.55,2.8702,114.8079,5.062   c53.4451,3.2224,81.0682-15.8132,80.8173-66.096c-0.172-34.312-26.5328-64.434-60.0564-64.7277L1348.2657,452.6264z    M1289.6591,343.7014c0,0,7.2003-0.6434,15.6398-0.6129c18.3333,0.0335,35.5902,19.7965,35.7172,49.3752   c0.1331,32.633-11.4319,53.6738-29.7977,53.179c-3.5024-0.0911-21.5592-1.8626-21.5592-1.8626V343.702V343.7014z    M1314.0188,568.5283c-6.4214-0.3452-24.3302-5.5482-24.3597-14.2613v-95.7162c0,0,1.7798,0.047,4.1168,0.1016   c4.9567,0.1321,12.8387,0.3437,17.2054,1.4844c27.4253,6.1461,41.2208,27.1113,41.3488,56.744   c0.1825,42.6048-17.5754,52.7287-38.3108,51.6475H1314.0188z"
   id="path16"
   style="fill:#f9f9f9" />
</g>
</svg>
