<svg id="Layer_1" data-name="Layer 1" xmlns="http://www.w3.org/2000/svg" viewBox="0 0 3840 1232.59998"><path d="M3727.8999,244.2a112.1,112.1,0,1,1-112.1001,112.1h0A112.11454,112.11454,0,0,1,3727.8999,244.2Zm0,14.1a98.18538,98.18538,0,1,0,.2,0Z" transform="translate(0 0)" style="fill:#fff"/><path d="M3752.8999,368.2A33.97494,33.97494,0,0,0,3754.2,300.6h-72V414h20.69995V369.7h27.3999l31.1001,43.6h22.8999Zm-50-18.2V318.3H3749.5a15.70943,15.70943,0,0,1,15.3,16A16.43468,16.43468,0,0,1,3748.6001,350Z" transform="translate(0 0)" style="fill:#fff"/><polygon points="827.7 380.8 0 380.8 0 542.1 314.6 542.1 314.6 1208.5 513.1 1208.5 513.1 542.1 827.7 542.1 827.7 380.8" style="fill:#fff"/><polygon points="2734.8 380.8 1907 380.8 1907 542.1 2221.5 542.1 2221.5 1208.5 2420.2 1208.5 2420.2 542.1 2734.8 542.1 2734.8 380.8" style="fill:#fff"/><rect x="1645.5" y="380.79999" width="198.69995" height="827.70001" style="fill:#fff"/><path d="M1096.7,1208.5h537.9l-358.1-659A963.70556,963.70556,0,0,0,1096.7,1208.5Z" transform="translate(0 0)" style="fill:#0b61a8"/><path d="M600,1208.5H881.8a1171.12433,1171.12433,0,0,1,357.1-728.3L1117.4,256.7Z" transform="translate(0 0)" style="fill:#0b61a8"/><path d="M1745.7,0a149,149,0,1,0,149,149h0A148.85977,148.85977,0,0,0,1746,0Z" transform="translate(0 0)" style="fill:#0b61a8"/><path d="M1524.2,311.2l-12.4-23.2A1168.397,1168.397,0,0,0,1239,480.2l37.6,69.3A965.69782,965.69782,0,0,1,1524.2,311.2Z" transform="translate(0 0)" style="fill:#0b61a8"/><path d="M3231.30005,354.2c-284.69995,0-496.69995,176.7-496.69995,439.3s212,439.1,496.69995,439.1,496.5-176.7,496.5-439.1S3516.1001,354.2,3231.30005,354.2Zm0,725.6v-.4c-158.19995,0-286.3-113.7-286.3-286s128.1001-286.2,286.3-286.2S3517.6001,620.9,3517.6001,793.4,3389.5,1079.80005,3231.30005,1079.80005Z" transform="translate(0 0)" style="fill:#fff"/></svg>