<?xml version="1.0" encoding="UTF-8" standalone="no"?>
<!-- Created with Inkscape (http://www.inkscape.org/) -->

<svg
   xmlns:dc="http://purl.org/dc/elements/1.1/"
   xmlns:cc="http://creativecommons.org/ns#"
   xmlns:rdf="http://www.w3.org/1999/02/22-rdf-syntax-ns#"
   xmlns:svg="http://www.w3.org/2000/svg"
   xmlns="http://www.w3.org/2000/svg"
   xmlns:xlink="http://www.w3.org/1999/xlink"
   xmlns:sodipodi="http://sodipodi.sourceforge.net/DTD/sodipodi-0.dtd"
   xmlns:inkscape="http://www.inkscape.org/namespaces/inkscape"
   width="1000"
   height="254.05299"
   viewBox="0 0 937.50002 238.17468"
   id="svg2"
   version="1.1"
   inkscape:version="0.92.2 (5c3e80d, 2017-08-06)"
   sodipodi:docname="Team17 (1992).svg">
  <defs
     id="defs4">
    <linearGradient
       id="linearGradient4367"
       inkscape:collect="always">
      <stop
         id="stop4369"
         offset="0"
         style="stop-color:#ffffff;stop-opacity:1" />
      <stop
         id="stop4371"
         offset="1"
         style="stop-color:#cc88ae;stop-opacity:1" />
    </linearGradient>
    <linearGradient
       inkscape:collect="always"
       id="linearGradient4343">
      <stop
         style="stop-color:#ffffff;stop-opacity:1"
         offset="0"
         id="stop4345" />
      <stop
         style="stop-color:#781f6a;stop-opacity:1"
         offset="1"
         id="stop4347" />
    </linearGradient>
    <linearGradient
       inkscape:collect="always"
       xlink:href="#linearGradient4343"
       id="linearGradient4349"
       x1="-1014.1071"
       y1="987.86926"
       x2="-1014.1071"
       y2="597.86206"
       gradientUnits="userSpaceOnUse" />
    <linearGradient
       inkscape:collect="always"
       xlink:href="#linearGradient4367"
       id="linearGradient4357"
       x1="-1004.1071"
       y1="456.19461"
       x2="-1004.1071"
       y2="336.88788"
       gradientUnits="userSpaceOnUse" />
    <linearGradient
       inkscape:collect="always"
       xlink:href="#linearGradient4343"
       id="linearGradient4383"
       x1="-62.17683"
       y1="619.54425"
       x2="-62.17683"
       y2="539.06854"
       gradientUnits="userSpaceOnUse" />
    <linearGradient
       inkscape:collect="always"
       xlink:href="#linearGradient4343"
       id="linearGradient4397"
       gradientUnits="userSpaceOnUse"
       x1="-62.17683"
       y1="619.54425"
       x2="-62.17683"
       y2="539.06854" />
    <linearGradient
       inkscape:collect="always"
       xlink:href="#linearGradient4343"
       id="linearGradient4399"
       gradientUnits="userSpaceOnUse"
       x1="-62.17683"
       y1="619.54425"
       x2="-62.17683"
       y2="539.06854" />
    <linearGradient
       inkscape:collect="always"
       xlink:href="#linearGradient4343"
       id="linearGradient4401"
       gradientUnits="userSpaceOnUse"
       x1="-62.17683"
       y1="619.54425"
       x2="-62.17683"
       y2="539.06854" />
    <linearGradient
       inkscape:collect="always"
       xlink:href="#linearGradient4343"
       id="linearGradient4403"
       gradientUnits="userSpaceOnUse"
       x1="-62.17683"
       y1="619.54425"
       x2="-62.17683"
       y2="539.06854" />
    <linearGradient
       inkscape:collect="always"
       xlink:href="#linearGradient4343"
       id="linearGradient4405"
       gradientUnits="userSpaceOnUse"
       x1="-62.17683"
       y1="619.54425"
       x2="-62.17683"
       y2="539.06854" />
    <linearGradient
       inkscape:collect="always"
       xlink:href="#linearGradient4343"
       id="linearGradient4407"
       gradientUnits="userSpaceOnUse"
       x1="-62.17683"
       y1="619.54425"
       x2="-62.17683"
       y2="539.06854" />
  </defs>
  <sodipodi:namedview
     id="base"
     pagecolor="#ffffff"
     bordercolor="#666666"
     borderopacity="1.0"
     inkscape:pageopacity="0.0"
     inkscape:pageshadow="2"
     inkscape:zoom="0.35355339"
     inkscape:cx="650.32834"
     inkscape:cy="274.65403"
     inkscape:document-units="px"
     inkscape:current-layer="layer1"
     showgrid="false"
     inkscape:window-width="1024"
     inkscape:window-height="706"
     inkscape:window-x="-8"
     inkscape:window-y="-8"
     inkscape:window-maximized="1"
     units="px" />
  <metadata
     id="metadata7">
    <rdf:RDF>
      <cc:Work
         rdf:about="">
        <dc:format>image/svg+xml</dc:format>
        <dc:type
           rdf:resource="http://purl.org/dc/dcmitype/StillImage" />
        <dc:title></dc:title>
      </cc:Work>
    </rdf:RDF>
  </metadata>
  <g
     inkscape:label="Layer 1"
     inkscape:groupmode="layer"
     id="layer1"
     transform="translate(0,-814.18755)">
    <g
       id="g4385"
       transform="matrix(0.44682295,0,0,0.44682295,496.53201,698.68745)">
      <g
         id="g4373">
        <path
           id="path4337"
           d="m -1111.25,258.49205 v 16.5 85.7852 h 304.42969 v -102.2852 z m 330.02539,0 v 16.5 253.1836 c 0,35.5402 15.27131,72.4135 36.57813,105.92 21.30681,33.5064 48.91876,63.5648 76.68359,84.0097 45.26878,33.3342 99.00765,66.5399 186.08594,70.3223 l 0.35937,0.016 h 57.57813 v -114.3906 l -18.09961,1.7637 c -101.55433,9.897 -155.24627,-26.743 -187.51953,-76.2286 -32.27327,-49.4855 -40.84571,-114.0898 -40.84571,-155.5273 v -83.2832 h 245.03711 v -102.2852 h -355.85742 z m 566.49219,0 -4.70508,4.2325 c -153.44597,137.9988 -183.96875,316.0063 -183.96875,421.5078 v 105.5996 h 99.49023 v -136.0508 c 0,-104.0289 43.39956,-195.72 106.09375,-264.1855 v 149.2714 h -57.07226 v 83.5079 h 60.60742 v 167.457 h 95.955079 v -531.3399 z m 329.38476,0 -4.86132,5.0118 c -140.601656,144.959 -182.085942,276.7324 -182.085942,393.5859 v 132.7422 h 99.490234 v -145.7871 c 1.039024,-5.9692 32.942644,-185.2069 129.499998,-283.2696 h 87.50977 c 96.55736,98.0627 128.46097,277.3004 129.5,283.2696 v 145.7871 h 99.49023 v -132.7422 c 0,-116.8535 -41.48429,-248.6269 -182.08593,-393.5859 l -4.86133,-5.0118 z m 427.33789,0 v 531.3399 h 105.31446 v -531.3399 h -16.5 z m 132.41407,0 v 16.5 85.7852 h 312.49218 v -102.2852 z m -1752.6543,33 h 238.42969 v 36.2852 H -1078.25 Z m 330.02539,0 h 289.85742 v 36.2852 H -703.4043 v 116.2832 c 0,45.7179 8.38347,115.5597 46.20508,173.5527 35.7169,54.7658 99.7691,96.879 200.25977,92.293 v 45.5371 h -23.7461 c -79.40289,-3.5036 -123.90354,-31.6541 -167.71093,-63.9121 -23.62687,-17.3979 -49.28658,-45.0806 -68.4043,-75.1445 -19.11773,-30.064 -31.42383,-62.5902 -31.42383,-88.211 z m 546.30469,0 h 70.58789 v 465.3399 h -29.95508 v -167.457 h -60.60742 v -17.5079 h 57.07226 v -259.4082 l -27.61718,25.1817 c -83.09871,75.7678 -144.47657,186.9709 -144.47657,316.1406 v 103.0508 h -33.49023 v -72.5996 c 0,-98.0932 27.94003,-263.3376 168.48633,-392.7403 z m 330.7168,0 h 143.30664 c 131.99709,138.0565 168.09179,257.6741 168.09179,365.5977 v 99.7422 h -33.49023 v -115.6172 l -0.20899,-1.2988 c 0,0 -29.71497,-197.001 -143.91211,-307.4981 l -4.79687,-4.6426 H 143.11328 l -4.79687,4.6426 C 24.11927,442.91495 -5.5957031,639.91595 -5.5957031,639.91595 l -0.2089844,1.2988 v 115.6172 H -39.294922 v -99.7422 c 0,-107.9236 36.0946933,-227.5412 168.091802,-365.5977 z m 446.19335,0 h 39.31446 v 465.3399 h -39.31446 z m 132.41407,0 h 246.49218 v 36.2852 H 707.4043 Z m -1818.6543,83.4278 v 16.5 85.7851 h 137.34766 c -18.94455,25.2271 -37.11846,51.9633 -49.80856,83.5938 -18.7039,46.62 -28.8098,84.2876 -27.9493,114.248 0.8775,30.5531 12.6967,64.0288 35.0625,83.1797 32.01116,27.4095 53.7335,31.2499 84.78715,33.0469 48.92694,2.8313 104.206,-17.249 139.84961,-75.7695 l 6.8086,-11.1778 -52.99414,-52.0879 -11.38868,14.5235 c -9.74211,12.4245 -17.17506,20.7085 -24.88086,25.8867 -7.70579,5.1782 -16.16877,8.215 -31.32617,9.2246 -11.01058,0.7334 -29.81309,-5.3 -40.19336,-20.2461 -10.38026,-14.9461 -15.74252,-40.2213 3.40039,-84.5195 10.40466,-24.0772 18.37373,-36.5123 40.4375,-66.0684 15.04918,-20.1595 34.59572,-42.4926 49.72071,-53.834 h 45.55664 v -102.2851 z m 460.71484,8.5722 v 16.5 77.2129 h 225.16797 v -93.7129 z m 1324.93946,0.3946 v 16.5 71.8554 h 185.9082 v 15.8789 l -161.23633,275.2344 v 26.4766 h 106.84961 l 180.9707,-334.1289 v -71.8164 z m -516.35547,1.0215 v 16.5 154.3808 h 89.42773 V 384.90815 Z M -1078.25,407.91985 h 238.42969 v 36.2851 h -22.86133 l -4.12695,2.7129 c -22.95661,15.091 -44.45237,41.2283 -61.73438,64.3789 -22.50379,30.1456 -33.0044,46.6161 -44.28515,72.7207 -22.03274,50.9855 -18.05416,90.7419 -0.21094,116.4336 17.84322,25.6917 46.14684,35.9024 69.48828,34.3477 19.19462,-1.2785 34.78502,-6.1898 47.54101,-14.7617 7.84034,-5.2687 14.39114,-11.6549 20.6836,-18.7539 l 7.96289,7.8261 c -28.94822,40.0221 -66.38211,51.3112 -102.54102,49.2188 -30.67127,-1.7749 -36.54643,-0.609 -65.22851,-25.168 -9.64529,-8.2588 -22.94929,-38.5275 -23.53909,-59.0625 -0.6068,-21.1277 7.7266,-56.4849 25.58987,-101.0098 14.93807,-37.2335 39.78007,-68.7385 65.64844,-102.3125 l 20.47265,-26.5703 H -1078.25 Z m 460.71484,8.5722 h 159.16797 v 27.7129 h -159.16797 z m 1324.93946,0.3946 h 246.49218 v 30.4531 L 786.26953,756.83195 H 741.14258 L 893.3125,497.07415 v -57.8321 H 707.4043 Z m -516.35547,1.0215 h 23.42773 v 104.8808 h -23.42773 z"
           style="color:#000000;font-style:normal;font-variant:normal;font-weight:normal;font-stretch:normal;font-size:medium;line-height:normal;font-family:sans-serif;text-indent:0;text-align:start;text-decoration:none;text-decoration-line:none;text-decoration-style:solid;text-decoration-color:#000000;letter-spacing:normal;word-spacing:normal;text-transform:none;writing-mode:lr-tb;direction:ltr;baseline-shift:baseline;text-anchor:start;white-space:normal;clip-rule:nonzero;display:inline;overflow:visible;visibility:visible;opacity:1;isolation:auto;mix-blend-mode:normal;color-interpolation:sRGB;color-interpolation-filters:linearRGB;solid-color:#000000;solid-opacity:1;fill:url(#linearGradient4349);fill-opacity:1;fill-rule:nonzero;stroke:none;stroke-width:33;stroke-linecap:square;stroke-linejoin:miter;stroke-miterlimit:4;stroke-dasharray:none;stroke-dashoffset:0;stroke-opacity:1;color-rendering:auto;image-rendering:auto;shape-rendering:auto;text-rendering:auto;enable-background:accumulate"
           inkscape:connector-curvature="0" />
        <path
           inkscape:connector-curvature="0"
           style="color:#000000;font-style:normal;font-variant:normal;font-weight:normal;font-stretch:normal;font-size:medium;line-height:normal;font-family:sans-serif;text-indent:0;text-align:start;text-decoration:none;text-decoration-line:none;text-decoration-style:solid;text-decoration-color:#000000;letter-spacing:normal;word-spacing:normal;text-transform:none;writing-mode:lr-tb;direction:ltr;baseline-shift:baseline;text-anchor:start;white-space:normal;clip-rule:nonzero;display:inline;overflow:visible;visibility:visible;opacity:1;isolation:auto;mix-blend-mode:normal;color-interpolation:sRGB;color-interpolation-filters:linearRGB;solid-color:#000000;solid-opacity:1;fill:url(#linearGradient4357);fill-opacity:1;fill-rule:nonzero;stroke:none;stroke-width:33;stroke-linecap:square;stroke-linejoin:miter;stroke-miterlimit:4;stroke-dasharray:none;stroke-dashoffset:0;stroke-opacity:1;color-rendering:auto;image-rendering:auto;shape-rendering:auto;text-rendering:auto;enable-background:accumulate"
           d="m -1111.25,258.49219 v 16.5 85.78515 h 304.42969 V 258.49219 Z m 330.02539,0 v 16.5 253.18359 c 0,17.01172 3.5053,34.32841 9.49023,51.43555 h 35.58985 c -7.64275,-18.27901 -12.08008,-36.09662 -12.08008,-51.43555 V 291.49219 h 289.85742 v 36.28515 H -703.4043 v 116.28321 c 0,36.0602 5.22918,87.1262 25.99219,135.55078 h 36.44922 c -22.94305,-45.91157 -29.44141,-99.49757 -29.44141,-135.55078 v -83.28321 h 245.03711 V 258.49219 Z m 566.49219,0 -4.70508,4.23242 c -109.95554,98.88648 -156.78706,218.31233 -174.50391,316.88672 h 33.56055 c 17.19584,-90.18081 60.43445,-197.86498 158.46094,-288.11914 h 70.58789 v 288.11914 h 32.999999 V 258.49219 Z m 329.38476,0 -4.86132,5.01172 C -0.56047645,377.27528 -49.849312,482.92289 -65.953125,579.61133 h 33.304687 C -17.248951,492.38668 27.573901,397.36178 128.79688,291.49219 h 143.30664 c 101.22295,105.86959 146.04582,200.89449 161.44531,288.11914 h 33.30469 C 450.7497,482.92289 401.46085,377.27528 291.10938,263.50391 l -4.86133,-5.01172 z m 427.33789,0 v 321.11914 h 33 V 291.49219 h 39.31446 v 288.11914 h 33 V 258.49219 h -16.5 z m 132.41407,0 v 16.5 85.78515 H 986.89648 V 258.49219 Z m -1752.6543,33 h 238.42969 v 36.28515 H -1078.25 Z m 1785.6543,0 h 246.49218 v 36.28515 H 707.4043 Z m -872.22657,20.96679 -27.61718,25.18164 c -66.71463,60.82913 -119.41989,144.5017 -137.61328,241.97071 h 33.62304 c 14.97486,-73.44619 51.29309,-138.34576 98.60742,-190.01563 v 149.27149 h -57.07226 v 40.74414 h 33 v -7.74414 h 57.07226 z m 307.93555,15.31641 -4.79687,4.64258 C 64.094166,404.23534 25.582231,512.54872 7.6992188,579.61133 H 42.613281 C 60.526644,517.01946 95.70045,422.72117 156.69531,360.77539 h 87.50977 c 60.99486,61.94578 96.16867,156.24407 114.08203,218.83594 h 34.91406 C 375.31816,512.54872 336.80622,404.23534 262.58398,332.41797 l -4.79687,-4.64258 z M -1111.25,374.91992 v 16.5 85.78516 h 137.34766 c -18.94455,25.22705 -37.11846,51.96324 -49.80856,83.59375 -2.5866,6.44701 -4.9908,12.7046 -7.2422,18.8125 h 35.30662 c 0.83729,-2.15762 1.68056,-4.32032 2.56445,-6.52344 14.93807,-37.2335 39.78007,-68.73856 65.64844,-102.3125 l 20.47265,-26.57031 H -1078.25 v -36.28516 h 238.42969 v 36.28516 h -22.86133 l -4.12695,2.71289 c -22.95661,15.09098 -44.45237,41.22832 -61.73438,64.37891 -21.20922,28.41135 -31.75667,44.68354 -42.34375,68.31445 h 36.56836 c 7.51709,-14.52506 16.10781,-26.98782 32.2207,-48.57227 15.04918,-20.15951 34.59572,-42.49258 49.72071,-53.83398 h 45.55664 V 374.91992 Z m 460.71484,8.57227 v 16.5 77.21289 h 225.16797 v -93.71289 z m 1324.93946,0.39453 v 16.5 71.85547 h 185.9082 v 15.8789 l -53.5957,91.49024 h 38.24414 L 893.3125,497.07422 V 439.24219 H 707.4043 v -22.35547 h 246.49218 v 30.45312 l -71.64062,132.27149 h 37.5293 l 67.11132,-123.90821 v -71.8164 z m -516.35547,1.02148 v 16.5 154.38086 h 89.42773 V 384.9082 Z m -775.58399,31.58399 h 159.16797 v 27.71289 h -159.16797 z m 808.58399,1.41601 h 23.42773 v 104.88086 h -23.42773 z"
           id="path4292" />
      </g>
      <g
         style="fill:url(#linearGradient4383);fill-opacity:1"
         id="g4224">
        <path
           style="fill:url(#linearGradient4397);fill-opacity:1;fill-rule:nonzero;stroke:none;stroke-width:25;stroke-linecap:square;stroke-linejoin:bevel;stroke-miterlimit:4;stroke-dasharray:none;stroke-opacity:1"
           d="m -1094.75,274.99219 v 69.28515 h 271.42969 v -69.28515 z m 0,116.42773 v 69.28516 h 154.24609 c -25.76326,33.43752 -51.8168,66.16899 -67.89259,106.23828 -18.2836,45.57247 -27.5032,82.08486 -26.7695,107.62891 0.7336,25.54404 13.2952,57.41623 29.3008,71.12109 30.34658,25.98426 44.14532,27.32188 75.00778,29.10784 44.08078,2.55089 92.10132,-14.18806 124.80469,-67.88128 l -30.49805,-29.97672 c -19.99222,25.4969 -33.74368,39.1047 -68.0957,41.39274 -34.35202,2.28805 -94.2108,-32.48972 -53.03516,-127.77344 10.84271,-25.0909 20.07755,-39.54371 42.36133,-69.39453 16.78462,-22.48428 38.34535,-47.82113 57.57617,-60.46289 h 34.42383 v -69.28516 z"
           id="rect4149"
           inkscape:connector-curvature="0"
           sodipodi:nodetypes="ccccccccssssccssscccc" />
        <path
           style="fill:url(#linearGradient4399);fill-opacity:1;fill-rule:nonzero;stroke:none;stroke-width:25;stroke-linecap:square;stroke-linejoin:bevel;stroke-miterlimit:4;stroke-dasharray:none;stroke-opacity:1"
           d="m -764.72461,274.99219 v 253.18359 c 0,61.16093 55.15323,138.79977 106.54492,176.64258 44.56095,32.81292 93.701,63.50594 177.01953,67.125 h 40.72071 V 692.23828 C -652.98965,712.95257 -686.9043,531.21599 -686.9043,444.06055 v -99.78321 h 245.0373 v -69.28515 z m 130.68945,125 v 60.71289 h 192.16797 v -60.71289 z"
           id="path4152"
           inkscape:connector-curvature="0"
           sodipodi:nodetypes="csscccsccccccccc" />
        <path
           style="fill:url(#linearGradient4401);fill-opacity:1;fill-rule:nonzero;stroke:none;stroke-width:25;stroke-linecap:square;stroke-linejoin:bevel;stroke-miterlimit:4;stroke-dasharray:none;stroke-opacity:1"
           d="M -208.40459,274.99219 C -357.40846,408.99606 -386.906,581.9027 -386.906,684.23335 v 89.09885 h 66.49 V 653.78057 c 0,-123.93851 58.94043,-230.8658 139.09392,-303.94822 V 555.3672 h -57.07336 v 50.508 h 60.60889 v 167.457 h 62.95398 V 274.99219 Z"
           id="path4154"
           inkscape:connector-curvature="0"
           sodipodi:nodetypes="cccccccccccccc" />
        <path
           style="fill:url(#linearGradient4403);fill-opacity:1;fill-rule:nonzero;stroke:none;stroke-width:25;stroke-linecap:square;stroke-linejoin:bevel;stroke-miterlimit:4;stroke-dasharray:none;stroke-opacity:1"
           d="m 630.80516,274.9922 h -72.31478 v 498.34016 h 72.31478 z"
           id="path4158"
           inkscape:connector-curvature="0"
           sodipodi:nodetypes="ccccc" />
        <path
           style="fill:url(#linearGradient4405);fill-opacity:1;fill-rule:nonzero;stroke:none;stroke-width:25;stroke-linecap:square;stroke-linejoin:bevel;stroke-miterlimit:4;stroke-dasharray:none;stroke-opacity:1"
           d="m 690.9043,274.99219 v 69.28515 h 279.49218 v -69.28515 z m 0,125.39453 v 55.35547 h 185.9082 v 36.85547 L 715.57617,767.83203 v 5.5 h 80.52149 L 970.39648,451.52148 v -51.13476 z"
           id="path4160"
           inkscape:connector-curvature="0" />
        <path
           style="fill:url(#linearGradient4407);fill-opacity:1;fill-rule:nonzero;stroke:none;stroke-width:25;stroke-linecap:square;stroke-linejoin:bevel;stroke-miterlimit:4;stroke-dasharray:none;stroke-opacity:1"
           d="M 121.63477,274.99219 C -16.654821,417.56749 -55.794922,544.04491 -55.794922,657.08984 V 773.33203 H 10.695312 V 642.5293 c 0,0 31.083124,-193.74292 139.093748,-298.25391 H 251.11133 C 359.12196,448.78638 390.20508,642.5293 390.20508,642.5293 v 130.80273 h 66.49023 V 657.08984 c 0,-113.04493 -39.1401,-239.52235 -177.42969,-382.09765 z m 52.91406,126.41601 v 137.88086 h 56.42773 V 401.4082 Z"
           id="path4210"
           inkscape:connector-curvature="0" />
      </g>
    </g>
  </g>
</svg>
