<?xml version="1.0" encoding="utf-8"?>
<!DOCTYPE svg PUBLIC "-//W3C//DTD SVG 20010904//EN" "http://www.w3.org/TR/2001/REC-SVG-20010904/DTD/svg10.dtd">
<svg version="1.0" xmlns="http://www.w3.org/2000/svg" width="656px" height="456px" viewBox="0 0 656 456" preserveAspectRatio="xMidYMid meet">
   <defs>
      <linearGradient id="lg0" gradientUnits="userSpaceOnUse" x1="49.84756%" y1="1.9736842%" x2="49.84756%" y2="97.58772%">
         <stop offset="0%" style="stop-color:rgb(46,49,148);"></stop>
         <stop offset="100%" style="stop-color:rgb(108,204,244);"></stop>
      </linearGradient>
      <linearGradient id="lg1" gradientUnits="userSpaceOnUse" x1="49.84756%" y1="4.605263%" x2="49.84756%" y2="46.491226%">
         <stop offset="0%" style="stop-color:rgb(237,32,36);"></stop>
         <stop offset="100%" style="stop-color:rgb(255,209,2);"></stop>
      </linearGradient>
   </defs>
 <g fill="#3752a5">
  <path fill="url(#lg0)" d="M213 342 l0 -111 -105 0 -105 0 0 -114 0 -114 325 0 325 0 0 114 0 114 -105.5 0 -105.5 0 0 102 0 102 -3.5 0 -3.5 0 0.2 -105.2 0.3 -105.3 14.8 -0.3 c8.1 -0.1 14.7 -0.5 14.7 -0.9 0 -1.2 -16.3 -31.4 -18 -33.3 -1.6 -1.9 -3 -2 -22.4 -2 l-20.6 0 0 17 0 17 -3.5 0 -3.5 0 0 -69.5 0 -69.5 3.3 0 3.2 0 34.3 67.5 c22.5 44.3 34.2 68.5 34.2 70.5 l0 3 25.3 0 25.4 0 -15.6 -30.7 c-8.7 -17 -25.1 -49.4 -36.6 -72 l-21 -41.3 -9.2 0 -9.3 0 0 -3.5 c0 -2.8 3.6 -9.6 16.5 -31.5 9.1 -15.3 16.5 -28.1 16.5 -28.4 0 -0.4 -24.5 -0.6 -54.5 -0.6 l-54.5 0 0 94.5 0 94.5 -3.5 0 -3.5 0 0 -8.5 0 -8.5 -12 0 c-7.3 0 -12 0.4 -12 1 0 0.6 -0.7 1 -1.5 1 -1.3 0 -1.5 2.6 -1.5 17.5 l0 17.5 -3.5 0 -3.5 0 0 -84.5 0 -84.5 16.5 0 16.5 0 0 -20 0 -20 -54 0 -54 0 0 20 0 20 16.4 0 c9.8 0 16.7 0.4 17.1 1 0.3 0.5 0.3 32.3 -0.1 70.5 l-0.7 69.5 -3.4 0 c-3.1 0 -3.3 -0.2 -3.3 -3.3 0 -4.3 -1.5 -5.7 -6.2 -5.7 l-3.9 0 7.1 13.5 c3.8 7.5 7 14.2 7 15 0 0.8 0.5 1.5 1 1.5 0.6 0 1 1.6 1 3.5 0 3.3 -0.2 3.5 -3.5 3.5 -1.9 0 -3.5 -0.5 -3.5 -1 0 -0.6 -0.5 -1.6 -1.1 -2.3 -0.6 -0.7 -5.9 -10.4 -11.7 -21.7 l-10.7 -20.5 -34.2 -0.3 -34.3 -0.2 0 -35 0 -35 11.3 0 11.3 0 8.2 -15 c4.5 -8.2 8.2 -15.2 8.2 -15.5 0 -0.3 -8.8 -0.5 -19.5 -0.5 l-19.6 0 0.3 -10.7 0.3 -10.8 18 -0.5 17.9 -0.5 11.2 -19 c6.2 -10.4 11.3 -19.3 11.3 -19.7 0.1 -0.5 -22.4 -0.8 -49.9 -0.8 l-50 0 0 101.5 0 101.5 -3.5 0 -3.5 0 0 -14.3 0 -14.4 -2.5 -1.1 c-1.4 -0.7 -6.9 -1.2 -12.1 -1.2 -10.4 0 -12.4 0.9 -12.4 5.4 0 2.3 -0.4 2.6 -3.4 2.6 l-3.4 0 -0.7 -8.2 c-0.3 -4.6 -0.5 -36 -0.3 -69.8 l0.3 -61.5 16.8 -0.3 16.7 -0.2 0 -20 0 -20 -54 0 -54 0 0 20 0 20 16.5 0 16.5 0 0 84 0 84 85.8 0.2 85.7 0.3 0.3 114.3 0.2 114.2 -3.5 0 -3.5 0 0 -111z m-172 -134.5 c0 -14 -0.2 -16.5 -1.5 -16.5 -0.8 0 -1.5 -0.7 -1.5 -1.5 0 -1.3 -2.2 -1.5 -14 -1.5 l-14 0 0 18 0 18 15.5 0 15.5 0 0 -16.5z m598.8 -14 l-0.3 -25.5 -28.7 -56.9 c-23.9 -47.2 -28.8 -57.5 -28.8 -61 l0 -4.1 19.4 0 c18.9 0 19.5 0.1 21 2.2 0.9 1.2 1.7 2 2 1.7 0.4 -0.3 11.3 -26.4 13.7 -32.6 l0.9 -2.3 -50.6 0 -50.5 0 0.3 20.3 0.3 20.2 29.3 57.6 c22.4 44.2 29.2 58.5 29.2 61.3 l0 3.6 -26.1 0 c-24.5 0 -26.4 -0.1 -29.4 -2 l-3.3 -2 -0.4 20.7 c-0.2 11.5 -0.2 21.6 0 22.6 0.4 1.6 3.7 1.7 51.4 1.7 l50.9 0 -0.3 -25.5z m-109.8 -52.5 l0 -76 -20.5 0 -20.5 0 0 36.1 0 36.1 20.3 39.9 c11.1 21.9 20.3 39.9 20.5 39.9 0.1 0 0.2 -34.2 0.2 -76z m0 -105.5 l0 -20.5 -20.5 0 -20.5 0 0 20.5 0 20.5 20.5 0 20.5 0 0 -20.5z"/>
  <path d="M435 449.5 c0 -3.3 0.2 -3.5 3.5 -3.5 3.3 0 3.5 0.2 3.5 3.5 0 3.3 -0.2 3.5 -3.5 3.5 -3.3 0 -3.5 -0.2 -3.5 -3.5z"/>
  <path d="M397 61 l0 -19 12 0 12 0 0 3.7 c0 2.7 -1.9 6.9 -7.9 17.2 -4.4 7.5 -8.3 14.4 -8.6 15.4 -0.5 1.1 -1.8 1.7 -4.1 1.7 l-3.4 0 0 -19z"/>
 </g>
 <g fill="#ed2e24">
  <path d="M212.6 452.8 c-1.4 -2 -1.6 -14.2 -1.6 -111 l0 -108.8 -103.8 0 c-79.4 0 -104.1 -0.3 -105 -1.2 -1.7 -1.7 -1.7 -227.9 0 -229.6 0.9 -0.9 74.6 -1.2 325.3 -1.2 312.8 0 324.2 0.1 325.8 1.8 1.6 1.7 1.7 11 1.7 113.8 0 99.7 -0.2 112.2 -1.6 114.2 l-1.5 2.2 -104 0 -103.9 0 0 109.4 c0 98.2 -0.2 109.6 -1.6 111 -1.4 1.4 -13.2 1.6 -114.9 1.6 l-113.4 0 -1.5 -2.2z m3.9 -224.5 c-0.3 -1 -22.2 -1.2 -105.7 -1.1 l-105.3 0.3 105.3 0.2 105.2 0.3 0.2 111.3 0.3 111.2 0.3 -110.5 c0.1 -60.8 0 -111.1 -0.3 -111.7z m219.5 107.7 l0 -111 105.5 0 105.5 0 0.1 -25.7 c0.1 -14.2 0.4 -28.3 0.9 -31.3 0.4 -3.3 0.8 7.3 0.9 26.7 l0.1 32.3 -105.2 0.2 -105.3 0.3 0 99.3 0 99.2 0.2 -99 0.3 -99 105.5 0 105.5 0 0 -111 0 -111 -322 0 -322 0 0.2 110.3 c0.2 60.6 0.5 96.7 0.8 80.2 0.4 -26.1 0.6 -28.5 1.2 -18.5 0.5 6.3 0.8 19.5 0.8 29.3 l0 17.7 105 0 105 0 0 111 0 111 108.5 0 108.5 0 0 -111z"/>
  <path d="M254 216.5 c0 -3.3 0.2 -3.5 3.5 -3.5 3.3 0 3.5 0.2 3.5 3.5 0 3.3 -0.2 3.5 -3.5 3.5 -3.3 0 -3.5 -0.2 -3.5 -3.5z"/>
  <path d="M513 216.5 c0 -3.3 0.2 -3.5 3.5 -3.5 3.3 0 3.5 0.2 3.5 3.5 0 3.3 -0.2 3.5 -3.5 3.5 -3.3 0 -3.5 -0.2 -3.5 -3.5z"/>
  <path d="M523.7 210.3 c-0.4 -0.3 -0.7 -2.2 -0.7 -4 0 -3.3 0.1 -3.4 3.8 -3.1 3.5 0.3 3.7 0.5 4 4.1 0.3 3.6 0.2 3.7 -3.1 3.7 -1.8 0 -3.7 -0.3 -4 -0.7z"/>
  <path d="M594.2 179.3 c0.3 -3.6 0.5 -3.8 4.1 -4.1 l3.8 -0.3 -0.3 3.8 c-0.3 3.6 -0.5 3.8 -4.1 4.1 l-3.8 0.3 0.3 -3.8z"/>
  <path d="M538 178.5 c0 -3.3 0.2 -3.5 3.5 -3.5 3.3 0 3.5 0.2 3.5 3.5 0 3.3 -0.2 3.5 -3.5 3.5 -3.3 0 -3.5 -0.2 -3.5 -3.5z"/>
  <path fill="url(#lg1)" d="M421.7 123.7 c-15.8 -31.2 -19.8 -40 -19.8 -43 0.1 -3 2.1 -7.3 9 -19 4.8 -8.4 9.3 -16.2 10 -17.4 l1.2 -2.3 -12.6 0 -12.5 0 0 34.5 0 34.5 -3.5 0 -3.5 0 0 -23 0 -23 -2.2 -0.5 c-1.3 -0.3 -7.5 -0.4 -13.8 -0.3 l-11.5 0.3 -0.3 27.8 -0.2 27.7 -3.5 0 -3.5 0 0 -52 0 -52 49.3 0 c27 0 51.6 -0.3 54.5 -0.6 l5.2 -0.7 0 3.7 c0 3 -3.3 9.2 -17 32.4 l-16.9 28.7 11 0.5 11.1 0.5 17.9 35 c12.2 23.8 17.9 36 17.9 38.3 0 3 -0.2 3.2 -3.4 3.2 -2.3 0 -3.6 -0.6 -4 -1.7 -0.4 -1 -8.4 -16.8 -17.9 -35 l-17.1 -33.3 -12.8 0 -12.8 0 0 -4.1 c0 -3.1 1.1 -6.1 4 -11.1 2.2 -3.9 4 -7.2 4 -7.4 0 -0.2 -1.7 -0.4 -3.8 -0.4 -3.6 0 -3.9 0.2 -8.9 8.7 l-5.1 8.6 18.9 37.9 c11.9 23.9 18.9 38.9 18.9 40.8 0 2.7 -0.3 3 -3.2 3 l-3.3 0 -19.8 -39.3z"/>
  <path fill="url(#lg1)" d="M628.2 159.5 c-0.7 -1.4 -1.2 -3 -1.2 -3.6 0 -0.5 -0.5 -1.5 -1.1 -2.2 -0.6 -0.7 -11.3 -21 -23.8 -45.2 l-22.7 -44 -14.2 -0.3 c-7.8 -0.1 -14.2 0 -14.2 0.3 0 0.3 10.1 20.8 22.5 45.5 14.4 28.7 22.5 46.1 22.5 48 0 2.7 -0.3 3 -3.2 3 l-3.3 0 -25.7 -50.9 -25.8 -51 0 -22 0 -22.1 50.5 0 50.5 0 0 2.8 c0 1.5 -2.6 9.3 -5.8 17.2 -5.7 14.3 -5.9 14.5 -9.1 14.8 -2.1 0.2 -4 -0.3 -5.3 -1.5 -1.7 -1.5 -4.2 -1.8 -16.7 -2.1 -13.6 -0.3 -14.9 -0.2 -17.2 1.7 l-2.4 2 24.8 49.3 c13.6 27.1 24.8 49.9 24.7 50.6 0 0.6 0.4 1.2 0.8 1.2 1.3 0 3.2 4.8 3.2 8 0 2.7 -0.3 3 -3.3 3 -2.6 0 -3.6 -0.6 -4.5 -2.5z"/>
  <path d="M494.2 152.5 c-2.3 -4.7 -4.2 -9.9 -4.2 -11.5 0 -2.7 0.3 -3 3.3 -3 3.1 0 3.5 0.4 7.5 8.5 2.3 4.7 4.2 9.9 4.2 11.5 0 2.7 -0.3 3 -3.3 3 -3.1 0 -3.5 -0.4 -7.5 -8.5z"/>
  <path fill="url(#lg1)" d="M166.2 106.4 l0.3 -3.9 12.5 -0.5 12.5 -0.5 4.3 -8.2 4.3 -8.3 -16.9 0 c-14.6 0 -17.1 -0.2 -17.6 -1.6 -0.3 -0.9 -0.6 -5.3 -0.6 -9.9 l0 -8.3 -5.5 -0.7 c-3 -0.3 -9.1 -0.3 -13.5 0.1 l-8 0.7 0 17.8 0 17.9 -3.5 0 -3.5 0 0 -42.5 0 -42.5 50 0 50 0 0 2.9 c0 1.9 -3.6 9.1 -10.2 20.5 l-10.3 17.6 -19 0.2 -19 0.3 0 10 0 10 19.3 0.3 19.2 0.2 0 3 c0 1.9 -2.7 8 -6.7 15.5 l-6.8 12.5 -10.5 0 c-5.8 0 -12.9 0.3 -15.8 0.7 l-5.3 0.6 0.3 -3.9z"/>
  <path fill="url(#lg1)" d="M307 86.1 c0 -24.5 1.7 -22.1 -15.6 -22.1 l-11.1 0 -0.7 9.2 c-0.3 5 -0.6 12.6 -0.6 17 l0 7.8 -3.5 0 -3.5 0 0 -20.5 0 -20.5 -16.5 0 -16.5 0 0 -20.5 0 -20.5 50.5 -0.2 c27.8 -0.1 52.2 -0.2 54.3 -0.3 l3.7 0 0 20.5 0 20.5 -16.7 0.3 -16.8 0.2 0 25 0 25 -3.5 0 -3.5 0 0 -20.9z"/>
  <path fill="url(#lg1)" d="M48 81.5 l0 -24.5 -16.7 -0.2 -16.8 -0.3 0 -20.5 0 -20.5 3.8 0 c2 0.1 26.4 0.2 54.2 0.3 l50.5 0.2 0 20.5 0 20.5 -16.5 0 -16.5 0 0 20.5 0 20.5 -3.4 0 -3.3 0 -0.6 -16.1 c-0.3 -8.8 -0.7 -16.3 -1 -16.5 -1 -1 -15.5 -1.7 -21.1 -1 l-5.6 0.7 0 20.5 0 20.4 -3.5 0 -3.5 0 0 -24.5z"/>
  <path d="M489 80 l0 -15 20.5 0 20.5 0 0 13.5 0 13.5 -3.5 0 -3.5 0 0 -10 0 -10 -13.5 0 -13.5 0 0 11.5 0 11.5 -3.5 0 -3.5 0 0 -15z"/>
  <path fill="url(#lg1)" d="M489 35.5 l0 -20.5 20.5 0 20.5 0 0 20.5 0 20.5 -20.5 0 -20.5 0 0 -20.5z"/>
 </g>
 <g fill="#858737">
  <path d="M42 215 c0 -13.6 1.9 -15.1 2.2 -1.7 l0.2 9.2 0.3 -9 c0.3 -5.5 0.8 -9.2 1.6 -9.7 0.9 -0.6 0.9 -0.8 0 -0.8 -1 0 -1.3 -15.1 -1.3 -72 0 -63.3 -0.2 -72 -1.5 -72 -0.8 0 -1.5 -0.4 -1.5 -1 0 -0.5 1.1 -1 2.5 -1 1.6 0 2.5 -0.6 2.5 -1.5 0 -0.8 0.9 -1.5 2 -1.5 1.9 0 2 0.7 2.2 24.8 l0.3 24.7 0.2 -21.8 c0.2 -13.9 0.7 -21.6 1.3 -21.2 0.6 0.4 1 28.2 1 77.1 l0 76.4 17.5 0 17.5 0 0 2.5 c0 2.1 0.5 2.5 3 2.5 2.8 0 3 0.3 3 3.5 l0 3.5 -26.5 0 -26.5 0 0 -11z"/>
  <path d="M125 222.5 c0 -3.1 0.3 -3.5 2.5 -3.5 l2.5 0 -0.2 -101.2 c-0.1 -55.7 -0.5 -90.9 -0.8 -78.3 l-0.6 23 -0.2 -24.7 c-0.2 -24.2 -0.2 -24.8 1.8 -24.8 1.1 0 2 0.5 2 1 0 0.6 1.1 1 2.5 1 1.8 0 2.5 0.5 2.5 2 0 1.1 -0.7 2 -1.5 2 -1.3 0 -1.5 5 -1.3 39.8 0.2 33.4 0.3 36.3 0.8 18.2 1 -42.5 2 -13.1 2 61.8 l0 75.2 57.5 0 57.4 0 -7.4 -14.2 -7.4 -14.3 -35.3 -0.5 -35.3 -0.5 -0.3 -4.7 -0.3 -4.8 3.5 0 c2.5 0 3.6 0.4 3.6 1.5 0 1.3 4.3 1.5 33 1.5 22.8 0 33 -0.3 33 -1.1 0 -0.6 1 -0.9 2.3 -0.7 1.7 0.2 3.6 3 8.6 12.6 6.8 13.1 9.2 16.3 3.5 4.7 -3.8 -7.8 -3.9 -8.5 -2.1 -8.5 1.5 0 8.7 14.1 8.7 17 0 1.1 0.6 2 1.3 2 0.7 0 2.9 3.4 5 7.5 3.8 7.6 6.7 9.8 6.7 5 l0 -2.5 17.5 0 17.5 0 0 -75.4 c0 -75.3 1 -104.3 2 -58.1 l0.6 24 0.2 -25.2 c0.2 -24.6 0.3 -25.3 2.2 -25.3 1.1 0 2 0.7 2 1.5 0 0.9 0.9 1.5 2.5 1.5 1.4 0 2.5 0.5 2.5 1 0 0.6 -0.7 1 -1.5 1 -1.3 0 -1.5 9.6 -1.3 81.8 0.2 44.9 0.4 73.3 0.5 63 0.2 -11.4 0.7 -18.8 1.3 -18.8 0.6 0 1 7.8 1 20.5 l0 20.5 -97.5 0 -97.5 0 0 -3.5z m139 -8.4 c-2.8 -5.6 -3.5 -5.2 -0.8 0.4 1.2 2.4 2.3 4.3 2.6 4.1 0.2 -0.2 -0.6 -2.2 -1.8 -4.5z"/>
  <path d="M349.7 225.3 c-1.1 -1 -0.8 -40.3 0.3 -40.3 0.5 0 1.1 3.5 1.3 7.8 0.1 4.2 0.4 -34.5 0.5 -86 0.2 -93.1 0.2 -93.8 2.2 -93.8 1.1 0 2 0.5 2 1 0 0.6 1.4 1 3 1 2.3 0 3 0.4 3 2 0 1.3 -0.7 2 -2 2 -1.1 0 -2 0.7 -2 1.5 0 0.8 -0.4 1.5 -1 1.5 -0.7 0 -1 32.3 -1 95 l0 95 2.5 0 c1.4 0 2.5 0.5 2.5 1 0 0.6 5.7 1 15 1 l15 0 0 -65.5 c0 -41.7 0.4 -65.5 1 -65.5 0.5 0 1.1 5.4 1.3 12.7 l0.3 12.8 0.2 -12.7 0.2 -12.8 2.8 -0.6 c4.4 -1 4.9 -1.2 2 -1.3 l-2.8 -0.1 0 -19 c0 -12 -0.4 -19 -1 -19 -0.5 0 -1 -0.9 -1 -2 0 -1.9 0.7 -2 17.1 -2 15.1 0 17 0.2 16.5 1.6 -0.3 0.8 -5.5 10 -11.6 20.4 -6 10.4 -11 19.3 -11 19.9 0 1.4 12.8 27.1 13.5 27.1 0.3 0 -2.4 -5.8 -6 -13 -3.6 -7.1 -6.5 -13.4 -6.5 -13.9 0 -0.9 11.4 -20.6 12.9 -22.3 0.9 -1.1 0.7 3.2 -0.3 6 -0.4 1.2 -1.2 2.2 -1.7 2.2 -0.5 0 -0.9 0.6 -0.9 1.4 0 0.8 -0.6 2.1 -1.3 2.8 -0.7 0.7 -1.9 2.8 -2.6 4.6 -0.7 1.7 -1.7 3.2 -2.2 3.2 -0.5 0 -0.9 0.5 -0.9 1.1 0 0.6 15.2 30.9 33.8 67.5 l33.7 66.4 17.3 0 17.3 0 -28.8 -57.2 c-15.8 -31.5 -29.1 -57.5 -29.4 -57.8 -0.4 -0.3 -2.1 -3.3 -3.8 -6.7 l-3.1 -6.3 -12.6 0 -12.7 0 0.6 -4.6 c0.2 -2.6 0.9 -4.9 1.3 -5.3 0.5 -0.3 2.2 -3.2 3.9 -6.3 1.6 -3.2 3.3 -5.8 3.7 -5.8 0.4 0 0.8 -0.7 0.8 -1.5 0 -0.8 0.6 -1.5 1.4 -1.5 0.7 0 2.1 -1 3 -2.2 2.5 -3.4 1.5 -1.5 -5.8 11.3 -3.6 6.4 -6.6 12.1 -6.6 12.8 0 0.8 3.9 1.1 12.8 1.1 l12.9 0 2.3 5.1 c1.3 2.8 2.8 5.3 3.3 5.6 0.4 0.3 -0.6 -2.2 -2.3 -5.6 l-3 -6.1 -12.6 0 c-10.6 0 -12.5 -0.2 -12.1 -1.4 0.3 -0.8 8.7 -15.2 18.6 -32 10 -16.8 18.1 -30.7 18.1 -30.9 0 -0.3 -0.9 -0.3 -2 0 -1.1 0.3 -2 0 -2 -0.6 0 -0.6 1.4 -1.1 3.1 -1.1 2 0 3.9 -0.8 5 -2.1 1 -1.1 2.7 -1.9 3.8 -1.7 1.7 0.3 -0.4 4.4 -16.1 30.8 -9.9 16.8 -18.2 31.1 -18.5 31.7 -0.3 0.8 0.3 1.3 1.6 1.3 1.2 0 2.1 0.5 2.1 1 0 0.6 2.5 1 5.5 1 3 0 5.5 -0.4 5.5 -1 0 -0.5 0.8 -1 1.8 -1 1.2 0 3.8 4.1 9.1 14.8 4.1 8.1 7.5 15.2 7.6 15.7 0.1 2.2 1.7 5.5 2.5 5.5 0.5 0 12.9 23.7 27.6 52.8 14.7 29 27.3 53.6 28.1 54.7 3.7 5.5 -0.5 -3.3 -19.2 -40.1 -12.6 -24.6 -20.5 -41.3 -20.5 -43.1 0 -2.2 0.2 -2.5 1 -1.3 0.6 1 1 -11.2 1 -35.2 l0 -36.8 21.5 0 21.5 0 0 72.4 c0 63.3 -0.2 72.6 -1.5 74 -1.4 1.3 -1.3 1.9 0.2 5 1.1 2.5 1.9 3.2 2.5 2.4 0.5 -0.8 0.8 -0.2 0.8 1.7 0 2.2 0.3 2.6 0.9 1.6 0.5 -0.8 0.7 -2 0.4 -2.8 -0.3 -0.7 0.2 -1.3 1.1 -1.3 1.5 0 1.6 -2.1 1.3 -22.2 -0.2 -12.3 -0.8 -23.8 -1.2 -25.6 l-0.8 -3.4 6.3 4.6 6.2 4.6 23.4 0 c12.9 0 23.4 -0.3 23.4 -0.6 0 -0.4 -13.1 -26.5 -29 -58 -20.4 -40.3 -29.2 -58.6 -29.6 -61.8 -0.5 -3.1 -0.3 -4.6 0.5 -4.6 0.8 0 1.1 -5 1.1 -17 0 -10.7 -0.4 -17 -1 -17 -0.5 0 -1 -0.9 -1 -2 0 -2 0.7 -2 54.5 -2 30 0 54.5 0.3 54.5 0.6 0 0.6 -17.9 44.4 -18.7 45.7 -0.3 0.5 -2.1 -1.4 -3.9 -4.2 -3.3 -4.9 -3.7 -5.1 -7.9 -5.1 -2.5 0 -4.5 -0.4 -4.5 -1 0 -0.6 -4.2 -1 -10.5 -1 -6.3 0 -10.5 0.4 -10.5 1 0 0.6 -0.7 1 -1.5 1 -0.8 0 -1.5 0.4 -1.5 1 0 0.5 7.6 16.4 16.9 35.2 9.3 18.9 17.9 36.7 19.2 39.6 1.2 2.8 2.6 5.2 3.1 5.2 0.5 0 4.7 7.8 9.4 17.3 6.1 12.3 8.6 18.7 9.1 22.5 0.4 3.6 0.2 5.2 -0.6 5.2 -0.8 0 -1.1 6 -1.1 21.1 0 17.4 0.3 21.3 1.5 22.5 0.8 0.9 1.5 1.1 1.5 0.5 0 -0.6 0.5 -1.1 1 -1.1 0.6 0 1 1.6 1 3.5 0 3.3 -0.2 3.5 -3.5 3.5 -3.6 0 -4.8 -1.5 -1.7 -2.3 1.6 -0.4 1.6 -0.5 0 -0.6 -1 0 -1.8 -0.5 -1.8 -1.1 0 -0.7 -16.8 -1 -48.5 -1 -29.1 0 -48.5 0.4 -48.5 0.9 0 0.5 -0.8 1.2 -1.7 1.4 -1.7 0.4 -1.7 0.5 0 0.6 0.9 0 1.7 0.6 1.7 1.2 0 0.8 -1.5 1 -4.5 0.7 -2.5 -0.3 -4.5 -0.2 -4.5 0.3 0 0.5 -14.7 0.9 -33 0.9 l-33 0 -10 -20 c-5.5 -11 -10 -20.2 -10 -20.5 0 -0.3 0.7 -0.5 1.6 -0.5 0.8 0 1.2 0.5 0.9 1 -0.3 0.6 -0.2 1 0.3 1 0.5 0 3.2 4.5 6.1 10 2.9 5.5 5.5 10 5.7 10 0.3 0 -2.3 -5.4 -5.7 -12 -3.4 -6.5 -6.7 -11.6 -7.2 -11.3 -0.6 0.3 -0.7 0.1 -0.3 -0.5 0.4 -0.6 -7.8 -17.9 -18.1 -38.4 -10.3 -20.5 -18.6 -37.9 -18.5 -38.5 0.2 -0.7 -0.2 -1.3 -0.7 -1.3 -0.6 0 -3.3 -4.4 -6 -9.7 l-5 -9.8 0.2 67 c0.1 36.9 0.3 59.2 0.4 49.8 0.2 -10.6 0.7 -17.3 1.3 -17.3 0.7 0 0.9 7.3 0.8 20.3 l-0.3 20.2 -26.1 0.3 c-14.3 0.1 -26.3 -0.1 -26.7 -0.5z m284.1 -34.5 l-0.3 -22.3 -14.3 -28.4 c-11.3 -22.4 -14.3 -29.1 -14 -31.6 0.3 -2.7 0.1 -3.1 -1.7 -2.8 -1.7 0.4 -3.6 -2.7 -13.2 -22.1 -6.2 -12.4 -10.9 -22.6 -10.3 -22.6 0.5 0 0.7 -0.8 0.4 -1.7 -0.9 -2.8 6.1 9.8 13.2 24 3.5 7 6.6 12.7 6.9 12.7 0.3 0 -4.4 -9.9 -10.5 -22 -6 -12.1 -11 -23.1 -11 -24.4 0 -1.5 1.1 -3.3 2.7 -4.6 2.6 -2 3.6 -2.1 20.4 -1.8 15.7 0.3 17.9 0.5 19.8 2.2 2.4 2.2 1.3 4 9.4 -16.2 4.1 -10.1 4.4 -11.2 2.6 -11.2 -1 0 -1.9 -0.4 -1.9 -1 0 -0.7 -15.3 -1 -44 -1 -28.7 0 -44 0.3 -44 1 0 0.6 -0.7 1 -1.5 1 -1.3 0 -1.5 2.8 -1.5 18.9 l0 19 12.5 25 c6.9 13.8 12.7 25.1 13 25.1 0.3 0 -4.7 -10.3 -11 -23 -6.3 -12.6 -11.5 -23.2 -11.5 -23.5 0 -0.3 0.9 0 2 0.7 1.3 0.8 13.3 23.5 29.5 55.4 23.8 46.8 27.5 54.8 27.5 58.6 0 6.1 -3.1 9.8 -8.3 9.8 -3.3 0 -3.7 -0.3 -3.7 -2.5 l0 -2.5 -19.5 0 -19.5 0 0 2.5 c0 2.3 -0.4 2.5 -4 2.5 l-4 0 0 14.5 0 14.5 45.1 0 45 0 -0.3 -22.2z m-109.8 -59.3 l0 -60.5 -14.5 0 -14.5 0 0 32.7 0 32.6 14.2 27.9 c7.9 15.3 14.4 27.8 14.5 27.8 0.2 0 0.3 -27.2 0.3 -60.5z m-57 -13.5 c-1.1 -2.2 -2.3 -4 -2.5 -4 -0.3 0 0.4 1.8 1.5 4 1.1 2.2 2.3 4 2.5 4 0.3 0 -0.4 -1.8 -1.5 -4z m42.5 -49 l16.4 0 0.4 10.3 0.3 10.2 0.2 -10.7 0.2 -10.8 -17.5 0 -17.5 0 0.2 12.3 0.2 12.2 0.3 -11.7 0.4 -11.8 16.4 0z m-99.4 -9.1 c4.4 -7.5 7.9 -13.9 7.9 -14.2 0 -0.4 -0.9 -0.7 -2.1 -0.7 -1.1 0 -1.7 -0.4 -1.4 -1 0.4 -0.6 -1.7 -1 -5.4 -1 -3.4 0 -6.1 0.4 -6.1 1 0 0.6 -0.7 1 -1.5 1 -1.3 0 -1.5 2.5 -1.5 16.3 0.1 12.3 0.3 15.7 1.2 14.2 0.6 -1.1 4.6 -8.1 8.9 -15.6z"/>
  <path d="M42.1 194.3 c0.2 -13.6 1.7 -15.8 1.8 -2.5 0.1 6.8 -0.3 11.2 -0.9 11.2 -0.6 0 -1 -3.5 -0.9 -8.7z"/>
  <path d="M532.3 166.5 c0 -2.2 0.2 -3 0.4 -1.7 0.2 1.2 0.2 3 0 4 -0.3 0.9 -0.5 -0.1 -0.4 -2.3z"/>
  <path d="M172 112.5 c0 -2 -0.5 -2.5 -2.5 -2.5 -2.2 0 -2.5 -0.4 -2.5 -3.5 l0 -3.5 12.4 0 12.4 0 1.2 -3 c0.7 -1.6 1.5 -3 1.9 -3 0.3 0 1.4 -2.1 2.5 -4.6 1 -2.4 2.6 -5.2 3.5 -6.1 1.1 -1.2 1.3 -1.7 0.3 -2.1 -2.3 -0.7 -1.2 -2.2 1.8 -2.2 1.7 0 3 0.2 3 0.4 0 0.3 -1.9 4 -4.2 8.3 -2.2 4.3 -3.7 7.4 -3.1 6.8 0.5 -0.5 2.9 -4.5 5.2 -8.7 l4.2 -7.8 -4.1 0 c-2.2 0 -4 -0.4 -4 -1 0 -0.6 -5.3 -1 -14 -1 l-14 0 0 -3.5 c0 -2.4 0.5 -3.5 1.5 -3.5 0.8 0 1.5 0.7 1.5 1.5 0 1.3 3 1.5 21 1.5 11.6 0 21 0.3 21 0.7 0 0.4 -4.3 8.7 -9.7 18.5 l-9.6 17.8 -11.4 0 c-9.4 0 -11.3 0.3 -11.3 1.5 0 0.8 -0.7 1.5 -1.5 1.5 -0.9 0 -1.5 -0.9 -1.5 -2.5z m23.5 -8.3 c0.5 -1.4 0.4 -1.5 -0.6 -0.4 -0.9 0.8 -5 1.2 -13 1.2 -6.5 0 -12 0.3 -12.2 0.8 -0.3 0.4 5.3 0.6 12.3 0.4 11 -0.3 12.9 -0.6 13.5 -2z"/>
  <path d="M89 59.5 c0 -3.3 0.2 -3.5 3.5 -3.5 3.9 0 5 2.4 1.5 3.3 -1.1 0.3 -2 1.2 -2 2.1 0 0.9 -0.7 1.6 -1.5 1.6 -1 0 -1.5 -1.1 -1.5 -3.5z"/>
  <path d="M172 59.5 c0 -3.3 0.2 -3.5 3.5 -3.5 3.9 0 5 2.4 1.5 3.3 -1.1 0.3 -2 1.2 -2 2.1 0 0.9 -0.7 1.6 -1.5 1.6 -1 0 -1.5 -1.1 -1.5 -3.5z"/>
  <path d="M270 61.4 c0 -0.9 -0.9 -1.8 -2 -2.1 -3.5 -0.9 -2.4 -3.3 1.5 -3.3 3.3 0 3.5 0.2 3.5 3.5 0 2.4 -0.5 3.5 -1.5 3.5 -0.8 0 -1.5 -0.7 -1.5 -1.6z"/>
  <path d="M123.3 59.3 c-0.7 -0.3 -1.3 -1.1 -1.3 -1.9 0 -0.8 -1 -1.4 -2.5 -1.4 -1.4 0 -2.5 -0.4 -2.5 -1 0 -0.5 0.7 -1 1.5 -1 1.3 0 1.5 -2.6 1.5 -17.5 0 -14.9 -0.2 -17.5 -1.5 -17.5 -0.8 0 -1.5 -0.7 -1.5 -1.5 0 -0.9 0.9 -1.5 2.5 -1.5 1.6 0 2.5 -0.6 2.5 -1.5 0 -0.8 0.9 -1.5 2 -1.5 1.9 0 2 0.7 2 22.9 0 12.7 -0.3 23.2 -0.7 23.4 -0.5 0.2 -1.4 0.2 -2 0z"/>
  <path d="M209 58.1 c0 -1.4 -0.6 -2.1 -2 -2.1 -1.1 0 -2 -0.4 -2 -1 0 -0.5 0.6 -1 1.3 -1 0.7 0 5.8 -7.8 11.3 -17.2 10 -17.3 10 -17.3 7.5 -17.9 -2.2 -0.6 -2 -0.7 1.2 -0.8 3 -0.1 4 -0.6 4.9 -2.6 0.9 -2 1.8 -2.5 5 -2.5 2.7 0 3.8 0.4 3.8 1.5 0 0.9 0.9 1.5 2.5 1.5 1.6 0 2.5 0.6 2.5 1.5 0 0.8 -0.7 1.5 -1.5 1.5 -1.3 0 -1.5 2.6 -1.5 17.5 0 14.9 0.2 17.5 1.5 17.5 0.8 0 1.5 0.7 1.5 1.5 0 0.9 -0.9 1.5 -2.4 1.5 -1.3 0 -2.6 0.4 -2.8 0.9 -0.1 0.5 -1 1.1 -1.8 1.3 -1.3 0.3 -1.6 -2.7 -2 -20.9 l-0.5 -21.1 -11.8 20.3 c-12.2 21 -14.7 24.5 -14.7 20.6z"/>
  <path d="M349.4 36 c0 -12.9 0.2 -18.2 0.3 -11.7 0.2 6.4 0.2 17 0 23.5 -0.1 6.4 -0.3 1.1 -0.3 -11.8z"/>
  <path d="M486 57 c0 -1.1 0.5 -2 1 -2 0.6 0 1 -7.2 1 -19.5 0 -12.3 -0.4 -19.5 -1 -19.5 -0.5 0 -1 -0.9 -1 -2 0 -1.9 0.7 -2 23.5 -2 22.8 0 23.5 0.1 23.5 2 0 1.1 -0.4 2 -1 2 -0.5 0 -1 1.4 -1 3 0 2.3 -0.4 3 -2 3 -1.3 0 -2 -0.7 -2 -2 0 -1.1 -0.7 -2 -1.5 -2 -0.8 0 -1.5 -0.4 -1.5 -1 0 -0.6 -5.5 -1 -14.5 -1 -9 0 -14.5 0.4 -14.5 1 0 0.6 -0.7 1 -1.5 1 -1.3 0 -1.5 2.6 -1.5 17.5 l0 17.5 17.5 0 c14.9 0 17.5 -0.2 17.5 -1.5 0 -0.8 0.7 -1.5 1.5 -1.5 0.9 0 1.5 0.9 1.5 2.5 0 3.4 1.8 3.2 2.3 -0.2 0.2 -1.7 0.5 -1 0.6 2 l0.1 4.7 -23.5 0 c-22.8 0 -23.5 -0.1 -23.5 -2z"/>
  <path d="M341 55.5 c0 -0.8 0.7 -1.5 1.6 -1.5 0.9 0 1.8 -0.9 2.1 -2 0.9 -3.5 3.3 -2.4 3.3 1.5 0 3.3 -0.2 3.5 -3.5 3.5 -2.4 0 -3.5 -0.5 -3.5 -1.5z"/>
  <path d="M14 18.5 c0 -3.3 0.2 -3.5 3.5 -3.5 2.9 0 3.5 0.4 3.5 2.1 0 1.5 -0.4 1.9 -1.6 1.5 -1.1 -0.4 -1.8 0.1 -2.1 1.4 -0.9 3.5 -3.3 2.4 -3.3 -1.5z"/>
  <path d="M344.7 20 c-0.3 -1.3 -1 -1.8 -2.1 -1.4 -1.2 0.4 -1.6 0 -1.6 -1.5 0 -1.7 0.6 -2.1 3.5 -2.1 3.3 0 3.5 0.2 3.5 3.5 0 3.9 -2.4 5 -3.3 1.5z"/>
 </g>
 <g fill="#77c742">
  <path d="M42.3 203.3 c0.4 -12 0.7 -22 0.9 -22.3 0.1 -0.3 0.5 9 0.8 20.5 l0.5 21 23.5 0 23.5 0.1 -23 -0.3 -23 -0.3 0 -81.3 0 -81.2 -16.8 0 -16.7 0 0 -23.2 0 -23.3 56.5 0 56.5 0 0 23.3 0 23.2 -16.5 -0.3 -16.6 -0.3 0.1 61.4 c0.1 33.8 0.4 64.1 0.8 67.3 l0.7 5.9 0.6 -4.5 c0.3 -2.5 0.7 4.6 0.7 15.8 l0.2 20.2 -26.6 0 -26.6 0 0.5 -21.7z m35.5 14 c-4.9 -0.2 -12.7 -0.2 -17.6 0 -4.8 0.1 -0.8 0.3 8.8 0.3 9.6 0 13.6 -0.2 8.8 -0.3z m-25.4 -157.1 c0.3 -0.3 0.6 34.2 0.6 76.6 l0 77.2 2.3 0.5 c1.2 0.3 8.1 0.4 15.2 0.3 l13 -0.3 0.5 -77.5 c0.3 -42.6 0.7 -75.7 0.9 -73.5 0.2 2.2 0.7 10.3 1 18 l0.8 14 0.1 -20.7 0.2 -20.8 16.8 -0.2 16.7 -0.3 0 -17.2 0.1 -17.3 -50.2 0 c-27.6 0 -51 -0.3 -51.8 -0.6 -1.5 -0.6 -1.6 1.2 -1.4 17.2 l0.3 17.9 16.3 0.3 16.2 0.2 0.2 81.8 0.1 81.7 0.8 -78.4 c0.4 -43 1 -78.6 1.3 -78.9z"/>
  <path d="M125.1 206.8 c0.1 -26.2 1.5 -32.5 2 -8.8 0.2 10.2 0.6 -27.2 0.9 -83 l0.5 -101.5 110.8 -0.3 110.7 -0.2 0 23 0 23 -16.7 0.2 -16.8 0.3 -0.2 81 -0.1 81 -23.4 0.5 -23.3 0.6 24 -0.1 24 0 0.5 -19 c0.6 -23.8 1.6 -22.2 1.5 2.5 l-0.1 18.5 -97.2 0.3 -97.2 0.2 0.1 -18.2z m142.2 15.5 c0.5 -0.7 -70.6 -0.7 -120.3 0 -10.7 0.1 11.9 0.3 50.2 0.5 38.3 0.1 69.9 -0.1 70.1 -0.5z m-4.4 -10.2 c-1.8 -3.3 -3.5 -5.9 -3.7 -5.7 -0.1 0.2 1.2 3.4 3 7 1.8 3.7 3.4 6.2 3.6 5.7 0.2 -0.6 -1.1 -3.8 -2.9 -7z m-5.3 4.1 c0.1 -0.7 0 -0.8 -0.3 -0.2 -0.3 0.7 -20.9 1 -61.9 1 l-61.4 0 0 -48.8 c0 -26.9 0.3 -63.2 0.8 -80.8 0.6 -28.8 0.7 -24.2 1.2 47.6 l0.5 79.5 58.3 0.3 58.3 0.2 -8 -15.2 -8 -15.3 -35.1 -0.3 -35 -0.2 0 -40 0 -39.9 12.3 -0.3 12.2 -0.3 5.2 -9.5 5.3 -9.5 -17.5 -0.3 -17.5 -0.2 0.2 -11.8 c0.2 -11.7 0.2 -11.7 0.7 -3.2 l0.5 8.5 0.6 -11.5 0.5 -11.5 19.4 -0.5 19.4 -0.5 2.6 -4.6 c1.4 -2.6 5.9 -10.2 9.8 -17 l7.3 -12.4 -47.3 -0.5 -47.2 -0.5 -0.3 98.5 c-0.1 54.2 0 99.1 0.3 99.8 0.7 1.8 123.7 1.3 124.1 -0.6z m44.2 1.1 c-4.9 -0.2 -12.7 -0.2 -17.5 0 -4.9 0.1 -0.9 0.3 8.7 0.3 9.6 0 13.6 -0.2 8.8 -0.3z m26.7 -163.3 l16.5 0 0 -18.1 c0 -16.1 -0.2 -18 -1.6 -17.5 -0.9 0.3 -24.3 0.6 -52 0.6 l-50.4 0 0 17.5 0 17.5 17 0 17 0 0.2 20.8 c0.1 20.6 0.1 20.6 0.9 7.7 0.3 -7.1 0.8 -15.2 1 -18 0.2 -2.7 0.6 29.9 0.9 72.5 l0.5 77.5 13.8 0.3 c11.7 0.2 13.7 0 13.7 -1.3 0 -0.8 0.7 -1.5 1.5 -1.5 1.3 0 1.5 -9.4 1.7 -77.7 0.1 -57.6 0.3 -70.8 0.9 -50.8 0.3 14.9 0.8 51.1 1 80.5 0.4 48.3 0.4 45.6 0.6 -28.2 l0.3 -81.8 16.5 0z m-60.4 136.5 c0.3 2.2 0.6 -9.3 0.7 -25.5 0.1 -16.2 0.5 -46.7 0.9 -67.8 l0.6 -38.3 -16.6 0.3 -16.7 0.3 0 -21.7 c0 -12 -0.4 -21.8 -0.8 -21.8 -0.4 0 -2.3 2.8 -4.1 6.3 -1.8 3.4 -7.4 13.1 -12.5 21.6 l-9.1 15.3 -17.7 -0.1 -17.8 -0.2 0 8.6 0 8.5 20.9 0 20.8 0 -3.1 5.9 c-1.7 3.2 -5.9 11.1 -9.4 17.5 l-6.3 11.6 -11.5 0 -11.4 0 0 32.5 0 32.5 33.3 0 c27.6 0.1 33.5 0.3 35.1 1.5 1.1 0.8 1.6 1.5 1 1.5 -0.5 0 -0.5 0.3 0.1 0.8 0.6 0.4 3 4.9 5.5 10 2.4 5 4.8 9.2 5.3 9.2 0.4 0 0.5 0.5 0.2 1 -0.3 0.6 -0.1 1 0.5 1 0.7 0 1 -0.3 0.8 -0.7 -1.8 -3.6 -6.8 -14.4 -6.8 -14.8 0 -0.3 0.4 -0.5 0.9 -0.5 0.5 0 4.3 6.3 8.3 14 l7.3 13.9 0.5 -13.2 c0.3 -8.2 0.7 -11.7 1.1 -9.2z m-17.6 10.5 c-0.9 -1.6 -1.8 -3 -2.1 -3 -0.2 0 0.2 1.4 1.1 3 0.9 1.7 1.8 3 2.1 3 0.2 0 -0.2 -1.3 -1.1 -3z m-10 -19 c-0.4 -0.6 -13.3 -1 -35.5 -1 -32.3 0 -34.9 -0.1 -35.4 -1.7 -0.4 -1.4 -0.4 -1.4 -0.3 0.2 0.2 1.9 1.2 2 35.7 2.5 19.5 0.3 35.6 0.6 35.8 0.8 0.2 0.1 0 -0.2 -0.3 -0.8z m-44.5 -78.2 c1.1 -1.8 2 -3.7 2 -4.3 0 -0.5 -0.9 0.5 -2 2.3 l-2 3.2 -11.9 0 c-6.9 0 -12.2 0.4 -12.6 1 -0.4 0.6 3.8 1 12 1 l12.5 0 2 -3.2z m6.1 -11 c1.3 -2.9 2.7 -5.5 3 -5.8 0.9 -0.7 2.9 -4.7 2.9 -5.7 0 -0.4 -8.4 -0.6 -18.7 -0.4 -17 0.3 -18.8 0.1 -20 -1.5 -1.4 -1.9 -1.7 -1.5 -0.7 1 0.5 1.4 3.2 1.6 19 1.6 10.1 0 18.4 0.2 18.4 0.4 0 0.3 -1.8 3.9 -4.1 8 -2.2 4.2 -3.7 7.6 -3.2 7.6 0.5 0 2 -2.4 3.4 -5.2z"/>
  <path d="M350 204.8 c0 -11.1 0.2 -19.9 0.4 -19.7 0.3 0.2 0.8 8.5 1.1 18.4 0.4 9.9 0.9 18.3 1.2 18.8 0.2 0.4 10.7 0.7 23.3 0.7 17.2 0 23.1 -0.3 23.7 -1.2 0.4 -0.7 1 -9.4 1.4 -19.3 l0.5 -18 0.2 20.3 0.2 20.2 -26 0 -26 0 0 -20.2z"/>
  <path d="M457 205 c-7.3 -14.5 -9.6 -20 -8.4 -20 0.8 0 1.3 0.4 1 0.9 -0.4 0.5 -0.2 1.1 0.3 1.3 0.5 0.1 5.2 8.2 10.3 17.8 l9.3 17.5 28.1 0.3 c24.1 0.2 28.3 0 29.4 -1.3 0.8 -0.9 0.8 -1.5 0.2 -1.5 -0.6 0 -1.4 0.5 -1.7 1 -0.4 0.6 -10.8 1 -28.1 1 l-27.4 0 -8.1 -16.2 c-4.5 -9 -8.5 -16.5 -9 -16.6 -0.5 -0.2 -0.7 -0.8 -0.3 -1.3 0.3 -0.5 0 -0.9 -0.6 -0.9 -0.6 0 -0.8 -0.4 -0.5 -1 0.3 -0.5 0.1 -1 -0.5 -1 -0.6 0 -0.8 -0.5 -0.4 -1.2 0.5 -0.8 0.2 -0.9 -1.1 -0.4 -1.5 0.5 -1.6 0.4 -0.5 -0.9 0.9 -1.1 0.9 -1.5 0.1 -1.5 -0.7 0 -0.9 -0.4 -0.6 -1 0.3 -0.5 0.1 -1 -0.5 -1 -0.6 0 -0.8 -0.4 -0.5 -1 0.3 -0.5 0.1 -1 -0.5 -1 -0.6 0 -0.9 -0.4 -0.6 -0.9 0.4 -0.5 0.2 -1.1 -0.3 -1.3 -0.5 -0.1 -1.1 -1 -1.3 -1.8 -0.2 -0.8 -0.5 -1.7 -0.8 -2 -0.3 -0.3 -7 -13.7 -15 -29.9 -8 -16.1 -15 -29.9 -15.6 -30.5 -0.7 -0.7 -3.8 -6.7 -6.9 -13.4 -3.2 -6.7 -6.2 -12.2 -6.6 -12.2 -0.5 0 -0.9 30.8 -0.9 68.5 l0 68.5 -23 0 -23 0 0 -104.5 0 -104.5 58.5 0 c32.2 0 58.5 0.3 58.5 0.6 0 0.4 -5.4 9.8 -12 21 -6.6 11.2 -12 20.8 -12 21.3 0 0.5 -0.3 1.1 -0.8 1.3 -0.6 0.3 -12.2 19.2 -12.2 20 0 0.2 4.2 0.1 9.4 0 l9.5 -0.4 7.4 14.4 c4.1 7.8 14.7 28.9 23.6 46.8 8.9 17.8 16.6 32.7 17 33 0.5 0.3 6.1 11.4 12.6 24.8 6.5 13.3 12.2 24.2 12.6 24.2 0.4 0 1.1 -0.4 1.4 -1 0.3 -0.5 0.1 -1 -0.5 -1 -0.6 0 -0.8 -0.4 -0.5 -1 0.3 -0.5 0.1 -1 -0.5 -1 -0.6 0 -0.8 -0.4 -0.5 -1 0.3 -0.5 0.1 -1 -0.5 -1 -0.6 0 -0.8 -0.4 -0.5 -1 0.3 -0.5 0.1 -1 -0.5 -1 -0.6 0 -0.9 -0.4 -0.6 -0.9 0.4 -0.5 0.3 -1.1 -0.2 -1.3 -0.4 -0.1 -4.5 -8.1 -9.2 -17.5 -4.6 -9.5 -8.8 -17.3 -9.2 -17.3 -0.5 0 -0.6 -0.4 -0.3 -1 0.3 -0.5 0.1 -1 -0.5 -1 -0.6 0 -0.9 -0.4 -0.6 -0.9 0.4 -0.5 0.2 -1.1 -0.2 -1.3 -0.5 -0.1 -4.3 -7.4 -8.5 -16.2 l-7.7 -15.9 0 -38.3 0 -38.4 23.5 0 23.5 0 0.1 80.3 c0 44.1 0.3 79.6 0.6 78.9 0.2 -0.6 1 -0.9 1.6 -0.5 0.9 0.5 0.9 0.3 0.1 -0.8 -0.9 -1 -1 -8.5 -0.5 -27.3 l0.6 -25.9 3.1 2.7 c1.8 1.4 3.7 2.6 4.3 2.6 0.6 0 1.1 0.3 1.1 0.8 0 2.5 6.3 3.2 27.5 3.2 12.2 0 22.4 -0.3 22.8 -0.6 0.6 -0.6 -30.8 -64.3 -32.2 -65.4 -0.4 -0.3 -6.5 -12.4 -13.6 -26.9 l-13 -26.4 -0.3 -21.9 -0.4 -21.8 54.5 0 54.6 0 -2.6 6.3 c-1.4 3.4 -2.9 6.9 -3.3 7.8 -0.5 0.9 -3.4 7.8 -6.5 15.5 -3.1 7.6 -6 14.3 -6.5 14.7 -0.4 0.5 -2 -1.2 -3.6 -3.7 -1.6 -2.5 -3.6 -4.6 -4.4 -4.7 -3.1 -0.2 -32.5 0.3 -32.8 0.6 -0.2 0.2 7.6 16 17.3 35.1 26.1 51.4 38.5 76.4 39.9 80.6 0.9 2.5 1.4 10.9 1.5 26 0.1 12.2 0.4 22.5 0.7 22.7 0.2 0.2 0.4 -4.9 0.4 -11.5 0 -6.5 0.5 -12.6 1 -13.4 0.7 -1 0.9 4.6 0.7 17 l-0.2 18.5 -89.2 0.3 -89.3 0.2 -10 -20z m114.3 17.3 c-3.4 -0.2 -9.3 -0.2 -13 0 -3.7 0.2 -0.9 0.3 6.2 0.3 7.2 0 10.2 -0.1 6.8 -0.3z m71 0 c0.3 -0.5 -9 -0.7 -20.6 -0.5 -40.2 0.4 -44.1 0.8 -12 1 17.7 0.1 32.4 -0.1 32.6 -0.5z m-257.5 -5 c-4.9 -0.2 -12.7 -0.2 -17.5 0 -4.9 0.1 -0.9 0.3 8.7 0.3 9.6 0 13.6 -0.2 8.8 -0.3z m131.9 -1.3 c0.3 -1.1 0.2 -1.2 -0.4 -0.3 -0.7 0.9 -6.7 1.3 -21.8 1.6 l-21 0.3 21.4 -0.1 c18.2 0 21.5 -0.2 21.8 -1.5z m121.1 -22.7 l-0.3 -23.8 -0.2 23.2 -0.3 23.3 -48.8 0.3 -48.7 0.2 49.3 0.3 49.2 0.2 -0.2 -23.7z m-243.1 -65.3 l-0.5 -88 16.9 0 16.9 0 -3 4.9 c-1.7 2.6 -3 5.3 -3 5.9 0 0.6 -0.4 1.2 -0.8 1.4 -0.4 0.1 -4.5 6.7 -9 14.5 l-8.2 14.2 6.7 13.6 c3.7 7.4 7.1 13.5 7.5 13.5 0.5 0 -2.1 -5.8 -5.7 -13 -3.6 -7.1 -6.5 -13.4 -6.5 -13.9 0 -0.9 11.5 -20.6 13 -22.4 0.4 -0.5 0.6 0.3 0.5 1.7 -0.2 1.4 -2.7 6.6 -5.6 11.7 l-5.3 9.1 27.2 53.7 c14.9 29.5 30.2 59.5 33.9 66.6 l6.8 13 17.8 0.3 17.9 0.2 -25.7 -50.7 c-14.2 -28 -29.1 -57.2 -33.2 -65.1 l-7.4 -14.2 -12.5 0 -12.4 0 0 -2.8 c0 -3.4 8.3 -17.7 13.1 -22.4 1.8 -1.8 3 -2.8 2.7 -2.3 -0.3 0.6 -3.5 6.2 -7.2 12.6 -3.6 6.4 -6.6 12.1 -6.6 12.8 0 0.8 3.8 1.1 12.8 1.1 l12.7 0 3.4 6.5 c1.8 3.6 3.6 6.4 3.8 6.1 0.2 -0.2 -1.2 -3.6 -3.1 -7.5 l-3.6 -7.1 -12.5 0 -12.5 0 1.2 -2.2 c0.7 -1.3 1.6 -2.5 1.9 -2.8 1.1 -1 11.9 -19.9 11.9 -20.9 0 -0.5 0.3 -1.1 0.8 -1.3 0.4 -0.2 3.3 -4.8 6.5 -10.3 6.9 -11.9 6.6 -11.4 11.1 -18.8 2 -3.2 3.6 -6.1 3.6 -6.5 0 -0.4 -23.2 -0.7 -51.5 -0.7 l-51.5 0 0.2 49.5 c0.2 27.5 0.4 37.5 0.5 22.5 0.2 -14.8 0.6 -27.7 1.1 -28.5 0.4 -0.8 0.9 33.1 1.2 75.5 l0.5 77 13.9 0.3 c9.9 0.2 14.2 -0.1 15.3 -1 1.4 -1.1 1.5 -10.5 1.2 -77.4 -0.2 -41.9 -0.1 -76.5 0.2 -76.8 0.8 -0.8 1.9 64.6 1.9 114.7 0 22.9 0.3 41.7 0.7 41.7 0.3 0 0.4 -39.6 0 -88z m147.4 51 c0.6 0 0.7 -0.4 0.4 -1 -1.9 -3 -2.3 0.8 -2.2 17.8 l0.1 18.7 0.3 -17.7 c0.2 -11.4 0.7 -17.8 1.4 -17.8z m92.7 12.8 l-0.3 -22.3 -26.9 -53 c-14.8 -29.1 -27.1 -54.3 -27.2 -56 -0.4 -3.4 1.1 -0.9 15.3 26.7 4.8 9.2 8.8 16.6 9 16.4 0.2 -0.2 -5.5 -12.2 -12.7 -26.5 -7.2 -14.4 -12.9 -27 -12.8 -27.9 0.2 -0.9 1.2 -2.5 2.2 -3.4 1.7 -1.6 4.2 -1.8 20 -1.8 15 0 18.5 0.3 20.4 1.6 1.3 0.9 2.5 1.4 2.7 1.3 0.2 -0.3 4.9 -11.7 11.2 -27.6 0.4 -1 -9.5 -1.3 -47.6 -1.3 l-48 0 0.2 18.3 c0.2 10 0.5 19.1 0.9 20.3 1.1 3.8 24.3 49.4 25 49.4 0.5 0 -4.4 -10.4 -10.8 -23.1 -6.3 -12.7 -11.4 -23.3 -11.2 -23.4 1.3 -1.3 6.8 8.6 30.6 55.6 25.9 51 27.2 54 27.2 59.2 0 5.9 -1.3 8.2 -5.4 9.3 -1.2 0.3 -13.8 0.4 -27.9 0.2 l-25.7 -0.3 0 15.3 0 15.2 46.1 0 46.1 0 -0.4 -22.2z m-106.9 -54.3 l-0.1 -70.4 -18.4 0 -18.4 0 0 35.7 0 35.7 5.5 10.5 c3 5.8 5.4 10.1 5.5 9.7 0 -0.5 -2.2 -5.3 -5 -10.6 l-5 -9.7 0 -17.5 c0 -9.6 0.3 -25.2 0.7 -34.6 l0.6 -17.3 16.2 0 16.2 0 0.6 15.2 c1.1 24.6 0.8 122 -0.3 121.3 -0.6 -0.3 -0.7 0.1 -0.4 0.9 0.3 0.9 1 1.6 1.5 1.6 0.6 0 0.9 -28.9 0.8 -70.5z m-2.9 -5 l0 -62.5 -15.5 0 -15.5 0 0 32.8 0 32.7 15.2 29.8 c8.4 16.3 15.4 29.7 15.5 29.7 0.2 0 0.3 -28.1 0.3 -62.5z m-65.5 56.5 c-1.4 -2.7 -2.8 -5 -3 -5 -0.3 0 0.6 2.3 2 5 1.4 2.8 2.8 5 3 5 0.3 0 -0.6 -2.2 -2 -5z m53 -10 c-0.9 -1.6 -1.8 -3 -2.1 -3 -0.2 0 0.2 1.4 1.1 3 0.9 1.7 1.8 3 2.1 3 0.2 0 -0.2 -1.3 -1.1 -3z m84.6 1 c1 -0.6 1.9 -1.6 1.9 -2.3 0 -0.8 -0.3 -0.9 -0.8 -0.1 -0.4 0.6 -1.6 1.6 -2.7 2.2 -2.5 1.4 -1.1 1.6 1.6 0.2z m-107.6 -19 c-1.4 -2.7 -2.8 -5 -3 -5 -0.3 0 0.6 2.3 2 5 1.4 2.8 2.8 5 3 5 0.3 0 -0.6 -2.2 -2 -5z m-54.7 -21.4 c-5.6 -11.3 -10.5 -20.6 -10.8 -20.6 -0.3 0 4.2 9.4 9.9 20.9 5.8 11.6 10.7 20.8 10.9 20.7 0.2 -0.2 -4.3 -9.6 -10 -21z m197.5 16.9 c-0.9 -1.9 -1.8 -3.3 -2.1 -3.1 -0.4 0.5 2.6 6.6 3.3 6.6 0.3 0 -0.3 -1.6 -1.2 -3.5z m-48.5 -16.9 c-5.1 -10.2 -9.5 -18.6 -9.8 -18.6 -0.3 0 3.7 8.5 8.9 18.9 5.3 10.5 9.7 18.8 9.9 18.7 0.2 -0.2 -3.9 -8.7 -9 -19z m-108 -5.1 c-5.7 -11.3 -10.7 -20.5 -11.1 -20.5 -0.5 0 0.7 2.8 2.6 6.3 1.9 3.4 6.7 12.6 10.6 20.5 3.9 7.8 7.3 14.2 7.6 14.2 0.3 0 -4.1 -9.2 -9.7 -20.5z m147 3 c-4 -8 -7.7 -14.5 -8.1 -14.5 -0.5 0 -0.3 1 0.6 2.3 0.8 1.3 4.2 7.8 7.6 14.5 3.4 6.7 6.3 12.2 6.6 12.2 0.3 0 -2.8 -6.5 -6.7 -14.5z m-219.2 -66 c0.4 -1.1 1 -2.2 1.3 -2.5 0.4 -0.3 2.8 -4.1 5.3 -8.5 2.5 -4.4 5.6 -9.7 6.8 -11.7 l2.2 -3.8 -10.1 0 -10.1 0 0 16.8 0 16.7 2 -2.5 c1.1 -1.4 2.3 -3.4 2.6 -4.5z"/>
  <path d="M486.4 58.1 c-0.2 -0.2 -0.4 -10.5 -0.4 -22.8 l0 -22.3 23.5 0 23.5 0 -0.2 22.5 -0.3 22.6 -22.8 0.2 c-12.6 0.1 -23.1 0 -23.3 -0.2z m40.8 -22.1 l0.3 -18 -18.2 0 -18.3 0 0 17.3 c0 9.6 0.3 17.7 0.7 18 0.3 0.4 8.4 0.7 17.9 0.7 l17.3 0 0.3 -18z"/>
 </g>
 <g fill="#f47321">
  <path fill="url(#lg1)" d="M51 215 c0 -1.9 0.7 -2 16 -2 l16 0 0 -27.3 c0 -15.1 -0.3 -32.2 -0.7 -38 l-0.6 -10.7 -13.4 0 -13.3 0 0 32.5 c0 31.8 0 32.5 -2 32.5 -2 0 -2 -0.7 -2 -38.7 0 -50.3 1.1 -103.4 2.1 -102.7 1.2 0.7 29.6 0.7 30.7 0 1.8 -1.1 2.1 10 2.8 84.2 l0.6 72.2 -18.1 0 c-17.4 0 -18.1 -0.1 -18.1 -2z"/>
  <path fill="url(#lg1)" d="M134 215 c0 -2 0.7 -2 58 -2 31.9 0 58 -0.3 58 -0.6 0 -0.4 -3 -6.4 -6.7 -13.5 l-6.8 -12.9 -34.7 0 c-19.1 0 -34.9 -0.3 -35.1 -0.8 -0.3 -0.4 -0.8 -11.4 -1.2 -24.5 l-0.8 -23.7 -13.3 0 -13.4 0 0 27.5 c0 26.8 0 27.5 -2 27.5 -2 0 -2 -0.6 -1.9 -44.2 0.2 -39.6 1.2 -96.7 1.7 -89.5 0.2 2.1 0.7 2.7 2.5 2.8 1.2 0 8.4 0.1 16 0.1 l13.7 0.1 0.2 8.1 c0.2 7.6 0.2 7.4 0.8 -3.4 l0.6 -11.5 0.2 13 c0.1 9.5 -0.1 12.6 -0.9 11.5 -0.9 -1.2 -1 -1.2 -0.5 0.3 0.3 1 0.6 2.1 0.6 2.3 0 0.2 8.4 0.4 18.6 0.4 17.3 0 18.6 0.1 17.9 1.8 -0.4 0.9 -0.8 2.2 -0.8 2.9 0 0.7 -0.3 1 -0.7 0.8 -0.7 -0.5 -5.2 8.4 -5 9.9 0.1 0.5 -0.2 1.2 -0.7 1.5 -0.5 0.3 -1.6 1.8 -2.6 3.3 -1.7 2.7 -1.9 2.7 -13.7 3 l-12 0.3 -0.1 38 0 38 35 0.3 34.9 0.2 8.6 16.5 c4.7 9 8.6 16.9 8.6 17.5 0 0.7 -20.2 1 -61.5 1 -60.8 0 -61.5 0 -61.5 -2z"/>
  <path fill="url(#lg1)" d="M275.4 145.8 c0.7 -71.1 1.1 -86.2 2.5 -85.4 0.4 0.3 7.5 0.6 15.7 0.7 14.8 0.1 14.9 0.1 15.5 -2.2 0.7 -3.3 1.9 60.2 1.9 106.9 0 37.5 0 38.2 -2 38.2 -2 0 -2 -0.7 -2 -33.5 l0 -33.5 -13.3 0 -13.4 0 -0.6 10.7 c-0.4 5.8 -0.7 22.9 -0.7 38 l0 27.3 16 0 c15.3 0 16 0.1 16 2 0 1.9 -0.7 2 -18.1 2 l-18.1 0 0.6 -71.2z"/>
  <path fill="url(#lg1)" d="M358.1 170.8 c0.1 -25.5 0.4 -60.5 0.8 -77.8 l0.6 -31.5 16 0 c13.1 0 16.1 -0.3 16.6 -1.5 0.8 -2 1.9 64 1.9 114.8 l0 42.2 -18 0 -18 0 0.1 -46.2z m31.9 4.2 l0 -38 -14 0 -14 0 0 38 0 38 14 0 14 0 0 -38z"/>
  <path fill="url(#lg1)" d="M449 168.3 c-13.4 -26.9 -24.7 -49 -25.2 -49.1 -0.4 -0.2 -0.6 -0.8 -0.2 -1.3 0.3 -0.5 0 -0.9 -0.6 -0.9 -0.6 0 -0.8 -0.4 -0.5 -1 0.3 -0.5 0.1 -1 -0.5 -1 -0.6 0 -0.8 -0.4 -0.5 -1 0.3 -0.5 0.1 -1 -0.5 -1 -0.6 0 -0.8 -0.4 -0.5 -1 0.3 -0.5 0.1 -1 -0.5 -1 -0.6 0 -0.8 -0.4 -0.5 -1 0.3 -0.5 0.1 -1 -0.6 -1 -0.7 0 -1 -0.3 -0.6 -0.6 0.3 -0.4 -2.3 -6.4 -5.9 -13.5 -3.5 -7.1 -6.4 -13.3 -6.4 -13.8 0 -0.6 2.8 -5.6 6.2 -11.3 6.2 -10.5 8.5 -13.7 7.3 -10.5 -0.6 1.5 0.1 1.7 6.8 1.7 6.6 0 7.7 -0.3 9.1 -2.3 1.7 -2.2 -0.2 1.5 -6.3 12.4 -1.7 3.1 -2.8 5.9 -2.4 6.4 0.5 0.4 0.3 0.5 -0.3 0.2 -1 -0.6 -3.4 3.2 -3.4 5.3 0 0.6 5.3 1 12.8 1 l12.7 0 3.4 6.5 c1.8 3.6 3.7 6.5 4.3 6.5 0.5 0 0.6 0.5 0.3 1 -0.3 0.6 -0.1 1 0.5 1 0.6 0 0.8 0.5 0.5 1 -0.3 0.6 -0.1 1 0.5 1 0.6 0 0.8 0.5 0.5 1 -0.3 0.6 -0.1 1 0.5 1 0.6 0 0.8 0.5 0.5 1 -0.3 0.6 -0.1 1 0.5 1 0.6 0 0.8 0.5 0.5 1 -0.3 0.6 -0.1 1 0.5 1 0.6 0 0.8 0.5 0.5 1 -0.3 0.6 -0.1 1 0.5 1 0.6 0 0.8 0.5 0.5 1 -0.3 0.6 -0.1 1 0.5 1 0.6 0 0.8 0.5 0.5 1 -0.3 0.6 -0.2 1 0.3 1 0.5 0 0.9 0.6 0.9 1.3 0 0.6 5.4 11.3 11.8 23.7 20 38.1 39.4 76.4 39.5 77.8 0 0.9 -4.9 1.2 -21.3 1.2 l-21.4 0 -24.3 -48.7z m58.2 39.5 c-1.6 -2.9 -10.5 -20 -19.7 -38 l-16.8 -32.8 -15.8 0 c-8.8 0 -15.9 0.2 -15.9 0.5 0 0.8 36.1 72.9 37.2 74.3 0.8 0.9 5.5 1.2 17.5 1.2 l16.4 0 -2.9 -5.2z"/>
  <path d="M540.7 214 c0.3 -1.1 1.4 -2 2.4 -2 1.2 0 1.9 0.7 1.9 2 0 1.4 -0.7 2 -2.4 2 -1.9 0 -2.3 -0.4 -1.9 -2z"/>
  <path d="M633 214 c0 -1.3 0.7 -2 2 -2 1.3 0 2 0.7 2 2 0 1.3 -0.7 2 -2 2 -1.3 0 -2 -0.7 -2 -2z"/>
  <path fill="url(#lg1)" d="M526.2 205.8 c-0.6 -0.7 -8.5 -16.1 -17.6 -34.3 l-16.6 -33 0 -17.5 c0 -9.6 0.3 -25.3 0.7 -34.7 l0.6 -17.3 16.2 0 16.2 0 0.6 15.2 c0.4 8.3 0.7 33.5 0.7 56 0 40.1 0 40.8 -2 40.8 -1.9 0 -2 -0.7 -2 -22 l0 -22 -13 0 c-7.1 0 -13 0.3 -13 0.7 0 0.3 6.6 13.5 14.7 29.2 12.4 24.2 14.8 29.5 15.3 34.4 0.3 3.1 0.5 5.7 0.4 5.7 -0.1 0 -0.6 -0.6 -1.2 -1.2z"/>
  <path fill="url(#lg1)" d="M542.4 184.2 c-0.6 -0.4 -1.3 -1.9 -1.6 -3.4 l-0.5 -2.7 3.5 1.4 c2.7 1.2 8.7 1.5 27.4 1.5 13.9 0 24.7 -0.4 25.8 -1 1 -0.5 2.1 -2.3 2.5 -3.9 0.5 -2.5 -1.5 -7.4 -12 -28.8 -6.9 -14.2 -13 -26 -13.5 -26.1 -0.6 -0.2 -0.8 -0.8 -0.4 -1.3 0.3 -0.5 0 -0.9 -0.6 -0.9 -0.6 0 -0.8 -0.5 -0.5 -1 0.3 -0.5 0.1 -1 -0.5 -1 -0.6 0 -0.8 -0.4 -0.5 -1 0.3 -0.5 0.1 -1 -0.5 -1 -0.6 0 -0.8 -0.4 -0.5 -1 0.3 -0.5 0.1 -1 -0.5 -1 -0.6 0 -0.8 -0.4 -0.5 -1 0.3 -0.5 0.1 -1 -0.5 -1 -0.6 0 -0.8 -0.4 -0.5 -1 0.3 -0.5 0.1 -1 -0.5 -1 -0.6 0 -0.8 -0.4 -0.5 -1 0.3 -0.6 0.1 -1 -0.6 -1 -0.7 0 -1 -0.3 -0.6 -0.6 0.3 -0.4 -4.6 -10.9 -10.9 -23.5 -6.2 -12.6 -11.4 -23.2 -11.4 -23.6 0 -0.4 0.5 -0.2 1.2 0.5 0.8 0.8 6.4 1.2 18.5 1.2 16 0 17.2 -0.1 16.6 -1.7 -1.5 -4.2 1.2 0.5 12.2 21.7 6.4 12.4 12.1 22.7 12.6 22.8 0.5 0.2 0.7 0.8 0.3 1.3 -0.3 0.5 0 0.9 0.6 0.9 0.6 0 0.8 0.5 0.5 1 -0.3 0.6 -0.1 1 0.5 1 0.6 0 0.8 0.5 0.5 1 -0.3 0.6 -0.1 1 0.5 1 0.6 0 0.8 0.5 0.5 1 -0.3 0.6 -0.1 1 0.5 1 0.6 0 0.8 0.5 0.5 1 -0.3 0.6 -0.1 1 0.5 1 0.6 0 0.8 0.5 0.5 1 -0.3 0.6 -0.1 1 0.5 1 0.6 0 0.8 0.5 0.5 1 -0.3 0.6 -0.1 1 0.5 1 0.6 0 0.9 0.4 0.5 0.9 -0.3 0.5 0.1 1.5 0.8 2.3 0.7 0.7 1.4 1.7 1.5 2.1 0.1 0.9 11.5 23.4 17.5 34.7 3.2 6 4.1 8.9 4.5 14.3 0.4 6.2 0.3 6.7 -1.5 6.7 -1.7 0 -2.1 -0.9 -2.6 -5.5 -0.7 -7.1 -14.8 -35 -18.1 -35.9 -2.6 -0.7 -26.6 -0.8 -26.6 -0.1 0 0.3 3.6 7.7 8 16.5 5.9 11.8 8 17 8 19.9 0 4.8 -0.8 7.1 -2.5 7.1 -0.7 0 -1.5 0.9 -1.8 2 -0.5 1.9 -1.3 2 -28.4 2 -15.3 0 -28.3 -0.4 -28.9 -0.8z"/>
  <path d="M527.4 36 c0 -9.6 0.2 -13.6 0.3 -8.7 0.2 4.8 0.2 12.6 0 17.5 -0.1 4.8 -0.3 0.8 -0.3 -8.8z"/>
  <path d="M44.3 18.3 c14.2 -0.2 37.2 -0.2 51 0 13.9 0.1 2.3 0.2 -25.8 0.2 -28 0 -39.4 -0.1 -25.2 -0.2z"/>
  <path d="M157.3 18.3 c13 -0.2 34.4 -0.2 47.5 0 13 0.1 2.3 0.2 -23.8 0.2 -26.1 0 -36.8 -0.1 -23.7 -0.2z"/>
  <path d="M267.3 18.3 c14.2 -0.2 37.2 -0.2 51 0 13.9 0.1 2.3 0.2 -25.8 0.2 -28 0 -39.4 -0.1 -25.2 -0.2z"/>
  <path d="M384.3 18.3 c14.2 -0.2 37.2 -0.2 51 0 13.9 0.1 2.3 0.2 -25.8 0.2 -28 0 -39.4 -0.1 -25.2 -0.2z"/>
 </g>
 <g fill="#4c82c3">
  <path d="M435 436.6 c0 -10.9 0.3 -13.6 1.4 -13.6 1.9 0 2.2 2 2.2 15 -0.1 10.1 -0.3 11.5 -1.8 11.8 -1.6 0.3 -1.8 -0.8 -1.8 -13.2z"/>
  <path fill="url(#lg0)" d="M216.8 276.3 l-0.3 -48.8 -105 -0.5 -105 -0.5 0.5 -30 c0.3 -16.5 0.7 -26.8 0.8 -23 0.4 12.4 -1 11.5 17.3 11.5 14.4 0 15.9 0.2 16 1.8 0.1 0.9 0.7 -0.1 1.4 -2.3 1.2 -3.6 1.4 -1.9 1.7 17 l0.3 21 23.8 0.3 23.7 0.2 0.2 -19.2 c0 -11.6 0.4 -17.5 0.8 -14.8 l0.7 4.5 0.2 -4.5 c0.1 -3.3 0.4 -4.1 1.1 -3 0.6 1 1 1.1 1 0.3 0 -1.6 25.6 -1.8 28 -0.3 1.2 0.8 1.6 0.2 2.1 -2.8 0.3 -2 0.7 3.7 0.8 12.8 0 9.1 0.4 18.9 0.7 21.8 l0.7 5.2 69.3 0 c45.1 0 69.5 -0.3 69.9 -1 0.3 -0.5 0.1 -1 -0.4 -1 -0.6 0 -1.1 -0.7 -1.1 -1.6 0 -2.1 -6.2 -13.4 -7.3 -13.4 -0.4 0 -0.5 -0.4 -0.2 -1 0.3 -0.5 0.1 -1 -0.5 -1 -0.6 0 -0.8 -0.4 -0.5 -1 0.3 -0.5 0.2 -1 -0.3 -1 -0.6 0 -0.9 -0.6 -0.9 -1.2 0.1 -0.7 -1.3 -4.3 -3.1 -8 -1.8 -3.7 -3.2 -7 -3.2 -7.3 0 -0.3 4 -0.5 9 -0.4 4.9 0.1 8.9 0.4 8.8 0.8 0 0.3 0.1 2.4 0.3 4.6 0.2 2.2 0.6 -15.1 0.9 -38.5 l0.5 -42.5 0.3 56.8 0.2 56.7 23.8 -0.2 23.7 -0.3 0.3 -18.7 c0.2 -16.7 0.9 -21.6 2.5 -17.5 0.4 1 0.6 1 0.6 0 0.1 -1 3.8 -1.3 15.1 -1.3 l15 0 0 3.3 c0 7 1.2 32.3 1.6 33.5 0.2 0.9 5.8 1.2 23.4 1.2 l23 0 1 -2.6 c0.6 -1.4 1 -9.9 1 -18.9 l0 -16.4 24.9 -0.3 c21.6 -0.3 24.8 -0.1 23.8 1.1 -1 1.2 -0.9 1.4 0.5 0.8 1.3 -0.4 1.5 -0.2 1.1 1 -0.5 1.2 -0.3 1.4 0.7 0.8 0.8 -0.5 1.1 -0.4 0.7 0.2 -0.4 0.6 3.3 8.4 8.1 17.4 l8.7 16.4 27.9 0.3 c18.6 0.1 28.3 -0.1 29.1 -0.8 0.8 -0.7 1.5 -0.7 1.9 -0.1 0.7 1 4.8 0.3 5.6 -1 0.3 -0.5 1.7 -0.2 3.1 0.5 2 1 13.5 1.4 53.7 1.5 48.5 0.2 51.1 0.1 52 -1.6 0.6 -1 1.1 -8.2 1.1 -16.1 0.2 -14.3 0.6 -17.6 2.2 -16.6 0.5 0.3 0.9 -3 1 -7.3 0.1 -4.3 0.4 -10.3 0.9 -13.3 0.4 -3.3 0.8 7.3 0.9 26.7 l0.1 32.3 -105.2 0.2 -105.3 0.3 -0.3 48.8 -0.2 48.7 -110.5 0 -110.5 0 -0.2 -48.7z"/>
  <path d="M534.3 213 c0 -3.6 0.2 -5 0.4 -3.2 0.2 1.7 0.2 4.7 0 6.5 -0.2 1.7 -0.4 0.3 -0.4 -3.3z"/>
 </g>
 <g fill="#fcb213">
  <path fill="url(#lg1)" d="M292.8 216.2 l-16.8 -0.2 0 -30.3 c0 -16.6 0.3 -35.1 0.6 -41.2 l0.7 -11 15 0.3 c16.9 0.4 16.6 0.6 16.9 -7.3 0.1 -2.7 0.5 16.1 0.8 42 0.4 25.9 0.4 47.2 0.1 47.5 -0.3 0.3 -8.1 0.4 -17.3 0.2z"/>
  <path fill="url(#lg1)" d="M51.3 203.3 c0.4 -7.1 0.8 -27.9 0.9 -46.3 0 -18.4 0.4 -31.2 0.7 -28.5 l0.6 5 14.4 0.3 c8.7 0.1 14.8 -0.1 15.6 -0.8 1.7 -1.4 2.5 15.7 2.5 53.2 l0 29.8 -17.7 0 -17.6 0 0.6 -12.7z"/>
  <path fill="url(#lg1)" d="M134.3 195.8 c0.4 -11.2 0.8 -32.4 0.9 -47.3 0.1 -14.8 0.3 -24.5 0.5 -21.5 0.3 3 1 5.8 1.6 6.2 0.7 0.4 7.4 0.8 14.9 0.8 11.5 0 13.8 -0.3 14.6 -1.6 0.6 -1 1.2 7.8 1.6 23.7 0.4 13.9 1 25.7 1.2 26.1 0.3 0.4 16.1 0.8 35.2 0.8 l34.7 0 8.6 16.5 8.7 16.5 -61.6 0 -61.5 0 0.6 -20.2z"/>
  <path fill="url(#lg1)" d="M359.1 172.3 c0 -30.8 0.4 -43 1.1 -41 l1 2.8 15.1 -0.3 15.2 -0.3 0.6 -3.5 c0.3 -1.9 0.8 16.6 1 41.3 l0.4 44.7 -17.2 0 -17.3 0 0.1 -43.7z"/>
  <path fill="url(#lg1)" d="M473.2 214.8 c-1.2 -1.6 -42.2 -83.5 -42.2 -84.5 0 -0.4 0.9 0.3 2.1 1.5 2 2.2 2.6 2.2 20.2 2 17.6 -0.3 18.2 -0.4 17.9 -2.3 -0.4 -2.8 3.7 4.7 20 36.5 7.7 15.1 16.5 32.1 19.5 37.8 l5.5 10.2 -21 0 c-15.6 0 -21.2 -0.3 -22 -1.2z"/>
  <path fill="url(#lg1)" d="M541.7 215.3 c-0.4 -0.3 -0.7 -8.7 -0.7 -18.5 l0 -17.9 3 1.6 c2.4 1.2 7.4 1.5 27.4 1.5 l24.4 0 2.6 -3.1 c1.4 -1.7 2.6 -3.7 2.6 -4.5 0 -0.8 -5 -11.4 -11.1 -23.5 -6 -12.2 -10.8 -22.4 -10.5 -22.7 0.3 -0.3 0.6 0 0.6 0.6 0 0.7 0.9 2.1 1.9 3.1 1.7 1.7 3.6 1.9 18.2 2.1 8.9 0 16.6 0.3 17 0.6 0.5 0.3 0 -1.6 -1.1 -4.2 -4.1 -9.5 -1.2 -4.7 8.8 14.6 12 23.3 12.5 25.1 12 53 l-0.3 17.5 -47.1 0.3 c-25.9 0.1 -47.4 -0.1 -47.7 -0.5z"/>
  <path fill="url(#lg1)" d="M509.7 172.1 l-16.7 -32.8 0.1 -7.9 c0.1 -4.3 0.4 -6.5 0.6 -4.9 1 8.1 -0.3 7.5 15.8 7.5 l14.5 0 0.6 -2.7 c0.3 -1.6 0.7 -3.2 0.8 -3.8 0.2 -0.5 0.6 16.5 0.9 37.9 0.4 21.4 0.6 39 0.4 39.2 -0.1 0.1 -7.7 -14.5 -17 -32.5z"/>
 </g>
 <g fill="#61b3e4">
  <path fill="url(#lg0)" d="M217.1 380.8 c0.1 -38.1 0.5 -70.6 0.9 -72.3 0.6 -2.4 0.8 -1.6 1 3.8 0.1 3.7 0.3 7.3 0.4 8 0.1 0.9 22.5 1.3 107.7 1.5 101.8 0.2 107.7 0.1 108.4 -1.5 0.5 -1 1.1 -9.9 1.5 -19.8 0.4 -10.6 0.7 16.4 0.8 65.8 l0.2 83.7 -110.5 0 -110.5 0 0.1 -69.2z"/>
 </g>
</svg>