<?xml version="1.0" encoding="utf-8"?>
<!DOCTYPE svg PUBLIC "-//W3C//DTD SVG 20010904//EN" "http://www.w3.org/TR/2001/REC-SVG-20010904/DTD/svg10.dtd">
<svg version="1.0" xmlns="http://www.w3.org/2000/svg" width="1144px" height="371px" viewBox="0 0 1144 371" preserveAspectRatio="xMidYMid meet">
 <g fill="#ffffff">
  <path d="M164 369 c-43.6 -3.3 -85.6 -23.9 -116 -56.8 -11.9 -12.9 -20.1 -24.9 -28 -40.7 -8 -16.2 -12 -27.6 -15.7 -45.4 -2.4 -11.2 -2.7 -14.8 -2.7 -32.6 0 -30.3 3.7 -48.2 15.8 -76.7 l1.6 -3.7 -7 -5 c-3.9 -2.8 -7 -5.5 -6.9 -5.9 0 -1.1 7.9 -13.4 14.9 -23.4 7.3 -10.4 24 -28.2 34.5 -36.8 24.9 -20.4 51.7 -32.5 83.9 -38 23.1 -3.9 41.5 -3.6 66.6 1.2 49.9 9.5 96.9 41.7 122.9 84.1 26.8 43.7 34.9 102.3 21 151.2 -8.1 28.4 -24.5 56.3 -45.3 77 -37.1 37 -87.1 55.4 -139.6 51.5z m50 -33.3 c57.5 -13.6 97.5 -55.5 110.6 -115.7 1.5 -6.8 1.9 -12.8 1.9 -30 0 -18.7 -0.3 -22.9 -2.3 -32.4 -4.7 -21.8 -13.8 -42.9 -25.9 -59.9 -7.7 -10.8 -24.7 -27.6 -36.4 -35.9 -61.3 -43.9 -145.4 -39.4 -196 10.5 -10.8 10.5 -20.3 23.5 -18.8 25.3 1.8 2.2 3 1.8 11.9 -4.1 21 -13.8 45.4 -22.8 70 -25.6 25.9 -2.9 57.9 3.7 80.5 16.8 35.1 20.2 59.6 55.5 64.6 93 1.4 10.5 0.6 30.7 -1.6 40.8 -8 36.8 -29.7 64 -61.1 76.6 -11.4 4.6 -20.5 6.2 -34.4 6.2 -15.6 0 -26.5 -2.4 -39.9 -8.9 -8.2 -4 -10.8 -6 -19.1 -14.3 -10.6 -10.7 -15.7 -18.5 -19.7 -30.6 -2.5 -7.3 -2.7 -9.3 -2.7 -23.5 -0.1 -11.9 0.4 -17 1.8 -22 2.5 -9.1 8.5 -21.4 14 -28.9 4.7 -6.2 4.8 -6.4 2.9 -8.3 -1.9 -1.8 -2 -1.8 -6.4 1.3 -23.3 16.5 -36.5 45.2 -34.5 74.8 1.1 17.7 8.8 39.2 19 53.5 15.7 21.9 41.4 37.5 71 43.2 11.3 2.2 37.5 1.2 50.6 -1.9z m-27.5 -67.2 c3.2 -0.9 8.1 -2.8 10.9 -4.3 4.9 -2.6 16.6 -13.1 16.6 -14.8 0 -0.5 -2.7 -2.7 -6 -4.9 -3.3 -2.2 -6 -4.3 -6 -4.8 0 -0.4 1.4 -2.6 3 -4.9 7.7 -10.6 9 -26.8 3.1 -39.3 -13.7 -29.3 -55.5 -30.1 -74.8 -1.4 -12.9 19.3 -10.7 44.1 5.4 61 5.7 6 16 12.2 22.9 13.8 6.2 1.4 18.5 1.2 24.9 -0.4z m-143.7 -23.7 c0.8 -0.8 1.2 -5 1.2 -12.1 0 -41.5 23.1 -79.9 58.6 -97.6 16 -7.9 29.8 -10.7 49.7 -9.8 29.6 1.3 52.6 12.1 76 35.9 10.1 10.2 12.1 11.9 14.2 11.4 2.2 -0.6 2.3 -0.8 1.3 -4.3 -1.7 -6.4 -8.5 -20.1 -13.2 -26.6 -5.4 -7.6 -19.1 -20.9 -26.9 -26 -9 -6 -23.7 -12.5 -34.4 -15.4 -8.8 -2.4 -11.5 -2.7 -27.3 -2.7 -15.7 0 -18.5 0.3 -27.1 2.6 -20.8 5.6 -37.1 14.9 -51.5 29.3 -28.4 28.4 -39.2 70.2 -27.7 107.8 2.6 8.8 4.2 10.4 7.1 7.5z"/>
  <path d="M713.5 255 c-14 -2.5 -25.9 -10 -32.7 -20.4 -2.1 -3.2 -3.8 -6.6 -3.8 -7.5 0.1 -1.4 17.9 -15.3 21.3 -16.7 0.8 -0.3 1.9 0.7 2.6 2.2 3.9 8.7 13.1 15 23.3 16.1 18 1.8 25.9 -17.4 11.1 -27.1 -2.1 -1.4 -9.3 -4.8 -16.1 -7.5 -15.9 -6.4 -21.8 -9.9 -27.9 -16.4 -7.1 -7.4 -9.6 -14.5 -9.1 -25.7 0.4 -10.5 3.4 -17.4 10.3 -24.1 14.5 -14.3 41.7 -16.8 61.1 -5.8 5.5 3.1 12.3 9.8 14.8 14.6 l1.5 3 -10.2 7 c-5.6 3.8 -10.7 7.3 -11.4 7.7 -0.8 0.4 -2.2 -0.8 -3.8 -3.4 -5.2 -8.2 -13.9 -12.1 -24.1 -10.5 -8.3 1.2 -13.4 8.3 -11 15.5 1.6 5.1 7.8 9.1 22.8 15 17.1 6.7 24 10.4 29.5 15.7 14 13.6 13.5 39.3 -1 55 -5 5.4 -10.8 8.9 -18.9 11.4 -7.1 2.3 -21.2 3.2 -28.3 1.9z"/>
  <path d="M834.5 254.4 c-13.6 -2.9 -30.4 -12.7 -38.2 -22.1 -10.2 -12.2 -14.7 -25.1 -14.7 -42.3 -0.1 -6.5 0.5 -13.9 1.3 -17 2.3 -9.6 8.6 -21.4 15.1 -28.3 l5.9 -6.4 -2.2 -2.2 -2.2 -2.2 4 -3.5 c12.3 -10.8 38 -17.3 57 -14.4 35.2 5.3 58.5 33.2 58.5 69.9 0 13.3 -1.8 21 -7.6 33 -8.2 16.9 -22.7 28.8 -41.4 34.1 -10.1 2.8 -26.2 3.5 -35.5 1.4z m30 -28.5 c15.2 -5.7 24.1 -18.7 25.2 -36.9 1.5 -24.7 -11.4 -42.4 -33.3 -46 -11.5 -1.9 -27 2.3 -34.1 9.2 -3.2 3.1 -3.2 3.2 -1.3 4.5 2.7 1.9 2.6 2.4 -1.7 7.5 -9.7 11.5 -11.7 27.9 -5.3 42.5 2.2 4.9 10.1 13.7 14.5 16.1 10.2 5.7 25.7 7 36 3.1z"/>
  <path d="M446.8 254 c-18.9 -3.4 -32.1 -12.6 -39.4 -27.5 -6 -12.3 -6.4 -15.9 -6.4 -65.7 l0 -44.8 14.5 0 14.4 0 0.3 45.8 c0.3 45.3 0.3 45.7 2.6 50.7 4.7 10.1 11.9 14.5 24.2 14.5 12.3 0 19.5 -4.4 24.2 -14.5 2.3 -5 2.3 -5.4 2.6 -50.8 l0.3 -45.7 14.4 0 14.5 0 0 44.8 c0 49.9 -0.4 53.4 -6.4 65.8 -3.7 7.4 -11.4 15.9 -18.3 20.1 -9.7 5.9 -29.8 9.5 -41.5 7.3z"/>
  <path d="M529 185.5 l0 -67.5 27.8 0 c29.3 0 33.9 0.6 42.5 5 6.9 3.6 11.1 7.5 14.2 13.2 2.7 4.8 3 6.2 3 14.3 -0.1 7 -0.5 10 -2.1 13.6 -2.7 5.8 -7.6 11.3 -11.4 12.9 -1.6 0.7 -3 1.6 -3 2 0 0.5 2.5 2.2 5.5 3.9 7.6 4.3 13 10.2 15.6 16.9 2.9 7.9 2.4 22.3 -1.1 29.7 -3.1 6.4 -12.1 15.4 -18.3 18.3 -9.6 4.5 -15.4 5.2 -44.9 5.2 l-27.8 0 0 -67.5z m57.5 40.1 c5.2 -3.1 8 -8.1 8 -14.5 -0.1 -7.1 -2.8 -12.9 -7.5 -15.5 -2.8 -1.7 -5.8 -2.1 -16.2 -2.4 l-12.8 -0.4 0 17.7 0 17.7 12.8 -0.4 c10.1 -0.2 13.3 -0.7 15.7 -2.2z m-10 -53.6 c8.2 -1.3 11.7 -4.8 12.3 -12.4 0.5 -6.8 -1 -10.9 -5.2 -13.9 -2.7 -1.9 -4.7 -2.2 -14.3 -2.6 l-11.3 -0.3 0 15.1 0 15.1 6.3 0 c3.4 0 8.9 -0.5 12.2 -1z"/>
  <path d="M636 185.5 l0 -67.5 14.5 0 14.5 0 0 67.5 0 67.5 -14.5 0 -14.5 0 0 -67.5z"/>
  <path d="M932 185.5 l0 -67.5 46.5 0 46.5 0 0 13.5 0 13.5 -32 0 -32 0 0 16 0 16 29 0 29 0 0 11 0 11 -29 0 -29 0 0 27 0 27 -14.5 0 -14.5 0 0 -67.5z"/>
  <path d="M1076 199 l0 -54 -19.5 0 -19.5 0 0 -13.5 0 -13.5 53 0 53 0 0 13.5 0 13.5 -19 0 -19 0 0 54 0 54 -14.5 0 -14.5 0 0 -54z"/>
 </g>
</svg>