<?xml version="1.0" encoding="utf-8"?>
<!DOCTYPE svg PUBLIC "-//W3C//DTD SVG 20010904//EN" "http://www.w3.org/TR/2001/REC-SVG-20010904/DTD/svg10.dtd">
<svg version="1.0" xmlns="http://www.w3.org/2000/svg" width="1920px" height="243px" viewBox="0 0 1920 243" preserveAspectRatio="xMidYMid meet">
 <g fill="#ffffff">
  <path d="M1648 217.5 l0 -25.5 11.8 0 c17.4 0 23.7 2.4 27.3 10.4 2.5 5.6 2.4 12.2 -0.3 17.6 -3.7 7.1 -9.3 9.9 -20 10 l-4.8 0 0 6.5 0 6.5 -7 0 -7 0 0 -25.5z m25 1 c1.5 -1.4 2 -3.1 2 -7 0 -7 -2.1 -9.5 -8.3 -10.2 l-4.7 -0.6 0 10.3 0 10.3 4.5 -0.6 c2.5 -0.2 5.5 -1.3 6.5 -2.2z"/>
  <path d="M1696 217.5 l0 -25.5 7 0 7 0 0 10.5 0 10.5 7.5 0 7.5 0 0 -10.5 0 -10.5 7 0 7 0 0 25.5 0 25.5 -7 0 -7 0 0 -10.5 0 -10.5 -7.5 0 -7.5 0 0 10.5 0 10.5 -7 0 -7 0 0 -25.5z"/>
  <path d="M1750 217.5 l0 -25.5 7 0 7 0 0 25.5 0 25.5 -7 0 -7 0 0 -25.5z"/>
  <path d="M1776 217.5 l0 -25.5 7 0 7 0 0 21 0 21 7 0 7.1 0 -0.7 3.8 c-0.4 2 -0.9 4 -1.1 4.5 -0.2 0.4 -6.2 0.7 -13.4 0.7 l-12.9 0 0 -25.5z"/>
  <path d="M1809 217.5 l0 -25.5 7 0 7 0 0 25.5 0 25.5 -7 0 -7 0 0 -25.5z"/>
  <path d="M1835 217.5 l0 -25.5 11.8 0 c21.6 0 29.2 4.9 29.2 19 0 11.9 -6.1 17.7 -19.6 18.7 l-7.4 0.6 0 6.3 0 6.4 -7 0 -7 0 0 -25.5z m25.2 0.7 c1.5 -1.5 2 -3.3 2 -7.3 0 -4.5 -0.4 -5.6 -2.6 -7.6 -1.9 -1.6 -4 -2.3 -6.7 -2.3 l-3.9 0 0 10.1 0 10.2 4.6 -0.6 c2.7 -0.3 5.4 -1.3 6.6 -2.5z"/>
  <path d="M1892.5 242.4 c-1.6 -0.2 -4.9 -0.7 -7.2 -1 l-4.3 -0.5 0 -5.1 c0 -5 0 -5 2.8 -4.3 5.4 1.4 15.3 2.3 18 1.6 2 -0.5 2.8 -1.5 3 -3.5 0.4 -3.5 -1.9 -6.2 -6.7 -7.7 -11.7 -3.8 -16.4 -8.4 -16.4 -16.2 0 -7.6 6.8 -12.6 18.3 -13.5 3.7 -0.2 8.9 -0.1 11.4 0.2 l4.6 0.7 0 4.3 0 4.3 -8.7 -0.4 c-10.3 -0.6 -13 0.6 -11.9 5.1 0.7 2.7 1.8 3.4 12.9 7.6 7.7 3 10.7 6.6 10.7 13.1 0 6.4 -2.1 10.4 -6.8 12.8 -3.7 1.9 -14.2 3.2 -19.7 2.5z"/>
  <path d="M52.6 112.3 c-15.4 -30.1 -33.3 -65.3 -39.8 -78 l-12 -23.3 19.5 0 19.5 0 29.9 59 29.9 58.9 -9.6 19.1 -9.6 19.1 -27.8 -54.8z"/>
  <path d="M530 158.4 c-28.3 -6.1 -51 -27.7 -58.1 -55.2 -1 -4.1 -1.9 -8.8 -1.9 -10.4 l0 -2.8 17.2 0.2 17.2 0.3 1.1 4.5 c2.9 11.4 11.1 21 22.3 26.3 6.3 3 7.4 3.2 17.7 3.2 9.9 0 11.6 -0.3 16.8 -2.7 10.8 -5.1 21.3 -17.9 23.3 -28.4 l0.6 -3.4 17.4 0 c15.1 0 17.4 0.2 17.4 1.6 0 5 -3.8 17.3 -8.2 26.3 -4.4 9.2 -6.1 11.6 -13.7 19 -9 9 -15.9 13.6 -26.1 17.8 -12.7 5.1 -29.8 6.6 -43 3.7z"/>
  <path d="M905 158.4 c-23.8 -5.1 -42.6 -19.9 -53.1 -41.9 -5.7 -11.8 -7.3 -19.1 -7.3 -32.5 0 -21 7.4 -38.9 22.1 -53.7 10.2 -10.1 26.6 -18.8 39.3 -20.8 2.5 -0.3 5.3 -0.9 6.3 -1.1 1.6 -0.5 1.7 0.8 1.7 17 l0 17.5 -4.2 1.2 c-11.8 3.1 -21.8 11.5 -27.1 22.7 -3 6.2 -3.2 7.5 -3.2 17.2 0 9.7 0.2 11 3.1 17 5.6 11.7 15.1 19.8 27.2 22.9 l4.2 1.2 0 17.4 c0 13.4 -0.3 17.5 -1.2 17.4 -0.7 0 -4.2 -0.7 -7.8 -1.5z"/>
  <path d="M926 142.6 l0 -17.4 3.3 -0.7 c7.1 -1.5 15.5 -6.5 21 -12.4 l5.4 -5.9 12.3 12.3 12.3 12.3 -4.9 5.2 c-11.7 12.5 -26.9 20.3 -45.6 23.5 l-3.8 0.6 0 -17.5z"/>
  <path d="M1318.9 158.6 c-15 -3.2 -27 -9.8 -38.4 -21.1 -11.4 -11.5 -17.8 -23.2 -21.2 -38.8 -2.1 -9.8 -1.3 -26.7 1.7 -36.2 8 -25.4 28.5 -45.3 54 -52.1 8.9 -2.4 28.2 -2.5 37 -0.1 9.3 2.4 23.4 9.7 30.8 15.8 l6.3 5.2 -12.2 12.3 -12.2 12.3 -4.2 -3.4 c-13.7 -11.3 -34.1 -12.6 -48.8 -3.3 -6.2 4 -12.3 11 -15.6 17.8 -2.3 4.9 -2.6 6.7 -2.6 17 0 11 0.2 11.9 3.2 18.1 4 8.1 12.1 16 20 19.7 4.6 2 7.8 2.7 14.9 3 11.3 0.5 19.2 -1.8 27.2 -7.8 l5.2 -4 20 0 20 0 -2.9 5.8 c-9.3 18.3 -27.6 33.2 -47.6 38.7 -8.3 2.2 -26.3 2.8 -34.6 1.1z"/>
  <path d="M1671.6 158.4 c-32 -7.1 -55.2 -32.2 -59.9 -64.6 l-0.6 -3.8 17.4 0 17.3 0 2.1 6.8 c5.2 16.9 20.8 28.2 39.1 28.2 18.2 0 33.6 -11.1 39.2 -28.2 l2.2 -6.8 17.3 0 17.4 0 -0.7 3.8 c-4.6 26.7 -19.2 47 -41.9 58.2 -4.4 2.1 -10.7 4.6 -14 5.5 -8.8 2.4 -26.4 2.8 -34.9 0.9z"/>
  <path d="M1830.1 159 c-7.5 -1.6 -14.3 -4.1 -22.6 -8.3 -6.3 -3.2 -10.1 -6.1 -17.5 -13.6 -8.2 -8.2 -10.3 -11 -14.2 -19.1 -4.5 -9.3 -7.8 -19.9 -7.8 -25.3 l0 -2.7 17.4 0 17.3 0 0.6 3.8 c1.7 10.4 11.5 22.3 22.6 27.6 6.1 2.9 7.4 3.1 17.6 3.1 9.9 0 11.6 -0.3 16.8 -2.7 10.9 -5.1 21.3 -17.6 23.2 -28.1 l0.7 -3.7 17.5 0 17.6 0 -0.7 5.3 c-2.1 15.3 -9.9 30.3 -22.5 42.7 -9.4 9.4 -18.8 15 -31.6 19 -7.9 2.4 -27 3.6 -34.4 2z"/>
  <path d="M163 84.5 l0 -73.5 17.5 0 17.5 0 0 73.5 0 73.5 -17.5 0 -17.5 0 0 -73.5z"/>
  <path d="M212 84.5 l0 -73.5 17 0 17 0 0 73.5 0 73.5 -17 0 -17 0 0 -73.5z"/>
  <path d="M258 140.8 l0 -17.6 13.3 -0.4 c10.5 -0.4 14.4 -0.9 18.9 -2.7 7.9 -3.1 15 -9.7 19 -17.9 3.1 -6.3 3.3 -7.2 3.3 -17.7 0 -10 -0.3 -11.6 -2.8 -17.1 -3.6 -7.7 -10.4 -14.5 -18.2 -18.1 -5.4 -2.5 -7.3 -2.8 -19.7 -3.1 l-13.8 -0.4 0 -17.6 0 -17.5 14.8 0.6 c16.5 0.6 26.4 2.7 36.6 7.7 28.3 14 43.7 47.9 36.8 81.3 -3.7 17.8 -13.6 33.9 -26.6 43.2 -13.5 9.6 -25.9 13.3 -47.8 14.2 l-13.8 0.6 0 -17.5z"/>
  <path d="M356 84.5 l0 -73.5 17.5 0 17.5 0 0 73.5 0 73.5 -17.5 0 -17.5 0 0 -73.5z"/>
  <path d="M402 140.5 l0 -17.5 30 0 30 0 0 17.5 0 17.5 -30 0 -30 0 0 -17.5z"/>
  <path d="M629 84.5 l0 -73.5 17.5 0 17.5 0 0 73.5 0 73.5 -17.5 0 -17.5 0 0 -73.5z"/>
  <path d="M716.8 133.3 c6.9 -13.7 18.9 -37.3 26.7 -52.6 l14.2 -27.9 9.8 18.9 9.8 18.8 -17.1 33.5 -17.1 33.5 -19.4 0.3 -19.5 0.2 12.6 -24.7z"/>
  <path d="M818.5 146 l-5.9 -12 -22.3 0 -22.3 0 9 -17.2 8.9 -17.3 4.1 -0.3 c2.2 -0.2 4 -0.5 4 -0.8 0 -0.3 -6.7 -13.6 -14.8 -29.7 l-14.9 -29.2 9.7 -18.9 9.7 -18.8 18.5 36.3 c10.2 20 28.1 55.2 39.8 78.2 l21.2 41.7 -19.4 0 -19.4 0 -5.9 -12z"/>
  <path d="M1423.2 156.8 c0.3 -0.7 8.3 -23.5 17.9 -50.5 l17.4 -49.3 18.3 0 c10.9 0 18.2 0.4 18 0.9 -0.1 0.5 -8.2 23.3 -17.8 50.5 l-17.5 49.6 -18.4 0 c-14.2 0 -18.2 -0.3 -17.9 -1.2z"/>
  <path d="M1554 100.1 l0 -56.9 17.3 -18.1 17.2 -18.1 0.3 41.5 0.2 41.5 8.5 0 8.5 0 0 17 0 17 -8.5 0 -8.5 0 0 16.5 0 16.5 -17.5 0 -17.5 0 0 -56.9z"/>
  <path d="M1063 127.5 l0 -27.5 -27.5 0 -27.5 0 0 -15.5 0 -15.5 27.5 0 27.5 0 0 -27.5 0 -27.5 16 0 16 0 0 27 0 27 28 0 28 0 0 16.5 0 16.5 -28 0 -28 0 0 27 0 27 -16 0 -16 0 0 -27.5z"/>
  <path d="M1484 116.3 c4.1 -4.3 11.5 -12 16.5 -17 l9 -9.3 16.2 0 16.3 0 0 17 0 17 -32.7 0 -32.7 0 7.4 -7.7z"/>
  <path d="M96.6 97.1 l-9.7 -19.2 17.2 -33.4 17.1 -33.5 19.3 0 19.3 0 -12.6 24.8 c-6.9 13.6 -19 37.3 -26.8 52.6 l-14.2 27.9 -9.6 -19.2z"/>
  <path d="M402 84.5 l0 -17.5 30 0 30 0 0 17.5 0 17.5 -30 0 -30 0 0 -17.5z"/>
  <path d="M675 84.5 l0 -17.5 12.1 0 c12 0 12.1 0 15 -2.9 2.4 -2.4 2.9 -3.8 2.9 -7.6 0 -3.8 -0.5 -5.2 -2.9 -7.6 -2.9 -2.9 -3 -2.9 -15 -2.9 l-12.1 0 0 -17.5 0 -17.5 11.8 0 c19.7 0 30.9 3.7 40.2 13 20.9 20.8 15.5 59.6 -10 72.5 -7.5 3.8 -16.7 5.5 -30.2 5.5 l-11.8 0 0 -17.5z"/>
  <path d="M1331 84 l0 -17 38.5 0 38.4 0 0.8 3.8 c0.4 2 0.8 8 0.8 13.2 0 5.2 -0.4 11.2 -0.8 13.3 l-0.8 3.7 -38.4 0 -38.5 0 0 -17z"/>
  <path d="M470 75.2 c0 -5.1 3.8 -17.8 7.4 -24.9 4.3 -8.6 11.8 -18.1 19.4 -24.6 6.7 -5.7 21 -13 30.2 -15.4 8.9 -2.4 28.1 -2.3 36.9 0.1 28 7.6 49.3 29.6 55.5 57.3 2.5 11.3 4.1 10.3 -15.8 10.3 l-17.4 0 -0.6 -3.2 c-1.8 -9.3 -10.4 -21.1 -19 -26.2 -14.6 -8.5 -34.3 -7.1 -47.5 3.4 -5.3 4.1 -10.9 12.6 -13 19.6 l-1.9 5.9 -17.1 0.3 -17.1 0.2 0 -2.8z"/>
  <path d="M1611.7 74.3 c5.7 -39.8 40.8 -68.7 79.9 -66 36.6 2.6 64.4 28.4 70.8 66 l0.7 3.7 -17.5 0 -17.5 0 -1.6 -5.7 c-3.3 -11.5 -10.9 -20.2 -22.4 -25.7 -6.1 -2.9 -7.4 -3.1 -17.1 -3.1 -9.7 0 -11 0.2 -17.2 3.2 -11.5 5.4 -19.6 15 -22.7 27.1 l-1.2 4.2 -17.4 0 -17.4 0 0.6 -3.7z"/>
  <path d="M1768.4 72.6 c0.8 -7.1 5.4 -19.9 9.7 -27.3 1.9 -3.2 7.5 -9.9 12.4 -14.9 7.7 -7.7 10.5 -9.8 18.5 -13.7 11.5 -5.7 18.6 -7.6 30.5 -8.4 14.6 -0.9 29.7 2.9 43.2 10.8 8.1 4.8 21.2 18.1 26.1 26.4 4.6 7.9 8.7 19.4 9.8 27.3 l0.7 5.2 -17.6 0 -17.5 0 -0.7 -3.7 c-1.9 -10.3 -11.7 -22.3 -22.4 -27.6 -6.2 -3 -7.2 -3.2 -17.6 -3.2 -10.5 0 -11.4 0.2 -17.8 3.3 -11.4 5.6 -20.7 17.1 -22.4 27.5 l-0.6 3.7 -17.5 0 -17.5 0 0.7 -5.4z"/>
  <path d="M951.6 57.4 c-5 -5.9 -12.6 -10.8 -19.8 -12.9 l-5.8 -1.6 0 -17.4 0 -17.4 3.8 0.6 c16.7 2.4 30.8 9.2 43 20.7 8.8 8.3 9.1 7.2 -4.4 20.7 -6.5 6.6 -12.1 11.9 -12.4 11.9 -0.3 -0.1 -2.3 -2.1 -4.4 -4.6z"/>
  <path d="M402 28.5 l0 -17.5 30 0 30 0 0 17.5 0 17.5 -30 0 -30 0 0 -17.5z"/>
  <path d="M1407 28.5 l0 -17.5 52 0 c28.6 0 52 0.3 52 0.8 0 0.4 -2.7 8.1 -5.9 17.2 l-5.9 16.5 -46.1 0.3 -46.1 0.2 0 -17.5z"/>
 </g>
 <g fill="#ffff00">
  <path d="M1091.4 153.4 c0.3 -0.9 0.6 -13.7 0.6 -28.5 l0 -26.9 13.9 0 13.8 0 0.2 28.5 0.2 28.5 -14.7 0 c-12.9 0 -14.5 -0.2 -14 -1.6z"/>
  <path d="M1147.5 84.5 l0 -16.5 8.5 0 c4.7 0 10.9 0.3 13.8 0.6 l5.2 0.7 0 15.2 0 15.2 -5.2 0.7 c-2.9 0.3 -9.1 0.6 -13.8 0.6 l-8.5 0 0 -16.5z"/>
  <path d="M1092 44.1 c0 -14.8 -0.3 -27.6 -0.6 -28.5 -0.5 -1.4 1.1 -1.6 14 -1.6 l14.7 0 -0.2 28.5 -0.2 28.5 -13.8 0 -13.9 0 0 -26.9z"/>
 </g>
 <g fill="#ff0074">
  <path d="M1140.8 126.8 c-0.3 -15.6 -0.3 -28.5 -0.2 -28.7 0.3 -0.3 27.7 -0.2 27.8 0.2 0.1 0.1 0 12.9 -0.2 28.5 l-0.3 28.2 -13.3 0 -13.4 0 -0.4 -28.2z"/>
  <path d="M1196 84.5 l0 -15.5 14 0 14 0 0 15.5 0 15.5 -14 0 -14 0 0 -15.5z"/>
  <path d="M1144.1 71.2 l-4.4 -0.3 0.7 -7.6 c0.3 -4.2 0.6 -17 0.6 -28.5 l0 -20.8 13.5 0 13.4 0 0.3 28.3 c0.2 15.5 0.3 28.3 0.3 28.4 0 0.3 -20.4 0.8 -24.4 0.5z"/>
 </g>
 <g fill="#ff803a">
  <path d="M1116.4 126.5 l0 -28.5 13.6 0 13.7 0 0.2 28.5 0.2 28.5 -13.8 0 -13.8 0 -0.1 -28.5z"/>
  <path d="M1171.5 84.5 l0 -15.5 14 0 14 0 0 15.5 0 15.5 -14 0 -14 0 0 -15.5z"/>
  <path d="M1116.4 42.5 l0.1 -28.5 13.8 0 13.8 0 -0.2 28.5 -0.2 28.5 -13.7 0 -13.6 0 0 -28.5z"/>
 </g>
 <g fill="#21060d">
  <path d="M1063 127.5 l0 -27.5 -27.5 0 -27.5 0 0 -15.5 0 -15.5 27.5 0 27.5 0 0 -27.5 0 -27.5 52.5 0 52.5 0 0 27.5 0 27.5 28 0 28 0 0 15.5 0 15.5 -28 0 -28 0 0 27.5 0 27.5 -52.5 0 -52.5 0 0 -27.5z m28.8 -1.7 l0.2 -27.8 28 0 28 0 0 -13.5 0 -13.5 -28 0 -28 0 -0.2 -27.8 -0.3 -27.7 -13 0 -13 0 -0.3 27.7 -0.2 27.8 -27.7 0.2 -27.7 0.3 0.1 13 0.1 13 27.6 0.3 27.6 0.2 0 27.3 c0 15.1 0.3 27.7 0.7 28.1 0.4 0.3 6.3 0.5 13.2 0.4 l12.6 -0.3 0.3 -27.7z m24.7 1 l0 -26.8 -11.2 0 -11.3 0 0 27 0 27.1 11.3 -0.3 11.2 -0.3 0 -26.7z m24.5 -0.3 l0 -26.5 -11 0 -11 0 0 26.5 0 26.5 11 0 11 0 0 -26.5z m25 0 l0 -26.5 -11.6 0 -11.7 0 0.7 3.8 c0.3 2 0.6 13.9 0.6 26.5 l0 22.7 11 0 11 0 0 -26.5z m6 -42 l0 -13.5 -11 0 -11 0 0 13.5 0 13.5 11 0 11 0 0 -13.5z m25 0 l0 -13.6 -11.2 0.3 -11.1 0.3 0 12.8 c0.1 7 0.2 12.9 0.2 13.2 0.1 0.3 5.1 0.5 11.1 0.5 l11 0 0 -13.5z m25 0 l0 -13.5 -11.5 0 -11.5 0 0 13.5 0 13.5 11.5 0 11.5 0 0 -13.5z m-105.5 -42.3 l0 -26.7 -11.2 -0.3 -11.3 -0.3 0 27.1 0 27 11.3 0 11.2 0 0 -26.8z m24.5 0.3 l0 -26.5 -11 0 -11 0 0 26.5 0 26.5 11 0 11 0 0 -26.5z m25 0 l0 -26.5 -11 0 -11 0 0 22.8 c0 12.5 -0.3 24.4 -0.6 26.5 l-0.7 3.7 11.7 0 11.6 0 0 -26.5z"/>
 </g>
</svg>