<?xml version="1.0" encoding="utf-8"?>
<!DOCTYPE svg PUBLIC "-//W3C//DTD SVG 20010904//EN" "http://www.w3.org/TR/2001/REC-SVG-20010904/DTD/svg10.dtd">
<svg version="1.0" xmlns="http://www.w3.org/2000/svg" width="240px" height="339px" viewBox="0 0 240 339" preserveAspectRatio="xMidYMid meet">
 <g fill="#ffffff">
  <path d="M26.50 334.45 c-5 -1.35 -5.75 -2.75 -5.75 -10.45 0.05 -6.25 0.45 -7.50 3.15 -9.35 1.15 -0.75 2.50 -0.90 9.60 -0.90 10.75 0 12.15 0.60 12.60 5.50 0.15 1.50 0.10 1.50 -2.55 1.65 -2.25 0.15 -2.80 0 -3.40 -0.85 -0.65 -0.95 -1.20 -1.05 -6.65 -1.05 -7.05 0 -7 0 -7 5.45 0 4.85 0.25 5.05 7 5.05 5.20 0 5.50 -0.05 6.65 -1.30 1 -1.10 1.55 -1.25 3.65 -1.10 l2.45 0.15 -0.15 2.20 c-0.20 2.85 -1.75 4.25 -5.50 5 -3.30 0.65 -11.65 0.65 -14.10 0z"/>
  <path d="M53.75 334.25 c-1.55 -0.45 -2.90 -1.20 -3.60 -2.05 -1.35 -1.70 -1.90 -5.95 -1.40 -11 0.30 -3.35 0.50 -3.95 2 -5.45 2.10 -2.05 4.60 -2.45 13.15 -2.15 6.30 0.25 8.45 0.90 9.45 3 2.45 4.80 2.05 13.25 -0.70 16.10 -0.60 0.60 -2.25 1.40 -3.65 1.70 -3.40 0.80 -12.10 0.70 -15.25 -0.15z m14.55 -5.95 c0.95 -1.35 0.95 -6.75 -0.10 -8.20 -0.70 -1.05 -1.10 -1.10 -6.75 -1.10 -5.95 0 -6 0 -6.45 1.30 -0.30 0.70 -0.50 2.60 -0.50 4.25 0 2.30 0.20 3.15 1.05 4 0.95 0.95 1.50 1 6.55 0.85 4.75 -0.15 5.60 -0.30 6.20 -1.10z"/>
  <path d="M78.05 334.35 c-0.40 -0.50 -0.55 -3.55 -0.45 -10.65 l0.15 -9.95 3.65 -0.15 c2 -0.10 3.90 0.05 4.25 0.25 0.70 0.40 8.70 9.25 10.65 11.80 0.60 0.75 1.20 1.35 1.40 1.35 0.15 0 0.35 -3 0.40 -6.60 l0.15 -6.65 2.50 0 2.50 0 0.15 9.95 c0.10 6.90 -0.05 10.15 -0.45 10.60 -0.35 0.45 -1.55 0.70 -3.15 0.70 l-2.55 0 -4.60 -4.85 c-2.55 -2.70 -5.60 -6.05 -6.75 -7.50 -1.20 -1.45 -2.30 -2.60 -2.50 -2.65 -0.20 0 -0.45 3.30 -0.50 7.40 l-0.15 7.35 -2.05 0.15 c-1.30 0.10 -2.25 -0.10 -2.65 -0.55z"/>
  <path d="M111.55 334.30 c-1.20 -0.35 -2.65 -1.10 -3.25 -1.65 -2.05 -1.95 -2.90 -8.40 -1.70 -13.05 1.30 -5.35 2.45 -5.85 13.20 -5.85 8.80 0 10.20 0.35 11.50 2.85 0.40 0.75 0.70 2.05 0.70 2.90 l0 1.50 -2.95 0 c-2.50 0 -2.95 -0.15 -3.20 -1 -0.25 -0.95 -0.70 -1 -6.35 -1 -7.35 0 -7.45 0.10 -7.50 5.15 0 4.95 0.50 5.35 7.40 5.35 5.55 0 6.20 -0.15 6.75 -1.60 0.25 -0.70 0.90 -0.90 3.10 -0.90 l2.75 0 0 1.75 c0 3.50 -1.15 4.70 -5.60 5.70 -3 0.70 -12 0.60 -14.85 -0.15z"/>
  <path d="M135.60 334.60 c-0.45 -0.35 -0.60 -2.80 -0.50 -10.65 l0.15 -10.20 10.70 -0.15 c11.70 -0.15 12.20 0 11.95 2.60 l-0.15 1.55 -8.40 0.25 c-4.60 0.15 -8.35 0.40 -8.35 0.65 0 0.20 0 0.80 0 1.35 0 0.95 0.35 1 7.20 1 3.95 0 7.55 0.15 8 0.30 0.55 0.20 0.80 0.95 0.80 2.50 l0 2.20 -8.10 0.10 -8.10 0.15 0 1.75 0 1.75 8.20 0.15 c8.60 0.15 9 0.25 9 2.45 0 2.45 -0.80 2.65 -11.65 2.65 -5.55 0 -10.40 -0.20 -10.75 -0.40z"/>
  <path d="M160.80 334.25 c-1.15 -1.15 -1.20 -19.30 -0.05 -20.25 0.50 -0.45 3.10 -0.55 9.60 -0.40 9.65 0.15 10.85 0.50 12.05 3.20 0.75 1.60 0.75 7.30 0.05 8.85 -1.05 2.30 -5.05 3.45 -11.60 3.30 l-4.60 -0.10 -0.25 2.95 -0.25 2.95 -2.05 0.15 c-1.40 0.10 -2.35 -0.10 -2.90 -0.65z m16.30 -12.50 c0.50 -2.40 -0.40 -2.80 -5.85 -2.65 l-5 0.15 -0.15 1.90 -0.15 1.85 5.45 0 c5.45 0 5.50 0 5.70 -1.25z"/>
  <path d="M193.65 334.65 c-0.50 -0.15 -0.65 -2.30 -0.65 -8.15 l0 -7.95 -4.35 -0.15 -4.40 -0.15 0 -2.25 0 -2.25 11.75 0 11.75 0 0 2.25 0 2.25 -4.35 0.15 -4.40 0.15 0 7.90 c0 6.80 -0.10 8 -0.80 8.25 -0.90 0.35 -3.65 0.35 -4.55 -0.05z"/>
  <path d="M213.50 334.40 c-2.25 -0.65 -3 -1.25 -3.85 -3.35 -0.70 -1.60 -0.65 -1.80 0.15 -2.40 1.40 -1 4.40 -0.80 5.45 0.35 0.85 0.95 1.45 1 6.90 0.90 5.05 -0.15 6.10 -0.30 6.55 -1 0.40 -0.70 0.35 -1.10 -0.35 -1.75 -0.75 -0.75 -2.10 -0.95 -8.25 -1.15 -8.50 -0.30 -9.70 -0.70 -10.65 -4 -0.75 -2.50 -0.05 -5.25 1.85 -7.05 1.25 -1.20 1.40 -1.20 10.35 -1.20 10 0 11.05 0.25 12.65 3.30 1.30 2.55 1 2.95 -2.20 2.95 -2.30 0 -3.15 -0.20 -3.85 -1 -0.80 -0.90 -1.55 -1 -6 -1 -4.25 0 -5.25 0.15 -5.90 0.90 -0.45 0.45 -0.65 1.10 -0.45 1.45 0.20 0.30 3.60 0.80 8.05 1.10 4.25 0.35 8.15 0.80 8.65 1.10 1.35 0.75 2.40 3.15 2.40 5.60 0 3 -1.65 5.40 -4.25 6.15 -2.40 0.75 -14.80 0.80 -17.25 0.10z"/>
  <path d="M34.70 305.65 c-0.50 -0.80 -2.40 -4.30 -4.25 -7.90 -1.80 -3.55 -5.05 -9.85 -7.15 -13.95 -2.10 -4.15 -3.70 -7.80 -3.60 -8.15 0.35 -0.85 7.30 -0.90 8.45 0 0.45 0.30 2 2.85 3.40 5.60 1.40 2.75 3.95 7.60 5.60 10.75 1.65 3.15 3.25 6.25 3.55 6.85 0.30 0.65 0.65 1.15 0.80 1.15 0.15 0 0.50 -0.50 0.80 -1.15 0.30 -0.60 2.15 -4.15 4.05 -7.85 1.95 -3.70 4.45 -8.55 5.60 -10.75 1.15 -2.20 2.45 -4.30 2.90 -4.60 1 -0.75 7.05 -0.85 8.15 -0.15 0.60 0.40 0.45 1 -1.20 4.10 -1.05 2 -3.45 6.60 -5.30 10.15 -1.85 3.60 -4.55 8.75 -5.95 11.50 -1.40 2.70 -2.85 5.15 -3.20 5.35 -0.30 0.20 -3.10 0.40 -6.15 0.40 -5.55 0 -5.60 0 -6.50 -1.35z"/>
  <path d="M68.10 306.40 c-0.85 -0.85 -0.85 -29.95 0 -30.80 0.60 -0.60 5.70 -0.85 7.10 -0.30 0.70 0.25 0.80 2.10 0.80 15.70 0 13.60 -0.10 15.45 -0.80 15.70 -1.40 0.55 -6.50 0.30 -7.10 -0.30z"/>
  <path d="M87.40 306.40 c-3.35 -0.70 -5.90 -3.05 -6.40 -5.90 -0.55 -3.05 -0.05 -3.50 3.75 -3.50 2.75 0 3.25 0.15 4.65 1.50 l1.60 1.50 8.25 0 c6.80 0 8.50 -0.15 9.50 -0.80 1.65 -1.05 1.60 -2.85 -0.05 -4.15 -1.20 -0.95 -2 -1.05 -7.65 -1.05 -6.85 0 -14.50 -0.75 -16.70 -1.60 -2.60 -1 -3.55 -3.10 -3.55 -7.65 0 -6.30 1.75 -8.15 8.55 -9.20 6.50 -1 17.15 -0.65 23.55 0.75 2 0.40 4.95 3.50 5.25 5.55 0.45 2.65 -0.20 3.15 -4.10 3.15 -3.05 0 -3.45 -0.10 -4.65 -1.50 l-1.30 -1.50 -8.20 0 c-8.80 0.05 -9.90 0.30 -9.90 2.60 0 2.10 0.80 2.40 6.75 2.40 6.65 0 15.95 0.85 17.90 1.60 2.20 0.85 3.35 2.95 3.70 6.75 0.55 6.85 -1.20 9.60 -7.10 11.10 -2.50 0.65 -20.65 0.60 -23.85 -0.05z"/>
  <path d="M130.10 306.25 c-2.90 -0.70 -4.95 -1.90 -6.10 -3.45 -1.65 -2.30 -2 -4.95 -2 -16.10 0 -9.65 0.10 -11.15 0.80 -11.40 1.40 -0.55 6.50 -0.30 7.10 0.30 0.45 0.45 0.60 3.50 0.60 10.70 0 5.60 0.20 10.70 0.45 11.35 0.70 1.85 2.95 2.35 10.15 2.35 6.80 0 8.85 -0.50 9.90 -2.45 0.30 -0.60 0.50 -5.15 0.50 -11.15 0 -7.25 0.15 -10.35 0.60 -10.80 0.60 -0.60 5.70 -0.85 7.10 -0.30 0.70 0.25 0.80 1.75 0.80 11.30 0 16.30 -0.85 18.25 -8.90 19.85 -3.60 0.75 -17.70 0.60 -21 -0.20z"/>
  <path d="M162.15 306.20 c-0.15 -0.45 0.20 -1.70 0.85 -2.85 0.65 -1.15 2 -3.65 3 -5.60 1.75 -3.35 3.20 -6 7.35 -13.60 1 -1.90 2.30 -4.35 2.90 -5.50 1.90 -3.70 1.80 -3.65 7.70 -3.65 3.50 0 5.65 0.20 6.20 0.65 0.45 0.30 1.50 1.95 2.40 3.60 4.50 8.50 5.45 10.25 6.95 13 1.55 2.80 4.70 8.75 6.35 11.90 1.25 2.35 0.65 2.85 -3.60 2.85 -4.35 0 -4.85 -0.30 -7 -4.70 l-1.35 -2.80 -9.70 0 -9.65 0 -0.85 1.90 c-0.50 1 -1.40 2.70 -2.05 3.75 l-1.15 1.85 -4 0 c-3.20 0 -4.10 -0.15 -4.35 -0.80z m27.35 -14.05 c0 -0.25 -0.80 -1.95 -1.80 -3.90 -1 -1.90 -2.10 -4 -2.40 -4.60 -0.90 -1.90 -1.25 -1.50 -4.90 5.30 -0.75 1.45 -1.40 2.85 -1.40 3.10 0 0.25 2.35 0.45 5.25 0.45 2.90 0 5.25 -0.15 5.25 -0.35z"/>
  <path d="M209.65 306.65 c-0.50 -0.20 -0.65 -3.80 -0.65 -15.70 l0 -15.45 1.15 -0.25 c0.65 -0.20 2.40 -0.25 3.90 -0.15 l2.70 0.15 0.25 12.25 0.25 12.25 9.90 0.15 9.85 0.10 0 3.20 c0 2.45 -0.20 3.25 -0.80 3.50 -0.95 0.35 -25.65 0.35 -26.55 -0.05z"/>
  <path d="M117.50 254.45 c-13.20 -1.75 -14.40 -2 -22.25 -4.05 -2.55 -0.70 -10.70 -3.30 -12 -3.90 -0.55 -0.25 -2 -0.85 -3.20 -1.35 -4 -1.65 -14.20 -6.90 -18.40 -9.50 -15.90 -9.90 -31.55 -26.10 -40.85 -42.25 -1.40 -2.35 -6.10 -11.85 -7.70 -15.40 -1.25 -2.85 -4.80 -13.45 -5.55 -16.75 -0.35 -1.35 -0.80 -3.30 -1.05 -4.25 -3.30 -13.40 -3.70 -33.80 -0.90 -48.50 0.85 -4.55 1.50 -7.70 1.90 -9 0.20 -0.70 0.65 -2.25 1 -3.50 1.25 -4.35 3.60 -11.25 4.05 -11.75 0.25 -0.25 0.45 -0.80 0.45 -1.25 0 -0.70 5.60 -12.20 7.95 -16.20 6.20 -10.75 16.75 -23.20 26.80 -31.55 4.10 -3.45 4.10 -3.45 7.45 -5.95 2.55 -1.90 7.15 -4.80 12.55 -7.90 10.85 -6.25 26.85 -11.80 40 -13.90 1.95 -0.30 4.70 -0.80 6.20 -1.05 3.50 -0.60 23.75 -0.60 26.90 0 1.30 0.25 4.30 0.70 6.65 1.05 2.35 0.35 5.05 0.80 6 1 0.95 0.25 2.90 0.70 4.25 1 5.55 1.30 13.70 3.90 15.85 5.05 0.50 0.25 1.15 0.45 1.50 0.45 0.65 0 12.50 5.85 16.10 7.95 11.30 6.55 22.10 15.90 33.30 28.85 1.50 1.70 4.50 6 4.50 6.40 0 0.15 -1.05 1.25 -2.35 2.40 -10.60 9.45 -22.85 22.55 -34.40 36.70 -1.10 1.35 -3.15 3.80 -4.50 5.45 -10.30 12.30 -19.20 23.95 -25.65 33.60 -5.65 8.40 -8 12.25 -12.10 19.40 -0.55 0.95 -1.50 2.60 -2.10 3.65 -3.95 6.80 -9.90 20.20 -9.90 22.20 0 0.95 -2.35 2.85 -7.50 5.95 -1.80 1.10 -4.80 3.10 -6.75 4.45 -1.90 1.40 -4.15 2.85 -4.95 3.25 -1.65 0.85 -4.15 2.70 -9.95 7.25 -2.30 1.80 -5.05 4 -6.20 4.90 -1.15 0.85 -2.65 1.60 -3.30 1.60 -0.95 0 -1.40 -0.40 -1.85 -1.60 -0.35 -0.90 -0.80 -2.10 -1 -2.65 -0.90 -2.20 -2.15 -5.60 -2.80 -7.75 -0.40 -1.25 -0.95 -2.70 -1.20 -3.25 -0.60 -1.45 -2 -5.15 -2.85 -7.75 -0.40 -1.20 -1.35 -3.45 -2 -5 -0.70 -1.50 -1.60 -3.55 -2 -4.50 -2.55 -5.90 -11.30 -23.75 -13.50 -27.50 -0.70 -1.25 -1.75 -3.05 -2.25 -4 -0.55 -0.95 -1.85 -2.85 -2.85 -4.25 -1 -1.35 -2.85 -3.85 -4.05 -5.50 -3.10 -4.20 -3.20 -4.30 -8.80 -10.45 -2.80 -3.05 -5.65 -5.85 -6.40 -6.25 -1.40 -0.75 -1.50 -1 -0.90 -1.80 0.70 -1 7.40 -6.60 9.70 -8.20 9.25 -6.20 20.15 -9.50 26.15 -7.85 3.40 0.90 6.25 2.40 7.75 4.10 1.40 1.60 7.50 10.55 7.50 11 0 0.15 0.40 0.90 0.95 1.60 2.85 4.05 9.30 16.50 13.20 25.60 0.40 0.95 1.20 2.75 1.75 4 0.50 1.25 1.15 2.75 1.30 3.40 0.20 0.60 0.55 1.10 0.75 1.10 0.20 0 1.70 -1.95 3.30 -4.35 2.80 -4.25 5.75 -8.40 9.95 -14.15 5.05 -6.80 17.40 -21.80 23.30 -28.25 1.25 -1.35 3.50 -3.80 5 -5.50 3 -3.30 6.45 -6.90 19.65 -20.75 4.90 -5.05 8.85 -9.45 8.85 -9.70 0 -0.55 -0.70 -1.10 -5.30 -4.30 -15.40 -10.60 -34.60 -16.50 -53.70 -16.50 -9.75 0 -19.70 1.60 -29.75 4.80 -4.70 1.45 -13.75 5.40 -17.50 7.60 -7.35 4.30 -8.05 4.75 -14.25 9.50 -11.85 9.10 -23.20 23.75 -29.15 37.60 -0.40 0.95 -1.10 2.55 -1.50 3.50 -1.05 2.35 -3.35 9.25 -3.95 11.75 -2.20 9.60 -2.90 15.40 -2.90 24.40 0 8.90 0.60 14.15 2.60 22.85 1.60 6.90 5.35 17.40 8.05 22.25 0.30 0.55 1.15 2.20 1.90 3.60 5 9.45 14.20 20.40 23.45 27.95 10.30 8.35 23.80 15.40 36.75 19.10 11.65 3.35 27.55 4.90 38 3.65 8.10 -1 18.40 -3.15 23.75 -5 0.70 -0.25 2.25 -0.75 3.50 -1.10 1.25 -0.35 2.50 -0.75 2.75 -0.95 0.30 -0.20 1.50 -0.65 2.75 -1 1.25 -0.35 2.50 -0.85 2.75 -1 0.30 -0.20 1.85 -0.85 3.50 -1.50 10.55 -4.20 20.65 -10.90 29.90 -19.95 4.95 -4.80 11.90 -12.90 14.45 -16.70 1.20 -1.80 1.80 -2.15 6.40 -3.70 2.80 -0.95 5.25 -1.60 5.40 -1.45 0.35 0.40 -0.65 2.35 -3.55 6.75 -2.75 4.15 -2.45 3.75 -7.50 9.80 -7.30 8.80 -19.50 19.65 -27.55 24.50 -1.40 0.85 -3.50 2.10 -4.75 2.90 -3.85 2.25 -15.55 7.85 -16.55 7.85 -0.30 0 -0.90 0.20 -1.40 0.50 -2.05 1.15 -14 4.55 -20.60 5.90 -11.90 2.40 -25.55 3.25 -34.50 2.05z"/>
 </g>
</svg>