<?xml version="1.0" encoding="UTF-8" standalone="no"?>
<svg
   version="1.0"
   width="2896px"
   height="1018px"
   viewBox="0 0 2896 1018"
   preserveAspectRatio="xMidYMid meet"
   id="svg70"
   sodipodi:docname="wanganmidnight.svg"
   inkscape:version="1.2 (dc2aedaf03, 2022-05-15)"
   xmlns:inkscape="http://www.inkscape.org/namespaces/inkscape"
   xmlns:sodipodi="http://sodipodi.sourceforge.net/DTD/sodipodi-0.dtd"
   xmlns="http://www.w3.org/2000/svg"
   xmlns:svg="http://www.w3.org/2000/svg">
  <defs
     id="defs74" />
  <sodipodi:namedview
     id="namedview72"
     pagecolor="#ffffff"
     bordercolor="#000000"
     borderopacity="0.25"
     inkscape:showpageshadow="2"
     inkscape:pageopacity="0.0"
     inkscape:pagecheckerboard="0"
     inkscape:deskcolor="#d1d1d1"
     showgrid="false"
     inkscape:zoom="0.44164365"
     inkscape:cx="1339.3151"
     inkscape:cy="509.46052"
     inkscape:window-width="1920"
     inkscape:window-height="1017"
     inkscape:window-x="-8"
     inkscape:window-y="-8"
     inkscape:window-maximized="1"
     inkscape:current-layer="svg70" />
  <g
     fill="#000000"
     id="g18"
     style="fill:#f9f9f9">
    <path
       d="M1799.1 1015.9 c-54.8 -6.2 -92.6 -32.3 -106.7 -73.7 -4.8 -13.9 -6.4 -24.9 -6.4 -42.6 0.1 -61.2 30.1 -131.8 77.2 -181.1 45.3 -47.5 103.1 -76.4 168.4 -84 17 -2 49.7 -2 65.1 0 60.8 8 94.3 37.9 103.8 92.9 0.8 4.9 1.5 11 1.5 13.7 0 4.7 -0.1 4.8 -3.2 5.3 -5.2 0.9 -106.3 11.6 -108.9 11.6 -2.1 0 -2.6 -0.8 -4.1 -6.5 -5.2 -19.6 -17.3 -31.5 -36.3 -35.6 -9.2 -2 -28.4 -1.5 -38 1 -10 2.6 -22.4 8.5 -32 15.2 -20.1 13.8 -44.6 45.4 -59.5 76.4 -10.4 21.8 -18.6 49.3 -19.6 66 -1.1 17.4 4.7 33.9 16 45 11.3 11.2 23.6 15.5 44 15.5 21.2 0 39 -4.1 57.3 -13.3 l8.7 -4.4 8.2 -19.9 8.2 -19.9 -35 -0.3 c-32.8 -0.2 -35 -0.3 -34.3 -2 0.3 -0.9 7.6 -18.5 16.2 -38.9 l15.6 -37.3 86.4 0 c68.8 0 86.4 0.3 86 1.3 -0.3 0.6 -4.7 10.2 -9.7 21.2 -18.4 40.2 -33.2 75.8 -52.5 126.5 -5.2 13.5 -13.2 32.8 -17.8 43 l-8.5 18.5 -28.1 0.3 c-15.5 0.1 -28.1 0 -28.1 -0.3 0 -0.3 0.9 -2.4 2.1 -4.6 1.1 -2.3 1.8 -4.3 1.6 -4.6 -0.3 -0.2 -4.5 0.7 -9.3 2.2 -14 4 -39.7 9.3 -56.5 11.5 -17.7 2.4 -58.1 3.5 -71.8 1.9z"
       id="path2"
       style="fill:#f9f9f9" />
    <path
       d="M1 1010.3 c0 -0.4 46.7 -109.3 103.7 -242 l103.7 -241.3 69.8 0 c48.4 0 69.8 0.3 69.8 1.1 0 0.5 -10.1 64.8 -22.5 142.7 -12.4 77.9 -22.4 142 -22.3 142.4 0.2 0.4 28.4 -38.6 62.8 -86.7 l62.5 -87.4 85.8 -0.1 c81.3 0 85.8 0.1 85.3 1.8 -0.3 0.9 -35.2 84.5 -77.6 185.7 l-76.9 184 -44.6 0.3 c-42.2 0.2 -44.6 0.1 -44.1 -1.5 0.3 -1 28.5 -64.5 62.6 -141.2 34.1 -76.7 61.8 -139.7 61.6 -139.9 -0.4 -0.3 -19.8 26.7 -147.5 206 l-54.6 76.8 -42.3 0 -42.2 0 0.5 -2.2 c1.1 -5.2 35.6 -280.3 35.2 -281.7 -0.3 -1.2 -0.7 -1 -1.5 0.9 -0.7 1.4 -27 65.5 -58.6 142.5 l-57.4 140 -55.6 0.3 c-30.6 0.1 -55.6 -0.1 -55.6 -0.5z"
       id="path4"
       style="fill:#f9f9f9" />
    <path
       d="M505.2 1010 c0.2 -0.5 35 -84.2 77.3 -186 l77 -185 57.9 0 c54.6 0 57.8 0.1 57.2 1.8 -0.4 0.9 -35.2 84.6 -77.4 186 l-76.7 184.2 -57.8 0 c-37.9 0 -57.8 -0.3 -57.5 -1z"
       id="path6"
       style="fill:#f9f9f9" />
    <path
       d="M698 1010.3 c0 -0.4 34.3 -84 76.3 -185.8 l76.2 -185 89.5 0 c88 0 89.7 0 101.7 2.2 23 4.2 41.3 11.7 55.2 22.5 16.6 13 29.2 36.9 33.6 63.6 2.5 15.2 1.7 43.7 -1.9 62.3 -11.4 60.2 -40.6 114.3 -86 159.4 -15.6 15.4 -25.2 23.1 -40.4 32.3 -17.9 10.7 -46.3 20.4 -77.5 26.4 -10.9 2.1 -13.7 2.1 -118.9 2.5 -59.3 0.2 -107.8 0 -107.8 -0.4z m217.5 -83.7 c27.2 -7.9 46.6 -25 67.9 -59.8 24.9 -40.7 39.9 -88.3 35.7 -113.5 -2.3 -13.6 -8.8 -23.1 -18.6 -27.4 -9.8 -4.3 -16.8 -5.2 -43.3 -5.3 l-25.3 -0.1 -42.4 103.5 c-23.4 56.9 -42.5 103.9 -42.5 104.3 0 0.5 14.1 0.7 31.3 0.4 25.8 -0.3 32.2 -0.7 37.2 -2.1z"
       id="path8"
       style="fill:#f9f9f9" />
    <path
       d="M1083 1010.2 c0 -0.4 28.2 -74.2 62.8 -164 l62.7 -163.3 62.4 -35.5 c34.4 -19.5 62.7 -35 63 -34.5 0.4 0.5 12.3 50.8 26.5 111.8 14.3 60.9 26.2 111.1 26.5 111.5 0.3 0.3 34.1 -75.7 75.1 -169.1 l74.4 -169.6 50.6 -27.2 c27.8 -14.9 50.6 -27 50.7 -26.9 0.1 0.1 -51.5 127.7 -114.7 283.6 -63.3 155.8 -115 283.5 -115 283.7 0 0.2 -21.8 0.3 -48.4 0.3 -45.3 0 -48.5 -0.1 -49 -1.7 -0.3 -1 -10.9 -52.6 -23.6 -114.8 -12.6 -62.1 -23.2 -114.1 -23.6 -115.5 -0.5 -2.3 -0.7 -2.1 -3.6 2.5 -2.5 3.9 -39.2 93.5 -91.5 223.3 l-2.5 6.2 -41.4 0 c-22.8 0 -41.4 -0.3 -41.4 -0.8z"
       id="path10"
       style="fill:#f9f9f9" />
    <path
       d="M1474.5 1009.8 c0.3 -0.7 35.1 -84.3 77.4 -185.8 l76.9 -184.5 49.6 -0.3 c27.3 -0.1 49.6 -0.1 49.6 0.1 0 0.2 -34.8 83.8 -77.3 185.8 l-77.2 185.4 -49.7 0.3 c-39.7 0.2 -49.6 0 -49.3 -1z"
       id="path12"
       style="fill:#f9f9f9" />
    <path
       d="M2061.1 932.3 c18.1 -43.4 53 -127.1 77.7 -186 l44.7 -107.3 51.8 0 c28.4 0 51.7 0.2 51.7 0.4 0 0.2 -12.1 29.6 -27 65.2 -14.8 35.6 -27 65.1 -27 65.6 0 0.4 28 0.8 62.3 0.8 l62.2 0 28 -66 28 -66 48.8 0 c41 0 48.8 0.2 48.5 1.4 -0.2 0.7 -34.9 84.4 -77.3 186 l-77 184.5 -49.3 0.1 -49.2 0 1.6 -3.7 c2.4 -5.9 60.6 -145.7 61.1 -147.1 0.4 -1 -12.2 -1.2 -62.3 -1 l-62.8 0.3 -31.2 75.5 -31.1 75.5 -52.5 0.3 -52.6 0.2 32.9 -78.7z"
       id="path14"
       style="fill:#f9f9f9" />
    <path
       d="M2489.3 1009.8 c0.3 -0.7 27.8 -68.5 61.1 -150.6 33.3 -82.1 60.6 -149.7 60.6 -150.3 0 -0.5 -17.7 -0.9 -46 -0.9 -25.3 0 -46 -0.3 -46 -0.6 0 -0.8 34.6 -64.5 36.3 -66.8 1.1 -1.5 13.8 -1.6 154.1 -1.4 l153 0.3 -32.3 34.2 -32.2 34.3 -46.6 0.2 -46.7 0.3 -61.5 151.3 -61.5 151.2 -46.4 0 c-36.7 0 -46.3 -0.3 -45.9 -1.2z"
       id="path16"
       style="fill:#f9f9f9" />
  </g>
  <g
     fill="#ed1c24"
     id="g40">
    <path
       d="M1153 646.3 c0 -0.4 22 -51.9 48.8 -114.3 l48.8 -113.5 -100.4 -0.3 c-58 -0.1 -100.2 -0.6 -100 -1.1 0.2 -0.5 5.5 -14.4 11.8 -31 l11.5 -30.1 102 0 102 0 9.7 -22.7 c5.4 -12.6 10 -23.6 10.4 -24.5 0.6 -1.7 -4.8 -1.8 -104 -1.8 -57.5 0 -104.6 -0.2 -104.6 -0.5 0 -0.3 5.2 -14.3 11.6 -31 l11.7 -30.5 276 0 c220.3 0 275.8 0.3 275.5 1.2 -0.3 0.7 -5.6 14.7 -11.9 31 l-11.4 29.8 -107.8 0.2 -107.9 0.3 -8.9 24 c-4.9 13.1 -8.9 24 -8.9 24.2 0 0.2 57.9 0.4 128.7 0.5 l128.8 0.3 -55.5 30.5 -55.5 30.5 -84.9 0.5 -84.9 0.5 -25.2 68.3 c-13.9 37.6 -25.5 68.5 -25.6 68.6 -0.2 0.2 -29 14.8 -63.9 32.6 -34.9 17.7 -75.3 38.3 -89.7 45.7 -14.5 7.4 -26.3 13.1 -26.3 12.6z"
       id="path20" />
    <path
       d="M851.3 582.4 c1.7 -2.8 135 -362.3 135.3 -364.9 0.2 -1.6 5.4 -16.3 11.7 -32.5 l11.3 -29.5 342.3 -0.3 c204.6 -0.1 342.1 0.2 341.9 0.7 -0.1 0.5 -5.5 14.5 -11.8 31 l-11.5 30.1 -294.4 0.2 -294.3 0.3 -56.2 145.8 -56.1 145.8 -58 36.6 c-31.9 20.1 -58.6 36.8 -59.4 37.1 -0.8 0.3 -1.2 0.1 -0.8 -0.4z"
       id="path22" />
    <path
       d="M465.2 538.2 l-37.3 -32.7 143.5 -0.3 143.6 -0.2 0 -10.5 0 -10.5 -158 0 -158 0 -38 -25.2 c-20.9 -13.9 -38 -25.8 -38 -26.3 0 -0.6 8.1 -20.8 18 -44.9 9.9 -24.2 18 -44.1 18 -44.3 0 -0.2 93.6 -0.3 208 -0.3 l208 0 0 -8.5 0 -8.5 -204.5 0 c-112.5 0 -204.5 -0.3 -204.5 -0.8 0 -0.4 4.7 -14.7 10.3 -31.7 l10.4 -31 267.6 -0.3 267.7 -0.2 -2.9 7.7 c-4.8 13 -47.9 128.7 -48.6 130.6 -0.7 1.6 -11.8 1.7 -214.6 1.7 l-213.9 0 0 8.5 0 8.5 208.6 0 c173.4 0 208.5 0.2 208.2 1.3 -0.2 0.8 -12 35 -26.3 76 l-26 74.7 -152 0 -152 0 -37.3 -32.8z"
       id="path24" />
    <path
       d="M25 551.4 c0 -1.3 60.2 -128.9 61.3 -130 0.9 -0.9 233 -111.9 240.4 -115.1 1.5 -0.6 -39.2 121.6 -41 123.4 -1 0.9 -244.9 115.5 -257.4 120.9 -1.8 0.8 -3.3 1.1 -3.3 0.8z"
       id="path26" />
    <path
       d="M245 266.2 c-50.3 -11.3 -91.6 -20.6 -91.7 -20.7 -0.4 -0.2 34.2 -85.3 34.9 -86 0.8 -0.9 185.8 38.7 185.8 39.8 0 1.1 -36 86 -36.8 86.8 -0.4 0.4 -41.9 -8.6 -92.2 -19.9z"
       id="path28" />
    <path
       d="M436 218.8 l-18.5 -28.2 44.9 -29.8 44.9 -29.9 18.8 28.3 c10.4 15.5 18.5 28.6 18.1 28.9 -1.3 1.3 -87.3 58 -88.5 58.4 -0.7 0.2 -9.5 -12.3 -19.7 -27.7z"
       id="path30" />
    <path
       d="M849.8 218.8 l-18.7 -28.2 45.1 -29.9 c24.8 -16.4 45.1 -29.6 45.2 -29.5 0.1 0.2 8.5 13 18.8 28.4 l18.6 28.1 -44.7 29.7 c-24.6 16.3 -45 29.6 -45.2 29.6 -0.2 0 -8.8 -12.7 -19.1 -28.2z"
       id="path32" />
    <path
       d="M552.7 234.8 c1.5 -4 12.5 -33.6 24.4 -65.8 l21.7 -58.5 -72.5 -0.3 c-57.3 -0.2 -72.4 -0.5 -72.1 -1.5 0.3 -0.6 5.6 -14.6 11.8 -31 l11.3 -29.7 107.7 0 107.7 0 8.4 -23.5 8.4 -23.5 52.8 0 c29 0 52.7 0.2 52.7 0.5 0 0.2 -3.6 10.4 -8 22.6 -4.4 12.2 -8 22.6 -8 23.1 0 0.4 46.1 0.8 102.4 0.8 l102.3 0 -11.8 30.7 -11.7 30.8 -73 0.3 -72.9 0.2 -24.4 66 -24.4 66 -52.7 0 c-29.1 0 -52.8 -0.2 -52.8 -0.4 0 -0.2 10.8 -29.5 24 -65.1 13.2 -35.5 24 -65.1 24 -65.6 0 -0.6 -4.7 -0.9 -11.7 -0.7 l-11.8 0.3 -24.4 65.8 -24.4 65.7 -52.8 0 -52.9 0 2.7 -7.2z"
       id="path34" />
    <path
       d="M292.5 151 l-92 -18.7 0.3 -2.9 c0.5 -4.1 33.5 -85.6 34.9 -86.1 1.2 -0.5 187.2 37.3 188.1 38.2 0.2 0.2 -7.6 19.2 -17.3 42.2 -21.4 50.3 -19.6 46.3 -20.9 46.2 -0.6 -0.1 -42.5 -8.6 -93.1 -18.9z"
       id="path36" />
    <path
       d="M1016.2 132.1 c0.2 -0.4 9 -24.9 19.7 -54.5 l19.4 -53.6 53 0 c50 0 52.9 0.1 52.2 1.7 -0.6 1.5 -10.4 28.5 -15.1 41.6 l-1.3 3.7 91.7 0 91.7 0 11.9 -33 11.9 -33 61.8 0 61.8 0 -3.8 10.7 c-2.2 6 -6.9 19.1 -10.6 29.3 -3.7 10.2 -7.3 20.2 -8.1 22.3 l-1.3 3.7 83 -0.2 83.1 -0.3 8.3 -22.8 c4.5 -12.5 8.5 -23 8.7 -23.3 0.3 -0.2 24.1 -0.3 52.9 -0.2 l52.5 0.3 -7.9 21.5 c-4.3 11.8 -7.9 22.6 -8 24 -0.1 1.4 -5.4 16.1 -11.7 32.7 l-11.5 30.3 -342.3 0 c-188.9 0 -342.2 -0.4 -342 -0.9z"
       id="path38" />
  </g>
  <g
     fill="#00aeef"
     id="g68">
    <path
       d="M2694.9 565.3 c3.6 -9.2 78.3 -197.8 78.8 -198.9 0.4 -1.2 8.2 -1.7 41.4 -3 l16.5 -0.6 -3.7 27.3 c-2.1 15.1 -3.8 29 -3.9 30.9 0 2.9 0.9 4.3 6.3 9.5 10.6 10.4 25.3 16 50.7 19.2 l14.1 1.7 -0.6 2.6 c-0.3 1.4 -3.9 13.1 -7.9 26 l-7.3 23.5 -9.4 -0.2 c-27.1 -0.8 -48.3 -8.8 -68.6 -26 l-6.2 -5.2 -17.5 44.2 c-9.6 24.3 -18.3 46.3 -19.3 49 l-1.7 4.7 -31.8 0 -31.8 0 1.9 -4.7z"
       id="path42" />
    <path
       d="M1758 559.1 l-82.5 -8.6 2.7 -26.3 c1.4 -14.5 2.8 -26.5 3 -26.6 0.6 -0.5 166.7 17 167.3 17.6 0.3 0.3 -0.6 11.4 -2 24.8 -1.4 13.3 -2.5 25.1 -2.5 26.1 0 1.2 -0.7 1.9 -1.7 1.8 -1 -0.1 -38.9 -4 -84.3 -8.8z"
       id="path44" />
    <path
       d="M2576.9 519.5 c13.3 -26.2 24.1 -47.9 24.1 -48.3 0 -0.4 -3.9 1.2 -8.7 3.5 -20.4 10 -35.6 13.3 -63.3 13.9 -11.3 0.3 -21 0.1 -21.6 -0.3 -0.8 -0.6 -0.8 -4.9 0.2 -16.3 0.7 -8.5 1.3 -16.4 1.4 -17.5 0 -1.8 2 -2.5 16.3 -5.9 62.3 -14.8 114.3 -40.3 148.3 -72.8 l6.1 -5.8 34.8 0.2 34.8 0.3 -39.4 33.4 -39.4 33.3 -26.1 64.7 -26 64.6 -32.8 0.3 -32.8 0.2 24.1 -47.5z"
       id="path46" />
    <path
       d="M2057.5 562.3 c0.8 -2.1 18.1 -47.6 38.4 -101.1 20.2 -53.5 37 -97.4 37.2 -97.6 0.6 -0.6 60.8 4 61.5 4.7 0.3 0.3 -3.3 14.2 -8.1 30.9 -4.8 16.7 -8.8 30.7 -8.9 31.1 0 0.4 15.4 7.1 34.3 14.7 18.9 7.7 34.6 14.2 34.8 14.4 0.6 0.6 -14.6 47.6 -15.4 47.6 -0.3 0 -18 -7.6 -39.2 -17 -21.3 -9.3 -39.1 -17 -39.6 -17 -0.6 0 -7 15 -14.4 33.3 -7.4 18.2 -15.9 39.2 -18.9 46.5 l-5.4 13.2 -28.9 0 -28.9 0 1.5 -3.7z"
       id="path48" />
    <path
       d="M1866.5 558.3 c1.5 -2.6 5.2 -9 8.2 -14 l5.4 -9.3 43.7 0 c47.5 0 49.4 -0.2 61 -5.7 6.7 -3.3 18.5 -14.5 22.7 -21.8 2 -3.3 5.8 -15.3 11.5 -36 l8.6 -31 17.6 -0.3 17.6 -0.2 -6.3 24.7 c-7.1 27.8 -11.8 41.9 -17.7 53.7 -10.7 21.4 -24.2 33.9 -44 40.9 l-9.3 3.2 -60.9 0.3 -60.8 0.3 2.7 -4.8z"
       id="path50" />
    <path
       d="M2255.4 546 l5.1 -17 25.8 0 25.8 0 5.7 -2.7 c11.4 -5.6 22.9 -19.4 33.1 -40 4.7 -9.4 12.1 -26.8 12.1 -28.5 0 -0.4 -16.4 -0.8 -36.5 -0.8 l-36.5 0 0.6 -2.7 c0.4 -1.6 2.8 -10.4 5.4 -19.8 l4.7 -17 37.9 -0.3 37.9 -0.2 7.6 -26.3 7.5 -26.2 11.4 -0.6 c16.9 -0.9 53 -1 53 -0.1 0 0.4 -3.6 12.3 -8 26.5 -4.4 14.2 -8 26.1 -8 26.3 0 0.2 13.1 0.4 29.1 0.4 27.3 0 29 0.1 28.5 1.8 -0.3 0.9 -2.6 9.1 -5.1 18.2 -2.5 9.1 -4.8 17.3 -5.1 18.2 -0.5 1.6 -3.1 1.8 -32.5 2 l-32 0.3 -7.4 17.7 c-13 31.4 -24 49.4 -39.4 64.8 -13.2 13 -24.9 19.6 -39.1 21.9 -3.8 0.6 -23.3 1.1 -46.6 1.1 l-40.1 0 5.1 -17z"
       id="path52" />
    <path
       d="M1888.4 507.3 c0.3 -1 4.4 -15.7 9.1 -32.8 4.7 -17 8.8 -31.8 9.1 -32.7 0.5 -1.6 2.2 -1.8 18 -1.8 16.2 0 17.5 0.1 17 1.8 -0.3 0.9 -4.2 15 -8.6 31.2 -4.4 16.2 -8.5 31 -9.1 32.8 l-1.1 3.2 -17.4 0 c-16.2 0 -17.5 -0.1 -17 -1.7z"
       id="path54" />
    <path
       d="M1944.5 507.8 c0.2 -0.7 4.3 -15.5 9 -32.8 4.7 -17.3 8.8 -32.3 9.1 -33.2 0.5 -1.6 2.2 -1.8 18 -1.8 l17.4 0 -0.6 2.6 c-0.4 1.4 -4.6 16.9 -9.4 34.3 l-8.7 31.6 -17.6 0.3 c-13.9 0.2 -17.6 0 -17.2 -1z"
       id="path56" />
    <path
       d="M1780 487.2 c-45.4 -4.7 -82.6 -8.6 -82.7 -8.6 -0.3 -0.2 5.4 -52.7 5.8 -52.9 0.6 -0.5 166.8 16.8 167.3 17.4 0.3 0.2 -0.7 12.2 -2.2 26.7 -2.2 21.8 -2.9 26.2 -4.2 26.1 -0.8 -0.1 -38.6 -4 -84 -8.7z"
       id="path58" />
    <path
       d="M1801.5 415.2 c-45.1 -4.7 -82.1 -8.6 -82.2 -8.6 -0.1 -0.1 1 -12.1 2.5 -26.6 l2.7 -26.5 4 0.4 c15 1.2 163.6 16.9 163.9 17.2 0.4 0.4 -4.1 46.8 -5 50.7 -0.2 1.3 -1.1 2.1 -2.2 2.1 -0.9 -0.1 -38.6 -4 -83.7 -8.7z"
       id="path60" />
    <path
       d="M2205 413 c0 -0.9 9 -34.1 12.6 -46.7 l1.5 -5.3 13 0 c9.2 0 12.9 0.3 12.9 1.2 0 1.1 -10.9 41.5 -13.1 48.6 l-1.1 3.2 -12.9 0 c-7.7 0 -12.9 -0.4 -12.9 -1z"
       id="path62" />
    <path
       d="M2253 413.3 c0 -1.1 14 -51.6 14.4 -52 0.2 -0.2 6.2 -0.2 13.3 -0.1 l12.9 0.3 -7.1 26 -7.2 26 -13.1 0.3 c-7.3 0.1 -13.2 -0.1 -13.2 -0.5z"
       id="path64" />
    <path
       d="M2328 385.3 c0 -0.9 11.5 -42.9 13.1 -48 l1.1 -3.3 12.9 0 c9.7 0 12.9 0.3 12.8 1.3 0 0.6 -3.1 12.2 -6.8 25.7 l-6.8 24.5 -13.1 0.3 c-7.3 0.1 -13.2 -0.1 -13.2 -0.5z"
       id="path66" />
  </g>
</svg>
