<?xml version="1.0" encoding="UTF-8" standalone="no"?>
<svg
   version="1.0"
   width="3684.04"
   height="1239"
   viewBox="0 0 3684.04 1239"
   preserveAspectRatio="xMidYMid"
   id="svg120"
   sodipodi:docname="wingcommander.svg"
   inkscape:version="1.2 (dc2aedaf03, 2022-05-15)"
   xmlns:inkscape="http://www.inkscape.org/namespaces/inkscape"
   xmlns:sodipodi="http://sodipodi.sourceforge.net/DTD/sodipodi-0.dtd"
   xmlns="http://www.w3.org/2000/svg"
   xmlns:svg="http://www.w3.org/2000/svg">
  <defs
     id="defs124" />
  <sodipodi:namedview
     id="namedview122"
     pagecolor="#ffffff"
     bordercolor="#000000"
     borderopacity="0.25"
     inkscape:showpageshadow="2"
     inkscape:pageopacity="0.0"
     inkscape:pagecheckerboard="0"
     inkscape:deskcolor="#d1d1d1"
     showgrid="false"
     inkscape:zoom="0.33394256"
     inkscape:cx="1699.3941"
     inkscape:cy="616.87256"
     inkscape:window-width="1920"
     inkscape:window-height="1017"
     inkscape:window-x="-8"
     inkscape:window-y="-8"
     inkscape:window-maximized="1"
     inkscape:current-layer="svg120" />
  <g
     fill="#070707"
     id="g10"
     transform="translate(-73.34931,-443)">
    <path
       d="m 3493,1607.4 v -74.6 l -3.1,-5.9 c -4.1,-7.5 -12.4,-16.7 -19.6,-21.5 -3.1,-2.1 -9.6,-5.2 -14.3,-6.8 l -8.5,-3.1 -74.7,-0.3 -74.8,-0.3 v -20.9 -21 h -10 -10 v 19.5 19.5 h -84.5 -84.5 v 19 19 h 115 115 v 52 52 h -30.5 -30.5 v 19 19 h -164 -164 v -64 -64 l -12.2,12.6 c -19.7,20.2 -38.4,34.3 -64.3,48.3 -7.1,3.8 -17.5,10.4 -23,14.5 -31.6,23.5 -66.6,40.3 -103.5,49.7 l -11.5,2.9 H 2632.3 2529 v -27.5 -27.6 l -14.7,0.3 -14.8,0.3 -0.3,19.3 -0.2,19.2 h -48 -48 l -0.2,-165.2 -0.3,-165.2 -4,-2.3 c -9.2,-5.2 -34.1,-10 -56.2,-11 l -15.3,-0.6 v 152.6 152.7 h -30 -30 v 19.5 19.5 h -48.5 -48.5 v -19.5 -19.5 h -10 c -5.6,0 -10,0.4 -10,0.9 0,0.6 2.9,9.3 6.4,19.5 l 6.4,18.6 h -214.5 c -171.2,0 -214.4,-0.3 -214,-1.2 0.2,-0.7 3.4,-8.9 7.1,-18.1 3.6,-9.3 6.6,-17.5 6.6,-18.3 0,-1.1 -2.4,-1.4 -12,-1.4 h -12 v 19.5 19.5 h -46.5 -46.5 l -0.2,-164.7 -0.3,-164.8 -0.2,145.3 -0.3,145.2 h -30 -30 v 19.5 19.5 h -46.5 -46.5 v -19.5 -19.5 h -27.5 -27.5 v 19.5 19.5 h -47 -47 v -19.5 -19.5 l -17.3,0.2 -17.2,0.3 -0.3,19.3 -0.2,19.2 h -46.5 -46.5 v -19.5 -19.5 l -30.3,0.2 -30.2,0.3 -0.3,19.3 -0.2,19.2 h -46 -46 l -0.2,-19.2 -0.3,-19.3 -27.7,-0.3 -27.8,-0.2 v 19.5 19.5 H 944.5 898 l -0.2,-89.2 -0.3,-89.3 -4.4,8 c -22.4,40.8 -55.6,72.5 -98.6,94.4 -6,3.1 -14.6,8.5 -19,12 -39.6,31.7 -89,49.1 -139.5,49.1 -56.6,0 -111.7,-21.8 -152.9,-60.6 l -8.1,-7.6 v 15.1 15.1 h -30 -30 v 19 19 h -52.3 c -29.5,0 -57.1,-0.5 -63.3,-1.1 C 228,1633 161.9,1594.3 123.1,1536.6 87.5,1483.9 76.9,1418.2 94,1357.6 c 10.6,-37.5 31.7,-72 61.5,-100.4 17.2,-16.4 34.4,-28.5 57,-40.2 6.1,-3.1 15.3,-9 20.5,-13.1 27.4,-21.4 60.1,-37.1 94,-45 23.4,-5.5 31.3,-6.2 84.3,-6.6 l 49.7,-0.5 v 61.6 61.7 l 5.9,-6.8 c 19.4,-22.5 43.5,-41 71.6,-55.1 5.5,-2.7 13.2,-7.6 17,-10.8 30,-24.7 69,-41.8 109.5,-48 14.1,-2.1 45.2,-2.4 59,-0.5 72.3,9.8 134.1,52.1 169.1,115.6 l 4.4,8 0.3,-32.7 0.2,-32.8 h 30 30 v -19 -19 h 143.6 c 124.6,0 145,0.2 154.1,1.6 26.8,3.9 47.9,13.6 65,29.8 l 7,6.6 h 30.7 30.6 v -19 -19 h 143.6 c 124.6,0 145,0.2 154.1,1.6 46.2,6.8 78.7,33.2 91.7,74.2 5.7,18.2 5.6,14.6 5.6,150.5 0,68.8 0.3,124.8 0.6,124.4 0.4,-0.3 14,-35 30.4,-76.9 l 29.7,-76.3 22.9,-0.5 22.8,-0.5 7.4,-18.8 7.4,-18.7 h 14 c 12.8,0 13.9,-0.1 13.4,-1.7 -1.4,-4.5 -34.6,-123.3 -34.6,-123.8 0,-0.3 15.9,-0.6 35.4,-0.7 l 35.3,-0.3 -5.2,-18.5 -5.1,-18.5 55,-0.3 c 30.2,-0.1 55.3,0.1 55.7,0.5 0.4,0.5 23.1,66.2 50.5,146.2 l 49.9,145.5 0.3,-127.2 0.2,-127.2 h 30.5 30.5 v -19 -19.1 l 111.8,0.4 c 121.8,0.4 115.4,0.1 136.7,6.2 18.8,5.4 39.1,17.6 50.8,30.5 l 5.4,6 h 26.6 26.7 v -19.6 -19.6 l 13.8,0.6 c 15.9,0.7 168.2,1.3 188.2,0.7 18.3,-0.5 33.7,2.4 58.2,10.8 22.4,7.8 41.4,17.2 59.8,29.9 12.7,8.7 17.6,12.7 30.3,25.1 l 10.7,10.5 v -15.2 -15.2 h 30.5 30.5 v -19 -19 h 184 c 122,0 184,0.3 184,1 0,0.7 34.3,1 100.9,1 h 100.9 l 9.3,2.4 c 43.5,11.4 77.1,42.2 88.3,80.9 3.9,13.4 4.9,26.2 4.3,53.7 -0.9,39 -5.6,60.2 -17.9,80.7 -4.4,7.3 -15.3,19 -22.3,23.8 -3,2.1 -5.5,4 -5.5,4.2 0,0.2 2.7,3.6 6.1,7.6 18.2,21.7 28.4,44 30.9,67.8 0.6,5.9 1,36.9 1,74 v 63.9 h -30.5 -30.5 v 19.5 19.5 h -60.5 -60.5 z m -694.2,-82.9 c 7.2,-8.8 17.1,-29.4 21.7,-45.1 4.8,-16.9 5.9,-25.4 5.9,-46.9 0,-18.5 -0.2,-20.7 -2.7,-30 -10.1,-37.2 -38.2,-64.7 -81.1,-79 l -10.4,-3.5 h -86.1 -86.1 v 37.5 37.5 h 14.5 14.5 v -19 -19 h 54.5 54.5 v 84.8 c 0,46.6 0,85 0,85.5 0,0.4 22,0.7 48.9,0.7 h 49 z M 418,1470.1 c 0,-0.5 -0.9,-5.2 -2,-10.4 -3.2,-16 -4.3,-30.5 -3.7,-51.1 0.8,-25.9 3.9,-43.5 12.2,-67.7 4.5,-12.9 15.6,-35.7 23,-46.8 3,-4.6 5.5,-8.8 5.5,-9.3 0,-0.4 -11.8,-0.7 -26.2,-0.6 l -26.3,0.3 -0.3,19.3 -0.2,19.2 h -42.3 c -23.2,0 -45.3,0.5 -49.2,1 -8.2,1.2 -8.5,1.5 -15,14.5 -16.8,33.8 -10.7,72.6 15.9,100.3 17.5,18.2 40,28.9 65.6,31.1 13.3,1.1 43,1.3 43,0.2 z m 295.2,-3.1 c 3.2,-4 8.4,-14.9 11.1,-23.5 7.1,-22.5 5.3,-46.2 -5.2,-68 -16,-33.5 -49.1,-53.6 -86.3,-52.3 -13.7,0.5 -12.6,-0.3 -19.3,13.3 -7.4,15 -9,22.3 -9,41 0,13.7 0.4,17.2 2.3,23.9 5.8,20.1 16.5,36.4 32.2,48.9 8.4,6.7 24.1,14.7 34,17.2 8.1,2.1 21.2,3.2 30.8,2.5 6.3,-0.4 7.7,-0.9 9.4,-3 z M 3011,1368.5 V 1349 h 174 174 v 2.5 2.5 h 79.3 79.4 l -0.9,-6.2 c -1.1,-8.5 -5.8,-17.8 -10.5,-21.1 -2.1,-1.4 -6.5,-3.4 -9.8,-4.4 -5.5,-1.6 -14.1,-1.7 -102.2,-2.1 l -96.3,-0.3 v -15 -14.9 h -10 -10 v 19 19 h -143.1 -143.1 l 0.5,2.3 c 4.7,21.6 7.7,42.4 7.7,52.9 v 4.8 h 5.5 5.5 z M 1107,1328 v -12 h -28 -28 v 12 12 h 28 28 z m 431,0 v -12 h -28 -28 v 12 12 h 28 28 z"
       id="path2" />
    <path
       d="M 3561,1145.5 V 1119 h -402 -402 v -35 c 0,-19.2 -0.1,-35 -0.2,-35 -0.2,0.1 -5.1,1.7 -10.9,3.8 -10.6,3.7 -10.6,3.7 -15.5,10.2 -18.8,24.9 -62.8,38.7 -134.1,42.1 -36.2,1.7 -57.6,-0.2 -86.1,-7.7 -81.4,-21.2 -153.7,-91.2 -185.3,-179.4 l -3.4,-9.5 -0.3,82.3 -0.2,82.2 h -30 -30 v 19 19 h -54.5 -54.5 l -0.2,-211.2 -0.3,-211.2 -4.2,-3.2 c -13.1,-10 -48.7,-17.2 -90,-18.1 L 2034,666.7 V 869.9 1073 h -30.5 -30.5 v 19 19 h -54.5 -54.5 v -19 -19 h -12.5 -12.5 v 19 19 h -55 -55 l -0.2,-280 -0.3,-279.9 -59.9,175.2 -59.8,175.2 -36.3,90 c -31.5,77.8 -36.5,89.6 -37.3,87.5 -5.7,-14.5 -20.6,-50.7 -21.2,-51.3 -0.4,-0.4 -8.9,19.6 -19,44.5 -10,24.9 -18.5,45.6 -18.9,46 -0.4,0.4 -19.1,-44.7 -41.6,-100.4 l -40.9,-101.1 -1.8,3.9 c -0.9,2.1 -15.8,38.9 -33,81.6 -17.2,42.8 -31.5,77.8 -31.8,77.8 -0.3,0 -5.5,-11.9 -11.4,-26.5 -6,-14.6 -11.2,-26.2 -11.7,-25.8 -0.4,0.4 -8.9,21.2 -19,46.2 -14.1,34.9 -18.5,45 -19.1,43.5 -0.5,-1.1 -48.7,-118.3 -107.1,-260.4 L 1052.4,598.5 1033.2,598.2 1014,598 v 19 19 H 873.5 733 v 5.6 5.5 l -7.9,-5.5 -7.9,-5.6 H 695.1 673 v 24.5 c 0,13.5 -0.2,24.5 -0.5,24.5 -0.8,0 -132.5,-92.8 -134.7,-94.9 -1.7,-1.5 2.7,-5.2 66.5,-55.5 l 68.2,-53.9 0.5,4.3 0.5,4.2 29.3,-23.1 c 16.1,-12.7 29.4,-23.1 29.7,-23.1 0.3,0 0.5,13 0.5,29 v 29 l 259.1,0.2 259.1,0.3 39.6,102.8 c 21.7,56.5 39.8,102.4 40.2,102 0.4,-0.4 15.9,-36.3 34.5,-79.8 18.5,-43.4 34.2,-79.9 34.7,-80.9 0.9,-1.6 2.9,2.9 11.1,24.2 5.5,14.4 10.3,26.2 10.6,26.2 0.3,0 9.4,-20.5 20.1,-45.6 13.4,-31.6 19.6,-45 20.1,-43.7 7.5,20.1 47.2,122 47.7,122.5 0.4,0.4 8.4,-18.6 17.7,-42.2 l 17,-43 h 22.6 22.6 l 7.4,-18.7 7.5,-18.8 69.6,-0.3 69.7,-0.2 -5.9,17.2 c -3.2,9.5 -6.2,18.1 -6.5,19.1 -0.7,1.6 1.1,1.7 28.9,1.7 h 29.6 v -19 -19 h 54.5 54.5 v 19 19 h 13 13 v -19 -19 h 126.4 c 81.9,0 130,0.4 136.7,1.1 30.4,3.1 53.3,10.7 74.4,24.6 28.3,18.9 47.1,47.9 55.6,85.8 2.1,9.3 2.3,13.2 2.8,57.9 l 0.6,47.9 3.4,-8.4 c 21,-52.1 61.8,-95.1 116.4,-122.6 4,-1.9 10.8,-6.4 15.2,-9.8 34.8,-27.1 76.5,-45.3 125.5,-54.6 11.3,-2.2 13.4,-2.3 114.3,-2.6 l 102.7,-0.4 v 18.6 18.5 h 9 9 V 542.5 523 h 140.5 140.4 l 0.3,-9.9 0.3,-9.9 12.5,9.9 12.5,9.9 h 17.3 17.2 v -29 c 0,-15.9 0.2,-29 0.5,-29 0.5,0 132.7,104 135.3,106.5 1.1,1 -11,10 -66.4,49.1 -37.3,26.4 -68.1,48.1 -68.6,48.2 -0.4,0.2 -0.8,-0.3 -0.8,-1.2 0,-0.9 -0.2,-1.6 -0.5,-1.6 -0.2,0 -13.5,9.2 -29.5,20.5 -15.9,11.3 -29.2,20.5 -29.5,20.5 -0.3,0 -0.5,-11 -0.5,-24.5 V 658 H 2927.5 2757 v -9 -9 h -9 -9 v 19.5 19.5 h -13.2 c -7.3,-0.1 -49.8,-0.9 -94.4,-1.9 -44.6,-1 -84,-1.4 -87.5,-1 -7.4,0.9 -8.2,1.7 -19.3,17.4 -26.9,38.1 -40.5,85.7 -34.1,119.1 8.4,44.1 47.4,90.6 97.3,116.2 7.8,4.1 26.2,11.2 28.8,11.2 0.2,0 0.4,-11 0.4,-24.5 V 891 h -24 -24 v -50 -50 h 30.5 30.5 V 771.5 752 h 84.5 84.5 v 22.5 22.5 h 9 9 v -19 -19 h 249 249 v -8.5 c 0,-4.7 0.2,-8.5 0.5,-8.5 0.3,0 5.4,3.8 11.3,8.5 l 10.7,8.5 h 18.7 18.8 l 0.2,-28.1 0.3,-28 68,53.7 c 37.4,29.5 68.1,54 68.3,54.4 0.1,0.4 -30.5,22.4 -68,48.9 -48.1,34 -68.4,47.8 -68.6,46.7 -0.2,-0.9 -0.5,-1.6 -0.8,-1.6 -0.2,0 -13.5,9.2 -29.4,20.5 -16,11.3 -29.3,20.5 -29.5,20.5 -0.3,0 -0.5,-11.7 -0.5,-26 v -26 h -258 -258 v 57.3 57.2 l -2.6,6 c -1.4,3.3 -2.8,6.6 -3.1,7.3 -0.4,0.9 2.3,1.2 11.6,1.2 H 2817 V 1003.5 984 h 372 371.9 l 0.3,-8.5 0.3,-8.6 10.8,8.6 10.7,8.5 h 19.5 19.5 l 0.2,-27.5 0.3,-27.4 68.2,53.8 c 61.9,48.9 68,54 66.5,55.3 -2.6,2.3 -134,94.8 -134.5,94.8 -0.3,0 -0.7,-0.7 -0.9,-1.5 -0.2,-1.1 -9,4.6 -30.1,19.5 -16.4,11.5 -30,21 -30.2,21 -0.3,0 -0.5,-11.9 -0.5,-26.5 z"
       id="path4" />
    <path
       d="m 140.3,1101.5 c -54.4,-38.3 -67.9,-48.3 -66.9,-49.3 0.7,-0.7 31.3,-25 68.2,-54.1 l 66.9,-52.9 0.5,4.3 0.5,4.3 30,-23.7 30,-23.7 0.3,27.8 0.2,27.8 h 402 402 v 48.5 48.5 h -30 -30 v 19 19 H 642 270.1 l -0.3,7.4 -0.3,7.3 -10.4,-7.3 -10.3,-7.4 H 228.9 209 l -0.2,26.3 -0.3,26.3 z"
       id="path6" />
    <path
       d="m 399.5,884.9 c -30.2,-21.4 -60.9,-43.1 -68.1,-48.2 l -13.2,-9.3 68.7,-54.2 68.6,-54.2 0.3,4.5 0.3,4.4 29.7,-23.5 29.7,-23.5 0.3,27.6 0.2,27.5 h 279 279 v 48.5 48.5 h -30 -30 v 19 19 H 765 516.1 l -0.3,7.4 -0.3,7.3 -10.4,-7.3 -10.3,-7.4 H 475.4 456 v 26.5 c 0,14.6 -0.3,26.5 -0.7,26.4 -0.5,0 -25.5,-17.6 -55.8,-39 z"
       id="path8" />
  </g>
  <g
     fill="#d92d29"
     id="g58"
     transform="translate(-73.34931,-443)">
    <path
       d="m 3493,1607.4 v -74.6 l -3.1,-5.9 c -4.1,-7.5 -12.4,-16.7 -19.6,-21.5 -3.1,-2.1 -9.6,-5.2 -14.3,-6.8 l -8.5,-3.1 -74.7,-0.3 -74.8,-0.3 v -51.4 -51.5 h 101.8 c 96.7,0 101.9,-0.1 105.7,-1.9 8.9,-4.1 11.8,-10.3 11.9,-25.6 0.2,-14.9 -0.9,-21.9 -4.4,-29.1 -3.5,-7.2 -7.7,-10.5 -16.5,-13.1 -5.5,-1.6 -14.1,-1.7 -102.2,-2.1 l -96.3,-0.3 v -49 -48.9 h 111.3 c 106.6,0 111.5,0.1 119.3,2 22.2,5.3 45.6,18.3 61.7,34.4 18.4,18.2 28.3,38.7 31.8,65.1 1.6,12.3 0.6,57.7 -1.5,71 -5.2,32.1 -17.5,55 -37.3,69.2 l -6.2,4.4 6,7.2 c 17.7,21 28.3,43.8 30.9,66.6 1.1,9.9 1.3,67.8 0.3,110.9 l -0.6,29.2 h -60.4 -60.3 z"
       id="path12" />
    <path
       d="M 2529,1533.5 V 1395 h 54.5 54.5 v 85.6 85.5 l 52.3,-0.3 c 47.1,-0.4 52.7,-0.6 57.7,-2.2 27.1,-8.9 52.1,-34.1 66.1,-66.5 9.2,-21.3 12.3,-37.9 12.3,-64.6 0,-18.5 -0.2,-20.7 -2.7,-30 -10.1,-37.4 -38.2,-64.7 -81.4,-79.1 l -10.8,-3.6 -101.2,0.4 -101.3,0.3 v -54.7 -54.7 l 10.3,0.4 c 20.6,0.9 167.7,1.3 182.2,0.5 17.3,-0.9 27.5,0 43,3.7 29.8,7 59.8,20.2 84.5,37.1 52,35.6 82.1,86.2 89.6,150.8 2,17.2 1.4,54.5 -1,69.9 -6.5,40.1 -20.4,73 -43.9,103.9 -31.3,41.1 -88.5,76.9 -146.7,91.7 l -11.5,2.9 H 2632.3 2529 Z"
       id="path14" />
    <path
       d="m 2950,1529.6 v -142.5 l 164.5,-0.1 H 3279 v 23.2 c 0,12.8 -0.3,36.5 -0.7,52.6 l -0.6,29.2 H 3163.3 3049 l 0.2,37.8 0.3,37.7 114.8,0.3 114.7,0.2 v 23.3 c 0,12.9 -0.3,36.3 -0.7,52 l -0.6,28.7 H 3113.8 2950 Z"
       id="path16" />
    <path
       d="m 897.5,1493.6 c -0.4,-89.4 -0.4,-189.3 0,-222.1 l 0.8,-59.6 148.6,0.4 148.6,0.3 9,2.2 c 26,6.4 42.5,15 57.6,30.1 16.7,16.7 27.1,38.9 30.8,65.5 1.2,8.7 1.6,267.7 0.4,316.9 l -0.6,28.7 h -46.4 -46.3 v -164 c 0,-183.4 0.7,-168 -7.4,-172 -9.2,-4.4 -14.5,-4.6 -110.8,-4.2 l -90.8,0.4 v 169.9 169.9 h -46.4 -46.3 z"
       id="path18" />
    <path
       d="m 1046.7,1627.3 c -0.4,-15.7 -0.7,-86.8 -0.7,-158 V 1340 h 47 47 v 129.3 c 0,71.2 -0.3,142.3 -0.7,158 l -0.6,28.7 h -45.7 -45.7 z"
       id="path20" />
    <path
       d="m 1328,1434 v -222 h 144.1 c 125,0 145.5,0.2 154.6,1.6 33.3,4.9 59.8,20 76.7,43.7 10.6,14.9 18.4,36.7 20.6,57.7 1.1,10.8 1.4,265.1 0.3,311.8 l -0.6,29.2 h -46.4 -46.3 v -164.4 -164.4 l -2.5,-3 c -1.4,-1.6 -4.4,-3.8 -6.7,-4.7 -9.9,-4 -14.8,-4.1 -109,-3.7 l -90.8,0.4 v 169.9 169.9 h -47 -47 z"
       id="path22" />
    <path
       d="m 1477,1498 v -158 h 46.5 46.5 v 158 158 h -46.5 -46.5 z"
       id="path24" />
    <path
       d="m 1734.3,1654.8 c 0.3,-0.7 3.4,-8.9 7,-18.3 9.1,-23.7 38.5,-99.2 73.7,-189 l 29.8,-76 49.1,-0.3 c 46.2,-0.2 49.2,-0.3 48.7,-2 -0.2,-0.9 -2.5,-9.1 -4.9,-18.2 -2.5,-9.1 -12.2,-44.4 -21.7,-78.5 -9.5,-34.1 -17.5,-62.8 -17.8,-63.8 -0.4,-1.6 2.5,-1.7 55.4,-1.5 l 55.9,0.3 59.2,172.5 c 32.6,94.9 67.1,195.8 76.6,224.3 l 17.4,51.7 h -214.4 c -171.2,0 -214.4,-0.3 -214,-1.2 z m 252,-127.5 c 0.7,-1.2 -29.6,-108.4 -30.3,-107.6 -0.8,0.9 -37,106.3 -37,107.6 0,0.4 15,0.7 33.4,0.7 18.4,0 33.7,-0.3 33.9,-0.7 z"
       id="path26" />
    <path
       d="m 2170,1431.5 v -224.6 l 112.3,0.4 c 99.1,0.3 113.1,0.5 120.2,2 35.6,7.3 61.3,22.8 77.6,46.9 5.5,8.1 12.3,22.6 14.9,31.8 5,18.1 5,16.4 5,168.6 0,78.1 -0.3,155 -0.7,170.7 l -0.6,28.7 h -47.9 -47.8 l -0.2,-165.2 -0.3,-165.2 -4,-2.3 c -4.7,-2.6 -16,-5.8 -30.5,-8.6 -9.2,-1.7 -16,-2 -55.7,-2.4 l -45.3,-0.5 v 172.1 172.1 h -48.5 -48.5 z"
       id="path28" />
    <path
       d="m 297.5,1639.8 c -20.1,-2 -45.9,-8.4 -65.4,-16.3 -73.2,-29.4 -126.2,-90.5 -141.5,-163.3 -7.1,-33.5 -5.9,-69.8 3.4,-102.6 15.1,-53.4 52.5,-101.7 102,-131.4 30,-18.1 57.1,-28 91.3,-33.4 11.7,-1.9 18.7,-2.1 63.5,-2.5 l 50.2,-0.5 v 37.9 c 0,20.9 -0.3,50.8 -0.7,66.6 l -0.6,28.6 -46.6,0.3 -46.6,0.4 -9,2.8 c -21.5,6.5 -41.9,19.6 -53.6,34.4 -41.5,52.8 -14.5,125.3 53.9,144.5 7.4,2 9.9,2.1 62.5,2.5 l 54.7,0.3 v 66.4 66.5 l -54.2,-0.1 c -29.9,-0.1 -58.3,-0.6 -63.3,-1.1 z"
       id="path30" />
    <path
       d="m 611.5,1639.8 c -48.3,-5.4 -92.2,-26 -130.2,-60.9 -27.3,-25.2 -49.7,-61.1 -60.2,-96.6 -2.9,-9.8 -6.9,-31 -8.2,-43.7 -1.5,-13.8 -0.6,-45.9 1.6,-58.6 5.1,-29.9 17.4,-62 32.7,-85.5 2.9,-4.4 5.9,-9.2 6.8,-10.7 3.9,-6.9 28.7,-32.9 40.5,-42.5 20.1,-16.2 50.1,-32.9 72.6,-40.1 55.8,-18.1 115.2,-13.8 167.6,12.3 46.9,23.3 81.9,58.8 104.4,106 9.8,20.6 16,41.4 19.6,65.4 2.3,16 2.3,46.5 -0.1,62.6 -7.2,48.3 -28.5,91.5 -62.5,126.8 -6.9,7.2 -27.4,23.4 -40.1,31.7 -27.3,17.8 -63,30.2 -97.2,33.9 -11.4,1.3 -35.9,1.2 -47.3,-0.1 z m 43.2,-133.4 c 20.9,-4.3 39.6,-16 53.8,-33.6 22.2,-27.5 26.3,-64.6 10.6,-97.3 -15.5,-32.3 -47.4,-52.4 -83.2,-52.5 -15.9,0 -33.9,5.4 -48.7,14.6 -37.4,23.3 -53.1,71.1 -36.8,112 11.5,29 36.4,50.4 66.2,56.8 9.4,2 28.6,2 38.1,0 z"
       id="path32" />
    <path
       d="M 2950,1274.3 V 1220 h 164.7 164.6 l -0.6,53.7 c -0.4,29.5 -0.8,53.8 -1,53.9 -0.1,0.1 -73.9,0.4 -164,0.6 l -163.7,0.3 z"
       id="path34" />
    <path
       d="M 3561,1145.5 V 1119 h -402 -402 v -28.2 c 0,-15.6 -0.3,-37.5 -0.7,-48.7 l -0.6,-20.4 30.4,0.4 c 16.7,0.2 197.9,0.3 402.6,0.2 l 372.3,-0.3 0.2,-27.5 0.3,-27.6 10.6,8.3 c 5.8,4.6 11.3,8.8 12.2,9.3 3.2,1.9 114.6,90 114.6,90.7 0.1,0.6 -69,49.8 -76.4,54.4 -1.6,1 -15.9,11 -31.8,22.1 -15.8,11.2 -29,20.3 -29.2,20.3 -0.3,0 -0.5,-11.9 -0.5,-26.5 z"
       id="path36" />
    <path
       d="m 140.3,1101.5 c -54.4,-38.3 -67.9,-48.3 -66.9,-49.3 0.7,-0.7 31.3,-25 68.2,-54.1 l 66.9,-52.9 0.7,5.2 c 0.3,2.8 0.6,15.1 0.7,27.4 l 0.1,22.2 h 402 402 v 48.5 48.5 l -372.2,0.2 c -204.8,0.2 -385.9,0.1 -402.5,-0.1 l -30.3,-0.4 -0.2,26.4 -0.3,26.5 z"
       id="path38" />
    <path
       d="M 1160,860.3 C 1101.5,718 1052.9,599.9 1051.9,598 c -2.1,-4.3 -23.9,-57.3 -23.9,-58.3 0,-0.4 36.8,-0.6 81.7,-0.5 l 81.7,0.3 75.2,195.5 c 41.5,107.5 75.3,196.3 75.4,197.2 0,1.7 -34.3,87.7 -37.6,94.3 -0.9,1.7 -9.4,22.6 -19.1,46.5 -9.6,23.9 -17.8,44.1 -18.2,44.8 -0.4,0.7 -46.6,-110.3 -107.1,-257.5 z"
       id="path40" />
    <path
       d="m 1434.3,1017.7 c -22.6,-55.6 -57.8,-142.3 -78.2,-192.6 l -37.1,-91.4 5,-11.8 c 2.8,-6.5 6.1,-14 7.4,-16.6 1.3,-2.6 17.1,-39.2 35.1,-81.3 18,-42.1 33.2,-77.4 33.7,-78.4 0.8,-1.6 2.8,2.6 10.4,22.5 5.1,13.4 10.4,26.7 11.7,29.4 1.3,2.8 12.9,32.3 25.8,65.7 12.9,33.5 23.6,60.8 23.9,60.8 0.3,0 8.6,-20.4 18.4,-45.3 9.9,-24.8 18.7,-46.6 19.5,-48.2 0.9,-1.7 9,-21.8 18.1,-44.8 l 16.5,-41.7 h 69.8 c 38.3,0 69.7,0.2 69.7,0.4 0,0.2 -30.3,89.2 -67.4,197.8 -64,187.3 -68.3,199.6 -85.2,240.8 -9.7,23.9 -26,64 -36.1,89 -10.2,25 -18.8,45.8 -19.2,46.2 -0.4,0.4 -19.2,-44.8 -41.8,-100.5 z"
       id="path42" />
    <path
       d="M 1729,827.5 V 544 h 55 55 V 827.5 1111 h -55 -55 z"
       id="path44" />
    <path
       d="M 1864,827.5 V 543.9 l 133.8,0.4 c 146.2,0.3 137.6,0 161.7,6.2 23.6,6.1 46,18.8 62,34.9 18.6,18.8 29.5,39.7 36.8,70.1 l 2.1,9 0.3,223.3 0.3,223.2 h -54.5 -54.5 l -0.2,-211.2 -0.3,-211.2 -4.2,-3.2 c -8,-6.1 -26.6,-11.7 -51.5,-15.5 -13,-2 -19.2,-2.2 -68,-2.6 l -53.8,-0.5 v 193.5 c 0,106.3 -0.3,206.3 -0.7,222 l -0.6,28.7 h -54.4 -54.3 z"
       id="path46" />
    <path
       d="m 2552.8,1104.9 c -14.2,-1.1 -26.4,-3.2 -42.6,-7.5 -70.6,-18.4 -133.4,-72.1 -170.7,-145.9 -6.5,-13 -8.7,-18 -17.9,-42 -15,-39.3 -19.7,-97.4 -11.5,-144 9.5,-54.5 37.8,-104.3 78.9,-138.7 31,-26.1 69.8,-45.9 109,-55.8 30.4,-7.7 22.7,-7.3 137.8,-7.7 l 103.2,-0.4 v 58.1 58 h -10.7 c -6,0 -40.5,-0.7 -76.8,-1.5 -36.3,-0.8 -75.9,-1.5 -88,-1.6 l -22,-0.2 -11,3.7 c -17.8,5.9 -32.1,15.1 -47,30.1 -24.3,24.4 -43.6,60.5 -51.7,96.7 -1.9,8.4 -2.3,13.2 -2.3,26.3 0.1,18.1 1.6,25.6 8.5,42.3 19.1,45.7 73.2,92.6 118.5,102.7 14,3.1 42.1,0.7 54.6,-4.6 l 4.6,-2 0.6,-23.2 c 0.4,-12.8 0.7,-30.7 0.7,-39.9 V 891 h -24 -24 v -49.8 -49.9 l 45.8,-0.6 c 25.1,-0.4 63.4,-0.7 85,-0.7 h 39.2 v 128.3 c 0,144.7 0.7,132.2 -8.3,144.2 -18.7,25 -62.4,39.1 -131.7,42.4 -23.9,1.2 -30.5,1.2 -46.2,0 z"
       id="path48" />
    <path
       d="M 3315,920 V 894 H 3035.5 2756 V 845.5 797 l 279.3,-0.2 279.2,-0.3 0.3,-27.2 c 0.1,-15 0.5,-27.3 0.8,-27.3 0.3,0 4.6,3.3 9.7,7.3 5.1,4 10.8,8.4 12.7,9.7 3.5,2.5 111.3,87.3 113.8,89.5 1.1,1 -6.1,6.5 -37.7,28.9 -21.6,15.2 -39.4,27.6 -39.7,27.6 -0.2,0 -13.5,9.2 -29.4,20.5 -16,11.3 -29.3,20.5 -29.5,20.5 -0.3,0 -0.5,-11.7 -0.5,-26 z"
       id="path50" />
    <path
       d="m 399.5,884.9 c -30.2,-21.4 -60.9,-43.1 -68.1,-48.2 l -13.2,-9.3 68.7,-54.2 68.6,-54.1 0.3,27.4 0.2,27.5 h 279 279 v 48.5 48.5 l -249.2,0.2 c -137.1,0.2 -262.7,0.1 -279,-0.1 L 456,870.7 v 26.7 c 0,14.6 -0.3,26.6 -0.7,26.5 -0.5,0 -25.5,-17.6 -55.8,-39 z"
       id="path52" />
    <path
       d="M 3098,682.5 V 658 h -170.3 -170.4 l -0.6,-13.7 c -0.4,-7.5 -0.7,-29.4 -0.7,-48.6 v -35 l 30.3,0.4 c 16.6,0.2 93.3,0.2 170.5,0.1 l 140.2,-0.2 0.1,-17.7 c 0.1,-9.8 0.4,-22.8 0.8,-28.9 l 0.6,-11.2 10,8 c 5.5,4.3 12.1,9.4 14.6,11.1 7.7,5.4 111.9,88 111.9,88.7 0,0.7 -76.5,55 -77.4,55 -0.3,0 -13.6,9.2 -29.6,20.5 -15.9,11.3 -29.2,20.5 -29.5,20.5 -0.3,0 -0.5,-11 -0.5,-24.5 z"
       id="path54" />
    <path
       d="M 604.1,637.2 C 567,611 536.8,589.1 537,588.5 c 0.1,-0.5 30.7,-25 67.9,-54.4 l 67.6,-53.4 0.3,29.2 0.2,29.1 170.6,0.2 170.5,0.3 -0.1,47.9 c 0,26.4 -0.2,48.1 -0.3,48.3 -0.2,0.1 -76.9,0.3 -170.5,0.3 L 673,636.1 v 24.5 c 0,13.4 -0.3,24.4 -0.7,24.3 -0.5,0 -31.1,-21.5 -68.2,-47.7 z"
       id="path56" />
  </g>
  <g
     fill="#f2d249"
     id="g118"
     transform="translate(-73.34931,-443)">
    <path
       d="m 3514.7,1660.3 c -0.4,-0.3 -0.7,-30.1 -0.7,-66.2 v -65.6 l -2.5,-5.3 c -6.1,-13.2 -17.3,-26.8 -27.9,-34.1 -6.3,-4.4 -19.5,-10.4 -27.6,-12.7 -5.9,-1.6 -12.5,-1.8 -71.7,-2.2 l -65.3,-0.3 v -30 -29.9 h 88.3 c 53.8,0 90.9,-0.4 95.2,-1 19.5,-2.9 32.5,-16 35.6,-36 1.4,-9.1 0.6,-26.9 -1.7,-37.1 -3.6,-16.2 -12.5,-28.3 -24.9,-34 -13.9,-6.3 -11.6,-6.2 -106.2,-6.6 l -86.3,-0.4 v -27.5 -27.4 h 101.1 101.1 l 8.9,3 c 29.8,10 50.7,26.9 62.7,50.7 7.3,14.5 9.8,31.7 8.8,62.3 -0.9,31.4 -4.4,49.1 -12.8,65.3 -5.1,9.8 -14.8,19.9 -23.5,24.5 -7.5,3.9 -19.7,7.2 -27,7.2 -2.9,0 -5.3,0.3 -5.3,0.8 0,0.4 2.6,2.5 5.8,4.7 3.1,2.2 11.3,9.6 18.2,16.5 13.5,13.5 21.6,24.5 28.1,38.4 7.6,16.3 7.3,13 7.6,81.9 l 0.4,61.7 h -38.9 c -21.4,0 -39.2,-0.3 -39.5,-0.7 z"
       id="path60" />
    <path
       d="M 2550,1533.5 V 1416 h 33.6 33.6 l -0.7,85.5 -0.8,85.6 65.4,-0.4 c 73,-0.3 69.1,0 85.6,-7.7 11.9,-5.6 22.5,-13.2 33.3,-24 30.7,-30.7 47.9,-75.1 48,-123.5 0,-21.2 -4,-39.6 -12.5,-57.1 -15.6,-32.3 -45.6,-56.8 -87,-71.1 l -11,-3.8 -93.7,-0.3 -93.8,-0.2 v -32.9 -32.8 l 98.2,0.4 c 109.3,0.4 103.4,0.1 126.8,7.5 72.4,23 120.3,70.3 136.9,135.1 5.1,19.6 6.5,31.9 6.5,56.7 0.1,13.5 -0.4,26.3 -1.2,32 -10.4,74.6 -52.1,130.1 -123.6,164.6 -17.9,8.6 -30.3,13.3 -47.4,18 l -12.5,3.4 h -91.9 -91.8 z"
       id="path62" />
    <path
       d="m 2971,1530 v -121 h 143 143 v 31 31 H 3142.5 3028 v 59 59 h 114.5 114.5 v 31 31 h -143 -143 z"
       id="path64" />
    <path
       d="m 918,1434 v -201.1 l 135.8,0.3 c 124.6,0.3 136.4,0.5 143.7,2.1 24.5,5.3 43.2,15.8 54.9,30.7 10.9,13.9 17.7,31.3 19.6,50.8 0.8,7.3 1,59.5 0.8,164.2 l -0.3,153.5 -25.7,0.3 -25.8,0.2 -0.2,-157.7 -0.3,-157.8 -2.2,-4.1 c -5.3,-9.8 -17,-16.8 -33.6,-19.9 -10,-1.9 -6,-1.8 -123.9,-1 l -90.8,0.6 v 170 169.9 h -26 -26 z"
       id="path66" />
    <path
       d="m 1068,1498 v -137 h 25 25 v 137 137 h -25 -25 z"
       id="path68" />
    <path
       d="m 1349,1434 v -201.1 l 135.8,0.4 135.7,0.3 9.9,2.2 c 19.9,4.6 33.2,11.2 45.5,22.9 13.1,12.3 22.2,29.8 25.7,49.3 1.1,6.1 1.3,37.8 1.4,167.3 V 1635 h -25.5 -25.5 v -154 c 0,-107 -0.3,-155.4 -1.1,-159 -3.9,-18 -24,-28 -56.4,-28.1 -7.1,0 -53.6,0.2 -103.2,0.6 l -90.3,0.6 v 170 169.9 h -26 -26 z"
       id="path70" />
    <path
       d="m 1498,1498 v -137 h 25.5 25.5 v 137 137 h -25.5 -25.5 z"
       id="path72" />
    <path
       d="m 1765.3,1633.3 c 0.3,-1.3 87.3,-224.8 93.4,-240 0.4,-1 9.7,-1.3 42,-1.3 h 41.4 l -0.6,2.3 c -0.8,2.6 -10.2,30.1 -25.7,75.2 -6,17.6 -13.1,38.3 -15.7,46 -2.7,7.7 -6.2,18 -8,23 -1.7,4.9 -3.1,9.3 -3.1,9.7 0,0.4 28.4,0.8 63,0.8 34.7,0 63,-0.3 63,-0.6 0,-0.3 -20,-72 -44.5,-159.3 -24.5,-87.4 -44.5,-159.3 -44.5,-160 0,-0.8 9.2,-1.1 33.9,-1.1 h 33.8 l 3.6,10.3 c 9.5,26.9 135.7,395.3 135.7,395.9 0,0.5 -82.9,0.8 -184.1,0.8 -174.9,0 -184.1,-0.1 -183.6,-1.7 z"
       id="path74" />
    <path
       d="M 2191,1431.5 V 1228 h 93 c 95,0 104,0.3 121.1,4 42.3,9.1 68.6,38.6 72.9,81.8 0.8,7.3 1,59.9 0.8,165.7 l -0.3,155 -27.2,0.3 -27.3,0.2 v -156.7 c 0,-150 -0.1,-157 -1.9,-160.8 -1,-2.3 -3.3,-5.4 -5.2,-7 -5.1,-4.3 -18.4,-10.1 -29.5,-12.9 -21.9,-5.6 -26.7,-5.9 -86.1,-6.3 l -55.3,-0.4 v 172 172.1 h -27.5 -27.5 z"
       id="path76" />
    <path
       d="m 303,1619.3 c -19.7,-2 -44.4,-7.8 -61.3,-14.3 -59,-22.8 -104.5,-69 -124.2,-126 -21,-60.6 -10.5,-127.5 28.1,-179.7 35,-47.3 92.1,-79.6 152.6,-86.2 5.4,-0.6 25.7,-1.1 45.3,-1.1 H 379 v 45 45 h -32.7 c -34.5,0 -42.7,0.7 -58.3,5 -9.4,2.6 -25.8,10.4 -35.2,16.7 -22.2,14.9 -39.6,39.1 -46.5,64.8 -2.4,9 -2.7,11.8 -2.7,27 -0.1,14.7 0.2,18.2 2.3,25.9 5.4,20.5 15.2,37.8 30.1,52.6 13.6,13.6 29.2,23.1 48.6,29.6 16.3,5.5 26.3,6.4 70.7,6.4 H 394 v 45 45 l -43.7,-0.2 c -24.1,0 -45.4,-0.3 -47.3,-0.5 z"
       id="path78" />
    <path
       d="m 609,1618.4 c -90.1,-12.2 -161.8,-83.8 -174.4,-174.3 -2,-14.2 -2.1,-42.2 -0.1,-55.9 10.6,-74.5 59,-135.8 128.9,-163.1 21.6,-8.5 40.4,-12.1 66.3,-12.8 21.2,-0.6 32,0.3 50.1,4.3 83.2,18.4 145.6,86.3 157.7,171.6 2,13.7 1.9,41.7 -0.1,55.9 -12.7,91.1 -84.7,162.6 -175.7,174.4 -14.4,1.8 -38.5,1.8 -52.7,-0.1 z m 40.9,-89.4 c 25.7,-3.4 47.7,-14.3 66.2,-32.9 24.3,-24.4 35.4,-54.9 32.7,-89.8 -2.8,-37.9 -25.8,-72.8 -59.8,-91.2 -37.7,-20.2 -85.2,-16.7 -120.1,9 -8.2,6.1 -21.2,19.5 -26.8,27.8 -8.8,12.9 -15.6,30.2 -18.2,46.1 -1.5,9.5 -1.2,29.2 0.6,38.8 11.4,59.3 66.5,99.8 125.4,92.2 z"
       id="path80" />
    <path
       d="m 2971,1274 v -33 h 143 143 v 33 33 h -143 -143 z"
       id="path82" />
    <path
       d="m 3582,1070.9 c 0,-45 0.3,-60 1.2,-59.7 1.2,0.4 80.9,63.1 80.5,63.4 -3.4,2.8 -80.2,56.4 -80.8,56.4 -0.5,0 -0.9,-26.6 -0.9,-60.1 z"
       id="path84" />
    <path
       d="m 146.8,1080.7 c -21.8,-15.5 -39.5,-28.5 -39.2,-28.8 0.6,-1 79.2,-62.9 79.8,-62.9 0.3,0 0.6,27 0.6,60 0,33 -0.3,60 -0.7,59.9 -0.5,0 -18.6,-12.7 -40.5,-28.2 z"
       id="path86" />
    <path
       d="m 2778,1071 v -27 h 391.5 391.5 v 27 27 H 3169.5 2778 Z"
       id="path88" />
    <path
       d="M 1750,827.5 V 565 l 33.8,0.2 33.7,0.3 0.3,262.3 0.2,262.2 h -34 -34 z"
       id="path90" />
    <path
       d="M 1885,827.5 V 564.9 l 120.3,0.3 c 118.6,0.4 120.4,0.4 132.4,2.6 29.5,5.3 51.4,15.6 68.1,32.1 12.8,12.7 21,26.1 27.1,44.6 7.5,22.6 7.1,9.1 7.1,239.4 V 1090 H 2206.5 2173 V 889.8 c 0,-130.7 -0.4,-201.8 -1.1,-204.7 -4.5,-19.7 -37.1,-33 -93.4,-38.1 -6,-0.5 -37,-1 -68.7,-1 H 1952 v 222 222 h -33.5 -33.5 z"
       id="path92" />
    <path
       d="m 2559,1084.4 c -21.7,-1.8 -36.7,-4.7 -55,-10.6 -53.9,-17.3 -103.4,-58.8 -136.2,-114 -19.9,-33.7 -33.4,-72.7 -38.9,-112.8 -2,-14.1 -1.7,-51.4 0.5,-67.5 6.7,-49.4 27.2,-92 60,-124.7 35,-34.9 83.8,-59 138.7,-68.4 8,-1.4 22.5,-1.7 99.7,-2.1 l 90.2,-0.4 v 37 37.1 h -2.2 c -1.3,-0.1 -39,-0.9 -83.8,-1.9 -46.2,-1 -85,-1.4 -89.5,-1 -51.5,5.1 -103.3,57 -126,126.3 -19.5,59.6 -6.2,111 41.5,160 27.4,28.1 59.6,48.3 89.8,56.3 15.2,4 40.6,3.5 60.2,-1.3 9,-2.2 21.8,-8.3 26.3,-12.6 l 3.7,-3.5 V 925.1 870 h -24 -24 v -29 -29 h 64 64 v 115.2 c 0,114.8 0,115.2 -2.1,119.5 -1.1,2.4 -4.6,6.5 -7.6,9.3 -15.8,14 -46.8,23.1 -91.3,26.9 -12.9,1.1 -51.1,2.1 -58,1.5 z"
       id="path94" />
    <path
       d="m 210,1049 v -27 H 601.5 993 v 27 27 H 601.5 210 Z"
       id="path96" />
    <path
       d="m 1163.8,814.3 c -56.5,-137.4 -103,-250.6 -103.3,-251.5 -0.7,-1.7 2.5,-1.8 57.7,-1.8 h 58.5 l 71.1,184.9 c 39.2,101.7 71.2,185.5 71.2,186.3 0,0.8 -9.7,25.5 -21.6,54.9 -11.8,29.4 -23.7,58.7 -26.3,65.2 l -4.7,11.7 z"
       id="path98" />
    <path
       d="m 1408.8,898.4 -66.6,-164.6 28.6,-66.9 c 15.8,-36.8 28.9,-66.9 29.3,-66.9 0.3,0 16.4,41.2 35.9,91.5 19.4,50.3 35.6,91.3 35.9,90.9 0.3,-0.3 20,-49.2 43.6,-108.7 l 43,-108.2 47.8,-0.3 47.8,-0.2 -0.6,2.2 c -0.7,2.2 -23.8,70.4 -36.5,107.3 -3.2,9.4 -15.6,45.6 -27.5,80.5 -11.9,34.9 -24.5,71.8 -28,82 -3.5,10.2 -12.3,35.8 -19.5,57 -9.5,27.9 -20.3,56.3 -39.1,103 -14.3,35.5 -26.4,64.8 -26.8,65.2 -0.4,0.5 -30.7,-73.3 -67.3,-163.8 z"
       id="path100" />
    <path
       d="m 3336,845.5 c 0,-50.9 0.2,-60.5 1.4,-59.8 0.7,0.4 19,14.7 40.5,31.7 37,29.3 39.1,31.1 37.4,32.6 -1.4,1.3 -48.4,34.6 -76.5,54.2 l -2.8,1.9 z"
       id="path102" />
    <path
       d="m 394.6,855.7 c -22,-15.5 -40.1,-28.6 -40.2,-29.2 -0.3,-0.9 77.2,-62.5 79.6,-63.3 0.7,-0.3 1,19.1 1,60.2 0,33.3 -0.1,60.6 -0.2,60.6 -0.2,0 -18.3,-12.7 -40.2,-28.3 z"
       id="path104" />
    <path
       d="M 2778,845.5 V 818 h 268 268 v 27.5 27.5 h -268 -268 z"
       id="path106" />
    <path
       d="M 456,823 V 796 H 724.5 993 v 27 27 H 724.5 456 Z"
       id="path108" />
    <path
       d="M 3119,606.6 V 546 l 21.8,17.2 c 27.7,22 43.9,34.8 52.5,41.5 l 6.7,5.4 -39.5,27.9 c -21.7,15.3 -40,28.2 -40.5,28.5 -0.7,0.4 -1,-20.2 -1,-59.9 z"
       id="path110" />
    <path
       d="m 611.3,616.7 c -22.1,-15.5 -40.1,-28.5 -40,-28.9 0.1,-0.4 18.2,-14.9 40.2,-32.3 l 40,-31.6 0.3,30.6 c 0.1,16.9 0.1,44.1 0,60.6 l -0.3,29.9 z"
       id="path112" />
    <path
       d="m 2778,610 v -27 h 159.5 159.5 v 27 27 H 2937.5 2778 Z"
       id="path114" />
    <path
       d="M 674,588 V 561 H 833.5 993 v 27 27 H 833.5 674 Z"
       id="path116" />
  </g>
</svg>
