<?xml version="1.0" encoding="utf-8"?>
<!DOCTYPE svg PUBLIC "-//W3C//DTD SVG 20010904//EN" "http://www.w3.org/TR/2001/REC-SVG-20010904/DTD/svg10.dtd">
<svg version="1.0" xmlns="http://www.w3.org/2000/svg" width="551px" height="150px" viewBox="0 0 551 150" preserveAspectRatio="xMidYMid meet">
 <g fill="#fc0000">
  <path d="M313.5 144.8 c0.3 -1.3 2.8 -15.1 5.5 -30.8 2.8 -15.7 6.7 -37.5 8.6 -48.5 2 -11 4.1 -23 4.7 -26.7 l1.1 -6.8 16.8 0 16.9 0 2.4 2.5 2.5 2.4 0 1.7 c0 1.7 -12.6 74 -13.7 78.1 l-0.5 2.3 -3.4 3 -3.5 3 -9.4 0 -9.3 0 -0.6 2.8 c-0.3 1.5 -1 5.6 -1.6 9.2 -0.6 3.6 -1.3 7.3 -1.6 8.3 l-0.5 1.7 -7.5 0 -7.4 0 0.5 -2.2z m37.1 -63.3 c2.8 -16 5.3 -30.5 5.7 -32.3 l0.7 -3.2 -6 0 c-3.3 0 -6 0.2 -6 0.5 0 0.3 -2.5 14.5 -5.5 31.7 -3 17.1 -5.5 31.6 -5.5 32 l0 0.9 5.7 -0.3 5.8 -0.3 5.1 -29z m-15.6 -48 c0 -0.3 -0.2 -0.5 -0.5 -0.5 -0.3 0 -0.5 0.2 -0.5 0.5 0 0.3 0.2 0.5 0.5 0.5 0.3 0 0.5 -0.2 0.5 -0.5z"/>
  <path d="M1 124.2 c0 -0.5 1.6 -9.8 3.5 -20.8 2 -10.9 5.2 -28.9 7.1 -39.9 5.8 -32.9 8.3 -46.6 8.8 -47.3 l0.4 -0.7 -6.5 0.3 -6.5 0.4 0.5 -1.9 c0.3 -1 0.8 -3.8 1.2 -6.3 0.4 -2.5 0.9 -5.3 1.1 -6.2 l0.5 -1.8 19.5 0 19.4 0 0 1.1 c0 0.5 -0.5 4.1 -1.1 8 l-1.2 6.9 -5.8 0 -5.9 0 0 0.7 c0 0.9 -16.7 96.2 -18.1 103.1 l-1 5.2 -8 0 -7.9 0 0 -0.8z m17.9 -20.4 c1.8 -10.6 6.1 -35 9.5 -54.3 l6.2 -35 5.7 -0.3 5.6 -0.3 0.6 -3.2 c0.3 -1.8 0.6 -4.3 0.8 -5.7 l0.2 -2.5 -16.9 -0.3 -17 -0.2 -0.7 0.7 c-0.4 0.5 -1.1 3.2 -1.5 6.1 l-0.7 5.2 5.7 0 5.6 0 0 0.8 c0 0.8 -17.7 101.4 -18.6 105.5 l-0.6 2.7 6.4 0 6.4 0 3.3 -19.2z"/>
  <path d="M34.3 123.5 l-2.1 -1.5 -0.6 -2.5 -0.6 -2.5 7 -39.7 c3.9 -21.9 7.3 -41 7.6 -42.5 l0.6 -2.8 7.9 0 7.9 0 0 0.7 c0 0.7 -1.6 9.6 -9.1 51.2 -1.6 9 -3.2 18.8 -3.5 21.6 l-0.6 5.3 4.3 0.3 4.4 0.4 0.2 -2.6 c0.2 -2.6 10.4 -61.4 12.4 -71.6 l1 -5.3 7.8 0 7.7 0 -7.6 43.2 -7.7 43.1 -3.6 3.4 -3.7 3.3 -13.8 0 -13.8 0 -2.1 -1.5z m30.9 -1.5 c0.9 -0.2 1.6 -0.6 1.5 -0.9 -0.1 -0.3 0.6 -1.7 1.5 -3.1 l1.6 -2.5 1.6 -9 c3.4 -19.9 7.8 -44.7 10.1 -57.4 1.4 -7.4 2.5 -13.8 2.5 -14.3 l0 -0.9 -5.7 0.3 -5.7 0.3 -5.2 30 c-2.9 16.5 -6 34.2 -6.9 39.3 l-1.7 9.2 -6.4 0 -6.4 0 0 -0.9 c0 -0.5 1.1 -7 2.4 -14.3 5.5 -30.1 10.6 -59.7 10.6 -61.7 l0 -2.2 -5.7 0.3 -5.7 0.3 -3.2 18.5 c-1.8 10.2 -4.9 27.7 -7 39 -3.3 18.9 -4 24.7 -3.3 29.2 l0.2 1.6 14.6 -0.3 c8 -0.1 15.4 -0.4 16.3 -0.5z m-17.2 -10.5 c0 -0.3 -0.2 -0.5 -0.5 -0.5 -0.3 0 -0.5 0.2 -0.5 0.5 0 0.3 0.2 0.5 0.5 0.5 0.3 0 0.5 -0.2 0.5 -0.5z m13 -78 c0 -0.3 -0.2 -0.5 -0.5 -0.5 -0.3 0 -0.5 0.2 -0.5 0.5 0 0.3 0.2 0.5 0.5 0.5 0.3 0 0.5 -0.2 0.5 -0.5z"/>
  <path d="M83.5 122.8 c0.2 -1.3 3.6 -20.5 7.5 -42.7 l7.1 -40.3 1.6 -2.5 1.6 -2.4 2.8 -1.5 2.8 -1.4 10.7 0 10.6 0 -0.5 2.2 c-0.3 1.3 -0.9 4.4 -1.2 7 l-0.7 4.7 -6.6 0.3 -6.7 0.3 -3.1 17.5 c-1.7 9.6 -4.8 27.3 -6.9 39.3 l-3.9 21.7 -7.8 0 -7.8 0 0.5 -2.2z m13.5 -0.2 c0 -0.8 13 -74.1 13.5 -76.4 l0.6 -2.4 6.7 0.4 6.7 0.3 0.2 -4.3 0.2 -4.4 1 -1.1 0.9 -1.2 -10.1 0.3 -10.2 0.3 -1.2 1.1 -1.2 1 -1.2 -0.8 -1.2 -0.7 0.7 1.1 0.6 1.1 -1 0.6 c-0.5 0.3 -1.4 2.3 -1.9 4.3 -1.3 4.8 -14.1 77.4 -14.1 80 l0 1.2 5.5 0 c3 0 5.5 -0.2 5.5 -0.4z"/>
  <path d="M120 123.8 c0 -0.7 4.9 -28.7 10.8 -62.3 l10.8 -61 8.2 -0.3 8.2 -0.3 0 1.9 c0 1.1 -1.1 7.9 -2.5 15.2 -1.4 7.3 -2.5 13.7 -2.5 14.1 l0 0.9 9 0 9.1 0 2.4 2.5 2.5 2.4 0 2.5 c0 4 -12.9 75.8 -14.1 78.8 l-1.1 2.8 -3.3 2 -3.2 2 -17.2 0 -17.1 0 0 -1.2z m36.4 -2.9 c1.4 -1.1 3 -2.8 3.6 -3.8 l0.9 -1.8 6.6 -37.2 6.6 -37.2 -0.4 -3.2 -0.3 -3.2 -1.2 -0.1 c-0.7 -0.1 -5.8 -0.2 -11.5 -0.3 l-10.3 -0.1 2.3 -12.7 c1.2 -7.1 2.5 -14 2.8 -15.5 l0.5 -2.8 -6.5 0 -6.5 0 0 0.8 c0 0.4 -2.9 17.4 -6.5 37.7 -3.6 20.4 -8.1 46 -10.1 56.9 -1.9 11 -3.7 21 -4 22.3 l-0.6 2.3 16 0 15.9 0 2.7 -2.1z"/>
  <path d="M139.1 97.8 c1.5 -8.4 4.2 -24 6 -34.5 l3.3 -19.3 6.3 0 6.3 0 -0.1 2.3 c0 1.2 -2.6 16.6 -5.7 34.2 l-5.7 32 -6.6 0.3 -6.5 0.3 2.7 -15.3z m9.2 12.6 c-0.2 -0.5 2.1 -15.1 5.2 -32.3 3 -17.2 5.5 -31.5 5.5 -31.7 0 -0.2 -2 -0.4 -4.4 -0.4 l-4.4 0 -0.5 3.3 c-5.8 33.3 -8.2 46.7 -9.6 53.7 l-1.6 8.5 5.1 0 5.1 0 -0.4 -1.1z"/>
  <path d="M172 35.5 c0 -0.3 0.2 -0.5 0.5 -0.5 0.3 0 0.5 0.2 0.5 0.5 0 0.3 -0.2 0.5 -0.5 0.5 -0.3 0 -0.5 -0.2 -0.5 -0.5z"/>
  <path d="M177.5 122.5 l-2.5 -2.4 0 -3.8 0 -3.8 6.4 -36.4 6.5 -36.3 1.6 -2.5 1.7 -2.5 4.5 -2 4.5 -2 11.5 0.4 11.5 0.3 2.4 2.8 2.4 2.8 0 2.8 c0 1.6 -2.9 19.4 -6.5 39.6 l-6.5 36.8 -1.5 2.4 -1.6 2.4 -3.2 1.9 -3.2 2 -12.8 0 -12.8 0 -2.4 -2.5z m30.7 -0.6 c1.9 -0.6 3.3 -1.7 3.3 -2.7 0.1 -0.4 0.6 -2.3 1.2 -4.2 0.7 -1.9 3.9 -19.1 7.3 -38.2 l6.1 -34.7 -0.4 -3.7 -0.4 -3.7 -1.9 -0.5 c-1 -0.2 -6.2 -0.7 -11.5 -0.9 l-9.5 -0.5 -4.5 1.3 c-2.4 0.7 -4.8 1.3 -5.4 1.3 -0.5 0.1 -1 0.6 -1 1.1 -0.1 0.6 -0.6 2.6 -1.3 4.5 -0.6 1.9 -3.9 19 -7.2 38 l-6.1 34.5 0.5 4.5 c0.2 2.5 0.5 4.6 0.5 4.7 0.2 0.4 28.8 -0.4 30.3 -0.8z"/>
  <path d="M178 121.5 c0 -0.3 0.2 -0.5 0.5 -0.5 0.3 0 0.5 0.2 0.5 0.5 0 0.3 -0.2 0.5 -0.5 0.5 -0.3 0 -0.5 -0.2 -0.5 -0.5z"/>
  <path d="M209.5 120 c0.3 -0.5 0.8 -1 1.1 -1 0.3 0 0.2 0.5 -0.1 1 -0.3 0.6 -0.8 1 -1.1 1 -0.3 0 -0.2 -0.4 0.1 -1z"/>
  <path d="M189 112.3 c0 -0.3 0.7 -4.3 1.5 -8.7 0.8 -4.5 3 -17.3 5 -28.6 2 -11.3 4 -22.9 4.6 -25.7 l1 -5.3 6.6 0 6.5 0 -0.6 2.8 c-0.9 4.1 -11.6 64.8 -11.6 65.6 l0 0.6 -6.5 0 -6.5 0 0 -0.7z m2 -0.8 c0 -0.3 -0.2 -0.5 -0.5 -0.5 -0.3 0 -0.5 0.2 -0.5 0.5 0 0.3 0.2 0.5 0.5 0.5 0.3 0 0.5 -0.2 0.5 -0.5z m9.7 -2.3 c0.1 -1.5 2.5 -15.6 5.2 -31.3 2.8 -15.8 5.1 -29.4 5.1 -30.3 l0 -1.7 -4.2 0.3 -4.2 0.3 -5.6 31.9 -5.6 31.8 1 0.4 c0.6 0.2 2.7 0.5 4.6 0.7 1.9 0.2 3.5 0.5 3.5 0.5 0 0.1 0.1 -1 0.2 -2.6z"/>
  <path d="M192 36.5 c0 -0.3 0.2 -0.5 0.5 -0.5 0.3 0 0.5 0.2 0.5 0.5 0 0.3 -0.2 0.5 -0.5 0.5 -0.3 0 -0.5 -0.2 -0.5 -0.5z"/>
  <path d="M224 35.5 c0 -0.3 0.2 -0.5 0.5 -0.5 0.3 0 0.5 0.2 0.5 0.5 0 0.3 -0.2 0.5 -0.5 0.5 -0.3 0 -0.5 -0.2 -0.5 -0.5z"/>
  <path d="M236.2 122.7 l-2.2 -2.3 0 -3.7 0 -3.7 9 -51.2 9 -51.3 1.5 -3.3 1.5 -3.3 4.3 -1.9 4.2 -2 10.9 0 10.8 0 -0.5 1.3 c-0.3 0.8 -0.8 3.9 -1.2 7 l-0.7 5.7 -8.8 0 -8.7 0 -0.7 3.3 c-1.3 6.3 -6.6 36.7 -6.6 37.7 l0 1 7.1 0 7 0 -0.5 1.8 c-0.2 0.9 -0.7 3.6 -1.1 5.9 l-0.7 4.2 -7.1 0.3 -7.2 0.3 -3.7 20.5 c-2 11.3 -3.7 21.1 -3.7 21.8 l-0.1 1.2 8.5 0 8.5 0 0 0.8 c0 0.5 -0.5 3.4 -1.1 6.5 l-1.2 5.7 -12.2 0 -12.2 0 -2.1 -2.3z m32.8 -56.2 c0 -0.3 -0.2 -0.5 -0.5 -0.5 -0.3 0 -0.5 0.2 -0.5 0.5 0 0.3 0.2 0.5 0.5 0.5 0.3 0 0.5 -0.2 0.5 -0.5z m13 -54 c0 -0.3 -0.2 -0.5 -0.5 -0.5 -0.3 0 -0.5 0.2 -0.5 0.5 0 0.3 0.2 0.5 0.5 0.5 0.3 0 0.5 -0.2 0.5 -0.5z"/>
  <path d="M268.3 122.8 c0.3 -1.3 1.5 -7.2 2.7 -13.3 1.2 -6 3.1 -13.4 4.2 -16.2 l1.9 -5.3 6.2 -5.4 6.2 -5.5 -3.8 -7.1 c-2.1 -3.8 -4.2 -8.3 -4.7 -9.9 l-0.8 -3 2.4 -12.3 c1.3 -6.8 2.4 -12.4 2.4 -12.5 0 -0.2 3.2 -0.3 7 -0.3 l7 0 0 0.9 c0 0.6 -0.9 5.7 -2 11.5 l-2 10.4 1.7 3.6 c0.9 2 2 3.6 2.4 3.6 0.4 0 2.1 -1.6 3.7 -3.6 l3 -3.6 2.3 -11.4 2.3 -11.4 6.9 0 6.9 0 -0.6 2.7 c-0.3 1.6 -1.3 7.1 -2.1 12.3 l-1.6 9.5 -2.4 4 c-1.3 2.2 -4.8 6.9 -7.9 10.4 l-5.7 6.3 3.5 6.2 3.5 6.3 1 4.3 0.9 4.3 -2.5 13.3 -2.5 13.4 -7.3 0 -7.2 0 1.8 -10.7 c1.1 -6 1.9 -12.3 1.9 -14.2 l0 -3.5 -1.2 -3.3 -1.2 -3.3 -1.1 0.3 c-0.5 0.2 -2.3 2.4 -3.8 4.9 l-2.8 4.5 -2.6 12.6 -2.6 12.7 -7 0 -6.9 0 0.5 -2.2z m12.7 0.7 c0 -0.3 -0.2 -0.5 -0.5 -0.5 -0.3 0 -0.5 0.2 -0.5 0.5 0 0.3 0.2 0.5 0.5 0.5 0.3 0 0.5 -0.2 0.5 -0.5z m26 0 c0 -0.3 -0.2 -0.5 -0.5 -0.5 -0.3 0 -0.5 0.2 -0.5 0.5 0 0.3 0.2 0.5 0.5 0.5 0.3 0 0.5 -0.2 0.5 -0.5z m-9 -90 c0 -0.3 -0.2 -0.5 -0.5 -0.5 -0.3 0 -0.5 0.2 -0.5 0.5 0 0.3 0.2 0.5 0.5 0.5 0.3 0 0.5 -0.2 0.5 -0.5z m14 0 c0 -0.3 -0.2 -0.5 -0.5 -0.5 -0.3 0 -0.5 0.2 -0.5 0.5 0 0.3 0.2 0.5 0.5 0.5 0.3 0 0.5 -0.2 0.5 -0.5z"/>
  <path d="M367 123.8 c0 -0.7 3.4 -20.2 7.4 -43.3 l7.5 -42 3.5 -3.2 3.6 -3.3 10.8 0 10.9 0 -1.2 6.3 -1.1 6.2 -7.2 0.3 -7.2 0.3 0 0.7 c0 1.3 -12.6 73.1 -13.5 77 l-0.5 2.2 -6.5 0 -6.5 0 0 -1.2z"/>
  <path d="M405.2 124.3 c-0.7 -0.3 -1.9 -1.8 -2.8 -3.4 l-1.5 -2.9 1.6 -9.3 c0.9 -5 2.5 -13.9 3.5 -19.7 1.1 -5.8 3.3 -18.6 5 -28.5 1.8 -9.9 3.6 -19.2 4.2 -20.8 l1.1 -2.7 2.9 -2.5 3 -2.5 12.8 0 12.8 0 1.7 0.6 1.6 0.6 1.4 2.9 1.5 2.8 -3.5 20.2 c-2 11.1 -3.8 21.2 -4.1 22.4 l-0.6 2.3 -12.1 0.1 c-6.7 0.1 -12.3 0.3 -12.4 0.5 -0.5 0.5 -4.3 22 -4.3 24.4 l0 2.2 4.9 0 5 0 0.5 -1.7 c0.3 -1 0.8 -3.6 1.1 -5.8 0.4 -2.2 0.9 -4.8 1.2 -5.7 l0.4 -1.8 7 0 c3.8 0 6.9 0.1 6.9 0.3 0 0.1 -0.9 4.9 -2 10.7 l-2 10.5 -1.8 2.5 c-1.1 1.4 -3 3.1 -4.3 3.7 l-2.4 1.3 -12.5 -0.1 c-6.9 0 -13.1 -0.3 -13.8 -0.6z m31.4 -66.3 l2 -12 -5.3 0 -5.3 0 -0.5 2.3 c-1.1 4.9 -3.5 18.3 -3.5 20 l0 1.7 5.3 0 5.3 0 2 -12z"/>
  <path d="M454.2 124.3 c-0.7 -0.3 -1.9 -1.8 -2.8 -3.4 l-1.5 -3 1.6 -8.7 c0.8 -4.8 1.8 -9.7 2 -10.9 l0.5 -2.3 6.6 0 6.7 0 -0.7 3.8 c-0.3 2 -0.9 5.6 -1.3 8 l-0.6 4.2 5.2 0 5.2 0 0.5 -1.3 c1 -2.7 5.1 -26.7 4.6 -27.2 -0.3 -0.3 -4.5 -0.5 -9.4 -0.5 l-8.8 0 -2 -2 -2 -2 0 -3.7 c0 -2.1 1.3 -10.8 2.9 -19.3 l2.8 -15.5 1.1 -2.2 c0.7 -1.2 2.4 -3.1 3.8 -4.2 l2.7 -2.1 12.7 0 12.7 0 2.1 2.3 2.2 2.3 0 3.3 c0 1.8 -0.5 6.3 -1.1 10.2 l-1.2 6.9 -7 0 -6.9 0 0.5 -1.4 c0.3 -0.7 0.9 -3.4 1.2 -6 l0.7 -4.6 -5.5 0 -5.5 0 -1.6 9.3 c-1 5 -2 10.7 -2.3 12.5 l-0.5 3.2 8.7 0 8.7 0 2.9 2.9 2.9 2.9 0 1.8 c0 1 -1.6 10.3 -3.6 20.7 l-3.5 18.9 -1.6 2.5 -1.6 2.4 -2.8 1.5 -2.8 1.4 -11.8 -0.1 c-6.5 0 -12.4 -0.3 -13.1 -0.6z m11.8 -26.8 c0 -0.3 -0.2 -0.5 -0.5 -0.5 -0.3 0 -0.5 0.2 -0.5 0.5 0 0.3 0.2 0.5 0.5 0.5 0.3 0 0.5 -0.2 0.5 -0.5z m32 -42 c0 -0.3 -0.2 -0.5 -0.5 -0.5 -0.3 0 -0.5 0.2 -0.5 0.5 0 0.3 0.2 0.5 0.5 0.5 0.3 0 0.5 -0.2 0.5 -0.5z"/>
  <path d="M501.7 123.8 c-0.9 -0.7 -2 -2.5 -2.6 -3.9 l-0.9 -2.6 1.3 -6.9 c0.7 -3.8 1.5 -8.6 1.9 -10.6 l0.7 -3.8 6.6 0 6.6 0 -0.7 4 c-0.3 2.2 -0.9 5.8 -1.2 8 l-0.7 4 5.5 0 5.4 0 2.6 -13.7 c1.4 -7.6 2.4 -14.1 2.1 -14.5 l-0.4 -0.8 -8.9 0 -8.9 0 -2.1 -2.2 -2 -2.2 0 -3 c0 -1.7 1.3 -10.5 3 -19.6 l2.9 -16.4 1.9 -2.6 c1 -1.4 3 -3.1 4.3 -3.7 l2.4 -1.3 12.3 0 12.2 0 2 2 2 2 0 4.1 c0 2.3 -0.5 7 -1.2 10.5 l-1.1 6.4 -6.7 0 -6.7 0 0.8 -4.2 c0.4 -2.4 0.8 -5.1 0.9 -6 l0 -1.8 -5.3 0 -5.4 0 -1.7 10.3 c-1 5.6 -2 11.2 -2.3 12.5 l-0.5 2.2 8.7 0 8.7 0 2.9 2.9 2.9 2.9 0 1.9 c0 1.1 -1.6 10.3 -3.5 20.6 l-3.5 18.8 -1 2 -1.1 2 -3.2 1.9 -3.2 2 -12.1 0 -12 0 -1.7 -1.2z m2.3 -26.3 c0 -0.3 -0.2 -0.5 -0.5 -0.5 -0.3 0 -0.5 0.2 -0.5 0.5 0 0.3 0.2 0.5 0.5 0.5 0.3 0 0.5 -0.2 0.5 -0.5z m10 0 c0 -0.3 -0.2 -0.5 -0.5 -0.5 -0.3 0 -0.5 0.2 -0.5 0.5 0 0.3 0.2 0.5 0.5 0.5 0.3 0 0.5 -0.2 0.5 -0.5z m32 -42 c0 -0.3 -0.2 -0.5 -0.5 -0.5 -0.3 0 -0.5 0.2 -0.5 0.5 0 0.3 0.2 0.5 0.5 0.5 0.3 0 0.5 -0.2 0.5 -0.5z"/>
 </g>
</svg>